<svg version="1" xmlns="http://www.w3.org/2000/svg" width="1024" height="1024" viewBox="0 0 768.000000 768.000000"><path d="M102.5 60.7c-5.7 1.4-19.8 6.4-25.5 9.1-7.2 3.4-16.2 8.4-17 9.3-.3.3-1.5 1.1-2.8 1.8-5.9 3.1-23.6 20-29.1 27.7-1.3 1.9-2.8 3.4-3.3 3.4-.4 0-.8.4-.8 1 0 .8-3.4 6.5-5.7 9.5-2.1 2.8-11 22.2-11.7 25.6-.3 1.3-1.2 4.5-2 7.2-.8 2.6-1.5 4.9-1.6 5.2 0 .3 0 .6-.1.7-.2.7-.9 4.7-1.6 9.3-1 6.3-1.1 416.4-.1 422.5 1.5 8.6 1.9 10.5 3.9 17.9 6.8 24.3 22.3 48.6 41.6 64.8 1.2 1 3.1 2.6 4.3 3.6 7.5 6.3 22.9 15.1 35.2 20 4.1 1.7 18 5.7 21.8 6.3 1.4.2 4.8.7 7.5 1.1 2.8.5 98.2.8 212 .8 196.5 0 207.4-.1 215-1.8 4.4-1 8.7-2 9.5-2.2 7-1.5 29.3-10.6 31-12.6.3-.3 2.1-1.4 4-2.5 5.4-3 16-11.2 21.9-17.1 2.9-2.9 5.8-5.3 6.2-5.3.5 0 .9-.5.9-1.1 0-.7.8-1.9 1.8-2.8 9.5-8.7 25.9-40.4 28.6-55.1.2-1.4.7-3.6 1-5 2.6-11.1 2.8-19 2.9-100.1 0-75 0-77.8-1.9-81-1.2-2.1-3.8-4.3-6.6-5.7-7.4-3.7-9.9-2.7-21.9 8.7-19.1 18.1-26.9 26-27 27.3 0 .7-.3 2.2-.5 3.3-.7 3.3-.7 14.2 0 15.4.4.6.4 1.1-.1 1.1-.9 0-.9 22.1.1 24.5.3.9.2 1.4-.2 1.1-.4-.2-.7 5.6-.7 13s.4 13.4.8 13.4c.5 0 .5.5.1 1.1-.6 1.1-.9 9.1-.4 11.4.1.5.2 1.2.1 1.5-.7 1.9-.4 18 .2 18 .5 0 .5.5.1 1.1-.6 1.1-.9 9.1-.4 11.4.1.5.2 1.2.1 1.5-.1.3-.3 4.1-.6 8.5-.2 4.4-.6 9.3-1 11-6.1 31.2-32.8 56.8-63 60.2-7.5.8-399.5.9-405 .1-14.8-2.3-28.6-9.2-41.1-20.4-4.3-3.9-11.5-13.6-14.5-19.7-4.2-8.3-6.3-14.9-7.6-23.7-.9-5.9-.9-400.2 0-405.8 1.3-8.7 5.8-21.8 8-23.3.4-.3.9-1.2 1-2 .4-2.5 8.2-12.3 14.5-18 5.6-5.2 15.5-11.8 17.6-11.7.5 0 1.2-.4 1.5-.9.9-1.4 8.8-4.1 17.1-5.9 6.8-1.4 26.3-1.6 204.5-1.6 108.4 0 199.3.2 202 .5 2.8.3 7.3 1.1 10 1.7 6.4 1.4 9.4 1.5 12.7.6 2.3-.7 11.2-9.4 25.4-24.7 11.1-12.1 7.1-23.4-10.2-28.9-4.4-1.3-8-2.4-8.1-2.3-.2.1-2.1-.4-4.4-1.2-3.5-1.3-34.3-1.5-225.3-1.4-121.6.1-222 .3-223.1.6z"/><path d="M670.5 88.3c-2.2.8-6 2.4-8.5 3.7-4.4 2.2-20.6 18.4-238.6 237.5-36.9 37.1-67.4 67.5-67.8 67.5-.3 0-29.1-28.5-63.9-63.3-67.4-67.4-67.9-67.9-79.7-69.4-1.4-.2-2.9-.4-3.5-.5-2.3-.3-11.6 1.3-14.2 2.4-8.1 3.5-11.8 7-55.8 52.3-15.2 15.7-18.7 21.6-19.1 32.7-.3 8 2 16.5 6.2 22.7 1.3 2 48.2 49.4 104.1 105.4 96.4 96.5 106.9 106.5 112.5 107.3.4.1.9.2 1.1.4 1.7 1.4 15.1 2 19.5.8 9.8-2.5 12.2-4.5 45.7-37.9 18.2-18 99.6-99.2 181-180.4 81.4-81.1 148.2-147.6 148.5-147.6 1.8-.4 24.9-26.1 26.4-29.4 1-2.2 2.3-4.8 2.7-5.7 1.3-2.5 1.1-18.9-.2-22.9-3.4-10.8-3.9-11.3-58.7-64.2-9-8.7-15.9-11.9-26.2-12.4-4.4-.2-9.1.3-11.5 1z"/></svg>