<?xml version="1.0" encoding="UTF-8" standalone="no"?>
<svg
   xmlns:dc="http://purl.org/dc/elements/1.1/"
   xmlns:cc="http://creativecommons.org/ns#"
   xmlns:rdf="http://www.w3.org/1999/02/22-rdf-syntax-ns#"
   xmlns:svg="http://www.w3.org/2000/svg"
   xmlns="http://www.w3.org/2000/svg"
   version="1.1"
   id="svg5156"
   viewBox="0 0 210 160"
   height="160"
   width="210">
  <defs
     id="defs5158">
    <linearGradient
       spreadMethod="pad"
       gradientUnits="userSpaceOnUse"
       y2="593.78698"
       y1="3.6658269"
       x2="590.86259"
       x1="0.74144253"
       id="gradientFill"
       gradientTransform="matrix(1.2219423,0,0,0.81836924,-767.16729,-40.990215)">
      <stop
         id="stop6361"
         stop-opacity="1"
         stop-color="rgb(203,206,208)"
         offset="0" />
      <stop
         id="stop6363"
         stop-opacity="1"
         stop-color="rgb(132,131,139)"
         offset="1" />
    </linearGradient>
    <linearGradient
       spreadMethod="pad"
       gradientUnits="userSpaceOnUse"
       y2="593.78699"
       y1="3.6658268"
       x2="590.86261"
       x1="0.7414425"
       id="gradientFill-0"
       gradientTransform="matrix(1.2219423,0,0,0.81836924,-767.16729,-40.990215)">
      <stop
         id="stop6361-6"
         stop-opacity="1"
         stop-color="rgb(203,206,208)"
         offset="0" />
      <stop
         id="stop6363-2"
         stop-opacity="1"
         stop-color="rgb(132,131,139)"
         offset="1" />
    </linearGradient>
  </defs>
  <metadata
     id="metadata5161">
    <rdf:RDF>
      <cc:Work
         rdf:about="">
        <dc:format>image/svg+xml</dc:format>
        <dc:type
           rdf:resource="http://purl.org/dc/dcmitype/StillImage" />
        <dc:title></dc:title>
      </cc:Work>
    </rdf:RDF>
  </metadata>
  <g
     transform="translate(0,-892.36221)"
     id="layer1">
    <g
       id="g485054"
       transform="translate(-1227.0204,20.496579)">
      <path
         style="fill:#000000;fill-opacity:1;fill-rule:evenodd;stroke:none;stroke-width:0.80514383px;stroke-linecap:butt;stroke-linejoin:miter;stroke-opacity:1"
         d="m 1272.4716,931.54297 c -0.589,-0.0592 -1.0658,0.40907 -1.0664,1.04687 l 0,8.77344 a 17.701117,17.849392 0 0 0 -10.459,-3.47266 17.701117,17.849392 0 0 0 -17.6992,17.84961 17.701117,17.849392 0 0 0 17.6992,17.84961 17.701117,17.849392 0 0 0 10.6289,-3.5957 c 0.1871,0.35547 0.5099,0.62783 0.8965,0.67383 l 21.625,2.55078 0,3.66602 -13.7773,-1.64649 0,2.71875 30.4902,3.67774 0.9043,0.10937 6.6719,0.80469 0,-0.72656 c 1.3967,-0.0565 3.1815,-0.10531 5.4473,-0.041 1.9795,0.0555 3.9683,0.20603 5.4414,0.51367 0.7366,0.15375 1.3427,0.35149 1.7304,0.5625 0.3877,0.21101 0.5027,0.3893 0.5196,0.51172 0.028,0.20117 -0.022,0.3512 -0.1836,0.56055 -0.1614,0.20934 -0.4407,0.44009 -0.7637,0.65429 -0.3231,0.2142 -0.685,0.41432 -1.0176,0.61133 -0.3326,0.19686 -0.6343,0.36499 -0.8808,0.65821 -0.1234,0.14654 -0.2502,0.36319 -0.2403,0.63867 0.011,0.27561 0.173,0.51124 0.3438,0.6582 0.3415,0.29419 0.7792,0.44217 1.4863,0.63086 1.4143,0.3771 3.89,0.78631 8.0996,1.32422 0.8757,0.1123 1.5352,0.25121 1.9688,0.39844 0.409,0.13905 0.5476,0.28494 0.5625,0.29687 -0.011,0.0208 -0.01,0.0361 -0.059,0.0957 -0.1409,0.16942 -0.482,0.44058 -0.9805,0.73047 -1.6368,0.95189 -4.9997,2.19526 -9.3262,3.59766 -0.9118,-0.75 -2.2539,-1.22127 -3.9785,-1.16797 -3.8099,0.1178 -6.1754,2.81634 -8.334,5.21484 0,0 -0.058,0.35894 -0.1777,0.89844 -0.1199,0.5398 2.0976,2.69716 3.2969,3.47656 1.1993,0.7795 3.8776,0.1411 7.3144,-1.4981 3.1473,-1.50116 3.8532,-4.12346 2.707,-5.97846 4.1129,-1.338 7.3076,-2.52611 9.0762,-3.55469 0.5588,-0.32483 0.9829,-0.62752 1.2813,-0.98632 0.1491,-0.17939 0.2727,-0.38043 0.3261,-0.62305 0.054,-0.24262 0.012,-0.52287 -0.1113,-0.74414 -0.2463,-0.44226 -0.6784,-0.65548 -1.2324,-0.84375 -0.5541,-0.18841 -1.2708,-0.33556 -2.1914,-0.45313 -4.1929,-0.5357 -6.6619,-0.94761 -7.9492,-1.29101 -0.4515,-0.12062 -0.5693,-0.19985 -0.7266,-0.27735 0.1044,-0.0749 0.145,-0.11653 0.3066,-0.21289 0.3102,-0.18369 0.6909,-0.39539 1.0664,-0.64453 0.3756,-0.24899 0.7484,-0.5336 1.0371,-0.9082 0.289,-0.3746 0.4927,-0.87645 0.418,-1.41797 -0.086,-0.62041 -0.5581,-1.0602 -1.1113,-1.36133 -0.5533,-0.30112 -1.2472,-0.51081 -2.0469,-0.67773 -1.5988,-0.33398 -3.6267,-0.48208 -5.6406,-0.53906 -1.3295,-0.0374 -2.5344,-0.037 -3.5918,-0.0195 -0.7367,0.0123 -1.3007,0.0376 -1.8867,0.0606 l 0,-0.88867 -14.0567,-1.67969 0,-3.68164 22.209,2.6211 c 0.617,0.0727 1.1171,-0.39912 1.1172,-1.05274 l 0,-37.66211 c -6e-4,-0.65332 -0.5005,-1.23413 -1.1172,-1.29687 l -54.0664,-5.49219 z m 1.0684,2.42383 51.8808,5.32031 0,35.26172 -51.8808,-6.07031 0,-0.21485 a 17.701117,17.849392 0 0 0 5.1074,-12.52344 17.701117,17.849392 0 0 0 -5.1074,-12.53515 l 0,-9.23828 z"
         id="path14420-6" />
      <path
         id="path14424-6"
         d="m 1240.9039,973.48781 c -2.1819,0.0444 -4.0305,1.61985 -4.4213,3.76695 -1.4733,7.4826 -2.3457,12.07806 -2.7092,15.17552 -0.1818,1.5487 -0.3152,2.6504 -0.052,4.1704 0.1318,0.7599 0.3676,1.76 1.284,2.8235 0.9014,1.04622 2.5553,1.71692 3.7131,1.76812 1.2389,0.054 1.6416,-0.1538 2.0931,-0.2935 0.2756,-0.086 0.5223,-0.1896 0.7753,-0.2869 l 0,16.1122 38.7208,0 0,-18.09542 c 0.9709,2.41522 1.961,4.87222 2.7518,6.79442 0.4762,1.1576 0.8918,2.155 1.2235,2.9267 0.3318,0.7715 0.2009,0.7812 0.9479,1.9764 0.8438,1.3501 1.935,1.7962 2.5839,2.0101 0.6488,0.2139 1.0638,0.2442 1.414,0.2644 0.7003,0.04 1.155,-0.015 1.6403,-0.076 0.9706,-0.1234 1.9659,-0.3355 3.1148,-0.6074 2.2979,-0.5434 5.1172,-1.339 7.9127,-2.1691 5.591,-1.6602 11.05,-3.4554 11.05,-3.4554 5.9446,-1.8437 3.0128,-10.76262 -2.8662,-8.71942 0,0 -5.3738,1.7644 -10.7966,3.37472 -2.673,0.7937 -5.3462,1.5406 -7.3077,2.0079 -0.152,-0.3656 -0.257,-0.6085 -0.428,-1.0241 -0.9324,-2.26622 -2.1196,-5.20512 -3.283,-8.10762 -2.3266,-5.80523 -4.5647,-11.47125 -4.5647,-11.47125 -1.154,-1.77485 -2.5892,-2.66699 -4.3092,-2.96257 -12.7892,-1.56897 -25.821,-4.50243 -38.4878,-5.90254 z"
         style="opacity:1;fill:#000000;fill-opacity:1;fill-rule:nonzero;stroke:none;stroke-width:1.60000002;stroke-linecap:round;stroke-linejoin:round;stroke-miterlimit:4;stroke-dasharray:none;stroke-dashoffset:0;stroke-opacity:1" />
      <path
         id="path14452-8"
         d="m 1334.1305,940.95271 c -1.7739,0.0361 -3.2761,1.3169 -3.5938,3.0625 -1.1978,6.08339 -1.9075,9.81964 -2.2031,12.33789 -0.1477,1.25913 -0.2553,2.15483 -0.041,3.39062 0.1072,0.61779 0.298,1.43029 1.043,2.29492 0.7329,0.85054 2.0782,1.39591 3.0195,1.4375 1.0073,0.044 1.3341,-0.12466 1.7012,-0.23828 0.2241,-0.0699 0.4252,-0.15525 0.6309,-0.23437 l 0,13.09961 27.4082,0 a 18.658499,18.814795 0 0 1 -1.1192,-6.36914 18.658499,18.814795 0 0 1 9.9238,-16.61133 c -0.7671,-1.93179 -1.9746,-4.96289 -1.9746,-4.96289 -0.9382,-1.44296 -2.1055,-2.1679 -3.5039,-2.40821 -10.3976,-1.27558 -20.9928,-3.66052 -31.291,-4.79882 z"
         style="opacity:1;fill:#666666;fill-opacity:1;fill-rule:nonzero;stroke:none;stroke-width:1.60000002;stroke-linecap:round;stroke-linejoin:round;stroke-miterlimit:4;stroke-dasharray:none;stroke-dashoffset:0;stroke-opacity:1" />
      <path
         id="path117428-3"
         d="m 1284.6397,949.1612 c 0,0 0,5.20162 0,5.20162 0,0 4.836,0.53478 4.836,0.53478 0,0 0,-5.2121 0,-5.2121 0,0 -4.836,-0.5243 -4.836,-0.5243 0,0 0,0 0,0 m 0.4649,0.55133 c 0,0 3.9046,0.42414 3.9046,0.42414 0,0 0,4.20698 0,4.20698 0,0 -3.9046,-0.43098 -3.9046,-0.43098 0,0 0,-4.20014 0,-4.20014 0,0 0,0 0,0"
         style="opacity:1;fill:#666666;fill-opacity:1;fill-rule:nonzero;stroke:none;stroke-width:1.60000002;stroke-linecap:round;stroke-linejoin:round;stroke-miterlimit:4;stroke-dasharray:none;stroke-dashoffset:0;stroke-opacity:1" />
      <path
         id="path117436-7"
         d="m 1292.7203,951.11716 c 0,0 14.3005,1.5568 14.3005,1.5568 0,0 0,3.07747 0,3.07747 0,0 -14.3005,-1.57498 -14.3005,-1.57498 0,0 0,-3.05929 0,-3.05929"
         style="opacity:1;fill:#cccccc;fill-opacity:1;fill-rule:nonzero;stroke:none;stroke-width:3;stroke-linecap:round;stroke-linejoin:round;stroke-miterlimit:4;stroke-dasharray:none;stroke-dashoffset:0;stroke-opacity:1" />
      <path
         id="path117438-8"
         d="m 1292.7203,957.57661 c 0,0 22.1437,2.47006 22.1437,2.47006 0,0 0,3.08743 0,3.08743 0,0 -22.1437,-2.4982 -22.1437,-2.4982 0,0 0,-3.05929 0,-3.05929"
         style="opacity:1;fill:#cccccc;fill-opacity:1;fill-rule:nonzero;stroke:none;stroke-width:3;stroke-linecap:round;stroke-linejoin:round;stroke-miterlimit:4;stroke-dasharray:none;stroke-dashoffset:0;stroke-opacity:1" />
      <path
         id="path117440-2"
         d="m 1292.7203,964.03603 c 0,0 10.3199,1.17884 10.3199,1.17884 0,0 0,3.07241 0,3.07241 0,0 -10.3199,-1.19196 -10.3199,-1.19196 0,0 0,-3.05929 0,-3.05929"
         style="opacity:1;fill:#cccccc;fill-opacity:1;fill-rule:nonzero;stroke:none;stroke-width:3;stroke-linecap:round;stroke-linejoin:round;stroke-miterlimit:4;stroke-dasharray:none;stroke-dashoffset:0;stroke-opacity:1" />
      <path
         id="path117442-8"
         d="m 1304.5395,965.38614 c 0,0 11.1878,1.27798 11.1878,1.27798 0,0 0,3.08853 0,3.08853 0,0 -11.1878,-1.2922 -11.1878,-1.2922 0,0 0,-3.07431 0,-3.07431"
         style="opacity:1;fill:#cccccc;fill-opacity:1;fill-rule:nonzero;stroke:none;stroke-width:3;stroke-linecap:round;stroke-linejoin:round;stroke-miterlimit:4;stroke-dasharray:none;stroke-dashoffset:0;stroke-opacity:1" />
      <path
         id="path117444-8"
         d="m 1284.6397,962.03682 c 0,0 0,5.20161 0,5.20161 0,0 4.836,0.56074 4.836,0.56074 0,0 0,-5.2121 0,-5.2121 0,0 -4.836,-0.55025 -4.836,-0.55025 0,0 0,0 0,0 m 0.4649,0.55382 c 0,0 3.9046,0.4451 3.9046,0.4451 0,0 0,4.20698 0,4.20698 0,0 -3.9046,-0.45193 -3.9046,-0.45193 0,0 0,-4.20015 0,-4.20015 0,0 0,0 0,0"
         style="opacity:1;fill:#666666;fill-opacity:1;fill-rule:nonzero;stroke:none;stroke-width:1.60000002;stroke-linecap:round;stroke-linejoin:round;stroke-miterlimit:4;stroke-dasharray:none;stroke-dashoffset:0;stroke-opacity:1" />
      <path
         id="path117446-7"
         d="m 1286.1925,962.8884 c 0,0 2.6553,3.16247 2.6553,3.16247 0,0 -0.9291,0.89239 -0.9291,0.89239 0,0 -2.6533,-3.16224 -2.6533,-3.16224 0,0 0.9271,-0.89262 0.9271,-0.89262"
         style="opacity:1;fill:#1f7a7a;fill-opacity:1;fill-rule:nonzero;stroke:none;stroke-width:1.60000002;stroke-linecap:round;stroke-linejoin:round;stroke-miterlimit:4;stroke-dasharray:none;stroke-dashoffset:0;stroke-opacity:1" />
      <path
         id="path117448-6"
         d="m 1288.8478,964.19112 c 0,0 -2.6553,2.55245 -2.6553,2.55245 0,0 -0.9271,-1.10559 -0.9271,-1.10559 0,0 2.6533,-2.55269 2.6533,-2.55269 0,0 0.9291,1.10583 0.9291,1.10583"
         style="opacity:1;fill:#1f7a7a;fill-opacity:1;fill-rule:nonzero;stroke:none;stroke-width:1.60000002;stroke-linecap:round;stroke-linejoin:round;stroke-miterlimit:4;stroke-dasharray:none;stroke-dashoffset:0;stroke-opacity:1" />
      <path
         id="path117450-0"
         d="m 1284.6397,955.59894 c 0,0 0,5.20161 0,5.20161 0,0 4.836,0.54776 4.836,0.54776 0,0 0,-5.21209 0,-5.21209 0,0 -4.836,-0.53728 -4.836,-0.53728 0,0 0,0 0,0 m 0.4649,0.55258 c 0,0 3.9046,0.43462 3.9046,0.43462 0,0 0,4.20697 0,4.20697 0,0 -3.9046,-0.44145 -3.9046,-0.44145 0,0 0,-4.20014 0,-4.20014 0,0 0,0 0,0"
         style="opacity:1;fill:#666666;fill-opacity:1;fill-rule:nonzero;stroke:none;stroke-width:1.60000002;stroke-linecap:round;stroke-linejoin:round;stroke-miterlimit:4;stroke-dasharray:none;stroke-dashoffset:0;stroke-opacity:1" />
      <path
         id="path117456-4"
         d="m 1308.2818,952.81124 c 0,0 14.4865,1.57706 14.4865,1.57706 0,0 0,3.09747 0,3.09747 0,0 -14.4865,-1.59547 -14.4865,-1.59547 0,0 0,-3.07906 0,-3.07906"
         style="opacity:1;fill:#cccccc;fill-opacity:1;fill-rule:nonzero;stroke:none;stroke-width:3;stroke-linecap:round;stroke-linejoin:round;stroke-miterlimit:4;stroke-dasharray:none;stroke-dashoffset:0;stroke-opacity:1" />
      <path
         id="path117458-9"
         d="m 1317.0958,939.90643 c -4.221,0.0244 -6.2542,0.25158 -9.8603,2.19337 0.1345,0.014 0.2513,0.0263 0.3782,0.0395 -0.1016,0.85256 -0.02,2.20361 -0.02,2.20361 0,0 0.014,0.001 0.014,0.001 -0.4274,1.22746 0,2.31255 0.3493,3.28942 0,-1.16478 0.055,-2.10024 -0.2591,-3.34382 -0.014,-0.15677 -0.072,-1.35876 0.022,-2.13632 0,0 0,0 0,0 0,0 0,0 0,0 0.9243,0.11152 1.6685,0.22392 2.3077,0.30878 -0.025,0.42197 0.039,0.94328 0.211,1.57761 -0.03,0.20111 -0.05,0.41227 -0.05,0.64093 0,0 0,5.27019 0,5.27019 0,0 2.3817,0.25627 2.3817,0.25627 0,0 0,-4.99043 0,-4.99043 0,-0.24369 0.022,-0.4554 0.066,-0.63798 0.6165,-0.0606 1.1886,-0.27966 1.6954,-0.64256 0.4319,0.2498 0.6445,0.76033 0.6445,1.53443 0,0 0,4.99537 0,4.99537 0,0 2.4113,0.25945 2.4113,0.25945 0,0 0,-5.00032 0,-5.00032 0,-1.05299 0.4126,-1.53616 1.2178,-1.4517 0.8058,0.0845 1.2192,0.65486 1.2192,1.70891 0,0 0,5.00534 0,5.00534 0,0 0,0.0219 0,0.0219 0,0 2.3796,0.25605 2.3796,0.25605 0,0 0,-5.31813 0,-5.31813 0,-1.09874 -0.3518,-1.94889 -1.0764,-2.59585 -0.6207,-0.56989 -1.4687,-0.89935 -2.5429,-1.01117 -1.1765,-0.12248 -1.9806,0.0787 -2.4136,0.62555 -0.1953,-0.24463 -0.4295,-0.449 -0.7039,-0.61509 -0.3022,-0.36209 -0.6121,-0.58851 -0.9325,-0.71709 0.7014,-0.40628 1.5206,-0.96002 2.5642,-1.72904 0,0 0,10e-4 0,10e-4"
         style="overflow:visible;fill:#1f7a7a;fill-opacity:1;stroke-width:2.55838013" />
      <path
         style="opacity:1;fill:#666666;fill-opacity:1;fill-rule:nonzero;stroke:none;stroke-width:1.60000002;stroke-linecap:round;stroke-linejoin:round;stroke-miterlimit:4;stroke-dasharray:none;stroke-dashoffset:0;stroke-opacity:1"
         d="m 1404.6081,962.79902 c 0,0 0,5.48295 0,5.48295 0,0 5.0976,0.56371 5.0976,0.56371 0,0 0,-5.494 0,-5.494 0,0 -5.0976,-0.55266 -5.0976,-0.55266 0,0 0,0 0,0 m 0.49,0.58115 c 0,0 4.1159,0.44708 4.1159,0.44708 0,0 0,4.43452 0,4.43452 0,0 -4.1159,-0.45429 -4.1159,-0.45429 0,0 0,-4.42731 0,-4.42731 0,0 0,0 0,0"
         id="path117462-1" />
      <path
         style="opacity:1;fill:#cccccc;fill-opacity:1;fill-rule:nonzero;stroke:none;stroke-width:3;stroke-linecap:round;stroke-linejoin:round;stroke-miterlimit:4;stroke-dasharray:none;stroke-dashoffset:0;stroke-opacity:1"
         d="m 1413.1258,964.86077 c 0,0 15.0739,1.641 15.0739,1.641 0,0 0,3.24392 0,3.24392 0,0 -15.0739,-1.66017 -15.0739,-1.66017 0,0 0,-3.22475 0,-3.22475"
         id="path117470-2" />
      <path
         style="opacity:1;fill:#cccccc;fill-opacity:1;fill-rule:nonzero;stroke:none;stroke-width:3;stroke-linecap:round;stroke-linejoin:round;stroke-miterlimit:4;stroke-dasharray:none;stroke-dashoffset:0;stroke-opacity:1"
         d="m 1413.1258,971.66959 c 0,0 23.3412,2.60365 23.3412,2.60365 0,0 0,3.25442 0,3.25442 0,0 -23.3412,-2.63332 -23.3412,-2.63332 0,0 0,-3.22475 0,-3.22475"
         id="path117472-2" />
      <path
         style="opacity:1;fill:#cccccc;fill-opacity:1;fill-rule:nonzero;stroke:none;stroke-width:3;stroke-linecap:round;stroke-linejoin:round;stroke-miterlimit:4;stroke-dasharray:none;stroke-dashoffset:0;stroke-opacity:1"
         d="m 1413.1258,978.47837 c 0,0 10.878,1.2426 10.878,1.2426 0,0 0,3.23858 0,3.23858 0,0 -10.878,-1.25643 -10.878,-1.25643 0,0 0,-3.22475 0,-3.22475"
         id="path117474-2" />
      <path
         style="opacity:1;fill:#666666;fill-opacity:1;fill-rule:nonzero;stroke:none;stroke-width:1.60000002;stroke-linecap:round;stroke-linejoin:round;stroke-miterlimit:4;stroke-dasharray:none;stroke-dashoffset:0;stroke-opacity:1"
         d="m 1404.6081,976.37103 c 0,0 0,5.48294 0,5.48294 0,0 5.0976,0.59107 5.0976,0.59107 0,0 0,-5.494 0,-5.494 0,0 -5.0976,-0.58001 -5.0976,-0.58001 0,0 0,0 0,0 m 0.49,0.58378 c 0,0 4.1159,0.46917 4.1159,0.46917 0,0 0,4.43452 0,4.43452 0,0 -4.1159,-0.47638 -4.1159,-0.47638 0,0 0,-4.42731 0,-4.42731 0,0 0,0 0,0"
         id="path117478-6" />
      <path
         style="opacity:1;fill:#1f7a7a;fill-opacity:1;fill-rule:nonzero;stroke:none;stroke-width:1.60000002;stroke-linecap:round;stroke-linejoin:round;stroke-miterlimit:4;stroke-dasharray:none;stroke-dashoffset:0;stroke-opacity:1"
         d="m 1406.2449,977.26867 c 0,0 2.7989,3.33352 2.7989,3.33352 0,0 -0.9794,0.94065 -0.9794,0.94065 0,0 -2.7967,-3.33327 -2.7967,-3.33327 0,0 0.9772,-0.9409 0.9772,-0.9409"
         id="path117480-0" />
      <path
         style="opacity:1;fill:#1f7a7a;fill-opacity:1;fill-rule:nonzero;stroke:none;stroke-width:1.60000002;stroke-linecap:round;stroke-linejoin:round;stroke-miterlimit:4;stroke-dasharray:none;stroke-dashoffset:0;stroke-opacity:1"
         d="m 1409.0438,978.64184 c 0,0 -2.7989,2.69052 -2.7989,2.69052 0,0 -0.9772,-1.1654 -0.9772,-1.1654 0,0 2.7967,-2.69076 2.7967,-2.69076 0,0 0.9794,1.16564 0.9794,1.16564"
         id="path117482-2" />
      <path
         style="opacity:1;fill:#666666;fill-opacity:1;fill-rule:nonzero;stroke:none;stroke-width:1.60000002;stroke-linecap:round;stroke-linejoin:round;stroke-miterlimit:4;stroke-dasharray:none;stroke-dashoffset:0;stroke-opacity:1"
         d="m 1404.6081,969.58496 c 0,0 0,5.48294 0,5.48294 0,0 5.0976,0.57739 5.0976,0.57739 0,0 0,-5.494 0,-5.494 0,0 -5.0976,-0.56633 -5.0976,-0.56633 0,0 0,0 0,0 m 0.49,0.58246 c 0,0 4.1159,0.45812 4.1159,0.45812 0,0 0,4.43452 0,4.43452 0,0 -4.1159,-0.46533 -4.1159,-0.46533 0,0 0,-4.42731 0,-4.42731 0,0 0,0 0,0"
         id="path117484-3" />
      <path
         style="opacity:1;fill:#1f7a7a;fill-opacity:1;fill-rule:nonzero;stroke:none;stroke-width:1.60000002;stroke-linecap:round;stroke-linejoin:round;stroke-miterlimit:4;stroke-dasharray:none;stroke-dashoffset:0;stroke-opacity:1"
         d="m 1406.2449,970.4782 c 0,0 2.7989,3.32601 2.7989,3.32601 0,0 -0.9794,0.94328 -0.9794,0.94328 0,0 -2.7967,-3.32576 -2.7967,-3.32576 0,0 0.9772,-0.94353 0.9772,-0.94353"
         id="path117486-9" />
      <path
         style="opacity:1;fill:#1f7a7a;fill-opacity:1;fill-rule:nonzero;stroke:none;stroke-width:1.60000002;stroke-linecap:round;stroke-linejoin:round;stroke-miterlimit:4;stroke-dasharray:none;stroke-dashoffset:0;stroke-opacity:1"
         d="m 1409.0438,971.84389 c 0,0 -2.7989,2.69802 -2.7989,2.69802 0,0 -0.9772,-1.16278 -0.9772,-1.16278 0,0 2.7968,-2.69826 2.7968,-2.69826 0,0 0.9793,1.16302 0.9793,1.16302"
         id="path117488-8" />
      <path
         id="path117496-6"
         d="m 1369.6883,921.17472 c 0,0 0,4.22893 0,4.22893 0,0 3.9317,0.43478 3.9317,0.43478 0,0 0,-4.23745 0,-4.23745 0,0 -3.9317,-0.42626 -3.9317,-0.42626 0,0 0,0 0,0 m 0.3779,0.44824 c 0,0 3.1745,0.34482 3.1745,0.34482 0,0 0,3.42029 0,3.42029 0,0 -3.1745,-0.35039 -3.1745,-0.35039 0,0 0,-3.41472 0,-3.41472 0,0 0,0 0,0"
         style="opacity:1;fill:#666666;fill-opacity:1;fill-rule:nonzero;stroke:none;stroke-width:1.60000002;stroke-linecap:round;stroke-linejoin:round;stroke-miterlimit:4;stroke-dasharray:none;stroke-dashoffset:0;stroke-opacity:1" />
      <path
         id="path117504-9"
         d="m 1376.2579,922.76492 c 0,0 11.6263,1.26569 11.6263,1.26569 0,0 0,2.50199 0,2.50199 0,0 -11.6263,-1.28047 -11.6263,-1.28047 0,0 0,-2.48721 0,-2.48721"
         style="opacity:1;fill:#cccccc;fill-opacity:1;fill-rule:nonzero;stroke:none;stroke-width:3;stroke-linecap:round;stroke-linejoin:round;stroke-miterlimit:4;stroke-dasharray:none;stroke-dashoffset:0;stroke-opacity:1" />
      <path
         id="path117506-7"
         d="m 1376.2579,928.01648 c 0,0 18.0028,2.00817 18.0028,2.00817 0,0 0,2.51009 0,2.51009 0,0 -18.0028,-2.03105 -18.0028,-2.03105 0,0 0,-2.48721 0,-2.48721"
         style="opacity:1;fill:#cccccc;fill-opacity:1;fill-rule:nonzero;stroke:none;stroke-width:3;stroke-linecap:round;stroke-linejoin:round;stroke-miterlimit:4;stroke-dasharray:none;stroke-dashoffset:0;stroke-opacity:1" />
      <path
         id="path117508-2"
         d="m 1376.2579,933.26801 c 0,0 8.3901,0.95841 8.3901,0.95841 0,0 0,2.49787 0,2.49787 0,0 -8.3901,-0.96907 -8.3901,-0.96907 0,0 0,-2.48721 0,-2.48721"
         style="opacity:1;fill:#cccccc;fill-opacity:1;fill-rule:nonzero;stroke:none;stroke-width:3;stroke-linecap:round;stroke-linejoin:round;stroke-miterlimit:4;stroke-dasharray:none;stroke-dashoffset:0;stroke-opacity:1" />
      <path
         id="path117510-6"
         d="m 1385.8669,934.36566 c 0,0 9.0957,1.039 9.0957,1.039 0,0 0,2.51098 0,2.51098 0,0 -9.0957,-1.05056 -9.0957,-1.05056 0,0 0,-2.49942 0,-2.49942"
         style="opacity:1;fill:#cccccc;fill-opacity:1;fill-rule:nonzero;stroke:none;stroke-width:3;stroke-linecap:round;stroke-linejoin:round;stroke-miterlimit:4;stroke-dasharray:none;stroke-dashoffset:0;stroke-opacity:1" />
      <path
         id="path117512-8"
         d="m 1369.6883,931.64264 c 0,0 0,4.22893 0,4.22893 0,0 3.9317,0.45589 3.9317,0.45589 0,0 0,-4.23746 0,-4.23746 0,0 -3.9317,-0.44736 -3.9317,-0.44736 0,0 0,0 0,0 m 0.3779,0.45027 c 0,0 3.1745,0.36186 3.1745,0.36186 0,0 0,3.42029 0,3.42029 0,0 -3.1745,-0.36742 -3.1745,-0.36742 0,0 0,-3.41473 0,-3.41473 0,0 0,0 0,0"
         style="opacity:1;fill:#666666;fill-opacity:1;fill-rule:nonzero;stroke:none;stroke-width:1.60000002;stroke-linecap:round;stroke-linejoin:round;stroke-miterlimit:4;stroke-dasharray:none;stroke-dashoffset:0;stroke-opacity:1" />
      <path
         id="path117518-8"
         d="m 1369.6883,926.40863 c 0,0 0,4.22893 0,4.22893 0,0 3.9317,0.44533 3.9317,0.44533 0,0 0,-4.23745 0,-4.23745 0,0 -3.9317,-0.43681 -3.9317,-0.43681 0,0 0,0 0,0 m 0.3779,0.44924 c 0,0 3.1745,0.35335 3.1745,0.35335 0,0 0,3.42029 0,3.42029 0,0 -3.1745,-0.35891 -3.1745,-0.35891 0,0 0,-3.41473 0,-3.41473 0,0 0,0 0,0"
         style="opacity:1;fill:#666666;fill-opacity:1;fill-rule:nonzero;stroke:none;stroke-width:1.60000002;stroke-linecap:round;stroke-linejoin:round;stroke-miterlimit:4;stroke-dasharray:none;stroke-dashoffset:0;stroke-opacity:1" />
      <path
         id="path117520-9"
         d="m 1370.9507,927.09758 c 0,0 2.1588,2.5653 2.1588,2.5653 0,0 -0.7554,0.72755 -0.7554,0.72755 0,0 -2.1571,-2.56512 -2.1571,-2.56512 0,0 0.7537,-0.72773 0.7537,-0.72773"
         style="opacity:1;fill:#1f7a7a;fill-opacity:1;fill-rule:nonzero;stroke:none;stroke-width:1.60000002;stroke-linecap:round;stroke-linejoin:round;stroke-miterlimit:4;stroke-dasharray:none;stroke-dashoffset:0;stroke-opacity:1" />
      <path
         id="path117522-8"
         d="m 1373.1095,928.15092 c 0,0 -2.1588,2.08095 -2.1588,2.08095 0,0 -0.7537,-0.89684 -0.7537,-0.89684 0,0 2.1572,-2.08113 2.1572,-2.08113 0,0 0.7553,0.89702 0.7553,0.89702"
         style="opacity:1;fill:#1f7a7a;fill-opacity:1;fill-rule:nonzero;stroke:none;stroke-width:1.60000002;stroke-linecap:round;stroke-linejoin:round;stroke-miterlimit:4;stroke-dasharray:none;stroke-dashoffset:0;stroke-opacity:1" />
      <path
         id="path117524-8"
         d="m 1388.9094,924.14221 c 0,0 11.7776,1.28216 11.7776,1.28216 0,0 0,2.51826 0,2.51826 0,0 -11.7776,-1.29713 -11.7776,-1.29713 0,0 0,-2.50329 0,-2.50329"
         style="opacity:1;fill:#cccccc;fill-opacity:1;fill-rule:nonzero;stroke:none;stroke-width:3;stroke-linecap:round;stroke-linejoin:round;stroke-miterlimit:4;stroke-dasharray:none;stroke-dashoffset:0;stroke-opacity:1" />
      <path
         id="path117526-1"
         d="m 1396.0752,913.65055 c -3.4317,0.0199 -5.0847,0.20454 -8.0164,1.78322 0.1093,0.0114 0.2043,0.0213 0.3074,0.0321 -0.083,0.69313 -0.016,1.79154 -0.016,1.79154 0,0 0.012,10e-4 0.012,10e-4 -0.3475,0.99793 0,1.88011 0.284,2.67431 0,-0.94697 0.045,-1.7075 -0.2106,-2.71853 -0.012,-0.12746 -0.058,-1.10468 0.018,-1.73684 0,0 0,0 0,0 0,0 0,0 0,0 0.7514,0.0907 1.3564,0.18205 1.8761,0.25104 -0.02,0.34306 0.032,0.76689 0.1715,1.2826 -0.024,0.1635 -0.04,0.33518 -0.04,0.52108 0,0 0,4.28468 0,4.28468 0,0 1.9364,0.20835 1.9364,0.20835 0,0 0,-4.05723 0,-4.05723 0,-0.19813 0.018,-0.37025 0.053,-0.51868 0.5012,-0.0493 0.9663,-0.22737 1.3783,-0.52241 0.3511,0.20309 0.524,0.61815 0.524,1.2475 0,0 0,4.06125 0,4.06125 0,0 1.9604,0.21094 1.9604,0.21094 0,0 0,-4.06529 0,-4.06529 0,-0.85608 0.3355,-1.2489 0.9901,-1.18023 0.6551,0.0687 0.9912,0.5324 0.9912,1.38935 0,0 0,4.06936 0,4.06936 0,0 0,0.0178 0,0.0178 0,0 1.9346,0.20817 1.9346,0.20817 0,0 0,-4.32366 0,-4.32366 0,-0.89328 -0.286,-1.58446 -0.8751,-2.11044 -0.5046,-0.46332 -1.194,-0.73117 -2.0674,-0.82209 -0.9565,-0.0996 -1.6102,0.064 -1.9622,0.50858 -0.1588,-0.19889 -0.3493,-0.36504 -0.5723,-0.50007 -0.2457,-0.29438 -0.4977,-0.47846 -0.7581,-0.583 0.5702,-0.33031 1.2362,-0.78049 2.0847,-1.40572 0,0 0,10e-4 0,10e-4"
         style="overflow:visible;fill:#1f7a7a;fill-opacity:1;stroke-width:2.55838013" />
      <rect
         y="873.36456"
         x="1227.7227"
         height="157.00214"
         width="207.03087"
         id="rect7152-3-7-2-9-5-3-8-8-8"
         style="opacity:1;fill:none;fill-opacity:1;fill-rule:nonzero;stroke:#666666;stroke-width:0.29785961;stroke-linecap:round;stroke-linejoin:round;stroke-miterlimit:4;stroke-dasharray:none;stroke-dashoffset:0;stroke-opacity:1" />
      <path
         style="opacity:1;fill:#cccccc;fill-opacity:1;fill-rule:nonzero;stroke:none;stroke-width:2;stroke-linecap:round;stroke-linejoin:round;stroke-miterlimit:4;stroke-dasharray:none;stroke-dashoffset:0;stroke-opacity:1"
         d="m 1432.3418,889.21875 c -0.3606,-0.0363 -0.654,0.2502 -0.6543,0.64063 l 0,5.37109 a 10.835845,10.926612 0 0 0 -6.4004,-2.12695 10.835845,10.926612 0 0 0 -10.8359,10.92773 10.835845,10.926612 0 0 0 10.8359,10.92578 10.835845,10.926612 0 0 0 6.5039,-2.20117 c 0.1144,0.21812 0.3137,0.38391 0.5508,0.41211 l 2.4121,0.28515 0,-1.41992 -1.7578,-0.20508 0,-0.13281 a 10.835845,10.926612 0 0 0 1.7578,-2.38867 l 0,-10.57812 a 10.835845,10.926612 0 0 0 -1.7578,-2.36914 l 0,-5.65821 1.7578,0.17969 0,-1.41797 -2.4121,-0.24414 z"
         transform="translate(-1.2207031e-4,0)"
         id="path476799" />
      <path
         id="path476801"
         d="m 1272.4716,931.54297 c -0.589,-0.0592 -1.0658,0.40907 -1.0664,1.04687 l 0,8.77344 a 17.701117,17.849392 0 0 0 -10.459,-3.47266 17.701117,17.849392 0 0 0 -17.6992,17.84961 17.701117,17.849392 0 0 0 17.6992,17.84961 17.701117,17.849392 0 0 0 10.6289,-3.5957 c 0.1871,0.35547 0.5099,0.62783 0.8965,0.67383 l 21.625,2.55078 0,3.66602 -13.7773,-1.64649 0,2.71875 30.4902,3.67774 0.9043,0.10937 6.6719,0.80469 0,-0.72656 c 1.3967,-0.0565 3.1815,-0.10531 5.4473,-0.041 1.9795,0.0555 3.9683,0.20603 5.4414,0.51367 0.7366,0.15375 1.3427,0.35149 1.7304,0.5625 0.3877,0.21101 0.5027,0.3893 0.5196,0.51172 0.028,0.20117 -0.022,0.3512 -0.1836,0.56055 -0.1614,0.20934 -0.4407,0.44009 -0.7637,0.65429 -0.3231,0.2142 -0.685,0.41432 -1.0176,0.61133 -0.3326,0.19686 -0.6343,0.36499 -0.8808,0.65821 -0.1234,0.14654 -0.2502,0.36319 -0.2403,0.63867 0.011,0.27561 0.173,0.51124 0.3438,0.6582 0.3415,0.29419 0.7792,0.44217 1.4863,0.63086 1.4143,0.3771 3.89,0.78631 8.0996,1.32422 0.8757,0.1123 1.5352,0.25121 1.9688,0.39844 0.409,0.13905 0.5476,0.28494 0.5625,0.29687 -0.011,0.0208 -0.01,0.0361 -0.059,0.0957 -0.1409,0.16942 -0.482,0.44058 -0.9805,0.73047 -1.6368,0.95189 -4.9997,2.19526 -9.3262,3.59766 -0.9118,-0.75 -2.2539,-1.22127 -3.9785,-1.16797 -3.8099,0.1178 -6.1754,2.81634 -8.334,5.21484 0,0 -0.058,0.35894 -0.1777,0.89844 -0.1199,0.5398 2.0976,2.69716 3.2969,3.47656 1.1993,0.7795 3.8776,0.1411 7.3144,-1.4981 3.1473,-1.50116 3.8532,-4.12346 2.707,-5.97846 4.1129,-1.338 7.3076,-2.52611 9.0762,-3.55469 0.5588,-0.32483 0.9829,-0.62752 1.2813,-0.98632 0.1491,-0.17939 0.2727,-0.38043 0.3261,-0.62305 0.054,-0.24262 0.012,-0.52287 -0.1113,-0.74414 -0.2463,-0.44226 -0.6784,-0.65548 -1.2324,-0.84375 -0.5541,-0.18841 -1.2708,-0.33556 -2.1914,-0.45313 -4.1929,-0.5357 -6.6619,-0.94761 -7.9492,-1.29101 -0.4515,-0.12062 -0.5693,-0.19985 -0.7266,-0.27735 0.1044,-0.0749 0.145,-0.11653 0.3066,-0.21289 0.3102,-0.18369 0.6909,-0.39539 1.0664,-0.64453 0.3756,-0.24899 0.7484,-0.5336 1.0371,-0.9082 0.289,-0.3746 0.4927,-0.87645 0.418,-1.41797 -0.086,-0.62041 -0.5581,-1.0602 -1.1113,-1.36133 -0.5533,-0.30112 -1.2472,-0.51081 -2.0469,-0.67773 -1.5988,-0.33398 -3.6267,-0.48208 -5.6406,-0.53906 -1.3295,-0.0374 -2.5344,-0.037 -3.5918,-0.0195 -0.7367,0.0123 -1.3007,0.0376 -1.8867,0.0606 l 0,-0.88867 -14.0567,-1.67969 0,-3.68164 22.209,2.6211 c 0.617,0.0727 1.1171,-0.39912 1.1172,-1.05274 l 0,-37.66211 c -6e-4,-0.65332 -0.5005,-1.23413 -1.1172,-1.29687 l -54.0664,-5.49219 z m 1.0684,2.42383 51.8808,5.32031 0,35.26172 -51.8808,-6.07031 0,-0.21485 a 17.701117,17.849392 0 0 0 5.1074,-12.52344 17.701117,17.849392 0 0 0 -5.1074,-12.53515 l 0,-9.23828 z"
         style="fill:#000000;fill-opacity:1;fill-rule:evenodd;stroke:none;stroke-width:0.80514383px;stroke-linecap:butt;stroke-linejoin:miter;stroke-opacity:1" />
      <path
         style="opacity:1;fill:#000000;fill-opacity:1;fill-rule:nonzero;stroke:none;stroke-width:1.60000002;stroke-linecap:round;stroke-linejoin:round;stroke-miterlimit:4;stroke-dasharray:none;stroke-dashoffset:0;stroke-opacity:1"
         d="m 1240.9039,973.48781 c -2.1819,0.0444 -4.0305,1.61985 -4.4213,3.76695 -1.4733,7.4826 -2.3457,12.07806 -2.7092,15.17552 -0.1818,1.5487 -0.3152,2.6504 -0.052,4.1704 0.1318,0.7599 0.3676,1.76 1.284,2.8235 0.9014,1.04622 2.5553,1.71692 3.7131,1.76812 1.2389,0.054 1.6416,-0.1538 2.0931,-0.2935 0.2756,-0.086 0.5223,-0.1896 0.7753,-0.2869 l 0,16.1122 38.7208,0 0,-18.09542 c 0.9709,2.41522 1.961,4.87222 2.7518,6.79442 0.4762,1.1576 0.8918,2.155 1.2235,2.9267 0.3318,0.7715 0.2009,0.7812 0.9479,1.9764 0.8438,1.3501 1.935,1.7962 2.5839,2.0101 0.6488,0.2139 1.0638,0.2442 1.414,0.2644 0.7003,0.04 1.155,-0.015 1.6403,-0.076 0.9706,-0.1234 1.9659,-0.3355 3.1148,-0.6074 2.2979,-0.5434 5.1172,-1.339 7.9127,-2.1691 5.591,-1.6602 11.05,-3.4554 11.05,-3.4554 5.9446,-1.8437 3.0128,-10.76262 -2.8662,-8.71942 0,0 -5.3738,1.7644 -10.7966,3.37472 -2.673,0.7937 -5.3462,1.5406 -7.3077,2.0079 -0.152,-0.3656 -0.257,-0.6085 -0.428,-1.0241 -0.9324,-2.26622 -2.1196,-5.20512 -3.283,-8.10762 -2.3266,-5.80523 -4.5647,-11.47125 -4.5647,-11.47125 -1.154,-1.77485 -2.5892,-2.66699 -4.3092,-2.96257 -12.7892,-1.56897 -25.821,-4.50243 -38.4878,-5.90254 z"
         id="path476803" />
      <path
         style="opacity:1;fill:#000000;fill-opacity:1;fill-rule:nonzero;stroke:none;stroke-width:1.60000002;stroke-linecap:round;stroke-linejoin:round;stroke-miterlimit:4;stroke-dasharray:none;stroke-dashoffset:0;stroke-opacity:1"
         d="m 1358.5078,988.44141 c -2.2999,0.0468 -4.2502,1.70744 -4.6621,3.9707 -1.553,7.88729 -2.4722,12.73109 -2.8555,15.99609 -0.1916,1.6325 -0.3309,2.7943 -0.053,4.3965 0.139,0.801 0.3876,1.8556 1.3535,2.9765 0.9503,1.1029 2.6937,1.8094 3.9141,1.8633 1.3059,0.057 1.7292,-0.1632 2.2051,-0.3105 0.2905,-0.091 0.5517,-0.1982 0.8183,-0.3008 l 0,13.334 40.8145,0 0,-15.4258 c 1.0234,2.5459 2.0669,5.1359 2.9004,7.1621 0.502,1.2202 0.9394,2.2727 1.289,3.086 0.3498,0.8133 0.2126,0.8221 1,2.082 0.8894,1.4231 2.0388,1.8936 2.7227,2.1191 0.6839,0.2255 1.1231,0.258 1.4922,0.2793 0.7382,0.042 1.2169,-0.016 1.7285,-0.08 1.023,-0.13 2.0721,-0.354 3.2832,-0.6406 2.4222,-0.5729 5.3931,-1.412 8.3398,-2.2871 5.8934,-1.75 11.6485,-3.6406 11.6485,-3.6406 0.1071,-0.033 0.2049,-0.074 0.3066,-0.1113 l 0,-9.1172 c -0.9485,-0.3542 -2.0727,-0.3992 -3.3281,0.037 0,0 -5.6648,1.8592 -11.3809,3.5566 -2.8175,0.8366 -5.6355,1.6245 -7.7031,2.1172 -0.1603,-0.3854 -0.271,-0.642 -0.4512,-1.0801 -0.9829,-2.3888 -2.2346,-5.4873 -3.4609,-8.5468 -2.4524,-6.1192 -4.8106,-12.08989 -4.8106,-12.08989 -1.2164,-1.8709 -2.7299,-2.81145 -4.5429,-3.12305 -13.4808,-1.6538 -27.2165,-4.74681 -40.5684,-6.22265 z"
         transform="translate(-1.2207031e-4,0)"
         id="path476805" />
      <path
         style="opacity:1;fill:#666666;fill-opacity:1;fill-rule:nonzero;stroke:none;stroke-width:2;stroke-linecap:round;stroke-linejoin:round;stroke-miterlimit:4;stroke-dasharray:none;stroke-dashoffset:0;stroke-opacity:1"
         d="m 1359.7969,906.85156 c -0.4788,-0.0482 -0.8668,0.33304 -0.8672,0.85156 l 0,7.13282 a 14.391075,14.511623 0 0 0 -8.502,-2.82422 14.391075,14.511623 0 0 0 -14.3925,14.51172 14.391075,14.511623 0 0 0 14.3925,14.51172 14.391075,14.511623 0 0 0 8.6407,-2.92383 c 0.1521,0.28893 0.4143,0.51144 0.7285,0.54883 l 17.5801,2.07422 0,2.98046 -11.2012,-1.33984 0,2.21094 24.789,2.99023 0.7344,0.0879 0.084,0.01 0,-2.23828 -6.0859,-0.72657 0,-2.99414 18.0547,2.13086 c 0.5017,0.0591 0.9082,-0.32408 0.9082,-0.85547 l 0,-30.61914 c -5e-4,-0.53115 -0.4068,-1.00367 -0.9082,-1.05468 l -43.9551,-4.46485 z m 0.8691,1.96875 42.1797,4.32617 0,28.66797 -42.1797,-4.93554 0,-0.17579 a 14.391075,14.511623 0 0 0 4.1524,-10.17968 14.391075,14.511623 0 0 0 -4.1524,-10.1875 l 0,-7.51563 z"
         transform="translate(-1.2207031e-4,0)"
         id="path476807" />
      <path
         style="opacity:1;fill:#666666;fill-opacity:1;fill-rule:nonzero;stroke:none;stroke-width:1.60000002;stroke-linecap:round;stroke-linejoin:round;stroke-miterlimit:4;stroke-dasharray:none;stroke-dashoffset:0;stroke-opacity:1"
         d="m 1334.1305,940.95271 c -1.7739,0.0361 -3.2761,1.3169 -3.5938,3.0625 -1.1978,6.08339 -1.9075,9.81964 -2.2031,12.33789 -0.1477,1.25913 -0.2553,2.15483 -0.041,3.39062 0.1072,0.61779 0.298,1.43029 1.043,2.29492 0.7329,0.85054 2.0782,1.39591 3.0195,1.4375 1.0073,0.044 1.3341,-0.12466 1.7012,-0.23828 0.2241,-0.0699 0.4252,-0.15525 0.6309,-0.23437 l 0,13.09961 27.4082,0 a 18.658499,18.814795 0 0 1 -1.1192,-6.36914 18.658499,18.814795 0 0 1 9.9238,-16.61133 c -0.7671,-1.93179 -1.9746,-4.96289 -1.9746,-4.96289 -0.9382,-1.44296 -2.1055,-2.1679 -3.5039,-2.40821 -10.3976,-1.27558 -20.9928,-3.66052 -31.291,-4.79882 z"
         id="path476809" />
      <path
         style="opacity:1;fill:#666666;fill-opacity:1;fill-rule:nonzero;stroke:none;stroke-width:2;stroke-linecap:round;stroke-linejoin:round;stroke-miterlimit:4;stroke-dasharray:none;stroke-dashoffset:0;stroke-opacity:1"
         d="m 1434.7539,928.78906 c -1.8792,2.54695 -3.004,5.69276 -3.0039,9.11133 0,3.29943 1.0763,6.47686 3.0039,9.09375 l 0,-18.20508 z"
         transform="translate(-1.2207031e-4,0)"
         id="path476811" />
      <path
         style="opacity:1;fill:#cccccc;fill-opacity:1;fill-rule:nonzero;stroke:none;stroke-width:1.60000002;stroke-linecap:round;stroke-linejoin:round;stroke-miterlimit:4;stroke-dasharray:none;stroke-dashoffset:0;stroke-opacity:1"
         d="m 1413.0156,914.89453 c -1.3357,0.0272 -2.4659,0.99228 -2.7051,2.30664 -0.9019,4.58052 -1.4375,7.39489 -1.6601,9.29102 -0.1112,0.94806 -0.1929,1.62223 -0.031,2.55273 0.081,0.46516 0.2262,1.07749 0.7871,1.72852 0.552,0.64041 1.5628,1.05072 2.2715,1.08203 0.7584,0.0331 1.0049,-0.0941 1.2813,-0.17969 0.1687,-0.0526 0.3197,-0.11621 0.4746,-0.17578 l 0,9.86328 18.7285,0 a 15.16943,15.296498 0 0 1 -0.4121,-3.46289 15.16943,15.296498 0 0 1 3.0039,-9.09375 l 0,-10.54492 c -7.2419,-0.99562 -14.5847,-2.57647 -21.7383,-3.36719 z"
         transform="translate(-1.2207031e-4,0)"
         id="path476815" />
      <path
         style="opacity:1;fill:#666666;fill-opacity:1;fill-rule:nonzero;stroke:none;stroke-width:1.60000002;stroke-linecap:round;stroke-linejoin:round;stroke-miterlimit:4;stroke-dasharray:none;stroke-dashoffset:0;stroke-opacity:1"
         d="m 1284.6397,949.1612 c 0,0 0,5.20162 0,5.20162 0,0 4.836,0.53478 4.836,0.53478 0,0 0,-5.2121 0,-5.2121 0,0 -4.836,-0.5243 -4.836,-0.5243 0,0 0,0 0,0 m 0.4649,0.55133 c 0,0 3.9046,0.42414 3.9046,0.42414 0,0 0,4.20698 0,4.20698 0,0 -3.9046,-0.43098 -3.9046,-0.43098 0,0 0,-4.20014 0,-4.20014 0,0 0,0 0,0"
         id="path476821" />
      <path
         style="opacity:1;fill:#cccccc;fill-opacity:1;fill-rule:nonzero;stroke:none;stroke-width:3;stroke-linecap:round;stroke-linejoin:round;stroke-miterlimit:4;stroke-dasharray:none;stroke-dashoffset:0;stroke-opacity:1"
         d="m 1292.7203,951.11716 c 0,0 14.3005,1.5568 14.3005,1.5568 0,0 0,3.07747 0,3.07747 0,0 -14.3005,-1.57498 -14.3005,-1.57498 0,0 0,-3.05929 0,-3.05929"
         id="path476823" />
      <path
         style="opacity:1;fill:#cccccc;fill-opacity:1;fill-rule:nonzero;stroke:none;stroke-width:3;stroke-linecap:round;stroke-linejoin:round;stroke-miterlimit:4;stroke-dasharray:none;stroke-dashoffset:0;stroke-opacity:1"
         d="m 1292.7203,957.57661 c 0,0 22.1437,2.47006 22.1437,2.47006 0,0 0,3.08743 0,3.08743 0,0 -22.1437,-2.4982 -22.1437,-2.4982 0,0 0,-3.05929 0,-3.05929"
         id="path476825" />
      <path
         style="opacity:1;fill:#cccccc;fill-opacity:1;fill-rule:nonzero;stroke:none;stroke-width:3;stroke-linecap:round;stroke-linejoin:round;stroke-miterlimit:4;stroke-dasharray:none;stroke-dashoffset:0;stroke-opacity:1"
         d="m 1292.7203,964.03603 c 0,0 10.3199,1.17884 10.3199,1.17884 0,0 0,3.07241 0,3.07241 0,0 -10.3199,-1.19196 -10.3199,-1.19196 0,0 0,-3.05929 0,-3.05929"
         id="path476827" />
      <path
         style="opacity:1;fill:#cccccc;fill-opacity:1;fill-rule:nonzero;stroke:none;stroke-width:3;stroke-linecap:round;stroke-linejoin:round;stroke-miterlimit:4;stroke-dasharray:none;stroke-dashoffset:0;stroke-opacity:1"
         d="m 1304.5395,965.38614 c 0,0 11.1878,1.27798 11.1878,1.27798 0,0 0,3.08853 0,3.08853 0,0 -11.1878,-1.2922 -11.1878,-1.2922 0,0 0,-3.07431 0,-3.07431"
         id="path476829" />
      <path
         style="opacity:1;fill:#666666;fill-opacity:1;fill-rule:nonzero;stroke:none;stroke-width:1.60000002;stroke-linecap:round;stroke-linejoin:round;stroke-miterlimit:4;stroke-dasharray:none;stroke-dashoffset:0;stroke-opacity:1"
         d="m 1284.6397,962.03682 c 0,0 0,5.20161 0,5.20161 0,0 4.836,0.56074 4.836,0.56074 0,0 0,-5.2121 0,-5.2121 0,0 -4.836,-0.55025 -4.836,-0.55025 0,0 0,0 0,0 m 0.4649,0.55382 c 0,0 3.9046,0.4451 3.9046,0.4451 0,0 0,4.20698 0,4.20698 0,0 -3.9046,-0.45193 -3.9046,-0.45193 0,0 0,-4.20015 0,-4.20015 0,0 0,0 0,0"
         id="path476831" />
      <path
         style="opacity:1;fill:#1f7a7a;fill-opacity:1;fill-rule:nonzero;stroke:none;stroke-width:1.60000002;stroke-linecap:round;stroke-linejoin:round;stroke-miterlimit:4;stroke-dasharray:none;stroke-dashoffset:0;stroke-opacity:1"
         d="m 1286.1925,962.8884 c 0,0 2.6553,3.16247 2.6553,3.16247 0,0 -0.9291,0.89239 -0.9291,0.89239 0,0 -2.6533,-3.16224 -2.6533,-3.16224 0,0 0.9271,-0.89262 0.9271,-0.89262"
         id="path476833" />
      <path
         style="opacity:1;fill:#1f7a7a;fill-opacity:1;fill-rule:nonzero;stroke:none;stroke-width:1.60000002;stroke-linecap:round;stroke-linejoin:round;stroke-miterlimit:4;stroke-dasharray:none;stroke-dashoffset:0;stroke-opacity:1"
         d="m 1288.8478,964.19112 c 0,0 -2.6553,2.55245 -2.6553,2.55245 0,0 -0.9271,-1.10559 -0.9271,-1.10559 0,0 2.6533,-2.55269 2.6533,-2.55269 0,0 0.9291,1.10583 0.9291,1.10583"
         id="path476835" />
      <path
         style="opacity:1;fill:#666666;fill-opacity:1;fill-rule:nonzero;stroke:none;stroke-width:1.60000002;stroke-linecap:round;stroke-linejoin:round;stroke-miterlimit:4;stroke-dasharray:none;stroke-dashoffset:0;stroke-opacity:1"
         d="m 1284.6397,955.59894 c 0,0 0,5.20161 0,5.20161 0,0 4.836,0.54776 4.836,0.54776 0,0 0,-5.21209 0,-5.21209 0,0 -4.836,-0.53728 -4.836,-0.53728 0,0 0,0 0,0 m 0.4649,0.55258 c 0,0 3.9046,0.43462 3.9046,0.43462 0,0 0,4.20697 0,4.20697 0,0 -3.9046,-0.44145 -3.9046,-0.44145 0,0 0,-4.20014 0,-4.20014 0,0 0,0 0,0"
         id="path476837" />
      <path
         style="opacity:1;fill:#cccccc;fill-opacity:1;fill-rule:nonzero;stroke:none;stroke-width:3;stroke-linecap:round;stroke-linejoin:round;stroke-miterlimit:4;stroke-dasharray:none;stroke-dashoffset:0;stroke-opacity:1"
         d="m 1308.2818,952.81124 c 0,0 14.4865,1.57706 14.4865,1.57706 0,0 0,3.09747 0,3.09747 0,0 -14.4865,-1.59547 -14.4865,-1.59547 0,0 0,-3.07906 0,-3.07906"
         id="path476839" />
      <path
         style="overflow:visible;fill:#1f7a7a;fill-opacity:1;stroke-width:2.55838013"
         d="m 1317.0958,939.90643 c -4.221,0.0244 -6.2542,0.25158 -9.8603,2.19337 0.1345,0.014 0.2513,0.0263 0.3782,0.0395 -0.1016,0.85256 -0.02,2.20361 -0.02,2.20361 0,0 0.014,0.001 0.014,0.001 -0.4274,1.22746 0,2.31255 0.3493,3.28942 0,-1.16478 0.055,-2.10024 -0.2591,-3.34382 -0.014,-0.15677 -0.072,-1.35876 0.022,-2.13632 0,0 0,0 0,0 0,0 0,0 0,0 0.9243,0.11152 1.6685,0.22392 2.3077,0.30878 -0.025,0.42197 0.039,0.94328 0.211,1.57761 -0.03,0.20111 -0.05,0.41227 -0.05,0.64093 0,0 0,5.27019 0,5.27019 0,0 2.3817,0.25627 2.3817,0.25627 0,0 0,-4.99043 0,-4.99043 0,-0.24369 0.022,-0.4554 0.066,-0.63798 0.6165,-0.0606 1.1886,-0.27966 1.6954,-0.64256 0.4319,0.2498 0.6445,0.76033 0.6445,1.53443 0,0 0,4.99537 0,4.99537 0,0 2.4113,0.25945 2.4113,0.25945 0,0 0,-5.00032 0,-5.00032 0,-1.05299 0.4126,-1.53616 1.2178,-1.4517 0.8058,0.0845 1.2192,0.65486 1.2192,1.70891 0,0 0,5.00534 0,5.00534 0,0 0,0.0219 0,0.0219 0,0 2.3796,0.25605 2.3796,0.25605 0,0 0,-5.31813 0,-5.31813 0,-1.09874 -0.3518,-1.94889 -1.0764,-2.59585 -0.6207,-0.56989 -1.4687,-0.89935 -2.5429,-1.01117 -1.1765,-0.12248 -1.9806,0.0787 -2.4136,0.62555 -0.1953,-0.24463 -0.4295,-0.449 -0.7039,-0.61509 -0.3022,-0.36209 -0.6121,-0.58851 -0.9325,-0.71709 0.7014,-0.40628 1.5206,-0.96002 2.5642,-1.72904 0,0 0,10e-4 0,10e-4"
         id="path476841" />
      <path
         id="path476843"
         d="m 1404.6081,962.79902 c 0,0 0,5.48295 0,5.48295 0,0 5.0976,0.56371 5.0976,0.56371 0,0 0,-5.494 0,-5.494 0,0 -5.0976,-0.55266 -5.0976,-0.55266 0,0 0,0 0,0 m 0.49,0.58115 c 0,0 4.1159,0.44708 4.1159,0.44708 0,0 0,4.43452 0,4.43452 0,0 -4.1159,-0.45429 -4.1159,-0.45429 0,0 0,-4.42731 0,-4.42731 0,0 0,0 0,0"
         style="opacity:1;fill:#666666;fill-opacity:1;fill-rule:nonzero;stroke:none;stroke-width:1.60000002;stroke-linecap:round;stroke-linejoin:round;stroke-miterlimit:4;stroke-dasharray:none;stroke-dashoffset:0;stroke-opacity:1" />
      <path
         id="path476845"
         d="m 1413.1258,964.86077 c 0,0 15.0739,1.641 15.0739,1.641 0,0 0,3.24392 0,3.24392 0,0 -15.0739,-1.66017 -15.0739,-1.66017 0,0 0,-3.22475 0,-3.22475"
         style="opacity:1;fill:#cccccc;fill-opacity:1;fill-rule:nonzero;stroke:none;stroke-width:3;stroke-linecap:round;stroke-linejoin:round;stroke-miterlimit:4;stroke-dasharray:none;stroke-dashoffset:0;stroke-opacity:1" />
      <path
         id="path476849"
         d="m 1413.1258,978.47837 c 0,0 10.878,1.2426 10.878,1.2426 0,0 0,3.23858 0,3.23858 0,0 -10.878,-1.25643 -10.878,-1.25643 0,0 0,-3.22475 0,-3.22475"
         style="opacity:1;fill:#cccccc;fill-opacity:1;fill-rule:nonzero;stroke:none;stroke-width:3;stroke-linecap:round;stroke-linejoin:round;stroke-miterlimit:4;stroke-dasharray:none;stroke-dashoffset:0;stroke-opacity:1" />
      <path
         style="opacity:1;fill:#cccccc;fill-opacity:1;fill-rule:nonzero;stroke:none;stroke-width:3;stroke-linecap:round;stroke-linejoin:round;stroke-miterlimit:4;stroke-dasharray:none;stroke-dashoffset:0;stroke-opacity:1"
         d="m 1425.584,979.90234 0,3.24024 9.1699,1.05859 0,-3.25195 -9.1699,-1.04688 z"
         transform="translate(-1.2207031e-4,0)"
         id="path476851" />
      <path
         id="path476853"
         d="m 1404.6081,976.37103 c 0,0 0,5.48294 0,5.48294 0,0 5.0976,0.59107 5.0976,0.59107 0,0 0,-5.494 0,-5.494 0,0 -5.0976,-0.58001 -5.0976,-0.58001 0,0 0,0 0,0 m 0.49,0.58378 c 0,0 4.1159,0.46917 4.1159,0.46917 0,0 0,4.43452 0,4.43452 0,0 -4.1159,-0.47638 -4.1159,-0.47638 0,0 0,-4.42731 0,-4.42731 0,0 0,0 0,0"
         style="opacity:1;fill:#666666;fill-opacity:1;fill-rule:nonzero;stroke:none;stroke-width:1.60000002;stroke-linecap:round;stroke-linejoin:round;stroke-miterlimit:4;stroke-dasharray:none;stroke-dashoffset:0;stroke-opacity:1" />
      <path
         id="path476855"
         d="m 1406.2449,977.26867 c 0,0 2.7989,3.33352 2.7989,3.33352 0,0 -0.9794,0.94065 -0.9794,0.94065 0,0 -2.7967,-3.33327 -2.7967,-3.33327 0,0 0.9772,-0.9409 0.9772,-0.9409"
         style="opacity:1;fill:#1f7a7a;fill-opacity:1;fill-rule:nonzero;stroke:none;stroke-width:1.60000002;stroke-linecap:round;stroke-linejoin:round;stroke-miterlimit:4;stroke-dasharray:none;stroke-dashoffset:0;stroke-opacity:1" />
      <path
         id="path476857"
         d="m 1409.0438,978.64184 c 0,0 -2.7989,2.69052 -2.7989,2.69052 0,0 -0.9772,-1.1654 -0.9772,-1.1654 0,0 2.7967,-2.69076 2.7967,-2.69076 0,0 0.9794,1.16564 0.9794,1.16564"
         style="opacity:1;fill:#1f7a7a;fill-opacity:1;fill-rule:nonzero;stroke:none;stroke-width:1.60000002;stroke-linecap:round;stroke-linejoin:round;stroke-miterlimit:4;stroke-dasharray:none;stroke-dashoffset:0;stroke-opacity:1" />
      <path
         id="path476859"
         d="m 1404.6081,969.58496 c 0,0 0,5.48294 0,5.48294 0,0 5.0976,0.57739 5.0976,0.57739 0,0 0,-5.494 0,-5.494 0,0 -5.0976,-0.56633 -5.0976,-0.56633 0,0 0,0 0,0 m 0.49,0.58246 c 0,0 4.1159,0.45812 4.1159,0.45812 0,0 0,4.43452 0,4.43452 0,0 -4.1159,-0.46533 -4.1159,-0.46533 0,0 0,-4.42731 0,-4.42731 0,0 0,0 0,0"
         style="opacity:1;fill:#666666;fill-opacity:1;fill-rule:nonzero;stroke:none;stroke-width:1.60000002;stroke-linecap:round;stroke-linejoin:round;stroke-miterlimit:4;stroke-dasharray:none;stroke-dashoffset:0;stroke-opacity:1" />
      <path
         id="path476861"
         d="m 1406.2449,970.4782 c 0,0 2.7989,3.32601 2.7989,3.32601 0,0 -0.9794,0.94328 -0.9794,0.94328 0,0 -2.7967,-3.32576 -2.7967,-3.32576 0,0 0.9772,-0.94353 0.9772,-0.94353"
         style="opacity:1;fill:#1f7a7a;fill-opacity:1;fill-rule:nonzero;stroke:none;stroke-width:1.60000002;stroke-linecap:round;stroke-linejoin:round;stroke-miterlimit:4;stroke-dasharray:none;stroke-dashoffset:0;stroke-opacity:1" />
      <path
         id="path476863"
         d="m 1409.0438,971.84389 c 0,0 -2.7989,2.69802 -2.7989,2.69802 0,0 -0.9772,-1.16278 -0.9772,-1.16278 0,0 2.7968,-2.69826 2.7968,-2.69826 0,0 0.9793,1.16302 0.9793,1.16302"
         style="opacity:1;fill:#1f7a7a;fill-opacity:1;fill-rule:nonzero;stroke:none;stroke-width:1.60000002;stroke-linecap:round;stroke-linejoin:round;stroke-miterlimit:4;stroke-dasharray:none;stroke-dashoffset:0;stroke-opacity:1" />
      <path
         style="opacity:1;fill:#cccccc;fill-opacity:1;fill-rule:nonzero;stroke:none;stroke-width:3;stroke-linecap:round;stroke-linejoin:round;stroke-miterlimit:4;stroke-dasharray:none;stroke-dashoffset:0;stroke-opacity:1"
         d="m 1429.5293,966.64648 0,3.2461 5.2246,0.57617 0,-3.25391 -5.2246,-0.56836 z"
         transform="translate(-1.2207031e-4,0)"
         id="path476865" />
      <path
         style="overflow:visible;fill:#1f7a7a;fill-opacity:1;stroke-width:2.55838013"
         d="m 1434.7539,953.23047 c -2.1236,0.24575 -3.887,0.81049 -6.3281,2.125 0.1418,0.0148 0.2646,0.027 0.3984,0.041 -0.1071,0.89867 -0.02,2.32422 -0.02,2.32422 l 0.014,0.002 c -0.4506,1.29385 9e-4,2.43709 0.3691,3.46679 0,-1.22778 0.058,-2.21455 -0.2734,-3.52539 -0.015,-0.16525 -0.077,-1.43233 0.023,-2.25195 0.9742,0.11755 1.7599,0.23673 2.4336,0.32617 -0.026,0.44479 0.039,0.99543 0.2207,1.66406 -0.031,0.21199 -0.051,0.4328 -0.051,0.67383 l 0,5.55664 2.5098,0.26953 0,-5.25976 c 0,-0.25688 0.025,-0.48139 0.07,-0.67383 0.2178,-0.0214 0.4263,-0.0686 0.6328,-0.12695 l 0,-4.61133 z"
         transform="translate(-1.2207031e-4,0)"
         id="path476867" />
      <path
         style="opacity:1;fill:#666666;fill-opacity:1;fill-rule:nonzero;stroke:none;stroke-width:1.60000002;stroke-linecap:round;stroke-linejoin:round;stroke-miterlimit:4;stroke-dasharray:none;stroke-dashoffset:0;stroke-opacity:1"
         d="m 1369.6883,921.17472 c 0,0 0,4.22893 0,4.22893 0,0 3.9317,0.43478 3.9317,0.43478 0,0 0,-4.23745 0,-4.23745 0,0 -3.9317,-0.42626 -3.9317,-0.42626 0,0 0,0 0,0 m 0.3779,0.44824 c 0,0 3.1745,0.34482 3.1745,0.34482 0,0 0,3.42029 0,3.42029 0,0 -3.1745,-0.35039 -3.1745,-0.35039 0,0 0,-3.41472 0,-3.41472 0,0 0,0 0,0"
         id="path476869" />
      <path
         style="opacity:1;fill:#cccccc;fill-opacity:1;fill-rule:nonzero;stroke:none;stroke-width:3;stroke-linecap:round;stroke-linejoin:round;stroke-miterlimit:4;stroke-dasharray:none;stroke-dashoffset:0;stroke-opacity:1"
         d="m 1376.2579,922.76492 c 0,0 11.6263,1.26569 11.6263,1.26569 0,0 0,2.50199 0,2.50199 0,0 -11.6263,-1.28047 -11.6263,-1.28047 0,0 0,-2.48721 0,-2.48721"
         id="path476871" />
      <path
         style="opacity:1;fill:#cccccc;fill-opacity:1;fill-rule:nonzero;stroke:none;stroke-width:3;stroke-linecap:round;stroke-linejoin:round;stroke-miterlimit:4;stroke-dasharray:none;stroke-dashoffset:0;stroke-opacity:1"
         d="m 1376.2579,928.01648 c 0,0 18.0028,2.00817 18.0028,2.00817 0,0 0,2.51009 0,2.51009 0,0 -18.0028,-2.03105 -18.0028,-2.03105 0,0 0,-2.48721 0,-2.48721"
         id="path476873" />
      <path
         style="opacity:1;fill:#cccccc;fill-opacity:1;fill-rule:nonzero;stroke:none;stroke-width:3;stroke-linecap:round;stroke-linejoin:round;stroke-miterlimit:4;stroke-dasharray:none;stroke-dashoffset:0;stroke-opacity:1"
         d="m 1376.2579,933.26801 c 0,0 8.3901,0.95841 8.3901,0.95841 0,0 0,2.49787 0,2.49787 0,0 -8.3901,-0.96907 -8.3901,-0.96907 0,0 0,-2.48721 0,-2.48721"
         id="path476875" />
      <path
         style="opacity:1;fill:#cccccc;fill-opacity:1;fill-rule:nonzero;stroke:none;stroke-width:3;stroke-linecap:round;stroke-linejoin:round;stroke-miterlimit:4;stroke-dasharray:none;stroke-dashoffset:0;stroke-opacity:1"
         d="m 1385.8669,934.36566 c 0,0 9.0957,1.039 9.0957,1.039 0,0 0,2.51098 0,2.51098 0,0 -9.0957,-1.05056 -9.0957,-1.05056 0,0 0,-2.49942 0,-2.49942"
         id="path476877" />
      <path
         style="opacity:1;fill:#666666;fill-opacity:1;fill-rule:nonzero;stroke:none;stroke-width:1.60000002;stroke-linecap:round;stroke-linejoin:round;stroke-miterlimit:4;stroke-dasharray:none;stroke-dashoffset:0;stroke-opacity:1"
         d="m 1369.6883,931.64264 c 0,0 0,4.22893 0,4.22893 0,0 3.9317,0.45589 3.9317,0.45589 0,0 0,-4.23746 0,-4.23746 0,0 -3.9317,-0.44736 -3.9317,-0.44736 0,0 0,0 0,0 m 0.3779,0.45027 c 0,0 3.1745,0.36186 3.1745,0.36186 0,0 0,3.42029 0,3.42029 0,0 -3.1745,-0.36742 -3.1745,-0.36742 0,0 0,-3.41473 0,-3.41473 0,0 0,0 0,0"
         id="path476879" />
      <path
         style="opacity:1;fill:#666666;fill-opacity:1;fill-rule:nonzero;stroke:none;stroke-width:1.60000002;stroke-linecap:round;stroke-linejoin:round;stroke-miterlimit:4;stroke-dasharray:none;stroke-dashoffset:0;stroke-opacity:1"
         d="m 1369.6883,926.40863 c 0,0 0,4.22893 0,4.22893 0,0 3.9317,0.44533 3.9317,0.44533 0,0 0,-4.23745 0,-4.23745 0,0 -3.9317,-0.43681 -3.9317,-0.43681 0,0 0,0 0,0 m 0.3779,0.44924 c 0,0 3.1745,0.35335 3.1745,0.35335 0,0 0,3.42029 0,3.42029 0,0 -3.1745,-0.35891 -3.1745,-0.35891 0,0 0,-3.41473 0,-3.41473 0,0 0,0 0,0"
         id="path476881" />
      <path
         style="opacity:1;fill:#1f7a7a;fill-opacity:1;fill-rule:nonzero;stroke:none;stroke-width:1.60000002;stroke-linecap:round;stroke-linejoin:round;stroke-miterlimit:4;stroke-dasharray:none;stroke-dashoffset:0;stroke-opacity:1"
         d="m 1370.9507,927.09758 c 0,0 2.1588,2.5653 2.1588,2.5653 0,0 -0.7554,0.72755 -0.7554,0.72755 0,0 -2.1571,-2.56512 -2.1571,-2.56512 0,0 0.7537,-0.72773 0.7537,-0.72773"
         id="path476883" />
      <path
         style="opacity:1;fill:#1f7a7a;fill-opacity:1;fill-rule:nonzero;stroke:none;stroke-width:1.60000002;stroke-linecap:round;stroke-linejoin:round;stroke-miterlimit:4;stroke-dasharray:none;stroke-dashoffset:0;stroke-opacity:1"
         d="m 1373.1095,928.15092 c 0,0 -2.1588,2.08095 -2.1588,2.08095 0,0 -0.7537,-0.89684 -0.7537,-0.89684 0,0 2.1572,-2.08113 2.1572,-2.08113 0,0 0.7553,0.89702 0.7553,0.89702"
         id="path476885" />
      <path
         style="opacity:1;fill:#cccccc;fill-opacity:1;fill-rule:nonzero;stroke:none;stroke-width:3;stroke-linecap:round;stroke-linejoin:round;stroke-miterlimit:4;stroke-dasharray:none;stroke-dashoffset:0;stroke-opacity:1"
         d="m 1388.9094,924.14221 c 0,0 11.7776,1.28216 11.7776,1.28216 0,0 0,2.51826 0,2.51826 0,0 -11.7776,-1.29713 -11.7776,-1.29713 0,0 0,-2.50329 0,-2.50329"
         id="path476887" />
      <path
         style="overflow:visible;fill:#1f7a7a;fill-opacity:1;stroke-width:2.55838013"
         d="m 1396.0752,913.65055 c -3.4317,0.0199 -5.0847,0.20454 -8.0164,1.78322 0.1093,0.0114 0.2043,0.0213 0.3074,0.0321 -0.083,0.69313 -0.016,1.79154 -0.016,1.79154 0,0 0.012,10e-4 0.012,10e-4 -0.3475,0.99793 0,1.88011 0.284,2.67431 0,-0.94697 0.045,-1.7075 -0.2106,-2.71853 -0.012,-0.12746 -0.058,-1.10468 0.018,-1.73684 0,0 0,0 0,0 0,0 0,0 0,0 0.7514,0.0907 1.3564,0.18205 1.8761,0.25104 -0.02,0.34306 0.032,0.76689 0.1715,1.2826 -0.024,0.1635 -0.04,0.33518 -0.04,0.52108 0,0 0,4.28468 0,4.28468 0,0 1.9364,0.20835 1.9364,0.20835 0,0 0,-4.05723 0,-4.05723 0,-0.19813 0.018,-0.37025 0.053,-0.51868 0.5012,-0.0493 0.9663,-0.22737 1.3783,-0.52241 0.3511,0.20309 0.524,0.61815 0.524,1.2475 0,0 0,4.06125 0,4.06125 0,0 1.9604,0.21094 1.9604,0.21094 0,0 0,-4.06529 0,-4.06529 0,-0.85608 0.3355,-1.2489 0.9901,-1.18023 0.6551,0.0687 0.9912,0.5324 0.9912,1.38935 0,0 0,4.06936 0,4.06936 0,0 0,0.0178 0,0.0178 0,0 1.9346,0.20817 1.9346,0.20817 0,0 0,-4.32366 0,-4.32366 0,-0.89328 -0.286,-1.58446 -0.8751,-2.11044 -0.5046,-0.46332 -1.194,-0.73117 -2.0674,-0.82209 -0.9565,-0.0996 -1.6102,0.064 -1.9622,0.50858 -0.1588,-0.19889 -0.3493,-0.36504 -0.5723,-0.50007 -0.2457,-0.29438 -0.4977,-0.47846 -0.7581,-0.583 0.5702,-0.33031 1.2362,-0.78049 2.0847,-1.40572 0,0 0,10e-4 0,10e-4"
         id="path476889" />
      <path
         style="fill:#000000;fill-opacity:1;fill-rule:evenodd;stroke:none;stroke-width:0.80514383px;stroke-linecap:butt;stroke-linejoin:miter;stroke-opacity:1"
         d="m 1391.7832,944.22852 c -0.6209,-0.0625 -1.1244,0.43121 -1.125,1.10351 l 0,9.24805 a 18.658499,18.814795 0 0 0 -11.0234,-3.66016 18.658499,18.814795 0 0 0 -18.6582,18.81446 18.658499,18.814795 0 0 0 18.6582,18.81445 18.658499,18.814795 0 0 0 11.2031,-3.79102 c 0.1971,0.37491 0.5376,0.66244 0.9453,0.71094 l 22.7949,2.68945 0,3.86328 -14.5234,-1.73437 0,2.86523 32.1387,3.87696 0.9531,0.11523 1.6074,0.19336 0,-2.9043 -9.3906,-1.12304 0,-3.88086 9.3906,1.10937 0,-2.48242 -41.8437,-4.89648 0,-0.22657 a 18.658499,18.814795 0 0 0 5.3828,-13.19921 18.658499,18.814795 0 0 0 -5.3828,-13.2129 l 0,-9.74023 41.8437,4.29297 0,-2.48047 -42.9707,-4.36523 z"
         transform="translate(-1.2207031e-4,0)"
         id="path476953" />
    </g>
  </g>
</svg>
