<?xml version="1.0" encoding="UTF-8" standalone="no"?>
<svg
   xmlns:dc="http://purl.org/dc/elements/1.1/"
   xmlns:cc="http://creativecommons.org/ns#"
   xmlns:rdf="http://www.w3.org/1999/02/22-rdf-syntax-ns#"
   xmlns:svg="http://www.w3.org/2000/svg"
   xmlns="http://www.w3.org/2000/svg"
   version="1.1"
   id="svg5156"
   viewBox="0 0 210 160"
   height="160"
   width="210">
  <defs
     id="defs5158">
    <linearGradient
       spreadMethod="pad"
       gradientUnits="userSpaceOnUse"
       y2="593.78698"
       y1="3.6658269"
       x2="590.86259"
       x1="0.74144253"
       id="gradientFill"
       gradientTransform="matrix(1.2219423,0,0,0.81836924,-767.16729,-40.990215)">
      <stop
         id="stop6361"
         stop-opacity="1"
         stop-color="rgb(203,206,208)"
         offset="0" />
      <stop
         id="stop6363"
         stop-opacity="1"
         stop-color="rgb(132,131,139)"
         offset="1" />
    </linearGradient>
    <linearGradient
       spreadMethod="pad"
       gradientUnits="userSpaceOnUse"
       y2="593.78699"
       y1="3.6658268"
       x2="590.86261"
       x1="0.7414425"
       id="gradientFill-0"
       gradientTransform="matrix(1.2219423,0,0,0.81836924,-767.16729,-40.990215)">
      <stop
         id="stop6361-6"
         stop-opacity="1"
         stop-color="rgb(203,206,208)"
         offset="0" />
      <stop
         id="stop6363-2"
         stop-opacity="1"
         stop-color="rgb(132,131,139)"
         offset="1" />
    </linearGradient>
  </defs>
  <metadata
     id="metadata5161">
    <rdf:RDF>
      <cc:Work
         rdf:about="">
        <dc:format>image/svg+xml</dc:format>
        <dc:type
           rdf:resource="http://purl.org/dc/dcmitype/StillImage" />
        <dc:title></dc:title>
      </cc:Work>
    </rdf:RDF>
  </metadata>
  <g
     transform="translate(0,-892.36221)"
     id="layer1">
    <g
       id="g484830"
       transform="translate(-1226.2381,871.45863)">
      <rect
         y="22.402508"
         x="1227.7227"
         height="157.00214"
         width="207.03087"
         id="rect7152-3-7-2-9-5-3-8-8"
         style="opacity:1;fill:none;fill-opacity:1;fill-rule:nonzero;stroke:#666666;stroke-width:0.29785961;stroke-linecap:round;stroke-linejoin:round;stroke-miterlimit:4;stroke-dasharray:none;stroke-dashoffset:0;stroke-opacity:1" />
      <path
         style="opacity:1;fill:#cccccc;fill-opacity:1;fill-rule:nonzero;stroke:none;stroke-width:2;stroke-linecap:round;stroke-linejoin:round;stroke-miterlimit:4;stroke-dasharray:none;stroke-dashoffset:0;stroke-opacity:1"
         d="m 1432.3418,38.255859 c -0.3606,-0.0363 -0.654,0.250195 -0.6543,0.640625 l 0,5.369141 a 10.835845,10.926612 0 0 0 -6.4004,-2.125 10.835845,10.926612 0 0 0 -10.8359,10.927734 10.835845,10.926612 0 0 0 10.8359,10.925782 10.835845,10.926612 0 0 0 6.5039,-2.201172 c 0.1144,0.21813 0.3138,0.383919 0.5508,0.412109 l 2.4121,0.285156 0,-1.419922 -1.7578,-0.205078 0,-0.132812 a 10.835845,10.926612 0 0 0 1.7578,-2.386719 l 0,-10.578125 a 10.835845,10.926612 0 0 0 -1.7578,-2.371094 l 0,-5.658203 1.7578,0.179688 0,-1.417969 -2.4121,-0.244141 z"
         transform="translate(-1.2207031e-4,0)"
         id="path28432-4" />
      <path
         style="fill:#000000;fill-opacity:1;fill-rule:evenodd;stroke:none;stroke-width:0.80514383px;stroke-linecap:butt;stroke-linejoin:miter;stroke-opacity:1"
         d="m 1320.2717,129.65373 c -1.0563,0.0176 -1.9653,0.053 -2.7051,0.0867 l -0.081,1.1508 c 1.4252,-0.0679 3.6254,-0.15033 6.347,-0.0731 1.9796,0.0555 3.9696,0.20683 5.4427,0.51447 0.7366,0.15375 1.3426,0.35221 1.7303,0.56322 0.3877,0.21101 0.503,0.38935 0.5199,0.51177 0.028,0.20117 -0.022,0.35117 -0.1842,0.56052 -0.1613,0.20934 -0.4406,0.43837 -0.7636,0.65257 -0.3231,0.2142 -0.6855,0.41496 -1.0181,0.61197 -0.3326,0.19686 -0.6334,0.36477 -0.88,0.65799 -0.1234,0.14654 -0.2509,0.36356 -0.241,0.63904 0.011,0.27561 0.1732,0.51103 0.3439,0.65799 0.3415,0.29419 0.7794,0.44223 1.4866,0.63092 1.4143,0.3771 3.8893,0.78618 8.0989,1.32409 0.8757,0.1123 1.535,0.25082 1.9686,0.39805 0.409,0.13905 0.5484,0.28594 0.5632,0.29787 -0.011,0.0208 -0.01,0.0352 -0.06,0.0948 -0.1409,0.16942 -0.4817,0.44121 -0.9802,0.7311 -1.6368,0.95189 -4.9991,2.19622 -9.3256,3.59862 -0.9118,-0.75 -2.2532,-1.223 -3.9777,-1.1697 -3.8099,0.1178 -6.176,2.8167 -8.3346,5.2152 0,0 -0.059,0.3594 -0.1787,0.8989 -0.1199,0.5398 2.0989,2.6974 3.2981,3.4768 1.1993,0.7795 3.8769,0.1418 7.3137,-1.4974 3.1473,-1.5012 3.854,-4.1238 2.7078,-5.9788 4.1129,-1.338 7.3079,-2.5267 9.0765,-3.55528 0.5587,-0.32483 0.9825,-0.62684 1.2808,-0.98564 0.1491,-0.17939 0.2714,-0.38017 0.3249,-0.62279 0.054,-0.24262 0.012,-0.52337 -0.1111,-0.74464 -0.2463,-0.44226 -0.6779,-0.65655 -1.232,-0.84482 -0.5541,-0.18841 -1.27,-0.33463 -2.1906,-0.4522 -4.1929,-0.5357 -6.6627,-0.94821 -7.9501,-1.29161 -0.4514,-0.12062 -0.5683,-0.1987 -0.7256,-0.2762 0.1044,-0.0749 0.1443,-0.11756 0.3059,-0.21392 0.3102,-0.18369 0.6914,-0.39531 1.0669,-0.64445 0.3755,-0.24899 0.7483,-0.53251 1.0371,-0.90711 0.2889,-0.3746 0.4917,-0.87736 0.417,-1.41888 -0.086,-0.62041 -0.557,-1.06089 -1.1102,-1.36202 -0.5533,-0.30112 -1.2474,-0.51002 -2.0471,-0.67694 -1.5988,-0.33398 -3.6264,-0.48187 -5.6403,-0.53885 -1.3294,-0.0374 -2.5359,-0.0365 -3.5932,-0.019 z"
         id="path28398-0" />
      <path
         style="opacity:1;fill:#000000;fill-opacity:1;fill-rule:nonzero;stroke:none;stroke-width:2;stroke-linecap:round;stroke-linejoin:round;stroke-miterlimit:4;stroke-dasharray:none;stroke-dashoffset:0;stroke-opacity:1"
         d="m 1272.4717,80.58091 c -0.5891,-0.0592 -1.0659,0.40908 -1.0664,1.04688 l 0,8.77344 a 17.701117,17.849392 0 0 0 -10.459,-3.47266 17.701117,17.849392 0 0 0 -17.6992,17.84961 17.701117,17.849392 0 0 0 17.6992,17.84961 17.701117,17.849392 0 0 0 10.6289,-3.5957 c 0.1871,0.35546 0.5099,0.62783 0.8965,0.67382 l 21.625,2.55078 0,3.66602 -13.7774,-1.64648 0,2.71875 30.4903,3.67773 0.9043,0.10938 6.6718,0.80468 0,-2.76172 -14.0566,-1.67968 0,-3.68164 22.209,2.62109 c 0.617,0.0727 1.1171,-0.39911 1.1172,-1.05273 l 0,-37.66211 c -6e-4,-0.65332 -0.5006,-1.23414 -1.1172,-1.29688 l -54.0664,-5.49219 z m 1.0683,2.42188 51.8809,5.32226 0,35.26172 -51.8809,-6.07031 0,-0.21484 a 17.701117,17.849392 0 0 0 5.1075,-12.52344 17.701117,17.849392 0 0 0 -5.1075,-12.53516 l 0,-9.24023 z"
         id="path28400-8" />
      <path
         style="opacity:1;fill:#000000;fill-opacity:1;fill-rule:nonzero;stroke:none;stroke-width:1.60000002;stroke-linecap:round;stroke-linejoin:round;stroke-miterlimit:4;stroke-dasharray:none;stroke-dashoffset:0;stroke-opacity:1"
         d="m 1240.9039,122.52545 c -2.1819,0.0444 -4.0305,1.61985 -4.4213,3.76695 -1.4733,7.4826 -2.3457,12.07806 -2.7092,15.17552 -0.1818,1.5487 -0.3152,2.6504 -0.052,4.1704 0.1318,0.7599 0.3676,1.76 1.284,2.8235 0.9014,1.0462 2.5553,1.7169 3.7131,1.7681 1.2389,0.054 1.6416,-0.1538 2.0931,-0.2935 0.2756,-0.086 0.5223,-0.1896 0.7753,-0.2869 l 0,16.1122 38.7208,0 0,-18.0954 c 0.9709,2.4152 1.961,4.8722 2.7518,6.7944 0.4762,1.1576 0.8918,2.155 1.2235,2.9267 0.3318,0.7715 0.2009,0.7812 0.9479,1.9764 0.8438,1.3501 1.935,1.7962 2.5839,2.0101 0.6488,0.2139 1.0638,0.2442 1.414,0.2644 0.7003,0.04 1.155,-0.015 1.6403,-0.076 0.9706,-0.1234 1.9659,-0.3355 3.1148,-0.6074 2.2979,-0.5434 5.1172,-1.339 7.9127,-2.1691 5.591,-1.6602 11.05,-3.4554 11.05,-3.4554 5.9446,-1.8437 3.0128,-10.7626 -2.8662,-8.7194 0,0 -5.3738,1.7644 -10.7966,3.3747 -2.673,0.7937 -5.3462,1.5406 -7.3077,2.0079 -0.152,-0.3656 -0.257,-0.6085 -0.428,-1.0241 -0.9324,-2.2662 -2.1196,-5.2051 -3.283,-8.1076 -2.3266,-5.80523 -4.5647,-11.47125 -4.5647,-11.47125 -1.154,-1.77485 -2.5892,-2.66699 -4.3092,-2.96257 -12.7892,-1.56897 -25.821,-4.50243 -38.4878,-5.90254 z"
         id="path28402-0" />
      <path
         style="fill:#000000;fill-opacity:1;fill-rule:evenodd;stroke:none;stroke-width:0.80514383px;stroke-linecap:butt;stroke-linejoin:miter;stroke-opacity:1"
         d="m 1358.5059,137.47852 c -2.2991,0.0477 -4.2465,1.70809 -4.6582,3.9707 -1.553,7.8873 -2.4722,12.73109 -2.8555,15.99609 -0.1916,1.6325 -0.3342,2.79429 -0.057,4.39649 0.139,0.801 0.3877,1.85361 1.3536,2.97461 0.9502,1.1028 2.6936,1.81133 3.914,1.86523 1.3059,0.057 1.7292,-0.16325 2.2051,-0.31055 0.2905,-0.091 0.5517,-0.20013 0.8184,-0.30273 l 0,13.33594 40.8144,0 0,-15.42578 c 1.0234,2.5459 2.0668,5.1359 2.9004,7.1621 0.502,1.22021 0.9413,2.27069 1.291,3.08399 0.3497,0.8133 0.2107,0.82408 0.9981,2.08398 0.8894,1.4231 2.0407,1.89364 2.7246,2.11914 0.684,0.2255 1.1211,0.258 1.4902,0.2793 0.7382,0.042 1.2169,-0.0161 1.7285,-0.0801 1.023,-0.13 2.0721,-0.35402 3.2832,-0.64062 2.4222,-0.5729 5.3932,-1.41201 8.3399,-2.28711 5.8934,-1.75 11.6484,-3.64258 11.6484,-3.64258 0.1078,-0.0334 0.2064,-0.0736 0.3086,-0.11133 l 0,-9.11719 c -0.9488,-0.35448 -2.074,-0.39745 -3.3301,0.0391 0,0 -5.6647,1.85924 -11.3808,3.55664 -2.8175,0.8366 -5.6356,1.62449 -7.7032,2.11719 -0.1603,-0.3854 -0.2709,-0.64198 -0.4511,-1.08008 -0.9829,-2.3888 -2.2326,-5.48738 -3.459,-8.54688 -2.4524,-6.1192 -4.8125,-12.09179 -4.8125,-12.09179 -1.2164,-1.8709 -2.73,-2.81145 -4.543,-3.12305 -13.4802,-1.65372 -27.2151,-4.74478 -40.5664,-6.2207 l 0,0 z"
         transform="translate(-1.2207031e-4,0)"
         id="path28408-8" />
      <path
         style="opacity:1;fill:#666666;fill-opacity:1;fill-rule:nonzero;stroke:none;stroke-width:2;stroke-linecap:round;stroke-linejoin:round;stroke-miterlimit:4;stroke-dasharray:none;stroke-dashoffset:0;stroke-opacity:1"
         d="m 1359.7959,55.88951 c -0.4788,-0.0482 -0.8668,0.33302 -0.8672,0.85156 l 0,7.13281 a 14.391075,14.511623 0 0 0 -8.502,-2.82422 14.391075,14.511623 0 0 0 -14.3925,14.51172 14.391075,14.511623 0 0 0 14.3925,14.51172 14.391075,14.511623 0 0 0 8.6407,-2.92383 c 0.1521,0.28865 0.4145,0.51147 0.7285,0.54883 l 17.5801,2.07422 0,2.97852 -11.2012,-1.33789 0,2.21093 24.7891,2.99024 0.7343,0.0879 0.053,0.006 0,-2.23828 -6.0547,-0.72461 0,-2.99219 18.0547,2.13086 c 0.5017,0.0591 0.9082,-0.32408 0.9082,-0.85547 l 0,-30.61914 c -4e-4,-0.53115 -0.4068,-1.00368 -0.9082,-1.05469 l -43.955,-4.46484 z m 0.8691,1.96875 42.1797,4.32617 0,28.66797 -42.1797,-4.93555 0,-0.17578 a 14.391075,14.511623 0 0 0 4.1524,-10.17969 14.391075,14.511623 0 0 0 -4.1524,-10.18945 l 0,-7.51367 z"
         id="ellipse28418-1" />
      <path
         style="opacity:1;fill:#666666;fill-opacity:1;fill-rule:nonzero;stroke:none;stroke-width:1.60000002;stroke-linecap:round;stroke-linejoin:round;stroke-miterlimit:4;stroke-dasharray:none;stroke-dashoffset:0;stroke-opacity:1"
         d="m 1334.1305,89.99035 c -1.7739,0.0361 -3.2761,1.3169 -3.5938,3.0625 -1.1978,6.08339 -1.9075,9.81964 -2.2031,12.33789 -0.1477,1.25913 -0.2553,2.15483 -0.041,3.39062 0.1072,0.61779 0.298,1.43029 1.043,2.29492 0.7329,0.85054 2.0782,1.39591 3.0195,1.4375 1.0073,0.044 1.3341,-0.12466 1.7012,-0.23828 0.2241,-0.0699 0.4252,-0.15525 0.6309,-0.23437 l 0,13.09961 27.4082,0 a 18.658499,18.814795 0 0 1 -1.1192,-6.36914 18.658499,18.814795 0 0 1 9.9238,-16.61133 c -0.7671,-1.93179 -1.9746,-4.96289 -1.9746,-4.96289 -0.9382,-1.44296 -2.1055,-2.1679 -3.5039,-2.40821 -10.3976,-1.27558 -20.9928,-3.66052 -31.291,-4.79882 z"
         id="path28420-5" />
      <path
         style="opacity:1;fill:#666666;fill-opacity:1;fill-rule:nonzero;stroke:none;stroke-width:2;stroke-linecap:round;stroke-linejoin:round;stroke-miterlimit:4;stroke-dasharray:none;stroke-dashoffset:0;stroke-opacity:1"
         d="m 1434.7539,77.826172 c -1.8792,2.546952 -3.004,5.692759 -3.0039,9.111328 0,3.299705 1.076,6.478686 3.0039,9.095703 l 0,-18.207031 z"
         transform="translate(-1.2207031e-4,0)"
         id="path28426-3" />
      <path
         style="opacity:1;fill:#cccccc;fill-opacity:1;fill-rule:nonzero;stroke:none;stroke-width:1.60000002;stroke-linecap:round;stroke-linejoin:round;stroke-miterlimit:4;stroke-dasharray:none;stroke-dashoffset:0;stroke-opacity:1"
         d="m 1413.0156,63.931641 c -1.3357,0.0272 -2.4659,0.99228 -2.7051,2.30664 -0.9019,4.58052 -1.4375,7.394886 -1.6601,9.291016 -0.1112,0.94806 -0.1929,1.622234 -0.031,2.552734 0.081,0.46516 0.2262,1.077486 0.7871,1.728516 0.5519,0.64041 1.5628,1.050721 2.2715,1.082031 0.7584,0.0331 1.0049,-0.0941 1.2813,-0.179687 0.1687,-0.0526 0.3197,-0.116212 0.4746,-0.175782 l 0,9.863282 18.7285,0 a 15.16943,15.296498 0 0 1 -0.4121,-3.462891 15.16943,15.296498 0 0 1 3.0039,-9.09375 l 0,-10.544922 c -7.2419,-0.995617 -14.5847,-2.576473 -21.7383,-3.367187 z"
         transform="translate(-1.2207031e-4,0)"
         id="path28434-1" />
      <path
         id="rect12080-7-4-1-9-1-1"
         d="m 1369.6883,70.21236 c 0,0 0,4.22893 0,4.22893 0,0 3.9317,0.43478 3.9317,0.43478 0,0 0,-4.23745 0,-4.23745 0,0 -3.9317,-0.42626 -3.9317,-0.42626 0,0 0,0 0,0 m 0.3779,0.44824 c 0,0 3.1746,0.34482 3.1746,0.34482 0,0 0,3.42029 0,3.42029 0,0 -3.1746,-0.35039 -3.1746,-0.35039 0,0 0,-3.41472 0,-3.41472 0,0 0,0 0,0"
         style="opacity:1;fill:#666666;fill-opacity:1;fill-rule:nonzero;stroke:none;stroke-width:1.60000002;stroke-linecap:round;stroke-linejoin:round;stroke-miterlimit:4;stroke-dasharray:none;stroke-dashoffset:0;stroke-opacity:1" />
      <path
         id="rect6192-3-3-2-8-5-1-4-6-6-2-5-61-0-02-1"
         d="m 1376.2579,71.80256 c 0,0 11.6263,1.26569 11.6263,1.26569 0,0 0,2.50199 0,2.50199 0,0 -11.6263,-1.28047 -11.6263,-1.28047 0,0 0,-2.48721 0,-2.48721"
         style="opacity:1;fill:#cccccc;fill-opacity:1;fill-rule:nonzero;stroke:none;stroke-width:3;stroke-linecap:round;stroke-linejoin:round;stroke-miterlimit:4;stroke-dasharray:none;stroke-dashoffset:0;stroke-opacity:1" />
      <path
         id="rect6192-3-3-2-8-5-1-4-6-6-2-5-7-15-9-9-8"
         d="m 1376.2579,77.05412 c 0,0 18.0028,2.00817 18.0028,2.00817 0,0 0,2.51009 0,2.51009 0,0 -18.0028,-2.03105 -18.0028,-2.03105 0,0 0,-2.48721 0,-2.48721"
         style="opacity:1;fill:#cccccc;fill-opacity:1;fill-rule:nonzero;stroke:none;stroke-width:3;stroke-linecap:round;stroke-linejoin:round;stroke-miterlimit:4;stroke-dasharray:none;stroke-dashoffset:0;stroke-opacity:1" />
      <path
         id="rect6192-3-3-2-8-5-1-4-6-6-2-5-4-9-4-57-5"
         d="m 1376.2579,82.30565 c 0,0 8.3901,0.95841 8.3901,0.95841 0,0 0,2.49787 0,2.49787 0,0 -8.3901,-0.96907 -8.3901,-0.96907 0,0 0,-2.48721 0,-2.48721"
         style="opacity:1;fill:#cccccc;fill-opacity:1;fill-rule:nonzero;stroke:none;stroke-width:3;stroke-linecap:round;stroke-linejoin:round;stroke-miterlimit:4;stroke-dasharray:none;stroke-dashoffset:0;stroke-opacity:1" />
      <path
         id="rect6192-3-3-2-8-5-1-4-6-6-2-5-4-3-8-54-4-7"
         d="m 1385.867,83.4033 c 0,0 9.0956,1.039 9.0956,1.039 0,0 0,2.51098 0,2.51098 0,0 -9.0956,-1.05056 -9.0956,-1.05056 0,0 0,-2.49942 0,-2.49942"
         style="opacity:1;fill:#cccccc;fill-opacity:1;fill-rule:nonzero;stroke:none;stroke-width:3;stroke-linecap:round;stroke-linejoin:round;stroke-miterlimit:4;stroke-dasharray:none;stroke-dashoffset:0;stroke-opacity:1" />
      <path
         id="rect12080-8-66-64-8"
         d="m 1369.6883,80.68028 c 0,0 0,4.22893 0,4.22893 0,0 3.9317,0.45589 3.9317,0.45589 0,0 0,-4.23746 0,-4.23746 0,0 -3.9317,-0.44736 -3.9317,-0.44736 0,0 0,0 0,0 m 0.3779,0.45027 c 0,0 3.1746,0.36186 3.1746,0.36186 0,0 0,3.42029 0,3.42029 0,0 -3.1746,-0.36742 -3.1746,-0.36742 0,0 0,-3.41473 0,-3.41473 0,0 0,0 0,0"
         style="opacity:1;fill:#666666;fill-opacity:1;fill-rule:nonzero;stroke:none;stroke-width:1.60000002;stroke-linecap:round;stroke-linejoin:round;stroke-miterlimit:4;stroke-dasharray:none;stroke-dashoffset:0;stroke-opacity:1" />
      <path
         id="rect12109-0-3-91-5"
         d="m 1370.9507,81.37262 c 0,0 2.1588,2.57111 2.1588,2.57111 0,0 -0.7553,0.72551 -0.7553,0.72551 0,0 -2.1572,-2.57091 -2.1572,-2.57091 0,0 0.7537,-0.72571 0.7537,-0.72571"
         style="opacity:1;fill:#1f7a7a;fill-opacity:1;fill-rule:nonzero;stroke:none;stroke-width:1.60000002;stroke-linecap:round;stroke-linejoin:round;stroke-miterlimit:4;stroke-dasharray:none;stroke-dashoffset:0;stroke-opacity:1" />
      <path
         id="rect12109-7-3-9-2-1"
         d="m 1373.1095,82.43174 c 0,0 -2.1588,2.07516 -2.1588,2.07516 0,0 -0.7537,-0.89886 -0.7537,-0.89886 0,0 2.1572,-2.07535 2.1572,-2.07535 0,0 0.7553,0.89905 0.7553,0.89905"
         style="opacity:1;fill:#1f7a7a;fill-opacity:1;fill-rule:nonzero;stroke:none;stroke-width:1.60000002;stroke-linecap:round;stroke-linejoin:round;stroke-miterlimit:4;stroke-dasharray:none;stroke-dashoffset:0;stroke-opacity:1" />
      <path
         id="rect12080-7-4-9-3-6"
         d="m 1369.6883,75.44627 c 0,0 0,4.22893 0,4.22893 0,0 3.9317,0.44533 3.9317,0.44533 0,0 0,-4.23745 0,-4.23745 0,0 -3.9317,-0.43681 -3.9317,-0.43681 0,0 0,0 0,0 m 0.3779,0.44924 c 0,0 3.1746,0.35335 3.1746,0.35335 0,0 0,3.42029 0,3.42029 0,0 -3.1746,-0.35891 -3.1746,-0.35891 0,0 0,-3.41473 0,-3.41473 0,0 0,0 0,0"
         style="opacity:1;fill:#666666;fill-opacity:1;fill-rule:nonzero;stroke:none;stroke-width:1.60000002;stroke-linecap:round;stroke-linejoin:round;stroke-miterlimit:4;stroke-dasharray:none;stroke-dashoffset:0;stroke-opacity:1" />
      <path
         id="rect6192-3-3-2-8-5-1-4-6-6-2-5-1-3-3-38-0"
         d="m 1388.9094,73.17985 c 0,0 11.7776,1.28216 11.7776,1.28216 0,0 0,2.51826 0,2.51826 0,0 -11.7776,-1.29712 -11.7776,-1.29712 0,0 0,-2.5033 0,-2.5033"
         style="opacity:1;fill:#cccccc;fill-opacity:1;fill-rule:nonzero;stroke:none;stroke-width:3;stroke-linecap:round;stroke-linejoin:round;stroke-miterlimit:4;stroke-dasharray:none;stroke-dashoffset:0;stroke-opacity:1" />
      <path
         id="rect20654-9-6-8-2-7-7-8-7-9-9"
         d="m 1390.9038,62.35547 c 0,0 0,9.06106 0,9.06106 0,0 8.5366,0.92075 8.5366,0.92075 0,0 0,-9.1003 0,-9.1003 0,0 -8.5366,-0.88151 -8.5366,-0.88151 m 6.6795,6.33451 c 0.2736,0.029 0.4849,0.13127 0.6126,0.29429 0.094,0.12071 0.1332,0.24646 0.1332,0.43194 0,0 -0.3645,-0.0388 -0.3645,-0.0388 -0.013,-0.20621 -0.1517,-0.33067 -0.3992,-0.35698 -0.2006,-0.0213 -0.3284,0.0612 -0.3284,0.21338 0,0.14666 0.081,0.214 0.3595,0.30185 0,0 0.2972,0.0915 0.2972,0.0915 0.352,0.10944 0.5037,0.29186 0.5037,0.61034 0,0.40979 -0.2894,0.62245 -0.7793,0.56993 -0.4845,-0.0519 -0.7638,-0.31596 -0.7872,-0.75003 0,0 0.3797,0.0406 0.3797,0.0406 0.013,0.21721 0.1621,0.35213 0.4278,0.38056 0.2372,0.0254 0.3837,-0.0613 0.3837,-0.23022 0,-0.16335 -0.097,-0.25192 -0.3573,-0.33236 0,0 -0.266,-0.0831 -0.266,-0.0831 -0.3854,-0.11855 -0.5344,-0.28655 -0.5344,-0.59924 0,-0.39286 0.2631,-0.592 0.7189,-0.54362 0,0 0,0 0,0 m 1.0529,0.12325 c 0.042,0.004 0.08,0.0167 0.1164,0.0366 0.036,0.0199 0.07,0.047 0.1,0.0819 0.03,0.035 0.052,0.0719 0.067,0.11166 0.015,0.0397 0.023,0.0823 0.023,0.12731 0,0.0443 -0.01,0.0845 -0.023,0.12113 -0.015,0.0363 -0.038,0.0688 -0.067,0.0974 -0.03,0.0286 -0.063,0.0498 -0.1,0.062 -0.036,0.0122 -0.075,0.0163 -0.1164,0.0118 -0.042,-0.004 -0.08,-0.0166 -0.1164,-0.0366 -0.036,-0.0198 -0.07,-0.0483 -0.1,-0.0832 -0.03,-0.035 -0.052,-0.0722 -0.067,-0.11163 -0.015,-0.0397 -0.022,-0.0816 -0.022,-0.12583 0,-0.0449 0.01,-0.086 0.022,-0.12254 0.015,-0.0367 0.037,-0.0688 0.067,-0.0974 0.03,-0.0286 0.064,-0.0485 0.1,-0.0608 0.036,-0.0122 0.075,-0.0163 0.1164,-0.0119 0,0 0,0 0,0 m -6.6294,-0.68197 c 0,0 0.3886,0.0412 0.3886,0.0412 0,0 0,2.01172 0,2.01172 0,0 -0.3886,-0.0416 -0.3886,-0.0416 0,0 0,-2.01133 0,-2.01133 m 0.763,0.081 c 0,0 0.3889,0.0413 0.3889,0.0413 0,0 0,1.6682 0,1.6682 0,0 0.906,0.0969 0.906,0.0969 0,0 0,0.34447 0,0.34447 0,0 -1.2949,-0.13876 -1.2949,-0.13876 0,0 0,-2.0121 0,-2.0121 m 1.5422,0.16367 c 0,0 0.3894,0.0413 0.3894,0.0413 0,0 0,2.01407 0,2.01407 0,0 -0.3894,-0.0417 -0.3894,-0.0417 0,0 0,-2.01368 0,-2.01368 m 1.2969,0.13766 c 0,0 0.4319,0.0458 0.4319,0.0458 0,0 0.656,2.08574 0.656,2.08574 0,0 -0.4011,-0.043 -0.4011,-0.043 0,0 -0.1244,-0.41928 -0.1244,-0.41928 0,0 -0.7107,-0.076 -0.7107,-0.076 0,0 -0.1267,0.39221 -0.1267,0.39221 0,0 -0.3982,-0.0427 -0.3982,-0.0427 0,0 0.6732,-1.94286 0.6732,-1.94286 m 3.0273,0.36715 c -0.033,-0.003 -0.064,-4.1e-4 -0.092,0.009 -0.028,0.01 -0.055,0.0248 -0.079,0.0477 -0.024,0.0229 -0.042,0.0493 -0.054,0.0783 -0.012,0.0288 -0.017,0.0607 -0.017,0.0963 0,0.0353 0,0.0683 0.017,0.0999 0.012,0.0312 0.03,0.0619 0.054,0.0898 0.024,0.0275 0.051,0.0489 0.079,0.0644 0.029,0.0156 0.059,0.0254 0.092,0.029 0.034,0.004 0.065,7e-5 0.094,-0.009 0.028,-0.01 0.054,-0.0249 0.078,-0.0477 0.024,-0.0229 0.042,-0.0496 0.054,-0.0783 0.012,-0.0291 0.018,-0.0609 0.018,-0.0962 0,-0.0356 -0.01,-0.0687 -0.018,-0.10003 -0.012,-0.0316 -0.03,-0.0619 -0.054,-0.0898 -0.024,-0.0282 -0.051,-0.0502 -0.079,-0.0657 -0.028,-0.0154 -0.059,-0.0241 -0.092,-0.0277 0,0 0,-2e-5 0,-2e-5 m -0.126,0.0542 c 0,0 0.1175,0.0125 0.1175,0.0125 0.048,0.005 0.085,0.0182 0.1093,0.0383 0.024,0.0197 0.034,0.0474 0.034,0.0827 0,0.0251 -0.01,0.0453 -0.021,0.0602 -0.015,0.0148 -0.034,0.0232 -0.061,0.0253 0.011,0.008 0.023,0.0175 0.032,0.0301 0.01,0.0127 0.018,0.0284 0.027,0.0461 0,0 0.046,0.10043 0.046,0.10043 0,0 -0.095,-0.0101 -0.095,-0.0101 0,0 -0.043,-0.0976 -0.043,-0.0976 -0.011,-0.0238 -0.02,-0.0399 -0.028,-0.05 -0.01,-0.0105 -0.016,-0.017 -0.024,-0.0178 0,0 0,-5.2e-4 0,-5.2e-4 0,0 0,0.15545 0,0.15545 0,0 -0.089,-0.009 -0.089,-0.009 0,0 0,-0.3656 0,-0.3656 0,0 -10e-5,3e-5 -10e-5,3e-5 m 0.089,0.0705 c 0,0 0,0.0905 0,0.0905 0,0 0.015,0.002 0.015,0.002 0.021,0.002 0.037,0 0.048,-0.006 0.011,-0.007 0.017,-0.0175 0.017,-0.0326 0,-0.0152 -0.01,-0.0278 -0.017,-0.0362 -0.01,-0.008 -0.026,-0.013 -0.048,-0.0153 0,0 -0.015,-0.001 -0.015,-0.001 m -2.7819,0.006 c 0,0 -0.2464,0.76119 -0.2464,0.76119 0,0 0.494,0.0528 0.494,0.0528 0,0 -0.2476,-0.81394 -0.2476,-0.81394"
         style="fill:#1f7a7a;fill-opacity:1" />
      <path
         style="opacity:1;fill:#666666;fill-opacity:1;fill-rule:nonzero;stroke:none;stroke-width:1.60000002;stroke-linecap:round;stroke-linejoin:round;stroke-miterlimit:4;stroke-dasharray:none;stroke-dashoffset:0;stroke-opacity:1"
         d="m 1284.6397,98.19884 c 0,0 0,5.20162 0,5.20162 0,0 4.836,0.53478 4.836,0.53478 0,0 0,-5.2121 0,-5.2121 0,0 -4.836,-0.5243 -4.836,-0.5243 0,0 0,0 0,0 m 0.4649,0.55133 c 0,0 3.9046,0.42414 3.9046,0.42414 0,0 0,4.20698 0,4.20698 0,0 -3.9046,-0.43098 -3.9046,-0.43098 0,0 0,-4.20014 0,-4.20014 0,0 0,0 0,0"
         id="path30744-1" />
      <path
         style="opacity:1;fill:#1f7a7a;fill-opacity:1;fill-rule:nonzero;stroke:none;stroke-width:1.60000002;stroke-linecap:round;stroke-linejoin:round;stroke-miterlimit:4;stroke-dasharray:none;stroke-dashoffset:0;stroke-opacity:1"
         d="m 1286.1925,99.04206 c 0,0 2.6553,3.14823 2.6553,3.14823 0,0 -0.9291,0.89738 -0.9291,0.89738 0,0 -2.6533,-3.14801 -2.6533,-3.14801 0,0 0.9271,-0.8976 0.9271,-0.8976"
         id="path30746-2" />
      <path
         style="opacity:1;fill:#1f7a7a;fill-opacity:1;fill-rule:nonzero;stroke:none;stroke-width:1.60000002;stroke-linecap:round;stroke-linejoin:round;stroke-miterlimit:4;stroke-dasharray:none;stroke-dashoffset:0;stroke-opacity:1"
         d="m 1288.8478,100.33056 c 0,0 -2.6553,2.56671 -2.6553,2.56671 0,0 -0.9271,-1.10063 -0.9271,-1.10063 0,0 2.6533,-2.56693 2.6533,-2.56693 0,0 0.9291,1.10085 0.9291,1.10085"
         id="path30748-4" />
      <path
         style="opacity:1;fill:#cccccc;fill-opacity:1;fill-rule:nonzero;stroke:none;stroke-width:3;stroke-linecap:round;stroke-linejoin:round;stroke-miterlimit:4;stroke-dasharray:none;stroke-dashoffset:0;stroke-opacity:1"
         d="m 1292.7203,100.1548 c 0,0 14.3005,1.5568 14.3005,1.5568 0,0 0,3.07747 0,3.07747 0,0 -14.3005,-1.57498 -14.3005,-1.57498 0,0 0,-3.05929 0,-3.05929"
         id="path30752-9" />
      <path
         style="opacity:1;fill:#cccccc;fill-opacity:1;fill-rule:nonzero;stroke:none;stroke-width:3;stroke-linecap:round;stroke-linejoin:round;stroke-miterlimit:4;stroke-dasharray:none;stroke-dashoffset:0;stroke-opacity:1"
         d="m 1292.7203,106.61425 c 0,0 22.1437,2.47006 22.1437,2.47006 0,0 0,3.08743 0,3.08743 0,0 -22.1437,-2.4982 -22.1437,-2.4982 0,0 0,-3.05929 0,-3.05929"
         id="path30754-0" />
      <path
         style="opacity:1;fill:#cccccc;fill-opacity:1;fill-rule:nonzero;stroke:none;stroke-width:3;stroke-linecap:round;stroke-linejoin:round;stroke-miterlimit:4;stroke-dasharray:none;stroke-dashoffset:0;stroke-opacity:1"
         d="m 1292.7203,113.07367 c 0,0 10.3199,1.17884 10.3199,1.17884 0,0 0,3.07241 0,3.07241 0,0 -10.3199,-1.19196 -10.3199,-1.19196 0,0 0,-3.05929 0,-3.05929"
         id="path30756-1" />
      <path
         style="opacity:1;fill:#cccccc;fill-opacity:1;fill-rule:nonzero;stroke:none;stroke-width:3;stroke-linecap:round;stroke-linejoin:round;stroke-miterlimit:4;stroke-dasharray:none;stroke-dashoffset:0;stroke-opacity:1"
         d="m 1304.5395,114.42378 c 0,0 11.1878,1.27798 11.1878,1.27798 0,0 0,3.08853 0,3.08853 0,0 -11.1878,-1.2922 -11.1878,-1.2922 0,0 0,-3.07431 0,-3.07431"
         id="path30758-4" />
      <path
         style="opacity:1;fill:#666666;fill-opacity:1;fill-rule:nonzero;stroke:none;stroke-width:1.60000002;stroke-linecap:round;stroke-linejoin:round;stroke-miterlimit:4;stroke-dasharray:none;stroke-dashoffset:0;stroke-opacity:1"
         d="m 1284.6397,111.07446 c 0,0 0,5.20161 0,5.20161 0,0 4.836,0.56074 4.836,0.56074 0,0 0,-5.2121 0,-5.2121 0,0 -4.836,-0.55025 -4.836,-0.55025 0,0 0,0 0,0 m 0.4649,0.55382 c 0,0 3.9046,0.4451 3.9046,0.4451 0,0 0,4.20698 0,4.20698 0,0 -3.9046,-0.45193 -3.9046,-0.45193 0,0 0,-4.20015 0,-4.20015 0,0 0,0 0,0"
         id="path30760-4" />
      <path
         style="opacity:1;fill:#666666;fill-opacity:1;fill-rule:nonzero;stroke:none;stroke-width:1.60000002;stroke-linecap:round;stroke-linejoin:round;stroke-miterlimit:4;stroke-dasharray:none;stroke-dashoffset:0;stroke-opacity:1"
         d="m 1284.6397,104.63658 c 0,0 0,5.20161 0,5.20161 0,0 4.836,0.54776 4.836,0.54776 0,0 0,-5.21209 0,-5.21209 0,0 -4.836,-0.53728 -4.836,-0.53728 0,0 0,0 0,0 m 0.4649,0.55258 c 0,0 3.9046,0.43462 3.9046,0.43462 0,0 0,4.20697 0,4.20697 0,0 -3.9046,-0.44145 -3.9046,-0.44145 0,0 0,-4.20014 0,-4.20014 0,0 0,0 0,0"
         id="path30766-3" />
      <path
         style="opacity:1;fill:#cccccc;fill-opacity:1;fill-rule:nonzero;stroke:none;stroke-width:3;stroke-linecap:round;stroke-linejoin:round;stroke-miterlimit:4;stroke-dasharray:none;stroke-dashoffset:0;stroke-opacity:1"
         d="m 1308.2818,101.84888 c 0,0 14.4865,1.57706 14.4865,1.57706 0,0 0,3.09747 0,3.09747 0,0 -14.4865,-1.59547 -14.4865,-1.59547 0,0 0,-3.07906 0,-3.07906"
         id="path30772-2" />
      <path
         style="fill:#1f7a7a;fill-opacity:1"
         d="m 1310.7349,88.53481 c 0,0 0,11.14517 0,11.14517 0,0 10.5,1.13253 10.5,1.13253 0,0 0,-11.19343 0,-11.19343 0,0 -10.5,-1.08427 -10.5,-1.08427 m 8.2159,7.79149 c 0.3364,0.0357 0.5964,0.16147 0.7535,0.36199 0.1154,0.14847 0.1637,0.30314 0.1637,0.53128 0,0 -0.4483,-0.0477 -0.4483,-0.0477 -0.016,-0.25364 -0.1866,-0.40673 -0.491,-0.43909 -0.2468,-0.0262 -0.4039,0.0752 -0.4039,0.26246 0,0.18039 0.099,0.26323 0.4422,0.37127 0,0 0.3656,0.11258 0.3656,0.11258 0.4328,0.13462 0.6195,0.359 0.6195,0.75073 0,0.50405 -0.356,0.76562 -0.9586,0.70102 -0.5959,-0.0639 -0.9394,-0.38864 -0.9682,-0.92254 0,0 0.467,0.0499 0.467,0.0499 0.016,0.26717 0.1994,0.43312 0.5262,0.46809 0.2918,0.0312 0.4719,-0.0754 0.4719,-0.28317 0,-0.20092 -0.1189,-0.30986 -0.4394,-0.4088 0,0 -0.3273,-0.10228 -0.3273,-0.10228 -0.474,-0.14582 -0.6572,-0.35245 -0.6572,-0.73707 0,-0.48322 0.3236,-0.72816 0.8843,-0.66866 0,0 0,0 0,0 m 1.2949,0.1516 c 0.051,0.005 0.099,0.0206 0.1433,0.045 0.045,0.0245 0.086,0.0578 0.1224,0.10076 0.037,0.043 0.064,0.0884 0.083,0.13735 0.018,0.0489 0.028,0.10128 0.028,0.15658 0,0.0545 -0.01,0.10396 -0.028,0.14899 -0.018,0.0447 -0.046,0.0846 -0.083,0.11975 -0.037,0.0352 -0.078,0.0613 -0.1224,0.0763 -0.044,0.015 -0.092,0.02 -0.1433,0.0145 -0.051,-0.005 -0.098,-0.0204 -0.143,-0.045 -0.044,-0.0244 -0.086,-0.0594 -0.1226,-0.10233 -0.037,-0.043 -0.064,-0.0888 -0.083,-0.1373 -0.018,-0.0489 -0.027,-0.10032 -0.027,-0.15477 0,-0.0553 0.01,-0.10574 0.027,-0.15072 0.018,-0.0451 0.046,-0.0846 0.083,-0.11975 0.037,-0.0352 0.078,-0.0597 0.1226,-0.0747 0.045,-0.015 0.092,-0.0201 0.143,-0.0146 0,0 0,0 0,0 m -8.1541,-0.83882 c 0,0 0.4779,0.0507 0.4779,0.0507 0,0 0,2.47443 0,2.47443 0,0 -0.4779,-0.0512 -0.4779,-0.0512 0,0 0,-2.47394 0,-2.47394 m 0.9385,0.0996 c 0,0 0.4784,0.0508 0.4784,0.0508 0,0 0,2.05189 0,2.05189 0,0 1.1144,0.11922 1.1144,0.11922 0,0 0,0.42369 0,0.42369 0,0 -1.5928,-0.17067 -1.5928,-0.17067 0,0 0,-2.4749 0,-2.4749 m 1.8969,0.20132 c 0,0 0.479,0.0509 0.479,0.0509 0,0 0,2.47732 0,2.47732 0,0 -0.479,-0.0513 -0.479,-0.0513 0,0 0,-2.47684 0,-2.47684 m 1.5953,0.16932 c 0,0 0.5311,0.0564 0.5311,0.0564 0,0 0.807,2.56547 0.807,2.56547 0,0 -0.4934,-0.0529 -0.4934,-0.0529 0,0 -0.1531,-0.51572 -0.1531,-0.51572 0,0 -0.8741,-0.0935 -0.8741,-0.0935 0,0 -0.1559,0.48242 -0.1559,0.48242 0,0 -0.4897,-0.0525 -0.4897,-0.0525 0,0 0.8281,-2.38973 0.8281,-2.38973 m 3.7234,0.4516 c -0.04,-0.004 -0.078,-5.1e-4 -0.1136,0.0115 -0.035,0.0117 -0.068,0.0305 -0.097,0.0586 -0.029,0.0281 -0.052,0.0607 -0.066,0.0964 -0.014,0.0354 -0.021,0.0747 -0.021,0.11846 0,0.0434 0.01,0.084 0.021,0.12286 0.015,0.0385 0.037,0.0762 0.066,0.11047 0.029,0.0338 0.062,0.0601 0.097,0.0793 0.035,0.0192 0.073,0.0313 0.1136,0.0356 0.042,0.004 0.08,9e-5 0.1152,-0.0113 0.035,-0.0117 0.067,-0.0306 0.096,-0.0587 0.029,-0.0281 0.052,-0.061 0.066,-0.0964 0.015,-0.0358 0.022,-0.0749 0.022,-0.11834 0,-0.0438 -0.01,-0.0845 -0.022,-0.12304 -0.014,-0.0388 -0.037,-0.0762 -0.066,-0.11049 -0.029,-0.0347 -0.062,-0.0617 -0.097,-0.0809 -0.035,-0.019 -0.073,-0.0297 -0.1137,-0.034 0,0 0,-2e-5 0,-2e-5 m -0.1549,0.0667 c 0,0 0.1446,0.0154 0.1446,0.0154 0.06,0.006 0.1049,0.0224 0.1343,0.0471 0.029,0.0242 0.042,0.0583 0.042,0.10168 0,0.0308 -0.01,0.0558 -0.026,0.074 -0.018,0.0181 -0.042,0.0286 -0.075,0.0311 0.014,0.009 0.028,0.0215 0.04,0.0371 0.012,0.0157 0.023,0.0349 0.033,0.0567 0,0 0.056,0.12353 0.056,0.12353 0,0 -0.1166,-0.0124 -0.1166,-0.0124 0,0 -0.053,-0.12008 -0.053,-0.12008 -0.013,-0.0292 -0.024,-0.0491 -0.034,-0.0616 -0.01,-0.0129 -0.02,-0.0209 -0.029,-0.0219 0,0 -0.01,-6.3e-4 -0.01,-6.3e-4 0,0 0,0.1912 0,0.1912 0,0 -0.1092,-0.0116 -0.1092,-0.0116 0,0 0,-0.44969 0,-0.44969 0,0 -2e-4,3e-5 -2e-4,3e-5 m 0.1092,0.0868 c 0,0 0,0.11129 0,0.11129 0,0 0.018,0.002 0.018,0.002 0.026,0.003 0.046,1e-5 0.059,-0.008 0.013,-0.008 0.021,-0.0215 0.021,-0.0401 0,-0.0187 -0.01,-0.0342 -0.021,-0.0446 -0.013,-0.0103 -0.032,-0.016 -0.059,-0.0188 0,0 -0.018,-0.002 -0.018,-0.002 m -3.4217,0.007 c 0,0 -0.3031,0.93627 -0.3031,0.93627 0,0 0.6077,0.0649 0.6077,0.0649 0,0 -0.3046,-1.00116 -0.3046,-1.00116"
         id="path30774-5" />
      <path
         style="opacity:1;fill:#666666;fill-opacity:1;fill-rule:nonzero;stroke:none;stroke-width:1.60000002;stroke-linecap:round;stroke-linejoin:round;stroke-miterlimit:4;stroke-dasharray:none;stroke-dashoffset:0;stroke-opacity:1"
         d="m 1404.6081,111.83666 c 0,0 0,5.48295 0,5.48295 0,0 5.0976,0.56371 5.0976,0.56371 0,0 0,-5.494 0,-5.494 0,0 -5.0976,-0.55266 -5.0976,-0.55266 0,0 0,0 0,0 m 0.49,0.58115 c 0,0 4.1159,0.44708 4.1159,0.44708 0,0 0,4.43452 0,4.43452 0,0 -4.1159,-0.45429 -4.1159,-0.45429 0,0 0,-4.42731 0,-4.42731 0,0 0,0 0,0"
         id="path33070-1" />
      <path
         style="opacity:1;fill:#cccccc;fill-opacity:1;fill-rule:nonzero;stroke:none;stroke-width:3;stroke-linecap:round;stroke-linejoin:round;stroke-miterlimit:4;stroke-dasharray:none;stroke-dashoffset:0;stroke-opacity:1"
         d="m 1413.1258,113.89841 c 0,0 15.0739,1.641 15.0739,1.641 0,0 0,3.24392 0,3.24392 0,0 -15.0739,-1.66017 -15.0739,-1.66017 0,0 0,-3.22475 0,-3.22475"
         id="path33078-3" />
      <path
         style="opacity:1;fill:#cccccc;fill-opacity:1;fill-rule:nonzero;stroke:none;stroke-width:3;stroke-linecap:round;stroke-linejoin:round;stroke-miterlimit:4;stroke-dasharray:none;stroke-dashoffset:0;stroke-opacity:1"
         d="m 1413.125,120.70703 0,3.22461 21.6289,2.43945 0,-3.25195 -21.6289,-2.41211 z"
         transform="translate(-1.2207031e-4,0)"
         id="path33080-2" />
      <path
         style="opacity:1;fill:#cccccc;fill-opacity:1;fill-rule:nonzero;stroke:none;stroke-width:3;stroke-linecap:round;stroke-linejoin:round;stroke-miterlimit:4;stroke-dasharray:none;stroke-dashoffset:0;stroke-opacity:1"
         d="m 1413.1258,127.51601 c 0,0 10.878,1.2426 10.878,1.2426 0,0 0,3.23858 0,3.23858 0,0 -10.878,-1.25643 -10.878,-1.25643 0,0 0,-3.22475 0,-3.22475"
         id="path33082-6" />
      <path
         style="opacity:1;fill:#cccccc;fill-opacity:1;fill-rule:nonzero;stroke:none;stroke-width:3;stroke-linecap:round;stroke-linejoin:round;stroke-miterlimit:4;stroke-dasharray:none;stroke-dashoffset:0;stroke-opacity:1"
         d="m 1425.584,128.93945 0,3.24024 9.1699,1.05859 0,-3.25 -9.1699,-1.04883 z"
         transform="translate(-1.2207031e-4,0)"
         id="path33084-0" />
      <path
         style="opacity:1;fill:#666666;fill-opacity:1;fill-rule:nonzero;stroke:none;stroke-width:1.60000002;stroke-linecap:round;stroke-linejoin:round;stroke-miterlimit:4;stroke-dasharray:none;stroke-dashoffset:0;stroke-opacity:1"
         d="m 1404.6081,125.40867 c 0,0 0,5.48294 0,5.48294 0,0 5.0976,0.59107 5.0976,0.59107 0,0 0,-5.494 0,-5.494 0,0 -5.0976,-0.58001 -5.0976,-0.58001 0,0 0,0 0,0 m 0.49,0.58378 c 0,0 4.1159,0.46917 4.1159,0.46917 0,0 0,4.43452 0,4.43452 0,0 -4.1159,-0.47638 -4.1159,-0.47638 0,0 0,-4.42731 0,-4.42731 0,0 0,0 0,0"
         id="path33086-6" />
      <path
         style="opacity:1;fill:#1f7a7a;fill-opacity:1;fill-rule:nonzero;stroke:none;stroke-width:1.60000002;stroke-linecap:round;stroke-linejoin:round;stroke-miterlimit:4;stroke-dasharray:none;stroke-dashoffset:0;stroke-opacity:1"
         d="m 1406.2449,126.30631 c 0,0 2.7989,3.33352 2.7989,3.33352 0,0 -0.9794,0.94065 -0.9794,0.94065 0,0 -2.7967,-3.33327 -2.7967,-3.33327 0,0 0.9772,-0.9409 0.9772,-0.9409"
         id="path33088-9" />
      <path
         style="opacity:1;fill:#1f7a7a;fill-opacity:1;fill-rule:nonzero;stroke:none;stroke-width:1.60000002;stroke-linecap:round;stroke-linejoin:round;stroke-miterlimit:4;stroke-dasharray:none;stroke-dashoffset:0;stroke-opacity:1"
         d="m 1409.0438,127.67948 c 0,0 -2.7989,2.69052 -2.7989,2.69052 0,0 -0.9772,-1.1654 -0.9772,-1.1654 0,0 2.7967,-2.69076 2.7967,-2.69076 0,0 0.9794,1.16564 0.9794,1.16564"
         id="path33090-6" />
      <path
         style="opacity:1;fill:#666666;fill-opacity:1;fill-rule:nonzero;stroke:none;stroke-width:1.60000002;stroke-linecap:round;stroke-linejoin:round;stroke-miterlimit:4;stroke-dasharray:none;stroke-dashoffset:0;stroke-opacity:1"
         d="m 1404.6081,118.6226 c 0,0 0,5.48294 0,5.48294 0,0 5.0976,0.57739 5.0976,0.57739 0,0 0,-5.494 0,-5.494 0,0 -5.0976,-0.56633 -5.0976,-0.56633 0,0 0,0 0,0 m 0.49,0.58246 c 0,0 4.1159,0.45812 4.1159,0.45812 0,0 0,4.43452 0,4.43452 0,0 -4.1159,-0.46534 -4.1159,-0.46534 0,0 0,-4.4273 0,-4.4273 0,0 0,0 0,0"
         id="path33092-8" />
      <path
         style="opacity:1;fill:#cccccc;fill-opacity:1;fill-rule:nonzero;stroke:none;stroke-width:3;stroke-linecap:round;stroke-linejoin:round;stroke-miterlimit:4;stroke-dasharray:none;stroke-dashoffset:0;stroke-opacity:1"
         d="m 1429.5293,115.68359 0,3.2461 5.2246,0.57617 0,-3.25391 -5.2246,-0.56836 z"
         transform="translate(-1.2207031e-4,0)"
         id="path33098-0" />
      <path
         style="fill:#1f7a7a;fill-opacity:1"
         d="m 1432.1152,101.65039 0,11.74805 2.6387,0.28515 0,-1.80859 -0.2207,-0.0234 0,-2.60742 0.2207,0.0234 0,-7.3457 -2.6387,-0.27149 z m 1.4297,7.48828 0.5039,0.0527 0,2.60937 -0.5039,-0.0547 0,-2.60742 z"
         transform="translate(-1.2207031e-4,0)"
         id="path33100-8" />
      <path
         style="opacity:1;fill:#cccccc;fill-opacity:1;fill-rule:nonzero;stroke:none;stroke-width:0.5;stroke-linecap:round;stroke-linejoin:round;stroke-miterlimit:4;stroke-dasharray:none;stroke-dashoffset:0;stroke-opacity:1"
         d="m 1420.0468,117.76401 c -3.3335,-0.39254 -6.203,-0.7201 -6.3766,-0.72792 -0.2165,-0.01 -0.3157,-0.49868 -0.3157,-1.55682 0,-1.47047 0.027,-1.53644 0.5682,-1.41069 0.3126,0.0725 3.6082,0.45098 7.3236,0.84096 l 6.7554,0.70906 0,1.45925 0,1.45925 -0.947,-0.0297 c -0.5208,-0.0163 -3.6744,-0.35086 -7.0079,-0.74339 z"
         id="path465834-3" />
      <path
         style="opacity:1;fill:#000000;fill-opacity:1;fill-rule:nonzero;stroke:none;stroke-width:2;stroke-linecap:round;stroke-linejoin:round;stroke-miterlimit:4;stroke-dasharray:none;stroke-dashoffset:0;stroke-opacity:1"
         d="m 1391.7832,93.265625 c -0.6209,-0.0625 -1.1244,0.431216 -1.125,1.103516 l 0,9.248049 a 18.658499,18.814795 0 0 0 -11.0234,-3.662112 18.658499,18.814795 0 0 0 -18.6582,18.816402 18.658499,18.814795 0 0 0 18.6582,18.81446 18.658499,18.814795 0 0 0 11.2031,-3.79102 c 0.1972,0.37491 0.5377,0.66244 0.9453,0.71094 l 22.7949,2.68945 0,3.86328 -14.5234,-1.73632 0,2.86718 32.1387,3.87696 0.9531,0.11523 1.6074,0.19336 0,-2.90625 -9.3906,-1.12109 0,-3.88086 9.3906,1.10742 0,-2.48047 -41.8437,-4.89648 0,-0.22657 a 18.658499,18.814795 0 0 0 5.3828,-13.19922 18.658499,18.814795 0 0 0 -5.3828,-13.21289 l 0,-9.740231 41.8437,4.292971 0,-2.480471 -42.9707,-4.365234 z"
         transform="translate(-1.2207031e-4,0)"
         id="path28410-4" />
    </g>
  </g>
</svg>
