<?xml version="1.0" encoding="UTF-8" standalone="no"?>
<svg
   xmlns:dc="http://purl.org/dc/elements/1.1/"
   xmlns:cc="http://creativecommons.org/ns#"
   xmlns:rdf="http://www.w3.org/1999/02/22-rdf-syntax-ns#"
   xmlns:svg="http://www.w3.org/2000/svg"
   xmlns="http://www.w3.org/2000/svg"
   version="1.1"
   id="svg5156"
   viewBox="0 0 210 160"
   height="160"
   width="210">
  <defs
     id="defs5158">
    <linearGradient
       spreadMethod="pad"
       gradientUnits="userSpaceOnUse"
       y2="593.78698"
       y1="3.6658269"
       x2="590.86259"
       x1="0.74144253"
       id="gradientFill"
       gradientTransform="matrix(1.2219423,0,0,0.81836924,-767.16729,-40.990215)">
      <stop
         id="stop6361"
         stop-opacity="1"
         stop-color="rgb(203,206,208)"
         offset="0" />
      <stop
         id="stop6363"
         stop-opacity="1"
         stop-color="rgb(132,131,139)"
         offset="1" />
    </linearGradient>
    <linearGradient
       spreadMethod="pad"
       gradientUnits="userSpaceOnUse"
       y2="593.78699"
       y1="3.6658268"
       x2="590.86261"
       x1="0.7414425"
       id="gradientFill-0"
       gradientTransform="matrix(1.2219423,0,0,0.81836924,-767.16729,-40.990215)">
      <stop
         id="stop6361-6"
         stop-opacity="1"
         stop-color="rgb(203,206,208)"
         offset="0" />
      <stop
         id="stop6363-2"
         stop-opacity="1"
         stop-color="rgb(132,131,139)"
         offset="1" />
    </linearGradient>
  </defs>
  <metadata
     id="metadata5161">
    <rdf:RDF>
      <cc:Work
         rdf:about="">
        <dc:format>image/svg+xml</dc:format>
        <dc:type
           rdf:resource="http://purl.org/dc/dcmitype/StillImage" />
        <dc:title></dc:title>
      </cc:Work>
    </rdf:RDF>
  </metadata>
  <g
     transform="translate(0,-892.36221)"
     id="layer1">
    <g
       id="g484877"
       transform="translate(-1226.2381,658.71814)">
      <path
         style="opacity:1;fill:#cccccc;fill-opacity:1;fill-rule:nonzero;stroke:none;stroke-width:2;stroke-linecap:round;stroke-linejoin:round;stroke-miterlimit:4;stroke-dasharray:none;stroke-dashoffset:0;stroke-opacity:1"
         d="m 1432.3418,250.99805 c -0.3606,-0.0363 -0.654,0.25019 -0.6543,0.64062 l 0,5.36914 a 10.835845,10.926612 0 0 0 -6.4004,-2.125 10.835845,10.926612 0 0 0 -10.8359,10.92774 10.835845,10.926612 0 0 0 10.8359,10.92578 10.835845,10.926612 0 0 0 6.5039,-2.20117 c 0.1149,0.21745 0.3143,0.38398 0.5508,0.41211 l 2.4121,0.28515 0,-1.41992 -1.7578,-0.20508 0,-0.13281 a 10.835845,10.926612 0 0 0 1.7578,-2.38867 l 0,-10.57813 a 10.835845,10.926612 0 0 0 -1.7578,-2.36914 l 0,-5.6582 1.7578,0.17969 0,-1.41797 -2.4121,-0.24414 z"
         transform="translate(-1.2207031e-4,0)"
         id="path28360-1" />
      <path
         id="path28326-7"
         d="m 1320.2717,342.39432 c -1.0563,0.0176 -1.9653,0.053 -2.7051,0.0867 l -0.081,1.1508 c 1.4252,-0.0679 3.6254,-0.15033 6.347,-0.0731 1.9796,0.0555 3.9696,0.20683 5.4427,0.51447 0.7366,0.15375 1.3426,0.35221 1.7303,0.56322 0.3877,0.21101 0.503,0.38935 0.5199,0.51177 0.028,0.20117 -0.022,0.35117 -0.1842,0.56052 -0.1613,0.20934 -0.4406,0.43837 -0.7636,0.65257 -0.3231,0.2142 -0.6855,0.41496 -1.0181,0.61197 -0.3326,0.19686 -0.6334,0.36477 -0.88,0.65799 -0.1234,0.14654 -0.2509,0.36356 -0.241,0.63904 0.011,0.27561 0.1732,0.51103 0.3439,0.65799 0.3415,0.29419 0.7794,0.44223 1.4866,0.63092 1.4143,0.3771 3.8893,0.78618 8.0989,1.32409 0.8757,0.1123 1.535,0.25082 1.9686,0.39805 0.409,0.13905 0.5484,0.28594 0.5632,0.29787 -0.011,0.0208 -0.01,0.0352 -0.06,0.0948 -0.1409,0.16942 -0.4817,0.44121 -0.9802,0.7311 -1.6368,0.95189 -4.9991,2.19622 -9.3256,3.59862 -0.9118,-0.75 -2.2532,-1.223 -3.9777,-1.1697 -3.8099,0.1178 -6.176,2.8167 -8.3346,5.2152 0,0 -0.059,0.3594 -0.1787,0.8989 -0.1199,0.5398 2.0989,2.6974 3.2981,3.4768 1.1993,0.7795 3.8769,0.1418 7.3137,-1.4974 3.1473,-1.5012 3.854,-4.1238 2.7078,-5.9788 4.1129,-1.338 7.3079,-2.5267 9.0765,-3.55528 0.5587,-0.32483 0.9825,-0.62684 1.2808,-0.98564 0.1491,-0.17939 0.2714,-0.38017 0.3249,-0.62279 0.054,-0.24262 0.012,-0.52337 -0.1111,-0.74464 -0.2463,-0.44226 -0.6779,-0.65655 -1.232,-0.84482 -0.5541,-0.18841 -1.27,-0.33463 -2.1906,-0.4522 -4.1929,-0.5357 -6.6627,-0.94821 -7.9501,-1.29161 -0.4514,-0.12062 -0.5683,-0.1987 -0.7256,-0.2762 0.1044,-0.0749 0.1443,-0.11756 0.3059,-0.21392 0.3102,-0.18369 0.6914,-0.39531 1.0669,-0.64445 0.3755,-0.24899 0.7483,-0.53251 1.0371,-0.90711 0.2889,-0.3746 0.4917,-0.87736 0.417,-1.41888 -0.086,-0.62041 -0.557,-1.06089 -1.1102,-1.36202 -0.5533,-0.30112 -1.2474,-0.51002 -2.0471,-0.67694 -1.5988,-0.33398 -3.6264,-0.48187 -5.6403,-0.53885 -1.3294,-0.0374 -2.5359,-0.0365 -3.5932,-0.019 z"
         style="fill:#000000;fill-opacity:1;fill-rule:evenodd;stroke:none;stroke-width:0.80514383px;stroke-linecap:butt;stroke-linejoin:miter;stroke-opacity:1" />
      <path
         style="opacity:1;fill:#000000;fill-opacity:1;fill-rule:nonzero;stroke:none;stroke-width:2;stroke-linecap:round;stroke-linejoin:round;stroke-miterlimit:4;stroke-dasharray:none;stroke-dashoffset:0;stroke-opacity:1"
         d="m 1272.4716,293.32141 c -0.589,-0.0592 -1.0659,0.40907 -1.0664,1.04688 l 0,8.77343 a 17.701117,17.849392 0 0 0 -10.459,-3.47265 17.701117,17.849392 0 0 0 -17.6992,17.84961 17.701117,17.849392 0 0 0 17.6992,17.84961 17.701117,17.849392 0 0 0 10.6289,-3.59571 c 0.1871,0.35547 0.51,0.62783 0.8965,0.67383 l 21.625,2.55078 0,3.66602 -13.7773,-1.64649 0,2.71875 30.4902,3.67774 0.9043,0.10937 6.6719,0.80469 0,-2.76172 -14.0567,-1.67969 0,-3.68164 22.209,2.6211 c 0.617,0.0727 1.1171,-0.39912 1.1172,-1.05274 l 0,-37.66211 c -6e-4,-0.65332 -0.5005,-1.23413 -1.1172,-1.29687 l -54.0664,-5.49219 z m 1.0684,2.42188 51.8808,5.32226 0,35.26172 -51.8808,-6.07031 0,-0.21485 a 17.701117,17.849392 0 0 0 5.1074,-12.52343 17.701117,17.849392 0 0 0 -5.1074,-12.53516 l 0,-9.24023 z"
         id="path28328-7" />
      <path
         id="path28330-8"
         d="m 1240.9039,335.26604 c -2.1819,0.0444 -4.0305,1.61985 -4.4213,3.76695 -1.4733,7.4826 -2.3457,12.07806 -2.7092,15.17552 -0.1818,1.5487 -0.3152,2.6504 -0.052,4.1704 0.1318,0.7599 0.3676,1.76 1.284,2.8235 0.9014,1.0462 2.5553,1.7169 3.7131,1.7681 1.2389,0.054 1.6416,-0.1538 2.0931,-0.2935 0.2756,-0.086 0.5223,-0.1896 0.7753,-0.2869 l 0,16.1122 38.7208,0 0,-18.0954 c 0.9709,2.4152 1.961,4.8722 2.7518,6.7944 0.4762,1.1576 0.8918,2.155 1.2235,2.9267 0.3318,0.7715 0.2009,0.7812 0.9479,1.9764 0.8438,1.3501 1.935,1.7962 2.5839,2.0101 0.6488,0.2139 1.0638,0.2442 1.414,0.2644 0.7003,0.04 1.155,-0.015 1.6403,-0.076 0.9706,-0.1234 1.9659,-0.3355 3.1148,-0.6074 2.2979,-0.5434 5.1172,-1.339 7.9127,-2.1691 5.591,-1.6602 11.05,-3.4554 11.05,-3.4554 5.9446,-1.8437 3.0128,-10.7626 -2.8662,-8.7194 0,0 -5.3738,1.7644 -10.7966,3.3747 -2.673,0.7937 -5.3462,1.5406 -7.3077,2.0079 -0.152,-0.3656 -0.257,-0.6085 -0.428,-1.0241 -0.9324,-2.2662 -2.1196,-5.2051 -3.283,-8.1076 -2.3266,-5.80523 -4.5647,-11.47125 -4.5647,-11.47125 -1.154,-1.77485 -2.5892,-2.66699 -4.3092,-2.96257 -12.7892,-1.56897 -25.821,-4.50243 -38.4878,-5.90254 z"
         style="opacity:1;fill:#000000;fill-opacity:1;fill-rule:nonzero;stroke:none;stroke-width:1.60000002;stroke-linecap:round;stroke-linejoin:round;stroke-miterlimit:4;stroke-dasharray:none;stroke-dashoffset:0;stroke-opacity:1" />
      <path
         style="opacity:1;fill:#666666;fill-opacity:1;fill-rule:nonzero;stroke:none;stroke-width:2;stroke-linecap:round;stroke-linejoin:round;stroke-miterlimit:4;stroke-dasharray:none;stroke-dashoffset:0;stroke-opacity:1"
         d="m 1359.7958,268.63 c -0.4789,-0.0482 -0.8666,0.33303 -0.8671,0.85157 l 0,7.13281 a 14.391075,14.511623 0 0 0 -8.502,-2.82422 14.391075,14.511623 0 0 0 -14.3926,14.51172 14.391075,14.511623 0 0 0 14.3926,14.51172 14.391075,14.511623 0 0 0 8.6406,-2.92383 c 0.1522,0.28894 0.4143,0.51144 0.7285,0.54883 l 17.5801,2.07422 0,2.97851 -11.2011,-1.33789 0,2.21094 24.789,2.99023 0.2774,0.0332 0,-2.04493 1.6211,0 -7.1661,-0.85742 0,-2.99218 18.0547,2.13085 c 0.5016,0.0591 0.9081,-0.32407 0.9082,-0.85546 l 0,-30.61915 c -5e-4,-0.53115 -0.4069,-1.00367 -0.9082,-1.05468 l -43.9551,-4.46485 z m 0.8692,1.96875 42.1797,4.32618 0,28.66796 -42.1797,-4.93554 0,-0.17578 a 14.391075,14.511623 0 0 0 4.1523,-10.17969 14.391075,14.511623 0 0 0 -4.1523,-10.18945 l 0,-7.51368 z"
         id="ellipse28346-0" />
      <path
         id="path28348-8"
         d="m 1334.1305,302.73094 c -1.7739,0.0361 -3.2761,1.3169 -3.5938,3.0625 -1.1978,6.08339 -1.9075,9.81964 -2.2031,12.33789 -0.1477,1.25913 -0.2553,2.15483 -0.041,3.39062 0.1072,0.61779 0.298,1.43029 1.043,2.29492 0.7329,0.85054 2.0782,1.39591 3.0195,1.4375 1.0073,0.044 1.3341,-0.12466 1.7012,-0.23828 0.2241,-0.0699 0.4252,-0.15525 0.6309,-0.23437 l 0,13.09961 27.4082,0 a 18.658499,18.814795 0 0 1 -1.1192,-6.36914 18.658499,18.814795 0 0 1 9.9238,-16.61133 c -0.7671,-1.93179 -1.9746,-4.96289 -1.9746,-4.96289 -0.9382,-1.44296 -2.1055,-2.1679 -3.5039,-2.40821 -10.3976,-1.27558 -20.9928,-3.66052 -31.291,-4.79882 z"
         style="opacity:1;fill:#666666;fill-opacity:1;fill-rule:nonzero;stroke:none;stroke-width:1.60000002;stroke-linecap:round;stroke-linejoin:round;stroke-miterlimit:4;stroke-dasharray:none;stroke-dashoffset:0;stroke-opacity:1" />
      <path
         style="opacity:1;fill:#666666;fill-opacity:1;fill-rule:nonzero;stroke:none;stroke-width:2;stroke-linecap:round;stroke-linejoin:round;stroke-miterlimit:4;stroke-dasharray:none;stroke-dashoffset:0;stroke-opacity:1"
         d="m 1434.7539,290.56836 c -1.8792,2.54695 -3.004,5.69276 -3.0039,9.11133 0,3.29943 1.0763,6.47685 3.0039,9.09375 l 0,-18.20508 z"
         transform="translate(-1.2207031e-4,0)"
         id="path28354-9" />
      <path
         style="opacity:1;fill:#cccccc;fill-opacity:1;fill-rule:nonzero;stroke:none;stroke-width:1.60000002;stroke-linecap:round;stroke-linejoin:round;stroke-miterlimit:4;stroke-dasharray:none;stroke-dashoffset:0;stroke-opacity:1"
         d="m 1413.0156,276.67188 c -1.3357,0.0272 -2.4659,0.99228 -2.7051,2.30664 -0.9019,4.58052 -1.4375,7.39488 -1.6601,9.29101 -0.1112,0.94806 -0.1929,1.62224 -0.031,2.55274 0.081,0.46516 0.2262,1.07748 0.7871,1.72851 0.5519,0.64041 1.5628,1.05072 2.2715,1.08203 0.7584,0.0331 1.0049,-0.0941 1.2813,-0.17969 0.1687,-0.0526 0.3197,-0.11621 0.4746,-0.17578 l 0,9.86328 18.7285,0 a 15.16943,15.296498 0 0 1 -0.4121,-3.46289 15.16943,15.296498 0 0 1 3.0039,-9.09179 l 0,-10.54492 c -7.2419,-0.99562 -14.5846,-2.57843 -21.7383,-3.36914 z"
         transform="translate(-1.2207031e-4,0)"
         id="path28362-8" />
      <path
         id="path45304-9"
         d="m 1404.6081,324.57725 c 0,0 0,5.48295 0,5.48295 0,0 5.0976,0.56371 5.0976,0.56371 0,0 0,-5.494 0,-5.494 0,0 -5.0976,-0.55266 -5.0976,-0.55266 0,0 0,0 0,0 m 0.49,0.58115 c 0,0 4.1159,0.44708 4.1159,0.44708 0,0 0,4.43452 0,4.43452 0,0 -4.1159,-0.45429 -4.1159,-0.45429 0,0 0,-4.42731 0,-4.42731 0,0 0,0 0,0"
         style="opacity:1;fill:#666666;fill-opacity:1;fill-rule:nonzero;stroke:none;stroke-width:1.60000002;stroke-linecap:round;stroke-linejoin:round;stroke-miterlimit:4;stroke-dasharray:none;stroke-dashoffset:0;stroke-opacity:1" />
      <path
         id="path45312-0"
         d="m 1413.1258,326.639 c 0,0 15.0739,1.641 15.0739,1.641 0,0 0,3.24392 0,3.24392 0,0 -15.0739,-1.66017 -15.0739,-1.66017 0,0 0,-3.22475 0,-3.22475"
         style="opacity:1;fill:#cccccc;fill-opacity:1;fill-rule:nonzero;stroke:none;stroke-width:3;stroke-linecap:round;stroke-linejoin:round;stroke-miterlimit:4;stroke-dasharray:none;stroke-dashoffset:0;stroke-opacity:1" />
      <path
         style="opacity:1;fill:#cccccc;fill-opacity:1;fill-rule:nonzero;stroke:none;stroke-width:3;stroke-linecap:round;stroke-linejoin:round;stroke-miterlimit:4;stroke-dasharray:none;stroke-dashoffset:0;stroke-opacity:1"
         d="m 1413.125,333.44727 0,3.22461 21.6289,2.4414 0,-3.2539 -21.6289,-2.41211 z"
         transform="translate(-1.2207031e-4,0)"
         id="path45314-1" />
      <path
         id="path45316-0"
         d="m 1413.1258,340.2566 c 0,0 10.878,1.2426 10.878,1.2426 0,0 0,3.23858 0,3.23858 0,0 -10.878,-1.25643 -10.878,-1.25643 0,0 0,-3.22475 0,-3.22475"
         style="opacity:1;fill:#cccccc;fill-opacity:1;fill-rule:nonzero;stroke:none;stroke-width:3;stroke-linecap:round;stroke-linejoin:round;stroke-miterlimit:4;stroke-dasharray:none;stroke-dashoffset:0;stroke-opacity:1" />
      <path
         style="opacity:1;fill:#cccccc;fill-opacity:1;fill-rule:nonzero;stroke:none;stroke-width:3;stroke-linecap:round;stroke-linejoin:round;stroke-miterlimit:4;stroke-dasharray:none;stroke-dashoffset:0;stroke-opacity:1"
         d="m 1425.584,341.67969 0,3.24023 9.1699,1.06055 0,-3.25195 -9.1699,-1.04883 z"
         transform="translate(-1.2207031e-4,0)"
         id="path45318-8" />
      <path
         id="path45320-1"
         d="m 1404.6081,338.14926 c 0,0 0,5.48294 0,5.48294 0,0 5.0976,0.59107 5.0976,0.59107 0,0 0,-5.494 0,-5.494 0,0 -5.0976,-0.58001 -5.0976,-0.58001 0,0 0,0 0,0 m 0.49,0.58378 c 0,0 4.1159,0.46917 4.1159,0.46917 0,0 0,4.43452 0,4.43452 0,0 -4.1159,-0.47638 -4.1159,-0.47638 0,0 0,-4.42731 0,-4.42731 0,0 0,0 0,0"
         style="opacity:1;fill:#666666;fill-opacity:1;fill-rule:nonzero;stroke:none;stroke-width:1.60000002;stroke-linecap:round;stroke-linejoin:round;stroke-miterlimit:4;stroke-dasharray:none;stroke-dashoffset:0;stroke-opacity:1" />
      <path
         id="path45326-6"
         d="m 1404.6081,331.36319 c 0,0 0,5.48294 0,5.48294 0,0 5.0976,0.57739 5.0976,0.57739 0,0 0,-5.494 0,-5.494 0,0 -5.0976,-0.56633 -5.0976,-0.56633 0,0 0,0 0,0 m 0.49,0.58246 c 0,0 4.1159,0.45812 4.1159,0.45812 0,0 0,4.43452 0,4.43452 0,0 -4.1159,-0.46534 -4.1159,-0.46534 0,0 0,-4.4273 0,-4.4273 0,0 0,0 0,0"
         style="opacity:1;fill:#666666;fill-opacity:1;fill-rule:nonzero;stroke:none;stroke-width:1.60000002;stroke-linecap:round;stroke-linejoin:round;stroke-miterlimit:4;stroke-dasharray:none;stroke-dashoffset:0;stroke-opacity:1" />
      <path
         style="opacity:1;fill:#cccccc;fill-opacity:1;fill-rule:nonzero;stroke:none;stroke-width:3;stroke-linecap:round;stroke-linejoin:round;stroke-miterlimit:4;stroke-dasharray:none;stroke-dashoffset:0;stroke-opacity:1"
         d="m 1429.5293,328.42383 0,3.24609 5.2246,0.57617 0,-3.25195 -5.2246,-0.57031 z"
         transform="translate(-1.2207031e-4,0)"
         id="path45332-7" />
      <path
         style="fill:#1f7a7a;fill-opacity:1;stroke:none"
         d="m 1427.7598,313.9043 c -0.7398,-0.0253 -1.36,0.0865 -1.9571,0.35156 -0.662,0.29528 -1.187,0.71218 -1.6328,1.29883 -0.5975,0.7872 -0.9676,1.77748 -1.1035,2.95117 -0.032,0.2735 -0.044,1.10784 -0.023,1.41797 0.064,0.85903 0.2468,1.62222 0.5664,2.36328 0.2546,0.59192 0.5178,1.02715 0.9043,1.49414 0.7732,0.93287 1.7795,1.57253 2.9238,1.85547 0.534,0.13199 1.1586,0.19394 1.709,0.16797 1.0145,-0.0457 2.0611,-0.43096 3.0976,-1.14063 0.59,-0.40253 0.909,-0.67198 1.9747,-1.67187 l 0.5097,-0.48047 0.025,0.0332 0,-3.78125 -0.023,0.0254 -0.2051,-0.24414 c -0.49,-0.58886 -1.3609,-1.59444 -1.5606,-1.80469 -1.2611,-1.32644 -2.606,-2.24919 -3.8066,-2.60742 -0.4082,-0.12278 -0.9775,-0.21451 -1.3984,-0.22851 z m 0.029,2.80078 c 0.099,-0.004 0.5884,0.0525 0.7031,0.0801 0.4183,0.0979 0.8029,0.27424 1.3086,0.60156 0.6543,0.42053 1.3119,0.96366 1.8984,1.56836 0.1106,0.11406 0.9887,1.07644 1.2656,1.38672 l 0.086,0.0977 -0.1446,0.15039 c -0.3436,0.35649 -1.0007,0.91165 -1.5,1.27149 -0.5181,0.37165 -0.9016,0.59975 -1.3378,0.78906 -0.8328,0.35935 -1.4725,0.43354 -2.2579,0.25977 -0.8922,-0.1975 -1.618,-0.81323 -2.0136,-1.70704 -0.268,-0.60444 -0.3736,-1.35707 -0.291,-2.06054 0.087,-0.74335 0.4353,-1.4598 0.9296,-1.91602 0.3595,-0.33261 0.8038,-0.50449 1.3536,-0.52148 z"
         transform="translate(-1.2207031e-4,0)"
         id="path45334-8" />
      <path
         id="path45372-2"
         d="m 1369.6883,282.95295 c 0,0 0,4.22893 0,4.22893 0,0 3.9317,0.43478 3.9317,0.43478 0,0 0,-4.23745 0,-4.23745 0,0 -3.9317,-0.42626 -3.9317,-0.42626 0,0 0,0 0,0 m 0.3779,0.44823 c 0,0 3.1745,0.34483 3.1745,0.34483 0,0 0,3.42029 0,3.42029 0,0 -3.1745,-0.35039 -3.1745,-0.35039 0,0 0,-3.41473 0,-3.41473 0,0 0,0 0,0"
         style="opacity:1;fill:#666666;fill-opacity:1;fill-rule:nonzero;stroke:none;stroke-width:1.60000002;stroke-linecap:round;stroke-linejoin:round;stroke-miterlimit:4;stroke-dasharray:none;stroke-dashoffset:0;stroke-opacity:1" />
      <path
         id="path45380-7"
         d="m 1376.2579,284.54315 c 0,0 11.6263,1.26569 11.6263,1.26569 0,0 0,2.50199 0,2.50199 0,0 -11.6263,-1.28047 -11.6263,-1.28047 0,0 0,-2.48721 0,-2.48721"
         style="opacity:1;fill:#cccccc;fill-opacity:1;fill-rule:nonzero;stroke:none;stroke-width:3;stroke-linecap:round;stroke-linejoin:round;stroke-miterlimit:4;stroke-dasharray:none;stroke-dashoffset:0;stroke-opacity:1" />
      <path
         id="path45382-7"
         d="m 1376.2579,289.79471 c 0,0 18.0028,2.00817 18.0028,2.00817 0,0 0,2.51009 0,2.51009 0,0 -18.0028,-2.03105 -18.0028,-2.03105 0,0 0,-2.48721 0,-2.48721"
         style="opacity:1;fill:#cccccc;fill-opacity:1;fill-rule:nonzero;stroke:none;stroke-width:3;stroke-linecap:round;stroke-linejoin:round;stroke-miterlimit:4;stroke-dasharray:none;stroke-dashoffset:0;stroke-opacity:1" />
      <path
         id="path45384-9"
         d="m 1376.2579,295.04624 c 0,0 8.39,0.95841 8.39,0.95841 0,0 0,2.49787 0,2.49787 0,0 -8.39,-0.96907 -8.39,-0.96907 0,0 0,-2.48721 0,-2.48721"
         style="opacity:1;fill:#cccccc;fill-opacity:1;fill-rule:nonzero;stroke:none;stroke-width:3;stroke-linecap:round;stroke-linejoin:round;stroke-miterlimit:4;stroke-dasharray:none;stroke-dashoffset:0;stroke-opacity:1" />
      <path
         id="path45386-1"
         d="m 1385.8669,296.14389 c 0,0 9.0957,1.039 9.0957,1.039 0,0 0,2.51098 0,2.51098 0,0 -9.0957,-1.05056 -9.0957,-1.05056 0,0 0,-2.49942 0,-2.49942"
         style="opacity:1;fill:#cccccc;fill-opacity:1;fill-rule:nonzero;stroke:none;stroke-width:3;stroke-linecap:round;stroke-linejoin:round;stroke-miterlimit:4;stroke-dasharray:none;stroke-dashoffset:0;stroke-opacity:1" />
      <path
         id="path45388-4"
         d="m 1369.6883,293.42087 c 0,0 0,4.22893 0,4.22893 0,0 3.9317,0.45589 3.9317,0.45589 0,0 0,-4.23746 0,-4.23746 0,0 -3.9317,-0.44736 -3.9317,-0.44736 0,0 0,0 0,0 m 0.3779,0.45027 c 0,0 3.1745,0.36186 3.1745,0.36186 0,0 0,3.42029 0,3.42029 0,0 -3.1745,-0.36742 -3.1745,-0.36742 0,0 0,-3.41473 0,-3.41473 0,0 0,0 0,0"
         style="opacity:1;fill:#666666;fill-opacity:1;fill-rule:nonzero;stroke:none;stroke-width:1.60000002;stroke-linecap:round;stroke-linejoin:round;stroke-miterlimit:4;stroke-dasharray:none;stroke-dashoffset:0;stroke-opacity:1" />
      <path
         id="path45390-0"
         d="m 1370.9507,294.11321 c 0,0 2.1588,2.57111 2.1588,2.57111 0,0 -0.7554,0.72551 -0.7554,0.72551 0,0 -2.1571,-2.57091 -2.1571,-2.57091 0,0 0.7537,-0.72571 0.7537,-0.72571"
         style="opacity:1;fill:#1f7a7a;fill-opacity:1;fill-rule:nonzero;stroke:none;stroke-width:1.60000002;stroke-linecap:round;stroke-linejoin:round;stroke-miterlimit:4;stroke-dasharray:none;stroke-dashoffset:0;stroke-opacity:1" />
      <path
         id="path45392-4"
         d="m 1373.1095,295.17233 c 0,0 -2.1588,2.07516 -2.1588,2.07516 0,0 -0.7537,-0.89886 -0.7537,-0.89886 0,0 2.1571,-2.07535 2.1571,-2.07535 0,0 0.7554,0.89905 0.7554,0.89905"
         style="opacity:1;fill:#1f7a7a;fill-opacity:1;fill-rule:nonzero;stroke:none;stroke-width:1.60000002;stroke-linecap:round;stroke-linejoin:round;stroke-miterlimit:4;stroke-dasharray:none;stroke-dashoffset:0;stroke-opacity:1" />
      <path
         id="path45394-7"
         d="m 1369.6883,288.18686 c 0,0 0,4.22893 0,4.22893 0,0 3.9317,0.44533 3.9317,0.44533 0,0 0,-4.23745 0,-4.23745 0,0 -3.9317,-0.43681 -3.9317,-0.43681 0,0 0,0 0,0 m 0.3779,0.44924 c 0,0 3.1745,0.35335 3.1745,0.35335 0,0 0,3.42029 0,3.42029 0,0 -3.1745,-0.35891 -3.1745,-0.35891 0,0 0,-3.41473 0,-3.41473 0,0 0,0 0,0"
         style="opacity:1;fill:#666666;fill-opacity:1;fill-rule:nonzero;stroke:none;stroke-width:1.60000002;stroke-linecap:round;stroke-linejoin:round;stroke-miterlimit:4;stroke-dasharray:none;stroke-dashoffset:0;stroke-opacity:1" />
      <path
         id="path45396-8"
         d="m 1370.9507,288.87581 c 0,0 2.1588,2.5653 2.1588,2.5653 0,0 -0.7554,0.72755 -0.7554,0.72755 0,0 -2.1571,-2.56512 -2.1571,-2.56512 0,0 0.7537,-0.72773 0.7537,-0.72773"
         style="opacity:1;fill:#1f7a7a;fill-opacity:1;fill-rule:nonzero;stroke:none;stroke-width:1.60000002;stroke-linecap:round;stroke-linejoin:round;stroke-miterlimit:4;stroke-dasharray:none;stroke-dashoffset:0;stroke-opacity:1" />
      <path
         id="path45398-7"
         d="m 1373.1095,289.92915 c 0,0 -2.1588,2.08095 -2.1588,2.08095 0,0 -0.7537,-0.89684 -0.7537,-0.89684 0,0 2.1571,-2.08113 2.1571,-2.08113 0,0 0.7554,0.89702 0.7554,0.89702"
         style="opacity:1;fill:#1f7a7a;fill-opacity:1;fill-rule:nonzero;stroke:none;stroke-width:1.60000002;stroke-linecap:round;stroke-linejoin:round;stroke-miterlimit:4;stroke-dasharray:none;stroke-dashoffset:0;stroke-opacity:1" />
      <path
         id="path45400-6"
         d="m 1388.9094,285.92044 c 0,0 11.7776,1.28216 11.7776,1.28216 0,0 0,2.51826 0,2.51826 0,0 -11.7776,-1.29712 -11.7776,-1.29712 0,0 0,-2.5033 0,-2.5033"
         style="opacity:1;fill:#cccccc;fill-opacity:1;fill-rule:nonzero;stroke:none;stroke-width:3;stroke-linecap:round;stroke-linejoin:round;stroke-miterlimit:4;stroke-dasharray:none;stroke-dashoffset:0;stroke-opacity:1" />
      <path
         style="fill:#1f7a7a;fill-opacity:1;stroke:none"
         id="path45402-8"
         d="m 1387.5451,274.72085 c -0.5707,-0.0195 -1.0493,0.0673 -1.5099,0.27167 -0.5106,0.22775 -0.9148,0.54877 -1.2587,1.00125 -0.4608,0.60716 -0.7475,1.37184 -0.8523,2.2771 -0.025,0.21094 -0.034,0.85424 -0.017,1.09344 0.049,0.66256 0.1896,1.25139 0.4361,1.82296 0.1964,0.45654 0.3995,0.79097 0.6975,1.15116 0.5964,0.7195 1.373,1.2128 2.2556,1.43102 0.4119,0.10181 0.8934,0.15016 1.3179,0.13013 0.7824,-0.0352 1.5902,-0.33238 2.3896,-0.87973 0.455,-0.31046 0.7,-0.51781 1.522,-1.28901 0,0 0.3938,-0.37032 0.3938,-0.37032 0,0 0.1283,0.16227 0.1283,0.16227 0.3468,0.43367 0.8986,1.05371 1.2479,1.40286 0.7644,0.76211 1.3816,1.22686 2.1154,1.59276 0.6089,0.3034 1.3189,0.46768 2.0146,0.46463 0.6476,-0.002 1.2049,-0.15264 1.7466,-0.47318 0.9301,-0.54746 1.5271,-1.50068 1.7304,-2.7612 0.2181,-1.35194 -0.027,-2.72857 -0.6823,-3.82378 -0.2519,-0.42216 -0.5956,-0.82726 -0.9687,-1.14385 -0.5622,-0.47677 -1.1932,-0.78367 -1.9256,-0.93744 -0.1776,-0.0375 -0.664,-0.0878 -0.837,-0.0864 -0.2747,0.002 -0.5776,0.0352 -0.8216,0.0917 -0.2745,0.0629 -0.769,0.24942 -1.0817,0.40907 -0.4163,0.21244 -0.9079,0.5489 -1.3397,0.92019 -0.1769,0.15186 -0.7131,0.67262 -0.999,0.97118 -0.1171,0.12319 -0.2398,0.24936 -0.2702,0.28095 0,0 -0.056,0.0576 -0.056,0.0576 0,0 -0.1576,-0.18788 -0.1576,-0.18788 -0.378,-0.45419 -1.0493,-1.22987 -1.2033,-1.39204 -0.9727,-1.02306 -2.0107,-1.73368 -2.9367,-2.00999 -0.3148,-0.0947 -0.7538,-0.16632 -1.0785,-0.17711 0,0 -10e-5,4e-5 -10e-5,4e-5 m 0.5654,2.22236 c 0.3226,0.0755 0.6184,0.21164 1.0085,0.4641 0.5046,0.32435 1.0117,0.74365 1.4641,1.21005 0.085,0.088 0.7626,0.82978 0.9761,1.06909 0,0 0.067,0.0754 0.067,0.0754 0,0 -0.1124,0.11508 -0.1124,0.11508 -0.2651,0.27495 -0.7706,0.70392 -1.1557,0.98147 -0.3995,0.28665 -0.6957,0.46214 -1.0322,0.60816 -0.6423,0.27716 -1.1363,0.33442 -1.7421,0.20038 -0.6881,-0.15233 -1.2472,-0.62768 -1.5523,-1.31706 -0.2068,-0.4662 -0.2884,-1.04564 -0.2247,-1.58822 0.067,-0.57334 0.3353,-1.12681 0.7165,-1.47869 0.2773,-0.25654 0.6196,-0.38808 1.0438,-0.40118 0.076,-0.003 0.4545,0.0402 0.543,0.0615 0,0 0,-4e-5 0,-4e-5 m 10.1561,1.06574 c 0.4437,0.10639 0.8015,0.31564 1.088,0.63417 0.2798,0.31307 0.5008,0.74876 0.6085,1.20147 0.062,0.26516 0.083,0.45616 0.084,0.78465 0,0.17921 0,0.33631 -0.014,0.40147 -0.071,0.52768 -0.2357,0.91916 -0.5281,1.25728 -0.2277,0.26552 -0.5425,0.43752 -0.9048,0.49742 -0.4062,0.0672 -0.8983,0.007 -1.3517,-0.16348 -0.6057,-0.22675 -1.3611,-0.76103 -2.0348,-1.43508 -0.1838,-0.18387 -1.0395,-1.10689 -1.0462,-1.12919 0,-0.0111 0.7913,-0.75623 0.9729,-0.91112 0.5619,-0.47983 1.1173,-0.82859 1.6403,-1.02966 0.2859,-0.10944 0.5413,-0.16805 0.7912,-0.18041 0.1549,-0.008 0.5202,0.0302 0.6945,0.0725 0,0 2e-4,1e-5 2e-4,1e-5" />
      <path
         style="opacity:1;fill:#666666;fill-opacity:1;fill-rule:nonzero;stroke:none;stroke-width:1.60000002;stroke-linecap:round;stroke-linejoin:round;stroke-miterlimit:4;stroke-dasharray:none;stroke-dashoffset:0;stroke-opacity:1"
         d="m 1284.6397,310.93943 c 0,0 0,5.20162 0,5.20162 0,0 4.836,0.53478 4.836,0.53478 0,0 0,-5.2121 0,-5.2121 0,0 -4.836,-0.5243 -4.836,-0.5243 0,0 0,0 0,0 m 0.4649,0.55133 c 0,0 3.9046,0.42414 3.9046,0.42414 0,0 0,4.20698 0,4.20698 0,0 -3.9046,-0.43098 -3.9046,-0.43098 0,0 0,-4.20014 0,-4.20014 0,0 0,0 0,0"
         id="path45406-0" />
      <path
         style="opacity:1;fill:#cccccc;fill-opacity:1;fill-rule:nonzero;stroke:none;stroke-width:3;stroke-linecap:round;stroke-linejoin:round;stroke-miterlimit:4;stroke-dasharray:none;stroke-dashoffset:0;stroke-opacity:1"
         d="m 1292.7203,312.89539 c 0,0 14.3005,1.5568 14.3005,1.5568 0,0 0,3.07747 0,3.07747 0,0 -14.3005,-1.57498 -14.3005,-1.57498 0,0 0,-3.05929 0,-3.05929"
         id="path45414-8" />
      <path
         style="opacity:1;fill:#cccccc;fill-opacity:1;fill-rule:nonzero;stroke:none;stroke-width:3;stroke-linecap:round;stroke-linejoin:round;stroke-miterlimit:4;stroke-dasharray:none;stroke-dashoffset:0;stroke-opacity:1"
         d="m 1292.7203,319.35484 c 0,0 22.1436,2.47006 22.1436,2.47006 0,0 0,3.08743 0,3.08743 0,0 -22.1436,-2.4982 -22.1436,-2.4982 0,0 0,-3.05929 0,-3.05929"
         id="path45416-6" />
      <path
         style="opacity:1;fill:#cccccc;fill-opacity:1;fill-rule:nonzero;stroke:none;stroke-width:3;stroke-linecap:round;stroke-linejoin:round;stroke-miterlimit:4;stroke-dasharray:none;stroke-dashoffset:0;stroke-opacity:1"
         d="m 1292.7203,325.81426 c 0,0 10.3199,1.17884 10.3199,1.17884 0,0 0,3.07241 0,3.07241 0,0 -10.3199,-1.19196 -10.3199,-1.19196 0,0 0,-3.05929 0,-3.05929"
         id="path45418-1" />
      <path
         style="opacity:1;fill:#cccccc;fill-opacity:1;fill-rule:nonzero;stroke:none;stroke-width:3;stroke-linecap:round;stroke-linejoin:round;stroke-miterlimit:4;stroke-dasharray:none;stroke-dashoffset:0;stroke-opacity:1"
         d="m 1304.5395,327.16437 c 0,0 11.1878,1.27798 11.1878,1.27798 0,0 0,3.08853 0,3.08853 0,0 -11.1878,-1.2922 -11.1878,-1.2922 0,0 0,-3.07431 0,-3.07431"
         id="path45420-4" />
      <path
         style="opacity:1;fill:#666666;fill-opacity:1;fill-rule:nonzero;stroke:none;stroke-width:1.60000002;stroke-linecap:round;stroke-linejoin:round;stroke-miterlimit:4;stroke-dasharray:none;stroke-dashoffset:0;stroke-opacity:1"
         d="m 1284.6397,323.81505 c 0,0 0,5.20161 0,5.20161 0,0 4.836,0.56074 4.836,0.56074 0,0 0,-5.2121 0,-5.2121 0,0 -4.836,-0.55025 -4.836,-0.55025 0,0 0,0 0,0 m 0.4649,0.55382 c 0,0 3.9046,0.4451 3.9046,0.4451 0,0 0,4.20698 0,4.20698 0,0 -3.9046,-0.45193 -3.9046,-0.45193 0,0 0,-4.20015 0,-4.20015 0,0 0,0 0,0"
         id="path45422-5" />
      <path
         style="opacity:1;fill:#1f7a7a;fill-opacity:1;fill-rule:nonzero;stroke:none;stroke-width:1.60000002;stroke-linecap:round;stroke-linejoin:round;stroke-miterlimit:4;stroke-dasharray:none;stroke-dashoffset:0;stroke-opacity:1"
         d="m 1286.1925,324.66663 c 0,0 2.6553,3.16247 2.6553,3.16247 0,0 -0.9291,0.89239 -0.9291,0.89239 0,0 -2.6533,-3.16224 -2.6533,-3.16224 0,0 0.9271,-0.89262 0.9271,-0.89262"
         id="path45424-2" />
      <path
         style="opacity:1;fill:#1f7a7a;fill-opacity:1;fill-rule:nonzero;stroke:none;stroke-width:1.60000002;stroke-linecap:round;stroke-linejoin:round;stroke-miterlimit:4;stroke-dasharray:none;stroke-dashoffset:0;stroke-opacity:1"
         d="m 1288.8478,325.96934 c 0,0 -2.6553,2.55246 -2.6553,2.55246 0,0 -0.9271,-1.10559 -0.9271,-1.10559 0,0 2.6533,-2.55269 2.6533,-2.55269 0,0 0.9291,1.10582 0.9291,1.10582"
         id="path45426-5" />
      <path
         style="opacity:1;fill:#666666;fill-opacity:1;fill-rule:nonzero;stroke:none;stroke-width:1.60000002;stroke-linecap:round;stroke-linejoin:round;stroke-miterlimit:4;stroke-dasharray:none;stroke-dashoffset:0;stroke-opacity:1"
         d="m 1284.6397,317.37717 c 0,0 0,5.20161 0,5.20161 0,0 4.836,0.54776 4.836,0.54776 0,0 0,-5.21209 0,-5.21209 0,0 -4.836,-0.53728 -4.836,-0.53728 0,0 0,0 0,0 m 0.4649,0.55258 c 0,0 3.9046,0.43462 3.9046,0.43462 0,0 0,4.20697 0,4.20697 0,0 -3.9046,-0.44145 -3.9046,-0.44145 0,0 0,-4.20014 0,-4.20014 0,0 0,0 0,0"
         id="path45428-9" />
      <path
         style="opacity:1;fill:#cccccc;fill-opacity:1;fill-rule:nonzero;stroke:none;stroke-width:3;stroke-linecap:round;stroke-linejoin:round;stroke-miterlimit:4;stroke-dasharray:none;stroke-dashoffset:0;stroke-opacity:1"
         d="m 1308.2818,314.58947 c 0,0 14.4865,1.57706 14.4865,1.57706 0,0 0,3.09747 0,3.09747 0,0 -14.4865,-1.59547 -14.4865,-1.59547 0,0 0,-3.07906 0,-3.07906"
         id="path45434-3" />
      <path
         d="m 1306.6037,300.8139 c -0.7019,-0.024 -1.2907,0.0827 -1.8571,0.33415 -0.6281,0.28014 -1.1253,0.67499 -1.5482,1.23155 -0.5669,0.7468 -0.9195,1.68737 -1.0484,2.80084 -0.03,0.25946 -0.041,1.05073 -0.02,1.34494 0.06,0.81496 0.2331,1.53921 0.5364,2.24225 0.2415,0.56155 0.4913,0.9729 0.8579,1.41593 0.7335,0.885 1.6888,1.49176 2.7744,1.76018 0.5066,0.12521 1.0989,0.18469 1.621,0.16005 0.9624,-0.0433 1.9559,-0.40882 2.9393,-1.08207 0.5596,-0.38187 0.861,-0.63691 1.872,-1.58549 0,0 0.4845,-0.4555 0.4845,-0.4555 0,0 0.1578,0.19959 0.1578,0.19959 0.4264,0.53342 1.1052,1.29607 1.5349,1.72553 0.9402,0.9374 1.6993,1.50904 2.6019,1.95911 0.749,0.37319 1.6222,0.57525 2.478,0.5715 0.7965,-0.003 1.482,-0.18776 2.1483,-0.58202 1.144,-0.67338 1.8784,-1.84585 2.1284,-3.39629 0.2683,-1.6629 -0.033,-3.35617 -0.8392,-4.70328 -0.3099,-0.51925 -0.7326,-1.01753 -1.1915,-1.40693 -0.6915,-0.58644 -1.4676,-0.96392 -2.3685,-1.15307 -0.2185,-0.0462 -0.8168,-0.10794 -1.0295,-0.10629 -0.3379,0.002 -0.7105,0.0433 -1.0106,0.11275 -0.3377,0.0774 -0.9459,0.30679 -1.3305,0.50316 -0.512,0.2613 -1.1168,0.67515 -1.6478,1.13184 -0.2176,0.18679 -0.8771,0.82732 -1.2289,1.19455 -0.144,0.15153 -0.2949,0.30672 -0.3323,0.34557 0,0 -0.069,0.0709 -0.069,0.0709 0,0 -0.1938,-0.23109 -0.1938,-0.23109 -0.4649,-0.55865 -1.2906,-1.51275 -1.48,-1.71221 -1.1965,-1.25838 -2.4732,-2.13245 -3.6122,-2.4723 -0.3872,-0.11648 -0.9272,-0.20458 -1.3265,-0.21786 0,0 -2e-4,6e-5 -2e-4,6e-5 m 0.6955,2.73351 c 0.3968,0.0929 0.7606,0.26032 1.2404,0.57084 0.6207,0.39896 1.2444,0.9147 1.8009,1.48838 0.1049,0.1082 0.938,1.02063 1.2006,1.31498 0,0 0.083,0.0927 0.083,0.0927 0,0 -0.1383,0.14155 -0.1383,0.14155 -0.3261,0.3382 -0.9478,0.86583 -1.4214,1.20721 -0.4915,0.35258 -0.8558,0.56845 -1.2696,0.74804 -0.7901,0.34092 -1.3978,0.41134 -2.1428,0.24648 -0.8464,-0.18737 -1.5341,-0.77205 -1.9095,-1.62 -0.2542,-0.57342 -0.3546,-1.28615 -0.2763,-1.95352 0.082,-0.70521 0.4124,-1.38598 0.8813,-1.81879 0.3411,-0.31556 0.7621,-0.47735 1.2838,-0.49347 0.094,-0.003 0.5592,0.0494 0.6679,0.0756 0,0 10e-5,-5e-5 10e-5,-5e-5 m 12.4921,1.31087 c 0.5457,0.13086 0.9857,0.38824 1.3382,0.78003 0.3442,0.38508 0.616,0.92098 0.7484,1.47782 0.077,0.32615 0.1018,0.56108 0.1032,0.96512 0,0.22044 -0.01,0.41367 -0.017,0.49382 -0.088,0.64904 -0.2899,1.13056 -0.6495,1.54645 -0.2801,0.3266 -0.6673,0.53816 -1.1129,0.61184 -0.4997,0.0827 -1.105,0.009 -1.6626,-0.20109 -0.745,-0.2789 -1.6742,-0.93606 -2.5029,-1.76516 -0.2261,-0.22616 -1.2785,-1.36147 -1.2868,-1.3889 0,-0.0137 0.9734,-0.93018 1.1967,-1.12069 0.6911,-0.59019 1.3743,-1.01917 2.0175,-1.26648 0.3517,-0.13461 0.6659,-0.2067 0.9732,-0.22191 0.1905,-0.01 0.6399,0.0372 0.8542,0.0891 0,0 4e-4,1e-5 4e-4,1e-5"
         id="path45436-8"
         style="fill:#1f7a7a;fill-opacity:1;stroke:none" />
      <path
         style="fill:#000000;fill-opacity:1;fill-rule:evenodd;stroke:none;stroke-width:0.80514383px;stroke-linecap:butt;stroke-linejoin:miter;stroke-opacity:1"
         d="m 1391.7832,306.00781 c -0.6209,-0.0625 -1.1244,0.43122 -1.125,1.10352 l 0,9.24805 a 18.658499,18.814795 0 0 0 -11.0234,-3.66016 18.658499,18.814795 0 0 0 -18.6582,18.81445 18.658499,18.814795 0 0 0 18.6582,18.81445 18.658499,18.814795 0 0 0 11.2031,-3.79101 c 0.1971,0.37491 0.5376,0.66244 0.9453,0.71094 l 22.7949,2.68945 0,3.86328 -14.5234,-1.73437 0,2.86523 32.1387,3.87695 0.9531,0.11524 1.6074,0.19336 0,-2.9043 -9.3906,-1.12305 0,-3.88086 9.3906,1.10743 0,-2.48047 -41.8437,-4.89649 0,-0.22656 a 18.658499,18.814795 0 0 0 5.3828,-13.19922 18.658499,18.814795 0 0 0 -5.3828,-13.21289 l 0,-9.74023 41.8437,4.29297 0,-2.48047 -42.9707,-4.36524 z m -33.2773,44.21289 c -2.2991,0.0477 -4.2464,1.70809 -4.6582,3.97071 -1.553,7.8873 -2.4723,12.73109 -2.8555,15.99609 -0.1916,1.6325 -0.3343,2.79428 -0.057,4.39648 0.1389,0.801 0.3876,1.85361 1.3536,2.97461 0.9502,1.1028 2.6936,1.81134 3.914,1.86524 1.3059,0.057 1.7292,-0.16325 2.2051,-0.31055 0.2905,-0.091 0.5517,-0.19818 0.8184,-0.30078 l 0,13.33203 40.8144,0 0,-15.42383 c 1.0234,2.5459 2.0669,5.13591 2.9004,7.16211 0.502,1.2202 0.9414,2.27264 1.291,3.08594 0.3498,0.8133 0.2106,0.82213 0.9981,2.08203 0.8894,1.4231 2.0407,1.89364 2.7246,2.11914 0.6839,0.2255 1.1211,0.258 1.4902,0.2793 0.7383,0.042 1.217,-0.0161 1.7285,-0.0801 1.0231,-0.13 2.0721,-0.35402 3.2832,-0.64062 2.4222,-0.5729 5.3932,-1.41201 8.3399,-2.28711 5.8934,-1.75 11.6484,-3.64258 11.6484,-3.64258 0.1078,-0.0334 0.2064,-0.0736 0.3086,-0.11133 l 0,-9.11719 c -0.9488,-0.35448 -2.074,-0.39746 -3.3301,0.0391 0,0 -5.6647,1.85924 -11.3808,3.55664 -2.8176,0.8366 -5.6356,1.62448 -7.7032,2.11718 -0.1603,-0.3854 -0.2709,-0.64197 -0.4511,-1.08008 -0.9829,-2.3888 -2.2327,-5.48737 -3.459,-8.54687 -2.4524,-6.1192 -4.8125,-12.0918 -4.8125,-12.0918 -1.2164,-1.8709 -2.73,-2.80949 -4.543,-3.12109 -13.4801,-1.65372 -27.2151,-4.74673 -40.5664,-6.22266 l 0,0 z"
         transform="translate(-1.2207031e-4,0)"
         id="path28336-8" />
      <rect
         y="235.14301"
         x="1227.7227"
         height="157.00214"
         width="207.03087"
         id="rect476959"
         style="opacity:1;fill:none;fill-opacity:1;fill-rule:nonzero;stroke:#666666;stroke-width:0.29785961;stroke-linecap:round;stroke-linejoin:round;stroke-miterlimit:4;stroke-dasharray:none;stroke-dashoffset:0;stroke-opacity:1" />
    </g>
  </g>
</svg>
