<?xml version="1.0" encoding="UTF-8" standalone="no"?>
<svg
   xmlns:dc="http://purl.org/dc/elements/1.1/"
   xmlns:cc="http://creativecommons.org/ns#"
   xmlns:rdf="http://www.w3.org/1999/02/22-rdf-syntax-ns#"
   xmlns:svg="http://www.w3.org/2000/svg"
   xmlns="http://www.w3.org/2000/svg"
   version="1.1"
   id="svg5156"
   viewBox="0 0 210 160"
   height="160"
   width="210">
  <defs
     id="defs5158">
    <linearGradient
       spreadMethod="pad"
       gradientUnits="userSpaceOnUse"
       y2="593.78698"
       y1="3.6658269"
       x2="590.86259"
       x1="0.74144253"
       id="gradientFill"
       gradientTransform="matrix(1.2219423,0,0,0.81836924,-767.16729,-40.990215)">
      <stop
         id="stop6361"
         stop-opacity="1"
         stop-color="rgb(203,206,208)"
         offset="0" />
      <stop
         id="stop6363"
         stop-opacity="1"
         stop-color="rgb(132,131,139)"
         offset="1" />
    </linearGradient>
    <linearGradient
       spreadMethod="pad"
       gradientUnits="userSpaceOnUse"
       y2="593.78699"
       y1="3.6658268"
       x2="590.86261"
       x1="0.7414425"
       id="gradientFill-0"
       gradientTransform="matrix(1.2219423,0,0,0.81836924,-767.16729,-40.990215)">
      <stop
         id="stop6361-6"
         stop-opacity="1"
         stop-color="rgb(203,206,208)"
         offset="0" />
      <stop
         id="stop6363-2"
         stop-opacity="1"
         stop-color="rgb(132,131,139)"
         offset="1" />
    </linearGradient>
  </defs>
  <metadata
     id="metadata5161">
    <rdf:RDF>
      <cc:Work
         rdf:about="">
        <dc:format>image/svg+xml</dc:format>
        <dc:type
           rdf:resource="http://purl.org/dc/dcmitype/StillImage" />
        <dc:title></dc:title>
      </cc:Work>
    </rdf:RDF>
  </metadata>
  <g
     transform="translate(0,-892.36221)"
     id="layer1">
    <g
       id="g484107"
       transform="translate(-1981.9523,20.496579)">
      <path
         style="opacity:1;fill:#cccccc;fill-opacity:1;fill-rule:nonzero;stroke:none;stroke-width:2;stroke-linecap:round;stroke-linejoin:round;stroke-miterlimit:4;stroke-dasharray:none;stroke-dashoffset:0;stroke-opacity:1"
         d="m 2188.0566,889.21875 c -0.3606,-0.0363 -0.6539,0.25018 -0.6543,0.64063 l 0,5.37109 a 10.835845,10.926612 0 0 0 -6.4023,-2.12695 10.835845,10.926612 0 0 0 -10.8359,10.92773 10.835845,10.926612 0 0 0 10.8359,10.92578 10.835845,10.926612 0 0 0 6.5059,-2.20117 c 0.1149,0.21735 0.3139,0.38393 0.5507,0.41211 l 2.4122,0.28515 0,-1.41992 -1.7598,-0.20508 0,-0.13085 a 10.835845,10.926612 0 0 0 1.7598,-2.39063 l 0,-10.57422 a 10.835845,10.926612 0 0 0 -1.7598,-2.375 l 0,-5.65625 1.7598,0.17969 0,-1.41797 -2.4122,-0.24414 z"
         transform="translate(-1.2207031e-4,0)"
         id="ellipse14478-4-1" />
      <path
         id="path14424-9-0"
         d="m 1996.6182,973.48781 c -2.1819,0.0444 -4.0305,1.61985 -4.4213,3.76695 -1.4733,7.4826 -2.3457,12.07806 -2.7093,15.17552 -0.1817,1.5487 -0.3151,2.6504 -0.052,4.1704 0.1319,0.7599 0.3677,1.76 1.284,2.8235 0.9015,1.04622 2.5554,1.71692 3.7132,1.76812 1.2389,0.054 1.6416,-0.1538 2.0931,-0.2935 0.2756,-0.086 0.5223,-0.1896 0.7753,-0.2869 l 0,16.1122 38.7208,0 0,-18.09542 c 0.9708,2.41522 1.961,4.87222 2.7518,6.79442 0.4762,1.1576 0.8918,2.155 1.2235,2.9267 0.3318,0.7715 0.2009,0.7812 0.9479,1.9764 0.8438,1.3501 1.935,1.7962 2.5838,2.0101 0.6489,0.2139 1.0639,0.2442 1.414,0.2644 0.7004,0.04 1.1551,-0.015 1.6404,-0.076 0.9705,-0.1234 1.9659,-0.3355 3.1148,-0.6074 2.2979,-0.5434 5.1172,-1.339 7.9127,-2.1691 5.591,-1.6602 11.05,-3.4554 11.05,-3.4554 5.9446,-1.8437 3.0128,-10.76262 -2.8662,-8.71942 0,0 -5.3738,1.7644 -10.7966,3.37472 -2.673,0.7937 -5.3462,1.5406 -7.3077,2.0079 -0.1521,-0.3656 -0.257,-0.6085 -0.428,-1.0241 -0.9325,-2.26622 -2.1196,-5.20512 -3.283,-8.10762 -2.3266,-5.80523 -4.5647,-11.47125 -4.5647,-11.47125 -1.154,-1.77485 -2.5893,-2.66699 -4.3092,-2.96257 -12.7892,-1.56897 -25.821,-4.50243 -38.4878,-5.90254 z"
         style="opacity:1;fill:#000000;fill-opacity:1;fill-rule:nonzero;stroke:none;stroke-width:1.60000002;stroke-linecap:round;stroke-linejoin:round;stroke-miterlimit:4;stroke-dasharray:none;stroke-dashoffset:0;stroke-opacity:1" />
      <path
         style="opacity:1;fill:#000000;fill-opacity:1;fill-rule:nonzero;stroke:none;stroke-width:1.60000002;stroke-linecap:round;stroke-linejoin:round;stroke-miterlimit:4;stroke-dasharray:none;stroke-dashoffset:0;stroke-opacity:1"
         d="m 2114.2207,988.44141 c -2.3,0.0468 -4.2482,1.70744 -4.6602,3.9707 -1.553,7.88729 -2.4722,12.73109 -2.8554,15.99609 -0.1916,1.6325 -0.333,2.7943 -0.055,4.3965 0.139,0.801 0.3876,1.8556 1.3535,2.9765 0.9503,1.1029 2.6937,1.8094 3.9141,1.8633 1.3059,0.057 1.7311,-0.1632 2.207,-0.3105 0.2905,-0.091 0.5497,-0.1982 0.8164,-0.3008 l 0,13.334 40.8164,0 0,-15.4258 c 1.0233,2.5459 2.0669,5.1359 2.9004,7.1621 0.502,1.2202 0.9395,2.2727 1.2891,3.086 0.3498,0.8133 0.2126,0.8221 1,2.082 0.8894,1.4231 2.0386,1.8936 2.7226,2.1191 0.6839,0.2255 1.1212,0.258 1.4903,0.2793 0.7383,0.042 1.217,-0.016 1.7285,-0.08 1.0231,-0.13 2.074,-0.354 3.2851,-0.6406 2.4222,-0.5729 5.3931,-1.412 8.3399,-2.2871 5.8934,-1.75 11.6484,-3.6406 11.6484,-3.6406 0.1072,-0.033 0.2049,-0.074 0.3067,-0.1113 l 0,-9.1172 c -0.9485,-0.3542 -2.0727,-0.3992 -3.3282,0.037 0,0 -5.6647,1.8592 -11.3808,3.5566 -2.8176,0.8366 -5.6356,1.6245 -7.7032,2.1172 -0.1603,-0.3854 -0.2709,-0.642 -0.4511,-1.0801 -0.9829,-2.3888 -2.2347,-5.4873 -3.461,-8.5468 -2.4525,-6.1192 -4.8105,-12.08989 -4.8105,-12.08989 -1.2164,-1.8709 -2.73,-2.81145 -4.543,-3.12305 -13.4809,-1.6538 -27.2184,-4.74681 -40.5703,-6.22265 z"
         transform="translate(-1.2207031e-4,0)"
         id="path14438-2-9" />
      <path
         id="ellipse14450-2-4"
         d="m 2115.5107,906.85156 c -0.4788,-0.0482 -0.8668,0.33304 -0.8672,0.85156 l 0,7.13282 a 14.391075,14.511623 0 0 0 -8.5039,-2.82422 14.391075,14.511623 0 0 0 -14.3906,14.51172 14.391075,14.511623 0 0 0 14.3906,14.51172 14.391075,14.511623 0 0 0 8.6426,-2.92383 c 0.1521,0.28893 0.4143,0.51144 0.7285,0.54883 l 17.5801,2.07422 0,2.98046 -11.2012,-1.33984 0,2.21094 24.7891,2.99023 0.7343,0.0879 0.8106,0.0977 0,-2.24024 -6.8145,-0.81445 0,-2.99219 18.0567,2.13086 c 0.5016,0.0591 0.9082,-0.32408 0.9082,-0.85547 l 0,-30.61914 c -4e-4,-0.53115 -0.4068,-1.00367 -0.9082,-1.05468 l -43.9551,-4.46485 z m 0.8691,1.96875 42.1778,4.32617 0,28.66797 -42.1778,-4.93554 0,-0.17579 a 14.391075,14.511623 0 0 0 4.1524,-10.17968 14.391075,14.511623 0 0 0 -4.1524,-10.1875 l 0,-7.51563 z m -26.5351,32.13281 c -1.7739,0.0361 -3.2761,1.31692 -3.5938,3.0625 -1.1978,6.0834 -1.9075,9.81965 -2.2031,12.3379 -0.1478,1.25913 -0.2554,2.15483 -0.041,3.39062 0.1072,0.61779 0.2979,1.43029 1.043,2.29492 0.7329,0.85054 2.0782,1.39591 3.0195,1.4375 1.0072,0.044 1.3341,-0.12466 1.7012,-0.23828 0.224,-0.0699 0.4251,-0.15525 0.6308,-0.23437 l 0,13.09961 27.4082,0 a 18.658499,18.814795 0 0 1 -1.1191,-6.36914 18.658499,18.814795 0 0 1 9.9238,-16.61133 c -0.7672,-1.93179 -1.9746,-4.96289 -1.9746,-4.96289 -0.9382,-1.44296 -2.1055,-2.1679 -3.5039,-2.40821 -10.3976,-1.27558 -20.9928,-3.66052 -31.291,-4.79883 z"
         style="opacity:1;fill:#666666;fill-opacity:1;fill-rule:nonzero;stroke:none;stroke-width:2;stroke-linecap:round;stroke-linejoin:round;stroke-miterlimit:4;stroke-dasharray:none;stroke-dashoffset:0;stroke-opacity:1" />
      <path
         style="opacity:1;fill:#666666;fill-opacity:1;fill-rule:nonzero;stroke:none;stroke-width:2;stroke-linecap:round;stroke-linejoin:round;stroke-miterlimit:4;stroke-dasharray:none;stroke-dashoffset:0;stroke-opacity:1"
         d="m 2190.4688,928.78906 c -1.8793,2.54695 -3.004,5.69277 -3.004,9.11133 0,3.29943 1.0763,6.47685 3.004,9.09375 l 0,-18.20508 z"
         transform="translate(-1.2207031e-4,0)"
         id="ellipse14464-4-9" />
      <path
         style="opacity:1;fill:#cccccc;fill-opacity:1;fill-rule:nonzero;stroke:none;stroke-width:1.60000002;stroke-linecap:round;stroke-linejoin:round;stroke-miterlimit:4;stroke-dasharray:none;stroke-dashoffset:0;stroke-opacity:1"
         d="m 2168.7305,914.89453 c -1.3356,0.0272 -2.4659,0.99228 -2.7051,2.30664 -0.9019,4.58052 -1.4376,7.39489 -1.6602,9.29102 -0.1113,0.94806 -0.1928,1.62223 -0.031,2.55273 0.081,0.46516 0.2261,1.07749 0.7871,1.72852 0.5518,0.64041 1.5627,1.05072 2.2715,1.08203 0.7584,0.0331 1.0049,-0.0941 1.2812,-0.17969 0.1688,-0.0526 0.3197,-0.11621 0.4746,-0.17578 l 0,9.86328 18.7286,0 a 15.16943,15.296498 0 0 1 -0.4122,-3.46289 15.16943,15.296498 0 0 1 3.004,-9.09375 l 0,-10.54492 c -7.2422,-0.99561 -14.5843,-2.57643 -21.7383,-3.36719 z"
         transform="translate(-1.2207031e-4,0)"
         id="path14480-6-8" />
      <path
         style="opacity:1;fill:#cccccc;fill-opacity:1;fill-rule:nonzero;stroke:none;stroke-width:3;stroke-linecap:round;stroke-linejoin:round;stroke-miterlimit:4;stroke-dasharray:none;stroke-dashoffset:0;stroke-opacity:1"
         d="m 2041.9387,950.51089 c 0,0 12.1219,1.32015 12.1219,1.32015 0,0 0,3.61869 0,3.61869 0,0 -12.1219,-1.33833 -12.1219,-1.33833 0,0 0,-3.60051 0,-3.60051"
         id="path30691-4" />
      <path
         style="opacity:1;fill:#cccccc;fill-opacity:1;fill-rule:nonzero;stroke:none;stroke-width:3;stroke-linecap:round;stroke-linejoin:round;stroke-miterlimit:4;stroke-dasharray:none;stroke-dashoffset:0;stroke-opacity:1"
         d="m 2055.0735,951.94135 c 0,0 13.1569,1.43286 13.1569,1.43286 0,0 0,3.63994 0,3.63994 0,0 -13.1569,-1.45259 -13.1569,-1.45259 0,0 0,-3.62021 0,-3.62021"
         id="path30693-6" />
      <path
         style="opacity:1;fill:#cccccc;fill-opacity:1;fill-rule:nonzero;stroke:none;stroke-width:1.60000002;stroke-linecap:round;stroke-linejoin:round;stroke-miterlimit:4;stroke-dasharray:none;stroke-dashoffset:0;stroke-opacity:1"
         d="m 2041.9185,956.61038 c 0,0 0,10.45435 0,10.45435 0,0 37.3816,4.32887 37.3816,4.32887 0,0 0,-10.61713 0,-10.61713 0,0 -37.3816,-4.16609 -37.3816,-4.16609 0,0 0,0 0,0 m 0.4909,0.8016 c 0,0 36.3846,4.06629 36.3846,4.06629 0,0 0,9.09851 0,9.09851 0,0 -36.3846,-4.2021 -36.3846,-4.2021 0,0 0,-8.9627 0,-8.9627 0,0 0,0 0,0"
         id="path30695-5" />
      <path
         id="path414962-3"
         style="font-style:normal;font-variant:normal;font-weight:normal;font-stretch:normal;font-size:medium;line-height:136.00000143%;font-family:Lato;-inkscape-font-specification:Lato;letter-spacing:0.77406031px;word-spacing:-0.51087981px;fill:#1f7a7a;fill-opacity:1;stroke:none;stroke-width:1px;stroke-linecap:butt;stroke-linejoin:miter;stroke-opacity:1"
         d="m 2045.0619,964.8962 c 0,0 1.2835,0.14728 1.2835,0.14728 0,0 0,-4.39302 0,-4.39302 0,-0.1259 0,-0.25882 0.013,-0.39876 0,0 -1.0662,0.86407 -1.0662,0.86407 -0.036,0.0289 -0.072,0.0457 -0.1087,0.0506 -0.036,0.002 -0.07,-0.002 -0.1002,-0.0113 -0.031,-0.009 -0.06,-0.0248 -0.088,-0.0459 -0.025,-0.0208 -0.045,-0.0425 -0.058,-0.065 0,0 -0.234,-0.37247 -0.234,-0.37247 0,0 1.7851,-1.45756 1.7851,-1.45756 0,0 0.6067,0.0682 0.6067,0.0682 0,0 0,5.8472 0,5.8472 0,0 1.1809,0.1355 1.1809,0.1355 0,0 0,0.61201 0,0.61201 0,0 -3.2134,-0.36955 -3.2134,-0.36955 0,0 0,-0.61119 0,-0.61119 0,0 0,-10e-6 0,-10e-6" />
      <path
         id="path414964-4"
         style="font-style:normal;font-variant:normal;font-weight:normal;font-stretch:normal;font-size:medium;line-height:136.00000143%;font-family:Lato;-inkscape-font-specification:Lato;letter-spacing:0.77406031px;word-spacing:-0.51087981px;fill:#1f7a7a;fill-opacity:1;stroke:none;stroke-width:1px;stroke-linecap:butt;stroke-linejoin:miter;stroke-opacity:1"
         d="m 2051.7004,959.74099 c 0.2549,0.0286 0.4931,0.0959 0.7145,0.20194 0.2214,0.10603 0.4134,0.24633 0.576,0.42092 0.1627,0.17161 0.2903,0.37387 0.3829,0.60677 0.093,0.23291 0.1388,0.49068 0.1388,0.7733 0,0.24052 -0.034,0.4607 -0.101,0.66052 -0.067,0.19681 -0.1584,0.38188 -0.2734,0.5552 -0.115,0.17332 -0.2482,0.34003 -0.3996,0.50015 -0.1485,0.16041 -0.3069,0.32119 -0.4751,0.48233 0,0 -1.5879,1.55771 -1.5879,1.55771 0.112,-0.0202 0.2253,-0.0327 0.3401,-0.0376 0.1148,-0.008 0.2254,-0.006 0.3318,0.007 0,0 2.0179,0.23142 2.0179,0.23142 0.081,0.009 0.1458,0.0423 0.1935,0.0989 0.048,0.0566 0.072,0.12547 0.072,0.20665 0,0 0,0.48709 0,0.48709 0,0 -4.0165,-0.46191 -4.0165,-0.46191 0,0 0,-0.27466 0,-0.27466 0,-0.057 0.011,-0.11429 0.033,-0.17177 0.022,-0.0575 0.057,-0.109 0.1049,-0.15456 0,0 1.927,-1.85634 1.927,-1.85634 0.1596,-0.15608 0.3053,-0.30626 0.437,-0.45053 0.1317,-0.1473 0.2438,-0.29684 0.3363,-0.44863 0.092,-0.15179 0.164,-0.30748 0.2144,-0.46706 0.051,-0.1626 0.076,-0.33857 0.076,-0.52793 0,-0.18935 -0.028,-0.35782 -0.084,-0.50541 -0.056,-0.15059 -0.1331,-0.27799 -0.2313,-0.38222 -0.095,-0.10389 -0.2088,-0.18579 -0.3404,-0.2457 -0.1317,-0.0629 -0.2732,-0.10286 -0.4245,-0.1199 -0.154,-0.0173 -0.2954,-0.009 -0.4242,0.0243 -0.1288,0.0336 -0.2436,0.0882 -0.3444,0.16395 -0.098,0.073 -0.1805,0.16434 -0.2477,0.27388 -0.067,0.10954 -0.1147,0.23329 -0.1427,0.37126 -0.034,0.10131 -0.08,0.16665 -0.1385,0.19604 -0.056,0.0267 -0.1357,0.0267 -0.2392,-2e-5 0,0 -0.3902,-0.11617 -0.3902,-0.11617 0.039,-0.28976 0.1146,-0.54091 0.2265,-0.75344 0.1147,-0.21525 0.2574,-0.38984 0.4281,-0.52376 0.1735,-0.13363 0.3708,-0.22707 0.5919,-0.28031 0.2212,-0.0563 0.4606,-0.0699 0.7183,-0.041 0,0 2e-4,2e-5 2e-4,2e-5" />
      <path
         id="path414966-7"
         style="font-style:normal;font-variant:normal;font-weight:normal;font-stretch:normal;font-size:medium;line-height:136.00000143%;font-family:Lato;-inkscape-font-specification:Lato;letter-spacing:0.77406031px;word-spacing:-0.51087981px;fill:#1f7a7a;fill-opacity:1;stroke:none;stroke-width:1px;stroke-linecap:butt;stroke-linejoin:miter;stroke-opacity:1"
         d="m 2056.9653,960.33221 c 0.2561,0.0288 0.4925,0.0944 0.7092,0.19709 0.2168,0.10267 0.4026,0.23501 0.5575,0.39702 0.1577,0.16234 0.2802,0.35087 0.3676,0.56559 0.087,0.21472 0.131,0.44713 0.131,0.69722 0,0.20489 -0.025,0.38581 -0.076,0.54278 -0.048,0.15426 -0.1183,0.28789 -0.2113,0.40087 -0.09,0.11028 -0.2,0.20025 -0.3295,0.26989 -0.1295,0.0696 -0.2745,0.12094 -0.435,0.15392 0.3942,0.15623 0.6899,0.37661 0.887,0.66115 0.2001,0.28491 0.3001,0.62475 0.3001,1.01949 0,0.29831 -0.053,0.56036 -0.1606,0.78613 -0.1042,0.22608 -0.2479,0.41296 -0.431,0.56065 -0.183,0.14466 -0.397,0.24809 -0.6419,0.31029 -0.2421,0.0595 -0.5024,0.0732 -0.7809,0.0412 -0.3207,-0.0369 -0.5948,-0.11056 -0.8225,-0.22103 -0.2277,-0.11345 -0.4203,-0.25444 -0.5776,-0.42297 -0.1573,-0.16851 -0.2866,-0.36085 -0.3877,-0.57702 -0.1011,-0.21917 -0.1868,-0.4531 -0.257,-0.70178 0,0 0.3244,-0.10732 0.3244,-0.10732 0.084,-0.0295 0.1658,-0.0307 0.2445,-0.004 0.081,0.0274 0.1404,0.0837 0.177,0.16917 0.036,0.0884 0.081,0.19438 0.1348,0.31785 0.056,0.1238 0.1321,0.24534 0.2277,0.36464 0.096,0.11929 0.2165,0.22495 0.3627,0.31697 0.149,0.0923 0.3374,0.15159 0.5652,0.17774 0.2111,0.0242 0.3954,0.009 0.5529,-0.045 0.1605,-0.0569 0.2928,-0.13809 0.3969,-0.24362 0.107,-0.10521 0.1873,-0.22704 0.2407,-0.36551 0.053,-0.13846 0.08,-0.27849 0.08,-0.42007 0,-0.17471 -0.021,-0.33677 -0.063,-0.48617 -0.042,-0.14941 -0.1211,-0.28339 -0.2366,-0.40196 -0.1154,-0.11856 -0.2744,-0.21948 -0.477,-0.30277 -0.1999,-0.083 -0.4573,-0.14235 -0.7723,-0.17819 0,0 0,-0.5825 0,-0.5825 0.2587,0.0264 0.4782,0.0212 0.6583,-0.0156 0.1829,-0.0365 0.3306,-0.098 0.4432,-0.18462 0.1154,-0.0863 0.1985,-0.19586 0.2492,-0.32868 0.053,-0.13249 0.08,-0.28309 0.08,-0.45177 0,-0.18675 -0.028,-0.35259 -0.084,-0.4975 -0.054,-0.14458 -0.1281,-0.26745 -0.2238,-0.36859 -0.096,-0.10113 -0.2097,-0.18174 -0.342,-0.2418 -0.1295,-0.0597 -0.2702,-0.0982 -0.4221,-0.11527 -0.1519,-0.0171 -0.2939,-0.009 -0.4261,0.0243 -0.1294,0.0336 -0.2446,0.0883 -0.3459,0.16422 -0.098,0.0732 -0.1813,0.16466 -0.2488,0.27442 -0.067,0.10976 -0.1152,0.23377 -0.1433,0.37204 -0.037,0.10119 -0.083,0.16667 -0.1391,0.19642 -0.053,0.0271 -0.1321,0.0272 -0.236,4e-4 0,0 -0.3919,-0.11652 -0.3919,-0.11652 0.039,-0.29038 0.1152,-0.54205 0.2275,-0.75503 0.1124,-0.216 0.2543,-0.39109 0.4257,-0.52527 0.1742,-0.13388 0.3724,-0.22748 0.5945,-0.28078 0.2249,-0.056 0.4668,-0.0695 0.7256,-0.0404 0,0 0,0 0,0" />
      <path
         id="path414968-4"
         style="font-style:normal;font-variant:normal;font-weight:normal;font-stretch:normal;font-size:medium;line-height:136.00000143%;font-family:Lato;-inkscape-font-specification:Lato;letter-spacing:0.77406031px;word-spacing:-0.51087981px;fill:#1f7a7a;fill-opacity:1;stroke:none;stroke-width:1px;stroke-linecap:butt;stroke-linejoin:miter;stroke-opacity:1"
         d="m 2060.1613,966.74642 c 0,-0.0784 0.013,-0.15079 0.038,-0.21721 0.028,-0.0661 0.065,-0.1222 0.11,-0.16828 0.048,-0.0458 0.1044,-0.08 0.1693,-0.10272 0.065,-0.0227 0.134,-0.0299 0.2074,-0.0215 0.073,0.008 0.1425,0.0314 0.2074,0.069 0.065,0.0376 0.1214,0.0848 0.1694,0.14155 0.048,0.0568 0.086,0.12146 0.1143,0.19407 0.028,0.0726 0.042,0.14812 0.042,0.22654 0,0.0814 -0.014,0.15522 -0.042,0.22135 -0.028,0.0631 -0.066,0.11755 -0.1143,0.1633 -0.048,0.0458 -0.1045,0.0785 -0.1694,0.0982 -0.065,0.0227 -0.134,0.0298 -0.2074,0.0214 -0.073,-0.008 -0.1425,-0.0315 -0.2074,-0.0691 -0.065,-0.0346 -0.1213,-0.0803 -0.1693,-0.13705 -0.045,-0.0565 -0.082,-0.11945 -0.11,-0.18902 -0.025,-0.0723 -0.038,-0.1491 -0.038,-0.2305 0,0 0,0 0,0" />
      <path
         id="path414970-7"
         style="font-style:normal;font-variant:normal;font-weight:normal;font-stretch:normal;font-size:medium;line-height:136.00000143%;font-family:Lato;-inkscape-font-specification:Lato;letter-spacing:0.77406031px;word-spacing:-0.51087981px;fill:#1f7a7a;fill-opacity:1;stroke:none;stroke-width:1px;stroke-linecap:butt;stroke-linejoin:miter;stroke-opacity:1"
         d="m 2065.8055,965.54949 c 0,0 0.9228,0.10524 0.9228,0.10524 0,0 0,0.46252 0,0.46252 0,0.0484 -0.014,0.0876 -0.043,0.11758 -0.026,0.0303 -0.067,0.0422 -0.1234,0.0358 0,0 -0.7569,-0.0865 -0.7569,-0.0865 0,0 0,1.70888 0,1.70888 0,0 -0.6629,-0.0762 -0.6629,-0.0762 0,0 0,-1.70841 0,-1.70841 0,0 -2.6991,-0.3085 -2.6991,-0.3085 -0.057,-0.006 -0.106,-0.0287 -0.1484,-0.0667 -0.04,-0.0407 -0.065,-0.0874 -0.076,-0.13997 0,0 -0.076,-0.42058 -0.076,-0.42058 0,0 2.9575,-3.85432 2.9575,-3.85432 0,0 0.7055,0.0792 0.7055,0.0792 0,0 0,4.15206 0,4.15206 0,0 0,-10e-6 0,-10e-6 m -0.663,-2.75376 c 0,-0.0786 0,-0.16297 0,-0.25325 0.01,-0.093 0.016,-0.18705 0.03,-0.28215 0,0 -2.2158,2.96479 -2.2158,2.96479 0,0 2.1818,0.24881 2.1818,0.24881 0,0 0,-2.67817 0,-2.67817 0,0 -3e-4,-3e-5 -3e-4,-3e-5" />
      <path
         id="path414972-1"
         style="font-style:normal;font-variant:normal;font-weight:normal;font-stretch:normal;font-size:medium;line-height:136.00000143%;font-family:Lato;-inkscape-font-specification:Lato;letter-spacing:0.77406031px;word-spacing:-0.51087981px;fill:#1f7a7a;fill-opacity:1;stroke:none;stroke-width:1px;stroke-linecap:butt;stroke-linejoin:miter;stroke-opacity:1"
         d="m 2071.5123,962.39284 c 0,0.1151 -0.034,0.20667 -0.1025,0.2747 -0.065,0.0653 -0.1793,0.0888 -0.3416,0.0706 0,0 -1.9197,-0.21622 -1.9197,-0.21622 0,0 -0.2813,1.67481 -0.2813,1.67481 0.162,-0.021 0.314,-0.031 0.4561,-0.03 0.145,-0.002 0.2857,0.005 0.4221,0.0206 0.3185,0.0361 0.6001,0.11794 0.8448,0.24558 0.2447,0.12766 0.4482,0.28853 0.6104,0.4826 0.1651,0.19441 0.2889,0.41596 0.3715,0.66465 0.086,0.24902 0.1282,0.5144 0.1282,0.79612 0,0.34533 -0.057,0.65082 -0.1709,0.91647 -0.111,0.26594 -0.2662,0.48743 -0.4654,0.66445 -0.1964,0.17429 -0.4283,0.29905 -0.6958,0.37428 -0.2673,0.0752 -0.5559,0.095 -0.8658,0.0593 -0.1791,-0.0206 -0.351,-0.0601 -0.5158,-0.11835 -0.1648,-0.0553 -0.3197,-0.12298 -0.4645,-0.20316 -0.142,-0.0799 -0.2741,-0.16763 -0.3962,-0.26333 -0.1221,-0.0957 -0.23,-0.19427 -0.3236,-0.29575 0,0 0.2342,-0.31794 0.2342,-0.31794 0.051,-0.0728 0.1178,-0.10446 0.2002,-0.095 0.057,0.007 0.1207,0.038 0.1917,0.0946 0.071,0.0535 0.1576,0.11487 0.2599,0.18408 0.1022,0.0692 0.2215,0.13584 0.3579,0.1999 0.1393,0.0614 0.3041,0.10298 0.4945,0.12483 0.2133,0.0245 0.4052,0.0102 0.5759,-0.0429 0.1706,-0.0531 0.3171,-0.13923 0.4394,-0.25843 0.1224,-0.12224 0.2163,-0.27349 0.2817,-0.45374 0.065,-0.18027 0.098,-0.38699 0.098,-0.62017 0,-0.20289 -0.028,-0.38935 -0.085,-0.55935 -0.054,-0.16968 -0.138,-0.31852 -0.2518,-0.44653 -0.111,-0.12767 -0.2504,-0.23283 -0.4182,-0.31547 -0.1678,-0.0826 -0.364,-0.1367 -0.5886,-0.16221 -0.1535,-0.0174 -0.3141,-0.0221 -0.4818,-0.0139 -0.1647,0.009 -0.3338,0.0332 -0.5071,0.074 0,0 -0.4771,-0.20394 -0.4771,-0.20394 0,0 0.4899,-2.98487 0.4899,-2.98487 0,0 2.8965,0.32535 2.8965,0.32535 0,0 0,0.35439 0,0.35439 0,0 0,0 0,0" />
      <path
         style="overflow:visible;fill:#1f7a7a;fill-opacity:1;stroke-width:2.55838013"
         d="m 2072.81,939.90643 c -4.2209,0.0244 -6.2541,0.25158 -9.8602,2.19336 0.1345,0.0141 0.2513,0.0263 0.3782,0.0395 -0.1016,0.85256 -0.02,2.20361 -0.02,2.20361 0,0 0.014,10e-4 0.014,10e-4 -0.4275,1.22746 0,2.31255 0.3493,3.28941 0,-1.16478 0.055,-2.10023 -0.2591,-3.34381 -0.014,-0.15677 -0.072,-1.35876 0.022,-2.13632 0,0 0,0 0,0 0,0 0,0 0,0 0.9242,0.11152 1.6685,0.22393 2.3076,0.30877 -0.025,0.42197 0.039,0.94329 0.2111,1.57763 -0.03,0.2011 -0.05,0.41226 -0.05,0.64092 0,0 0,5.27019 0,5.27019 0,0 2.3817,0.25626 2.3817,0.25626 0,0 0,-4.99042 0,-4.99042 0,-0.2437 0.022,-0.45541 0.066,-0.63797 0.6164,-0.0607 1.1885,-0.27967 1.6953,-0.64257 0.4319,0.24981 0.6445,0.76033 0.6445,1.53442 0,0 0,4.99537 0,4.99537 0,0 2.4114,0.25947 2.4114,0.25947 0,0 0,-5.00033 0,-5.00033 0,-1.05299 0.4126,-1.53616 1.2177,-1.45171 0.8059,0.0845 1.2193,0.65487 1.2193,1.70891 0,0 0,5.00534 0,5.00534 0,0 0,0.0219 0,0.0219 0,0 2.3796,0.25606 2.3796,0.25606 0,0 0,-5.31814 0,-5.31814 0,-1.09874 -0.3518,-1.94889 -1.0764,-2.59585 -0.6207,-0.56988 -1.4687,-0.89935 -2.5429,-1.01117 -1.1766,-0.12248 -1.9807,0.0787 -2.4136,0.62555 -0.1954,-0.24464 -0.4296,-0.44899 -0.7039,-0.61508 -0.3023,-0.36211 -0.6121,-0.58851 -0.9325,-0.7171 0.7014,-0.40628 1.5205,-0.96001 2.5642,-1.72905 0,0 0,10e-4 0,10e-4"
         id="path30703-4" />
      <path
         style="opacity:1;fill:#cccccc;fill-opacity:1;fill-rule:nonzero;stroke:none;stroke-width:3;stroke-linecap:round;stroke-linejoin:round;stroke-miterlimit:4;stroke-dasharray:none;stroke-dashoffset:0;stroke-opacity:1"
         d="m 2161.9928,964.22172 c 0,0 12.7776,1.39155 12.7776,1.39155 0,0 0,3.81441 0,3.81441 0,0 -12.7776,-1.41072 -12.7776,-1.41072 0,0 0,-3.79524 0,-3.79524"
         id="path138446-3" />
      <path
         style="opacity:1;fill:#cccccc;fill-opacity:1;fill-rule:nonzero;stroke:none;stroke-width:3;stroke-linecap:round;stroke-linejoin:round;stroke-miterlimit:4;stroke-dasharray:none;stroke-dashoffset:0;stroke-opacity:1"
         d="m 2175.8381,965.72954 c 0,0 13.8684,1.51036 13.8684,1.51036 0,0 0,3.83681 0,3.83681 0,0 -13.8684,-1.53116 -13.8684,-1.53116 0,0 0,-3.81601 0,-3.81601"
         id="path138448-4" />
      <path
         style="opacity:1;fill:#cccccc;fill-opacity:1;fill-rule:nonzero;stroke:none;stroke-width:1.60000002;stroke-linecap:round;stroke-linejoin:round;stroke-miterlimit:4;stroke-dasharray:none;stroke-dashoffset:0;stroke-opacity:1"
         d="m 2161.9707,970.65039 0,11.01953 28.4981,3.30078 0,-0.79492 -27.9805,-3.23242 0,-9.44727 27.9805,3.12696 0,-0.79493 -28.4981,-3.17773 z"
         transform="translate(-1.2207031e-4,0)"
         id="path138450-6" />
      <path
         id="path414993-1"
         style="font-style:normal;font-variant:normal;font-weight:normal;font-stretch:normal;font-size:medium;line-height:136.00000143%;font-family:Lato;-inkscape-font-specification:Lato;letter-spacing:0.77406031px;word-spacing:-0.51087981px;fill:#1f7a7a;fill-opacity:1;stroke:none;stroke-width:1px;stroke-linecap:butt;stroke-linejoin:miter;stroke-opacity:1"
         d="m 2168.0893,977.90004 c 0,0 0.9583,0.10927 0.9583,0.10927 0,0 0,0.4839 0,0.4839 0,0.0506 -0.015,0.0916 -0.044,0.12305 -0.027,0.0317 -0.069,0.0443 -0.1282,0.0375 0,0 -0.7859,-0.0898 -0.7859,-0.0898 0,0 0,1.78787 0,1.78787 0,0 -0.6885,-0.0792 -0.6885,-0.0792 0,0 0,-1.78738 0,-1.78738 0,0 -2.8028,-0.32036 -2.8028,-0.32036 -0.059,-0.007 -0.1101,-0.0299 -0.1541,-0.0697 -0.041,-0.0426 -0.067,-0.0914 -0.079,-0.14638 0,0 -0.079,-0.43995 -0.079,-0.43995 0,0 3.0712,-4.03513 3.0712,-4.03513 0,0 0.7326,0.0823 0.7326,0.0823 0,0 0,4.344 0,4.344 0,0 0,0 0,0 m -0.6885,-2.88048 c 0,-0.0822 0,-0.1705 0,-0.26497 0.01,-0.0973 0.016,-0.1957 0.031,-0.29521 0,0 -2.301,3.10381 -2.301,3.10381 0,0 2.2656,0.25836 2.2656,0.25836 0,0 0,-2.80196 0,-2.80196 0,0 -2e-4,-3e-5 -2e-4,-3e-5" />
      <path
         id="path414995-5"
         style="font-style:normal;font-variant:normal;font-weight:normal;font-stretch:normal;font-size:medium;line-height:136.00000143%;font-family:Lato;-inkscape-font-specification:Lato;letter-spacing:0.77406031px;word-spacing:-0.51087981px;fill:#1f7a7a;fill-opacity:1;stroke:none;stroke-width:1px;stroke-linecap:butt;stroke-linejoin:miter;stroke-opacity:1"
         d="m 2172.2825,973.95103 c 0.2687,0.0302 0.5197,0.10113 0.7531,0.21287 0.2334,0.11176 0.4358,0.25965 0.6072,0.44368 0.1715,0.18089 0.306,0.39409 0.4036,0.63959 0.098,0.24551 0.1463,0.51722 0.1463,0.81512 0,0.25354 -0.035,0.48562 -0.1064,0.69625 -0.071,0.20745 -0.1671,0.40253 -0.2883,0.58523 -0.1212,0.18269 -0.2615,0.35842 -0.4211,0.52719 -0.1566,0.16909 -0.3236,0.33856 -0.5008,0.50842 0,0 -1.6738,1.64196 -1.6738,1.64196 0.118,-0.0213 0.2375,-0.0345 0.3585,-0.0396 0.121,-0.008 0.2375,-0.006 0.3497,0.007 0,0 2.127,0.24394 2.127,0.24394 0.086,0.01 0.1538,0.0446 0.204,0.10421 0.05,0.0596 0.075,0.13226 0.075,0.21783 0,0 0,0.51343 0,0.51343 0,0 -4.2337,-0.48689 -4.2337,-0.48689 0,0 0,-0.28951 0,-0.28951 0,-0.0601 0.012,-0.12047 0.035,-0.18106 0.023,-0.0606 0.06,-0.1149 0.1105,-0.16293 0,0 2.0312,-1.95674 2.0312,-1.95674 0.1683,-0.16452 0.3219,-0.32282 0.4607,-0.4749 0.1388,-0.15526 0.257,-0.3129 0.3544,-0.47289 0.097,-0.16 0.1729,-0.32411 0.2261,-0.49232 0.053,-0.17139 0.08,-0.35689 0.08,-0.55648 0,-0.1996 -0.03,-0.37718 -0.089,-0.53275 -0.059,-0.15873 -0.1404,-0.29303 -0.2438,-0.40289 -0.1004,-0.10952 -0.2201,-0.19585 -0.3589,-0.25899 -0.1388,-0.0663 -0.2879,-0.10843 -0.4474,-0.12638 -0.1623,-0.0183 -0.3114,-0.01 -0.4472,0.0256 -0.1357,0.0354 -0.2567,0.093 -0.3629,0.17281 -0.1033,0.077 -0.1903,0.17323 -0.2611,0.2887 -0.071,0.11546 -0.121,0.2459 -0.1505,0.39133 -0.035,0.10679 -0.084,0.17567 -0.146,0.20665 -0.059,0.0281 -0.143,0.0281 -0.2521,-3e-5 0,0 -0.4113,-0.12245 -0.4113,-0.12245 0.041,-0.30543 0.1208,-0.57016 0.2388,-0.79419 0.1209,-0.22689 0.2713,-0.41092 0.4512,-0.55209 0.1828,-0.14086 0.3908,-0.23935 0.6239,-0.29547 0.2332,-0.0593 0.4855,-0.0737 0.7571,-0.0432 0,0 3e-4,3e-5 3e-4,3e-5" />
      <path
         style="overflow:visible;fill:#1f7a7a;fill-opacity:1;stroke-width:2.55838013"
         d="m 2190.4688,953.23047 c -2.1236,0.24575 -3.887,0.8105 -6.3282,2.125 0.1418,0.0148 0.2647,0.027 0.3985,0.041 -0.1071,0.89867 -0.021,2.32422 -0.021,2.32422 l 0.016,0.002 c -0.4506,1.29385 -10e-4,2.43709 0.3672,3.46679 0,-1.22778 0.06,-2.21456 -0.2715,-3.52539 -0.015,-0.16525 -0.077,-1.43234 0.023,-2.25195 0.9741,0.11755 1.758,0.23674 2.4317,0.32617 -0.026,0.4448 0.041,0.99542 0.2226,1.66406 -0.031,0.21198 -0.051,0.4328 -0.051,0.67383 l 0,5.55664 2.5097,0.26953 0,-5.25976 c 0,-0.25688 0.023,-0.48138 0.068,-0.67383 0.2179,-0.0214 0.4282,-0.0686 0.6348,-0.12695 l 0,-4.61133 z"
         transform="translate(-1.2207031e-4,0)"
         id="path138458-5" />
      <path
         id="path138494-3"
         d="m 2126.6909,922.27203 c 0,0 9.8552,1.07328 9.8552,1.07328 0,0 0,2.94201 0,2.94201 0,0 -9.8552,-1.08807 -9.8552,-1.08807 0,0 0,-2.92722 0,-2.92722"
         style="opacity:1;fill:#cccccc;fill-opacity:1;fill-rule:nonzero;stroke:none;stroke-width:3;stroke-linecap:round;stroke-linejoin:round;stroke-miterlimit:4;stroke-dasharray:none;stroke-dashoffset:0;stroke-opacity:1" />
      <path
         id="path138496-8"
         d="m 2137.3696,923.43499 c 0,0 10.6965,1.16492 10.6965,1.16492 0,0 0,2.95929 0,2.95929 0,0 -10.6965,-1.18096 -10.6965,-1.18096 0,0 0,-2.94325 0,-2.94325"
         style="opacity:1;fill:#cccccc;fill-opacity:1;fill-rule:nonzero;stroke:none;stroke-width:3;stroke-linecap:round;stroke-linejoin:round;stroke-miterlimit:4;stroke-dasharray:none;stroke-dashoffset:0;stroke-opacity:1" />
      <path
         id="path138498-5"
         d="m 2126.6745,927.23093 c 0,0 0,8.49943 0,8.49943 0,0 30.3914,3.51939 30.3914,3.51939 0,0 0,-8.63177 0,-8.63177 0,0 -30.3914,-3.38705 -30.3914,-3.38705 0,0 0,0 0,0 m 0.3991,0.6517 c 0,0 29.5808,3.30592 29.5808,3.30592 0,0 0,7.39712 0,7.39712 0,0 -29.5808,-3.41632 -29.5808,-3.41632 0,0 0,-7.28672 0,-7.28672 0,0 0,0 0,0"
         style="opacity:1;fill:#cccccc;fill-opacity:1;fill-rule:nonzero;stroke:none;stroke-width:1.60000002;stroke-linecap:round;stroke-linejoin:round;stroke-miterlimit:4;stroke-dasharray:none;stroke-dashoffset:0;stroke-opacity:1" />
      <path
         id="path414975-0"
         style="font-style:normal;font-variant:normal;font-weight:normal;font-stretch:normal;font-size:medium;line-height:136.00000143%;font-family:Lato;-inkscape-font-specification:Lato;letter-spacing:0.77406031px;word-spacing:-0.51087981px;fill:#1f7a7a;fill-opacity:1;stroke:none;stroke-width:1px;stroke-linecap:butt;stroke-linejoin:miter;stroke-opacity:1"
         d="m 2131.3931,932.82195 c 0,0 0.739,0.0843 0.739,0.0843 0,0 0,0.37323 0,0.37323 0,0.039 -0.011,0.0707 -0.034,0.0949 -0.02,0.0245 -0.053,0.0341 -0.099,0.029 0,0 -0.6062,-0.0693 -0.6062,-0.0693 0,0 0,1.37896 0,1.37896 0,0 -0.531,-0.0611 -0.531,-0.0611 0,0 0,-1.37858 0,-1.37858 0,0 -2.1618,-0.24709 -2.1618,-0.24709 -0.045,-0.005 -0.085,-0.0231 -0.1189,-0.0538 -0.032,-0.0328 -0.052,-0.0705 -0.061,-0.1129 0,0 -0.061,-0.33933 -0.061,-0.33933 0,0 2.3688,-3.11224 2.3688,-3.11224 0,0 0.565,0.0635 0.565,0.0635 0,0 0,3.35047 0,3.35047 0,0 0,0 0,0 m -0.531,-2.22168 c 0,-0.0634 0,-0.1315 0,-0.20436 0,-0.0751 0.013,-0.15095 0.024,-0.2277 0,0 -1.7747,2.39393 -1.7747,2.39393 0,0 1.7474,0.19928 1.7474,0.19928 0,0 0,-2.16113 0,-2.16113 0,0 -1e-4,-2e-5 -1e-4,-2e-5" />
      <path
         id="path414977-5"
         style="font-style:normal;font-variant:normal;font-weight:normal;font-stretch:normal;font-size:medium;line-height:136.00000143%;font-family:Lato;-inkscape-font-specification:Lato;letter-spacing:0.77406031px;word-spacing:-0.51087981px;fill:#1f7a7a;fill-opacity:1;stroke:none;stroke-width:1px;stroke-linecap:butt;stroke-linejoin:miter;stroke-opacity:1"
         d="m 2134.6272,929.77613 c 0.2072,0.0233 0.4009,0.078 0.5809,0.16418 0.18,0.0862 0.3361,0.20027 0.4683,0.34221 0.1323,0.13952 0.236,0.30395 0.3113,0.4933 0.075,0.18936 0.1128,0.39893 0.1128,0.6287 0,0.19555 -0.027,0.37455 -0.082,0.53701 -0.055,0.16 -0.1288,0.31046 -0.2223,0.45138 -0.093,0.1409 -0.2017,0.27644 -0.3248,0.40662 -0.1208,0.13041 -0.2496,0.26112 -0.3863,0.39213 0,0 -1.291,1.26643 -1.291,1.26643 0.091,-0.0164 0.1832,-0.0266 0.2765,-0.0305 0.093,-0.006 0.1833,-0.005 0.2698,0.005 0,0 1.6405,0.18814 1.6405,0.18814 0.066,0.008 0.1186,0.0344 0.1574,0.0804 0.039,0.046 0.058,0.10201 0.058,0.16801 0,0 0,0.396 0,0.396 0,0 -3.2655,-0.37553 -3.2655,-0.37553 0,0 0,-0.2233 0,-0.2233 0,-0.0464 0.01,-0.0929 0.027,-0.13965 0.018,-0.0467 0.046,-0.0886 0.085,-0.12566 0,0 1.5666,-1.50921 1.5666,-1.50921 0.1298,-0.12689 0.2483,-0.24899 0.3554,-0.36628 0.107,-0.11976 0.1982,-0.24134 0.2733,-0.36474 0.075,-0.1234 0.1334,-0.24998 0.1744,-0.37972 0.041,-0.13219 0.062,-0.27526 0.062,-0.42921 0,-0.15394 -0.023,-0.29091 -0.068,-0.4109 -0.046,-0.12243 -0.1083,-0.22601 -0.1881,-0.31074 -0.077,-0.0845 -0.1697,-0.15106 -0.2768,-0.19976 -0.107,-0.0511 -0.2221,-0.0836 -0.3451,-0.0975 -0.1252,-0.0141 -0.2401,-0.008 -0.3449,0.0198 -0.1047,0.0273 -0.198,0.0717 -0.2799,0.13329 -0.08,0.0594 -0.1468,0.13361 -0.2014,0.22267 -0.055,0.0891 -0.093,0.18966 -0.1161,0.30183 -0.027,0.0824 -0.065,0.13549 -0.1125,0.15939 -0.046,0.0217 -0.1104,0.0217 -0.1945,-2e-5 0,0 -0.3172,-0.0945 -0.3172,-0.0945 0.032,-0.23557 0.093,-0.43976 0.1841,-0.61255 0.093,-0.175 0.2093,-0.31694 0.348,-0.42582 0.1411,-0.10864 0.3015,-0.18461 0.4813,-0.22789 0.1798,-0.0457 0.3744,-0.0568 0.5839,-0.0333 0,0 2e-4,2e-5 2e-4,2e-5" />
      <path
         id="path138506-6"
         d="m 2151.7894,913.65056 c -3.4316,0.0198 -5.0846,0.20453 -8.0164,1.78321 0.1093,0.0114 0.2043,0.0213 0.3075,0.0321 -0.083,0.69313 -0.016,1.79154 -0.016,1.79154 0,0 0.012,10e-4 0.012,10e-4 -0.3475,0.99793 0,1.88011 0.2839,2.67431 0,-0.94697 0.045,-1.7075 -0.2106,-2.71853 -0.011,-0.12746 -0.058,-1.10468 0.018,-1.73684 0,0 0,0 0,0 0,0 0,0 0,0 0.7513,0.0907 1.3565,0.18205 1.8761,0.25103 -0.021,0.34306 0.032,0.7669 0.1715,1.28261 -0.024,0.1635 -0.04,0.33518 -0.04,0.52108 0,0 0,4.28468 0,4.28468 0,0 1.9364,0.20835 1.9364,0.20835 0,0 0,-4.05724 0,-4.05724 0,-0.19812 0.018,-0.37024 0.053,-0.51867 0.5012,-0.0493 0.9662,-0.22737 1.3783,-0.52241 0.3511,0.20309 0.5239,0.61815 0.5239,1.24749 0,0 0,4.06126 0,4.06126 0,0 1.9605,0.21094 1.9605,0.21094 0,0 0,-4.06529 0,-4.06529 0,-0.85608 0.3355,-1.2489 0.99,-1.18024 0.6552,0.0687 0.9913,0.53241 0.9913,1.38935 0,0 0,4.06936 0,4.06936 0,0 0,0.0178 0,0.0178 0,0 1.9346,0.20818 1.9346,0.20818 0,0 0,-4.32367 0,-4.32367 0,-0.89328 -0.286,-1.58445 -0.8751,-2.11043 -0.5046,-0.46332 -1.194,-0.73118 -2.0674,-0.82209 -0.9565,-0.0996 -1.6102,0.064 -1.9622,0.50858 -0.1589,-0.1989 -0.3493,-0.36504 -0.5723,-0.50007 -0.2457,-0.29439 -0.4977,-0.47846 -0.7582,-0.58301 0.5703,-0.3303 1.2363,-0.78049 2.0847,-1.40572 0,0 0,10e-4 0,10e-4"
         style="overflow:visible;fill:#1f7a7a;fill-opacity:1;stroke-width:2.55838013" />
      <path
         style="fill:#000000;fill-opacity:1;fill-rule:evenodd;stroke:none;stroke-width:0.80514383px;stroke-linecap:butt;stroke-linejoin:miter;stroke-opacity:1"
         d="m 2028.1865,931.54297 c -0.589,-0.0592 -1.0659,0.40907 -1.0664,1.04687 l 0,8.77344 a 17.701117,17.849392 0 0 0 -10.459,-3.47266 17.701117,17.849392 0 0 0 -17.7012,17.84961 17.701117,17.849392 0 0 0 17.7012,17.84961 17.701117,17.849392 0 0 0 10.6289,-3.5957 c 0.1871,0.35547 0.5098,0.62783 0.8965,0.67383 l 21.625,2.55078 0,3.66602 -13.7774,-1.64649 0,2.71875 30.4903,3.67774 0.9023,0.10937 6.6738,0.80469 0,-0.72656 c 1.3967,-0.0565 3.1796,-0.10531 5.4453,-0.041 1.9795,0.0555 3.9703,0.20603 5.4434,0.51367 0.7366,0.15375 1.3428,0.35149 1.7305,0.5625 0.3877,0.21101 0.5026,0.3893 0.5195,0.51172 0.028,0.20117 -0.021,0.3512 -0.1836,0.56055 -0.1613,0.20934 -0.4407,0.44009 -0.7637,0.65429 -0.3231,0.2142 -0.6849,0.41432 -1.0175,0.61133 -0.3327,0.19686 -0.6343,0.36499 -0.8809,0.65821 -0.1234,0.14654 -0.2501,0.36319 -0.2402,0.63867 0.011,0.27561 0.173,0.51124 0.3437,0.6582 0.3416,0.29419 0.7792,0.44217 1.4863,0.63086 1.4144,0.3771 3.89,0.78631 8.0997,1.32422 0.8756,0.1123 1.5332,0.25121 1.9667,0.39844 0.4091,0.13905 0.5497,0.28494 0.5645,0.29687 -0.011,0.0208 -0.011,0.0361 -0.061,0.0957 -0.1409,0.16942 -0.482,0.44058 -0.9805,0.73047 -1.6368,0.95189 -4.9977,2.19526 -9.3242,3.59766 -0.9118,-0.75 -2.2539,-1.22127 -3.9785,-1.16797 -3.8099,0.1178 -6.1754,2.81634 -8.334,5.21484 0,0 -0.06,0.35894 -0.1797,0.89844 -0.1199,0.5398 2.0996,2.69716 3.2988,3.47656 1.1994,0.7795 3.8777,0.1411 7.3145,-1.4981 3.1473,-1.50116 3.8532,-4.12346 2.707,-5.97846 4.1129,-1.338 7.3076,-2.52611 9.0762,-3.55469 0.5588,-0.32483 0.9829,-0.62752 1.2813,-0.98632 0.1491,-0.17939 0.2707,-0.38043 0.3242,-0.62305 0.054,-0.24262 0.012,-0.52287 -0.1114,-0.74414 -0.2463,-0.44226 -0.6764,-0.65548 -1.2304,-0.84375 -0.5541,-0.18841 -1.2708,-0.33556 -2.1914,-0.45313 -4.1929,-0.5357 -6.6619,-0.94761 -7.9493,-1.29101 -0.4514,-0.12062 -0.5692,-0.19985 -0.7265,-0.27735 0.1044,-0.0749 0.145,-0.11653 0.3066,-0.21289 0.3102,-0.18369 0.6909,-0.39539 1.0664,-0.64453 0.3756,-0.24899 0.7484,-0.5336 1.0372,-0.9082 0.2889,-0.3746 0.4907,-0.87645 0.416,-1.41797 -0.086,-0.62041 -0.5562,-1.0602 -1.1094,-1.36133 -0.5533,-0.30112 -1.2472,-0.51081 -2.0469,-0.67773 -1.5988,-0.33398 -3.6267,-0.48208 -5.6406,-0.53906 -1.3295,-0.0374 -2.5364,-0.037 -3.5938,-0.0195 -0.7359,0.0123 -1.2992,0.0376 -1.8847,0.0606 l 0,-0.88867 -14.0567,-1.67969 0,-3.68164 22.209,2.6211 c 0.617,0.0727 1.1172,-0.39912 1.1172,-1.05274 l 0,-37.66211 c -5e-4,-0.65331 -0.5006,-1.23413 -1.1172,-1.29687 l -54.0664,-5.49219 z m 1.0683,2.42383 51.8809,5.32031 0,35.26172 -51.8809,-6.07031 0,-0.2168 a 17.701117,17.849392 0 0 0 5.1075,-12.52149 17.701117,17.849392 0 0 0 -5.1075,-12.53515 l 0,-9.23828 z"
         id="path14420-5-6" />
      <path
         style="fill:#000000;fill-opacity:1;fill-rule:evenodd;stroke:none;stroke-width:0.80514383px;stroke-linecap:butt;stroke-linejoin:miter;stroke-opacity:1"
         d="m 2147.498,944.22852 c -0.6209,-0.0624 -1.1244,0.43121 -1.125,1.10351 l 0,9.24805 a 18.658499,18.814795 0 0 0 -11.0234,-3.66016 18.658499,18.814795 0 0 0 -18.6582,18.81446 18.658499,18.814795 0 0 0 18.6582,18.81445 18.658499,18.814795 0 0 0 11.2031,-3.79102 c 0.1972,0.37464 0.5378,0.66246 0.9453,0.71094 l 22.793,2.68945 0,3.86328 -14.5215,-1.73437 0,2.86523 32.1387,3.87696 0.9531,0.11523 1.6075,0.19336 0,-2.9043 -9.3907,-1.12304 0,-3.88086 9.3907,1.10937 0,-2.48242 -41.8458,-4.89648 0,-0.22461 a 18.658499,18.814795 0 0 0 5.3848,-13.20117 18.658499,18.814795 0 0 0 -5.3848,-13.2129 l 0,-9.74023 41.8458,4.29297 0,-2.48047 -42.9708,-4.36523 z"
         transform="translate(-1.2207031e-4,0)"
         id="path14434-8-7" />
      <rect
         y="873.36456"
         x="1983.4369"
         height="157.00214"
         width="207.03087"
         id="rect476791"
         style="opacity:1;fill:none;fill-opacity:1;fill-rule:nonzero;stroke:#666666;stroke-width:0.29785961;stroke-linecap:round;stroke-linejoin:round;stroke-miterlimit:4;stroke-dasharray:none;stroke-dashoffset:0;stroke-opacity:1" />
    </g>
  </g>
</svg>
