<?xml version="1.0" encoding="UTF-8" standalone="no"?>
<svg
   xmlns:dc="http://purl.org/dc/elements/1.1/"
   xmlns:cc="http://creativecommons.org/ns#"
   xmlns:rdf="http://www.w3.org/1999/02/22-rdf-syntax-ns#"
   xmlns:svg="http://www.w3.org/2000/svg"
   xmlns="http://www.w3.org/2000/svg"
   version="1.1"
   id="svg5156"
   viewBox="0 0 210 160"
   height="160"
   width="210">
  <defs
     id="defs5158">
    <linearGradient
       spreadMethod="pad"
       gradientUnits="userSpaceOnUse"
       y2="593.78698"
       y1="3.6658269"
       x2="590.86259"
       x1="0.74144253"
       id="gradientFill"
       gradientTransform="matrix(1.2219423,0,0,0.81836924,-767.16729,-40.990215)">
      <stop
         id="stop6361"
         stop-opacity="1"
         stop-color="rgb(203,206,208)"
         offset="0" />
      <stop
         id="stop6363"
         stop-opacity="1"
         stop-color="rgb(132,131,139)"
         offset="1" />
    </linearGradient>
    <linearGradient
       spreadMethod="pad"
       gradientUnits="userSpaceOnUse"
       y2="593.78699"
       y1="3.6658268"
       x2="590.86261"
       x1="0.7414425"
       id="gradientFill-0"
       gradientTransform="matrix(1.2219423,0,0,0.81836924,-767.16729,-40.990215)">
      <stop
         id="stop6361-6"
         stop-opacity="1"
         stop-color="rgb(203,206,208)"
         offset="0" />
      <stop
         id="stop6363-2"
         stop-opacity="1"
         stop-color="rgb(132,131,139)"
         offset="1" />
    </linearGradient>
  </defs>
  <metadata
     id="metadata5161">
    <rdf:RDF>
      <cc:Work
         rdf:about="">
        <dc:format>image/svg+xml</dc:format>
        <dc:type
           rdf:resource="http://purl.org/dc/dcmitype/StillImage" />
        <dc:title></dc:title>
      </cc:Work>
    </rdf:RDF>
  </metadata>
  <g
     transform="translate(0,-892.36221)"
     id="layer1">
    <g
       id="g484669"
       transform="translate(-1604.0953,445.9776)">
      <path
         style="opacity:1;fill:#cccccc;fill-opacity:1;fill-rule:nonzero;stroke:none;stroke-width:2;stroke-linecap:round;stroke-linejoin:round;stroke-miterlimit:4;stroke-dasharray:none;stroke-dashoffset:0;stroke-opacity:1"
         d="m 1810.1992,463.73828 c -0.3606,-0.0363 -0.6539,0.25021 -0.6543,0.64063 l 0,5.36914 a 10.835845,10.926612 0 0 0 -6.4023,-2.125 10.835845,10.926612 0 0 0 -10.834,10.92773 10.835845,10.926612 0 0 0 10.834,10.92578 10.835845,10.926612 0 0 0 6.5058,-2.20117 c 0.1144,0.21812 0.3138,0.3839 0.5508,0.41211 l 2.4121,0.28516 0,-1.41993 -1.7578,-0.20507 0,-0.13282 a 10.835845,10.926612 0 0 0 1.7578,-2.38867 l 0,-10.57422 a 10.835845,10.926612 0 0 0 -1.7578,-2.37304 l 0,-5.65821 1.7578,0.17969 0,-1.41797 -2.4121,-0.24414 z"
         transform="translate(-1.2207031e-4,0)"
         id="path28288-5-9" />
      <path
         style="opacity:1;fill:#000000;fill-opacity:1;fill-rule:nonzero;stroke:none;stroke-width:1.60000002;stroke-linecap:round;stroke-linejoin:round;stroke-miterlimit:4;stroke-dasharray:none;stroke-dashoffset:0;stroke-opacity:1"
         d="m 1618.7611,548.00663 c -2.182,0.0444 -4.0306,1.61985 -4.4213,3.76695 -1.4734,7.4826 -2.3457,12.07806 -2.7093,15.17552 -0.1817,1.5487 -0.3152,2.6504 -0.052,4.1704 0.1319,0.7599 0.3676,1.76 1.284,2.8235 0.9015,1.0462 2.5554,1.7169 3.7132,1.7681 1.2389,0.054 1.6416,-0.1538 2.0931,-0.2935 0.2756,-0.086 0.5223,-0.1896 0.7752,-0.2869 l 0,16.1122 38.7208,0 0,-18.0954 c 0.9709,2.4152 1.9611,4.8722 2.7518,6.7944 0.4763,1.1576 0.8919,2.155 1.2236,2.9267 0.3318,0.7715 0.2009,0.7812 0.9479,1.9764 0.8438,1.3501 1.935,1.7962 2.5838,2.0101 0.6489,0.2139 1.0639,0.2442 1.414,0.2644 0.7004,0.04 1.1551,-0.015 1.6404,-0.076 0.9705,-0.1234 1.9658,-0.3355 3.1148,-0.6074 2.2979,-0.5434 5.1172,-1.339 7.9127,-2.1691 5.591,-1.6602 11.05,-3.4554 11.05,-3.4554 5.9446,-1.8437 3.0128,-10.7626 -2.8662,-8.7194 0,0 -5.3739,1.7644 -10.7967,3.3747 -2.6729,0.7937 -5.3462,1.5406 -7.3077,2.0079 -0.152,-0.3656 -0.257,-0.6085 -0.4279,-1.0241 -0.9325,-2.2662 -2.1196,-5.2051 -3.283,-8.1076 -2.3266,-5.80523 -4.5648,-11.47125 -4.5648,-11.47125 -1.154,-1.77485 -2.5892,-2.66699 -4.3092,-2.96257 -12.7891,-1.56897 -25.8209,-4.50243 -38.4877,-5.90254 z"
         id="path28258-8-8" />
      <path
         style="opacity:1;fill:#000000;fill-opacity:1;fill-rule:nonzero;stroke:none;stroke-width:1.60000002;stroke-linecap:round;stroke-linejoin:round;stroke-miterlimit:4;stroke-dasharray:none;stroke-dashoffset:0;stroke-opacity:1"
         d="m 1736.3633,562.96094 c -2.2999,0.0468 -4.2483,1.70744 -4.6602,3.9707 -1.553,7.8873 -2.4722,12.73109 -2.8554,15.99609 -0.1916,1.6325 -0.333,2.79234 -0.055,4.39454 0.1389,0.801 0.3876,1.85556 1.3535,2.97656 0.9502,1.1028 2.6936,1.80938 3.914,1.86328 1.3059,0.057 1.7312,-0.16129 2.2071,-0.30859 0.2905,-0.091 0.5497,-0.20014 0.8164,-0.30274 l 0,13.33399 40.8164,0 0,-15.42383 c 1.0234,2.5459 2.0668,5.13591 2.9004,7.16211 0.502,1.2202 0.9393,2.27068 1.289,3.08398 0.3497,0.8133 0.2125,0.82409 1,2.08399 0.8894,1.4231 2.0387,1.89364 2.7227,2.11914 0.6839,0.2255 1.1211,0.25799 1.4902,0.27929 0.7383,0.042 1.2189,-0.0161 1.7305,-0.0801 1.0231,-0.13 2.0721,-0.35403 3.2832,-0.64063 2.4222,-0.5729 5.3931,-1.41201 8.3398,-2.28711 5.8936,-1.75 11.6485,-3.64258 11.6485,-3.64258 0.1071,-0.0332 0.2049,-0.0738 0.3066,-0.11133 l 0,-9.11914 c -0.9483,-0.3539 -2.073,-0.39713 -3.3281,0.0391 0,0 -5.6648,1.86119 -11.3809,3.55859 -2.8176,0.8366 -5.6356,1.62253 -7.7031,2.11523 -0.1603,-0.3854 -0.271,-0.64002 -0.4512,-1.07812 -0.9828,-2.3888 -2.2346,-5.48738 -3.4609,-8.54688 -2.4525,-6.1192 -4.8105,-12.09179 -4.8105,-12.09179 -1.2164,-1.8709 -2.73,-2.81145 -4.543,-3.12305 -13.4809,-1.6538 -27.2165,-4.74486 -40.5684,-6.2207 l 0,0 z"
         transform="translate(-1.2207031e-4,0)"
         id="path28268-8-5" />
      <path
         style="opacity:1;fill:#666666;fill-opacity:1;fill-rule:nonzero;stroke:none;stroke-width:2;stroke-linecap:round;stroke-linejoin:round;stroke-miterlimit:4;stroke-dasharray:none;stroke-dashoffset:0;stroke-opacity:1"
         d="m 1737.6533,481.37054 c -0.4789,-0.0481 -0.8668,0.33304 -0.8672,0.85156 l 0,7.13281 a 14.391075,14.511623 0 0 0 -8.502,-2.82421 14.391075,14.511623 0 0 0 -14.3926,14.51171 14.391075,14.511623 0 0 0 14.3926,14.51172 14.391075,14.511623 0 0 0 8.6406,-2.92382 c 0.1522,0.28909 0.4143,0.51142 0.7286,0.54882 l 17.58,2.07422 0,2.97852 -11.2011,-1.33789 0,2.21093 24.789,2.99024 0.7344,0.0879 0.2402,0.0293 0,-2.24024 -6.2441,-0.74609 0,-2.99219 18.0566,2.13086 c 0.5016,0.0591 0.9082,-0.32408 0.9082,-0.85547 l 0,-30.61914 c -4e-4,-0.53115 -0.4069,-1.00368 -0.9082,-1.05469 l -43.955,-4.46484 z m 0.8691,1.96875 42.1777,4.32617 0,28.66797 -42.1777,-4.93555 0,-0.17578 a 14.391075,14.511623 0 0 0 4.1524,-10.17969 14.391075,14.511623 0 0 0 -4.1524,-10.1875 l 0,-7.51562 z"
         id="ellipse28274-0-9" />
      <path
         style="opacity:1;fill:#666666;fill-opacity:1;fill-rule:nonzero;stroke:none;stroke-width:1.60000002;stroke-linecap:round;stroke-linejoin:round;stroke-miterlimit:4;stroke-dasharray:none;stroke-dashoffset:0;stroke-opacity:1"
         d="m 1711.9877,515.47153 c -1.7739,0.0361 -3.2761,1.3169 -3.5938,3.0625 -1.1978,6.08339 -1.9075,9.81964 -2.2031,12.33789 -0.1478,1.25913 -0.2554,2.15483 -0.041,3.39062 0.1072,0.61779 0.2979,1.43029 1.043,2.29492 0.7329,0.85054 2.0782,1.39591 3.0195,1.4375 1.0072,0.044 1.3341,-0.12466 1.7012,-0.23828 0.224,-0.0699 0.4251,-0.15525 0.6308,-0.23437 l 0,13.09961 27.4082,0 a 18.658499,18.814795 0 0 1 -1.1191,-6.36914 18.658499,18.814795 0 0 1 9.9238,-16.61133 c -0.7672,-1.93179 -1.9746,-4.96289 -1.9746,-4.96289 -0.9382,-1.44296 -2.1056,-2.1679 -3.5039,-2.40821 -10.3976,-1.27558 -20.9928,-3.66052 -31.291,-4.79882 z"
         id="path28276-8-8" />
      <path
         style="opacity:1;fill:#666666;fill-opacity:1;fill-rule:nonzero;stroke:none;stroke-width:2;stroke-linecap:round;stroke-linejoin:round;stroke-miterlimit:4;stroke-dasharray:none;stroke-dashoffset:0;stroke-opacity:1"
         d="m 1812.6113,503.30859 c -1.8792,2.54696 -3.004,5.69276 -3.0039,9.11133 0,3.29943 1.0763,6.47686 3.0039,9.09375 l 0,-18.20508 z"
         transform="translate(-1.2207031e-4,0)"
         id="path28282-2-7" />
      <path
         style="opacity:1;fill:#cccccc;fill-opacity:1;fill-rule:nonzero;stroke:none;stroke-width:1.60000002;stroke-linecap:round;stroke-linejoin:round;stroke-miterlimit:4;stroke-dasharray:none;stroke-dashoffset:0;stroke-opacity:1"
         d="m 1790.873,489.41211 c -1.3356,0.0272 -2.4657,0.99228 -2.705,2.30664 -0.9018,4.58052 -1.4376,7.39489 -1.6602,9.29102 -0.1113,0.94806 -0.1928,1.62223 -0.031,2.55273 0.081,0.46516 0.2261,1.07749 0.7871,1.72852 0.5518,0.64041 1.5627,1.05072 2.2715,1.08203 0.7584,0.0331 1.0049,-0.0941 1.2812,-0.17969 0.1687,-0.0526 0.3198,-0.11621 0.4746,-0.17578 l 0,9.86328 18.7285,0 a 15.16943,15.296498 0 0 1 -0.4121,-3.46289 15.16943,15.296498 0 0 1 3.0039,-9.0918 l 0,-10.54492 c -7.2418,-0.99562 -14.5846,-2.57842 -21.7383,-3.36914 z"
         transform="translate(-1.2207031e-4,0)"
         id="path28290-0-7" />
      <path
         style="opacity:1;fill:#666666;fill-opacity:1;fill-rule:nonzero;stroke:none;stroke-width:1.60000002;stroke-linecap:round;stroke-linejoin:round;stroke-miterlimit:4;stroke-dasharray:none;stroke-dashoffset:0;stroke-opacity:1"
         d="m 1785.6639,551.7943 c -0.7349,-0.0838 -1.4393,0.15003 -1.9583,0.64979 -0.5189,0.49954 -0.8103,1.22408 -0.8103,2.01436 0,0.79028 0.2914,1.58193 0.8103,2.201 0.5191,0.61932 1.2234,1.01537 1.9583,1.10087 1.5316,0.1782 2.7746,-1.01416 2.7746,-2.66343 0,-0.79201 -0.2926,-1.5851 -0.8133,-2.20461 -0.5204,-0.61926 -1.226,-1.01415 -1.9613,-1.09798 0,0 0,0 0,0 m 0,0.5779 c 1.2347,0.14109 2.2365,1.33328 2.2365,2.66271 -10e-5,1.32936 -1.0018,2.29068 -2.2365,2.14736 -1.2335,-0.1432 -2.2327,-1.335 -2.2327,-2.6621 -10e-5,-0.63732 0.235,-1.22159 0.6535,-1.62437 0.4186,-0.40291 0.9866,-0.5913 1.5792,-0.5236 0,0 0,0 0,0"
         id="path30489-5" />
      <path
         style="opacity:1;fill:#1f7a7a;fill-opacity:1;fill-rule:nonzero;stroke:none;stroke-width:1.60000002;stroke-linecap:round;stroke-linejoin:round;stroke-miterlimit:4;stroke-dasharray:none;stroke-dashoffset:0;stroke-opacity:1"
         d="m 1787.3973,554.97691 c 0,0.4948 -0.1828,0.94822 -0.508,1.26045 -0.3251,0.31215 -0.766,0.45754 -1.2255,0.40428 -0.9563,-0.11085 -1.7311,-1.03479 -1.7311,-2.06375 0,-1.02897 0.7748,-1.77445 1.7311,-1.665 0.4595,0.0526 0.9004,0.29953 1.2255,0.68657 0.3252,0.38714 0.508,0.88265 0.508,1.37745 0,0 0,0 0,0"
         id="path30491-8" />
      <path
         style="opacity:1;fill:#666666;fill-opacity:1;fill-rule:nonzero;stroke:none;stroke-width:1.60000002;stroke-linecap:round;stroke-linejoin:round;stroke-miterlimit:4;stroke-dasharray:none;stroke-dashoffset:0;stroke-opacity:1"
         d="m 1785.6639,537.10732 c -0.7349,-0.0795 -1.4393,0.15838 -1.9583,0.66114 -0.5189,0.50256 -0.8103,1.22879 -0.8103,2.01908 0,0.79028 0.2914,1.58023 0.8103,2.19629 0.5191,0.61631 1.2234,1.00828 1.9583,1.0895 1.5316,0.16933 2.7746,-1.03025 2.7746,-2.67951 0,-0.79201 -0.2926,-1.58341 -0.8133,-2.1999 -0.5204,-0.61624 -1.226,-1.00704 -1.9613,-1.0866 0,0 0,0 0,0 m 0,0.5779 c 1.2347,0.13393 2.2365,1.32031 2.2365,2.64974 -10e-5,1.32936 -1.0018,2.29649 -2.2365,2.16033 -1.2335,-0.13604 -2.2327,-1.32205 -2.2327,-2.64915 -10e-5,-0.63732 0.235,-1.22295 0.6535,-1.62816 0.4186,-0.40534 0.9866,-0.59703 1.5792,-0.53276 0,0 0,0 0,0"
         id="path30493-7" />
      <path
         style="opacity:1;fill:#666666;fill-opacity:1;fill-rule:nonzero;stroke:none;stroke-width:1.60000002;stroke-linecap:round;stroke-linejoin:round;stroke-miterlimit:4;stroke-dasharray:none;stroke-dashoffset:0;stroke-opacity:1"
         d="m 1785.6639,544.45079 c -0.7349,-0.0816 -1.4393,0.15421 -1.9583,0.65547 -0.5189,0.50105 -0.8103,1.22644 -0.8103,2.01672 0,0.79028 0.2914,1.58108 0.8103,2.19864 0.5191,0.61782 1.2234,1.01182 1.9583,1.09519 1.5316,0.17376 2.7746,-1.02221 2.7746,-2.67147 0,-0.79201 -0.2926,-1.58425 -0.8133,-2.20226 -0.5204,-0.61774 -1.226,-1.01059 -1.9613,-1.09229 0,0 0,0 0,0 m 0,0.57791 c 1.2347,0.13751 2.2365,1.32679 2.2365,2.65622 -10e-5,1.32936 -1.0018,2.29358 -2.2365,2.15385 -1.2335,-0.13963 -2.2327,-1.32853 -2.2327,-2.65563 -10e-5,-0.63732 0.235,-1.22227 0.6535,-1.62626 0.4186,-0.40413 0.9866,-0.59417 1.5792,-0.52818 0,0 0,0 0,0"
         id="path30497-8" />
      <path
         style="opacity:1;fill:#cccccc;fill-opacity:1;fill-rule:nonzero;stroke:none;stroke-width:3;stroke-linecap:round;stroke-linejoin:round;stroke-miterlimit:4;stroke-dasharray:none;stroke-dashoffset:0;stroke-opacity:1"
         d="m 1792.1223,539.05327 c 0,0 19.9749,2.17101 19.9749,2.17101 0,0 0,3.51431 0,3.51431 0,0 -19.9749,-2.19844 -19.9749,-2.19844 0,0 0,-3.48688 0,-3.48688"
         id="path30501-0" />
      <path
         style="opacity:1;fill:#cccccc;fill-opacity:1;fill-rule:nonzero;stroke:none;stroke-width:3;stroke-linecap:round;stroke-linejoin:round;stroke-miterlimit:4;stroke-dasharray:none;stroke-dashoffset:0;stroke-opacity:1"
         d="m 1792.1223,546.41549 c 0,0 9.4768,1.05748 9.4768,1.05748 0,0 0,3.49986 0,3.49986 0,0 -9.4768,-1.0705 -9.4768,-1.0705 0,0 0,-3.48684 0,-3.48684"
         id="path30503-5" />
      <path
         style="opacity:1;fill:#cccccc;fill-opacity:1;fill-rule:nonzero;stroke:none;stroke-width:3;stroke-linecap:round;stroke-linejoin:round;stroke-miterlimit:4;stroke-dasharray:none;stroke-dashoffset:0;stroke-opacity:1"
         d="m 1792.1223,553.77774 c 0,0 18.1617,2.07927 18.1617,2.07927 0,0 0,3.51179 0,3.51179 0,0 -18.1617,-2.10422 -18.1617,-2.10422 0,0 0,-3.48684 0,-3.48684"
         id="path30505-2" />
      <path
         style="opacity:1;fill:#cccccc;fill-opacity:1;fill-rule:nonzero;stroke:none;stroke-width:3;stroke-linecap:round;stroke-linejoin:round;stroke-miterlimit:4;stroke-dasharray:none;stroke-dashoffset:0;stroke-opacity:1"
         d="m 1803.1855,547.65039 0,3.50195 9.4258,1.06446 0,-3.51368 -9.4258,-1.05273 z"
         transform="translate(-1.2207031e-4,0)"
         id="path30507-8" />
      <path
         d="m 1783.8982,526.09029 c -0.5658,0.65405 -0.6886,1.64153 -0.3257,2.55344 0.1495,0.36641 0.347,0.65742 0.2776,0.40861 -0.1601,-0.58028 -0.1922,-1.5036 -0.069,-2.10602 0.043,-0.20257 0.1388,-0.52608 0.2136,-0.71956 0.075,-0.19925 0.1335,-0.35992 0.1228,-0.36676 0,-0.006 -0.1068,0.0982 -0.2189,0.23029 0,0 0,0 0,0"
         id="path30515-7"
         style="fill:#1f7a7a;fill-opacity:1;stroke:none" />
      <path
         d="m 1788.8197,526.52103 c 0.2626,0.70146 0.3538,1.18346 0.3591,1.85243 0.01,0.45578 -0.021,0.76989 -0.086,0.99937 -0.048,0.17934 -0.08,0.34304 -0.064,0.35625 0.011,0.0125 0.08,-0.0837 0.1555,-0.21412 0.5363,-0.92346 0.4451,-2.09142 -0.2305,-2.9512 0,0 -0.2251,-0.28262 -0.2251,-0.28262 0,0 0.091,0.23989 0.091,0.23989"
         id="path30517-2"
         style="fill:#1f7a7a;fill-opacity:1;stroke:none" />
      <path
         d="m 1784.6138,526.49824 c -0.3151,0.35254 -0.4006,0.62544 -0.4006,1.26955 0,0.54633 0.011,0.59346 0.1816,0.95647 0.1015,0.20618 0.187,0.37047 0.1976,0.36585 0.01,-0.0111 -0.021,-0.16331 -0.064,-0.34032 -0.1549,-0.65468 -0.075,-1.54929 0.1924,-2.19439 0.059,-0.13772 0.096,-0.24888 0.085,-0.24999 -0.011,0 -0.1015,0.0872 -0.1923,0.19283 0,0 0,0 0,0"
         id="path30519-5"
         style="fill:#1f7a7a;fill-opacity:1;stroke:none" />
      <path
         d="m 1788.1445,526.86562 c 0.2732,0.63904 0.3697,1.78973 0.1982,2.35933 -0.1125,0.37411 0.011,0.26608 0.209,-0.18547 0.2144,-0.47874 0.2144,-1.10096 0,-1.6303 -0.08,-0.20424 -0.2304,-0.46757 -0.3322,-0.58185 0,0 -0.1821,-0.20902 -0.1821,-0.20902 0,0 0.1071,0.24731 0.1071,0.24731"
         id="path30521-7"
         style="fill:#1f7a7a;fill-opacity:1;stroke:none" />
      <path
         d="m 1785.068,527.10353 c -0.3153,0.4158 -0.3741,1.04238 -0.139,1.56749 0.139,0.30797 0.171,0.31709 0.1016,0.0336 -0.086,-0.35413 -0.027,-1.21086 0.1068,-1.5191 0.059,-0.14345 0.1016,-0.2598 0.091,-0.26091 -0.011,0 -0.085,0.0774 -0.1603,0.17888 0,0 0,0 0,0"
         id="path30523-9"
         style="fill:#1f7a7a;fill-opacity:1;stroke:none" />
      <path
         d="m 1802.9732,528.83725 c -0.3847,0.0295 -0.921,0.24572 -1.1918,0.47805 -0.655,0.55684 -0.72,1.74842 -0.1462,2.49202 0.2816,0.36561 0.6282,0.6107 1.1538,0.82264 0.5095,0.20452 0.9487,0.46539 1.1222,0.66924 0.1899,0.22297 0.1899,0.61709 0,0.84037 -0.1627,0.17975 -0.6019,0.27211 -0.9,0.17666 -0.2764,-0.0815 -0.7099,-0.3593 -0.9374,-0.59776 -0.1679,-0.17996 -0.2112,-0.20195 -0.2707,-0.13876 -0.038,0.0423 -0.2491,0.25726 -0.471,0.48266 0,0 -0.4005,0.41475 -0.4005,0.41475 0,0 0.1623,0.16203 0.1623,0.16203 0.2219,0.2205 0.8554,0.60658 1.2454,0.75827 0.1896,0.0782 0.5418,0.15055 0.8399,0.18242 1.421,0.15184 2.257,-0.46632 2.3222,-1.70624 0.054,-1.06136 -0.3638,-1.6216 -1.6173,-2.19429 -0.629,-0.2864 -1.0735,-0.58226 -1.1493,-0.75823 -0.076,-0.19335 -0.016,-0.50573 0.1355,-0.64043 0.3685,-0.33221 1.0518,-0.19695 1.6594,0.33041 0,0 0.1519,0.13189 0.1519,0.13189 0,0 0.4668,-0.4555 0.4668,-0.4555 0,0 0.4725,-0.45512 0.4725,-0.45512 0,0 -0.2607,-0.21281 -0.2607,-0.21281 -0.6677,-0.55674 -1.5412,-0.8448 -2.387,-0.78227 0,0 0,0 0,0"
         id="path30525-1"
         style="fill:#1f7a7a;fill-opacity:1;stroke:none" />
      <path
         d="m 1787.7696,527.52921 c 0.1392,0.40615 0.1821,0.84258 0.1178,1.2563 -0.032,0.18669 -0.043,0.35257 -0.032,0.36523 0.011,0.0125 0.07,-0.0848 0.1285,-0.2169 0.2036,-0.46823 0.1018,-1.26223 -0.2035,-1.59357 0,0 -0.1124,-0.11539 -0.1124,-0.11539 0,0 0.1017,0.30433 0.1017,0.30433"
         id="path30527-7"
         style="fill:#1f7a7a;fill-opacity:1;stroke:none" />
      <path
         d="m 1786.057,527.31024 c -0.3048,0.14084 -0.4385,0.32829 -0.4706,0.67593 -0.048,0.57037 0.2995,1.02116 0.845,1.07842 0.5244,0.0551 0.8563,-0.25557 0.8563,-0.79681 0,-0.38003 -0.1713,-0.70885 -0.455,-0.88811 -0.2836,-0.17927 -0.4815,-0.19415 -0.7757,-0.0694 0,0 0,0 0,0"
         id="path30529-3"
         style="fill:#1f7a7a;fill-opacity:1;stroke:none" />
      <path
         d="m 1792.3997,529.6739 c -0.7952,0.92585 -1.8959,2.21659 -2.454,2.87224 -0.5578,0.6553 -1.051,1.2308 -1.0939,1.27807 -0.075,0.0899 -0.032,0.10026 0.8311,0.19248 0,0 0.9121,0.0974 0.9121,0.0974 0,0 0.4724,-0.58386 0.4724,-0.58386 0,0 0.4726,-0.5841 0.4726,-0.5841 0,0 1.1608,0.13494 1.1608,0.13494 0,0 1.1564,0.14025 1.1564,0.14025 0,0 -0.016,0.61598 -0.016,0.61598 0,0 -0.016,0.62173 -0.016,0.62173 0,0 0.7051,0.0753 0.7051,0.0753 0,0 0.7055,0.0754 0.7055,0.0754 0,0 0,-3.23458 0,-3.23458 0,0 0,-3.23459 0,-3.23459 0,0 -0.7001,-0.073 -0.7001,-0.073 0,0 -0.6943,-0.0724 -0.6943,-0.0724 0,0 -1.4414,1.67871 -1.4414,1.67871 m 1.4467,1.2487 c -0.011,0.53576 -0.027,0.97278 -0.032,0.97222 -0.027,0.0319 -1.323,-0.0938 -1.323,-0.12267 0,-0.10387 1.2746,-1.82208 1.3445,-1.81476 0.016,0 0.021,0.43525 0.011,0.96521 0,0 0,0 0,0"
         id="path30531-9"
         style="fill:#1f7a7a;fill-opacity:1;stroke:none" />
      <path
         d="m 1795.9468,531.4329 c 0,0 0.016,3.22564 0.016,3.22564 0,0 0.7171,0.0939 0.7171,0.0939 0,0 0.7121,0.0934 0.7121,0.0934 0,0 0,-1.30648 0,-1.30648 0,0 0,-1.30651 0,-1.30651 0,0 0.2536,0.0442 0.2536,0.0442 0,0 0.2483,0.0436 0.2483,0.0436 0,0 0.6264,1.29236 0.6264,1.29236 0.3457,0.7135 0.6537,1.32482 0.6861,1.36297 0.038,0.0445 0.3567,0.096 0.8757,0.13984 0,0 0.8168,0.0698 0.8168,0.0698 0,0 -0.2326,-0.43002 -0.2326,-0.43002 -0.1299,-0.23957 -0.4814,-0.88471 -0.7842,-1.43767 -0.2974,-0.54651 -0.546,-1.01252 -0.546,-1.02411 0,-0.0114 0.1297,-0.0731 0.2865,-0.14326 0.3622,-0.1585 0.6055,-0.38167 0.784,-0.72169 0.119,-0.23635 0.1407,-0.34983 0.1461,-0.79493 0,-0.45727 -0.016,-0.56315 -0.1515,-0.86672 -0.2542,-0.58798 -0.7462,-0.98654 -1.4434,-1.17496 -0.1945,-0.055 -0.9505,-0.16273 -1.6899,-0.23982 0,0 -1.332,-0.13887 -1.332,-0.13887 0,0 0.011,3.21929 0.011,3.21929 m 2.8167,-1.57103 c 0.2269,0.14528 0.4106,0.43643 0.4106,0.64469 0,0.25453 -0.1675,0.51457 -0.3998,0.6174 -0.1837,0.0848 -0.3187,0.0937 -0.8047,0.0425 0,0 -0.5775,-0.0551 -0.5775,-0.0551 0,0 -0.01,-0.72317 -0.01,-0.72317 0,-0.39946 0,-0.74631 0,-0.76885 0.01,-0.0284 0.2644,-0.0128 0.5883,0.0326 0.432,0.0568 0.6318,0.11244 0.7885,0.20982 0,0 0,0 0,0"
         id="path30533-6"
         style="fill:#1f7a7a;fill-opacity:1;stroke:none" />
      <path
         d="m 1808.5026,531.58501 c -0.1633,0.0641 -0.4027,0.21312 -0.5224,0.32823 0,0 -0.2231,0.2145 -0.2231,0.2145 0,0 -0.038,-0.32906 -0.038,-0.32906 0,0 -0.038,-0.32902 -0.038,-0.32902 0,0 -0.3536,-0.0371 -0.3536,-0.0371 0,0 -0.348,-0.0365 -0.348,-0.0365 0,0 0,2.14697 0,2.14697 0,0 0,2.14702 0,2.14702 0,0 0.4079,0.0435 0.4079,0.0435 0,0 0.4079,0.0436 0.4079,0.0436 0,0 0,-1.36408 0,-1.36408 0,-1.5498 0.033,-1.69148 0.4408,-2.03739 0.2503,-0.21748 0.3919,-0.24901 0.7893,-0.17233 0.3323,0.064 0.5066,0.21596 0.6809,0.59447 0.093,0.20729 0.1036,0.3653 0.1036,1.71302 0,0 0,1.48134 0,1.48134 0,0 0.4141,0.0442 0.4141,0.0442 0,0 0.4089,0.0436 0.4089,0.0436 0,0 -0.016,-1.64625 -0.016,-1.64625 -0.016,-1.59395 -0.022,-1.6468 -0.1472,-1.91569 -0.2835,-0.61087 -0.6377,-0.88628 -1.2587,-0.98637 -0.354,-0.0604 -0.4466,-0.0527 -0.7079,0.0534 0,0 0,0 0,0"
         id="path30535-9"
         style="fill:#1f7a7a;fill-opacity:1;stroke:none" />
      <path
         d="m 1785.8752,529.35147 c -0.3369,0.0739 -0.3529,0.11826 -0.3529,1.11948 0,0.82281 0.016,0.97409 0.1604,1.60512 0.3262,1.39283 0.3743,1.4958 0.7701,1.53807 0.2997,0.0319 0.3746,-0.0349 0.5084,-0.46386 0.2944,-0.97052 0.3854,-1.47333 0.4175,-2.37393 0.027,-0.84941 0.027,-0.89547 -0.086,-1.05702 -0.064,-0.0931 -0.2088,-0.20621 -0.3158,-0.25199 -0.2355,-0.0938 -0.8828,-0.16186 -1.1021,-0.11587 0,0 0,0 0,0"
         id="path30543-7"
         style="fill:#1f7a7a;fill-opacity:1;stroke:none" />
      <path
         id="path138812-3"
         d="m 1750.0125,506.85906 c -0.5668,-0.0646 -1.1101,0.11571 -1.5104,0.50117 -0.4002,0.38529 -0.625,0.94412 -0.625,1.55366 0,0.60953 0.2248,1.22012 0.625,1.6976 0.4003,0.47767 0.9436,0.78314 1.5104,0.84908 1.1813,0.13745 2.1401,-0.78221 2.1401,-2.05427 0,-0.61086 -0.2257,-1.22257 -0.6273,-1.70038 -0.4015,-0.47763 -0.9457,-0.78221 -1.5128,-0.84686 0,0 0,0 0,0 m 0,0.44573 c 0.9524,0.10882 1.725,1.02834 1.725,2.05371 0,1.02532 -0.7727,1.76678 -1.725,1.65623 -0.9514,-0.11044 -1.722,-1.02966 -1.7221,-2.05324 0,-0.49156 0.1813,-0.9422 0.5041,-1.25286 0.3229,-0.31076 0.761,-0.45606 1.218,-0.40384 0,0 0,0 0,0"
         style="opacity:1;fill:#666666;fill-opacity:1;fill-rule:nonzero;stroke:none;stroke-width:1.60000002;stroke-linecap:round;stroke-linejoin:round;stroke-miterlimit:4;stroke-dasharray:none;stroke-dashoffset:0;stroke-opacity:1" />
      <path
         id="path138816-6"
         d="m 1750.0125,495.53117 c -0.5668,-0.0613 -1.1101,0.12215 -1.5104,0.50993 -0.4002,0.38762 -0.625,0.94775 -0.625,1.55728 0,0.60954 0.2248,1.21882 0.625,1.69398 0.4003,0.47535 0.9436,0.77767 1.5104,0.84033 1.1813,0.13059 2.1401,-0.79463 2.1401,-2.06668 0,-0.61088 -0.2257,-1.22127 -0.6273,-1.69676 -0.4015,-0.4753 -0.9457,-0.77672 -1.5128,-0.83808 0,0 0,0 0,0 m 0,0.44572 c 0.9524,0.1033 1.725,1.01834 1.725,2.04372 0,1.02531 -0.7727,1.77125 -1.725,1.66624 -0.9514,-0.10493 -1.722,-1.01969 -1.7221,-2.04326 0,-0.49156 0.1813,-0.94325 0.5041,-1.25579 0.3229,-0.31263 0.761,-0.46047 1.218,-0.41091 0,0 0,0 0,0"
         style="opacity:1;fill:#666666;fill-opacity:1;fill-rule:nonzero;stroke:none;stroke-width:1.60000002;stroke-linecap:round;stroke-linejoin:round;stroke-miterlimit:4;stroke-dasharray:none;stroke-dashoffset:0;stroke-opacity:1" />
      <path
         id="path138820-5"
         d="m 1750.0125,501.1951 c -0.5668,-0.063 -1.1101,0.11893 -1.5104,0.50555 -0.4002,0.38646 -0.625,0.94594 -0.625,1.55547 0,0.60954 0.2248,1.21948 0.625,1.69579 0.4003,0.47652 0.9436,0.78041 1.5104,0.84471 1.1813,0.13401 2.1401,-0.78842 2.1401,-2.06047 0,-0.61087 -0.2257,-1.22192 -0.6273,-1.69858 -0.4015,-0.47646 -0.9457,-0.77946 -1.5128,-0.84247 0,0 0,0 0,0 m 0,0.44573 c 0.9524,0.10606 1.725,1.02334 1.725,2.04871 0,1.02532 -0.7727,1.76902 -1.725,1.66124 -0.9514,-0.10769 -1.722,-1.02467 -1.7221,-2.04825 0,-0.49156 0.1813,-0.94273 0.5041,-1.25432 0.3229,-0.3117 0.761,-0.45828 1.218,-0.40738 0,0 0,0 0,0"
         style="opacity:1;fill:#666666;fill-opacity:1;fill-rule:nonzero;stroke:none;stroke-width:1.60000002;stroke-linecap:round;stroke-linejoin:round;stroke-miterlimit:4;stroke-dasharray:none;stroke-dashoffset:0;stroke-opacity:1" />
      <path
         id="path138822-2"
         d="m 1751.3494,503.64594 c 0,0.38163 -0.1409,0.73175 -0.3918,0.9733 -0.2507,0.24148 -0.5907,0.35461 -0.9452,0.31455 -0.7376,-0.0833 -1.3351,-0.79424 -1.3351,-1.58787 0,-0.79363 0.5975,-1.37034 1.3351,-1.28806 0.3545,0.0395 0.6945,0.229 0.9452,0.52679 0.2509,0.29788 0.3918,0.67965 0.3918,1.06129 0,0 0,0 0,0"
         style="opacity:1;fill:#1f7a7a;fill-opacity:1;fill-rule:nonzero;stroke:none;stroke-width:1.60000002;stroke-linecap:round;stroke-linejoin:round;stroke-miterlimit:4;stroke-dasharray:none;stroke-dashoffset:0;stroke-opacity:1" />
      <path
         id="path138824-8"
         d="m 1754.9938,497.03205 c 0,0 15.4064,1.67447 15.4064,1.67447 0,0 0,2.71055 0,2.71055 0,0 -15.4064,-1.69563 -15.4064,-1.69563 0,0 0,-2.68939 0,-2.68939"
         style="opacity:1;fill:#cccccc;fill-opacity:1;fill-rule:nonzero;stroke:none;stroke-width:3;stroke-linecap:round;stroke-linejoin:round;stroke-miterlimit:4;stroke-dasharray:none;stroke-dashoffset:0;stroke-opacity:1" />
      <path
         id="path138826-4"
         d="m 1754.9938,502.71044 c 0,0 7.3093,0.81562 7.3093,0.81562 0,0 0,2.6994 0,2.6994 0,0 -7.3093,-0.82566 -7.3093,-0.82566 0,0 0,-2.68936 0,-2.68936"
         style="opacity:1;fill:#cccccc;fill-opacity:1;fill-rule:nonzero;stroke:none;stroke-width:3;stroke-linecap:round;stroke-linejoin:round;stroke-miterlimit:4;stroke-dasharray:none;stroke-dashoffset:0;stroke-opacity:1" />
      <path
         id="path138828-0"
         d="m 1754.9938,508.38886 c 0,0 14.0079,1.60372 14.0079,1.60372 0,0 0,2.7086 0,2.7086 0,0 -14.0079,-1.62296 -14.0079,-1.62296 0,0 0,-2.68936 0,-2.68936"
         style="opacity:1;fill:#cccccc;fill-opacity:1;fill-rule:nonzero;stroke:none;stroke-width:3;stroke-linecap:round;stroke-linejoin:round;stroke-miterlimit:4;stroke-dasharray:none;stroke-dashoffset:0;stroke-opacity:1" />
      <path
         id="path138830-6"
         d="m 1763.5268,503.66261 c 0,0 13.9293,1.55433 13.9293,1.55433 0,0 0,2.72021 0,2.72021 0,0 -13.9293,-1.57345 -13.9293,-1.57345 0,0 0,-2.70109 0,-2.70109"
         style="opacity:1;fill:#cccccc;fill-opacity:1;fill-rule:nonzero;stroke:none;stroke-width:3;stroke-linecap:round;stroke-linejoin:round;stroke-miterlimit:4;stroke-dasharray:none;stroke-dashoffset:0;stroke-opacity:1" />
      <path
         id="path138832-4"
         d="m 1770.2337,510.13363 c 0,0 5.0099,0.57357 5.0099,0.57357 0,0 0,2.71717 0,2.71717 0,0 -5.0099,-0.58045 -5.0099,-0.58045 0,0 0,-2.71029 0,-2.71029"
         style="opacity:1;fill:#cccccc;fill-opacity:1;fill-rule:nonzero;stroke:none;stroke-width:3;stroke-linecap:round;stroke-linejoin:round;stroke-miterlimit:4;stroke-dasharray:none;stroke-dashoffset:0;stroke-opacity:1" />
      <path
         style="fill:#1f7a7a;fill-opacity:1;stroke:none"
         id="path138838-9"
         d="m 1748.6506,487.03384 c -0.4364,0.50451 -0.531,1.26611 -0.2511,1.96944 0.1152,0.28262 0.2676,0.50708 0.2141,0.31519 -0.1236,-0.4476 -0.1483,-1.15974 -0.053,-1.62437 0.033,-0.1562 0.107,-0.40573 0.1647,-0.55497 0.058,-0.15367 0.103,-0.27759 0.095,-0.28289 0,-0.005 -0.082,0.0757 -0.1689,0.1776 0,0 0,0 0,0" />
      <path
         style="fill:#1f7a7a;fill-opacity:1;stroke:none"
         id="path138840-6"
         d="m 1752.4465,487.36609 c 0.2026,0.54102 0.2729,0.91277 0.277,1.42876 0,0.35153 -0.016,0.59381 -0.066,0.77083 -0.037,0.13827 -0.062,0.26454 -0.05,0.27474 0.01,0.01 0.062,-0.0646 0.12,-0.16515 0.4136,-0.71225 0.3432,-1.6131 -0.1779,-2.2762 0,0 -0.1736,-0.21801 -0.1736,-0.21801 0,0 0.07,0.18503 0.07,0.18503" />
      <path
         style="fill:#1f7a7a;fill-opacity:1;stroke:none"
         id="path138842-6"
         d="m 1749.2026,487.3485 c -0.2431,0.27194 -0.309,0.48242 -0.309,0.97919 0,0.42138 0.01,0.45776 0.1401,0.73771 0.078,0.15905 0.1442,0.28574 0.1524,0.2822 0,-0.008 -0.016,-0.12596 -0.049,-0.2625 -0.1195,-0.50493 -0.058,-1.19495 0.1483,-1.69252 0.045,-0.10619 0.074,-0.19192 0.066,-0.19279 -0.01,0 -0.078,0.0673 -0.1483,0.14871 0,0 0,0 0,0" />
      <path
         style="fill:#1f7a7a;fill-opacity:1;stroke:none"
         id="path138844-5"
         d="m 1751.9258,487.63185 c 0.2107,0.49289 0.2851,1.38042 0.1529,1.81972 -0.087,0.28855 0.01,0.20525 0.1611,-0.14302 0.1654,-0.36925 0.1654,-0.84917 0,-1.25744 -0.062,-0.15752 -0.1777,-0.36062 -0.2562,-0.44878 0,0 -0.1405,-0.16119 -0.1405,-0.16119 0,0 0.083,0.19071 0.083,0.19071" />
      <path
         style="fill:#1f7a7a;fill-opacity:1;stroke:none"
         id="path138846-9"
         d="m 1749.5529,487.81538 c -0.2432,0.3207 -0.2885,0.80398 -0.1072,1.20896 0.1072,0.23753 0.1319,0.24457 0.078,0.026 -0.066,-0.27315 -0.021,-0.93393 0.082,-1.17168 0.045,-0.11063 0.078,-0.20038 0.07,-0.20125 -0.01,0 -0.066,0.0597 -0.1236,0.138 0,0 0,0 0,0" />
      <path
         style="fill:#1f7a7a;fill-opacity:1;stroke:none"
         id="path138848-6"
         d="m 1763.363,489.15255 c -0.2968,0.0226 -0.7104,0.18954 -0.9192,0.36873 -0.5053,0.42946 -0.5553,1.34852 -0.1128,1.92207 0.2172,0.28196 0.4845,0.47101 0.8899,0.6345 0.3929,0.15773 0.7317,0.35895 0.8655,0.51616 0.1465,0.17198 0.1465,0.47597 0,0.64816 -0.1255,0.13865 -0.4642,0.20989 -0.6942,0.13626 -0.2131,-0.0629 -0.5474,-0.27714 -0.7229,-0.46105 -0.1295,-0.1388 -0.1629,-0.15576 -0.2088,-0.10703 -0.029,0.0326 -0.1921,0.19845 -0.3633,0.37227 0,0 -0.3089,0.3199 -0.3089,0.3199 0,0 0.1252,0.12496 0.1252,0.12496 0.1712,0.17007 0.6597,0.46785 0.9605,0.58486 0.1463,0.0603 0.4179,0.11611 0.6479,0.1407 1.096,0.11712 1.7408,-0.35968 1.791,-1.31601 0.042,-0.81862 -0.2806,-1.25071 -1.2474,-1.69241 -0.4851,-0.22092 -0.8279,-0.44913 -0.8864,-0.58483 -0.059,-0.14913 -0.013,-0.39003 0.1045,-0.49397 0.2842,-0.25622 0.8112,-0.1519 1.2799,0.25487 0,0 0.1172,0.10169 0.1172,0.10169 0,0 0.36,-0.35132 0.36,-0.35132 0,0 0.3644,-0.35101 0.3644,-0.35101 0,0 -0.2011,-0.16415 -0.2011,-0.16415 -0.515,-0.42939 -1.1887,-0.65159 -1.841,-0.60335 0,0 0,0 0,0" />
      <path
         style="fill:#1f7a7a;fill-opacity:1;stroke:none"
         id="path138850-2"
         d="m 1751.6366,488.14367 c 0.1074,0.31328 0.1404,0.6499 0.091,0.969 -0.025,0.14396 -0.033,0.27193 -0.025,0.28168 0.01,0.01 0.054,-0.0654 0.099,-0.1673 0.157,-0.36114 0.079,-0.97354 -0.157,-1.22911 0,0 -0.087,-0.089 -0.087,-0.089 0,0 0.079,0.23472 0.079,0.23472" />
      <path
         style="fill:#1f7a7a;fill-opacity:1;stroke:none"
         id="path138852-8"
         d="m 1750.3157,487.97481 c -0.2351,0.10862 -0.3382,0.25321 -0.3629,0.52133 -0.037,0.43993 0.2309,0.78761 0.6517,0.83176 0.4045,0.0425 0.6604,-0.19713 0.6604,-0.61459 0,-0.29309 -0.1321,-0.54671 -0.3509,-0.68499 -0.2187,-0.13823 -0.3714,-0.14971 -0.5983,-0.0535 0,0 0,0 0,0" />
      <path
         style="fill:#1f7a7a;fill-opacity:1;stroke:none"
         id="path138854-8"
         d="m 1755.2078,489.79787 c -0.6134,0.71408 -1.4623,1.70961 -1.8928,2.2153 -0.4302,0.50544 -0.8106,0.94933 -0.8437,0.98578 -0.058,0.0694 -0.025,0.0773 0.641,0.14843 0,0 0.7035,0.0752 0.7035,0.0752 0,0 0.3644,-0.45034 0.3644,-0.45034 0,0 0.3645,-0.45047 0.3645,-0.45047 0,0 0.8953,0.10404 0.8953,0.10404 0,0 0.8919,0.10817 0.8919,0.10817 0,0 -0.012,0.4751 -0.012,0.4751 0,0 -0.012,0.47957 -0.012,0.47957 0,0 0.5439,0.0581 0.5439,0.0581 0,0 0.5441,0.0581 0.5441,0.0581 0,0 0,-2.49476 0,-2.49476 0,0 0,-2.49479 0,-2.49479 0,0 -0.54,-0.0563 -0.54,-0.0563 0,0 -0.5355,-0.0558 -0.5355,-0.0558 0,0 -1.1117,1.29476 -1.1117,1.29476 m 1.1158,0.9631 c -0.01,0.41322 -0.021,0.75029 -0.025,0.74984 -0.021,0.0246 -1.0204,-0.0724 -1.0204,-0.0946 0,-0.0801 0.9831,-1.40536 1.037,-1.39967 0.013,0 0.017,0.33568 0.01,0.74444 0,0 0,0 0,0" />
      <path
         style="fill:#1f7a7a;fill-opacity:1;stroke:none"
         id="path138856-7"
         d="m 1757.9436,491.15456 c 0,0 0.013,2.4879 0.013,2.4879 0,0 0.5531,0.0724 0.5531,0.0724 0,0 0.5492,0.072 0.5492,0.072 0,0 0,-1.00767 0,-1.00767 0,0 0,-1.0077 0,-1.0077 0,0 0.1956,0.034 0.1956,0.034 0,0 0.1916,0.0336 0.1916,0.0336 0,0 0.4831,0.99678 0.4831,0.99678 0.2666,0.55032 0.5041,1.02181 0.5291,1.05125 0.029,0.0343 0.2752,0.074 0.6755,0.10783 0,0 0.63,0.0539 0.63,0.0539 0,0 -0.1795,-0.33169 -0.1795,-0.33169 -0.1001,-0.18478 -0.3713,-0.68235 -0.6048,-1.10886 -0.2294,-0.42152 -0.4211,-0.78092 -0.4211,-0.78987 0,-0.009 0.1,-0.0564 0.2209,-0.11053 0.2794,-0.12221 0.4671,-0.29434 0.6048,-0.5566 0.092,-0.18228 0.1084,-0.26982 0.1126,-0.61313 0,-0.35267 -0.013,-0.43435 -0.1168,-0.66848 -0.1961,-0.45349 -0.5756,-0.76091 -1.1133,-0.90622 -0.15,-0.0424 -0.7331,-0.12551 -1.3034,-0.18499 0,0 -1.0274,-0.1071 -1.0274,-0.1071 0,0 0.01,2.48301 0.01,2.48301 m 2.1725,-1.21173 c 0.175,0.11206 0.3167,0.33662 0.3167,0.49723 0,0.19633 -0.1292,0.39692 -0.3084,0.4762 -0.1416,0.0654 -0.2457,0.0723 -0.6206,0.0326 0,0 -0.4454,-0.0425 -0.4454,-0.0425 0,0 0,-0.55778 0,-0.55778 0,-0.30807 0,-0.5756 0,-0.59301 0,-0.0218 0.204,-0.01 0.4538,0.0253 0.3331,0.0438 0.4873,0.0867 0.6081,0.16183 0,0 0,0 0,0" />
      <path
         style="fill:#1f7a7a;fill-opacity:1;stroke:none"
         id="path138858-5"
         d="m 1767.6277,491.27189 c -0.1259,0.0495 -0.3106,0.16435 -0.4029,0.25314 0,0 -0.1721,0.16546 -0.1721,0.16546 0,0 -0.029,-0.25379 -0.029,-0.25379 0,0 -0.029,-0.2538 -0.029,-0.2538 0,0 -0.2727,-0.0288 -0.2727,-0.0288 0,0 -0.2684,-0.0281 -0.2684,-0.0281 0,0 0,1.65596 0,1.65596 0,0 0,1.65596 0,1.65596 0,0 0.3146,0.0336 0.3146,0.0336 0,0 0.3146,0.0336 0.3146,0.0336 0,0 0,-1.05209 0,-1.05209 0,-1.19536 0.025,-1.3046 0.34,-1.5714 0.1931,-0.16772 0.3023,-0.19207 0.6088,-0.1329 0.2563,0.0494 0.3907,0.16657 0.5252,0.45852 0.072,0.15984 0.08,0.28171 0.08,1.32122 0,0 0,1.1425 0,1.1425 0,0 0.3194,0.034 0.3194,0.034 0,0 0.3154,0.0336 0.3154,0.0336 0,0 -0.013,-1.26972 -0.013,-1.26972 -0.013,-1.22938 -0.017,-1.27016 -0.1135,-1.47756 -0.2187,-0.47114 -0.4919,-0.68357 -0.9709,-0.76077 -0.273,-0.0466 -0.3444,-0.0406 -0.5459,0.0412 0,0 -10e-5,0 -10e-5,0" />
      <path
         style="fill:#1f7a7a;fill-opacity:1;stroke:none"
         id="path138860-7"
         d="m 1771.1312,491.59512 c -0.4296,0.0939 -0.796,0.40071 -1.0106,0.85337 -0.1053,0.21308 -0.1179,0.28799 -0.1179,0.70944 0,0.44388 0.01,0.4941 0.1347,0.78102 0.3284,0.74797 1.0697,1.22182 1.8242,1.1723 0.5864,-0.0362 0.9957,-0.3113 1.2533,-0.84071 0.152,-0.30274 0.1604,-0.35126 0.1604,-0.72852 0,-0.47159 -0.076,-0.7401 -0.3082,-1.11039 -0.1731,-0.26968 -0.5613,-0.59787 -0.8693,-0.72449 -0.2573,-0.10779 -0.8264,-0.16755 -1.0666,-0.11202 0,0 0,0 0,0 m 1.0371,0.69692 c 0.3839,0.24696 0.6371,0.80797 0.5822,1.30055 -0.055,0.48356 -0.346,0.86564 -0.7172,0.94732 -0.7251,0.1561 -1.3612,-0.38715 -1.4117,-1.20431 -0.034,-0.5642 0.1853,-0.9941 0.5897,-1.16678 0.2697,-0.11071 0.666,-0.06 0.957,0.12322 0,0 0,0 0,0" />
      <path
         style="fill:#1f7a7a;fill-opacity:1;stroke:none"
         id="path138862-0"
         d="m 1777.9679,492.34926 c -0.2885,0.0732 -0.6786,0.25273 -0.6786,0.31123 0,0.0226 0.072,0.1201 0.1611,0.2195 0,0 0.1612,0.1835 0.1612,0.1835 0,0 0.2969,-0.13075 0.2969,-0.13075 0.4073,-0.17771 0.7596,-0.17216 1.0314,0.01 0.2421,0.16065 0.3356,0.31012 0.3695,0.57498 0,0 0.025,0.20993 0.025,0.20993 0,0 -0.1996,0.006 -0.1996,0.006 -0.1104,0.006 -0.3058,0 -0.4332,-0.0142 -0.2632,-0.0277 -0.7851,0.025 -1.0057,0.0962 -0.1739,0.0581 -0.4325,0.26025 -0.5004,0.39256 -0.1483,0.27225 -0.1102,0.78026 0.076,1.05663 0.059,0.0873 0.2078,0.22918 0.3265,0.30936 0.1994,0.12929 0.263,0.14958 0.6449,0.19036 0.4796,0.0512 0.6707,0 0.968,-0.27051 0,0 0.1572,-0.14542 0.1572,-0.14542 0,0 0,0.23424 0,0.23424 0,0 0,0.23427 0,0.23427 0,0 0.289,0.0309 0.289,0.0309 0,0 0.2847,0.0305 0.2847,0.0305 0,0 -0.021,-1.25051 -0.021,-1.25051 0,0 -0.021,-1.25494 -0.021,-1.25494 0,0 -0.119,-0.27391 -0.119,-0.27391 -0.068,-0.14684 -0.187,-0.33055 -0.2635,-0.40168 -0.3568,-0.32579 -1.0447,-0.47908 -1.5497,-0.34754 0,0 0,0 0,0 m 1.3585,2.05729 c 0,0.40092 -0.1741,0.70223 -0.4842,0.83589 -0.3523,0.15159 -0.8149,0.0528 -1.0228,-0.22144 -0.1273,-0.16206 -0.1145,-0.46681 0.021,-0.60543 0.2164,-0.22466 0.471,-0.27422 1.0951,-0.2171 0,0 0.3907,0.0369 0.3907,0.0369 0,0 0,0.17118 0,0.17118" />
      <path
         style="fill:#1f7a7a;fill-opacity:1;stroke:none"
         id="path138864-2"
         d="m 1773.6498,491.90458 c 0,0.0135 0.2746,0.76566 0.6127,1.6775 0.3382,0.91215 0.6131,1.6785 0.6131,1.70545 0,0.0316 0.1269,0.063 0.3723,0.0892 0,0 0.3681,0.0348 0.3681,0.0348 0,0 0.6224,-1.58424 0.6224,-1.58424 0,0 0.6185,-1.58574 0.6185,-1.58574 0,0 -0.2966,-0.0446 -0.2966,-0.0446 -0.1652,-0.0264 -0.3177,-0.0288 -0.3388,-0.009 -0.03,0.0284 -0.8382,2.16435 -0.9102,2.39498 -0.013,0.0436 -0.038,0.0769 -0.055,0.0751 -0.017,-0.003 -0.1607,-0.38573 -0.3172,-0.85632 -0.1565,-0.46601 -0.3637,-1.07213 -0.4567,-1.3516 0,0 -0.1776,-0.49948 -0.1776,-0.49948 0,0 -0.3254,-0.0343 -0.3254,-0.0343 -0.1817,-0.0191 -0.3295,-0.0257 -0.3295,-0.0121 0,0 0,-3e-5 0,-3e-5" />
      <path
         style="fill:#1f7a7a;fill-opacity:1;stroke:none"
         id="path138866-2"
         d="m 1750.1755,489.5492 c -0.2598,0.057 -0.2722,0.0912 -0.2722,0.86339 0,0.63463 0.012,0.75134 0.1237,1.23802 0.2516,1.07429 0.2887,1.15371 0.594,1.18631 0.2311,0.0246 0.2889,-0.027 0.3921,-0.35777 0.227,-0.74853 0.2972,-1.13634 0.322,-1.831 0.021,-0.65513 0.021,-0.69065 -0.066,-0.81525 -0.05,-0.0718 -0.161,-0.15902 -0.2436,-0.19436 -0.1816,-0.0724 -0.6809,-0.12485 -0.85,-0.0893 0,0 0,0 0,0" />
      <path
         style="opacity:1;fill:#666666;fill-opacity:1;fill-rule:nonzero;stroke:none;stroke-width:1.60000002;stroke-linecap:round;stroke-linejoin:round;stroke-miterlimit:4;stroke-dasharray:none;stroke-dashoffset:0;stroke-opacity:1"
         d="m 1665.5314,537.41368 c -0.6972,-0.0795 -1.3654,0.14233 -1.8579,0.61645 -0.4922,0.47391 -0.7687,1.16127 -0.7687,1.911 0,0.74973 0.2765,1.50077 0.7687,2.08806 0.4925,0.58754 1.1607,0.96328 1.8579,1.04439 1.453,0.16905 2.6323,-0.96213 2.6323,-2.52677 0,-0.75137 -0.2776,-1.50377 -0.7716,-2.09149 -0.4938,-0.58748 -1.1632,-0.96212 -1.8607,-1.04164 0,0 0,0 0,0 m 0,0.54825 c 1.1714,0.13385 2.1218,1.26487 2.1217,2.52609 0,1.26114 -0.9504,2.17314 -2.1217,2.03717 -1.1703,-0.13585 -2.1181,-1.2665 -2.1182,-2.5255 0,-0.60462 0.223,-1.15892 0.62,-1.54103 0.3972,-0.38223 0.936,-0.56096 1.4982,-0.49673 0,0 0,0 0,0"
         id="path138872-9" />
      <path
         style="opacity:1;fill:#1f7a7a;fill-opacity:1;fill-rule:nonzero;stroke:none;stroke-width:1.60000002;stroke-linecap:round;stroke-linejoin:round;stroke-miterlimit:4;stroke-dasharray:none;stroke-dashoffset:0;stroke-opacity:1"
         d="m 1667.1758,540.43299 c 0,0.46941 -0.1734,0.89957 -0.4819,1.19577 -0.3084,0.29613 -0.7267,0.43407 -1.1626,0.38354 -0.9073,-0.10516 -1.6423,-0.9817 -1.6423,-1.95786 0,-0.97617 0.735,-1.6834 1.6423,-1.57957 0.4359,0.0499 0.8542,0.28416 1.1626,0.65134 0.3085,0.36728 0.4819,0.83737 0.4819,1.30678 0,0 0,0 0,0"
         id="path138874-1" />
      <path
         style="opacity:1;fill:#666666;fill-opacity:1;fill-rule:nonzero;stroke:none;stroke-width:1.60000002;stroke-linecap:round;stroke-linejoin:round;stroke-miterlimit:4;stroke-dasharray:none;stroke-dashoffset:0;stroke-opacity:1"
         d="m 1665.5314,523.4803 c -0.6972,-0.0754 -1.3654,0.15025 -1.8579,0.62722 -0.4922,0.47678 -0.7687,1.16574 -0.7687,1.91547 0,0.74973 0.2765,1.49916 0.7687,2.0836 0.4925,0.58469 1.1607,0.95654 1.8579,1.0336 1.453,0.16063 2.6323,-0.97738 2.6323,-2.54202 0,-0.75137 -0.2776,-1.50217 -0.7716,-2.08702 -0.4938,-0.58462 -1.1632,-0.95537 -1.8607,-1.03085 0,0 0,0 0,0 m 0,0.54825 c 1.1714,0.12706 2.1218,1.25256 2.1217,2.51378 0,1.26115 -0.9504,2.17865 -2.1217,2.04949 -1.1703,-0.12907 -2.1181,-1.25422 -2.1182,-2.51322 0,-0.60462 0.223,-1.16021 0.62,-1.54463 0.3972,-0.38454 0.936,-0.56639 1.4982,-0.50542 0,0 0,0 0,0"
         id="path138876-3" />
      <path
         style="opacity:1;fill:#666666;fill-opacity:1;fill-rule:nonzero;stroke:none;stroke-width:1.60000002;stroke-linecap:round;stroke-linejoin:round;stroke-miterlimit:4;stroke-dasharray:none;stroke-dashoffset:0;stroke-opacity:1"
         d="m 1665.5314,530.44698 c -0.6972,-0.0775 -1.3654,0.14629 -1.8579,0.62183 -0.4922,0.47534 -0.7687,1.1635 -0.7687,1.91324 0,0.74973 0.2765,1.49996 0.7687,2.08583 0.4925,0.58611 1.1607,0.9599 1.8579,1.03899 1.453,0.16485 2.6323,-0.96976 2.6323,-2.5344 0,-0.75136 -0.2776,-1.50296 -0.7716,-2.08925 -0.4938,-0.58605 -1.1632,-0.95874 -1.8607,-1.03624 0,0 0,0 0,0 m 0,0.54824 c 1.1714,0.13046 2.1218,1.25872 2.1217,2.51994 0,1.26115 -0.9504,2.1759 -2.1217,2.04333 -1.1703,-0.13246 -2.1181,-1.26036 -2.1182,-2.51936 0,-0.60462 0.223,-1.15956 0.62,-1.54283 0.3972,-0.38339 0.936,-0.56368 1.4982,-0.50108 0,0 0,0 0,0"
         id="path138880-8" />
      <path
         style="opacity:1;fill:#cccccc;fill-opacity:1;fill-rule:nonzero;stroke:none;stroke-width:3;stroke-linecap:round;stroke-linejoin:round;stroke-miterlimit:4;stroke-dasharray:none;stroke-dashoffset:0;stroke-opacity:1"
         d="m 1671.6584,525.3264 c 0,0 18.95,2.05961 18.95,2.05961 0,0 0,3.33399 0,3.33399 0,0 -18.95,-2.08563 -18.95,-2.08563 0,0 0,-3.30797 0,-3.30797"
         id="path138884-1" />
      <path
         style="opacity:1;fill:#cccccc;fill-opacity:1;fill-rule:nonzero;stroke:none;stroke-width:3;stroke-linecap:round;stroke-linejoin:round;stroke-miterlimit:4;stroke-dasharray:none;stroke-dashoffset:0;stroke-opacity:1"
         d="m 1671.6584,532.31086 c 0,0 8.9905,1.00322 8.9905,1.00322 0,0 0,3.32028 0,3.32028 0,0 -8.9905,-1.01557 -8.9905,-1.01557 0,0 0,-3.30793 0,-3.30793"
         id="path138886-3" />
      <path
         style="opacity:1;fill:#cccccc;fill-opacity:1;fill-rule:nonzero;stroke:none;stroke-width:3;stroke-linecap:round;stroke-linejoin:round;stroke-miterlimit:4;stroke-dasharray:none;stroke-dashoffset:0;stroke-opacity:1"
         d="m 1671.6584,539.29535 c 0,0 17.2298,1.97258 17.2298,1.97258 0,0 0,3.3316 0,3.3316 0,0 -17.2298,-1.99625 -17.2298,-1.99625 0,0 0,-3.30793 0,-3.30793"
         id="path138888-7" />
      <path
         style="opacity:1;fill:#cccccc;fill-opacity:1;fill-rule:nonzero;stroke:none;stroke-width:3;stroke-linecap:round;stroke-linejoin:round;stroke-miterlimit:4;stroke-dasharray:none;stroke-dashoffset:0;stroke-opacity:1"
         d="m 1682.1541,533.48204 c 0,0 17.1331,1.91182 17.1331,1.91182 0,0 0,3.34588 0,3.34588 0,0 -17.1331,-1.93536 -17.1331,-1.93536 0,0 0,-3.32234 0,-3.32234"
         id="path138890-6" />
      <path
         style="opacity:1;fill:#cccccc;fill-opacity:1;fill-rule:nonzero;stroke:none;stroke-width:3;stroke-linecap:round;stroke-linejoin:round;stroke-miterlimit:4;stroke-dasharray:none;stroke-dashoffset:0;stroke-opacity:1"
         d="m 1690.4036,541.44143 c 0,0 6.1622,0.70549 6.1622,0.70549 0,0 0,3.34214 0,3.34214 0,0 -6.1622,-0.71395 -6.1622,-0.71395 0,0 0,-3.33368 0,-3.33368"
         id="path138892-1" />
      <path
         d="m 1663.8563,513.02856 c -0.5368,0.62052 -0.6533,1.55733 -0.309,2.42242 0.1418,0.34761 0.3292,0.6237 0.2634,0.38766 -0.152,-0.55053 -0.1823,-1.42647 -0.066,-1.99798 0.041,-0.19214 0.1317,-0.49907 0.2026,-0.68264 0.071,-0.18901 0.1266,-0.34143 0.1165,-0.34795 -0.01,-0.006 -0.1013,0.0932 -0.2077,0.21849 0,0 0,0 0,0"
         id="path138898-4"
         style="fill:#1f7a7a;fill-opacity:1;stroke:none" />
      <path
         d="m 1668.5252,513.43721 c 0.2492,0.66546 0.3357,1.1227 0.3408,1.75737 0.01,0.4324 -0.02,0.73038 -0.081,0.94811 -0.046,0.17012 -0.076,0.32542 -0.061,0.33797 0.01,0.0121 0.076,-0.0795 0.1475,-0.20316 0.5087,-0.87608 0.4222,-1.98412 -0.2187,-2.79975 0,0 -0.2136,-0.26816 -0.2136,-0.26816 0,0 0.086,0.22762 0.086,0.22762"
         id="path138900-9"
         style="fill:#1f7a7a;fill-opacity:1;stroke:none" />
      <path
         d="m 1664.5352,513.4156 c -0.299,0.33443 -0.3801,0.59333 -0.3801,1.20438 0,0.51831 0.01,0.56301 0.1723,0.9074 0.096,0.19564 0.1774,0.35146 0.1875,0.34709 0.01,-0.0104 -0.02,-0.15492 -0.061,-0.32288 -0.1469,-0.62108 -0.071,-1.46976 0.1825,-2.08178 0.056,-0.13065 0.091,-0.23611 0.081,-0.23715 -0.01,0 -0.096,0.0828 -0.1825,0.18294 0,0 0,0 0,0"
         id="path138902-2"
         style="fill:#1f7a7a;fill-opacity:1;stroke:none" />
      <path
         d="m 1667.8847,513.76411 c 0.2592,0.60623 0.3507,1.69789 0.1881,2.23826 -0.1068,0.35493 0.01,0.25245 0.1982,-0.17593 0.2034,-0.45419 0.2034,-1.0445 0,-1.54665 -0.076,-0.19376 -0.2186,-0.44357 -0.3151,-0.55199 0,0 -0.1728,-0.19831 -0.1728,-0.19831 0,0 0.1016,0.23462 0.1016,0.23462"
         id="path138904-0"
         style="fill:#1f7a7a;fill-opacity:1;stroke:none" />
      <path
         d="m 1664.966,513.98982 c -0.299,0.39446 -0.3548,0.9889 -0.1318,1.48706 0.1318,0.29216 0.1623,0.30083 0.096,0.0319 -0.081,-0.33596 -0.025,-1.14875 0.1014,-1.44115 0.056,-0.13609 0.096,-0.24648 0.086,-0.24755 -0.01,0 -0.081,0.0734 -0.1521,0.16973 0,0 0,0 0,0"
         id="path138906-1"
         style="fill:#1f7a7a;fill-opacity:1;stroke:none" />
      <path
         d="m 1681.9526,515.63458 c -0.3651,0.0277 -0.8738,0.23309 -1.1307,0.45349 -0.6214,0.52827 -0.683,1.65874 -0.1387,2.36419 0.2671,0.34681 0.596,0.57935 1.0946,0.78043 0.4833,0.19401 0.9,0.44149 1.0646,0.63488 0.1801,0.21152 0.1801,0.58545 0,0.79725 -0.1543,0.17053 -0.571,0.25817 -0.8538,0.16761 -0.2623,-0.0773 -0.6735,-0.34088 -0.8893,-0.5671 -0.1592,-0.17074 -0.2003,-0.19158 -0.2569,-0.13165 -0.036,0.0401 -0.2362,0.24408 -0.4468,0.45793 0,0 -0.3799,0.39346 -0.3799,0.39346 0,0 0.154,0.1537 0.154,0.1537 0.2105,0.2092 0.8115,0.57547 1.1814,0.71936 0.1799,0.0742 0.5141,0.14285 0.7969,0.17306 1.3481,0.14407 2.1412,-0.44239 2.203,-1.61871 0.051,-1.00687 -0.3451,-1.53836 -1.5343,-2.08168 -0.5967,-0.27169 -1.0184,-0.5524 -1.0904,-0.71932 -0.072,-0.18343 -0.015,-0.47975 0.1286,-0.60758 0.3496,-0.31515 0.9978,-0.18683 1.5742,0.31348 0,0 0.1442,0.1251 0.1442,0.1251 0,0 0.4429,-0.43213 0.4429,-0.43213 0,0 0.4482,-0.43175 0.4482,-0.43175 0,0 -0.2473,-0.20191 -0.2473,-0.20191 -0.6335,-0.52813 -1.4622,-0.80145 -2.2645,-0.74211 0,0 0,0 0,0"
         id="path138908-8"
         style="fill:#1f7a7a;fill-opacity:1;stroke:none" />
      <path
         d="m 1667.529,514.39365 c 0.1321,0.38531 0.1728,0.79937 0.1118,1.19185 -0.03,0.17709 -0.041,0.33447 -0.03,0.34647 0.01,0.0121 0.066,-0.0805 0.1219,-0.20576 0.1932,-0.44424 0.097,-1.19748 -0.193,-1.51179 0,0 -0.1067,-0.10946 -0.1067,-0.10946 0,0 0.097,0.28869 0.097,0.28869"
         id="path138910-6"
         style="fill:#1f7a7a;fill-opacity:1;stroke:none" />
      <path
         d="m 1665.9043,514.18594 c -0.2892,0.13359 -0.416,0.31144 -0.4464,0.64122 -0.046,0.54114 0.2841,0.96876 0.8016,1.0231 0.4975,0.0522 0.8124,-0.24246 0.8124,-0.75595 0,-0.36051 -0.1626,-0.67247 -0.4317,-0.84254 -0.269,-0.17005 -0.4568,-0.18416 -0.7359,-0.0659 0,0 0,3e-5 0,3e-5"
         id="path138912-3"
         style="fill:#1f7a7a;fill-opacity:1;stroke:none" />
      <path
         d="m 1671.9216,516.42829 c -0.7544,0.87838 -1.7987,2.10287 -2.3281,2.72484 -0.5292,0.62173 -0.9971,1.16769 -1.0378,1.21253 -0.071,0.0853 -0.03,0.0951 0.7885,0.1826 0,0 0.8653,0.0924 0.8653,0.0924 0,0 0.4482,-0.55393 0.4482,-0.55393 0,0 0.4483,-0.5541 0.4483,-0.5541 0,0 1.1012,0.12801 1.1012,0.12801 0,0 1.0971,0.13307 1.0971,0.13307 0,0 -0.015,0.58434 -0.015,0.58434 0,0 -0.015,0.58986 -0.015,0.58986 0,0 0.6689,0.0715 0.6689,0.0715 0,0 0.6693,0.0715 0.6693,0.0715 0,0 0,-3.06859 0,-3.06859 0,0 0,-3.0686 0,-3.0686 0,0 -0.6642,-0.0693 -0.6642,-0.0693 0,0 -0.6587,-0.0687 -0.6587,-0.0687 0,0 -1.3674,1.59256 -1.3674,1.59256 m 1.3725,1.18465 c -0.01,0.50825 -0.025,0.92283 -0.031,0.92231 -0.025,0.0302 -1.2551,-0.089 -1.2551,-0.11639 0,-0.0985 1.2092,-1.72858 1.2755,-1.72161 0.015,0 0.02,0.41291 0.01,0.91569 0,0 0,0 0,0"
         id="path138914-4"
         style="fill:#1f7a7a;fill-opacity:1;stroke:none" />
      <path
         d="m 1675.2867,518.09705 c 0,0 0.015,3.06014 0.015,3.06014 0,0 0.6803,0.0891 0.6803,0.0891 0,0 0.6755,0.0886 0.6755,0.0886 0,0 0,-1.23944 0,-1.23944 0,0 0,-1.23947 0,-1.23947 0,0 0.2407,0.0419 0.2407,0.0419 0,0 0.2355,0.0413 0.2355,0.0413 0,0 0.5942,1.22605 0.5942,1.22605 0.328,0.67691 0.6202,1.25685 0.6509,1.29306 0.036,0.0422 0.3384,0.091 0.8308,0.13262 0,0 0.7749,0.0663 0.7749,0.0663 0,0 -0.2207,-0.40796 -0.2207,-0.40796 -0.1232,-0.2273 -0.4567,-0.83932 -0.744,-1.36394 -0.2821,-0.51845 -0.5179,-0.96054 -0.5179,-0.97153 0,-0.0111 0.123,-0.0693 0.2717,-0.13595 0.3437,-0.15034 0.5745,-0.36204 0.7439,-0.68461 0.1129,-0.22421 0.1334,-0.3319 0.1385,-0.75418 0,-0.43379 -0.015,-0.53423 -0.1437,-0.82222 -0.2411,-0.55781 -0.7079,-0.93591 -1.3693,-1.11466 -0.1845,-0.0522 -0.9017,-0.1544 -1.6032,-0.22754 0,0 -1.2637,-0.13175 -1.2637,-0.13175 0,0 0.01,3.05413 0.01,3.05413 m 2.6722,-1.49042 c 0.2153,0.13782 0.3895,0.41402 0.3895,0.6116 0,0.24148 -0.1589,0.48817 -0.3792,0.5857 -0.1743,0.0804 -0.3024,0.0889 -0.7634,0.0403 0,0 -0.5479,-0.0522 -0.5479,-0.0522 0,0 0,-0.6861 0,-0.6861 -0.01,-0.37893 -0.01,-0.70798 0,-0.72942 0,-0.0271 0.2509,-0.0121 0.5581,0.0312 0.4098,0.0539 0.5994,0.10668 0.748,0.19907 0,0 0,0 0,0"
         id="path138916-2"
         style="fill:#1f7a7a;fill-opacity:1;stroke:none" />
      <path
         d="m 1687.1982,518.24133 c -0.1549,0.0609 -0.382,0.20219 -0.4956,0.3114 0,0 -0.2116,0.20351 -0.2116,0.20351 0,0 -0.036,-0.31217 -0.036,-0.31217 0,0 -0.036,-0.31216 -0.036,-0.31216 0,0 -0.3354,-0.0352 -0.3354,-0.0352 0,0 -0.3302,-0.0347 -0.3302,-0.0347 0,0 0,2.03683 0,2.03683 0,0 0,2.03683 0,2.03683 0,0 0.3869,0.0413 0.3869,0.0413 0,0 0.387,0.0413 0.387,0.0413 0,0 0,-1.29406 0,-1.29406 0,-1.47031 0.031,-1.6047 0.4182,-1.93286 0.2375,-0.20632 0.3718,-0.23625 0.7488,-0.16348 0.3152,0.0607 0.4806,0.20489 0.646,0.56398 0.088,0.19665 0.098,0.34654 0.098,1.6251 0,0 0,1.40532 0,1.40532 0,0 0.3929,0.042 0.3929,0.042 0,0 0.3879,0.0414 0.3879,0.0414 0,0 -0.015,-1.56177 -0.015,-1.56177 -0.015,-1.51214 -0.021,-1.56232 -0.1396,-1.8174 -0.269,-0.57953 -0.605,-0.84082 -1.1942,-0.93574 -0.3358,-0.0573 -0.4236,-0.05 -0.6715,0.0506 0,0 0,0 0,0"
         id="path138918-0"
         style="fill:#1f7a7a;fill-opacity:1;stroke:none" />
      <path
         d="m 1691.5076,518.63891 c -0.5285,0.11553 -0.9791,0.49289 -1.2432,1.0497 -0.1294,0.26209 -0.1449,0.3542 -0.1449,0.87258 0,0.54599 0.01,0.60776 0.1656,0.96067 0.4039,0.91999 1.3158,1.50285 2.2439,1.44191 0.7211,-0.0445 1.2247,-0.38288 1.5414,-1.03406 0.187,-0.37237 0.1974,-0.43202 0.1974,-0.89606 0,-0.58007 -0.094,-0.91034 -0.3791,-1.36578 -0.2129,-0.33173 -0.6905,-0.73538 -1.0693,-0.89113 -0.3164,-0.13263 -1.0164,-0.20611 -1.3118,-0.13783 0,0 0,0 0,0 m 1.2755,0.85725 c 0.4722,0.30374 0.7837,0.9938 0.7162,1.59968 -0.067,0.59478 -0.4256,1.06475 -0.8822,1.16522 -0.8918,0.19196 -1.6743,-0.47621 -1.7364,-1.48134 -0.041,-0.69394 0.2279,-1.22272 0.7253,-1.43515 0.3318,-0.13616 0.8192,-0.0738 1.1771,0.15159 0,0 0,0 0,0"
         id="path138920-5"
         style="fill:#1f7a7a;fill-opacity:1;stroke:none" />
      <path
         d="m 1699.9167,519.56653 c -0.3548,0.0901 -0.8347,0.31085 -0.8347,0.38281 0,0.0277 0.089,0.14775 0.1982,0.27 0,0 0.1982,0.2257 0.1982,0.2257 0,0 0.3652,-0.16081 0.3652,-0.16081 0.501,-0.2186 0.9344,-0.21177 1.2687,0.0118 0.2977,0.19758 0.4127,0.38146 0.4545,0.70722 0,0 0.031,0.2582 0.031,0.2582 0,0 -0.2456,0.007 -0.2456,0.007 -0.1358,0.008 -0.3761,0 -0.5328,-0.0177 -0.3237,-0.0343 -0.9657,0.0309 -1.237,0.11836 -0.2139,0.0715 -0.5321,0.32011 -0.6155,0.48284 -0.1825,0.33488 -0.1356,0.95973 0.094,1.29968 0.073,0.1074 0.2556,0.28189 0.4016,0.38048 0.2452,0.15905 0.3235,0.18402 0.7932,0.23417 0.59,0.063 0.825,0 1.1907,-0.33273 0,0 0.1933,-0.17889 0.1933,-0.17889 0,0 0,0.28814 0,0.28814 0,0 0,0.28813 0,0.28813 0,0 0.3554,0.0379 0.3554,0.0379 0,0 0.3503,0.0374 0.3503,0.0374 0,0 -0.026,-1.53808 -0.026,-1.53808 0,0 -0.026,-1.5436 -0.026,-1.5436 0,0 -0.1464,-0.33689 -0.1464,-0.33689 -0.084,-0.18062 -0.23,-0.4066 -0.3241,-0.4941 -0.4389,-0.40075 -1.285,-0.58931 -1.9062,-0.42749 0,0 0,0 0,0 m 1.6711,2.53049 c 0,0.49313 -0.2143,0.86377 -0.5956,1.02816 -0.4334,0.18648 -1.0024,0.0649 -1.2581,-0.27239 -0.1565,-0.19935 -0.1409,-0.57415 0.026,-0.74467 0.2661,-0.27634 0.5793,-0.33728 1.3469,-0.26705 0,0 0.4807,0.0454 0.4807,0.0454 0,0 0,0.21055 0,0.21055"
         id="path138922-9"
         style="fill:#1f7a7a;fill-opacity:1;stroke:none" />
      <path
         d="m 1694.6055,519.01961 c 0,0.0166 0.3377,0.9417 0.7536,2.06329 0.416,1.12194 0.754,2.06458 0.754,2.09773 0,0.0387 0.1561,0.0775 0.4579,0.1097 0,0 0.4529,0.0428 0.4529,0.0428 0,0 0.7655,-1.94864 0.7655,-1.94864 0,0 0.7608,-1.95044 0.7608,-1.95044 0,0 -0.3648,-0.0549 -0.3648,-0.0549 -0.2032,-0.0322 -0.3908,-0.0355 -0.4168,-0.0108 -0.037,0.0349 -1.031,2.66217 -1.1195,2.94583 -0.016,0.0537 -0.047,0.0946 -0.068,0.0924 -0.021,-0.003 -0.1978,-0.47444 -0.3903,-1.05327 -0.1924,-0.57321 -0.4473,-1.31875 -0.5617,-1.66245 0,0 -0.2184,-0.61437 -0.2184,-0.61437 0,0 -0.4003,-0.0421 -0.4003,-0.0421 -0.2234,-0.0236 -0.4053,-0.0316 -0.4053,-0.0149 0,0 0,0 0,0"
         id="path138924-4"
         style="fill:#1f7a7a;fill-opacity:1;stroke:none" />
      <path
         d="m 1665.7318,516.12244 c -0.3195,0.0701 -0.3348,0.11219 -0.3348,1.06201 0,0.78057 0.015,0.92412 0.1522,1.52275 0.3095,1.32136 0.3551,1.41905 0.7306,1.45914 0.2843,0.0305 0.3554,-0.0329 0.4823,-0.44007 0.2793,-0.92068 0.3656,-1.39769 0.3961,-2.25209 0.025,-0.80582 0.025,-0.84952 -0.081,-1.00278 -0.061,-0.0883 -0.1981,-0.19563 -0.2996,-0.23906 -0.2234,-0.089 -0.8375,-0.15356 -1.0455,-0.1099 0,0 0,0 0,0"
         id="path138926-4"
         style="fill:#1f7a7a;fill-opacity:1;stroke:none" />
      <path
         style="fill:#000000;fill-opacity:1;fill-rule:evenodd;stroke:none;stroke-width:0.80514383px;stroke-linecap:butt;stroke-linejoin:miter;stroke-opacity:1"
         d="m 1650.329,506.06195 c -0.589,-0.0592 -1.0658,0.40909 -1.0664,1.04687 l 0,8.77344 a 17.701117,17.849392 0 0 0 -10.4589,-3.47266 17.701117,17.849392 0 0 0 -17.7012,17.84961 17.701117,17.849392 0 0 0 17.7012,17.84961 17.701117,17.849392 0 0 0 10.6289,-3.5957 c 0.187,0.35546 0.5099,0.62782 0.8964,0.67383 l 21.625,2.55078 0,3.66601 -13.7773,-1.64648 0,2.71875 30.4902,3.67773 0.9043,0.10938 6.6719,0.80469 0,-0.72657 c 1.3967,-0.0565 3.1816,-0.10531 5.4473,-0.041 1.9795,0.0555 3.9683,0.20603 5.4414,0.51367 0.7366,0.15375 1.3428,0.35149 1.7304,0.5625 0.3877,0.21101 0.5027,0.3893 0.5196,0.51172 0.028,0.20117 -0.022,0.3512 -0.1836,0.56055 -0.1613,0.20933 -0.4407,0.43814 -0.7637,0.65234 -0.3231,0.2142 -0.685,0.41627 -1.0176,0.61328 -0.3326,0.19686 -0.6343,0.36498 -0.8808,0.6582 -0.1234,0.14654 -0.2501,0.36319 -0.2403,0.63868 0.011,0.27561 0.1731,0.51124 0.3438,0.6582 0.3415,0.29419 0.7792,0.44217 1.4863,0.63086 1.4143,0.3771 3.89,0.78631 8.0996,1.32422 0.8757,0.1123 1.5352,0.2512 1.9688,0.39843 0.409,0.13905 0.5477,0.28495 0.5625,0.29688 -0.011,0.0208 -0.011,0.0361 -0.061,0.0957 -0.1409,0.16942 -0.48,0.44058 -0.9785,0.73047 -1.6368,0.95189 -4.9997,2.19526 -9.3262,3.59766 -0.9118,-0.75 -2.254,-1.22322 -3.9785,-1.16992 -3.8099,0.11779 -6.1754,2.81829 -8.334,5.21679 0,0 -0.06,0.35894 -0.1797,0.89844 -0.1199,0.5398 2.0996,2.69716 3.2988,3.47656 1.1994,0.7795 3.8777,0.14116 7.3145,-1.49805 3.1473,-1.5012 3.8532,-4.12351 2.707,-5.97851 4.1129,-1.338 7.3076,-2.52611 9.0762,-3.55469 0.5587,-0.32483 0.9829,-0.62753 1.2812,-0.98633 0.1492,-0.17939 0.2708,-0.38042 0.3243,-0.62304 0.054,-0.24262 0.014,-0.52287 -0.1094,-0.74414 -0.2463,-0.44226 -0.6784,-0.65548 -1.2324,-0.84375 -0.5541,-0.18841 -1.2708,-0.33556 -2.1914,-0.45313 -4.1929,-0.5357 -6.6619,-0.94761 -7.9493,-1.29101 -0.4514,-0.12062 -0.5692,-0.19985 -0.7265,-0.27735 0.1044,-0.0749 0.1449,-0.11653 0.3066,-0.21289 0.3101,-0.18369 0.6909,-0.39539 1.0664,-0.64453 0.3755,-0.24899 0.7483,-0.5336 1.0371,-0.9082 0.2889,-0.3746 0.4927,-0.87645 0.418,-1.41797 -0.086,-0.62041 -0.5581,-1.0602 -1.1113,-1.36133 -0.5533,-0.30112 -1.2472,-0.51081 -2.0469,-0.67773 -1.5988,-0.33398 -3.6267,-0.48209 -5.6406,-0.53907 -1.3295,-0.0374 -2.5364,-0.037 -3.5938,-0.0195 -0.736,0.0123 -1.2992,0.0376 -1.8847,0.0605 l 0,-0.88867 -14.0567,-1.67969 0,-3.68164 22.209,2.62109 c 0.617,0.0727 1.1171,-0.3991 1.1172,-1.05273 l 0,-37.66211 c -6e-4,-0.65332 -0.5005,-1.23414 -1.1172,-1.29688 l -54.0664,-5.49218 z m 1.0684,2.42187 51.8809,5.32227 0,35.26172 -51.8809,-6.07032 0,-0.21484 a 17.701117,17.849392 0 0 0 5.1074,-12.52344 17.701117,17.849392 0 0 0 -5.1074,-12.53515 l 0,-9.24024 z"
         id="path28254-1-1" />
      <path
         style="fill:#000000;fill-opacity:1;fill-rule:evenodd;stroke:none;stroke-width:0.80514383px;stroke-linecap:butt;stroke-linejoin:miter;stroke-opacity:1"
         d="m 1769.6406,518.74805 c -0.6209,-0.0624 -1.1244,0.43123 -1.125,1.10351 l 0,9.24805 a 18.658499,18.814795 0 0 0 -11.0234,-3.66016 18.658499,18.814795 0 0 0 -18.6582,18.81446 18.658499,18.814795 0 0 0 18.6582,18.81445 18.658499,18.814795 0 0 0 11.2031,-3.79102 c 0.1972,0.37463 0.5379,0.66244 0.9453,0.71094 l 22.793,2.68945 0,3.86329 -14.5215,-1.73438 0,2.86524 32.1387,3.87695 0.9531,0.11523 1.6074,0.19336 0,-2.9043 -9.3906,-1.12304 0,-3.88086 9.3906,1.10742 0,-2.48047 -41.8437,-4.89648 0,-0.22657 a 18.658499,18.814795 0 0 0 5.3828,-13.19921 18.658499,18.814795 0 0 0 -5.3828,-13.21289 l 0,-9.74024 41.8437,4.29297 0,-2.48047 -42.9707,-4.36523 z"
         transform="translate(-1.2207031e-4,0)"
         id="path28264-3-8" />
      <rect
         y="447.88354"
         x="1605.5798"
         height="157.00214"
         width="207.03087"
         id="rect476783"
         style="opacity:1;fill:none;fill-opacity:1;fill-rule:nonzero;stroke:#666666;stroke-width:0.29785961;stroke-linecap:round;stroke-linejoin:round;stroke-miterlimit:4;stroke-dasharray:none;stroke-dashoffset:0;stroke-opacity:1" />
    </g>
  </g>
</svg>
