<?xml version="1.0" encoding="UTF-8" standalone="no"?>
<!-- Created with Inkscape (http://www.inkscape.org/) -->

<svg
   xmlns:dc="http://purl.org/dc/elements/1.1/"
   xmlns:cc="http://creativecommons.org/ns#"
   xmlns:rdf="http://www.w3.org/1999/02/22-rdf-syntax-ns#"
   xmlns:svg="http://www.w3.org/2000/svg"
   xmlns="http://www.w3.org/2000/svg"
   xmlns:sodipodi="http://sodipodi.sourceforge.net/DTD/sodipodi-0.dtd"
   xmlns:inkscape="http://www.inkscape.org/namespaces/inkscape"
   width="210"
   height="160"
   viewBox="0 0 210 160"
   id="svg5156"
   version="1.1"
   inkscape:version="0.91 r13725"
   sodipodi:docname="elearning-B.svg">
  <defs
     id="defs5158">
    <linearGradient
       gradientTransform="matrix(1.2219423,0,0,0.81836924,-767.16729,-40.990215)"
       id="gradientFill"
       x1="0.74144253"
       x2="590.86259"
       y1="3.6658269"
       y2="593.78698"
       gradientUnits="userSpaceOnUse"
       spreadMethod="pad">
      <stop
         offset="0"
         stop-color="rgb(203,206,208)"
         stop-opacity="1"
         id="stop6361" />
      <stop
         offset="1"
         stop-color="rgb(132,131,139)"
         stop-opacity="1"
         id="stop6363" />
    </linearGradient>
    <linearGradient
       gradientTransform="matrix(1.2219423,0,0,0.81836924,-767.16729,-40.990215)"
       id="gradientFill-0"
       x1="0.7414425"
       x2="590.86261"
       y1="3.6658268"
       y2="593.78699"
       gradientUnits="userSpaceOnUse"
       spreadMethod="pad">
      <stop
         offset="0"
         stop-color="rgb(203,206,208)"
         stop-opacity="1"
         id="stop6361-6" />
      <stop
         offset="1"
         stop-color="rgb(132,131,139)"
         stop-opacity="1"
         id="stop6363-2" />
    </linearGradient>
  </defs>
  <sodipodi:namedview
     id="base"
     pagecolor="#ffffff"
     bordercolor="#666666"
     borderopacity="1.0"
     inkscape:pageopacity="0.0"
     inkscape:pageshadow="2"
     inkscape:zoom="1.979899"
     inkscape:cx="149.51481"
     inkscape:cy="153.99793"
     inkscape:document-units="px"
     inkscape:current-layer="layer1"
     showgrid="false"
     units="px"
     inkscape:window-width="1920"
     inkscape:window-height="1043"
     inkscape:window-x="1920"
     inkscape:window-y="0"
     inkscape:window-maximized="1" />
  <metadata
     id="metadata5161">
    <rdf:RDF>
      <cc:Work
         rdf:about="">
        <dc:format>image/svg+xml</dc:format>
        <dc:type
           rdf:resource="http://purl.org/dc/dcmitype/StillImage" />
        <dc:title></dc:title>
      </cc:Work>
    </rdf:RDF>
  </metadata>
  <g
     inkscape:label="Layer 1"
     inkscape:groupmode="layer"
     id="layer1"
     transform="translate(0,-892.36221)">
    <g
       id="g23994"
       transform="translate(-752.28997,337.64794)">
      <g
         transform="translate(-389.47984,-818.9853)"
         id="g23962">
        <g
           id="g17414-2-5"
           transform="matrix(0.82758111,0,0,0.82758111,307.72197,823.2881)">
          <path
             style="fill:#000000;fill-opacity:1;fill-rule:evenodd;stroke:none;stroke-width:0.80514383px;stroke-linecap:butt;stroke-linejoin:miter;stroke-opacity:1"
             d="m 1066.8561,680.71093 c -1.296,-0.0218 -2.4177,1.03886 -2.5094,2.36921 l -5.2063,76.7249 c -0.089,1.32978 0.8751,2.54798 2.1606,2.72225 l 50.1874,6.74181 -0.5529,8.13273 -32.6415,-4.74268 -0.3786,5.53808 96.8738,14.8235 0.1655,-2.42026 c 2.7053,-0.13001 6.8843,-0.28614 12.0502,-0.14025 3.7574,0.10606 7.5315,0.39447 10.3276,0.97831 1.3981,0.29194 2.5521,0.66717 3.288,1.06763 0.7359,0.40047 0.9506,0.73749 0.9826,0.96981 0.052,0.38166 -0.041,0.66606 -0.3488,1.06338 -0.3062,0.39732 -0.8331,0.8354 -1.4461,1.24202 -0.6133,0.40662 -1.3041,0.78743 -1.9354,1.1612 -0.6314,0.3738 -1.1993,0.68993 -1.6673,1.24629 -0.2342,0.27817 -0.4783,0.68928 -0.4596,1.21225 0.022,0.52298 0.3267,0.97141 0.6508,1.25054 0.6483,0.55826 1.4822,0.84148 2.8244,1.19949 2.6845,0.71602 7.3818,1.48863 15.3722,2.50956 1.6621,0.21234 2.9117,0.47753 3.7347,0.75714 0.7764,0.26386 1.0436,0.54303 1.0717,0.56572 -0.022,0.0383 -0.022,0.0656 -0.1154,0.17858 -0.2675,0.32173 -0.9125,0.8363 -1.8588,1.38665 -3.1068,1.80679 -9.4867,4.17323 -17.699,6.8354 -1.7307,-1.42361 -4.2765,-2.32583 -7.55,-2.2246 -7.2316,0.22363 -11.7257,5.34972 -15.823,9.90219 0,0 -0.1132,0.68135 -0.3402,1.70565 -0.2275,1.02431 3.985,5.1219 6.2612,6.60146 2.2765,1.47951 7.3601,0.26564 13.8835,-2.8456 5.9739,-2.84933 7.3137,-7.82741 5.1381,-11.34839 7.8067,-2.53961 13.8697,-4.79372 17.2268,-6.74606 1.0606,-0.61679 1.8668,-1.19051 2.433,-1.87155 0.2831,-0.34052 0.5153,-0.72194 0.6168,-1.18248 0.1023,-0.46052 0.026,-0.99661 -0.2091,-1.41642 -0.4676,-0.83963 -1.2877,-1.24616 -2.3394,-1.60358 -1.0516,-0.3574 -2.4082,-0.63165 -4.1557,-0.85494 -7.9585,-1.01688 -12.648,-1.80259 -15.0914,-2.45429 -0.857,-0.22859 -1.0796,-0.3762 -1.3782,-0.52318 0.1982,-0.14286 0.2716,-0.22241 0.5785,-0.40409 0.5886,-0.34844 1.316,-0.75234 2.0288,-1.22501 0.7128,-0.47265 1.4171,-1.01154 1.9652,-1.72266 0.5484,-0.71114 0.933,-1.66441 0.7912,-2.69248 -0.1633,-1.17743 -1.0553,-2.01466 -2.1055,-2.58614 -1.0501,-0.57147 -2.3655,-0.96759 -3.8834,-1.28457 -3.0348,-0.63368 -6.8877,-0.91283 -10.7104,-1.02084 l 0,0 c -5.0469,-0.14221 -9.1466,-0.002 -11.9566,0.12761 l 0.1154,-1.67588 -38.324,-5.56785 0.5743,-8.41347 62.1607,8.34966 c 1.8516,0.24843 3.4492,-0.84971 3.5603,-2.45427 l 6.3844,-92.52671 c 0.1111,-1.60573 -1.3234,-2.93597 -3.19,-2.96895 l -139.5282,-2.44577 z m 2.0291,4.8958 133.7389,3.26244 -5.9293,86.01883 -132.7225,-16.8992 4.9129,-72.38207 z"
             id="path5787-8-9-3-6-2-6"
             inkscape:connector-curvature="0" />
          <path
             inkscape:connector-curvature="0"
             style="fill:#ffffff;fill-rule:evenodd;stroke:none;stroke-width:1px;stroke-linecap:butt;stroke-linejoin:miter;stroke-opacity:1"
             d="m 1068.8854,685.60519 -4.9129,72.38206 132.7225,16.90347 5.9293,-86.02308 -133.7389,-3.26245 z"
             id="path17085-9-17-5" />
          <path
             inkscape:connector-curvature="0"
             style="fill:#000000;fill-opacity:1;fill-rule:evenodd;stroke:none;stroke-width:1px;stroke-linecap:butt;stroke-linejoin:miter;stroke-opacity:1"
             d="m 1113.2792,793.34245 c 1.4888,3.75926 3.0459,7.71725 6.2144,15.62317 0.581,1.44945 1.0601,2.61488 1.6377,4.04935 l 23.2242,3.95576 21.0293,-14.78946 -52.1056,-8.83882 z"
             id="path17094-1-9-6" />
          <ellipse
             ry="33.880234"
             rx="33.598793"
             cy="741.03363"
             cx="1067.6401"
             id="path5071-73-2-2-1-5-3-7-8"
             style="opacity:1;fill:#000000;fill-opacity:1;fill-rule:nonzero;stroke:none;stroke-width:2;stroke-linecap:round;stroke-linejoin:round;stroke-miterlimit:4;stroke-dasharray:none;stroke-dashoffset:0;stroke-opacity:1" />
          <path
             style="opacity:1;fill:#000000;fill-opacity:1;fill-rule:nonzero;stroke:none;stroke-width:1.60000002;stroke-linecap:round;stroke-linejoin:round;stroke-miterlimit:4;stroke-dasharray:none;stroke-dashoffset:0;stroke-opacity:1"
             d="m 1029.5955,774.72057 c -4.1415,0.0851 -7.6504,3.07475 -8.3921,7.15017 -2.7965,14.20281 -4.4523,22.92555 -5.1425,28.8048 -0.3449,2.93961 -0.5982,5.03072 -0.098,7.91578 0.2503,1.44253 0.6978,3.34072 2.4372,5.35943 1.7111,1.98567 4.8504,3.25888 7.048,3.35603 2.3516,0.10258 3.116,-0.29193 3.973,-0.55721 0.5231,-0.16203 0.9913,-0.35968 1.4715,-0.54445 l 0,30.58277 73.4966,0 0,-34.34714 c 1.8429,4.58442 3.7223,9.24807 5.2232,12.89667 0.9041,2.19731 1.6929,4.09045 2.3225,5.55509 0.6298,1.46461 0.3813,1.48303 1.7993,3.75158 1.6015,2.56255 3.6728,3.40939 4.9044,3.81542 1.2315,0.40601 2.0192,0.46335 2.6839,0.50192 1.3293,0.0771 2.1924,-0.0281 3.1136,-0.14461 1.8422,-0.23322 3.7314,-0.63683 5.9123,-1.15271 4.3617,-1.03173 9.713,-2.54177 15.0192,-4.11739 10.6124,-3.15125 20.9741,-6.55892 20.9741,-6.55892 11.2836,-3.49927 5.7187,-20.42841 -5.4403,-16.55043 0,0 -10.2002,3.34931 -20.4933,6.4058 -5.0737,1.50652 -10.1477,2.92413 -13.8709,3.81115 -0.2885,-0.69389 -0.4878,-1.15508 -0.8123,-1.94386 -1.7699,-4.30154 -4.0233,-9.87974 -6.2316,-15.38922 -4.4161,-11.01895 -8.6643,-21.77373 -8.6643,-21.77373 -2.1905,-3.36897 -4.9147,-5.06229 -8.1794,-5.62316 -24.2753,-2.97834 -49.0112,-8.54621 -73.0543,-11.20376 z"
             id="rect17134-7-6-4"
             inkscape:connector-curvature="0"
             sodipodi:nodetypes="cccscccccccccccccsscccccccccc" />
        </g>
        <g
           style="fill:#1f7a7a;fill-opacity:1;stroke:none"
           transform="matrix(0.01318977,0,0,-0.01318977,1182.5718,1272.4799)"
           id="g23173">
          <path
             inkscape:connector-curvature="0"
             d="m 2371.1722,-9238.2917 c -85.4483,-91.1404 -111.4931,-221.7134 -68.6495,-338.1148 17.7502,-46.8051 42.9577,-83.3425 35.4072,-51.2591 -17.3568,74.8004 -13.6158,195.6886 9.0474,275.8763 7.8244,26.9868 24.2547,70.3643 36.5206,96.4828 12.3231,26.886 22.0462,48.5593 20.6008,49.358 -0.697,0.7772 -15.9406,-13.9217 -32.9265,-32.3432 0,0 0,0 0,0"
             id="path23175"
             style="fill:#1f7a7a;fill-opacity:1" />
          <path
             inkscape:connector-curvature="0"
             d="m 3069.9297,-9248.1591 c 31.6545,-90.8684 40.4825,-154.2046 35.1867,-243.2479 -3.3606,-60.6509 -10.0949,-102.7158 -21.4941,-133.8301 -8.6117,-24.2864 -14.7522,-46.3532 -12.5447,-47.9759 1.437,-1.5932 12.4004,11.8313 24.4538,29.8366 86.1853,127.7562 83.557,282.6774 -6.5989,390.8187 0,0 -30.0041,35.437 -30.0041,35.437 0,0 11.0013,-31.0384 11.0013,-31.0384 0,0 0,0 0,0"
             id="path23177"
             style="fill:#1f7a7a;fill-opacity:1" />
          <path
             inkscape:connector-curvature="0"
             d="m 2468.5521,-9285.1466 c -47.691,-49.3069 -62.1946,-85.9646 -67.9571,-170.6168 -4.8877,-71.8019 -3.8024,-77.9021 17.0738,-124.1356 12.4891,-26.2444 23.0962,-47.123 24.6478,-46.4232 0.8532,1.485 -1.5579,21.2988 -6.0121,44.2188 -16.0215,84.7374 3.3041,203.0933 46.8521,290.4431 9.5521,18.676 15.8434,33.6621 14.3403,33.707 -1.503,0.045 -15.1504,-12.4425 -28.9448,-27.1933 0,0 0,0 0,0"
             id="path23179"
             style="fill:#1f7a7a;fill-opacity:1" />
          <path
             inkscape:connector-curvature="0"
             d="m 2969.3265,-9300.4028 c 33.6187,-82.3488 37.1163,-234.4283 7.2186,-311.6277 -19.6062,-50.6649 -0.8642,-35.2662 31.8326,26.4594 35.3072,65.5527 40.9485,148.3258 14.7717,216.7534 -9.7553,26.4032 -29.0201,59.9893 -42.6655,74.209 0,0 -24.3557,26.0274 -24.3557,26.0274 0,0 13.1983,-31.8215 13.1983,-31.8215 0,0 0,0 0,0"
             id="path23181"
             style="fill:#1f7a7a;fill-opacity:1" />
          <path
             inkscape:connector-curvature="0"
             d="m 2527.4363,-9360.6009 c -48.3806,-57.6294 -62.3094,-140.6155 -33.7415,-207.6757 16.9212,-39.3612 21.3838,-40.288 14.0804,-3.5534 -8.937,45.8901 7.0723,159.2406 28.7759,201.0619 9.6254,19.4433 16.7359,35.1736 15.2292,35.2211 -1.5067,0.048 -12.8248,-10.9901 -24.344,-25.0539 0,0 0,0 0,0"
             id="path23183"
             style="fill:#1f7a7a;fill-opacity:1" />
          <path
             inkscape:connector-curvature="0"
             d="m 5176.1476,-9427.051 c -60.3235,-7.713 -145.8447,-42.6173 -190.0872,-77.1726 -106.7026,-82.6608 -127.9499,-247.157 -46.1602,-344.6992 40.2253,-48.0703 91.7663,-79.0664 171.6089,-104.106 77.6369,-24.2126 143.9365,-56.8612 169.224,-83.7522 27.6902,-29.446 23.9483,-84.119 -7.9738,-116.511 -27.2208,-26.127 -96.8549,-42.161 -142.53,-31.153 -42.3417,9.228 -107.1952,44.361 -140.2979,75.549 -24.3647,23.542 -30.8789,26.24 -40.7134,17.078 -6.2761,-6.118 -41.0208,-37.333 -77.4913,-70.021 0,0 -65.77,-59.988 -65.77,-59.988 0,0 23.5378,-21.111 23.5378,-21.111 32.2164,-28.755 126.6945,-77.478 185.8352,-95.689 28.7601,-9.48 82.9522,-17.049 129.1805,-19.396 221.4237,-11.246 359.2584,80.599 381.3928,253.731 18.7204,148.2426 -42.089,222.8132 -234.0559,291.8691 -95.8321,34.3384 -162.4606,71.4523 -172.6312,95.118 -10.0014,26.0556 2.2459,69.7434 27.1952,89.7156 60.7391,49.2721 166.5371,36.7335 257.0969,-31.0008 0,0 22.6946,-16.9745 22.6946,-16.9745 0,0 78.0408,67.5115 78.0408,67.5115 0,0 79.131,67.6856 79.131,67.6856 0,0 -39.266,27.2193 -39.266,27.2193 -100.212,71.155 -234.9185,102.8163 -367.9608,86.0972 0,0 0,0 0,0"
             id="path23185"
             style="fill:#1f7a7a;fill-opacity:1" />
          <path
             inkscape:connector-curvature="0"
             d="m 2909.3473,-9391.9892 c 16.3596,-52.6263 18.5791,-110.1698 5.589,-165.6467 -6.3108,-25.0551 -9.3514,-47.1618 -7.9251,-48.747 1.4264,-1.5853 10.7838,11.8617 20.4572,29.901 33.5536,63.968 26.0742,168.4936 -14.8727,209.6589 0,0 -15.1267,14.2623 -15.1267,14.2623 0,0 11.8783,-39.4285 11.8783,-39.4285 0,0 0,0 0,0"
             id="path23187"
             style="fill:#1f7a7a;fill-opacity:1" />
          <path
             inkscape:connector-curvature="0"
             d="m 2666.1548,-9378.7599 c -44.6679,-21.3864 -65.3618,-47.3335 -73.0444,-93.4804 -11.9602,-75.6528 33.4115,-132.1195 110.6593,-134.9977 74.4617,-2.7745 124.8124,41.241 129.6983,112.957 3.4305,50.3545 -18.1607,92.3532 -57.1642,113.4842 -38.936,21.0945 -67.0702,21.2294 -110.149,2.0369 0,0 0,0 0,0"
             id="path23189"
             style="fill:#1f7a7a;fill-opacity:1" />
          <path
             inkscape:connector-curvature="0"
             d="m 3563.9123,-9636.9565 c -125.4192,-130.9722 -298.2024,-312.5516 -385.4182,-404.3605 -86.9142,-91.492 -163.5133,-171.632 -170.1381,-178.223 -11.6544,-12.487 -5.555,-13.564 118.5909,-19.826 0,0 131.8051,-6.648 131.8051,-6.648 0,0 74.3099,81.435 74.3099,81.435 0,0 74.529,81.675 74.529,81.675 0,0 169.4748,-9.49 169.4748,-9.49 0,0 169.8541,-10.3 169.8541,-10.3 0,0 -8.065,-83.179 -8.065,-83.179 0,0 -8.1171,-83.948 -8.1171,-83.948 0,0 104.1425,-5.253 104.1425,-5.253 0,0 104.6015,-5.276 104.6015,-5.276 0,0 29.8914,437.8239 29.8914,437.8239 0,0 29.8946,437.872 29.8946,437.872 0,0 -103.9465,3.3258 -103.9465,3.3258 0,0 -102.6995,3.2858 -102.6995,3.2858 0,0 -228.7094,-238.914 -228.7094,-238.914 0,0 0,0 0,0 m 202.5654,-155.8314 c -6.5287,-72.3336 -12.9474,-131.3936 -13.741,-131.3593 -4.2865,-4.4989 -194.8511,2.1826 -194.5867,6.0586 0.9519,13.9537 205.2921,255.7603 215.6125,255.3723 2.3822,-0.09 -0.8087,-58.5105 -7.2848,-130.0716 0,0 0,0 0,0"
             id="path23191"
             style="fill:#1f7a7a;fill-opacity:1" />
          <path
             inkscape:connector-curvature="0"
             d="m 4075.4732,-9844.5413 c 0,0 -27.4452,-437.3527 -27.4452,-437.3527 0,0 106.9974,-7.752 106.9974,-7.752 0,0 106.6682,-7.746 106.6682,-7.746 0,0 12.1518,177.884 12.1518,177.884 0,0 12.1523,177.8913 12.1523,177.8913 0,0 38.0126,-4.0051 38.0126,-4.0051 0,0 37.2591,-3.9763 37.2591,-3.9763 0,0 83.1809,-171.5439 83.1809,-171.5439 46.0302,-94.958 87.3367,-176.376 91.9342,-181.373 5.365,-5.83 53.6683,-10.65 132.8449,-13.051 0,0 125.057,-3.908 125.057,-3.908 0,0 -31.8254,57.462 -31.8254,57.462 -17.7466,31.979 -65.7719,117.964 -107.0879,191.525 -40.4693,72.594 -74.1739,134.4435 -74.0657,136.0275 0.1083,1.5839 20.5383,11.0443 45.2086,21.9245 57.0551,24.6582 96.5441,57.2665 127.1969,105.4227 20.5452,33.4596 24.9446,49.2311 29.9585,110.4193 4.2947,62.8115 2.7883,77.2124 -15.1921,117.6914 -33.5992,78.3902 -105.4287,128.477 -210.3907,147.7466 -29.1869,5.6934 -143.3412,13.3077 -254.7886,16.8734 0,0 -199.6301,6.3872 -199.6301,6.3872 0,0 -28.1967,-436.5469 -28.1967,-436.5469 0,0 0,0 0,0 m 441.0553,237.9244 c 33.2883,-17.8487 58.6476,-56.0653 56.6998,-84.5638 -2.3806,-34.8313 -30.4138,-71.8349 -66.8404,-87.8516 -28.7974,-13.1254 -49.4521,-15.4726 -122.8882,-12.5502 0,0 -87.0699,2.6757 -87.0699,2.6757 0,0 5.9101,98.4293 5.9101,98.4293 2.8986,54.3459 6.1251,101.5772 7.1521,104.6971 1.0809,3.9072 40.1973,4.0988 88.9398,0.7897 65.1806,-3.8961 95.1126,-9.7121 118.0967,-21.6262 0,0 0,0 0,0"
             id="path23193"
             style="fill:#1f7a7a;fill-opacity:1" />
          <path
             inkscape:connector-curvature="0"
             d="m 6027.0911,-9759.6826 c -26.908,-10.4224 -66.85,-33.3989 -87.1883,-50.5726 0,0 -37.8612,-31.9702 -37.8612,-31.9702 0,0 -2.9476,45.7927 -2.9476,45.7927 0,0 -2.9468,45.7819 -2.9468,45.7819 0,0 -56.2737,2.1246 -56.2737,2.1246 0,0 -55.2831,2.0872 -55.2831,2.0872 0,0 -20.5669,-300.25 -20.5669,-300.25 0,0 -20.5653,-300.228 -20.5653,-300.228 0,0 64.7385,-3.233 64.7385,-3.233 0,0 64.9085,-3.242 64.9085,-3.242 0,0 13.099,191.183 13.099,191.183 14.8835,217.2273 21.4805,237.3529 90.3562,289.2551 42.3845,32.6406 65.4915,38.2728 128.8882,30.8647 53.101,-6.1937 79.8599,-26.1206 104.4601,-77.997 13.0203,-28.453 13.2614,-50.6364 0.237,-240.6188 0,0 -14.315,-208.806 -14.315,-208.806 0,0 66.8111,-3.337 66.8111,-3.337 0,0 66.1079,-3.301 66.1079,-3.301 0,0 13.2844,232.472 13.2844,232.472 12.7772,225.0718 12.4008,232.4969 -5.4239,269.4311 -40.2175,83.8221 -95.1033,119.5887 -194.7553,128.2498 -56.6081,5.3955 -71.6183,3.5021 -114.7638,-13.6865 0,0 0,0 0,0"
             id="path23195"
             style="fill:#1f7a7a;fill-opacity:1" />
          <path
             inkscape:connector-curvature="0"
             d="m 6764.2373,-9779.2763 c -93.1231,-22.167 -175.1455,-82.7118 -226.5497,-168.2693 -25.053,-40.2677 -28.6792,-54.1574 -33.9896,-131.5764 -5.5927,-81.536 -4.4374,-90.677 18.7808,-142.161 60.459,-134.443 212.8687,-215.041 375.6111,-199.134 127.0661,11.991 219.3005,66.799 282.0185,167.608 36.9541,57.778 39.4133,66.884 44.2332,137.061 6.025,87.722 -7.1002,136.8575 -52.8962,203.1765 -34.1608,48.1861 -114.1571,104.7292 -179.1456,124.7036 -54.1499,17.0264 -175.8369,21.5745 -228.0625,8.5916 0,0 0,0 0,0 m 214.2494,-117.2432 c 79.8723,-41.5838 127.6029,-142.9775 109.4267,-234.9625 -18.0529,-90.274 -85.9355,-163.924 -167.1147,-182.554 -157.8883,-35.604 -287.1096,58.565 -287.5723,208.528 -0.063,103.522 52.1411,185.0293 140.9085,221.2782 59.2907,23.4063 143.9117,18.4213 204.3518,-12.2897 0,0 0,0 0,0"
             id="path23197"
             style="fill:#1f7a7a;fill-opacity:1" />
          <path
             inkscape:connector-curvature="0"
             d="m 8257.8311,-9842.3778 c -65.9581,-17.1318 -155.9791,-55.4352 -156.7389,-66.4802 -0.2922,-4.2481 14.6202,-21.8773 33.3293,-39.6687 0,0 33.8437,-32.9173 33.8437,-32.9173 0,0 68.5716,27.9722 68.5716,27.9722 94.3066,38.1621 174.0312,41.0395 233.3514,9.552 52.9661,-27.865 72.2931,-55.2779 76.5677,-105.2992 0,0 3.0593,-39.668 3.0593,-39.668 0,0 -45.5453,-3.226 -45.5453,-3.226 -25.2015,-2.365 -69.4896,-3.057 -98.2177,-1.835 -59.2709,2.521 -177.8651,-12.94 -228.4771,-28.693 -39.8635,-12.775 -100.564,-53.584 -117.4924,-79.239 -36.7734,-52.83 -34.8217,-148.284 3.3918,-198.689 12.1796,-15.939 43.6501,-41.368 69.2884,-55.44 43.1637,-22.65 57.228,-25.919 142.8328,-30.215 107.8828,-5.415 151.9121,6.11 223.031,60.148 0,0 37.7005,29.121 37.7005,29.121 0,0 -3.0688,-44.573 -3.0688,-44.573 0,0 -3.0689,-44.573 -3.0689,-44.573 0,0 65.5041,-3.272 65.5041,-3.272 0,0 64.7019,-3.231 64.7019,-3.231 0,0 11.5569,238.254 11.5569,238.254 0,0 11.6145,239.084 11.6145,239.084 0,0 -23.6376,50.9154 -23.6376,50.9154 -13.6231,27.2314 -38.4045,60.9033 -54.9379,73.5852 -77.0904,57.9294 -231.2923,79.1118 -347.1603,48.3876 0,0 0,0 0,0 m 281.1491,-375.8472 c -5.2516,-76.278 -48.8497,-135.259 -121.0474,-163.581 -81.8478,-32.051 -185.0756,-17.613 -228.3555,32.33 -26.5351,29.439 -19.7079,87.176 12.6576,114.733 51.7091,44.679 109.8666,56.641 250.5608,52.135 0,0 88.4268,-3.048 88.4268,-3.048 0,0 -2.2423,-32.569 -2.2423,-32.569 0,0 0,0 0,0"
             id="path23199"
             style="fill:#1f7a7a;fill-opacity:1" />
          <path
             inkscape:connector-curvature="0"
             d="m 7305.1494,-9808.0401 c -0.1724,-2.5095 50.2232,-139.5986 112.5902,-306.1139 62.5446,-166.99 113.1722,-307.696 112.8255,-312.741 -0.4045,-5.885 27.146,-10.635 80.9426,-13.322 0,0 80.9652,-3.198 80.9652,-3.198 0,0 158.6291,303.516 158.6291,303.516 0,0 158.5499,305.2028 158.5499,305.2028 0,0 -65.7004,5.0334 -65.7004,5.0334 -36.5128,3.0768 -70.4527,1.8142 -75.4296,-2.2373 -6.9662,-5.6709 -213.9059,-415.1639 -232.7771,-459.0799 -3.3664,-8.291 -9.4035,-14.766 -13.1188,-14.59 -3.7147,0.175 -30.5254,70.677 -58.9847,157.196 -28.4797,85.564 -66.2786,196.6637 -83.134,247.8526 0,0 -32.5767,91.2839 -32.5767,91.2839 0,0 -70.8868,2.6763 -70.8868,2.6763 -39.5006,1.4913 -71.722,1.0305 -71.8944,-1.4789 0,0 0,0 0,0"
             id="path23201"
             style="fill:#1f7a7a;fill-opacity:1" />
          <path
             inkscape:connector-curvature="0"
             d="m 2621.9059,-9649.8809 c -48.5585,-12.5982 -51.235,-18.5814 -60.2256,-150.6102 -7.3886,-108.5031 -6.4699,-128.3309 8.3677,-210.4589 33.8661,-181.448 39.7906,-194.707 95.8123,-197.524 42.4851,-2.136 53.7931,7.232 76.7911,64.959 50.9022,130.677 68.4852,197.9876 81.2225,317.5879 11.5092,112.7888 11.9252,118.8942 -2.7414,139.3596 -8.3689,11.7971 -28.0571,25.5531 -42.972,30.7101 -32.8408,10.4196 -124.6181,13.9118 -156.2546,5.9765 0,0 0,0 0,0"
             id="path23203"
             style="fill:#1f7a7a;fill-opacity:1" />
        </g>
        <g
           style="fill:#1f7a7a;fill-opacity:1;stroke:none"
           transform="matrix(0.00227816,0,0,-0.00227816,1216.4777,1304.4487)"
           id="g23205">
          <path
             inkscape:connector-curvature="0"
             d="m 11011.339,-48833.945 c -418.773,-0.255 -773.899,-68.553 -1120.3586,-213.921 -383.3726,-161.586 -692.6494,-381.907 -963.3381,-687.063 -362.2307,-408.765 -604.5553,-916.851 -721.1532,-1513.37 -27.2394,-138.978 -62.5499,-561.563 -61.1559,-718.351 5.8413,-434.337 81.2856,-818.986 234.4536,-1191.063 122.0629,-297.481 254.6076,-514.787 455.1771,-748.071 402.1267,-466.867 947.3834,-783.724 1584.5461,-918.657 298.193,-63.117 650.644,-90.233 964.871,-72.668 580.481,31.424 1193.638,237.471 1814.113,610.947 354.066,212.424 546.837,353.78 1198.537,879.708 0,0 313.082,253.192 313.082,253.192 0,0 89.155,-106.837 89.155,-106.837 241.396,-285.781 629.571,-694.383 877.724,-924.452 544.427,-503.34 992.211,-809.548 1534.845,-1048.816 451.588,-198.967 988.371,-303.484 1523.629,-295.126 499.601,7.43 937.622,114.603 1372.564,337.597 748.963,382.111 1259.528,1038.735 1477.461,1901.464 234.015,926.186 106.383,1861.787 -354.365,2596.341 -176.798,282.6 -425.698,551.374 -701.178,758.921 -414.293,311.909 -888.666,506.272 -1447.083,594.085 -135.163,21.442 -507.137,44.458 -640.148,39.638 -210.977,-7.311 -444.769,-36.792 -634.282,-80.355 -212.88,-48.534 -599.181,-185.178 -844.884,-299.512 -326.664,-151.898 -715.643,-388.434 -1059.983,-646.641 -140.911,-105.477 -570.093,-465.224 -799.561,-670.687 -93.899,-84.686 -192.116,-171.436 -216.45,-193.129 0,0 -45.013,-39.599 -45.013,-39.599 0,0 -109.975,122.871 -109.975,122.871 -263.414,296.717 -731.564,801.859 -839.482,907.004 -680.218,661.733 -1420.269,1111.579 -2093.933,1273.971 -228.395,55.565 -549.116,92.911 -787.815,92.579 0,0 0,0 0,0 m 316.127,-1459.516 c 234.746,-43.619 447.246,-128.036 724.553,-287.964 359.532,-205.795 717.376,-475.165 1033.023,-777.471 59.611,-57.087 531.54,-539.97 680.34,-696.115 0,0 47.033,-49.219 47.033,-49.219 0,0 -89.369,-78.629 -89.369,-78.629 -210.853,-187.644 -607.749,-481.366 -907.315,-671.911 -310.214,-196.495 -538.155,-317.341 -794.323,-419.003 -487.946,-192.628 -855.299,-237.11 -1295.412,-156.376 -498.614,91.52 -886.8127,397.741 -1078.9159,848.156 -130.0457,304.262 -163.5105,684.966 -92.5628,1043.761 74.8049,379.224 295.8485,749.261 590.8387,988.819 214.935,174.885 472.207,268.631 784.719,285.78 56.165,3.387 333.09,-17.56 397.391,-29.828 0,0 0,0 0,0 m 7608.695,-514.328 c 337.237,-63.544 603.934,-198.628 810.808,-409.4 202.178,-207.466 353.228,-499.519 415.68,-805.33 36.031,-179.194 42.969,-308.686 28.543,-531.958 -7.476,-121.887 -19.19,-228.671 -29.266,-273.122 -79.997,-359.682 -225.678,-627.965 -467.898,-861.481 -188.543,-183.16 -439.865,-303.792 -722.223,-348.876 -316.119,-50.48 -691.702,-16.057 -1031.694,93.876 -453.247,145.444 -1005.315,495.711 -1487.002,940.013 -131.221,120.984 -737.479,727.919 -741.571,742.779 -2.046,7.429 634.716,521.12 779.805,628.406 449.705,332.91 889.524,578.135 1298.728,723.639 224.067,79.363 422.697,123.88 615.112,137.069 119.418,8.317 398.731,-10.402 530.978,-35.615 0,0 0,0 0,0"
             id="path23207"
             style="fill:#1f7a7a;fill-opacity:1" />
        </g>
        <g
           id="g23209"
           transform="matrix(0.24831354,0,0,0.24831354,914.19171,842.56913)"
           style="fill:#1f7a7a;fill-opacity:1">
          <g
             id="g23211"
             transform="translate(1157.6893,1693.6205)"
             style="fill:#1f7a7a;fill-opacity:1">
            <path
               style="fill:#1f7a7a;fill-opacity:1"
               d="m 282.8053,700.95889 c 0,0 -5.5532,80.89561 -5.5532,80.89561 0,0 90.54335,11.03137 90.54335,11.03137 0,0 5.75927,-83.63504 5.75927,-83.63504 0,0 -90.74942,-8.29194 -90.74942,-8.29194 0,0 0,0 0,0 m 67.00868,57.99822 c 2.95412,0.32576 5.19026,1.30796 6.4792,2.82863 0.94778,1.12666 1.29664,2.28701 1.17975,3.98506 0,0 -3.94767,-0.44387 -3.94767,-0.44387 -0.0125,-1.88851 -1.44187,-3.05879 -4.11409,-3.35644 -2.16219,-0.24084 -3.59844,0.48221 -3.69395,1.87039 -0.092,1.33765 0.74081,1.97149 3.70857,2.84175 0,0 3.17226,0.91021 3.17226,0.91021 3.76348,1.08989 5.30386,2.79899 5.10312,5.71516 -0.25828,3.75219 -3.54712,5.61534 -8.84077,4.99407 -5.21725,-0.6123 -8.06957,-3.0964 -8.05051,-7.05609 0,0 4.07946,0.46965 4.07946,0.46965 0.005,1.98442 1.53507,3.25582 4.39889,3.58874 2.56068,0.29768 4.2087,-0.45445 4.315,-1.99892 0.10281,-1.49379 -0.89361,-2.32913 -3.67491,-3.13203 0,0 -2.8344,-0.82774 -2.8344,-0.82774 -4.09786,-1.17904 -5.60155,-2.74672 -5.4056,-5.59498 0.24618,-3.5785 3.21511,-5.33508 8.12565,-4.79359 0,0 0,0 0,0 m 11.39346,1.36239 c 0.45404,0.0501 0.86902,0.17122 1.25041,0.36151 0.38418,0.19067 0.73229,0.44673 1.03853,0.77417 0.30565,0.32745 0.52801,0.67105 0.66578,1.0397 0.13715,0.36802 0.19776,0.76073 0.16937,1.17312 -0.028,0.40639 -0.14088,0.77374 -0.32627,1.10583 -0.18584,0.32958 -0.45198,0.62178 -0.79771,0.87666 -0.34632,0.25474 -0.7249,0.44129 -1.12928,0.54412 -0.40158,0.10309 -0.82678,0.13059 -1.28075,0.0795 -0.45315,-0.051 -0.86499,-0.17262 -1.24839,-0.36383 -0.38062,-0.19088 -0.7303,-0.45892 -1.0355,-0.78631 -0.30447,-0.32723 -0.52567,-0.67337 -0.66231,-1.03826 -0.13713,-0.36732 -0.18449,-0.75166 -0.15659,-1.15707 0.0283,-0.4114 0.1279,-0.78538 0.31311,-1.1168 0.18462,-0.33212 0.44954,-0.62109 0.79408,-0.87604 0.34529,-0.25493 0.72549,-0.43023 1.12641,-0.53406 0.40369,-0.10357 0.82589,-0.13226 1.27911,-0.0823 0,0 0,0 0,0 m -70.45426,-7.57697 c 0,0 4.04217,0.44618 4.04217,0.44618 0,0 -1.23965,18.04882 -1.23965,18.04882 0,0 -4.04014,-0.47329 -4.04014,-0.47329 0,0 1.23762,-18.02171 1.23762,-18.02171 0,0 0,0 0,0 m 7.94731,0.87724 c 0,0 4.06615,0.44884 4.06615,0.44884 0,0 -1.0309,15.00536 -1.0309,15.00536 0,0 9.51078,1.10315 9.51078,1.10315 0,0 -0.21358,3.10782 -0.21358,3.10782 0,0 -13.57407,-1.59017 -13.57407,-1.59017 0,0 1.24162,-18.075 1.24162,-18.075 0,0 0,0 0,0 m 16.18756,1.78683 c 0,0 4.11521,0.45425 4.11521,0.45425 0,0 -1.25185,18.21114 -1.25185,18.21114 0,0 -4.11313,-0.48184 -4.11313,-0.48184 0,0 1.24977,-18.18355 1.24977,-18.18355 0,0 0,0 0,0 m 13.7457,1.5173 c 0,0 4.60379,0.50817 4.60379,0.50817 0,0 5.75718,19.12851 5.75718,19.12851 0,0 -4.29306,-0.50292 -4.29306,-0.50292 0,0 -1.07681,-3.84462 -1.07681,-3.84462 0,0 -7.5721,-0.87673 -7.5721,-0.87673 0,0 -1.60014,3.52071 -1.60014,3.52071 0,0 -4.22161,-0.49456 -4.22161,-0.49456 0,0 8.40275,-17.43856 8.40275,-17.43856 0,0 0,0 0,0 m 32.5311,4.01433 c -0.36112,-0.0399 -0.69744,-0.0187 -1.01574,0.0641 -0.3181,0.081 -0.61963,0.21502 -0.89499,0.41869 -0.27531,0.20364 -0.48847,0.44181 -0.63888,0.70497 -0.14685,0.26052 -0.22129,0.55194 -0.24373,0.87803 -0.0222,0.3231 0.0112,0.62653 0.12006,0.91854 0.11237,0.28942 0.28954,0.57408 0.53284,0.83549 0.24088,0.25817 0.52197,0.46007 0.8242,0.60959 0.30563,0.14993 0.63043,0.24721 0.9915,0.28775 0.36718,0.0412 0.71406,0.0169 1.02972,-0.061 0.31521,-0.0804 0.60732,-0.21515 0.88333,-0.41871 0.27606,-0.20359 0.49342,-0.44454 0.64076,-0.70541 0.1509,-0.26352 0.23563,-0.55433 0.25791,-0.87805 0.0225,-0.32671 -0.0212,-0.63184 -0.134,-0.92172 -0.10924,-0.29247 -0.29058,-0.57482 -0.53462,-0.83636 -0.24647,-0.26478 -0.52243,-0.4719 -0.82522,-0.62109 -0.29938,-0.14879 -0.63193,-0.23496 -0.99314,-0.27488 0,0 0,0 0,0 m -1.41116,0.46774 c 0,0 1.27707,0.14145 1.27707,0.14145 0.52545,0.0582 0.92172,0.18701 1.17051,0.37671 0.24909,0.18611 0.35061,0.44266 0.32833,0.76625 -0.0158,0.22968 -0.10528,0.41378 -0.27394,0.54628 -0.16597,0.13218 -0.39575,0.20421 -0.68541,0.21772 0.11818,0.0722 0.2376,0.16567 0.33511,0.28441 0.10018,0.11903 0.18374,0.26455 0.25992,0.42914 0,0 0.43551,0.93167 0.43551,0.93167 0,0 -1.03087,-0.11544 -1.03087,-0.11544 0,0 -0.41073,-0.90509 -0.41073,-0.90509 -0.0992,-0.2207 -0.1898,-0.36997 -0.27069,-0.46513 -0.0801,-0.0981 -0.16454,-0.1599 -0.25063,-0.1695 0,0 -0.052,-0.006 -0.052,-0.006 0,0 -0.0981,1.42433 -0.0981,1.42433 0,0 -0.96461,-0.10802 -0.96461,-0.10802 0,0 0.23053,-3.34898 0.23053,-3.34898 0,0 -1e-5,0 -1e-5,0 m 0.92615,0.6669 c 0,0 -0.0571,0.82903 -0.0571,0.82903 0,0 0.15616,0.0174 0.15616,0.0174 0.23296,0.0259 0.40767,0.009 0.52861,-0.0472 0.12451,-0.0591 0.1951,-0.15603 0.20465,-0.29474 0.01,-0.13932 -0.049,-0.25607 -0.16122,-0.336 -0.10894,-0.079 -0.27599,-0.12461 -0.51496,-0.15113 0,0 -0.15617,-0.0173 -0.15617,-0.0173 0,0 0,0 0,0 m -30.12607,-0.58538 c 0,0 -3.11511,6.84693 -3.11511,6.84693 0,0 5.26529,0.60353 5.26529,0.60353 0,0 -2.15018,-7.45046 -2.15018,-7.45046 0,0 0,0 0,0"
               id="path23213"
               inkscape:connector-curvature="0" />
          </g>
        </g>
        <path
           id="path23215"
           d="m 1253.691,1436.9297 c -7.9144,0.028 -11.6924,0.3969 -18.4726,3.5622 0.241,0.025 0.4506,0.046 0.6782,0.069 -0.2788,1.3957 -0.284,3.6107 -0.284,3.6107 0,0 0.026,0 0.026,0 -0.9083,2.0004 -0.2588,3.7893 0.263,5.4019 0.1305,-1.9101 0.3341,-3.443 -0.094,-5.4892 -0.01,-0.2573 0.023,-2.2282 0.2798,-3.5012 0,0 0,0 0,0 0,0 0,0 0,0 1.6618,0.1948 3.0031,0.3876 4.1602,0.5363 -0.095,0.6951 -0.035,1.5555 0.2081,2.6047 -0.077,0.3311 -0.1376,0.679 -0.1634,1.056 0,0 -0.5939,8.6902 -0.5939,8.6902 0,0 4.3485,0.5295 4.3485,0.5295 0,0 0.5661,-8.2773 0.5661,-8.2773 0.028,-0.404 0.093,-0.7548 0.194,-1.0567 1.1498,-0.087 2.2385,-0.4389 3.2247,-1.0328 0.7788,0.425 1.1183,1.2814 1.0299,2.573 0,0 -0.5704,8.335 -0.5704,8.335 0,0 4.5089,0.5491 4.5089,0.5491 0,0 0.5748,-8.3935 0.5748,-8.3935 0.121,-1.7677 0.9596,-2.5701 2.4823,-2.4109 1.53,0.16 2.2564,1.1324 2.1344,2.9127 0,0 -0.5792,8.4534 -0.5792,8.4534 0,0 0,0.037 0,0.037 0,0 4.5586,0.5554 4.5586,0.5554 0,0 0.6196,-9.0357 0.6196,-9.0357 0.128,-1.8669 -0.4556,-3.3189 -1.7826,-4.4302 -1.1311,-0.9754 -2.7226,-1.5447 -4.7643,-1.7479 -2.2237,-0.2213 -3.7687,0.1056 -4.6482,1.0152 -0.3397,-0.4123 -0.7571,-0.7576 -1.2536,-1.0389 -0.5258,-0.6085 -1.0806,-0.9899 -1.6657,-1.2077 1.3602,-0.6713 2.9638,-1.5909 5.0236,-2.8746 0,0 -0.01,0 -0.01,0"
           style="overflow:visible;fill:#1f7a7a;fill-opacity:1"
           inkscape:connector-curvature="0" />
        <g
           id="g23217"
           transform="matrix(2.1415588,0,0,2.1415588,-2096.1646,-1679.8087)"
           style="fill:#1f7a7a;fill-opacity:1">
          <path
             d="m 1573.0034,1445.516 c 0,0 -0.5742,8.3663 -0.5742,8.3663 0,0 11.3295,0.978 11.3295,0.978 0,0 0.5972,-8.6718 0.5972,-8.6718 0,0 -11.3525,-0.6725 -11.3525,-0.6725 0,0 0,0 0,0 m 1.3422,2.0309 c 0,0 1.9089,0.125 1.9089,0.125 0.3821,0.025 0.66,0.055 0.8559,0.1042 0.1829,0.048 0.3504,0.1211 0.4897,0.2271 0.1395,0.1061 0.2632,0.2469 0.3454,0.41 0.082,0.1632 0.124,0.3473 0.1107,0.5403 -0.015,0.2173 -0.096,0.4056 -0.2277,0.5782 -0.1321,0.1723 -0.3138,0.2929 -0.5185,0.3629 0.2861,0.1054 0.5036,0.2544 0.65,0.4592 0.1465,0.2049 0.2109,0.441 0.1926,0.7067 -0.014,0.2053 -0.081,0.406 -0.2015,0.5909 -0.1198,0.1847 -0.2646,0.3315 -0.4589,0.4374 -0.1807,0.1068 -0.411,0.1613 -0.6641,0.1653 -0.1593,0 -0.556,-0.02 -1.1748,-0.058 0,0 -1.618,-0.1296 -1.618,-0.1296 0,0 0.3103,-4.5196 0.3103,-4.5196 0,0 0,-3e-4 0,-3e-4 m 4.3239,0.2832 c 0,0 0.8707,0.057 0.8707,0.057 0,0 -0.1143,1.6613 -0.1143,1.6613 0.3175,-0.2945 0.6617,-0.5629 1.351,-0.5155 0.4341,0.03 0.8055,0.1901 1.0996,0.4929 0.3333,0.3428 0.5428,0.8734 0.4733,1.4832 -0.091,0.7188 -0.2669,0.9026 -0.6181,1.2193 -0.3207,0.2815 -0.8336,0.3876 -1.24,0.355 -0.2569,-0.021 -0.4852,-0.064 -0.6808,-0.1778 -0.1952,-0.1131 -0.4114,-0.3126 -0.5467,-0.506 0,0 -0.036,0.5212 -0.036,0.5212 0,0 -0.8697,-0.069 -0.8697,-0.069 0,0 0.3108,-4.5212 0.3108,-4.5212 0,0 0,0 0,0 m -3.5286,0.5262 c 0,0 -0.089,1.1105 -0.089,1.1105 0,0 0.7455,0.053 0.7455,0.053 0,0 0.4343,0.031 0.4343,0.031 0.158,0.011 0.3042,0.021 0.4666,-0.027 0.1354,-0.038 0.2739,-0.1252 0.3484,-0.2409 0.059,-0.08 0.092,-0.174 0.099,-0.2703 0.01,-0.1203 -0.052,-0.2342 -0.1248,-0.3238 -0.098,-0.1155 -0.24,-0.1857 -0.3844,-0.2076 -0.091,-0.018 -0.3671,-0.037 -0.8272,-0.068 0,0 -0.6679,-0.057 -0.6679,-0.057 0,0 10e-5,2e-4 10e-5,2e-4 m 5.2485,1.3453 c -0.2844,-0.01 -0.6071,0.153 -0.766,0.3001 -0.1604,0.1712 -0.2558,0.3942 -0.2783,0.7214 -0.023,0.3395 0.1075,0.5933 0.2042,0.7592 0.202,0.2108 0.292,0.2797 0.6386,0.3676 0.2001,0.052 0.5702,0.01 0.7701,-0.1239 0.2282,-0.1417 0.4228,-0.3728 0.4888,-0.7358 0.093,-0.5574 -0.12,-0.8542 -0.2865,-1.0132 -0.2318,-0.2002 -0.5402,-0.2713 -0.7709,-0.2754 0,0 0,0 0,0 m -5.4,0.4692 c 0,0 -0.069,1.1856 -0.069,1.1856 0,0 0.9961,0.077 0.9961,0.077 0,0 0.685,0.053 0.685,0.053 0.2402,-0.018 0.3351,-0.036 0.4897,-0.1569 0.071,-0.055 0.1845,-0.1793 0.2101,-0.359 0.01,-0.1446 -0.026,-0.208 -0.06,-0.2953 -0.036,-0.064 -0.071,-0.1139 -0.1213,-0.166 -0.1241,-0.1302 -0.3445,-0.207 -0.5163,-0.2197 -0.2233,-0.028 -0.4614,-0.034 -0.6849,-0.051 0,0 -0.9299,-0.069 -0.9299,-0.069 0,0 -2e-4,0 -2e-4,0"
             id="path23219"
             inkscape:connector-curvature="0"
             style="fill:#1f7a7a;fill-opacity:1" />
        </g>
      </g>
      <rect
         y="556.2132"
         x="753.77454"
         height="157.00214"
         width="207.03087"
         id="rect7152-3-7-2-9-5-3-8-0-4-2"
         style="opacity:1;fill:none;fill-opacity:1;fill-rule:nonzero;stroke:#666666;stroke-width:0.29785961;stroke-linecap:round;stroke-linejoin:round;stroke-miterlimit:4;stroke-dasharray:none;stroke-dashoffset:0;stroke-opacity:1" />
    </g>
  </g>
</svg>
