<?xml version="1.0" encoding="UTF-8" standalone="no"?>
<svg
   xmlns:dc="http://purl.org/dc/elements/1.1/"
   xmlns:cc="http://creativecommons.org/ns#"
   xmlns:rdf="http://www.w3.org/1999/02/22-rdf-syntax-ns#"
   xmlns:svg="http://www.w3.org/2000/svg"
   xmlns="http://www.w3.org/2000/svg"
   version="1.1"
   id="svg5156"
   viewBox="0 0 210 160"
   height="160"
   width="210">
  <defs
     id="defs5158">
    <linearGradient
       spreadMethod="pad"
       gradientUnits="userSpaceOnUse"
       y2="593.78698"
       y1="3.6658269"
       x2="590.86259"
       x1="0.74144253"
       id="gradientFill"
       gradientTransform="matrix(1.2219423,0,0,0.81836924,-767.16729,-40.990215)">
      <stop
         id="stop6361"
         stop-opacity="1"
         stop-color="rgb(203,206,208)"
         offset="0" />
      <stop
         id="stop6363"
         stop-opacity="1"
         stop-color="rgb(132,131,139)"
         offset="1" />
    </linearGradient>
    <linearGradient
       spreadMethod="pad"
       gradientUnits="userSpaceOnUse"
       y2="593.78699"
       y1="3.6658268"
       x2="590.86261"
       x1="0.7414425"
       id="gradientFill-0"
       gradientTransform="matrix(1.2219423,0,0,0.81836924,-767.16729,-40.990215)">
      <stop
         id="stop6361-6"
         stop-opacity="1"
         stop-color="rgb(203,206,208)"
         offset="0" />
      <stop
         id="stop6363-2"
         stop-opacity="1"
         stop-color="rgb(132,131,139)"
         offset="1" />
    </linearGradient>
  </defs>
  <metadata
     id="metadata5161">
    <rdf:RDF>
      <cc:Work
         rdf:about="">
        <dc:format>image/svg+xml</dc:format>
        <dc:type
           rdf:resource="http://purl.org/dc/dcmitype/StillImage" />
        <dc:title></dc:title>
      </cc:Work>
    </rdf:RDF>
  </metadata>
  <g
     transform="translate(0,-892.36221)"
     id="layer1">
    <g
       id="g484252"
       transform="translate(-1981.9523,658.71814)">
      <path
         style="opacity:1;fill:#cccccc;fill-opacity:1;fill-rule:nonzero;stroke:none;stroke-width:2;stroke-linecap:round;stroke-linejoin:round;stroke-miterlimit:4;stroke-dasharray:none;stroke-dashoffset:0;stroke-opacity:1"
         d="m 2188.0566,250.99805 c -0.3606,-0.0363 -0.654,0.25019 -0.6543,0.64062 l 0,5.36914 a 10.835845,10.926612 0 0 0 -6.4023,-2.125 10.835845,10.926612 0 0 0 -10.8359,10.92774 10.835845,10.926612 0 0 0 10.8359,10.92578 10.835845,10.926612 0 0 0 6.5059,-2.20117 c 0.115,0.21745 0.3142,0.38398 0.5507,0.41211 l 2.4122,0.28515 0,-1.41992 -1.7598,-0.20508 0,-0.13086 a 10.835845,10.926612 0 0 0 1.7598,-2.39258 l 0,-10.57226 a 10.835845,10.926612 0 0 0 -1.7598,-2.375 l 0,-5.65625 1.7598,0.17969 0,-1.41797 -2.4122,-0.24414 z"
         transform="translate(-1.2207031e-4,0)"
         id="path28360-2-2" />
      <path
         id="path28330-2-4"
         d="m 1996.6182,335.26604 c -2.1819,0.0444 -4.0305,1.61985 -4.4213,3.76695 -1.4733,7.4826 -2.3457,12.07806 -2.7093,15.17552 -0.1817,1.5487 -0.3151,2.6504 -0.052,4.1704 0.1319,0.7599 0.3677,1.76 1.284,2.8235 0.9015,1.0462 2.5554,1.7169 3.7132,1.7681 1.2389,0.054 1.6416,-0.1538 2.0931,-0.2935 0.2756,-0.086 0.5223,-0.1896 0.7753,-0.2869 l 0,16.1122 38.7208,0 0,-18.0954 c 0.9708,2.4152 1.961,4.8722 2.7518,6.7944 0.4762,1.1576 0.8918,2.155 1.2235,2.9267 0.3318,0.7715 0.2009,0.7812 0.9479,1.9764 0.8438,1.3501 1.935,1.7962 2.5838,2.0101 0.6489,0.2139 1.0639,0.2442 1.414,0.2644 0.7004,0.04 1.1551,-0.015 1.6404,-0.076 0.9705,-0.1234 1.9659,-0.3355 3.1148,-0.6074 2.2979,-0.5434 5.1172,-1.339 7.9127,-2.1691 5.591,-1.6602 11.05,-3.4554 11.05,-3.4554 5.9446,-1.8437 3.0128,-10.7626 -2.8662,-8.7194 0,0 -5.3738,1.7644 -10.7966,3.3747 -2.673,0.7937 -5.3462,1.5406 -7.3077,2.0079 -0.1521,-0.3656 -0.257,-0.6085 -0.428,-1.0241 -0.9325,-2.2662 -2.1196,-5.2051 -3.283,-8.1076 -2.3266,-5.80523 -4.5647,-11.47125 -4.5647,-11.47125 -1.154,-1.77485 -2.5893,-2.66699 -4.3092,-2.96257 -12.7892,-1.56897 -25.821,-4.50243 -38.4878,-5.90254 z"
         style="opacity:1;fill:#000000;fill-opacity:1;fill-rule:nonzero;stroke:none;stroke-width:1.60000002;stroke-linecap:round;stroke-linejoin:round;stroke-miterlimit:4;stroke-dasharray:none;stroke-dashoffset:0;stroke-opacity:1" />
      <path
         style="opacity:1;fill:#000000;fill-opacity:1;fill-rule:nonzero;stroke:none;stroke-width:1.60000002;stroke-linecap:round;stroke-linejoin:round;stroke-miterlimit:4;stroke-dasharray:none;stroke-dashoffset:0;stroke-opacity:1"
         d="m 2114.2207,350.21875 c -2.3,0.0468 -4.2482,1.70744 -4.6602,3.9707 -1.553,7.8873 -2.4722,12.73305 -2.8554,15.99805 -0.1916,1.6325 -0.333,2.79233 -0.055,4.39453 0.139,0.801 0.3876,1.85556 1.3535,2.97656 0.9503,1.1028 2.6937,1.80938 3.9141,1.86329 1.3059,0.057 1.7311,-0.1613 2.207,-0.3086 0.2905,-0.091 0.5497,-0.20013 0.8164,-0.30273 l 0,13.33398 40.8164,0 0,-15.42383 c 1.0233,2.5459 2.0669,5.13591 2.9004,7.16211 0.502,1.2202 0.9395,2.27069 1.2891,3.08399 0.3498,0.8133 0.2126,0.82408 1,2.08398 0.8894,1.4231 2.0386,1.89364 2.7226,2.11914 0.6839,0.2255 1.1212,0.25605 1.4903,0.27735 0.7383,0.042 1.217,-0.0161 1.7285,-0.0801 1.0231,-0.13 2.074,-0.35207 3.2851,-0.63867 2.4222,-0.5729 5.3931,-1.41201 8.3399,-2.28711 5.8934,-1.75 11.6484,-3.64258 11.6484,-3.64258 0.1072,-0.0332 0.2049,-0.0738 0.3067,-0.11133 l 0,-9.11719 c -0.9485,-0.35413 -2.0727,-0.39919 -3.3282,0.0371 0,0 -5.6647,1.8612 -11.3808,3.5586 -2.8176,0.8366 -5.6356,1.62253 -7.7032,2.11523 -0.1603,-0.3854 -0.2709,-0.64001 -0.4511,-1.07813 -0.9829,-2.3888 -2.2347,-5.48737 -3.461,-8.54687 -2.4525,-6.1192 -4.8105,-12.0918 -4.8105,-12.0918 -1.2164,-1.8709 -2.73,-2.81144 -4.543,-3.12304 -13.4809,-1.6538 -27.2184,-4.74487 -40.5703,-6.22071 l 0,-0.002 z"
         transform="translate(-1.2207031e-4,0)"
         id="path28340-2-7" />
      <ellipse
         style="opacity:1;fill:#666666;fill-opacity:1;fill-rule:nonzero;stroke:none;stroke-width:2;stroke-linecap:round;stroke-linejoin:round;stroke-miterlimit:4;stroke-dasharray:none;stroke-dashoffset:0;stroke-opacity:1"
         id="ellipse28346-3-4"
         cx="2106.1404"
         cy="288.30185"
         rx="14.391075"
         ry="14.511623" />
      <path
         id="path28348-5-1"
         d="m 2089.8448,302.73094 c -1.7739,0.0361 -3.2761,1.3169 -3.5938,3.0625 -1.1978,6.08339 -1.9075,9.81964 -2.2031,12.33789 -0.1478,1.25913 -0.2554,2.15483 -0.041,3.39062 0.1072,0.61779 0.2979,1.43029 1.043,2.29492 0.7329,0.85054 2.0782,1.39591 3.0195,1.4375 1.0072,0.044 1.3341,-0.12466 1.7012,-0.23828 0.224,-0.0699 0.4251,-0.15525 0.6308,-0.23437 l 0,13.09961 27.4082,0 a 18.658499,18.814795 0 0 1 -1.1191,-6.36914 18.658499,18.814795 0 0 1 9.9238,-16.61133 c -0.7671,-1.93179 -1.9746,-4.96289 -1.9746,-4.96289 -0.9382,-1.44296 -2.1055,-2.1679 -3.5039,-2.40821 -10.3976,-1.27558 -20.9928,-3.66052 -31.291,-4.79882 z"
         style="opacity:1;fill:#666666;fill-opacity:1;fill-rule:nonzero;stroke:none;stroke-width:1.60000002;stroke-linecap:round;stroke-linejoin:round;stroke-miterlimit:4;stroke-dasharray:none;stroke-dashoffset:0;stroke-opacity:1" />
      <path
         style="opacity:1;fill:#666666;fill-opacity:1;fill-rule:nonzero;stroke:none;stroke-width:2;stroke-linecap:round;stroke-linejoin:round;stroke-miterlimit:4;stroke-dasharray:none;stroke-dashoffset:0;stroke-opacity:1"
         d="m 2190.4688,290.56836 c -1.8793,2.54695 -3.004,5.69276 -3.004,9.11133 0,3.29943 1.0763,6.47685 3.004,9.09375 l 0,-18.20508 z"
         transform="translate(-1.2207031e-4,0)"
         id="path28354-5-6" />
      <path
         style="opacity:1;fill:#cccccc;fill-opacity:1;fill-rule:nonzero;stroke:none;stroke-width:1.60000002;stroke-linecap:round;stroke-linejoin:round;stroke-miterlimit:4;stroke-dasharray:none;stroke-dashoffset:0;stroke-opacity:1"
         d="m 2168.7305,276.67188 c -1.3356,0.0272 -2.4659,0.99228 -2.7051,2.30664 -0.9019,4.58052 -1.4376,7.39488 -1.6602,9.29101 -0.1113,0.94806 -0.1928,1.62224 -0.031,2.55274 0.081,0.46516 0.2261,1.07748 0.7871,1.72851 0.5518,0.64041 1.5627,1.05072 2.2715,1.08203 0.7584,0.0331 1.0049,-0.0941 1.2812,-0.17969 0.1688,-0.0526 0.3197,-0.11621 0.4746,-0.17578 l 0,9.86328 18.7286,0 a 15.16943,15.296498 0 0 1 -0.4122,-3.46289 15.16943,15.296498 0 0 1 3.004,-9.09375 l 0,-10.54296 c -7.2422,-0.99561 -14.5843,-2.57838 -21.7383,-3.36914 z"
         transform="translate(-1.2207031e-4,0)"
         id="path28362-0-6" />
      <path
         style="opacity:1;fill:#cccccc;fill-opacity:1;fill-rule:nonzero;stroke:none;stroke-width:3;stroke-linecap:round;stroke-linejoin:round;stroke-miterlimit:4;stroke-dasharray:none;stroke-dashoffset:0;stroke-opacity:1"
         d="m 2126.6909,284.05026 c 0,0 9.8552,1.07328 9.8552,1.07328 0,0 0,2.94201 0,2.94201 0,0 -9.8552,-1.08806 -9.8552,-1.08806 0,0 0,-2.92723 0,-2.92723"
         id="path332262-7" />
      <path
         style="opacity:1;fill:#cccccc;fill-opacity:1;fill-rule:nonzero;stroke:none;stroke-width:3;stroke-linecap:round;stroke-linejoin:round;stroke-miterlimit:4;stroke-dasharray:none;stroke-dashoffset:0;stroke-opacity:1"
         d="m 2137.3696,285.21323 c 0,0 10.6966,1.16491 10.6966,1.16491 0,0 0,2.95929 0,2.95929 0,0 -10.6966,-1.18096 -10.6966,-1.18096 0,0 0,-2.94324 0,-2.94324"
         id="path332264-0" />
      <path
         style="opacity:1;fill:#cccccc;fill-opacity:1;fill-rule:nonzero;stroke:none;stroke-width:1.60000002;stroke-linecap:round;stroke-linejoin:round;stroke-miterlimit:4;stroke-dasharray:none;stroke-dashoffset:0;stroke-opacity:1"
         d="m 2126.6745,289.00916 c 0,0 0,8.49943 0,8.49943 0,0 30.3914,3.51939 30.3914,3.51939 0,0 0,-8.63177 0,-8.63177 0,0 -30.3914,-3.38705 -30.3914,-3.38705 0,0 0,0 0,0 m 0.3991,0.65171 c 0,0 29.5809,3.30591 29.5809,3.30591 0,0 0,7.39712 0,7.39712 0,0 -29.5809,-3.41632 -29.5809,-3.41632 0,0 0,-7.28671 0,-7.28671 0,0 0,0 0,0"
         id="path332266-4" />
      <path
         style="fill:#666666;fill-opacity:1;fill-rule:evenodd;stroke:none;stroke-width:0.80514383px;stroke-linecap:butt;stroke-linejoin:miter;stroke-opacity:1"
         d="m 2115.5107,268.63 c -0.4789,-0.0482 -0.8668,0.33303 -0.8672,0.85157 l 0,29.91406 c 10e-5,0.51889 0.388,0.98596 0.8672,1.04297 l 17.5801,2.07422 0,2.97851 -11.2012,-1.33789 0,2.21094 24.7891,2.99023 0.3847,0.0469 0,-2.24024 -5.6543,-0.67578 0,-2.99218 18.0567,2.13085 c 0.5016,0.0591 0.9081,-0.32407 0.9082,-0.85546 l 0,-30.61915 c -5e-4,-0.53115 -0.4069,-1.00367 -0.9082,-1.05468 l -43.9551,-4.46485 z m 0.8691,1.96875 42.1778,4.32618 0,28.66796 -42.1778,-4.93554 0,-28.0586 z"
         id="path332272-9" />
      <path
         style="fill:#1f7a7a;fill-opacity:1;stroke:none"
         id="path332274-6"
         d="m 2143.2594,274.72085 c -0.5707,-0.0195 -1.0494,0.0673 -1.5099,0.27167 -0.5106,0.22775 -0.9149,0.54877 -1.2587,1.00125 -0.4609,0.60716 -0.7475,1.37184 -0.8523,2.2771 -0.025,0.21094 -0.034,0.85424 -0.017,1.09344 0.049,0.66256 0.1895,1.25138 0.4361,1.82296 0.1963,0.45654 0.3994,0.79097 0.6975,1.15115 0.5963,0.71951 1.373,1.21281 2.2555,1.43103 0.4119,0.1018 0.8934,0.15016 1.318,0.13013 0.7824,-0.0352 1.5902,-0.33237 2.3896,-0.87973 0.455,-0.31047 0.7,-0.51781 1.522,-1.28901 0,0 0.3938,-0.37032 0.3938,-0.37032 0,0 0.1283,0.16226 0.1283,0.16226 0.3467,0.43368 0.8986,1.05372 1.2479,1.40287 0.7644,0.76211 1.3815,1.22686 2.1154,1.59276 0.6089,0.3034 1.3189,0.46768 2.0146,0.46463 0.6475,-0.002 1.2049,-0.15264 1.7466,-0.47318 0.9301,-0.54746 1.5271,-1.50069 1.7304,-2.7612 0.2181,-1.35194 -0.027,-2.72857 -0.6823,-3.82378 -0.2519,-0.42216 -0.5956,-0.82726 -0.9687,-1.14385 -0.5622,-0.47677 -1.1932,-0.78367 -1.9256,-0.93744 -0.1776,-0.0375 -0.664,-0.0878 -0.837,-0.0864 -0.2747,0.002 -0.5776,0.0352 -0.8216,0.0917 -0.2745,0.0629 -0.7691,0.24942 -1.0817,0.40907 -0.4163,0.21244 -0.908,0.5489 -1.3397,0.92019 -0.1769,0.15186 -0.7131,0.67262 -0.9991,0.97118 -0.117,0.12319 -0.2397,0.24936 -0.2701,0.28094 0,0 -0.056,0.0576 -0.056,0.0576 0,0 -0.1575,-0.18788 -0.1575,-0.18788 -0.378,-0.45419 -1.0493,-1.22987 -1.2033,-1.39204 -0.9728,-1.02306 -2.0108,-1.73369 -2.9368,-2.00999 -0.3148,-0.0947 -0.7538,-0.16632 -1.0784,-0.17712 0,0 -2e-4,5e-5 -2e-4,5e-5 m 0.5654,2.22236 c 0.3226,0.0755 0.6185,0.21164 1.0085,0.46409 0.5046,0.32435 1.0117,0.74366 1.4641,1.21006 0.085,0.088 0.7626,0.82978 0.9761,1.06909 0,0 0.067,0.0754 0.067,0.0754 0,0 -0.1123,0.11508 -0.1123,0.11508 -0.2652,0.27495 -0.7707,0.70392 -1.1557,0.98147 -0.3996,0.28665 -0.6957,0.46215 -1.0322,0.60816 -0.6423,0.27716 -1.1364,0.33442 -1.7421,0.20039 -0.6881,-0.15233 -1.2473,-0.62769 -1.5524,-1.31708 -0.2067,-0.46619 -0.2883,-1.04563 -0.2246,-1.58821 0.067,-0.57334 0.3352,-1.12681 0.7165,-1.47869 0.2773,-0.25654 0.6196,-0.38808 1.0437,-0.40118 0.076,-0.003 0.4546,0.0402 0.543,0.0615 0,0 0,-4e-5 0,-4e-5 m 10.1561,1.06574 c 0.4437,0.10639 0.8015,0.31564 1.088,0.63416 0.2799,0.31308 0.5009,0.74877 0.6085,1.20148 0.062,0.26516 0.083,0.45616 0.084,0.78464 0,0.17922 -0.01,0.33632 -0.014,0.40148 -0.071,0.52768 -0.2358,0.91916 -0.5281,1.25727 -0.2277,0.26553 -0.5425,0.43753 -0.9048,0.49743 -0.4063,0.0672 -0.8983,0.007 -1.3517,-0.16348 -0.6057,-0.22675 -1.3611,-0.76103 -2.0348,-1.43508 -0.1839,-0.18388 -1.0395,-1.10689 -1.0462,-1.12919 0,-0.0112 0.7913,-0.75624 0.9729,-0.91112 0.5619,-0.47983 1.1173,-0.82859 1.6403,-1.02966 0.2859,-0.10944 0.5413,-0.16805 0.7912,-0.18041 0.1549,-0.008 0.5202,0.0302 0.6945,0.0725 0,0 2e-4,10e-6 2e-4,10e-6" />
      <path
         id="path332278-9"
         d="m 2161.9928,325.99995 c 0,0 12.7776,1.39155 12.7776,1.39155 0,0 0,3.81441 0,3.81441 0,0 -12.7776,-1.41071 -12.7776,-1.41071 0,0 0,-3.79525 0,-3.79525"
         style="opacity:1;fill:#cccccc;fill-opacity:1;fill-rule:nonzero;stroke:none;stroke-width:3;stroke-linecap:round;stroke-linejoin:round;stroke-miterlimit:4;stroke-dasharray:none;stroke-dashoffset:0;stroke-opacity:1" />
      <path
         id="path332280-5"
         d="m 2175.8381,327.50778 c 0,0 13.8684,1.51035 13.8684,1.51035 0,0 0,3.83681 0,3.83681 0,0 -13.8684,-1.53115 -13.8684,-1.53115 0,0 0,-3.81601 0,-3.81601"
         style="opacity:1;fill:#cccccc;fill-opacity:1;fill-rule:nonzero;stroke:none;stroke-width:3;stroke-linecap:round;stroke-linejoin:round;stroke-miterlimit:4;stroke-dasharray:none;stroke-dashoffset:0;stroke-opacity:1" />
      <path
         style="opacity:1;fill:#cccccc;fill-opacity:1;fill-rule:nonzero;stroke:none;stroke-width:1.60000002;stroke-linecap:round;stroke-linejoin:round;stroke-miterlimit:4;stroke-dasharray:none;stroke-dashoffset:0;stroke-opacity:1"
         d="m 2161.9707,332.42969 0,11.01953 28.4981,3.29883 0,-0.79493 -27.9805,-3.23046 0,-9.44922 27.9805,3.12695 0,-0.79492 -28.4981,-3.17578 z"
         transform="translate(-1.2207031e-4,0)"
         id="path332282-1" />
      <path
         style="fill:#1f7a7a;fill-opacity:1;stroke:none"
         d="m 2183.4746,313.9043 c -0.7399,-0.0253 -1.3599,0.0865 -1.957,0.35156 -0.662,0.29528 -1.187,0.71218 -1.6328,1.29883 -0.5976,0.7872 -0.9696,1.77748 -1.1055,2.95117 -0.032,0.2735 -0.044,1.10784 -0.022,1.41797 0.064,0.85903 0.2449,1.62222 0.5645,2.36328 0.2546,0.59192 0.5197,1.02715 0.9062,1.49414 0.7732,0.93287 1.7796,1.57253 2.9238,1.85547 0.534,0.13199 1.1585,0.19394 1.709,0.16797 1.0144,-0.0457 2.0613,-0.43096 3.0977,-1.14063 0.59,-0.40253 0.9068,-0.67198 1.9726,-1.67187 l 0.5118,-0.48047 0.025,0.0332 0,-3.78125 -0.025,0.0254 -0.2032,-0.24414 c -0.4901,-0.58886 -1.3608,-1.59444 -1.5605,-1.80469 -1.2612,-1.32644 -2.6061,-2.24919 -3.8067,-2.60742 -0.4081,-0.12278 -0.9775,-0.21451 -1.3984,-0.22851 z m 0.027,2.80078 c 0.099,-0.004 0.5904,0.0525 0.705,0.0801 0.4182,0.0979 0.801,0.27424 1.3067,0.60156 0.6542,0.42053 1.3119,0.96366 1.8984,1.56836 0.1106,0.11406 0.9888,1.07644 1.2656,1.38672 l 0.088,0.0977 -0.1465,0.15039 c -0.3438,0.35649 -0.9987,0.91165 -1.498,1.27149 -0.518,0.37166 -0.9017,0.59974 -1.3379,0.78906 -0.8328,0.35935 -1.4744,0.43355 -2.2598,0.25977 -0.8922,-0.1975 -1.616,-0.81323 -2.0117,-1.70704 -0.268,-0.60444 -0.3736,-1.35708 -0.291,-2.06054 0.087,-0.74335 0.4334,-1.4598 0.9277,-1.91602 0.3595,-0.33262 0.8037,-0.50449 1.3536,-0.52148 z"
         transform="translate(-1.2207031e-4,0)"
         id="path332290-6" />
      <path
         style="opacity:1;fill:#cccccc;fill-opacity:1;fill-rule:nonzero;stroke:none;stroke-width:3;stroke-linecap:round;stroke-linejoin:round;stroke-miterlimit:4;stroke-dasharray:none;stroke-dashoffset:0;stroke-opacity:1"
         d="m 2041.9387,312.28912 c 0,0 12.1219,1.32015 12.1219,1.32015 0,0 0,3.61869 0,3.61869 0,0 -12.1219,-1.33833 -12.1219,-1.33833 0,0 0,-3.60051 0,-3.60051"
         id="path332326-1" />
      <path
         style="opacity:1;fill:#cccccc;fill-opacity:1;fill-rule:nonzero;stroke:none;stroke-width:3;stroke-linecap:round;stroke-linejoin:round;stroke-miterlimit:4;stroke-dasharray:none;stroke-dashoffset:0;stroke-opacity:1"
         d="m 2055.0735,313.71958 c 0,0 13.1569,1.43286 13.1569,1.43286 0,0 0,3.63994 0,3.63994 0,0 -13.1569,-1.45259 -13.1569,-1.45259 0,0 0,-3.62021 0,-3.62021"
         id="path332328-8" />
      <path
         style="opacity:1;fill:#cccccc;fill-opacity:1;fill-rule:nonzero;stroke:none;stroke-width:1.60000002;stroke-linecap:round;stroke-linejoin:round;stroke-miterlimit:4;stroke-dasharray:none;stroke-dashoffset:0;stroke-opacity:1"
         d="m 2041.9185,318.38861 c 0,0 0,10.45435 0,10.45435 0,0 37.3817,4.32887 37.3817,4.32887 0,0 0,-10.61713 0,-10.61713 0,0 -37.3817,-4.16609 -37.3817,-4.16609 0,0 0,0 0,0 m 0.4909,0.8016 c 0,0 36.3847,4.06629 36.3847,4.06629 0,0 0,9.09851 0,9.09851 0,0 -36.3847,-4.2021 -36.3847,-4.2021 0,0 0,-8.9627 0,-8.9627 0,0 0,0 0,0"
         id="path332330-7" />
      <path
         id="path332388-3"
         style="font-style:normal;font-variant:normal;font-weight:normal;font-stretch:normal;font-size:medium;line-height:136.00000143%;font-family:Lato;-inkscape-font-specification:Lato;letter-spacing:0.77406031px;word-spacing:-0.51087981px;fill:#1f7a7a;fill-opacity:1;stroke:none;stroke-width:1px;stroke-linecap:butt;stroke-linejoin:miter;stroke-opacity:1"
         d="m 2045.9983,323.36507 c -0.056,0.0656 -0.1074,0.1302 -0.1548,0.19376 -0.047,0.0636 -0.095,0.12561 -0.1421,0.18616 0.1421,-0.0888 0.2983,-0.15197 0.4683,-0.18963 0.1729,-0.0403 0.3598,-0.0491 0.5606,-0.0264 0.2427,0.0275 0.4715,0.0969 0.6864,0.20827 0.215,0.10835 0.402,0.25405 0.5612,0.4371 0.1619,0.18039 0.2904,0.39599 0.3854,0.6468 0.095,0.24783 0.1425,0.52477 0.1425,0.83081 0,0.29703 -0.05,0.5673 -0.1509,0.81081 -0.1006,0.24348 -0.2416,0.44931 -0.4231,0.61746 -0.1787,0.16845 -0.3951,0.29206 -0.649,0.37083 -0.2512,0.0791 -0.5288,0.10111 -0.8328,0.0661 -0.3012,-0.0346 -0.5744,-0.11702 -0.8197,-0.24711 -0.2452,-0.13307 -0.4542,-0.3039 -0.6269,-0.51248 -0.1699,-0.21123 -0.3022,-0.45707 -0.3969,-0.73751 -0.092,-0.2831 -0.1378,-0.59237 -0.1378,-0.92785 0,-0.28155 0.057,-0.57458 0.1713,-0.87911 0.1169,-0.30722 0.3021,-0.62771 0.5556,-0.96149 0,0 1.5221,-2.02662 1.5221,-2.02662 0.039,-0.0496 0.092,-0.0886 0.159,-0.11705 0.07,-0.0311 0.1493,-0.0417 0.2386,-0.0317 0,0 0.6615,0.0743 0.6615,0.0743 0,0 -1.7785,2.21446 -1.7785,2.21446 0,0 0,0 0,0 m -0.8152,1.94802 c 0,0.20674 0.028,0.39868 0.084,0.57584 0.056,0.17717 0.1365,0.33325 0.2424,0.46823 0.1087,0.13532 0.2397,0.24624 0.393,0.33276 0.1561,0.0838 0.3332,0.13713 0.5312,0.15985 0.2008,0.0231 0.3821,0.009 0.5439,-0.041 0.1646,-0.0501 0.3042,-0.13004 0.4186,-0.23988 0.1172,-0.10953 0.2066,-0.24476 0.268,-0.40568 0.064,-0.16062 0.096,-0.33992 0.096,-0.53787 0,-0.20996 -0.031,-0.40242 -0.092,-0.57739 -0.061,-0.17795 -0.1494,-0.33192 -0.2638,-0.4619 -0.1117,-0.13266 -0.2456,-0.23935 -0.4018,-0.32008 -0.1563,-0.0807 -0.3278,-0.13169 -0.5147,-0.15292 -0.2008,-0.0228 -0.3821,-0.006 -0.5437,0.0506 -0.1617,0.0535 -0.2997,0.13675 -0.414,0.24961 -0.1114,0.11017 -0.1978,0.24416 -0.2591,0.40198 -0.059,0.15513 -0.088,0.32108 -0.088,0.49785 0,0 0,0 0,0" />
      <path
         id="path332390-4"
         style="font-style:normal;font-variant:normal;font-weight:normal;font-stretch:normal;font-size:medium;line-height:136.00000143%;font-family:Lato;-inkscape-font-specification:Lato;letter-spacing:0.77406031px;word-spacing:-0.51087981px;fill:#1f7a7a;fill-opacity:1;stroke:none;stroke-width:1px;stroke-linecap:butt;stroke-linejoin:miter;stroke-opacity:1"
         d="m 2051.2089,323.95558 c -0.056,0.0657 -0.1078,0.13046 -0.1554,0.19414 -0.048,0.0637 -0.095,0.12586 -0.1428,0.18653 0.1428,-0.0889 0.2996,-0.15223 0.4704,-0.18993 0.1736,-0.0404 0.3613,-0.0492 0.563,-0.0263 0.2438,0.0276 0.4736,0.0973 0.6894,0.20888 0.2159,0.10865 0.4037,0.25471 0.5636,0.43819 0.1627,0.18082 0.2917,0.39692 0.3871,0.6483 0.095,0.24839 0.1431,0.52594 0.1431,0.83264 0,0.29768 -0.05,0.56853 -0.1515,0.81254 -0.101,0.24398 -0.2427,0.45022 -0.425,0.61869 -0.1795,0.16877 -0.3968,0.29259 -0.6518,0.37147 -0.2523,0.0792 -0.5311,0.1012 -0.8364,0.0661 -0.3025,-0.0348 -0.5769,-0.11742 -0.8232,-0.24786 -0.2463,-0.13341 -0.4562,-0.30466 -0.6297,-0.51374 -0.1706,-0.21173 -0.3035,-0.45813 -0.3985,-0.7392 -0.092,-0.28373 -0.1385,-0.59369 -0.1385,-0.9299 0,-0.28216 0.057,-0.57581 0.172,-0.88096 0.1175,-0.30787 0.3035,-0.62901 0.5581,-0.96344 0,0 1.5287,-2.03064 1.5287,-2.03064 0.039,-0.0497 0.092,-0.0888 0.1597,-0.11726 0.07,-0.0312 0.1499,-0.0418 0.2396,-0.0317 0,0 0.6643,0.0746 0.6643,0.0746 0,0 -1.7862,2.21883 -1.7862,2.21883 0,0 0,0 0,0 m -0.8187,1.95204 c 0,0.20718 0.028,0.39955 0.084,0.57711 0.056,0.17756 0.1371,0.334 0.2435,0.4693 0.1091,0.13565 0.2407,0.24684 0.3946,0.33358 0.1568,0.0841 0.3347,0.13751 0.5335,0.16033 0.2017,0.0231 0.3838,0.009 0.5463,-0.041 0.1654,-0.0502 0.3055,-0.13024 0.4204,-0.24029 0.1178,-0.10974 0.2075,-0.24524 0.2692,-0.4065 0.064,-0.16095 0.097,-0.34062 0.097,-0.53901 0,-0.21041 -0.031,-0.4033 -0.093,-0.57866 -0.062,-0.17835 -0.15,-0.33268 -0.265,-0.46297 -0.1121,-0.13297 -0.2466,-0.23992 -0.4035,-0.32087 -0.157,-0.0809 -0.3293,-0.13206 -0.517,-0.15338 -0.2016,-0.0229 -0.3837,-0.006 -0.546,0.0506 -0.1624,0.0536 -0.301,0.13698 -0.4158,0.25006 -0.1119,0.11038 -0.1987,0.24464 -0.2602,0.40278 -0.059,0.15545 -0.088,0.32175 -0.088,0.49891 0,0 0,0 0,0" />
      <path
         id="path332392-7"
         style="font-style:normal;font-variant:normal;font-weight:normal;font-stretch:normal;font-size:medium;line-height:136.00000143%;font-family:Lato;-inkscape-font-specification:Lato;letter-spacing:0.77406031px;word-spacing:-0.51087981px;fill:#1f7a7a;fill-opacity:1;stroke:none;stroke-width:1px;stroke-linecap:butt;stroke-linejoin:miter;stroke-opacity:1"
         d="m 2056.4422,324.54866 c -0.056,0.0659 -0.1083,0.13071 -0.1561,0.19452 -0.048,0.0638 -0.096,0.12611 -0.1434,0.1869 0.1434,-0.0891 0.3009,-0.15249 0.4724,-0.19023 0.1744,-0.0404 0.3629,-0.0492 0.5655,-0.0262 0.2448,0.0278 0.4756,0.0976 0.6924,0.20951 0.2168,0.10893 0.4055,0.25536 0.566,0.43928 0.1634,0.18125 0.293,0.39786 0.3888,0.6498 0.096,0.24896 0.1437,0.52713 0.1437,0.83449 0,0.29832 -0.051,0.56975 -0.1522,0.81426 -0.1014,0.2445 -0.2437,0.45115 -0.4268,0.61994 -0.1802,0.16909 -0.3985,0.29313 -0.6547,0.37211 -0.2533,0.0793 -0.5333,0.10129 -0.84,0.066 -0.3038,-0.0349 -0.5794,-0.11782 -0.8268,-0.24861 -0.2473,-0.13376 -0.4581,-0.30544 -0.6323,-0.51501 -0.1714,-0.21224 -0.3049,-0.4592 -0.4004,-0.74091 -0.093,-0.28437 -0.139,-0.59501 -0.139,-0.93195 0,-0.28277 0.058,-0.57704 0.1727,-0.88283 0.118,-0.30851 0.3048,-0.6303 0.5605,-0.9654 0,0 1.5354,-2.03466 1.5354,-2.03466 0.039,-0.0498 0.093,-0.0889 0.1604,-0.11749 0.07,-0.0312 0.1506,-0.0418 0.2406,-0.0317 0,0 0.6673,0.075 0.6673,0.075 0,0 -1.794,2.22321 -1.794,2.22321 0,0 0,0 0,0 m -0.8223,1.95607 c 0,0.20763 0.028,0.40042 0.084,0.57838 0.056,0.17796 0.1377,0.33476 0.2445,0.47039 0.1097,0.13596 0.2418,0.24743 0.3964,0.33439 0.1575,0.0843 0.3361,0.1379 0.5358,0.16082 0.2026,0.0232 0.3855,0.01 0.5487,-0.0409 0.1661,-0.0502 0.3068,-0.13046 0.4222,-0.24071 0.1183,-0.10995 0.2084,-0.24572 0.2703,-0.40732 0.065,-0.16128 0.097,-0.34134 0.097,-0.54016 0,-0.21087 -0.031,-0.40418 -0.093,-0.57994 -0.062,-0.17875 -0.1506,-0.33343 -0.2661,-0.46404 -0.1125,-0.13328 -0.2477,-0.2405 -0.4053,-0.32166 -0.1576,-0.0811 -0.3307,-0.13243 -0.5191,-0.15385 -0.2026,-0.023 -0.3854,-0.006 -0.5485,0.0506 -0.1631,0.0537 -0.3023,0.1372 -0.4175,0.25049 -0.1125,0.1106 -0.1996,0.24513 -0.2614,0.4036 -0.059,0.15577 -0.088,0.32242 -0.088,0.49997 0,0 0,0 0,0" />
      <path
         style="fill:#1f7a7a;fill-opacity:1;stroke:none"
         id="path332338-1"
         d="m 2062.318,300.81389 c -0.702,-0.024 -1.2907,0.0827 -1.8572,0.33416 -0.628,0.28013 -1.1253,0.67499 -1.5482,1.23154 -0.5669,0.74681 -0.9195,1.68737 -1.0484,2.80085 -0.03,0.25946 -0.041,1.05072 -0.02,1.34494 0.06,0.81495 0.2332,1.53921 0.5364,2.24225 0.2416,0.56155 0.4914,0.9729 0.858,1.41593 0.7335,0.885 1.6889,1.49176 2.7743,1.76017 0.5067,0.12522 1.0989,0.1847 1.6212,0.16006 0.9623,-0.0433 1.9558,-0.40882 2.9391,-1.08208 0.5597,-0.38187 0.861,-0.6369 1.8721,-1.58548 0,0 0.4844,-0.4555 0.4844,-0.4555 0,0 0.1578,0.19959 0.1578,0.19959 0.4265,0.53342 1.1053,1.29607 1.535,1.72553 0.9402,0.9374 1.6993,1.50904 2.6019,1.95911 0.7489,0.37318 1.6222,0.57525 2.478,0.5715 0.7965,-0.003 1.482,-0.18776 2.1483,-0.58202 1.144,-0.67338 1.8784,-1.84585 2.1284,-3.39629 0.2682,-1.6629 -0.033,-3.35617 -0.8392,-4.70328 -0.3099,-0.51926 -0.7327,-1.01753 -1.1916,-1.40694 -0.6915,-0.58644 -1.4676,-0.96392 -2.3684,-1.15306 -0.2185,-0.0462 -0.8168,-0.10795 -1.0295,-0.1063 -0.338,0.002 -0.7105,0.0434 -1.0107,0.11276 -0.3376,0.0774 -0.9459,0.30678 -1.3304,0.50316 -0.5121,0.26129 -1.1168,0.67515 -1.6478,1.13184 -0.2176,0.18679 -0.8772,0.82732 -1.2289,1.19455 -0.144,0.15153 -0.2949,0.30672 -0.3323,0.34557 0,0 -0.069,0.0709 -0.069,0.0709 0,0 -0.1938,-0.2311 -0.1938,-0.2311 -0.4649,-0.55865 -1.2906,-1.51274 -1.48,-1.71221 -1.1965,-1.25837 -2.4732,-2.13244 -3.6122,-2.4723 -0.3872,-0.11648 -0.9272,-0.20457 -1.3265,-0.21785 0,0 -2e-4,5e-5 -2e-4,5e-5 m 0.6954,2.73352 c 0.3968,0.0929 0.7607,0.26032 1.2405,0.57084 0.6207,0.39895 1.2444,0.9147 1.8008,1.48837 0.105,0.10821 0.9381,1.02064 1.2007,1.31499 0,0 0.083,0.0927 0.083,0.0927 0,0 -0.1383,0.14156 -0.1383,0.14156 -0.3261,0.33818 -0.9478,0.86582 -1.4215,1.2072 -0.4914,0.35258 -0.8557,0.56845 -1.2695,0.74804 -0.7901,0.34092 -1.3978,0.41134 -2.1428,0.24648 -0.8464,-0.18736 -1.5342,-0.77206 -1.9095,-1.62001 -0.2543,-0.57342 -0.3546,-1.28614 -0.2763,-1.95351 0.082,-0.70521 0.4124,-1.38598 0.8813,-1.81879 0.3411,-0.31556 0.7621,-0.47735 1.2838,-0.49346 0.094,-0.003 0.5591,0.0494 0.6679,0.0756 0,0 0,-5e-5 0,-5e-5 m 12.4921,1.31087 c 0.5457,0.13086 0.9858,0.38824 1.3382,0.78002 0.3442,0.38509 0.6161,0.92099 0.7485,1.47783 0.077,0.32614 0.1018,0.56107 0.1032,0.96512 0,0.22044 -0.01,0.41366 -0.017,0.49381 -0.088,0.64905 -0.29,1.13057 -0.6496,1.54646 -0.28,0.3266 -0.6673,0.53816 -1.1129,0.61184 -0.4997,0.0826 -1.1049,0.009 -1.6626,-0.20109 -0.745,-0.27891 -1.6742,-0.93607 -2.5028,-1.76516 -0.2262,-0.22616 -1.2786,-1.36148 -1.2869,-1.38891 0,-0.0137 0.9734,-0.93017 1.1967,-1.12068 0.6911,-0.59019 1.3743,-1.01917 2.0176,-1.26649 0.3516,-0.13461 0.6658,-0.2067 0.9731,-0.2219 0.1906,-0.01 0.64,0.0372 0.8543,0.0891 0,0 3e-4,10e-6 3e-4,10e-6" />
      <path
         style="fill:#000000;fill-opacity:1;fill-rule:evenodd;stroke:none;stroke-width:0.80514383px;stroke-linecap:butt;stroke-linejoin:miter;stroke-opacity:1"
         d="m 2147.498,306.00781 c -0.6209,-0.0625 -1.1244,0.43122 -1.125,1.10352 l 0,9.24805 a 18.658499,18.814795 0 0 0 -11.0234,-3.66016 18.658499,18.814795 0 0 0 -18.6582,18.81445 18.658499,18.814795 0 0 0 18.6582,18.81445 18.658499,18.814795 0 0 0 11.2031,-3.79101 c 0.1972,0.37464 0.5379,0.66246 0.9453,0.71094 l 22.793,2.68945 0,3.86328 -14.5215,-1.73437 0,2.86523 32.1387,3.87695 0.9531,0.11524 1.6075,0.19336 0,-2.9043 -9.3907,-1.12305 0,-3.88086 9.3907,1.10743 0,-2.48047 -41.8458,-4.89649 0,-0.22461 a 18.658499,18.814795 0 0 0 5.3848,-13.20117 18.658499,18.814795 0 0 0 -5.3848,-13.21289 l 0,-9.74023 41.8458,4.29297 0,-2.48047 -42.9708,-4.36524 z"
         transform="translate(-1.2207031e-4,0)"
         id="path28336-9-4" />
      <path
         style="fill:#000000;fill-opacity:1;fill-rule:evenodd;stroke:none;stroke-width:0.80514383px;stroke-linecap:butt;stroke-linejoin:miter;stroke-opacity:1"
         d="m 2028.1865,293.32141 c -0.5891,-0.0592 -1.0659,0.40906 -1.0664,1.04688 l 0,8.77343 a 17.701117,17.849392 0 0 0 -10.459,-3.47265 17.701117,17.849392 0 0 0 -17.7012,17.84961 17.701117,17.849392 0 0 0 17.7012,17.84961 17.701117,17.849392 0 0 0 10.6289,-3.59571 c 0.1871,0.35547 0.5099,0.62783 0.8965,0.67383 l 21.625,2.55078 0,3.66602 -13.7774,-1.64649 0,2.71875 30.4903,3.67774 0.9023,0.10937 6.6738,0.80469 0,-0.72656 c 1.3967,-0.0565 3.1796,-0.10531 5.4453,-0.041 1.9795,0.0555 3.9703,0.20603 5.4434,0.51367 0.7366,0.15375 1.3428,0.35149 1.7305,0.5625 0.3877,0.21101 0.5026,0.3893 0.5195,0.51172 0.028,0.20117 -0.021,0.3512 -0.1836,0.56055 -0.1613,0.20934 -0.4407,0.43814 -0.7637,0.65234 -0.3231,0.2142 -0.6849,0.41627 -1.0175,0.61328 -0.3327,0.19686 -0.6343,0.36499 -0.8809,0.65821 -0.1234,0.14654 -0.2501,0.36319 -0.2402,0.63867 0.011,0.27561 0.173,0.51124 0.3437,0.6582 0.3416,0.29419 0.7792,0.44217 1.4863,0.63086 1.4144,0.3771 3.89,0.78631 8.0997,1.32422 0.8756,0.1123 1.5332,0.24925 1.9667,0.39648 0.4091,0.13905 0.5497,0.2869 0.5645,0.29883 -0.011,0.0208 -0.011,0.0361 -0.061,0.0957 -0.1409,0.16942 -0.482,0.44057 -0.9805,0.73046 -1.6368,0.95189 -4.9977,2.19526 -9.3242,3.59766 -0.9118,-0.75 -2.2539,-1.22322 -3.9785,-1.16992 -3.8099,0.1178 -6.1754,2.8183 -8.334,5.2168 0,0 -0.06,0.35893 -0.1797,0.89843 -0.1199,0.5398 2.0996,2.69717 3.2988,3.47657 1.1994,0.7795 3.8777,0.14115 7.3145,-1.49805 3.1473,-1.5012 3.8532,-4.12352 2.707,-5.97852 4.1129,-1.338 7.3076,-2.5261 9.0762,-3.55468 0.5588,-0.32483 0.9829,-0.62753 1.2813,-0.98633 0.1491,-0.17939 0.2707,-0.38043 0.3242,-0.62305 0.054,-0.24262 0.012,-0.52287 -0.1114,-0.74414 -0.2463,-0.44226 -0.6764,-0.65548 -1.2304,-0.84375 -0.5541,-0.18841 -1.2708,-0.33555 -2.1914,-0.45312 -4.1929,-0.53571 -6.6619,-0.94762 -7.9493,-1.29102 -0.4514,-0.12062 -0.5692,-0.19984 -0.7265,-0.27734 0.1044,-0.0749 0.145,-0.11654 0.3066,-0.2129 0.3102,-0.18369 0.6909,-0.39539 1.0664,-0.64453 0.3756,-0.24899 0.7484,-0.5336 1.0372,-0.9082 0.2889,-0.3746 0.4907,-0.87645 0.416,-1.41797 -0.086,-0.62041 -0.5562,-1.0602 -1.1094,-1.36133 -0.5533,-0.30112 -1.2472,-0.51081 -2.0469,-0.67773 -1.5988,-0.33398 -3.6267,-0.48208 -5.6406,-0.53906 -1.3295,-0.0374 -2.5364,-0.037 -3.5938,-0.0195 -0.7359,0.0123 -1.2992,0.0376 -1.8847,0.0605 l 0,-0.88867 -14.0567,-1.67969 0,-3.68164 22.209,2.6211 c 0.617,0.0727 1.1171,-0.39912 1.1172,-1.05274 l 0,-37.66211 c -6e-4,-0.65331 -0.5005,-1.23413 -1.1172,-1.29687 l -54.0664,-5.49219 z m 1.0683,2.42188 51.8809,5.32226 0,35.26172 -51.8809,-6.07031 0,-0.2168 a 17.701117,17.849392 0 0 0 5.1075,-12.52148 17.701117,17.849392 0 0 0 -5.1075,-12.53516 l 0,-9.24023 z"
         id="path28326-93-9" />
      <rect
         style="opacity:1;fill:none;fill-opacity:1;fill-rule:nonzero;stroke:#666666;stroke-width:0.29785961;stroke-linecap:round;stroke-linejoin:round;stroke-miterlimit:4;stroke-dasharray:none;stroke-dashoffset:0;stroke-opacity:1"
         id="rect476785"
         width="207.03087"
         height="157.00214"
         x="1983.4369"
         y="235.14301" />
    </g>
  </g>
</svg>
