<?xml version="1.0" encoding="UTF-8" standalone="no"?>
<svg
   xmlns:dc="http://purl.org/dc/elements/1.1/"
   xmlns:cc="http://creativecommons.org/ns#"
   xmlns:rdf="http://www.w3.org/1999/02/22-rdf-syntax-ns#"
   xmlns:svg="http://www.w3.org/2000/svg"
   xmlns="http://www.w3.org/2000/svg"
   version="1.1"
   id="svg5156"
   viewBox="0 0 210 160"
   height="160"
   width="210">
  <defs
     id="defs5158">
    <linearGradient
       spreadMethod="pad"
       gradientUnits="userSpaceOnUse"
       y2="593.78698"
       y1="3.6658269"
       x2="590.86259"
       x1="0.74144253"
       id="gradientFill"
       gradientTransform="matrix(1.2219423,0,0,0.81836924,-767.16729,-40.990215)">
      <stop
         id="stop6361"
         stop-opacity="1"
         stop-color="rgb(203,206,208)"
         offset="0" />
      <stop
         id="stop6363"
         stop-opacity="1"
         stop-color="rgb(132,131,139)"
         offset="1" />
    </linearGradient>
    <linearGradient
       spreadMethod="pad"
       gradientUnits="userSpaceOnUse"
       y2="593.78699"
       y1="3.6658268"
       x2="590.86261"
       x1="0.7414425"
       id="gradientFill-0"
       gradientTransform="matrix(1.2219423,0,0,0.81836924,-767.16729,-40.990215)">
      <stop
         id="stop6361-6"
         stop-opacity="1"
         stop-color="rgb(203,206,208)"
         offset="0" />
      <stop
         id="stop6363-2"
         stop-opacity="1"
         stop-color="rgb(132,131,139)"
         offset="1" />
    </linearGradient>
  </defs>
  <metadata
     id="metadata5161">
    <rdf:RDF>
      <cc:Work
         rdf:about="">
        <dc:format>image/svg+xml</dc:format>
        <dc:type
           rdf:resource="http://purl.org/dc/dcmitype/StillImage" />
        <dc:title></dc:title>
      </cc:Work>
    </rdf:RDF>
  </metadata>
  <g
     transform="translate(0,-892.36221)"
     id="layer1">
    <g
       id="g484749"
       transform="translate(-1604.0953,233.23712)">
      <path
         style="opacity:1;fill:#cccccc;fill-opacity:1;fill-rule:nonzero;stroke:none;stroke-width:2;stroke-linecap:round;stroke-linejoin:round;stroke-miterlimit:4;stroke-dasharray:none;stroke-dashoffset:0;stroke-opacity:1"
         d="m 1810.1992,676.47852 c -0.3605,-0.0362 -0.6539,0.2502 -0.6543,0.64062 l 0,5.36914 a 10.835845,10.926612 0 0 0 -6.4023,-2.125 10.835845,10.926612 0 0 0 -10.834,10.92774 10.835845,10.926612 0 0 0 10.834,10.92578 10.835845,10.926612 0 0 0 6.5058,-2.20118 c 0.1144,0.21812 0.3138,0.3839 0.5508,0.41211 l 2.4121,0.28516 0,-1.41992 -1.7578,-0.20508 0,-0.13281 a 10.835845,10.926612 0 0 0 1.7578,-2.38867 l 0,-10.57422 a 10.835845,10.926612 0 0 0 -1.7578,-2.37305 l 0,-5.6582 1.7578,0.17968 0,-1.41796 -2.4121,-0.24414 z"
         transform="translate(-1.2207031e-4,0)"
         id="ellipse14478-7-5-0" />
      <path
         id="path14424-4-0-7"
         d="m 1618.7611,760.74721 c -2.182,0.0444 -4.0306,1.61985 -4.4213,3.76695 -1.4734,7.4826 -2.3457,12.07806 -2.7093,15.17552 -0.1817,1.5487 -0.3152,2.6504 -0.052,4.1704 0.1319,0.7599 0.3676,1.76 1.284,2.8235 0.9015,1.0462 2.5554,1.7169 3.7132,1.7681 1.2389,0.054 1.6416,-0.1538 2.0931,-0.2935 0.2756,-0.086 0.5223,-0.1896 0.7752,-0.2869 l 0,16.1122 38.7208,0 0,-18.0954 c 0.9709,2.4152 1.9611,4.8722 2.7518,6.7944 0.4763,1.1576 0.8919,2.155 1.2236,2.9267 0.3318,0.7715 0.2009,0.7812 0.9479,1.9764 0.8438,1.3501 1.935,1.7962 2.5838,2.0101 0.6489,0.2139 1.0639,0.2442 1.414,0.2644 0.7004,0.04 1.1551,-0.015 1.6404,-0.076 0.9705,-0.1234 1.9658,-0.3355 3.1148,-0.6074 2.2979,-0.5434 5.1172,-1.339 7.9127,-2.1691 5.591,-1.6602 11.05,-3.4554 11.05,-3.4554 5.9446,-1.8437 3.0128,-10.7626 -2.8662,-8.7194 0,0 -5.3739,1.7644 -10.7967,3.3747 -2.6729,0.7937 -5.3462,1.5406 -7.3077,2.0079 -0.152,-0.3656 -0.257,-0.6085 -0.4279,-1.0241 -0.9325,-2.2662 -2.1196,-5.2051 -3.283,-8.1076 -2.3266,-5.80523 -4.5648,-11.47125 -4.5648,-11.47125 -1.154,-1.77485 -2.5892,-2.66699 -4.3092,-2.96257 -12.7891,-1.56897 -25.8209,-4.50243 -38.4877,-5.90254 z"
         style="opacity:1;fill:#000000;fill-opacity:1;fill-rule:nonzero;stroke:none;stroke-width:1.60000002;stroke-linecap:round;stroke-linejoin:round;stroke-miterlimit:4;stroke-dasharray:none;stroke-dashoffset:0;stroke-opacity:1" />
      <path
         style="opacity:1;fill:#000000;fill-opacity:1;fill-rule:nonzero;stroke:none;stroke-width:1.60000002;stroke-linecap:round;stroke-linejoin:round;stroke-miterlimit:4;stroke-dasharray:none;stroke-dashoffset:0;stroke-opacity:1"
         d="m 1736.3633,775.70117 c -2.2999,0.0468 -4.2483,1.70744 -4.6602,3.97071 -1.553,7.88729 -2.4722,12.73109 -2.8554,15.99609 -0.1916,1.6325 -0.333,2.79428 -0.055,4.39648 0.1389,0.801 0.3876,1.85361 1.3535,2.97461 0.9502,1.1028 2.6936,1.81134 3.914,1.86524 1.3059,0.057 1.7312,-0.16325 2.2071,-0.31055 0.2905,-0.091 0.5497,-0.20013 0.8164,-0.30273 l 0,13.33593 40.8164,0 0,-15.42578 c 1.0234,2.5459 2.0668,5.13591 2.9004,7.16211 0.502,1.2202 0.9393,2.27069 1.289,3.08399 0.3497,0.8133 0.2125,0.82408 1,2.08398 0.8894,1.4231 2.0387,1.89364 2.7227,2.11914 0.6839,0.2255 1.1211,0.258 1.4902,0.2793 0.7383,0.042 1.2189,-0.0161 1.7305,-0.0801 1.0231,-0.13 2.0721,-0.35403 3.2832,-0.64063 2.4222,-0.5729 5.3931,-1.41201 8.3398,-2.2871 5.8936,-1.75 11.6485,-3.64258 11.6485,-3.64258 0.1071,-0.0332 0.2049,-0.0738 0.3066,-0.11133 l 0,-9.11719 c -0.9484,-0.35389 -2.0728,-0.39719 -3.3281,0.0391 0,0 -5.6648,1.85924 -11.3809,3.55664 -2.8176,0.8366 -5.6356,1.62449 -7.7031,2.11719 -0.1603,-0.3854 -0.271,-0.64198 -0.4512,-1.08008 -0.9828,-2.3888 -2.2346,-5.48737 -3.4609,-8.54687 -2.4525,-6.1192 -4.8105,-12.0918 -4.8105,-12.0918 -1.2164,-1.8709 -2.73,-2.81146 -4.543,-3.12304 -13.4809,-1.65382 -27.2165,-4.74487 -40.5684,-6.22071 l 0,0 z"
         transform="translate(-1.2207031e-4,0)"
         id="path14438-9-3-3" />
      <path
         style="opacity:1;fill:#666666;fill-opacity:1;fill-rule:nonzero;stroke:none;stroke-width:2;stroke-linecap:round;stroke-linejoin:round;stroke-miterlimit:4;stroke-dasharray:none;stroke-dashoffset:0;stroke-opacity:1"
         d="m 1737.6533,694.11104 c -0.4788,-0.0481 -0.8668,0.33304 -0.8672,0.85156 l 0,7.13281 a 14.391075,14.511623 0 0 0 -8.502,-2.82422 14.391075,14.511623 0 0 0 -14.3926,14.51172 14.391075,14.511623 0 0 0 14.3926,14.51172 14.391075,14.511623 0 0 0 8.6406,-2.92383 c 0.1522,0.28893 0.4143,0.51143 0.7286,0.54883 l 17.58,2.07422 0,2.97851 -11.2011,-1.33789 0,2.21094 24.789,2.99024 0.7344,0.0879 0.7461,0.0898 0,-2.24023 -6.75,-0.80664 0,-2.99219 18.0566,2.13086 c 0.5017,0.0591 0.9081,-0.32408 0.9082,-0.85547 l 0,-30.61914 c -5e-4,-0.53115 -0.4068,-1.00368 -0.9082,-1.05469 l -43.955,-4.46484 z m 0.8691,1.96875 42.1777,4.32617 0,28.66797 -42.1777,-4.93555 0,-0.17578 a 14.391075,14.511623 0 0 0 4.1524,-10.17969 14.391075,14.511623 0 0 0 -4.1524,-10.1875 l 0,-7.51562 z"
         id="ellipse14450-8-3-9" />
      <path
         id="path14452-0-1-1"
         d="m 1711.9877,728.21211 c -1.7739,0.0361 -3.2761,1.3169 -3.5938,3.0625 -1.1978,6.08339 -1.9075,9.81964 -2.2031,12.33789 -0.1478,1.25913 -0.2554,2.15483 -0.041,3.39062 0.1072,0.61779 0.2979,1.43029 1.043,2.29492 0.7329,0.85054 2.0782,1.39591 3.0195,1.4375 1.0072,0.044 1.3341,-0.12466 1.7012,-0.23828 0.224,-0.0699 0.4251,-0.15525 0.6308,-0.23437 l 0,13.09961 27.4082,0 a 18.658499,18.814795 0 0 1 -1.1191,-6.36914 18.658499,18.814795 0 0 1 9.9238,-16.61133 c -0.7672,-1.93179 -1.9746,-4.96289 -1.9746,-4.96289 -0.9382,-1.44296 -2.1056,-2.1679 -3.5039,-2.40821 -10.3976,-1.27558 -20.9928,-3.66052 -31.291,-4.79882 z"
         style="opacity:1;fill:#666666;fill-opacity:1;fill-rule:nonzero;stroke:none;stroke-width:1.60000002;stroke-linecap:round;stroke-linejoin:round;stroke-miterlimit:4;stroke-dasharray:none;stroke-dashoffset:0;stroke-opacity:1" />
      <path
         style="opacity:1;fill:#666666;fill-opacity:1;fill-rule:nonzero;stroke:none;stroke-width:2;stroke-linecap:round;stroke-linejoin:round;stroke-miterlimit:4;stroke-dasharray:none;stroke-dashoffset:0;stroke-opacity:1"
         d="m 1812.6113,716.04883 c -1.8792,2.54695 -3.004,5.69276 -3.0039,9.11133 0,3.29943 1.0763,6.47685 3.0039,9.09375 l 0,-18.20508 z"
         transform="translate(-1.2207031e-4,0)"
         id="ellipse14464-3-0-2" />
      <path
         style="opacity:1;fill:#cccccc;fill-opacity:1;fill-rule:nonzero;stroke:none;stroke-width:1.60000002;stroke-linecap:round;stroke-linejoin:round;stroke-miterlimit:4;stroke-dasharray:none;stroke-dashoffset:0;stroke-opacity:1"
         d="m 1790.873,702.1543 c -1.3356,0.0272 -2.4657,0.99228 -2.705,2.30664 -0.9018,4.58052 -1.4376,7.39488 -1.6602,9.29101 -0.1113,0.94806 -0.1928,1.62224 -0.031,2.55274 0.081,0.46516 0.2261,1.07748 0.7871,1.72851 0.5518,0.64041 1.5627,1.05072 2.2715,1.08203 0.7584,0.0331 1.0049,-0.0941 1.2812,-0.17968 0.1687,-0.0526 0.3198,-0.11621 0.4746,-0.17578 l 0,9.86328 18.7285,0 a 15.16943,15.296498 0 0 1 -0.4121,-3.46289 15.16943,15.296498 0 0 1 3.0039,-9.09375 l 0,-10.54493 c -7.2418,-0.99561 -14.5847,-2.57647 -21.7383,-3.36718 z"
         transform="translate(-1.2207031e-4,0)"
         id="path14480-4-6-2" />
      <path
         style="opacity:1;fill:#666666;fill-opacity:1;fill-rule:nonzero;stroke:none;stroke-width:1.60000002;stroke-linecap:round;stroke-linejoin:round;stroke-miterlimit:4;stroke-dasharray:none;stroke-dashoffset:0;stroke-opacity:1"
         d="m 1665.5314,750.15426 c -0.6972,-0.0795 -1.3654,0.14233 -1.8579,0.61644 -0.4922,0.47392 -0.7687,1.16128 -0.7687,1.91101 0,0.74973 0.2765,1.50077 0.7687,2.08807 0.4925,0.58754 1.1607,0.96327 1.8579,1.04438 1.453,0.16906 2.6323,-0.96213 2.6323,-2.52676 0,-0.75138 -0.2776,-1.50378 -0.7716,-2.0915 -0.4938,-0.58748 -1.1631,-0.96211 -1.8607,-1.04164 0,0 0,0 0,0 m 0,0.54825 c 1.1714,0.13385 2.1218,1.26487 2.1217,2.52608 0,1.26115 -0.9504,2.17315 -2.1217,2.03718 -1.1703,-0.13585 -2.1181,-1.2665 -2.1182,-2.5255 0,-0.60462 0.223,-1.15891 0.62,-1.54103 0.3972,-0.38224 0.936,-0.56096 1.4982,-0.49673 0,0 0,0 0,0"
         id="path30583-6" />
      <path
         style="opacity:1;fill:#666666;fill-opacity:1;fill-rule:nonzero;stroke:none;stroke-width:1.60000002;stroke-linecap:round;stroke-linejoin:round;stroke-miterlimit:4;stroke-dasharray:none;stroke-dashoffset:0;stroke-opacity:1"
         d="m 1665.5314,736.22088 c -0.6972,-0.0754 -1.3654,0.15026 -1.8579,0.62722 -0.4922,0.47677 -0.7687,1.16574 -0.7687,1.91548 0,0.74972 0.2765,1.49915 0.7687,2.08359 0.4925,0.58469 1.1607,0.95654 1.8579,1.03361 1.453,0.16063 2.6323,-0.9774 2.6323,-2.54203 0,-0.75137 -0.2776,-1.50216 -0.7716,-2.08702 -0.4938,-0.58462 -1.1631,-0.95537 -1.8607,-1.03085 0,0 0,0 0,0 m 0,0.54825 c 1.1714,0.12706 2.1218,1.25256 2.1217,2.51378 0,1.26115 -0.9504,2.17865 -2.1217,2.04948 -1.1703,-0.12906 -2.1181,-1.25421 -2.1182,-2.51321 0,-0.60463 0.223,-1.16021 0.62,-1.54463 0.3972,-0.38453 0.936,-0.56639 1.4982,-0.50542 0,0 0,0 0,0"
         id="path30587-5" />
      <path
         style="opacity:1;fill:#666666;fill-opacity:1;fill-rule:nonzero;stroke:none;stroke-width:1.60000002;stroke-linecap:round;stroke-linejoin:round;stroke-miterlimit:4;stroke-dasharray:none;stroke-dashoffset:0;stroke-opacity:1"
         d="m 1665.5314,743.18756 c -0.6972,-0.0775 -1.3654,0.14629 -1.8579,0.62183 -0.4922,0.47535 -0.7687,1.1635 -0.7687,1.91324 0,0.74973 0.2765,1.49996 0.7687,2.08583 0.4925,0.58611 1.1607,0.9599 1.8579,1.03899 1.453,0.16484 2.6323,-0.96976 2.6323,-2.53439 0,-0.75137 -0.2776,-1.50297 -0.7716,-2.08926 -0.4938,-0.58605 -1.1631,-0.95874 -1.8607,-1.03624 0,0 0,0 0,0 m 0,0.54824 c 1.1714,0.13046 2.1218,1.25872 2.1217,2.51994 0,1.26114 -0.9504,2.1759 -2.1217,2.04333 -1.1703,-0.13246 -2.1181,-1.26036 -2.1182,-2.51936 0,-0.60462 0.223,-1.15956 0.62,-1.54283 0.3972,-0.38339 0.936,-0.56367 1.4982,-0.50108 0,0 0,0 0,0"
         id="path30591-0" />
      <path
         style="opacity:1;fill:#cccccc;fill-opacity:1;fill-rule:nonzero;stroke:none;stroke-width:3;stroke-linecap:round;stroke-linejoin:round;stroke-miterlimit:4;stroke-dasharray:none;stroke-dashoffset:0;stroke-opacity:1"
         d="m 1671.6584,738.06698 c 0,0 18.95,2.05961 18.95,2.05961 0,0 0,3.33399 0,3.33399 0,0 -18.95,-2.08563 -18.95,-2.08563 0,0 0,-3.30797 0,-3.30797"
         id="path30595-5" />
      <path
         style="opacity:1;fill:#cccccc;fill-opacity:1;fill-rule:nonzero;stroke:none;stroke-width:3;stroke-linecap:round;stroke-linejoin:round;stroke-miterlimit:4;stroke-dasharray:none;stroke-dashoffset:0;stroke-opacity:1"
         d="m 1671.6584,745.05144 c 0,0 8.9905,1.00322 8.9905,1.00322 0,0 0,3.32028 0,3.32028 0,0 -8.9905,-1.01557 -8.9905,-1.01557 0,0 0,-3.30793 0,-3.30793"
         id="path30597-4" />
      <path
         style="opacity:1;fill:#cccccc;fill-opacity:1;fill-rule:nonzero;stroke:none;stroke-width:3;stroke-linecap:round;stroke-linejoin:round;stroke-miterlimit:4;stroke-dasharray:none;stroke-dashoffset:0;stroke-opacity:1"
         d="m 1671.6584,752.03592 c 0,0 17.2298,1.97259 17.2298,1.97259 0,0 0,3.3316 0,3.3316 0,0 -17.2298,-1.99626 -17.2298,-1.99626 0,0 0,-3.30793 0,-3.30793"
         id="path30599-3" />
      <path
         style="opacity:1;fill:#cccccc;fill-opacity:1;fill-rule:nonzero;stroke:none;stroke-width:3;stroke-linecap:round;stroke-linejoin:round;stroke-miterlimit:4;stroke-dasharray:none;stroke-dashoffset:0;stroke-opacity:1"
         d="m 1682.1541,746.22261 c 0,0 17.1331,1.91184 17.1331,1.91184 0,0 0,3.34588 0,3.34588 0,0 -17.1331,-1.93537 -17.1331,-1.93537 0,0 0,-3.32235 0,-3.32235"
         id="path30601-1" />
      <path
         style="opacity:1;fill:#cccccc;fill-opacity:1;fill-rule:nonzero;stroke:none;stroke-width:3;stroke-linecap:round;stroke-linejoin:round;stroke-miterlimit:4;stroke-dasharray:none;stroke-dashoffset:0;stroke-opacity:1"
         d="m 1690.4036,754.18201 c 0,0 6.1622,0.70549 6.1622,0.70549 0,0 0,3.34215 0,3.34215 0,0 -6.1622,-0.71397 -6.1622,-0.71397 0,0 0,-3.33367 0,-3.33367"
         id="path30603-9" />
      <path
         d="m 1686.5439,725.62645 c 0,0 0,11.95818 0,11.95818 0,0 13.5884,1.4651 13.5884,1.4651 0,0 0,-12.02524 0,-12.02524 0,0 -13.5884,-1.39804 -13.5884,-1.39804 m 1.8133,2.95301 c 0,0 2.3255,0.24191 2.3255,0.24191 0.4626,0.0481 0.7995,0.0998 1.0391,0.17581 0.2235,0.0743 0.4302,0.18259 0.606,0.33693 0.1757,0.15426 0.3352,0.35698 0.4471,0.5897 0.1118,0.23285 0.1766,0.49387 0.1766,0.76591 0,0.30618 -0.082,0.56969 -0.2247,0.80982 -0.1438,0.23992 -0.3514,0.40572 -0.5909,0.49957 0.3514,0.15594 0.6239,0.37146 0.8156,0.66385 0.1918,0.29233 0.288,0.62661 0.288,1.00083 0,0.28909 -0.064,0.57082 -0.192,0.82925 -0.1279,0.25847 -0.289,0.46312 -0.5126,0.60935 -0.2077,0.14792 -0.4793,0.22127 -0.7826,0.2229 -0.1915,-0.004 -0.6704,-0.0371 -1.4202,-0.10044 0,0 -1.9749,-0.21068 -1.9749,-0.21068 0,0 0,-6.43424 0,-6.43424 0,0 0,-4.7e-4 0,-4.7e-4 m 5.2337,0.54443 c 0,0 1.0393,0.10812 1.0393,0.10812 0,0 0,2.33223 0,2.33223 0.3522,-0.40554 0.7373,-0.77302 1.5542,-0.68754 0.5129,0.0537 0.9617,0.28767 1.3306,0.7183 0.4173,0.4868 0.7045,1.23165 0.6724,2.08053 -0.048,1.0004 -0.2391,1.25371 -0.6242,1.68997 -0.3528,0.38833 -0.9462,0.52935 -1.427,0.47806 -0.3044,-0.0325 -0.5773,-0.0973 -0.8176,-0.25914 -0.2402,-0.16168 -0.5124,-0.44524 -0.6884,-0.71921 0,0 0,0.73181 0,0.73181 0,0 -1.0393,-0.11083 -1.0393,-0.11083 0,0 0,-6.3623 0,-6.3623 m -4.1987,0.63409 c 0,0 -0.015,1.57692 -0.015,1.57692 0,0 0.9074,0.0954 0.9074,0.0954 0,0 0.5268,0.0554 0.5268,0.0554 0.1915,0.0201 0.3683,0.0387 0.5598,-0.0267 0.1597,-0.0509 0.3189,-0.16999 0.3988,-0.33159 0.064,-0.11224 0.096,-0.24369 0.096,-0.37971 0,-0.17002 -0.081,-0.33275 -0.1765,-0.46171 -0.1277,-0.16635 -0.3038,-0.26993 -0.4794,-0.30526 -0.1117,-0.0283 -0.4454,-0.0632 -1.0037,-0.12149 0,0 -0.8137,-0.10164 -0.8137,-0.10164 0,0 10e-5,3.9e-4 10e-5,3.9e-4 m 6.3898,2.0457 c -0.3364,-0.0187 -0.7048,0.1997 -0.8808,0.40244 -0.1761,0.2367 -0.271,0.54797 -0.271,1.00742 0,0.47656 0.1758,0.83583 0.3037,1.07065 0.2563,0.2995 0.3683,0.39776 0.7848,0.52709 0.2402,0.0767 0.6724,0.0203 0.8968,-0.16037 0.2565,-0.1942 0.4662,-0.51365 0.5143,-1.01968 0.064,-0.77704 -0.2097,-1.1967 -0.4181,-1.42302 -0.2885,-0.28577 -0.6574,-0.39307 -0.9297,-0.40453 0,0 0,0 0,0 m -6.4224,0.53084 c 0,0 0.015,1.68441 0.015,1.68441 0,0 1.212,0.12875 1.212,0.12875 0,0 0.8299,0.0881 0.8299,0.0881 0.2873,-0.0206 0.3997,-0.0443 0.5753,-0.21263 0.08,-0.077 0.2064,-0.24984 0.2223,-0.50325 0,-0.20401 -0.048,-0.29441 -0.096,-0.41852 -0.048,-0.0906 -0.095,-0.16258 -0.1591,-0.23734 -0.1597,-0.18687 -0.4308,-0.30067 -0.6384,-0.32257 -0.2713,-0.0453 -0.5587,-0.059 -0.8298,-0.0876 0,0 -1.1316,-0.11941 -1.1316,-0.11941 0,0 -2e-4,-2e-5 -2e-4,-2e-5"
         id="path30607-8"
         style="fill:#1f7a7a;fill-opacity:1" />
      <path
         id="path138662-7"
         d="m 1785.6639,764.53488 c -0.7349,-0.0838 -1.4393,0.15003 -1.9583,0.64979 -0.5189,0.49954 -0.8103,1.22408 -0.8103,2.01436 0,0.79028 0.2914,1.58193 0.8103,2.201 0.519,0.61932 1.2234,1.01537 1.9583,1.10087 1.5316,0.17819 2.7746,-1.01417 2.7746,-2.66342 0,-0.79201 -0.2926,-1.58511 -0.8133,-2.20462 -0.5204,-0.61926 -1.226,-1.01415 -1.9613,-1.09798 0,0 0,0 0,0 m 0,0.5779 c 1.2347,0.14109 2.2365,1.33328 2.2365,2.66271 -10e-5,1.32936 -1.0018,2.29068 -2.2365,2.14736 -1.2335,-0.1432 -2.2327,-1.335 -2.2327,-2.6621 -10e-5,-0.63732 0.235,-1.22159 0.6535,-1.62437 0.4186,-0.40291 0.9866,-0.5913 1.5792,-0.5236 0,0 0,0 0,0"
         style="opacity:1;fill:#666666;fill-opacity:1;fill-rule:nonzero;stroke:none;stroke-width:1.60000002;stroke-linecap:round;stroke-linejoin:round;stroke-miterlimit:4;stroke-dasharray:none;stroke-dashoffset:0;stroke-opacity:1" />
      <path
         id="path138664-7"
         d="m 1787.3973,767.71749 c 0,0.4948 -0.1828,0.94822 -0.508,1.26045 -0.3251,0.31215 -0.766,0.45754 -1.2255,0.40428 -0.9563,-0.11085 -1.7311,-1.03479 -1.7311,-2.06375 0,-1.02896 0.7748,-1.77445 1.7311,-1.665 0.4595,0.0526 0.9004,0.29952 1.2255,0.68656 0.3252,0.38714 0.508,0.88265 0.508,1.37746 0,0 0,0 0,0"
         style="opacity:1;fill:#1f7a7a;fill-opacity:1;fill-rule:nonzero;stroke:none;stroke-width:1.60000002;stroke-linecap:round;stroke-linejoin:round;stroke-miterlimit:4;stroke-dasharray:none;stroke-dashoffset:0;stroke-opacity:1" />
      <path
         id="path138666-6"
         d="m 1785.6639,749.8479 c -0.7349,-0.0795 -1.4393,0.15838 -1.9583,0.66114 -0.5189,0.50256 -0.8103,1.22879 -0.8103,2.01907 0,0.79028 0.2914,1.58024 0.8103,2.1963 0.519,0.6163 1.2234,1.00827 1.9583,1.08951 1.5316,0.16932 2.7746,-1.03026 2.7746,-2.67952 0,-0.79201 -0.2926,-1.58341 -0.8133,-2.1999 -0.5204,-0.61624 -1.226,-1.00704 -1.9613,-1.0866 0,0 0,0 0,0 m 0,0.5779 c 1.2347,0.13393 2.2365,1.32031 2.2365,2.64974 -10e-5,1.32936 -1.0018,2.29649 -2.2365,2.16033 -1.2335,-0.13604 -2.2327,-1.32205 -2.2327,-2.64914 -10e-5,-0.63733 0.235,-1.22297 0.6535,-1.62817 0.4186,-0.40534 0.9866,-0.59702 1.5792,-0.53276 0,0 0,0 0,0"
         style="opacity:1;fill:#666666;fill-opacity:1;fill-rule:nonzero;stroke:none;stroke-width:1.60000002;stroke-linecap:round;stroke-linejoin:round;stroke-miterlimit:4;stroke-dasharray:none;stroke-dashoffset:0;stroke-opacity:1" />
      <path
         id="path138670-8"
         d="m 1785.6639,757.19137 c -0.7349,-0.0816 -1.4393,0.15421 -1.9583,0.65547 -0.5189,0.50105 -0.8103,1.22643 -0.8103,2.01672 0,0.79028 0.2914,1.58108 0.8103,2.19865 0.519,0.61781 1.2234,1.01182 1.9583,1.09518 1.5316,0.17377 2.7746,-1.02221 2.7746,-2.67147 0,-0.79201 -0.2926,-1.58425 -0.8133,-2.20225 -0.5204,-0.61775 -1.226,-1.01061 -1.9613,-1.0923 0,0 0,0 0,0 m 0,0.57791 c 1.2347,0.13751 2.2365,1.32679 2.2365,2.65622 -10e-5,1.32936 -1.0018,2.29359 -2.2365,2.15385 -1.2335,-0.13962 -2.2327,-1.32853 -2.2327,-2.65562 -10e-5,-0.63733 0.235,-1.22228 0.6535,-1.62628 0.4186,-0.40412 0.9866,-0.59416 1.5792,-0.52817 0,0 0,0 0,0"
         style="opacity:1;fill:#666666;fill-opacity:1;fill-rule:nonzero;stroke:none;stroke-width:1.60000002;stroke-linecap:round;stroke-linejoin:round;stroke-miterlimit:4;stroke-dasharray:none;stroke-dashoffset:0;stroke-opacity:1" />
      <path
         id="path138674-7"
         d="m 1792.1223,751.79385 c 0,0 19.9749,2.17101 19.9749,2.17101 0,0 0,3.51431 0,3.51431 0,0 -19.9749,-2.19844 -19.9749,-2.19844 0,0 0,-3.48688 0,-3.48688"
         style="opacity:1;fill:#cccccc;fill-opacity:1;fill-rule:nonzero;stroke:none;stroke-width:3;stroke-linecap:round;stroke-linejoin:round;stroke-miterlimit:4;stroke-dasharray:none;stroke-dashoffset:0;stroke-opacity:1" />
      <path
         id="path138676-3"
         d="m 1792.1223,759.15607 c 0,0 9.4767,1.05748 9.4767,1.05748 0,0 0,3.49986 0,3.49986 0,0 -9.4767,-1.0705 -9.4767,-1.0705 0,0 0,-3.48684 0,-3.48684"
         style="opacity:1;fill:#cccccc;fill-opacity:1;fill-rule:nonzero;stroke:none;stroke-width:3;stroke-linecap:round;stroke-linejoin:round;stroke-miterlimit:4;stroke-dasharray:none;stroke-dashoffset:0;stroke-opacity:1" />
      <path
         id="path138678-2"
         d="m 1792.1223,766.51831 c 0,0 18.1617,2.07928 18.1617,2.07928 0,0 0,3.51179 0,3.51179 0,0 -18.1617,-2.10422 -18.1617,-2.10422 0,0 0,-3.48685 0,-3.48685"
         style="opacity:1;fill:#cccccc;fill-opacity:1;fill-rule:nonzero;stroke:none;stroke-width:3;stroke-linecap:round;stroke-linejoin:round;stroke-miterlimit:4;stroke-dasharray:none;stroke-dashoffset:0;stroke-opacity:1" />
      <path
         style="opacity:1;fill:#cccccc;fill-opacity:1;fill-rule:nonzero;stroke:none;stroke-width:3;stroke-linecap:round;stroke-linejoin:round;stroke-miterlimit:4;stroke-dasharray:none;stroke-dashoffset:0;stroke-opacity:1"
         d="m 1803.1855,760.39062 0,3.50196 9.4258,1.06445 0,-3.51367 -9.4258,-1.05274 z"
         transform="translate(-1.2207031e-4,0)"
         id="path138680-5" />
      <path
         style="fill:#1f7a7a;fill-opacity:1"
         d="m 1807.8125,738.67969 0,12.60547 4.7988,0.51757 0,-2.94726 c -0.2571,-0.0177 -0.3796,-0.0207 -0.8047,-0.0566 l -2.082,-0.22266 0,-6.7832 2.4512,0.25586 c 0.1673,0.0174 0.2982,0.0355 0.4355,0.0547 l 0,-2.92969 -4.7988,-0.49414 z m 3.002,4.35547 -0.016,1.66211 0.9571,0.10156 0.5546,0.0586 c 0.1029,0.0108 0.2019,0.0211 0.3008,0.0195 l 0,-1.62109 c -0.1513,-0.028 -0.4153,-0.0587 -0.9375,-0.11328 l -0.8574,-0.10742 0,0 z m -0.033,2.71679 0.016,1.77539 1.2773,0.13477 0.5371,0.0566 0,-1.77539 c -0.2134,-0.0243 -0.4283,-0.0445 -0.6367,-0.0664 l -1.1934,-0.125 z"
         transform="translate(-1.2207031e-4,0)"
         id="path138686-3" />
      <path
         style="opacity:1;fill:#666666;fill-opacity:1;fill-rule:nonzero;stroke:none;stroke-width:1.60000002;stroke-linecap:round;stroke-linejoin:round;stroke-miterlimit:4;stroke-dasharray:none;stroke-dashoffset:0;stroke-opacity:1"
         d="m 1750.0125,719.59964 c -0.5668,-0.0646 -1.1101,0.11571 -1.5104,0.50117 -0.4002,0.38529 -0.625,0.94412 -0.625,1.55366 0,0.60953 0.2248,1.22012 0.625,1.6976 0.4003,0.47767 0.9436,0.78314 1.5104,0.84908 1.1813,0.13745 2.1401,-0.78221 2.1401,-2.05426 0,-0.61087 -0.2257,-1.22257 -0.6273,-1.70039 -0.4015,-0.47763 -0.9457,-0.78221 -1.5128,-0.84686 0,0 0,0 0,0 m 0,0.44572 c 0.9523,0.10883 1.725,1.02835 1.725,2.05372 0,1.02532 -0.7727,1.76677 -1.725,1.65623 -0.9514,-0.11044 -1.722,-1.02967 -1.7221,-2.05323 0,-0.49157 0.1813,-0.94221 0.5041,-1.25287 0.3229,-0.31076 0.761,-0.45607 1.218,-0.40385 0,0 0,0 0,0"
         id="path138692-5" />
      <path
         style="opacity:1;fill:#1f7a7a;fill-opacity:1;fill-rule:nonzero;stroke:none;stroke-width:1.60000002;stroke-linecap:round;stroke-linejoin:round;stroke-miterlimit:4;stroke-dasharray:none;stroke-dashoffset:0;stroke-opacity:1"
         d="m 1751.3494,722.05434 c 0,0.38164 -0.1409,0.73136 -0.3917,0.97217 -0.2508,0.24076 -0.5908,0.3529 -0.9453,0.31182 -0.7376,-0.0855 -1.3351,-0.79812 -1.3351,-1.59175 0,-0.79362 0.5975,-1.3686 1.3351,-1.28419 0.3545,0.0405 0.6945,0.23102 0.9453,0.52954 0.2508,0.2986 0.3917,0.68078 0.3917,1.06241 0,0 0,0 0,0"
         id="path138694-7" />
      <path
         style="opacity:1;fill:#666666;fill-opacity:1;fill-rule:nonzero;stroke:none;stroke-width:1.60000002;stroke-linecap:round;stroke-linejoin:round;stroke-miterlimit:4;stroke-dasharray:none;stroke-dashoffset:0;stroke-opacity:1"
         d="m 1750.0125,708.27175 c -0.5668,-0.0613 -1.1101,0.12215 -1.5104,0.50993 -0.4002,0.38762 -0.625,0.94774 -0.625,1.55728 0,0.60953 0.2248,1.21882 0.625,1.69398 0.4003,0.47535 0.9436,0.77767 1.5104,0.84033 1.1813,0.13059 2.1401,-0.79463 2.1401,-2.06668 0,-0.61087 -0.2257,-1.22127 -0.6273,-1.69676 -0.4015,-0.4753 -0.9457,-0.77672 -1.5128,-0.83808 0,0 0,0 0,0 m 0,0.44573 c 0.9523,0.10329 1.725,1.01833 1.725,2.04371 0,1.02532 -0.7727,1.77125 -1.725,1.66624 -0.9514,-0.10494 -1.722,-1.01968 -1.7221,-2.04326 0,-0.49156 0.1813,-0.94325 0.5041,-1.25578 0.3229,-0.31263 0.761,-0.46048 1.218,-0.41091 0,0 0,0 0,0"
         id="path138696-5" />
      <path
         style="opacity:1;fill:#666666;fill-opacity:1;fill-rule:nonzero;stroke:none;stroke-width:1.60000002;stroke-linecap:round;stroke-linejoin:round;stroke-miterlimit:4;stroke-dasharray:none;stroke-dashoffset:0;stroke-opacity:1"
         d="m 1750.0125,713.93568 c -0.5668,-0.063 -1.1101,0.11893 -1.5104,0.50556 -0.4002,0.38645 -0.625,0.94593 -0.625,1.55547 0,0.60953 0.2248,1.21946 0.625,1.69578 0.4003,0.47651 0.9436,0.78041 1.5104,0.84471 1.1813,0.13402 2.1401,-0.78842 2.1401,-2.06048 0,-0.61086 -0.2257,-1.22192 -0.6273,-1.69857 -0.4015,-0.47646 -0.9457,-0.77946 -1.5128,-0.84247 0,0 0,0 0,0 m 0,0.44573 c 0.9523,0.10606 1.725,1.02334 1.725,2.04871 0,1.02532 -0.7727,1.76902 -1.725,1.66124 -0.9514,-0.10769 -1.722,-1.02467 -1.7221,-2.04825 0,-0.49156 0.1813,-0.94273 0.5041,-1.25432 0.3229,-0.3117 0.761,-0.45828 1.218,-0.40738 0,0 0,0 0,0"
         id="path138700-6" />
      <path
         style="opacity:1;fill:#cccccc;fill-opacity:1;fill-rule:nonzero;stroke:none;stroke-width:3;stroke-linecap:round;stroke-linejoin:round;stroke-miterlimit:4;stroke-dasharray:none;stroke-dashoffset:0;stroke-opacity:1"
         d="m 1754.9938,709.77263 c 0,0 15.4064,1.67448 15.4064,1.67448 0,0 0,2.71055 0,2.71055 0,0 -15.4064,-1.69564 -15.4064,-1.69564 0,0 0,-2.68939 0,-2.68939"
         id="path138704-5" />
      <path
         style="opacity:1;fill:#cccccc;fill-opacity:1;fill-rule:nonzero;stroke:none;stroke-width:3;stroke-linecap:round;stroke-linejoin:round;stroke-miterlimit:4;stroke-dasharray:none;stroke-dashoffset:0;stroke-opacity:1"
         d="m 1754.9938,715.45102 c 0,0 7.3093,0.81563 7.3093,0.81563 0,0 0,2.6994 0,2.6994 0,0 -7.3093,-0.82567 -7.3093,-0.82567 0,0 0,-2.68936 0,-2.68936"
         id="path138706-9" />
      <path
         style="opacity:1;fill:#cccccc;fill-opacity:1;fill-rule:nonzero;stroke:none;stroke-width:3;stroke-linecap:round;stroke-linejoin:round;stroke-miterlimit:4;stroke-dasharray:none;stroke-dashoffset:0;stroke-opacity:1"
         d="m 1754.9938,721.12944 c 0,0 14.0079,1.60372 14.0079,1.60372 0,0 0,2.7086 0,2.7086 0,0 -14.0079,-1.62296 -14.0079,-1.62296 0,0 0,-2.68936 0,-2.68936"
         id="path138708-5" />
      <path
         style="opacity:1;fill:#cccccc;fill-opacity:1;fill-rule:nonzero;stroke:none;stroke-width:3;stroke-linecap:round;stroke-linejoin:round;stroke-miterlimit:4;stroke-dasharray:none;stroke-dashoffset:0;stroke-opacity:1"
         d="m 1763.5268,716.40319 c 0,0 13.9294,1.55433 13.9294,1.55433 0,0 0,2.72022 0,2.72022 0,0 -13.9294,-1.57347 -13.9294,-1.57347 0,0 0,-2.70108 0,-2.70108"
         id="path138710-8" />
      <path
         style="opacity:1;fill:#cccccc;fill-opacity:1;fill-rule:nonzero;stroke:none;stroke-width:3;stroke-linecap:round;stroke-linejoin:round;stroke-miterlimit:4;stroke-dasharray:none;stroke-dashoffset:0;stroke-opacity:1"
         d="m 1770.2337,722.87421 c 0,0 5.0099,0.57357 5.0099,0.57357 0,0 0,2.71717 0,2.71717 0,0 -5.0099,-0.58045 -5.0099,-0.58045 0,0 0,-2.71029 0,-2.71029"
         id="path138712-3" />
      <path
         d="m 1767.0957,699.65843 c 0,0 0,9.72205 0,9.72205 0,0 11.0475,1.19113 11.0475,1.19113 0,0 0,-9.77656 0,-9.77656 0,0 -11.0475,-1.13662 -11.0475,-1.13662 m 1.4743,2.40081 c 0,0 1.8906,0.19667 1.8906,0.19667 0.3761,0.0391 0.65,0.0811 0.8448,0.14294 0.1817,0.0604 0.3498,0.14845 0.4927,0.27392 0.1428,0.12542 0.2725,0.29023 0.3634,0.47943 0.091,0.18932 0.1437,0.40152 0.1437,0.62269 0,0.24892 -0.066,0.46316 -0.1827,0.65839 -0.1169,0.19506 -0.2857,0.32985 -0.4804,0.40615 0.2857,0.12678 0.5072,0.302 0.6631,0.53971 0.1559,0.23766 0.2341,0.50944 0.2341,0.81368 0,0.23503 -0.052,0.46408 -0.1561,0.67419 -0.104,0.21013 -0.2349,0.37651 -0.4168,0.4954 -0.1688,0.12025 -0.3896,0.17989 -0.6362,0.18122 -0.1557,-0.003 -0.5451,-0.0301 -1.1546,-0.0817 0,0 -1.6056,-0.17128 -1.6056,-0.17128 0,0 0,-5.23107 0,-5.23107 0,0 0,-3.8e-4 0,-3.8e-4 m 4.255,0.44263 c 0,0 0.8449,0.0879 0.8449,0.0879 0,0 0,1.89611 0,1.89611 0.2863,-0.3297 0.5995,-0.62846 1.2636,-0.55897 0.417,0.0436 0.7819,0.23388 1.0818,0.58398 0.3392,0.39577 0.5728,1.00134 0.5467,1.69148 -0.039,0.81333 -0.1944,1.01927 -0.5075,1.37395 -0.2869,0.31572 -0.7693,0.43036 -1.1601,0.38866 -0.2475,-0.0264 -0.4694,-0.0791 -0.6648,-0.21067 -0.1952,-0.13145 -0.4165,-0.36199 -0.5597,-0.58472 0,0 0,0.59496 0,0.59496 0,0 -0.8449,-0.0901 -0.8449,-0.0901 0,0 0,-5.17257 0,-5.17257 m -3.4136,0.51551 c 0,0 -0.013,1.28205 -0.013,1.28205 0,0 0.7378,0.0775 0.7378,0.0775 0,0 0.4283,0.045 0.4283,0.045 0.1557,0.0164 0.2994,0.0315 0.4552,-0.0217 0.1297,-0.0414 0.2592,-0.1382 0.3241,-0.26958 0.052,-0.0912 0.078,-0.19813 0.078,-0.30871 0,-0.13823 -0.066,-0.27053 -0.1435,-0.37538 -0.1038,-0.13524 -0.247,-0.21944 -0.3897,-0.24817 -0.091,-0.023 -0.3622,-0.0514 -0.816,-0.0988 0,0 -0.6616,-0.0826 -0.6616,-0.0826 0,0 10e-5,3.2e-4 10e-5,3.2e-4 m 5.1949,1.66316 c -0.2734,-0.0152 -0.5729,0.16236 -0.7161,0.32719 -0.1431,0.19243 -0.2203,0.4455 -0.2203,0.81903 0,0.38745 0.1429,0.67954 0.2469,0.87045 0.2084,0.24349 0.2994,0.32337 0.638,0.42853 0.1954,0.0624 0.5467,0.0165 0.7292,-0.13039 0.2085,-0.15788 0.379,-0.4176 0.4181,-0.829 0.052,-0.63174 -0.1705,-0.97293 -0.3399,-1.15692 -0.2346,-0.23234 -0.5345,-0.31957 -0.7559,-0.32889 0,0 0,0 0,0 m -5.2214,0.43157 c 0,0 0.013,1.36944 0.013,1.36944 0,0 0.9854,0.10467 0.9854,0.10467 0,0 0.6747,0.0717 0.6747,0.0717 0.2336,-0.0167 0.3249,-0.036 0.4677,-0.17286 0.065,-0.0626 0.1678,-0.20313 0.1808,-0.40915 0,-0.16586 -0.039,-0.23935 -0.078,-0.34026 -0.039,-0.0737 -0.077,-0.13218 -0.1294,-0.19296 -0.1299,-0.15192 -0.3503,-0.24444 -0.519,-0.26225 -0.2206,-0.0368 -0.4543,-0.0479 -0.6747,-0.0712 0,0 -0.92,-0.0971 -0.92,-0.0971 0,0 -10e-5,-10e-6 -10e-5,-10e-6"
         id="path138716-3"
         style="fill:#1f7a7a;fill-opacity:1" />
      <path
         style="fill:#000000;fill-opacity:1;fill-rule:evenodd;stroke:none;stroke-width:0.80514383px;stroke-linecap:butt;stroke-linejoin:miter;stroke-opacity:1"
         d="m 1650.329,718.80244 c -0.589,-0.0592 -1.0658,0.4091 -1.0664,1.04688 l 0,8.77343 a 17.701117,17.849392 0 0 0 -10.4589,-3.47265 17.701117,17.849392 0 0 0 -17.7012,17.84961 17.701117,17.849392 0 0 0 17.7012,17.84961 17.701117,17.849392 0 0 0 10.6289,-3.59571 c 0.187,0.35546 0.5099,0.62782 0.8964,0.67383 l 21.625,2.55078 0,3.66602 -13.7773,-1.64649 0,2.71876 30.4902,3.67773 0.9043,0.10937 6.6719,0.80469 0,-0.72656 c 1.3967,-0.0565 3.1816,-0.10531 5.4473,-0.041 1.9795,0.0555 3.9683,0.20604 5.4414,0.51368 0.7366,0.15375 1.3428,0.35149 1.7304,0.5625 0.3877,0.21101 0.5027,0.38929 0.5196,0.51171 0.028,0.20117 -0.022,0.3512 -0.1836,0.56055 -0.1613,0.20934 -0.4407,0.43815 -0.7637,0.65235 -0.3231,0.2142 -0.685,0.41627 -1.0176,0.61328 -0.3326,0.19686 -0.6343,0.36498 -0.8808,0.6582 -0.1234,0.14654 -0.2501,0.36319 -0.2403,0.63867 0.011,0.27561 0.1731,0.51124 0.3438,0.6582 0.3415,0.29419 0.7792,0.44217 1.4863,0.63086 1.4143,0.3771 3.89,0.78631 8.0996,1.32422 0.8757,0.1123 1.5352,0.25121 1.9688,0.39844 0.409,0.13905 0.5477,0.28494 0.5625,0.29687 -0.011,0.0208 -0.011,0.0361 -0.061,0.0957 -0.1409,0.16942 -0.48,0.44058 -0.9785,0.73047 -1.6368,0.95189 -4.9997,2.19525 -9.3262,3.59765 -0.9118,-0.75 -2.254,-1.22127 -3.9785,-1.16797 -3.8099,0.1178 -6.1754,2.81635 -8.334,5.21485 0,0 -0.06,0.35894 -0.1797,0.89844 -0.1199,0.5398 2.0996,2.69716 3.2988,3.47656 1.1994,0.7795 3.8777,0.14115 7.3145,-1.49805 3.1473,-1.5012 3.8532,-4.12351 2.707,-5.97851 4.1129,-1.338 7.3076,-2.52611 9.0762,-3.55469 0.5587,-0.32483 0.9829,-0.62753 1.2812,-0.98633 0.1492,-0.17939 0.2708,-0.38043 0.3243,-0.62305 0.054,-0.24262 0.014,-0.52287 -0.1094,-0.74414 -0.2463,-0.44226 -0.6784,-0.65548 -1.2324,-0.84375 -0.5541,-0.18841 -1.2708,-0.33555 -2.1914,-0.45312 -4.1929,-0.5357 -6.6619,-0.94762 -7.9493,-1.29102 -0.4514,-0.12062 -0.5692,-0.19984 -0.7265,-0.27734 0.1044,-0.0749 0.1449,-0.11653 0.3066,-0.21289 0.3101,-0.18369 0.6909,-0.39539 1.0664,-0.64453 0.3755,-0.24899 0.7483,-0.53361 1.0371,-0.90821 0.2889,-0.3746 0.4927,-0.87645 0.418,-1.41797 -0.086,-0.62041 -0.5581,-1.06019 -1.1113,-1.36132 -0.5533,-0.30112 -1.2472,-0.51082 -2.0469,-0.67774 -1.5988,-0.33398 -3.6267,-0.48208 -5.6406,-0.53906 -1.3295,-0.0374 -2.5364,-0.037 -3.5938,-0.0195 -0.736,0.0123 -1.2992,0.0376 -1.8847,0.0605 l 0,-0.88867 -14.0567,-1.67968 0,-3.68165 22.209,2.6211 c 0.617,0.0727 1.1171,-0.39912 1.1172,-1.05274 l 0,-37.6621 c -6e-4,-0.65333 -0.5005,-1.23414 -1.1172,-1.29688 l -54.0664,-5.49219 z m 1.0684,2.42188 51.8809,5.32226 0,35.26172 -51.8809,-6.07031 0,-0.21484 a 17.701117,17.849392 0 0 0 5.1074,-12.52344 17.701117,17.849392 0 0 0 -5.1074,-12.53516 l 0,-9.24023 z"
         id="path14420-9-9-0" />
      <path
         style="fill:#000000;fill-opacity:1;fill-rule:evenodd;stroke:none;stroke-width:0.80514383px;stroke-linecap:butt;stroke-linejoin:miter;stroke-opacity:1"
         d="m 1769.6406,731.48828 c -0.6209,-0.0624 -1.1244,0.43123 -1.125,1.10352 l 0,9.24804 a 18.658499,18.814795 0 0 0 -11.0234,-3.66015 18.658499,18.814795 0 0 0 -18.6582,18.81445 18.658499,18.814795 0 0 0 18.6582,18.81445 18.658499,18.814795 0 0 0 11.2031,-3.79101 c 0.1972,0.37462 0.5379,0.66245 0.9453,0.71094 l 22.793,2.68945 0,3.86328 -14.5215,-1.73437 0,2.86523 32.1387,3.87695 0.9531,0.11524 1.6074,0.19336 0,-2.9043 -9.3906,-1.12305 0,-3.88086 9.3906,1.10938 0,-2.48242 -41.8437,-4.89649 0,-0.22656 a 18.658499,18.814795 0 0 0 5.3828,-13.19922 18.658499,18.814795 0 0 0 -5.3828,-13.21289 l 0,-9.74023 41.8437,4.29296 0,-2.48046 -42.9707,-4.36524 z"
         transform="translate(-1.2207031e-4,0)"
         id="path14434-1-5-5" />
      <rect
         style="opacity:1;fill:none;fill-opacity:1;fill-rule:nonzero;stroke:#666666;stroke-width:0.29785961;stroke-linecap:round;stroke-linejoin:round;stroke-miterlimit:4;stroke-dasharray:none;stroke-dashoffset:0;stroke-opacity:1"
         id="rect476781"
         width="207.03087"
         height="157.00214"
         x="1605.5798"
         y="660.62402" />
    </g>
  </g>
</svg>
