<?xml version="1.0" encoding="UTF-8" standalone="no"?>
<svg
   xmlns:dc="http://purl.org/dc/elements/1.1/"
   xmlns:cc="http://creativecommons.org/ns#"
   xmlns:rdf="http://www.w3.org/1999/02/22-rdf-syntax-ns#"
   xmlns:svg="http://www.w3.org/2000/svg"
   xmlns="http://www.w3.org/2000/svg"
   version="1.1"
   id="svg5156"
   viewBox="0 0 210 160"
   height="160"
   width="210">
  <defs
     id="defs5158">
    <linearGradient
       spreadMethod="pad"
       gradientUnits="userSpaceOnUse"
       y2="593.78698"
       y1="3.6658269"
       x2="590.86259"
       x1="0.74144253"
       id="gradientFill"
       gradientTransform="matrix(1.2219423,0,0,0.81836924,-767.16729,-40.990215)">
      <stop
         id="stop6361"
         stop-opacity="1"
         stop-color="rgb(203,206,208)"
         offset="0" />
      <stop
         id="stop6363"
         stop-opacity="1"
         stop-color="rgb(132,131,139)"
         offset="1" />
    </linearGradient>
    <linearGradient
       spreadMethod="pad"
       gradientUnits="userSpaceOnUse"
       y2="593.78699"
       y1="3.6658268"
       x2="590.86261"
       x1="0.7414425"
       id="gradientFill-0"
       gradientTransform="matrix(1.2219423,0,0,0.81836924,-767.16729,-40.990215)">
      <stop
         id="stop6361-6"
         stop-opacity="1"
         stop-color="rgb(203,206,208)"
         offset="0" />
      <stop
         id="stop6363-2"
         stop-opacity="1"
         stop-color="rgb(132,131,139)"
         offset="1" />
    </linearGradient>
  </defs>
  <metadata
     id="metadata5161">
    <rdf:RDF>
      <cc:Work
         rdf:about="">
        <dc:format>image/svg+xml</dc:format>
        <dc:type
           rdf:resource="http://purl.org/dc/dcmitype/StillImage" />
        <dc:title></dc:title>
      </cc:Work>
    </rdf:RDF>
  </metadata>
  <g
     transform="translate(0,-892.36221)"
     id="layer1">
    <g
       id="g484628"
       transform="translate(-1604.0953,658.71811)">
      <path
         style="opacity:1;fill:#000000;fill-opacity:1;fill-rule:nonzero;stroke:none;stroke-width:1.60000002;stroke-linecap:round;stroke-linejoin:round;stroke-miterlimit:4;stroke-dasharray:none;stroke-dashoffset:0;stroke-opacity:1"
         d="m 1736.3633,350.21875 c -2.2999,0.0468 -4.2483,1.70744 -4.6602,3.9707 -1.553,7.8873 -2.4722,12.73305 -2.8554,15.99805 -0.1916,1.6325 -0.333,2.79233 -0.055,4.39453 0.1389,0.801 0.3876,1.85556 1.3535,2.97656 0.9502,1.1028 2.6936,1.80938 3.914,1.86329 1.3059,0.057 1.7312,-0.1613 2.2071,-0.3086 0.2905,-0.091 0.5497,-0.20013 0.8164,-0.30273 l 0,13.33398 40.8164,0 0,-15.42383 c 1.0234,2.5459 2.0668,5.13591 2.9004,7.16211 0.502,1.2202 0.9393,2.27069 1.289,3.08399 0.3497,0.8133 0.2125,0.82408 1,2.08398 0.8894,1.4231 2.0387,1.89364 2.7227,2.11914 0.6839,0.2255 1.1211,0.25605 1.4902,0.27735 0.7383,0.042 1.2189,-0.0161 1.7305,-0.0801 1.0231,-0.13 2.0721,-0.35207 3.2832,-0.63867 2.4222,-0.5729 5.3931,-1.41201 8.3398,-2.28711 5.8936,-1.75 11.6485,-3.64258 11.6485,-3.64258 0.1071,-0.0332 0.2049,-0.0738 0.3066,-0.11133 l 0,-9.11719 c -0.9485,-0.35413 -2.0727,-0.39919 -3.3281,0.0371 0,0 -5.6648,1.8612 -11.3809,3.5586 -2.8176,0.8366 -5.6356,1.62253 -7.7031,2.11523 -0.1603,-0.3854 -0.271,-0.64001 -0.4512,-1.07813 -0.9828,-2.3888 -2.2346,-5.48737 -3.4609,-8.54687 -2.4525,-6.1192 -4.8105,-12.0918 -4.8105,-12.0918 -1.2164,-1.8709 -2.73,-2.81144 -4.543,-3.12304 -13.4809,-1.6538 -27.2165,-4.74487 -40.5684,-6.22071 l 0,-0.002 z"
         transform="translate(-1.2207031e-4,0)"
         id="path28340-5-7" />
      <path
         style="opacity:1;fill:#cccccc;fill-opacity:1;fill-rule:nonzero;stroke:none;stroke-width:2;stroke-linecap:round;stroke-linejoin:round;stroke-miterlimit:4;stroke-dasharray:none;stroke-dashoffset:0;stroke-opacity:1"
         d="m 1810.1992,250.99805 c -0.3606,-0.0362 -0.654,0.2502 -0.6543,0.64062 l 0,5.36914 a 10.835845,10.926612 0 0 0 -6.4023,-2.125 10.835845,10.926612 0 0 0 -10.834,10.92774 10.835845,10.926612 0 0 0 10.834,10.92578 10.835845,10.926612 0 0 0 6.5058,-2.20117 c 0.1144,0.21812 0.3138,0.3839 0.5508,0.41211 l 2.4121,0.28515 0,-1.41992 -1.7578,-0.20508 0,-0.13281 a 10.835845,10.926612 0 0 0 1.7578,-2.38867 l 0,-10.57422 a 10.835845,10.926612 0 0 0 -1.7578,-2.37305 l 0,-5.6582 1.7578,0.17969 0,-1.41797 -2.4121,-0.24414 z"
         transform="translate(-1.2207031e-4,0)"
         id="path28360-5-3" />
      <path
         id="path28330-0-7"
         d="m 1618.7611,335.26604 c -2.182,0.0444 -4.0306,1.61985 -4.4213,3.76695 -1.4734,7.4826 -2.3457,12.07806 -2.7093,15.17552 -0.1817,1.5487 -0.3152,2.6504 -0.052,4.1704 0.1319,0.7599 0.3676,1.76 1.284,2.8235 0.9015,1.0462 2.5554,1.7169 3.7132,1.7681 1.2389,0.054 1.6416,-0.1538 2.0931,-0.2935 0.2756,-0.086 0.5223,-0.1896 0.7752,-0.2869 l 0,16.1122 38.7208,0 0,-18.0954 c 0.9709,2.4152 1.9611,4.8722 2.7518,6.7944 0.4763,1.1576 0.8919,2.155 1.2236,2.9267 0.3318,0.7715 0.2009,0.7812 0.9479,1.9764 0.8438,1.3501 1.935,1.7962 2.5838,2.0101 0.6489,0.2139 1.0639,0.2442 1.414,0.2644 0.7004,0.04 1.1551,-0.015 1.6404,-0.076 0.9705,-0.1234 1.9658,-0.3355 3.1148,-0.6074 2.2979,-0.5434 5.1172,-1.339 7.9127,-2.1691 5.591,-1.6602 11.05,-3.4554 11.05,-3.4554 5.9446,-1.8437 3.0128,-10.7626 -2.8662,-8.7194 0,0 -5.3739,1.7644 -10.7967,3.3747 -2.6729,0.7937 -5.3462,1.5406 -7.3077,2.0079 -0.152,-0.3656 -0.257,-0.6085 -0.4279,-1.0241 -0.9325,-2.2662 -2.1196,-5.2051 -3.283,-8.1076 -2.3266,-5.80523 -4.5648,-11.47125 -4.5648,-11.47125 -1.154,-1.77485 -2.5892,-2.66699 -4.3092,-2.96257 -12.7891,-1.56897 -25.8209,-4.50243 -38.4877,-5.90254 z"
         style="opacity:1;fill:#000000;fill-opacity:1;fill-rule:nonzero;stroke:none;stroke-width:1.60000002;stroke-linecap:round;stroke-linejoin:round;stroke-miterlimit:4;stroke-dasharray:none;stroke-dashoffset:0;stroke-opacity:1" />
      <path
         style="opacity:1;fill:#666666;fill-opacity:1;fill-rule:nonzero;stroke:none;stroke-width:2;stroke-linecap:round;stroke-linejoin:round;stroke-miterlimit:4;stroke-dasharray:none;stroke-dashoffset:0;stroke-opacity:1"
         d="m 1737.6533,268.63 c -0.4789,-0.0482 -0.8668,0.33305 -0.8672,0.85157 l 0,7.13281 a 14.391075,14.511623 0 0 0 -8.502,-2.82422 14.391075,14.511623 0 0 0 -14.3926,14.51172 14.391075,14.511623 0 0 0 14.3926,14.51172 14.391075,14.511623 0 0 0 8.6406,-2.92383 c 0.1522,0.28864 0.4145,0.51145 0.7286,0.54883 l 17.58,2.07422 0,2.97851 -11.2011,-1.33789 0,2.21094 24.789,2.99023 0.7344,0.0879 0.2402,0.0293 0,-2.24023 -6.2441,-0.7461 0,-2.99218 18.0566,2.13085 c 0.5016,0.0591 0.9081,-0.32407 0.9082,-0.85546 l 0,-30.61915 c -5e-4,-0.53115 -0.4069,-1.00367 -0.9082,-1.05468 l -43.955,-4.46485 z m 0.8691,1.96875 42.1777,4.32618 0,28.66796 -42.1777,-4.93554 0,-0.17578 a 14.391075,14.511623 0 0 0 4.1524,-10.17969 14.391075,14.511623 0 0 0 -4.1524,-10.18945 l 0,-7.51368 z"
         id="ellipse28346-8-8" />
      <path
         id="path28348-9-6"
         d="m 1711.9877,302.73094 c -1.7739,0.0361 -3.2761,1.3169 -3.5938,3.0625 -1.1978,6.08339 -1.9075,9.81964 -2.2031,12.33789 -0.1478,1.25913 -0.2554,2.15483 -0.041,3.39062 0.1072,0.61779 0.2979,1.43029 1.043,2.29492 0.7329,0.85054 2.0782,1.39591 3.0195,1.4375 1.0072,0.044 1.3341,-0.12466 1.7012,-0.23828 0.224,-0.0699 0.4251,-0.15525 0.6308,-0.23437 l 0,13.09961 27.4082,0 a 18.658499,18.814795 0 0 1 -1.1191,-6.36914 18.658499,18.814795 0 0 1 9.9238,-16.61133 c -0.7672,-1.93179 -1.9746,-4.96289 -1.9746,-4.96289 -0.9382,-1.44296 -2.1056,-2.1679 -3.5039,-2.40821 -10.3976,-1.27558 -20.9928,-3.66052 -31.291,-4.79882 z"
         style="opacity:1;fill:#666666;fill-opacity:1;fill-rule:nonzero;stroke:none;stroke-width:1.60000002;stroke-linecap:round;stroke-linejoin:round;stroke-miterlimit:4;stroke-dasharray:none;stroke-dashoffset:0;stroke-opacity:1" />
      <path
         style="opacity:1;fill:#666666;fill-opacity:1;fill-rule:nonzero;stroke:none;stroke-width:2;stroke-linecap:round;stroke-linejoin:round;stroke-miterlimit:4;stroke-dasharray:none;stroke-dashoffset:0;stroke-opacity:1"
         d="m 1812.6113,290.56836 c -1.8792,2.54695 -3.004,5.69276 -3.0039,9.11133 0,3.29943 1.0763,6.47685 3.0039,9.09375 l 0,-18.20508 z"
         transform="translate(-1.2207031e-4,0)"
         id="path28354-6-2" />
      <path
         style="opacity:1;fill:#cccccc;fill-opacity:1;fill-rule:nonzero;stroke:none;stroke-width:1.60000002;stroke-linecap:round;stroke-linejoin:round;stroke-miterlimit:4;stroke-dasharray:none;stroke-dashoffset:0;stroke-opacity:1"
         d="m 1790.873,276.67188 c -1.3356,0.0272 -2.4657,0.99228 -2.705,2.30664 -0.9018,4.58052 -1.4376,7.39488 -1.6602,9.29101 -0.1113,0.94806 -0.1928,1.62224 -0.031,2.55274 0.081,0.46516 0.2261,1.07748 0.7871,1.72851 0.5518,0.64041 1.5627,1.05072 2.2715,1.08203 0.7584,0.0331 1.0049,-0.0941 1.2812,-0.17969 0.1687,-0.0526 0.3198,-0.11621 0.4746,-0.17578 l 0,9.86328 18.7285,0 a 15.16943,15.296498 0 0 1 -0.4121,-3.46289 15.16943,15.296498 0 0 1 3.0039,-9.09179 l 0,-10.54492 c -7.2418,-0.99562 -14.5846,-2.57843 -21.7383,-3.36914 z"
         transform="translate(-1.2207031e-4,0)"
         id="path28362-4-1" />
      <path
         id="path11729-7-9-7-34-4-5-0"
         d="m 1785.6639,339.05371 c -0.7349,-0.0838 -1.4393,0.15003 -1.9584,0.64978 -0.5188,0.49956 -0.8102,1.22409 -0.8102,2.01437 0,0.79028 0.2914,1.58194 0.8103,2.201 0.519,0.61932 1.2234,1.01537 1.9583,1.10087 1.5316,0.1782 2.7746,-1.01416 2.7746,-2.66343 10e-5,-0.79201 -0.2926,-1.5851 -0.8133,-2.20461 -0.5204,-0.61926 -1.226,-1.01416 -1.9613,-1.09798 0,0 0,0 0,0 m 0,0.5779 c 1.2347,0.1411 2.2365,1.33328 2.2365,2.66271 -10e-5,1.32936 -1.0018,2.29068 -2.2365,2.14737 -1.2335,-0.14321 -2.2327,-1.33501 -2.2327,-2.6621 -10e-5,-0.63733 0.235,-1.2216 0.6535,-1.62438 0.4186,-0.40291 0.9866,-0.5913 1.5792,-0.5236 0,0 0,0 0,0"
         style="opacity:1;fill:#666666;fill-opacity:1;fill-rule:nonzero;stroke:none;stroke-width:1.60000002;stroke-linecap:round;stroke-linejoin:round;stroke-miterlimit:4;stroke-dasharray:none;stroke-dashoffset:0;stroke-opacity:1" />
      <path
         id="path11729-7-9-3-8-1-0-0"
         d="m 1785.6639,324.36673 c -0.7349,-0.0795 -1.4393,0.15837 -1.9584,0.66114 -0.5188,0.50257 -0.8102,1.22879 -0.8102,2.01908 0,0.79028 0.2914,1.58024 0.8103,2.19629 0.519,0.61631 1.2234,1.00827 1.9583,1.0895 1.5316,0.16932 2.7746,-1.03025 2.7746,-2.67951 10e-5,-0.79201 -0.2926,-1.58341 -0.8133,-2.1999 -0.5204,-0.61624 -1.226,-1.00704 -1.9613,-1.0866 0,0 0,0 0,0 m 0,0.5779 c 1.2347,0.13394 2.2365,1.32031 2.2365,2.64974 -10e-5,1.32936 -1.0018,2.29649 -2.2365,2.16033 -1.2335,-0.13604 -2.2327,-1.32204 -2.2327,-2.64914 -10e-5,-0.63733 0.235,-1.22296 0.6535,-1.62817 0.4186,-0.40534 0.9866,-0.59703 1.5792,-0.53276 0,0 0,0 0,0"
         style="opacity:1;fill:#666666;fill-opacity:1;fill-rule:nonzero;stroke:none;stroke-width:1.60000002;stroke-linecap:round;stroke-linejoin:round;stroke-miterlimit:4;stroke-dasharray:none;stroke-dashoffset:0;stroke-opacity:1" />
      <path
         id="path11746-4-0-2-5-5-0-8"
         d="m 1787.3973,327.53929 c 0,0.4948 -0.1828,0.94928 -0.508,1.26339 -0.3251,0.31404 -0.766,0.46199 -1.2255,0.41139 -0.9563,-0.1053 -1.7311,-1.02475 -1.7311,-2.05371 0,-1.02896 0.7748,-1.77894 1.7311,-1.67505 0.4595,0.0499 0.9004,0.29431 1.2255,0.67946 0.3252,0.38526 0.508,0.87972 0.508,1.37452 0,0 0,0 0,0"
         style="opacity:1;fill:#1f7a7a;fill-opacity:1;fill-rule:nonzero;stroke:none;stroke-width:1.60000002;stroke-linecap:round;stroke-linejoin:round;stroke-miterlimit:4;stroke-dasharray:none;stroke-dashoffset:0;stroke-opacity:1" />
      <path
         id="path11729-7-9-73-6-1-2"
         d="m 1785.6639,331.71021 c -0.7349,-0.0817 -1.4393,0.1542 -1.9584,0.65546 -0.5188,0.50105 -0.8102,1.22644 -0.8102,2.01672 0,0.79028 0.2914,1.58108 0.8103,2.19864 0.519,0.61781 1.2234,1.01182 1.9583,1.09519 1.5316,0.17376 2.7746,-1.02221 2.7746,-2.67147 10e-5,-0.79201 -0.2926,-1.58425 -0.8133,-2.20226 -0.5204,-0.61774 -1.226,-1.01059 -1.9613,-1.09228 0,0 0,0 0,0 m 0,0.5779 c 1.2347,0.13751 2.2365,1.32679 2.2365,2.65622 -10e-5,1.32936 -1.0018,2.29358 -2.2365,2.15385 -1.2335,-0.13963 -2.2327,-1.32852 -2.2327,-2.65563 -10e-5,-0.63732 0.235,-1.22227 0.6535,-1.62626 0.4186,-0.40413 0.9866,-0.59417 1.5792,-0.52818 0,0 0,0 0,0"
         style="opacity:1;fill:#666666;fill-opacity:1;fill-rule:nonzero;stroke:none;stroke-width:1.60000002;stroke-linecap:round;stroke-linejoin:round;stroke-miterlimit:4;stroke-dasharray:none;stroke-dashoffset:0;stroke-opacity:1" />
      <path
         id="rect6192-3-3-2-8-5-1-4-6-6-2-5-77-8-7-3-8"
         d="m 1792.1223,326.31268 c 0,0 19.9749,2.171 19.9749,2.171 0,0 0,3.51432 0,3.51432 0,0 -19.9749,-2.19844 -19.9749,-2.19844 0,0 0,-3.48688 0,-3.48688"
         style="opacity:1;fill:#cccccc;fill-opacity:1;fill-rule:nonzero;stroke:none;stroke-width:3;stroke-linecap:round;stroke-linejoin:round;stroke-miterlimit:4;stroke-dasharray:none;stroke-dashoffset:0;stroke-opacity:1" />
      <path
         id="rect6192-3-3-2-8-5-1-4-6-6-2-5-7-1-9-2-0-8"
         d="m 1792.1223,333.6749 c 0,0 9.4767,1.05748 9.4767,1.05748 0,0 0,3.49986 0,3.49986 0,0 -9.4767,-1.0705 -9.4767,-1.0705 0,0 0,-3.48684 0,-3.48684"
         style="opacity:1;fill:#cccccc;fill-opacity:1;fill-rule:nonzero;stroke:none;stroke-width:3;stroke-linecap:round;stroke-linejoin:round;stroke-miterlimit:4;stroke-dasharray:none;stroke-dashoffset:0;stroke-opacity:1" />
      <path
         id="rect6192-3-3-2-8-5-1-4-6-6-2-5-4-1-5-2-0-7"
         d="m 1792.1223,341.03715 c 0,0 18.1617,2.07928 18.1617,2.07928 0,0 0,3.51178 0,3.51178 0,0 -18.1617,-2.10422 -18.1617,-2.10422 0,0 0,-3.48684 0,-3.48684"
         style="opacity:1;fill:#cccccc;fill-opacity:1;fill-rule:nonzero;stroke:none;stroke-width:3;stroke-linecap:round;stroke-linejoin:round;stroke-miterlimit:4;stroke-dasharray:none;stroke-dashoffset:0;stroke-opacity:1" />
      <path
         style="opacity:1;fill:#cccccc;fill-opacity:1;fill-rule:nonzero;stroke:none;stroke-width:3;stroke-linecap:round;stroke-linejoin:round;stroke-miterlimit:4;stroke-dasharray:none;stroke-dashoffset:0;stroke-opacity:1"
         d="m 1803.1855,334.91016 0,3.50195 9.4258,1.06445 0,-3.51562 -9.4258,-1.05078 z"
         transform="translate(-1.2207031e-4,0)"
         id="rect6192-3-3-2-8-5-1-4-6-6-2-5-7-4-5-5-9-0-0" />
      <path
         style="fill:#1f7a7a;fill-opacity:1;stroke:none"
         d="m 1805.6172,313.9043 c -0.7399,-0.0253 -1.3599,0.0865 -1.957,0.35156 -0.6619,0.29528 -1.1871,0.71218 -1.6329,1.29883 -0.5975,0.7872 -0.9695,1.77747 -1.1054,2.95117 -0.032,0.2735 -0.043,1.10783 -0.022,1.41797 0.064,0.85903 0.2468,1.62221 0.5664,2.36328 0.2546,0.59192 0.5178,1.02715 0.9043,1.49414 0.7732,0.93287 1.7796,1.57253 2.9238,1.85547 0.534,0.13198 1.1585,0.19394 1.709,0.16797 1.0144,-0.0457 2.0612,-0.43096 3.0977,-1.14063 0.59,-0.40253 0.9069,-0.67198 1.9726,-1.67187 l 0.5117,-0.48047 0.025,0.0332 0,-3.78125 -0.023,0.0254 -0.2051,-0.24414 c -0.49,-0.58886 -1.3608,-1.59443 -1.5605,-1.80469 -1.2611,-1.32643 -2.6061,-2.24919 -3.8067,-2.60742 -0.4082,-0.12278 -0.9775,-0.21451 -1.3984,-0.22851 z m 0.029,2.80078 c 0.099,-0.004 0.5884,0.0525 0.7031,0.0801 0.4183,0.0979 0.8029,0.27424 1.3086,0.60156 0.6543,0.42053 1.3119,0.96366 1.8984,1.56836 0.1106,0.11405 0.9888,1.07644 1.2657,1.38672 l 0.086,0.0977 -0.1465,0.15039 c -0.3438,0.35648 -0.9987,0.91165 -1.498,1.27149 -0.5179,0.37166 -0.9016,0.59975 -1.3379,0.78906 -0.8327,0.35936 -1.4724,0.43355 -2.2578,0.25977 -0.8921,-0.1975 -1.6181,-0.81321 -2.0137,-1.70704 -0.268,-0.60442 -0.3736,-1.35707 -0.291,-2.06054 0.087,-0.74335 0.4354,-1.4598 0.9297,-1.91602 0.3596,-0.33262 0.8036,-0.5045 1.3535,-0.52148 z"
         transform="translate(-1.2207031e-4,0)"
         id="path20642-7-6-1-7-9-1-9-8-2-5" />
      <path
         style="opacity:1;fill:#666666;fill-opacity:1;fill-rule:nonzero;stroke:none;stroke-width:1.60000002;stroke-linecap:round;stroke-linejoin:round;stroke-miterlimit:4;stroke-dasharray:none;stroke-dashoffset:0;stroke-opacity:1"
         d="m 1665.5314,324.67309 c -0.6972,-0.0795 -1.3654,0.14233 -1.8579,0.61645 -0.4922,0.47392 -0.7687,1.16127 -0.7687,1.911 0,0.74973 0.2765,1.50076 0.7687,2.08806 0.4925,0.58754 1.1607,0.96328 1.8579,1.04439 1.453,0.16905 2.6323,-0.96213 2.6323,-2.52677 0,-0.75137 -0.2776,-1.50377 -0.7716,-2.09149 -0.4938,-0.58748 -1.1632,-0.96212 -1.8607,-1.04164 0,0 0,0 0,0 m 0,0.54825 c 1.1714,0.13385 2.1218,1.26487 2.1217,2.52609 0,1.26114 -0.9504,2.17314 -2.1217,2.03717 -1.1703,-0.13585 -2.1181,-1.2665 -2.1182,-2.5255 0,-0.60463 0.223,-1.15892 0.62,-1.54103 0.3972,-0.38223 0.936,-0.56096 1.4982,-0.49673 0,0 0,0 0,0"
         id="path169687-0" />
      <path
         style="opacity:1;fill:#666666;fill-opacity:1;fill-rule:nonzero;stroke:none;stroke-width:1.60000002;stroke-linecap:round;stroke-linejoin:round;stroke-miterlimit:4;stroke-dasharray:none;stroke-dashoffset:0;stroke-opacity:1"
         d="m 1665.5314,310.73971 c -0.6972,-0.0754 -1.3654,0.15025 -1.8579,0.62722 -0.4922,0.47678 -0.7687,1.16574 -0.7687,1.91547 0,0.74973 0.2765,1.49916 0.7687,2.0836 0.4925,0.58469 1.1607,0.95654 1.8579,1.03361 1.453,0.16063 2.6323,-0.97739 2.6323,-2.54203 0,-0.75137 -0.2776,-1.50217 -0.7716,-2.08702 -0.4938,-0.58462 -1.1632,-0.95537 -1.8607,-1.03085 0,0 0,0 0,0 m 0,0.54825 c 1.1714,0.12706 2.1218,1.25256 2.1217,2.51378 0,1.26115 -0.9504,2.17865 -2.1217,2.04949 -1.1703,-0.12907 -2.1181,-1.25422 -2.1182,-2.51323 0,-0.60461 0.223,-1.1602 0.62,-1.54461 0.3972,-0.38455 0.936,-0.56639 1.4982,-0.50543 0,0 0,0 0,0"
         id="path169691-8" />
      <path
         style="opacity:1;fill:#666666;fill-opacity:1;fill-rule:nonzero;stroke:none;stroke-width:1.60000002;stroke-linecap:round;stroke-linejoin:round;stroke-miterlimit:4;stroke-dasharray:none;stroke-dashoffset:0;stroke-opacity:1"
         d="m 1665.5314,317.70639 c -0.6972,-0.0775 -1.3654,0.14629 -1.8579,0.62183 -0.4922,0.47534 -0.7687,1.1635 -0.7687,1.91324 0,0.74973 0.2765,1.49996 0.7687,2.08583 0.4925,0.58611 1.1607,0.9599 1.8579,1.03899 1.453,0.16485 2.6323,-0.96976 2.6323,-2.53439 0,-0.75137 -0.2776,-1.50297 -0.7716,-2.08926 -0.4938,-0.58605 -1.1632,-0.95874 -1.8607,-1.03624 0,0 0,0 0,0 m 0,0.54825 c 1.1714,0.13045 2.1218,1.25871 2.1217,2.51993 0,1.26115 -0.9504,2.17589 -2.1217,2.04332 -1.1703,-0.13245 -2.1181,-1.26035 -2.1182,-2.51935 0,-0.60462 0.223,-1.15956 0.62,-1.54283 0.3972,-0.38339 0.936,-0.56368 1.4982,-0.50107 0,0 0,0 0,0"
         id="path169695-0" />
      <path
         style="opacity:1;fill:#1f7a7a;fill-opacity:1;fill-rule:nonzero;stroke:none;stroke-width:1.60000002;stroke-linecap:round;stroke-linejoin:round;stroke-miterlimit:4;stroke-dasharray:none;stroke-dashoffset:0;stroke-opacity:1"
         d="m 1667.1758,320.72093 c 0,0.46941 -0.1734,0.90007 -0.4819,1.19717 -0.3084,0.29702 -0.7267,0.43617 -1.1626,0.3869 -0.9073,-0.10253 -1.6423,-0.97692 -1.6423,-1.95309 0,-0.97617 0.735,-1.68552 1.6423,-1.58433 0.4359,0.0486 0.8542,0.28168 1.1626,0.64797 0.3085,0.36638 0.4819,0.83596 0.4819,1.30538 0,0 0,0 0,0"
         id="path169697-7" />
      <path
         style="opacity:1;fill:#cccccc;fill-opacity:1;fill-rule:nonzero;stroke:none;stroke-width:3;stroke-linecap:round;stroke-linejoin:round;stroke-miterlimit:4;stroke-dasharray:none;stroke-dashoffset:0;stroke-opacity:1"
         d="m 1671.6584,312.58581 c 0,0 18.95,2.05961 18.95,2.05961 0,0 0,3.33399 0,3.33399 0,0 -18.95,-2.08563 -18.95,-2.08563 0,0 0,-3.30797 0,-3.30797"
         id="path169699-1" />
      <path
         style="opacity:1;fill:#cccccc;fill-opacity:1;fill-rule:nonzero;stroke:none;stroke-width:3;stroke-linecap:round;stroke-linejoin:round;stroke-miterlimit:4;stroke-dasharray:none;stroke-dashoffset:0;stroke-opacity:1"
         d="m 1671.6584,319.57026 c 0,0 8.9905,1.00323 8.9905,1.00323 0,0 0,3.32028 0,3.32028 0,0 -8.9905,-1.01557 -8.9905,-1.01557 0,0 0,-3.30794 0,-3.30794"
         id="path169701-5" />
      <path
         style="opacity:1;fill:#cccccc;fill-opacity:1;fill-rule:nonzero;stroke:none;stroke-width:3;stroke-linecap:round;stroke-linejoin:round;stroke-miterlimit:4;stroke-dasharray:none;stroke-dashoffset:0;stroke-opacity:1"
         d="m 1671.6584,326.55476 c 0,0 17.2298,1.97258 17.2298,1.97258 0,0 0,3.3316 0,3.3316 0,0 -17.2298,-1.99625 -17.2298,-1.99625 0,0 0,-3.30793 0,-3.30793"
         id="path169703-1" />
      <path
         style="opacity:1;fill:#cccccc;fill-opacity:1;fill-rule:nonzero;stroke:none;stroke-width:3;stroke-linecap:round;stroke-linejoin:round;stroke-miterlimit:4;stroke-dasharray:none;stroke-dashoffset:0;stroke-opacity:1"
         d="m 1682.1541,320.74145 c 0,0 17.1331,1.91182 17.1331,1.91182 0,0 0,3.34588 0,3.34588 0,0 -17.1331,-1.93536 -17.1331,-1.93536 0,0 0,-3.32234 0,-3.32234"
         id="path169705-3" />
      <path
         style="opacity:1;fill:#cccccc;fill-opacity:1;fill-rule:nonzero;stroke:none;stroke-width:3;stroke-linecap:round;stroke-linejoin:round;stroke-miterlimit:4;stroke-dasharray:none;stroke-dashoffset:0;stroke-opacity:1"
         d="m 1690.4036,328.70084 c 0,0 6.1622,0.70549 6.1622,0.70549 0,0 0,3.34214 0,3.34214 0,0 -6.1622,-0.71395 -6.1622,-0.71395 0,0 0,-3.33368 0,-3.33368"
         id="path169707-3" />
      <path
         style="fill:#1f7a7a;fill-opacity:1;stroke:none"
         id="path169711-9"
         d="m 1684.4609,300.81389 c -0.702,-0.024 -1.2907,0.0827 -1.8572,0.33416 -0.628,0.28014 -1.1253,0.67499 -1.5482,1.23154 -0.5669,0.74681 -0.9195,1.68738 -1.0484,2.80085 -0.03,0.25946 -0.041,1.05072 -0.02,1.34494 0.06,0.81495 0.2332,1.53921 0.5364,2.24225 0.2416,0.56155 0.4914,0.9729 0.858,1.41593 0.7335,0.885 1.6889,1.49176 2.7743,1.76018 0.5067,0.12521 1.0989,0.18469 1.6212,0.16006 0.9623,-0.0434 1.9558,-0.40883 2.9391,-1.08208 0.5597,-0.38188 0.8611,-0.63691 1.8721,-1.58549 0,0 0.4844,-0.4555 0.4844,-0.4555 0,0 0.1578,0.19959 0.1578,0.19959 0.4265,0.53342 1.1053,1.29607 1.535,1.72553 0.9402,0.9374 1.6993,1.50904 2.6019,1.95911 0.7489,0.37319 1.6222,0.57525 2.478,0.5715 0.7964,-0.003 1.4819,-0.18776 2.1483,-0.58202 1.144,-0.67338 1.8784,-1.84585 2.1284,-3.39629 0.2683,-1.6629 -0.033,-3.35617 -0.8392,-4.70328 -0.3099,-0.51925 -0.7326,-1.01753 -1.1915,-1.40693 -0.6916,-0.58644 -1.4677,-0.96392 -2.3685,-1.15307 -0.2185,-0.0462 -0.8168,-0.10794 -1.0295,-0.1063 -0.338,0.002 -0.7105,0.0434 -1.0107,0.11276 -0.3376,0.0773 -0.9459,0.30679 -1.3304,0.50316 -0.5121,0.2613 -1.1168,0.67515 -1.6478,1.13184 -0.2176,0.18679 -0.8772,0.82732 -1.2289,1.19455 -0.144,0.15153 -0.2949,0.30672 -0.3323,0.34557 0,0 -0.069,0.0709 -0.069,0.0709 0,0 -0.1938,-0.23109 -0.1938,-0.23109 -0.4649,-0.55866 -1.2906,-1.51275 -1.48,-1.71222 -1.1965,-1.25837 -2.4732,-2.13244 -3.6122,-2.47229 -0.3873,-0.11649 -0.9272,-0.20458 -1.3265,-0.21786 0,0 -2e-4,5e-5 -2e-4,5e-5 m 0.6954,2.73352 c 0.3968,0.0929 0.7607,0.26032 1.2405,0.57084 0.6206,0.39895 1.2444,0.9147 1.8008,1.48837 0.1049,0.10821 0.9381,1.02064 1.2007,1.31499 0,0 0.083,0.0927 0.083,0.0927 0,0 -0.1383,0.14156 -0.1383,0.14156 -0.3261,0.33819 -0.9478,0.86582 -1.4215,1.2072 -0.4914,0.35259 -0.8557,0.56845 -1.2695,0.74805 -0.7901,0.34091 -1.3978,0.41133 -2.1428,0.24647 -0.8464,-0.18736 -1.5342,-0.77205 -1.9095,-1.62 -0.2543,-0.57342 -0.3546,-1.28614 -0.2763,-1.95352 0.082,-0.7052 0.4124,-1.38598 0.8813,-1.81879 0.3411,-0.31555 0.7621,-0.47735 1.2838,-0.49346 0.094,-0.003 0.5591,0.0494 0.6679,0.0756 0,0 0,-6e-5 0,-6e-5 m 12.4921,1.31087 c 0.5457,0.13086 0.9858,0.38824 1.3382,0.78003 0.3442,0.38508 0.6161,0.92098 0.7485,1.47782 0.077,0.32615 0.1018,0.56108 0.1032,0.96512 0,0.22044 -0.01,0.41367 -0.017,0.49382 -0.088,0.64904 -0.29,1.13056 -0.6496,1.54645 -0.2801,0.3266 -0.6673,0.53816 -1.1129,0.61184 -0.4997,0.0827 -1.1049,0.009 -1.6626,-0.20109 -0.745,-0.2789 -1.6742,-0.93606 -2.5028,-1.76516 -0.2262,-0.22616 -1.2786,-1.36148 -1.2869,-1.3889 0,-0.0137 0.9734,-0.93018 1.1967,-1.12069 0.6911,-0.59019 1.3743,-1.01917 2.0176,-1.26648 0.3516,-0.13461 0.6658,-0.2067 0.9731,-0.22191 0.1906,-0.01 0.64,0.0372 0.8543,0.0891 0,0 3e-4,1e-5 3e-4,1e-5" />
      <path
         style="opacity:1;fill:#666666;fill-opacity:1;fill-rule:nonzero;stroke:none;stroke-width:1.60000002;stroke-linecap:round;stroke-linejoin:round;stroke-miterlimit:4;stroke-dasharray:none;stroke-dashoffset:0;stroke-opacity:1"
         d="m 1750.0125,294.11846 c -0.5668,-0.0646 -1.1101,0.11572 -1.5104,0.50118 -0.4002,0.3853 -0.625,0.94412 -0.625,1.55366 0,0.60953 0.2248,1.22012 0.625,1.6976 0.4003,0.47767 0.9436,0.78314 1.5104,0.84908 1.1813,0.13745 2.1401,-0.78221 2.1401,-2.05427 0,-0.61086 -0.2257,-1.22257 -0.6273,-1.70039 -0.4015,-0.47762 -0.9457,-0.7822 -1.5128,-0.84686 0,0 0,0 0,0 m 0,0.44574 c 0.9524,0.10882 1.725,1.02834 1.725,2.05371 0,1.02532 -0.7727,1.76678 -1.725,1.65623 -0.9514,-0.11044 -1.722,-1.02966 -1.7221,-2.05324 0,-0.49156 0.1813,-0.9422 0.5041,-1.25286 0.3229,-0.31076 0.761,-0.45606 1.218,-0.40384 0,0 0,0 0,0"
         id="path169747-0" />
      <path
         style="opacity:1;fill:#666666;fill-opacity:1;fill-rule:nonzero;stroke:none;stroke-width:1.60000002;stroke-linecap:round;stroke-linejoin:round;stroke-miterlimit:4;stroke-dasharray:none;stroke-dashoffset:0;stroke-opacity:1"
         d="m 1750.0125,282.79058 c -0.5668,-0.0613 -1.1101,0.12215 -1.5104,0.50993 -0.4002,0.38762 -0.625,0.94775 -0.625,1.55729 0,0.60953 0.2248,1.21881 0.625,1.69397 0.4003,0.47535 0.9436,0.77767 1.5104,0.84032 1.1813,0.1306 2.1401,-0.79462 2.1401,-2.06668 0,-0.61087 -0.2257,-1.22126 -0.6273,-1.69675 -0.4015,-0.47529 -0.9457,-0.77672 -1.5128,-0.83808 0,0 0,0 0,0 m 0,0.44572 c 0.9524,0.1033 1.725,1.01835 1.725,2.04371 0,1.02532 -0.7727,1.77126 -1.725,1.66625 -0.9514,-0.10493 -1.722,-1.01969 -1.7221,-2.04326 0,-0.49156 0.1813,-0.94325 0.5041,-1.25579 0.3229,-0.31263 0.761,-0.46047 1.218,-0.41091 0,0 0,0 0,0"
         id="path169751-2" />
      <path
         style="opacity:1;fill:#1f7a7a;fill-opacity:1;fill-rule:nonzero;stroke:none;stroke-width:1.60000002;stroke-linecap:round;stroke-linejoin:round;stroke-miterlimit:4;stroke-dasharray:none;stroke-dashoffset:0;stroke-opacity:1"
         d="m 1751.3494,285.23754 c 0,0.38163 -0.1409,0.73216 -0.3918,0.97443 -0.2507,0.24221 -0.5907,0.35633 -0.9452,0.3173 -0.7376,-0.0812 -1.3351,-0.79037 -1.3351,-1.584 0,-0.79362 0.5975,-1.37208 1.3351,-1.29194 0.3545,0.0385 0.6945,0.22699 0.9452,0.52406 0.2509,0.29714 0.3918,0.67851 0.3918,1.06015 0,0 0,0 0,0"
         id="path169753-0" />
      <path
         style="opacity:1;fill:#666666;fill-opacity:1;fill-rule:nonzero;stroke:none;stroke-width:1.60000002;stroke-linecap:round;stroke-linejoin:round;stroke-miterlimit:4;stroke-dasharray:none;stroke-dashoffset:0;stroke-opacity:1"
         d="m 1750.0125,288.45451 c -0.5668,-0.063 -1.1101,0.11894 -1.5104,0.50555 -0.4002,0.38646 -0.625,0.94594 -0.625,1.55547 0,0.60953 0.2248,1.21948 0.625,1.69579 0.4003,0.47652 0.9436,0.78041 1.5104,0.84471 1.1813,0.13401 2.1401,-0.78842 2.1401,-2.06047 0,-0.61087 -0.2257,-1.22192 -0.6273,-1.69858 -0.4015,-0.47646 -0.9457,-0.77946 -1.5128,-0.84247 0,0 0,0 0,0 m 0,0.44573 c 0.9524,0.10606 1.725,1.02334 1.725,2.04871 0,1.02532 -0.7727,1.76902 -1.725,1.66124 -0.9514,-0.10769 -1.722,-1.02468 -1.7221,-2.04825 0,-0.49156 0.1813,-0.94273 0.5041,-1.25432 0.3229,-0.3117 0.761,-0.45828 1.218,-0.40738 0,0 0,0 0,0"
         id="path169755-0" />
      <path
         style="opacity:1;fill:#cccccc;fill-opacity:1;fill-rule:nonzero;stroke:none;stroke-width:3;stroke-linecap:round;stroke-linejoin:round;stroke-miterlimit:4;stroke-dasharray:none;stroke-dashoffset:0;stroke-opacity:1"
         d="m 1754.9938,284.29146 c 0,0 15.4064,1.67447 15.4064,1.67447 0,0 0,2.71055 0,2.71055 0,0 -15.4064,-1.69563 -15.4064,-1.69563 0,0 0,-2.68939 0,-2.68939"
         id="path169759-0" />
      <path
         style="opacity:1;fill:#cccccc;fill-opacity:1;fill-rule:nonzero;stroke:none;stroke-width:3;stroke-linecap:round;stroke-linejoin:round;stroke-miterlimit:4;stroke-dasharray:none;stroke-dashoffset:0;stroke-opacity:1"
         d="m 1754.9938,289.96985 c 0,0 7.3093,0.81562 7.3093,0.81562 0,0 0,2.6994 0,2.6994 0,0 -7.3093,-0.82566 -7.3093,-0.82566 0,0 0,-2.68936 0,-2.68936"
         id="path169761-4" />
      <path
         style="opacity:1;fill:#cccccc;fill-opacity:1;fill-rule:nonzero;stroke:none;stroke-width:3;stroke-linecap:round;stroke-linejoin:round;stroke-miterlimit:4;stroke-dasharray:none;stroke-dashoffset:0;stroke-opacity:1"
         d="m 1754.9938,295.64826 c 0,0 14.0079,1.60373 14.0079,1.60373 0,0 0,2.7086 0,2.7086 0,0 -14.0079,-1.62296 -14.0079,-1.62296 0,0 0,-2.68937 0,-2.68937"
         id="path169763-0" />
      <path
         style="opacity:1;fill:#cccccc;fill-opacity:1;fill-rule:nonzero;stroke:none;stroke-width:3;stroke-linecap:round;stroke-linejoin:round;stroke-miterlimit:4;stroke-dasharray:none;stroke-dashoffset:0;stroke-opacity:1"
         d="m 1763.5268,290.92203 c 0,0 13.9293,1.55432 13.9293,1.55432 0,0 0,2.72021 0,2.72021 0,0 -13.9293,-1.57345 -13.9293,-1.57345 0,0 0,-2.70108 0,-2.70108"
         id="path169765-8" />
      <path
         style="opacity:1;fill:#cccccc;fill-opacity:1;fill-rule:nonzero;stroke:none;stroke-width:3;stroke-linecap:round;stroke-linejoin:round;stroke-miterlimit:4;stroke-dasharray:none;stroke-dashoffset:0;stroke-opacity:1"
         d="m 1770.2337,297.39304 c 0,0 5.0099,0.57357 5.0099,0.57357 0,0 0,2.71717 0,2.71717 0,0 -5.0099,-0.58045 -5.0099,-0.58045 0,0 0,-2.71029 0,-2.71029"
         id="path169767-1" />
      <path
         style="fill:#1f7a7a;fill-opacity:1;stroke:none"
         id="path169771-1"
         d="m 1765.4023,274.72085 c -0.5707,-0.0195 -1.0493,0.0673 -1.5099,0.27167 -0.5106,0.22775 -0.9148,0.54877 -1.2587,1.00125 -0.4608,0.60716 -0.7475,1.37184 -0.8523,2.2771 -0.025,0.21094 -0.034,0.85424 -0.017,1.09344 0.049,0.66256 0.1894,1.25138 0.4361,1.82296 0.1962,0.45654 0.3994,0.79097 0.6975,1.15115 0.5964,0.71951 1.3731,1.21281 2.2556,1.43103 0.4119,0.1018 0.8934,0.15016 1.3179,0.13013 0.7824,-0.0352 1.5902,-0.33237 2.3896,-0.87973 0.455,-0.31047 0.7,-0.51781 1.522,-1.28901 0,0 0.3938,-0.37032 0.3938,-0.37032 0,0 0.1283,0.16226 0.1283,0.16226 0.3468,0.43368 0.8986,1.05372 1.2478,1.40287 0.7645,0.76211 1.3817,1.22686 2.1155,1.59276 0.6089,0.3034 1.3189,0.46768 2.0146,0.46463 0.6476,-0.002 1.2049,-0.15264 1.7466,-0.47318 0.9301,-0.54746 1.5271,-1.50069 1.7303,-2.7612 0.2182,-1.35194 -0.027,-2.72857 -0.6822,-3.82378 -0.2519,-0.42216 -0.5957,-0.82726 -0.9687,-1.14385 -0.5622,-0.47677 -1.1933,-0.78367 -1.9256,-0.93744 -0.1776,-0.0375 -0.6641,-0.0878 -0.837,-0.0864 -0.2748,0.002 -0.5776,0.0352 -0.8217,0.0917 -0.2745,0.0629 -0.7689,0.24942 -1.0816,0.40907 -0.4163,0.21244 -0.9079,0.5489 -1.3397,0.92019 -0.1769,0.15186 -0.7132,0.67262 -0.9991,0.97118 -0.1171,0.12319 -0.2397,0.24936 -0.2702,0.28094 0,0 -0.056,0.0576 -0.056,0.0576 0,0 -0.1576,-0.18788 -0.1576,-0.18788 -0.378,-0.45419 -1.0493,-1.22987 -1.2033,-1.39204 -0.9726,-1.02306 -2.0106,-1.73369 -2.9366,-2.00999 -0.3149,-0.0947 -0.7538,-0.16632 -1.0786,-0.17712 0,0 0,5e-5 0,5e-5 m 0.5653,2.22236 c 0.3226,0.0755 0.6185,0.21164 1.0086,0.46409 0.5045,0.32436 1.0117,0.74366 1.4641,1.21006 0.085,0.088 0.7626,0.82978 0.9761,1.06909 0,0 0.067,0.0754 0.067,0.0754 0,0 -0.1124,0.11508 -0.1124,0.11508 -0.2651,0.27495 -0.7706,0.70392 -1.1558,0.98147 -0.3995,0.28665 -0.6956,0.46215 -1.0321,0.60816 -0.6422,0.27716 -1.1363,0.33442 -1.742,0.20039 -0.6882,-0.15233 -1.2473,-0.62769 -1.5524,-1.31708 -0.2069,-0.46619 -0.2884,-1.04563 -0.2246,-1.58821 0.067,-0.57334 0.3351,-1.12681 0.7163,-1.47869 0.2774,-0.25654 0.6198,-0.38808 1.0438,-0.40118 0.076,-0.003 0.4546,0.0402 0.543,0.0615 0,0 0,-4e-5 0,-4e-5 m 10.1561,1.06574 c 0.4438,0.10639 0.8016,0.31564 1.088,0.63416 0.2798,0.31308 0.5008,0.74877 0.6086,1.20148 0.062,0.26516 0.083,0.45616 0.084,0.78464 0,0.17922 0,0.33632 -0.014,0.40148 -0.071,0.52768 -0.2357,0.91916 -0.5281,1.25728 -0.2277,0.26552 -0.5425,0.43752 -0.9048,0.49742 -0.4061,0.0672 -0.8982,0.007 -1.3517,-0.16348 -0.6057,-0.22675 -1.3611,-0.76103 -2.0348,-1.43508 -0.1838,-0.18388 -1.0395,-1.10689 -1.0462,-1.12919 0,-0.0111 0.7913,-0.75623 0.9729,-0.91112 0.5619,-0.47983 1.1173,-0.82859 1.6403,-1.02966 0.2859,-0.10944 0.5413,-0.16805 0.7912,-0.18041 0.1549,-0.008 0.5202,0.0302 0.6945,0.0725 0,0 2e-4,10e-6 2e-4,10e-6" />
      <path
         style="fill:#000000;fill-opacity:1;fill-rule:evenodd;stroke:none;stroke-width:0.80514383px;stroke-linecap:butt;stroke-linejoin:miter;stroke-opacity:1"
         d="m 1650.329,293.32141 c -0.589,-0.0592 -1.0658,0.4091 -1.0664,1.04688 l 0,8.77343 a 17.701117,17.849392 0 0 0 -10.4589,-3.47265 17.701117,17.849392 0 0 0 -17.7012,17.84961 17.701117,17.849392 0 0 0 17.7012,17.84961 17.701117,17.849392 0 0 0 10.6289,-3.59571 c 0.187,0.35546 0.5099,0.62782 0.8964,0.67383 l 21.625,2.55078 0,3.66602 -13.7773,-1.64649 0,2.71875 30.4902,3.67774 0.9043,0.10937 6.6719,0.80469 0,-0.72656 c 1.3967,-0.0565 3.1816,-0.10531 5.4473,-0.041 1.9795,0.0555 3.9683,0.20603 5.4414,0.51367 0.7366,0.15375 1.3428,0.35149 1.7304,0.5625 0.3877,0.21101 0.5027,0.3893 0.5196,0.51172 0.028,0.20117 -0.022,0.3512 -0.1836,0.56055 -0.1613,0.20934 -0.4407,0.43814 -0.7637,0.65234 -0.3231,0.2142 -0.685,0.41627 -1.0176,0.61328 -0.3326,0.19686 -0.6343,0.36499 -0.8808,0.65821 -0.1234,0.14654 -0.2501,0.36319 -0.2403,0.63867 0.011,0.27561 0.1731,0.51124 0.3438,0.6582 0.3415,0.29419 0.7792,0.44217 1.4863,0.63086 1.4143,0.3771 3.89,0.78631 8.0996,1.32422 0.8757,0.1123 1.5352,0.24925 1.9688,0.39648 0.409,0.13905 0.5477,0.2869 0.5625,0.29883 -0.011,0.0208 -0.011,0.0361 -0.061,0.0957 -0.1409,0.16942 -0.48,0.44057 -0.9785,0.73046 -1.6368,0.95189 -4.9997,2.19526 -9.3262,3.59766 -0.9118,-0.75 -2.254,-1.22322 -3.9785,-1.16992 -3.8099,0.1178 -6.1754,2.8183 -8.334,5.2168 0,0 -0.06,0.35893 -0.1797,0.89843 -0.1199,0.5398 2.0996,2.69717 3.2988,3.47657 1.1994,0.7795 3.8777,0.14115 7.3145,-1.49805 3.1473,-1.5012 3.8532,-4.12352 2.707,-5.97852 4.1129,-1.338 7.3076,-2.5261 9.0762,-3.55468 0.5587,-0.32483 0.9829,-0.62753 1.2812,-0.98633 0.1492,-0.17939 0.2708,-0.38043 0.3243,-0.62305 0.054,-0.24262 0.014,-0.52287 -0.1094,-0.74414 -0.2463,-0.44226 -0.6784,-0.65548 -1.2324,-0.84375 -0.5541,-0.18841 -1.2708,-0.33555 -2.1914,-0.45312 -4.1929,-0.53571 -6.6619,-0.94762 -7.9493,-1.29102 -0.4514,-0.12062 -0.5692,-0.19984 -0.7265,-0.27734 0.1044,-0.0749 0.1449,-0.11654 0.3066,-0.2129 0.3101,-0.18369 0.6909,-0.39539 1.0664,-0.64453 0.3755,-0.24899 0.7483,-0.5336 1.0371,-0.9082 0.2889,-0.3746 0.4927,-0.87645 0.418,-1.41797 -0.086,-0.62041 -0.5581,-1.0602 -1.1113,-1.36133 -0.5533,-0.30112 -1.2472,-0.51081 -2.0469,-0.67773 -1.5988,-0.33398 -3.6267,-0.48208 -5.6406,-0.53906 -1.3295,-0.0374 -2.5364,-0.037 -3.5938,-0.0195 -0.736,0.0123 -1.2992,0.0376 -1.8847,0.0605 l 0,-0.88867 -14.0567,-1.67969 0,-3.68164 22.209,2.6211 c 0.617,0.0727 1.1171,-0.39912 1.1172,-1.05274 l 0,-37.66211 c -6e-4,-0.65332 -0.5005,-1.23413 -1.1172,-1.29687 l -54.0664,-5.49219 z m 1.0684,2.42188 51.8809,5.32226 0,35.26172 -51.8809,-6.07031 0,-0.21485 a 17.701117,17.849392 0 0 0 5.1074,-12.52343 17.701117,17.849392 0 0 0 -5.1074,-12.53516 l 0,-9.24023 z"
         id="path28326-9-9" />
      <path
         style="fill:#000000;fill-opacity:1;fill-rule:evenodd;stroke:none;stroke-width:0.80514383px;stroke-linecap:butt;stroke-linejoin:miter;stroke-opacity:1"
         d="m 1769.6406,306.00781 c -0.6209,-0.0624 -1.1244,0.43124 -1.125,1.10352 l 0,9.24805 a 18.658499,18.814795 0 0 0 -11.0234,-3.66016 18.658499,18.814795 0 0 0 -18.6582,18.81445 18.658499,18.814795 0 0 0 18.6582,18.81445 18.658499,18.814795 0 0 0 11.2031,-3.79101 c 0.1972,0.37463 0.5379,0.66244 0.9453,0.71094 l 22.793,2.68945 0,3.86328 -14.5215,-1.73437 0,2.86523 32.1387,3.87695 0.9531,0.11524 1.6074,0.19336 0,-2.9043 -9.3906,-1.12305 0,-3.88086 9.3906,1.10743 0,-2.48047 -41.8437,-4.89649 0,-0.22656 a 18.658499,18.814795 0 0 0 5.3828,-13.19922 18.658499,18.814795 0 0 0 -5.3828,-13.21289 l 0,-9.74023 41.8437,4.29297 0,-2.48047 -42.9707,-4.36524 z"
         transform="translate(-1.2207031e-4,0)"
         id="path28336-2-6" />
      <rect
         style="opacity:1;fill:none;fill-opacity:1;fill-rule:nonzero;stroke:#666666;stroke-width:0.29785961;stroke-linecap:round;stroke-linejoin:round;stroke-miterlimit:4;stroke-dasharray:none;stroke-dashoffset:0;stroke-opacity:1"
         id="rect476789"
         width="207.03087"
         height="157.00214"
         x="1605.5798"
         y="235.14304" />
    </g>
  </g>
</svg>
