<?xml version="1.0" encoding="UTF-8" standalone="no"?>
<svg
   xmlns:dc="http://purl.org/dc/elements/1.1/"
   xmlns:cc="http://creativecommons.org/ns#"
   xmlns:rdf="http://www.w3.org/1999/02/22-rdf-syntax-ns#"
   xmlns:svg="http://www.w3.org/2000/svg"
   xmlns="http://www.w3.org/2000/svg"
   version="1.1"
   id="svg5156"
   viewBox="0 0 210 160"
   height="160"
   width="210">
  <defs
     id="defs5158">
    <linearGradient
       spreadMethod="pad"
       gradientUnits="userSpaceOnUse"
       y2="593.78698"
       y1="3.6658269"
       x2="590.86259"
       x1="0.74144253"
       id="gradientFill"
       gradientTransform="matrix(1.2219423,0,0,0.81836924,-767.16729,-40.990215)">
      <stop
         id="stop6361"
         stop-opacity="1"
         stop-color="rgb(203,206,208)"
         offset="0" />
      <stop
         id="stop6363"
         stop-opacity="1"
         stop-color="rgb(132,131,139)"
         offset="1" />
    </linearGradient>
    <linearGradient
       spreadMethod="pad"
       gradientUnits="userSpaceOnUse"
       y2="593.78699"
       y1="3.6658268"
       x2="590.86261"
       x1="0.7414425"
       id="gradientFill-0"
       gradientTransform="matrix(1.2219423,0,0,0.81836924,-767.16729,-40.990215)">
      <stop
         id="stop6361-6"
         stop-opacity="1"
         stop-color="rgb(203,206,208)"
         offset="0" />
      <stop
         id="stop6363-2"
         stop-opacity="1"
         stop-color="rgb(132,131,139)"
         offset="1" />
    </linearGradient>
  </defs>
  <metadata
     id="metadata5161">
    <rdf:RDF>
      <cc:Work
         rdf:about="">
        <dc:format>image/svg+xml</dc:format>
        <dc:type
           rdf:resource="http://purl.org/dc/dcmitype/StillImage" />
        <dc:title></dc:title>
      </cc:Work>
    </rdf:RDF>
  </metadata>
  <g
     transform="translate(0,-892.36221)"
     id="layer1">
    <g
       id="g484140"
       transform="translate(-1981.9526,233.23712)">
      <path
         style="opacity:1;fill:#cccccc;fill-opacity:1;fill-rule:nonzero;stroke:none;stroke-width:2;stroke-linecap:round;stroke-linejoin:round;stroke-miterlimit:4;stroke-dasharray:none;stroke-dashoffset:0;stroke-opacity:1"
         d="m 2188.0547,676.47852 c -0.3597,-0.035 -0.6521,0.25093 -0.6524,0.64062 l 0,5.36914 a 10.835845,10.926612 0 0 0 -6.4023,-2.125 10.835845,10.926612 0 0 0 -10.8359,10.92774 10.835845,10.926612 0 0 0 10.8359,10.92578 10.835845,10.926612 0 0 0 6.5059,-2.20118 c 0.1149,0.21736 0.3139,0.38393 0.5507,0.41211 l 2.4122,0.28516 0,-1.41992 -1.7598,-0.20508 0,-0.13086 a 10.835845,10.926612 0 0 0 1.7598,-2.39062 l 0,-10.57422 a 10.835845,10.926612 0 0 0 -1.7598,-2.375 l 0,-5.65625 1.7598,0.17968 0,-1.41796 -2.4122,-0.24414 0,0 z"
         transform="translate(-1.2207031e-4,0)"
         id="ellipse14478-7-9-7" />
      <ellipse
         style="opacity:1;fill:#666666;fill-opacity:1;fill-rule:nonzero;stroke:none;stroke-width:2;stroke-linecap:round;stroke-linejoin:round;stroke-miterlimit:4;stroke-dasharray:none;stroke-dashoffset:0;stroke-opacity:1"
         id="ellipse14450-8-5-2"
         cx="2106.1404"
         cy="713.78302"
         rx="14.391075"
         ry="14.511623" />
      <path
         id="path14452-0-7-4"
         d="m 2089.8448,728.21211 c -1.7739,0.0361 -3.2761,1.3169 -3.5938,3.0625 -1.1978,6.08339 -1.9075,9.81964 -2.2031,12.33789 -0.1478,1.25913 -0.2554,2.15483 -0.041,3.39062 0.1072,0.61779 0.2979,1.43029 1.043,2.29492 0.7329,0.85054 2.0782,1.39591 3.0195,1.4375 1.0072,0.044 1.3341,-0.12466 1.7012,-0.23828 0.224,-0.0699 0.4251,-0.15525 0.6308,-0.23437 l 0,13.09961 27.4082,0 a 18.658499,18.814795 0 0 1 -1.1191,-6.36914 18.658499,18.814795 0 0 1 9.9238,-16.61133 c -0.7671,-1.93179 -1.9746,-4.96289 -1.9746,-4.96289 -0.9382,-1.44296 -2.1055,-2.1679 -3.5039,-2.40821 -10.3976,-1.27558 -20.9928,-3.66052 -31.291,-4.79882 z"
         style="opacity:1;fill:#666666;fill-opacity:1;fill-rule:nonzero;stroke:none;stroke-width:1.60000002;stroke-linecap:round;stroke-linejoin:round;stroke-miterlimit:4;stroke-dasharray:none;stroke-dashoffset:0;stroke-opacity:1" />
      <path
         style="opacity:1;fill:#666666;fill-opacity:1;fill-rule:nonzero;stroke:none;stroke-width:2;stroke-linecap:round;stroke-linejoin:round;stroke-miterlimit:4;stroke-dasharray:none;stroke-dashoffset:0;stroke-opacity:1"
         d="m 2190.4688,716.04883 c -1.8793,2.54695 -3.004,5.69276 -3.004,9.11133 0,3.29943 1.0763,6.47685 3.004,9.09375 l 0,-18.20508 z"
         transform="translate(-1.2207031e-4,0)"
         id="ellipse14464-3-00-2" />
      <path
         style="opacity:1;fill:#cccccc;fill-opacity:1;fill-rule:nonzero;stroke:none;stroke-width:1.60000002;stroke-linecap:round;stroke-linejoin:round;stroke-miterlimit:4;stroke-dasharray:none;stroke-dashoffset:0;stroke-opacity:1"
         d="m 2168.7305,702.1543 c -1.3356,0.0272 -2.4659,0.99228 -2.7051,2.30664 -0.9019,4.58052 -1.4376,7.39488 -1.6602,9.29101 -0.1113,0.94806 -0.1928,1.62224 -0.031,2.55274 0.081,0.46516 0.2261,1.07748 0.7871,1.72851 0.5518,0.64041 1.5627,1.05072 2.2715,1.08203 0.7584,0.0331 1.0049,-0.0941 1.2812,-0.17968 0.1688,-0.0526 0.3197,-0.11621 0.4746,-0.17578 l 0,9.86328 18.7286,0 a 15.16943,15.296498 0 0 1 -0.4122,-3.46289 15.16943,15.296498 0 0 1 3.004,-9.09375 l 0,-10.54493 c -7.2422,-0.9956 -14.5843,-2.57643 -21.7383,-3.36718 z"
         transform="translate(-1.2207031e-4,0)"
         id="path14480-4-0-5" />
      <path
         style="opacity:1;fill:#cccccc;fill-opacity:1;fill-rule:nonzero;stroke:none;stroke-width:3;stroke-linecap:round;stroke-linejoin:round;stroke-miterlimit:4;stroke-dasharray:none;stroke-dashoffset:0;stroke-opacity:1"
         d="m 2161.9929,751.48112 c 0,0 12.7775,1.39155 12.7775,1.39155 0,0 0,3.81441 0,3.81441 0,0 -12.7775,-1.41072 -12.7775,-1.41072 0,0 0,-3.79524 0,-3.79524"
         id="path30611-5" />
      <path
         style="opacity:1;fill:#cccccc;fill-opacity:1;fill-rule:nonzero;stroke:none;stroke-width:3;stroke-linecap:round;stroke-linejoin:round;stroke-miterlimit:4;stroke-dasharray:none;stroke-dashoffset:0;stroke-opacity:1"
         d="m 2175.8381,752.98894 c 0,0 13.8684,1.51036 13.8684,1.51036 0,0 0,3.83681 0,3.83681 0,0 -13.8684,-1.53116 -13.8684,-1.53116 0,0 0,-3.81601 0,-3.81601"
         id="path30613-2" />
      <path
         style="opacity:1;fill:#cccccc;fill-opacity:1;fill-rule:nonzero;stroke:none;stroke-width:1.60000002;stroke-linecap:round;stroke-linejoin:round;stroke-miterlimit:4;stroke-dasharray:none;stroke-dashoffset:0;stroke-opacity:1"
         d="m 2161.9707,757.91016 0,11.01953 28.4981,3.30078 0,-0.79492 -27.9805,-3.23243 0,-9.44726 27.9805,3.12695 0,-0.79492 -28.4981,-3.17773 z"
         transform="translate(-1.2207031e-4,0)"
         id="path30615-9" />
      <path
         id="path387329-7"
         style="font-style:normal;font-variant:normal;font-weight:normal;font-stretch:normal;font-size:medium;line-height:136.00000143%;font-family:Lato;-inkscape-font-specification:Lato;letter-spacing:0.77406031px;word-spacing:-0.51087981px;fill:#1f7a7a;fill-opacity:1;stroke:none;stroke-width:1px;stroke-linecap:butt;stroke-linejoin:miter;stroke-opacity:1"
         d="m 2165.2849,766.64447 c 0,0 1.353,0.15525 1.353,0.15525 0,0 0,-4.63063 0,-4.63063 0,-0.13271 0,-0.27282 0.013,-0.42033 0,0 -1.1239,0.91081 -1.1239,0.91081 -0.038,0.0304 -0.076,0.0482 -0.1144,0.0534 -0.038,0.002 -0.073,-0.002 -0.1058,-0.012 -0.032,-0.01 -0.063,-0.0261 -0.092,-0.0484 -0.026,-0.022 -0.047,-0.0448 -0.062,-0.0686 0,0 -0.2465,-0.39261 -0.2465,-0.39261 0,0 1.8815,-1.5364 1.8815,-1.5364 0,0 0.6396,0.0718 0.6396,0.0718 0,0 0,6.16345 0,6.16345 0,0 1.2447,0.14283 1.2447,0.14283 0,0 0,0.64511 0,0.64511 0,0 -3.3871,-0.38954 -3.3871,-0.38954 0,0 0,-0.64424 0,-0.64424 0,0 0,-10e-6 0,-10e-6" />
      <path
         id="path387331-7"
         style="font-style:normal;font-variant:normal;font-weight:normal;font-stretch:normal;font-size:medium;line-height:136.00000143%;font-family:Lato;-inkscape-font-specification:Lato;letter-spacing:0.77406031px;word-spacing:-0.51087981px;fill:#1f7a7a;fill-opacity:1;stroke:none;stroke-width:1px;stroke-linecap:butt;stroke-linejoin:miter;stroke-opacity:1"
         d="m 2172.2824,761.21043 c 0.2688,0.0302 0.5198,0.10113 0.7531,0.21287 0.2335,0.11176 0.4359,0.25965 0.6073,0.44368 0.1714,0.18089 0.306,0.39409 0.4035,0.63959 0.098,0.24551 0.1464,0.51722 0.1464,0.81512 0,0.25354 -0.035,0.48562 -0.1065,0.69625 -0.071,0.20745 -0.167,0.40253 -0.2882,0.58523 -0.1212,0.18269 -0.2616,0.35842 -0.4212,0.52719 -0.1566,0.16909 -0.3235,0.33856 -0.5008,0.50842 0,0 -1.6738,1.64197 -1.6738,1.64197 0.118,-0.0213 0.2375,-0.0345 0.3585,-0.0396 0.121,-0.008 0.2376,-0.006 0.3497,0.007 0,0 2.1271,0.24394 2.1271,0.24394 0.086,0.01 0.1537,0.0446 0.204,0.10421 0.05,0.0597 0.075,0.13226 0.075,0.21783 0,0 0,0.51343 0,0.51343 0,0 -4.2337,-0.48689 -4.2337,-0.48689 0,0 0,-0.28951 0,-0.28951 0,-0.0601 0.012,-0.12047 0.035,-0.18106 0.024,-0.0606 0.06,-0.1149 0.1106,-0.16293 0,0 2.0311,-1.95674 2.0311,-1.95674 0.1683,-0.16452 0.3219,-0.32282 0.4607,-0.4749 0.1388,-0.15527 0.257,-0.3129 0.3545,-0.47289 0.097,-0.16 0.1728,-0.32411 0.226,-0.49232 0.053,-0.17139 0.08,-0.35689 0.08,-0.55648 0,-0.1996 -0.029,-0.37718 -0.089,-0.53275 -0.059,-0.15874 -0.1404,-0.29303 -0.2438,-0.40289 -0.1005,-0.10952 -0.2201,-0.19585 -0.3589,-0.25899 -0.1388,-0.0663 -0.2879,-0.10843 -0.4474,-0.12638 -0.1624,-0.0183 -0.3114,-0.01 -0.4472,0.0256 -0.1358,0.0354 -0.2568,0.093 -0.363,0.17281 -0.1032,0.077 -0.1903,0.17323 -0.2611,0.2887 -0.071,0.11546 -0.1209,0.2459 -0.1504,0.39133 -0.035,0.10679 -0.084,0.17567 -0.146,0.20665 -0.059,0.0282 -0.143,0.0281 -0.2522,-3e-5 0,0 -0.4112,-0.12245 -0.4112,-0.12245 0.041,-0.30543 0.1208,-0.57016 0.2387,-0.79419 0.1209,-0.22689 0.2713,-0.41092 0.4512,-0.55209 0.1829,-0.14086 0.3909,-0.23935 0.624,-0.29547 0.2331,-0.0593 0.4855,-0.0737 0.7571,-0.0432 0,0 2e-4,3e-5 2e-4,3e-5" />
      <path
         id="path387333-6"
         style="font-style:normal;font-variant:normal;font-weight:normal;font-stretch:normal;font-size:medium;line-height:136.00000143%;font-family:Lato;-inkscape-font-specification:Lato;letter-spacing:0.77406031px;word-spacing:-0.51087981px;fill:#1f7a7a;fill-opacity:1;stroke:none;stroke-width:1px;stroke-linecap:butt;stroke-linejoin:miter;stroke-opacity:1"
         d="m 2177.8321,761.83363 c 0.2699,0.0303 0.5191,0.0996 0.7475,0.20775 0.2285,0.10822 0.4245,0.24772 0.5877,0.41849 0.1662,0.17113 0.2954,0.36985 0.3875,0.59618 0.092,0.22634 0.138,0.47132 0.138,0.73493 0,0.21597 -0.027,0.40668 -0.08,0.57213 -0.05,0.16261 -0.1247,0.30347 -0.2227,0.42256 -0.095,0.11625 -0.2108,0.21108 -0.3472,0.28449 -0.1366,0.0734 -0.2894,0.12748 -0.4585,0.16224 0.4155,0.16468 0.7272,0.39699 0.935,0.69692 0.2109,0.30032 0.3162,0.65854 0.3162,1.07462 0,0.31444 -0.056,0.59067 -0.1693,0.82865 -0.1098,0.2383 -0.2612,0.4353 -0.4543,0.59098 -0.1929,0.15248 -0.4185,0.2615 -0.6767,0.32706 -0.2551,0.0627 -0.5295,0.0772 -0.8231,0.0434 -0.338,-0.0389 -0.627,-0.11654 -0.867,-0.23298 -0.24,-0.11959 -0.4429,-0.2682 -0.6088,-0.44585 -0.1658,-0.17762 -0.3021,-0.38036 -0.4087,-0.60823 -0.1066,-0.23102 -0.1968,-0.4776 -0.2708,-0.73973 0,0 0.3419,-0.11313 0.3419,-0.11313 0.089,-0.0311 0.1747,-0.0324 0.2577,-0.004 0.086,0.0288 0.148,0.0883 0.1866,0.17833 0.038,0.0932 0.086,0.20489 0.1421,0.33504 0.059,0.13049 0.1393,0.25861 0.24,0.38435 0.1007,0.12575 0.2282,0.23712 0.3823,0.33412 0.157,0.0973 0.3558,0.15979 0.5958,0.18735 0.2225,0.0255 0.4167,0.01 0.5828,-0.0474 0.1691,-0.06 0.3086,-0.14556 0.4184,-0.25679 0.1129,-0.1109 0.1973,-0.23933 0.2537,-0.38528 0.056,-0.14596 0.085,-0.29356 0.085,-0.44279 0,-0.18416 -0.022,-0.35499 -0.067,-0.51247 -0.044,-0.15749 -0.1276,-0.29872 -0.2493,-0.4237 -0.1215,-0.12497 -0.2892,-0.23135 -0.5028,-0.31915 -0.2107,-0.0874 -0.4819,-0.15005 -0.8141,-0.18782 0,0 0,-0.61401 0,-0.61401 0.2728,0.0278 0.5042,0.0223 0.6939,-0.0165 0.1928,-0.0384 0.3485,-0.1033 0.4672,-0.1946 0.1217,-0.091 0.2092,-0.20646 0.2627,-0.34646 0.056,-0.13966 0.084,-0.2984 0.084,-0.47621 0,-0.19685 -0.03,-0.37165 -0.089,-0.5244 -0.056,-0.15241 -0.135,-0.28192 -0.2359,-0.38853 -0.1009,-0.10661 -0.221,-0.19157 -0.3605,-0.25488 -0.1364,-0.063 -0.2847,-0.10348 -0.4449,-0.12151 -0.1601,-0.018 -0.3098,-0.01 -0.4491,0.0256 -0.1364,0.0354 -0.2579,0.0931 -0.3646,0.1731 -0.1037,0.0771 -0.1911,0.17357 -0.2624,0.28926 -0.071,0.1157 -0.1214,0.24642 -0.151,0.39216 -0.039,0.10668 -0.087,0.17569 -0.1467,0.20706 -0.056,0.0285 -0.1392,0.0287 -0.2488,4.2e-4 0,0 -0.4131,-0.12283 -0.4131,-0.12283 0.042,-0.30608 0.1214,-0.57137 0.2399,-0.79586 0.1184,-0.22769 0.268,-0.41225 0.4487,-0.55368 0.1836,-0.14113 0.3925,-0.23978 0.6266,-0.29597 0.2372,-0.059 0.4921,-0.0732 0.7649,-0.0426 0,0 0,0 0,0" />
      <path
         id="path387335-8"
         style="font-style:normal;font-variant:normal;font-weight:normal;font-stretch:normal;font-size:medium;line-height:136.00000143%;font-family:Lato;-inkscape-font-specification:Lato;letter-spacing:0.77406031px;word-spacing:-0.51087981px;fill:#1f7a7a;fill-opacity:1;stroke:none;stroke-width:1px;stroke-linecap:butt;stroke-linejoin:miter;stroke-opacity:1"
         d="m 2184.6621,767.04935 c 0,0 0.971,0.11071 0.971,0.11071 0,0 0,0.48706 0,0.48706 0,0.0509 -0.015,0.0922 -0.045,0.12382 -0.027,0.0319 -0.07,0.0445 -0.1299,0.0377 0,0 -0.7963,-0.091 -0.7963,-0.091 0,0 0,1.79955 0,1.79955 0,0 -0.6974,-0.0802 -0.6974,-0.0802 0,0 0,-1.79906 0,-1.79906 0,0 -2.8396,-0.32455 -2.8396,-0.32455 -0.06,-0.007 -0.1115,-0.0302 -0.1561,-0.0703 -0.042,-0.0429 -0.068,-0.092 -0.08,-0.1474 0,0 -0.08,-0.44288 -0.08,-0.44288 0,0 3.1114,-4.05918 3.1114,-4.05918 0,0 0.7422,0.0834 0.7422,0.0834 0,0 0,4.37237 0,4.37237 0,0 -1e-4,0 -1e-4,0 m -0.6974,-2.89981 c 0,-0.0827 0,-0.17161 0,-0.26669 0.01,-0.0979 0.016,-0.19697 0.031,-0.29712 0,0 -2.3312,3.12236 -2.3312,3.12236 0,0 2.2954,0.26176 2.2954,0.26176 0,0 0,-2.82027 0,-2.82027 0,0 -2e-4,-4e-5 -2e-4,-4e-5" />
      <path
         style="fill:#1f7a7a;fill-opacity:1"
         d="m 2185.6699,738.67969 0,12.60547 4.7989,0.51757 0,-2.94726 c -0.2572,-0.0177 -0.3796,-0.0207 -0.8047,-0.0566 l -2.0821,-0.22266 0,-6.7832 2.4512,0.25586 c 0.1673,0.0174 0.2982,0.0355 0.4356,0.0547 l 0,-2.92969 -4.7989,-0.49414 z m 3.002,4.35547 -0.016,1.66211 0.9571,0.10156 0.5547,0.0586 c 0.1028,0.0108 0.2018,0.0211 0.3008,0.0195 l 0,-1.62109 c -0.1514,-0.028 -0.4155,-0.0588 -0.9376,-0.11328 l -0.8593,-0.10742 z m -0.033,2.71679 0.016,1.77539 1.2773,0.13477 0.5372,0.0566 0,-1.77539 c -0.2137,-0.0243 -0.4301,-0.0444 -0.6387,-0.0664 l -1.1914,-0.125 z"
         transform="translate(-1.2207031e-4,0)"
         id="path30623-1" />
      <path
         id="path138350-2"
         d="m 2041.9387,737.7703 c 0,0 12.122,1.32014 12.122,1.32014 0,0 0,3.61869 0,3.61869 0,0 -12.122,-1.33832 -12.122,-1.33832 0,0 0,-3.60051 0,-3.60051"
         style="opacity:1;fill:#cccccc;fill-opacity:1;fill-rule:nonzero;stroke:none;stroke-width:3;stroke-linecap:round;stroke-linejoin:round;stroke-miterlimit:4;stroke-dasharray:none;stroke-dashoffset:0;stroke-opacity:1" />
      <path
         id="path138352-0"
         d="m 2055.0736,739.20075 c 0,0 13.1568,1.43286 13.1568,1.43286 0,0 0,3.63994 0,3.63994 0,0 -13.1568,-1.45259 -13.1568,-1.45259 0,0 0,-3.62021 0,-3.62021"
         style="opacity:1;fill:#cccccc;fill-opacity:1;fill-rule:nonzero;stroke:none;stroke-width:3;stroke-linecap:round;stroke-linejoin:round;stroke-miterlimit:4;stroke-dasharray:none;stroke-dashoffset:0;stroke-opacity:1" />
      <path
         id="path138354-3"
         d="m 2041.9185,743.86978 c 0,0 0,10.45435 0,10.45435 0,0 37.3817,4.32887 37.3817,4.32887 0,0 0,-10.61713 0,-10.61713 0,0 -37.3817,-4.16609 -37.3817,-4.16609 0,0 0,0 0,0 m 0.4909,0.8016 c 0,0 36.3847,4.06629 36.3847,4.06629 0,0 0,9.09852 0,9.09852 0,0 -36.3847,-4.2021 -36.3847,-4.2021 0,0 0,-8.96271 0,-8.96271 0,0 0,0 0,0"
         style="opacity:1;fill:#cccccc;fill-opacity:1;fill-rule:nonzero;stroke:none;stroke-width:1.60000002;stroke-linecap:round;stroke-linejoin:round;stroke-miterlimit:4;stroke-dasharray:none;stroke-dashoffset:0;stroke-opacity:1" />
      <path
         d="m 2064.401,725.62645 c 0,0 0,11.95818 0,11.95818 0,0 13.5884,1.4651 13.5884,1.4651 0,0 0,-12.02524 0,-12.02524 0,0 -13.5884,-1.39804 -13.5884,-1.39804 m 1.8134,2.95301 c 0,0 2.3254,0.24191 2.3254,0.24191 0.4626,0.0481 0.7995,0.0998 1.0391,0.17581 0.2235,0.0743 0.4303,0.18259 0.606,0.33693 0.1757,0.15426 0.3353,0.35698 0.4471,0.5897 0.1119,0.23285 0.1766,0.49387 0.1766,0.76591 0,0.30618 -0.081,0.56969 -0.2247,0.80982 -0.1438,0.23992 -0.3514,0.40572 -0.5909,0.49957 0.3514,0.15594 0.6239,0.37146 0.8156,0.66385 0.1918,0.29233 0.288,0.62661 0.288,1.00082 0,0.2891 -0.064,0.57083 -0.192,0.82926 -0.1279,0.25847 -0.2889,0.46312 -0.5126,0.60935 -0.2076,0.14792 -0.4792,0.22127 -0.7825,0.2229 -0.1916,-0.004 -0.6705,-0.0371 -1.4203,-0.10044 0,0 -1.9748,-0.21068 -1.9748,-0.21068 0,0 0,-6.43424 0,-6.43424 0,0 0,-4.7e-4 0,-4.7e-4 m 5.2336,0.54443 c 0,0 1.0393,0.10812 1.0393,0.10812 0,0 0,2.33223 0,2.33223 0.3522,-0.40554 0.7373,-0.77302 1.5543,-0.68754 0.5128,0.0537 0.9617,0.28767 1.3305,0.7183 0.4173,0.48681 0.7046,1.23165 0.6725,2.08053 -0.048,1.0004 -0.2392,1.25371 -0.6242,1.68997 -0.3529,0.38833 -0.9463,0.52935 -1.427,0.47806 -0.3044,-0.0325 -0.5774,-0.0973 -0.8177,-0.25914 -0.2401,-0.16168 -0.5123,-0.44524 -0.6884,-0.71921 0,0 0,0.73181 0,0.73181 0,0 -1.0393,-0.11083 -1.0393,-0.11083 0,0 0,-6.3623 0,-6.3623 m -4.1987,0.63409 c 0,0 -0.015,1.57692 -0.015,1.57692 0,0 0.9074,0.0954 0.9074,0.0954 0,0 0.5269,0.0554 0.5269,0.0554 0.1914,0.0201 0.3682,0.0387 0.5598,-0.0267 0.1596,-0.0509 0.3188,-0.16999 0.3987,-0.33159 0.064,-0.11224 0.096,-0.24369 0.096,-0.37971 0,-0.17002 -0.081,-0.33275 -0.1765,-0.46171 -0.1276,-0.16635 -0.3038,-0.26993 -0.4794,-0.30526 -0.1117,-0.0283 -0.4454,-0.0632 -1.0037,-0.12149 0,0 -0.8137,-0.10164 -0.8137,-0.10164 0,0 10e-5,3.9e-4 10e-5,3.9e-4 m 6.3898,2.0457 c -0.3364,-0.0187 -0.7047,0.1997 -0.8808,0.40244 -0.1761,0.2367 -0.271,0.54797 -0.271,1.00742 0,0.47656 0.1758,0.83583 0.3037,1.07065 0.2563,0.2995 0.3683,0.39776 0.7848,0.52709 0.2402,0.0767 0.6724,0.0203 0.8968,-0.16037 0.2565,-0.19419 0.4662,-0.51365 0.5143,-1.01968 0.064,-0.77704 -0.2097,-1.1967 -0.4181,-1.42302 -0.2885,-0.28578 -0.6574,-0.39307 -0.9297,-0.40453 0,0 0,0 0,0 m -6.4224,0.53084 c 0,0 0.016,1.68441 0.016,1.68441 0,0 1.212,0.12875 1.212,0.12875 0,0 0.8299,0.0881 0.8299,0.0881 0.2873,-0.0206 0.3997,-0.0443 0.5753,-0.21263 0.08,-0.077 0.2064,-0.24984 0.2224,-0.50325 0,-0.20401 -0.048,-0.29441 -0.096,-0.41852 -0.048,-0.0906 -0.095,-0.16258 -0.1592,-0.23734 -0.1597,-0.18686 -0.4308,-0.30067 -0.6384,-0.32257 -0.2713,-0.0453 -0.5587,-0.059 -0.8298,-0.0876 0,0 -1.1316,-0.11941 -1.1316,-0.11941 0,0 -2e-4,-2e-5 -2e-4,-2e-5"
         id="path138362-2"
         style="fill:#1f7a7a;fill-opacity:1" />
      <path
         style="opacity:1;fill:#cccccc;fill-opacity:1;fill-rule:nonzero;stroke:none;stroke-width:3;stroke-linecap:round;stroke-linejoin:round;stroke-miterlimit:4;stroke-dasharray:none;stroke-dashoffset:0;stroke-opacity:1"
         d="m 2126.691,709.53143 c 0,0 9.8551,1.07328 9.8551,1.07328 0,0 0,2.94201 0,2.94201 0,0 -9.8551,-1.08807 -9.8551,-1.08807 0,0 0,-2.92722 0,-2.92722"
         id="path138366-8" />
      <path
         style="opacity:1;fill:#cccccc;fill-opacity:1;fill-rule:nonzero;stroke:none;stroke-width:3;stroke-linecap:round;stroke-linejoin:round;stroke-miterlimit:4;stroke-dasharray:none;stroke-dashoffset:0;stroke-opacity:1"
         d="m 2137.3696,710.6944 c 0,0 10.6966,1.16491 10.6966,1.16491 0,0 0,2.95929 0,2.95929 0,0 -10.6966,-1.18096 -10.6966,-1.18096 0,0 0,-2.94324 0,-2.94324"
         id="path138368-7" />
      <path
         style="opacity:1;fill:#cccccc;fill-opacity:1;fill-rule:nonzero;stroke:none;stroke-width:1.60000002;stroke-linecap:round;stroke-linejoin:round;stroke-miterlimit:4;stroke-dasharray:none;stroke-dashoffset:0;stroke-opacity:1"
         d="m 2126.6745,714.49033 c 0,0 0,8.49943 0,8.49943 0,0 30.3915,3.51939 30.3915,3.51939 0,0 0,-8.63177 0,-8.63177 0,0 -30.3915,-3.38705 -30.3915,-3.38705 0,0 0,0 0,0 m 0.3991,0.6517 c 0,0 29.5809,3.30592 29.5809,3.30592 0,0 0,7.39712 0,7.39712 0,0 -29.5809,-3.41632 -29.5809,-3.41632 0,0 0,-7.28672 0,-7.28672 0,0 0,0 0,0"
         id="path138370-4" />
      <path
         id="path387291-6"
         style="font-style:normal;font-variant:normal;font-weight:normal;font-stretch:normal;font-size:medium;line-height:136.00000143%;font-family:Lato;-inkscape-font-specification:Lato;letter-spacing:0.77406031px;word-spacing:-0.51087981px;fill:#1f7a7a;fill-opacity:1;stroke:none;stroke-width:1px;stroke-linecap:butt;stroke-linejoin:miter;stroke-opacity:1"
         d="m 2129.9914,718.53622 c -0.045,0.0533 -0.087,0.10585 -0.1258,0.15752 -0.039,0.0517 -0.077,0.10213 -0.1156,0.15136 0.1156,-0.0722 0.2425,-0.12356 0.3808,-0.15418 0.1405,-0.0328 0.2924,-0.0399 0.4557,-0.0214 0.1974,0.0224 0.3834,0.0788 0.5581,0.16933 0.1747,0.0881 0.3268,0.20655 0.4562,0.35536 0.1317,0.14666 0.2361,0.32194 0.3134,0.52585 0.077,0.20149 0.1158,0.42665 0.1158,0.67545 0,0.24149 -0.041,0.46123 -0.1226,0.6592 -0.082,0.19795 -0.1965,0.36529 -0.344,0.502 -0.1453,0.13695 -0.3212,0.23744 -0.5277,0.30148 -0.2042,0.0643 -0.4299,0.0822 -0.6771,0.0538 -0.2448,-0.0282 -0.4669,-0.0951 -0.6663,-0.20091 -0.1994,-0.10818 -0.3693,-0.24707 -0.5097,-0.41665 -0.1382,-0.17173 -0.2457,-0.37159 -0.3227,-0.5996 -0.075,-0.23015 -0.112,-0.48159 -0.112,-0.75433 0,-0.22891 0.046,-0.46715 0.1392,-0.71472 0.095,-0.24978 0.2457,-0.51034 0.4518,-0.7817 0,0 1.2374,-1.64765 1.2374,-1.64765 0.032,-0.0403 0.075,-0.072 0.1293,-0.0952 0.057,-0.0253 0.1214,-0.0339 0.194,-0.0258 0,0 0.5378,0.0604 0.5378,0.0604 0,0 -1.446,1.80037 -1.446,1.80037 0,0 0,0 0,0 m -0.6627,1.58374 c 0,0.16808 0.023,0.32413 0.068,0.46817 0.045,0.14403 0.111,0.27092 0.1971,0.38067 0.088,0.11002 0.1948,0.20019 0.3194,0.27053 0.127,0.0682 0.2709,0.11149 0.4319,0.12996 0.1632,0.0187 0.3106,0.008 0.4422,-0.0333 0.1339,-0.0407 0.2473,-0.10572 0.3403,-0.19502 0.095,-0.0891 0.168,-0.19899 0.2179,-0.32982 0.052,-0.13058 0.078,-0.27635 0.078,-0.43729 0,-0.1707 -0.025,-0.32717 -0.075,-0.46942 -0.05,-0.14467 -0.1214,-0.26985 -0.2145,-0.37553 -0.091,-0.10785 -0.1996,-0.19459 -0.3267,-0.26022 -0.127,-0.0656 -0.2665,-0.10707 -0.4184,-0.12433 -0.1632,-0.0186 -0.3106,-0.005 -0.442,0.0412 -0.1315,0.0435 -0.2437,0.11118 -0.3366,0.20294 -0.091,0.0896 -0.1608,0.19851 -0.2106,0.32681 -0.048,0.12612 -0.071,0.26104 -0.071,0.40476 0,0 0,0 0,0" />
      <path
         id="path387293-3"
         style="font-style:normal;font-variant:normal;font-weight:normal;font-stretch:normal;font-size:medium;line-height:136.00000143%;font-family:Lato;-inkscape-font-specification:Lato;letter-spacing:0.77406031px;word-spacing:-0.51087981px;fill:#1f7a7a;fill-opacity:1;stroke:none;stroke-width:1px;stroke-linecap:butt;stroke-linejoin:miter;stroke-opacity:1"
         d="m 2134.2276,719.01631 c -0.046,0.0534 -0.088,0.10606 -0.1263,0.15783 -0.039,0.0518 -0.077,0.10233 -0.116,0.15165 0.116,-0.0723 0.2435,-0.12376 0.3824,-0.15441 0.1411,-0.0328 0.2937,-0.04 0.4577,-0.0214 0.1982,0.0225 0.385,0.0791 0.5605,0.16982 0.1755,0.0883 0.3282,0.20708 0.4582,0.35625 0.1322,0.14701 0.2371,0.3227 0.3147,0.52707 0.078,0.20195 0.1163,0.4276 0.1163,0.67694 0,0.24201 -0.041,0.46222 -0.1232,0.6606 -0.082,0.19836 -0.1973,0.36603 -0.3455,0.503 -0.1459,0.13721 -0.3225,0.23788 -0.5299,0.302 -0.2051,0.0644 -0.4318,0.0823 -0.68,0.0537 -0.2459,-0.0283 -0.469,-0.0955 -0.6693,-0.20151 -0.2002,-0.10847 -0.3708,-0.24769 -0.5119,-0.41767 -0.1387,-0.17214 -0.2467,-0.37246 -0.324,-0.60098 -0.075,-0.23067 -0.1126,-0.48267 -0.1126,-0.756 0,-0.22941 0.047,-0.46814 0.1399,-0.71623 0.096,-0.2503 0.2467,-0.51139 0.4537,-0.78329 0,0 1.2428,-1.65091 1.2428,-1.65091 0.032,-0.0404 0.075,-0.0722 0.1299,-0.0953 0.057,-0.0254 0.1218,-0.034 0.1948,-0.0258 0,0 0.5401,0.0607 0.5401,0.0607 0,0 -1.4523,1.80392 -1.4523,1.80392 0,0 0,0 0,0 m -0.6656,1.58701 c 0,0.16844 0.023,0.32484 0.068,0.46919 0.045,0.14436 0.1115,0.27155 0.198,0.38155 0.089,0.11028 0.1957,0.20068 0.3209,0.2712 0.1275,0.0684 0.272,0.1118 0.4337,0.13035 0.164,0.0188 0.312,0.008 0.4441,-0.0333 0.1344,-0.0408 0.2484,-0.10589 0.3418,-0.19536 0.096,-0.0892 0.1687,-0.19938 0.2188,-0.33049 0.052,-0.13085 0.079,-0.27692 0.079,-0.43821 0,-0.17107 -0.025,-0.32789 -0.075,-0.47045 -0.05,-0.14501 -0.1219,-0.27047 -0.2154,-0.3764 -0.091,-0.10811 -0.2005,-0.19506 -0.3281,-0.26087 -0.1276,-0.0658 -0.2676,-0.10737 -0.4202,-0.1247 -0.164,-0.0186 -0.312,-0.005 -0.444,0.0411 -0.132,0.0436 -0.2447,0.11136 -0.338,0.20329 -0.091,0.0897 -0.1615,0.1989 -0.2116,0.32747 -0.048,0.12638 -0.072,0.26158 -0.072,0.40561 0,0 0,0 0,0" />
      <path
         id="path387295-8"
         style="font-style:normal;font-variant:normal;font-weight:normal;font-stretch:normal;font-size:medium;line-height:136.00000143%;font-family:Lato;-inkscape-font-specification:Lato;letter-spacing:0.77406031px;word-spacing:-0.51087981px;fill:#1f7a7a;fill-opacity:1;stroke:none;stroke-width:1px;stroke-linecap:butt;stroke-linejoin:miter;stroke-opacity:1"
         d="m 2138.4823,719.49848 c -0.046,0.0535 -0.088,0.10627 -0.1268,0.15815 -0.039,0.0519 -0.078,0.10252 -0.1166,0.15195 0.1166,-0.0724 0.2446,-0.12397 0.384,-0.15466 0.1418,-0.0329 0.295,-0.04 0.4598,-0.0213 0.199,0.0226 0.3866,0.0793 0.5629,0.17034 0.1762,0.0886 0.3296,0.2076 0.4602,0.35713 0.1328,0.14736 0.2382,0.32346 0.316,0.52829 0.078,0.2024 0.1169,0.42856 0.1169,0.67844 0,0.24254 -0.041,0.46321 -0.1237,0.662 -0.082,0.19878 -0.1982,0.36678 -0.347,0.50401 -0.1466,0.13748 -0.324,0.23832 -0.5323,0.30253 -0.206,0.0645 -0.4336,0.0824 -0.6829,0.0537 -0.247,-0.0284 -0.4711,-0.0958 -0.6722,-0.20212 -0.2011,-0.10875 -0.3725,-0.24832 -0.5141,-0.41871 -0.1394,-0.17255 -0.2479,-0.37333 -0.3255,-0.60236 -0.075,-0.2312 -0.113,-0.48375 -0.113,-0.75767 0,-0.2299 0.047,-0.46915 0.1404,-0.71775 0.096,-0.25082 0.2478,-0.51244 0.4557,-0.78487 0,0 1.2483,-1.65419 1.2483,-1.65419 0.032,-0.0405 0.075,-0.0723 0.1303,-0.0955 0.057,-0.0254 0.1225,-0.034 0.1957,-0.0258 0,0 0.5425,0.0609 0.5425,0.0609 0,0 -1.4586,1.80748 -1.4586,1.80748 0,0 0,0 0,0 m -0.6685,1.59029 c 0,0.1688 0.023,0.32554 0.069,0.47022 0.046,0.14469 0.112,0.27216 0.1988,0.38243 0.089,0.11054 0.1966,0.20116 0.3223,0.27186 0.128,0.0685 0.2732,0.11212 0.4356,0.13075 0.1647,0.0189 0.3134,0.008 0.4461,-0.0333 0.135,-0.0408 0.2494,-0.10607 0.3432,-0.19571 0.096,-0.0894 0.1694,-0.19977 0.2198,-0.33114 0.053,-0.13113 0.079,-0.27751 0.079,-0.43916 0,-0.17143 -0.025,-0.3286 -0.076,-0.47149 -0.05,-0.14533 -0.1225,-0.27108 -0.2163,-0.37727 -0.091,-0.10836 -0.2014,-0.19553 -0.3296,-0.26151 -0.1281,-0.066 -0.2688,-0.10767 -0.422,-0.12508 -0.1647,-0.0187 -0.3133,-0.005 -0.4459,0.0411 -0.1326,0.0437 -0.2458,0.11155 -0.3395,0.20366 -0.091,0.0899 -0.1622,0.19928 -0.2125,0.32812 -0.048,0.12664 -0.072,0.26214 -0.072,0.40648 0,0 0,0 0,0" />
      <path
         style="fill:#666666;fill-opacity:1;fill-rule:evenodd;stroke:none;stroke-width:0.80514383px;stroke-linecap:butt;stroke-linejoin:miter;stroke-opacity:1"
         d="m 2115.5107,694.11104 c -0.4789,-0.0482 -0.8668,0.33302 -0.8672,0.85156 l 0,29.91406 c 10e-5,0.51889 0.388,0.98596 0.8672,1.04297 l 17.5801,2.07422 0,2.97851 -11.2012,-1.33789 0,2.21094 24.7891,2.99024 0.4746,0.0566 0,-2.23828 -5.7442,-0.6875 0,-2.99219 18.0567,2.13086 c 0.5016,0.0591 0.9081,-0.32407 0.9082,-0.85547 l 0,-30.61914 c -5e-4,-0.53115 -0.4069,-1.00368 -0.9082,-1.05469 l -43.9551,-4.46484 z m 0.8691,1.96875 42.1778,4.32617 0,28.66797 -42.1778,-4.93555 0,-28.05859 z"
         id="path138376-0" />
      <path
         style="fill:#1f7a7a;fill-opacity:1"
         id="path138378-4"
         d="m 2144.9529,699.65843 c 0,0 0,9.72205 0,9.72205 0,0 11.0474,1.19113 11.0474,1.19113 0,0 0,-9.77656 0,-9.77656 0,0 -11.0474,-1.13662 -11.0474,-1.13662 m 1.4742,2.40081 c 0,0 1.8907,0.19667 1.8907,0.19667 0.376,0.0391 0.6499,0.0812 0.8447,0.14294 0.1817,0.0604 0.3498,0.14845 0.4927,0.27392 0.1429,0.12542 0.2726,0.29023 0.3635,0.47943 0.091,0.18932 0.1436,0.40152 0.1436,0.62269 0,0.24892 -0.066,0.46316 -0.1827,0.65839 -0.1169,0.19506 -0.2857,0.32985 -0.4804,0.40615 0.2857,0.12678 0.5072,0.302 0.6631,0.53971 0.1559,0.23766 0.2341,0.50944 0.2341,0.81368 0,0.23503 -0.052,0.46408 -0.1561,0.67419 -0.104,0.21013 -0.2349,0.37651 -0.4167,0.4954 -0.1689,0.12025 -0.3897,0.17989 -0.6362,0.18122 -0.1558,-0.003 -0.5451,-0.0301 -1.1547,-0.0817 0,0 -1.6056,-0.17128 -1.6056,-0.17128 0,0 0,-5.23107 0,-5.23107 0,0 0,-3.8e-4 0,-3.8e-4 m 4.255,0.44263 c 0,0 0.845,0.0879 0.845,0.0879 0,0 0,1.89611 0,1.89611 0.2863,-0.3297 0.5994,-0.62847 1.2636,-0.55897 0.4169,0.0436 0.7818,0.23388 1.0817,0.58398 0.3393,0.39577 0.5728,1.00134 0.5467,1.69147 -0.039,0.81334 -0.1944,1.01928 -0.5075,1.37396 -0.2868,0.31571 -0.7692,0.43036 -1.1601,0.38866 -0.2475,-0.0264 -0.4694,-0.0791 -0.6648,-0.21068 -0.1952,-0.13144 -0.4165,-0.36198 -0.5596,-0.58472 0,0 0,0.59497 0,0.59497 0,0 -0.845,-0.0901 -0.845,-0.0901 0,0 0,-5.17257 0,-5.17257 m -3.4136,0.51551 c 0,0 -0.013,1.28205 -0.013,1.28205 0,0 0.7378,0.0776 0.7378,0.0776 0,0 0.4283,0.045 0.4283,0.045 0.1556,0.0164 0.2994,0.0315 0.4551,-0.0217 0.1298,-0.0414 0.2592,-0.1382 0.3242,-0.26958 0.052,-0.0912 0.078,-0.19813 0.078,-0.30871 0,-0.13823 -0.066,-0.27052 -0.1435,-0.37537 -0.1038,-0.13524 -0.247,-0.21945 -0.3897,-0.24818 -0.091,-0.023 -0.3622,-0.0514 -0.816,-0.0988 0,0 -0.6616,-0.0826 -0.6616,-0.0826 0,0 1e-4,3.2e-4 1e-4,3.2e-4 m 5.1949,1.66316 c -0.2735,-0.0152 -0.573,0.16237 -0.7161,0.32719 -0.1432,0.19244 -0.2203,0.4455 -0.2203,0.81904 0,0.38745 0.1429,0.67954 0.2469,0.87044 0.2083,0.2435 0.2994,0.32338 0.638,0.42853 0.1954,0.0624 0.5467,0.0165 0.7291,-0.13039 0.2086,-0.15788 0.3791,-0.41759 0.4182,-0.829 0.052,-0.63174 -0.1705,-0.97292 -0.3399,-1.15692 -0.2346,-0.23234 -0.5345,-0.31957 -0.7559,-0.32889 0,0 0,0 0,0 m -5.2214,0.43158 c 0,0 0.013,1.36943 0.013,1.36943 0,0 0.9854,0.10468 0.9854,0.10468 0,0 0.6747,0.0717 0.6747,0.0717 0.2335,-0.0167 0.3249,-0.036 0.4677,-0.17287 0.065,-0.0626 0.1678,-0.20312 0.1807,-0.40915 0,-0.16586 -0.039,-0.23935 -0.078,-0.34026 -0.039,-0.0737 -0.077,-0.13217 -0.1294,-0.19295 -0.1298,-0.15192 -0.3502,-0.24444 -0.519,-0.26225 -0.2205,-0.0368 -0.4542,-0.0479 -0.6746,-0.0712 0,0 -0.92,-0.0971 -0.92,-0.0971 0,0 -1e-4,-1e-5 -1e-4,-1e-5" />
      <path
         style="fill:#000000;fill-opacity:1;fill-rule:evenodd;stroke:none;stroke-width:0.80514383px;stroke-linecap:butt;stroke-linejoin:miter;stroke-opacity:1"
         d="m 2028.1865,718.80244 c -0.5891,-0.0592 -1.0659,0.40908 -1.0664,1.04688 l 0,8.77343 a 17.701117,17.849392 0 0 0 -10.459,-3.47265 17.701117,17.849392 0 0 0 -17.7012,17.84961 17.701117,17.849392 0 0 0 17.7012,17.84961 17.701117,17.849392 0 0 0 10.6289,-3.59571 c 0.1871,0.35547 0.5099,0.62784 0.8965,0.67383 l 21.625,2.55078 0,3.66602 -13.7774,-1.64649 0,2.71876 30.4903,3.67773 0.9023,0.10937 6.6738,0.80469 0,-0.72656 c 1.3967,-0.0565 3.1796,-0.10531 5.4453,-0.041 1.9795,0.0555 3.9703,0.20604 5.4434,0.51368 0.7366,0.15375 1.3428,0.35149 1.7305,0.5625 0.3877,0.21101 0.5026,0.38929 0.5195,0.51171 0.028,0.20117 -0.021,0.3512 -0.1836,0.56055 -0.1613,0.20934 -0.4407,0.43815 -0.7637,0.65235 -0.3231,0.2142 -0.6849,0.41627 -1.0175,0.61328 -0.3327,0.19686 -0.6343,0.36498 -0.8809,0.6582 -0.1234,0.14654 -0.2501,0.36319 -0.2402,0.63867 0.011,0.27561 0.173,0.51124 0.3437,0.6582 0.3416,0.29419 0.7792,0.44217 1.4863,0.63086 1.4144,0.3771 3.89,0.78631 8.0997,1.32422 0.8756,0.1123 1.5332,0.25121 1.9667,0.39844 0.4091,0.13905 0.5497,0.28494 0.5645,0.29687 -0.011,0.0208 -0.011,0.0361 -0.061,0.0957 -0.1409,0.16942 -0.482,0.44058 -0.9805,0.73047 -1.6368,0.95189 -4.9977,2.19525 -9.3242,3.59765 -0.9118,-0.75 -2.2539,-1.22127 -3.9785,-1.16797 -3.8099,0.1178 -6.1754,2.81635 -8.334,5.21485 0,0 -0.06,0.35894 -0.1797,0.89844 -0.1199,0.5398 2.0996,2.69716 3.2988,3.47656 1.1994,0.7795 3.8777,0.14115 7.3145,-1.49805 3.1473,-1.5012 3.8532,-4.12351 2.707,-5.97851 4.1129,-1.338 7.3076,-2.52611 9.0762,-3.55469 0.5588,-0.32483 0.9829,-0.62753 1.2813,-0.98633 0.1491,-0.17939 0.2707,-0.38043 0.3242,-0.62305 0.054,-0.24262 0.012,-0.52287 -0.1114,-0.74414 -0.2463,-0.44226 -0.6764,-0.65548 -1.2304,-0.84375 -0.5541,-0.18841 -1.2708,-0.33555 -2.1914,-0.45312 -4.1929,-0.5357 -6.6619,-0.94762 -7.9493,-1.29102 -0.4514,-0.12062 -0.5692,-0.19984 -0.7265,-0.27734 0.1044,-0.0749 0.145,-0.11653 0.3066,-0.21289 0.3102,-0.18369 0.6909,-0.39539 1.0664,-0.64453 0.3756,-0.24899 0.7484,-0.53361 1.0372,-0.90821 0.2889,-0.3746 0.4907,-0.87645 0.416,-1.41797 -0.086,-0.62041 -0.5562,-1.06019 -1.1094,-1.36132 -0.5533,-0.30112 -1.2472,-0.51082 -2.0469,-0.67774 -1.5988,-0.33398 -3.6267,-0.48208 -5.6406,-0.53906 -1.3295,-0.0374 -2.5364,-0.037 -3.5938,-0.0195 -0.7359,0.0123 -1.2992,0.0376 -1.8847,0.0605 l 0,-0.88867 -14.0567,-1.67968 0,-3.68165 22.209,2.6211 c 0.617,0.0727 1.1171,-0.39911 1.1172,-1.05274 l 0,-37.6621 c -6e-4,-0.65333 -0.5005,-1.23414 -1.1172,-1.29688 l -54.0664,-5.49219 z m 1.0683,2.42383 51.8809,5.32031 0,35.26172 -51.8809,-6.07031 0,-0.2168 a 17.701117,17.849392 0 0 0 5.1075,-12.52148 17.701117,17.849392 0 0 0 -5.1075,-12.53516 l 0,-9.23828 z m -32.6367,39.52148 c -2.1819,0.0444 -4.0311,1.61853 -4.4219,3.76563 -1.4733,7.4826 -2.3454,12.07832 -2.7089,15.17578 -0.1818,1.5487 -0.3144,2.65188 -0.051,4.17188 0.1318,0.7599 0.3668,1.75876 1.2832,2.82226 0.9014,1.0462 2.555,1.71638 3.7128,1.76758 1.2389,0.054 1.6423,-0.15327 2.0938,-0.29297 0.2756,-0.086 0.5224,-0.18981 0.7754,-0.28711 l 0,16.11328 38.7207,0 0,-18.0957 c 0.9709,2.4152 1.9612,4.87272 2.7519,6.79492 0.4763,1.1576 0.891,2.15408 1.2227,2.92578 0.3318,0.7715 0.2022,0.78137 0.9492,1.97657 0.8438,1.3501 1.9352,1.79586 2.584,2.00976 0.6488,0.2139 1.0639,0.24543 1.4141,0.26563 0.7003,0.04 1.1533,-0.0152 1.6386,-0.0762 0.9706,-0.1234 1.9663,-0.33552 3.1153,-0.60742 2.2979,-0.5434 5.1166,-1.33982 7.9121,-2.16992 5.591,-1.6602 11.0508,-3.45508 11.0508,-3.45508 5.9446,-1.8437 3.0137,-10.76195 -2.8653,-8.71875 0,0 -5.374,1.76275 -10.7969,3.37305 -2.6729,0.7937 -5.347,1.54051 -7.3085,2.00781 -0.1521,-0.3656 -0.2568,-0.60784 -0.4278,-1.02344 -0.9324,-2.2662 -2.1198,-5.20492 -3.2832,-8.10742 -2.3266,-5.80523 -4.5644,-11.4707 -4.5644,-11.4707 -1.154,-1.77485 -2.5887,-2.66731 -4.3086,-2.96289 -12.7892,-1.56897 -25.8215,-4.50223 -38.4883,-5.90235 z"
         id="path14420-9-8-9" />
      <path
         style="fill:#000000;fill-opacity:1;fill-rule:evenodd;stroke:none;stroke-width:0.80514383px;stroke-linecap:butt;stroke-linejoin:miter;stroke-opacity:1"
         d="m 2147.498,731.48828 c -0.6208,-0.0625 -1.1244,0.43121 -1.125,1.10352 l 0,9.24804 a 18.658499,18.814795 0 0 0 -11.0234,-3.66015 18.658499,18.814795 0 0 0 -18.6582,18.81445 18.658499,18.814795 0 0 0 18.6582,18.81445 18.658499,18.814795 0 0 0 11.2031,-3.79101 c 0.1972,0.37463 0.5379,0.66247 0.9453,0.71094 l 22.793,2.68945 0,3.86328 -14.5215,-1.73437 0,2.86523 32.1387,3.87695 0.9531,0.11524 1.6075,0.19336 0,-2.9043 -9.3907,-1.12305 0,-3.88086 9.3907,1.10938 0,-2.48242 -41.8458,-4.89649 0,-0.22461 a 18.658499,18.814795 0 0 0 5.3848,-13.20117 18.658499,18.814795 0 0 0 -5.3848,-13.21289 l 0,-9.74023 41.8458,4.29296 0,-2.48046 -42.9708,-4.36524 z m -33.2773,44.21289 c -2.299,0.0477 -4.2464,1.70808 -4.6582,3.97071 -1.553,7.88729 -2.4741,12.73109 -2.8574,15.99609 -0.1915,1.6325 -0.3322,2.79428 -0.055,4.39648 0.1389,0.801 0.3875,1.85557 1.3535,2.97657 0.9502,1.1028 2.6917,1.80938 3.9121,1.86328 1.3059,0.057 1.7311,-0.16325 2.207,-0.31055 0.2905,-0.091 0.5517,-0.19818 0.8184,-0.30078 l 0,13.33398 40.8145,0 0,-15.42578 c 1.0234,2.5459 2.0669,5.13591 2.9003,7.16211 0.502,1.2202 0.9395,2.27264 1.2891,3.08594 0.3498,0.8133 0.2126,0.82213 1,2.08203 0.8894,1.4231 2.0387,1.89364 2.7227,2.11914 0.6839,0.2255 1.1211,0.258 1.4902,0.2793 0.7383,0.042 1.219,-0.0161 1.7305,-0.0801 1.0231,-0.13 2.0721,-0.35403 3.2832,-0.64063 2.4222,-0.5729 5.393,-1.41201 8.3398,-2.2871 5.8934,-1.75 11.6485,-3.64063 11.6485,-3.64063 0.1077,-0.0334 0.2062,-0.0736 0.3086,-0.11133 l 0,-9.11719 c -0.949,-0.35472 -2.0739,-0.39945 -3.3301,0.0371 0,0 -5.6648,1.85924 -11.3809,3.55664 -2.8176,0.8366 -5.6355,1.62449 -7.7031,2.11719 -0.1603,-0.3854 -0.271,-0.64198 -0.4512,-1.08008 -0.9829,-2.3888 -2.2346,-5.48737 -3.4609,-8.54687 -2.4525,-6.1192 -4.8106,-12.0918 -4.8106,-12.0918 -1.2164,-1.8709 -2.7299,-2.80949 -4.5429,-3.12109 -13.4802,-1.65372 -27.2151,-4.74673 -40.5664,-6.22266 l 0,0 z"
         transform="translate(-1.2207031e-4,0)"
         id="path14434-1-0-1" />
      <rect
         style="opacity:1;fill:none;fill-opacity:1;fill-rule:nonzero;stroke:#666666;stroke-width:0.29785961;stroke-linecap:round;stroke-linejoin:round;stroke-miterlimit:4;stroke-dasharray:none;stroke-dashoffset:0;stroke-opacity:1"
         id="rect476793"
         width="207.03087"
         height="157.00214"
         x="1983.4371"
         y="660.62402" />
    </g>
  </g>
</svg>
