<?xml version="1.0" encoding="UTF-8" standalone="no"?>
<!-- Created with Inkscape (http://www.inkscape.org/) -->

<svg
   xmlns:dc="http://purl.org/dc/elements/1.1/"
   xmlns:cc="http://creativecommons.org/ns#"
   xmlns:rdf="http://www.w3.org/1999/02/22-rdf-syntax-ns#"
   xmlns:svg="http://www.w3.org/2000/svg"
   xmlns="http://www.w3.org/2000/svg"
   xmlns:sodipodi="http://sodipodi.sourceforge.net/DTD/sodipodi-0.dtd"
   xmlns:inkscape="http://www.inkscape.org/namespaces/inkscape"
   width="210"
   height="160"
   viewBox="0 0 210 160"
   id="svg5156"
   version="1.1"
   inkscape:version="0.91 r13725"
   sodipodi:docname="written-create.svg">
  <defs
     id="defs5158">
    <linearGradient
       gradientTransform="matrix(1.2219423,0,0,0.81836924,-767.16729,-40.990215)"
       id="gradientFill"
       x1="0.74144253"
       x2="590.86259"
       y1="3.6658269"
       y2="593.78698"
       gradientUnits="userSpaceOnUse"
       spreadMethod="pad">
      <stop
         offset="0"
         stop-color="rgb(203,206,208)"
         stop-opacity="1"
         id="stop6361" />
      <stop
         offset="1"
         stop-color="rgb(132,131,139)"
         stop-opacity="1"
         id="stop6363" />
    </linearGradient>
    <linearGradient
       gradientTransform="matrix(1.2219423,0,0,0.81836924,-767.16729,-40.990215)"
       id="gradientFill-0"
       x1="0.7414425"
       x2="590.86261"
       y1="3.6658268"
       y2="593.78699"
       gradientUnits="userSpaceOnUse"
       spreadMethod="pad">
      <stop
         offset="0"
         stop-color="rgb(203,206,208)"
         stop-opacity="1"
         id="stop6361-6" />
      <stop
         offset="1"
         stop-color="rgb(132,131,139)"
         stop-opacity="1"
         id="stop6363-2" />
    </linearGradient>
  </defs>
  <sodipodi:namedview
     id="base"
     pagecolor="#ffffff"
     bordercolor="#666666"
     borderopacity="1.0"
     inkscape:pageopacity="0.0"
     inkscape:pageshadow="2"
     inkscape:zoom="0.49497475"
     inkscape:cx="-11.934251"
     inkscape:cy="285.44079"
     inkscape:document-units="px"
     inkscape:current-layer="layer1"
     showgrid="false"
     units="px"
     inkscape:window-width="1920"
     inkscape:window-height="1016"
     inkscape:window-x="0"
     inkscape:window-y="27"
     inkscape:window-maximized="1" />
  <metadata
     id="metadata5161">
    <rdf:RDF>
      <cc:Work
         rdf:about="">
        <dc:format>image/svg+xml</dc:format>
        <dc:type
           rdf:resource="http://purl.org/dc/dcmitype/StillImage" />
        <dc:title></dc:title>
      </cc:Work>
    </rdf:RDF>
  </metadata>
  <g
     inkscape:label="Layer 1"
     inkscape:groupmode="layer"
     id="layer1"
     transform="translate(0,-892.36221)">
    <g
       id="g7351"
       transform="translate(636.4286,741.17006)">
      <g
         transform="matrix(1.278458,0,0,1.278458,163.92873,-86.278006)"
         id="g7062">
        <path
           style="fill:#666666;fill-opacity:1;fill-rule:evenodd;stroke:none;stroke-width:0.80514383px;stroke-linecap:butt;stroke-linejoin:miter;stroke-opacity:1"
           d="m -527.31357,291.34138 c 3.18198,-3.53554 6.66992,-7.51611 12.28597,-7.68979 8.57368,-0.26516 10.91843,8.20038 3.0936,11.93242 -5.06609,2.41627 -9.01561,3.35876 -10.78337,2.20972 -1.76777,-1.14905 -5.03814,-4.33103 -4.86135,-5.12653 0.17677,-0.79549 0.26515,-1.32582 0.26515,-1.32582 z"
           id="path5787-8-1"
           inkscape:connector-curvature="0"
           sodipodi:nodetypes="cssscc" />
        <path
           style="color:#000000;font-style:normal;font-variant:normal;font-weight:normal;font-stretch:normal;font-size:medium;line-height:normal;font-family:sans-serif;text-indent:0;text-align:start;text-decoration:none;text-decoration-line:none;text-decoration-style:solid;text-decoration-color:#000000;letter-spacing:normal;word-spacing:normal;text-transform:none;direction:ltr;block-progression:tb;writing-mode:lr-tb;baseline-shift:baseline;text-anchor:start;white-space:normal;clip-rule:nonzero;display:inline;overflow:visible;visibility:visible;opacity:1;isolation:auto;mix-blend-mode:normal;color-interpolation:sRGB;color-interpolation-filters:linearRGB;solid-color:#000000;solid-opacity:1;fill:#666666;fill-opacity:1;fill-rule:nonzero;stroke:none;stroke-width:3.03828955;stroke-linecap:round;stroke-linejoin:round;stroke-miterlimit:4;stroke-dasharray:none;stroke-dashoffset:0;stroke-opacity:1;color-rendering:auto;image-rendering:auto;shape-rendering:auto;text-rendering:auto;enable-background:accumulate"
           d="m -579.16475,201.01214 a 1.8869879,1.8869879 0 0 0 -1.88477,1.88477 l 0,60.03906 a 1.8869879,1.8869879 0 0 0 1.88477,1.88673 l 37.85742,0 0,5.92382 -24.04102,0 0,4.41992 65.75977,0 0,-4.41992 -24.04101,0 0,-5.92382 37.85742,0 a 1.8869879,1.8869879 0 0 0 1.88672,-1.88673 l 0,-60.03906 a 1.8869879,1.8869879 0 0 0 -1.88672,-1.88477 l -93.39258,0 z m 1.88672,3.7715 89.61913,0 0,56.26366 -89.61913,0 0,-56.26366 z"
           id="rect5789-7-7"
           inkscape:connector-curvature="0" />
        <path
           style="color:#000000;font-style:normal;font-variant:normal;font-weight:normal;font-stretch:normal;font-size:medium;line-height:normal;font-family:sans-serif;text-indent:0;text-align:start;text-decoration:none;text-decoration-line:none;text-decoration-style:solid;text-decoration-color:#000000;letter-spacing:normal;word-spacing:normal;text-transform:none;direction:ltr;block-progression:tb;writing-mode:lr-tb;baseline-shift:baseline;text-anchor:start;white-space:normal;clip-rule:nonzero;display:inline;overflow:visible;visibility:visible;opacity:1;isolation:auto;mix-blend-mode:normal;color-interpolation:sRGB;color-interpolation-filters:linearRGB;solid-color:#000000;solid-opacity:1;fill:#000000;fill-opacity:1;fill-rule:evenodd;stroke:none;stroke-width:15;stroke-linecap:round;stroke-linejoin:round;stroke-miterlimit:4;stroke-dasharray:none;stroke-dashoffset:0;stroke-opacity:1;color-rendering:auto;image-rendering:auto;shape-rendering:auto;text-rendering:auto;enable-background:accumulate"
           d="m -550.13101,256.30121 c -0.39965,-0.005 -0.48647,-1.05308 -0.88086,-0.98829 l -46.96483,0 -0.86719,0 -0.007,-0.004 c -1.16276,0.0835 -1.5661,0.21596 -2.75587,0.6621 -2.50585,0.93971 -2.60686,1.56675 -3.15624,2.1211 -0.54938,0.55435 -0.99465,1.08582 -1.4629,1.69531 -0.93649,1.21906 -1.90417,2.72928 -2.97656,4.61914 -2.14475,3.77967 -4.58365,9.0791 -6.75391,15.98439 -2.44725,7.78669 -4.53723,17.6072 -5.39453,29.45117 l 14.5957,0 c 0.82048,-10.23746 2.64286,-18.59464 4.6836,-25.08789 1.05557,-3.35859 2.16417,-6.1691 3.22266,-8.53322 l 0,33.62111 49.1289,0 -0.0312,-53.53517 c -0.0325,-0.002 -0.50258,0.68337 -0.3789,-0.006 z"
           id="path5073-9-2-8-5-5"
           inkscape:connector-curvature="0"
           sodipodi:nodetypes="ccccccscssccsccccc" />
        <path
           style="fill:none;fill-rule:evenodd;stroke:#000000;stroke-width:12;stroke-linecap:round;stroke-linejoin:round;stroke-miterlimit:4;stroke-dasharray:none;stroke-opacity:1"
           d="m -551.21302,261.30794 c 16.74999,33.5 16.24599,41.59527 27.59694,29.1126"
           id="path5785-2-6"
           inkscape:connector-curvature="0"
           sodipodi:nodetypes="cc" />
        <path
           style="color:#000000;font-style:normal;font-variant:normal;font-weight:normal;font-stretch:normal;font-size:medium;line-height:normal;font-family:sans-serif;text-indent:0;text-align:start;text-decoration:none;text-decoration-line:none;text-decoration-style:solid;text-decoration-color:#000000;letter-spacing:normal;word-spacing:normal;text-transform:none;direction:ltr;block-progression:tb;writing-mode:lr-tb;baseline-shift:baseline;text-anchor:start;white-space:normal;clip-rule:nonzero;display:inline;overflow:visible;visibility:visible;opacity:1;isolation:auto;mix-blend-mode:normal;color-interpolation:sRGB;color-interpolation-filters:linearRGB;solid-color:#000000;solid-opacity:1;fill:#666666;fill-opacity:1;fill-rule:evenodd;stroke:none;stroke-width:0.80514383px;stroke-linecap:butt;stroke-linejoin:miter;stroke-miterlimit:4;stroke-dasharray:none;stroke-dashoffset:0;stroke-opacity:1;color-rendering:auto;image-rendering:auto;shape-rendering:auto;text-rendering:auto;enable-background:accumulate"
           d="m -512.75469,273.64124 -0.65741,0.752 c 0,0 2.30442,2.0182 5.02144,4.1918 1.3585,1.0868 2.81999,2.21342 4.1554,3.15112 1.33541,0.93772 2.52461,1.68504 3.43738,2.03041 3.40423,1.28808 7.76455,1.28741 11.44012,-0.45848 0.75109,-0.35678 2.03264,-0.5249 3.34519,-0.47303 1.31252,0.0519 2.66731,0.31257 3.59747,0.69378 0.46507,0.19061 0.82031,0.41469 1.00428,0.60888 0.18397,0.19418 0.20755,0.28999 0.16737,0.44392 -0.0401,0.15394 -0.2269,0.4375 -0.71076,0.77141 -0.48383,0.3339 -1.24105,0.71042 -2.30936,1.09889 -4.28504,1.5582 -7.22213,1.25426 -11.16357,0.81264 -3.94144,-0.44161 -8.83318,-1.02137 -16.75021,0.0461 l 0.13342,0.98973 c 7.81608,-1.05384 12.55799,-0.4835 16.50519,-0.0412 3.94723,0.44227 7.1518,0.75536 11.61721,-0.86843 1.11929,-0.40702 1.94261,-0.80656 2.53497,-1.21533 0.59235,-0.40878 0.97855,-0.83388 1.11101,-1.34148 0.13247,-0.50759 -0.0709,-1.0248 -0.40995,-1.38271 -0.33912,-0.3579 -0.8029,-0.62532 -1.34875,-0.84903 -1.09173,-0.44743 -2.52583,-0.71069 -3.93951,-0.76656 -1.41369,-0.0559 -2.79673,0.0847 -3.81338,0.56764 -3.39549,1.61287 -7.52007,1.61373 -10.65658,0.42694 -0.72242,-0.27334 -1.90865,-0.99552 -3.21662,-1.91395 -1.30795,-0.91845 -2.75607,-2.0336 -4.10447,-3.11232 -2.69679,-2.15744 -4.98988,-4.16269 -4.98988,-4.16269 z"
           id="path5800-7-8"
           inkscape:connector-curvature="0" />
        <rect
           style="opacity:1;fill:#1f7a7a;fill-opacity:1;fill-rule:nonzero;stroke:none;stroke-width:3;stroke-linecap:round;stroke-linejoin:round;stroke-miterlimit:4;stroke-dasharray:none;stroke-dashoffset:0;stroke-opacity:1"
           id="rect6192-2"
           width="4.375"
           height="4.375"
           x="-537.85553"
           y="208.98975" />
        <rect
           style="opacity:1;fill:#000000;fill-opacity:1;fill-rule:nonzero;stroke:none;stroke-width:3;stroke-linecap:round;stroke-linejoin:round;stroke-miterlimit:4;stroke-dasharray:none;stroke-dashoffset:0;stroke-opacity:1"
           id="rect6192-0"
           width="4.375"
           height="4.375"
           x="-537.85553"
           y="214.98981" />
        <rect
           style="opacity:1;fill:#000000;fill-opacity:1;fill-rule:nonzero;stroke:none;stroke-width:3;stroke-linecap:round;stroke-linejoin:round;stroke-miterlimit:4;stroke-dasharray:none;stroke-dashoffset:0;stroke-opacity:1"
           id="rect6192-64"
           width="4.375"
           height="4.375"
           x="-537.85553"
           y="220.98981" />
        <rect
           style="opacity:1;fill:#1f7a7a;fill-opacity:1;fill-rule:nonzero;stroke:none;stroke-width:3;stroke-linecap:round;stroke-linejoin:round;stroke-miterlimit:4;stroke-dasharray:none;stroke-dashoffset:0;stroke-opacity:1"
           id="rect6192-3"
           width="4.375"
           height="4.375"
           x="-537.85553"
           y="226.98981" />
        <rect
           style="opacity:1;fill:#1f7a7a;fill-opacity:1;fill-rule:nonzero;stroke:none;stroke-width:3;stroke-linecap:round;stroke-linejoin:round;stroke-miterlimit:4;stroke-dasharray:none;stroke-dashoffset:0;stroke-opacity:1"
           id="rect6192-0-9"
           width="4.375"
           height="4.375"
           x="-537.10553"
           y="238.48975" />
        <rect
           style="opacity:1;fill:#000000;fill-opacity:1;fill-rule:nonzero;stroke:none;stroke-width:3;stroke-linecap:round;stroke-linejoin:round;stroke-miterlimit:4;stroke-dasharray:none;stroke-dashoffset:0;stroke-opacity:1"
           id="rect6192-64-7"
           width="4.375"
           height="4.375"
           x="-537.10553"
           y="244.48981" />
        <rect
           style="opacity:1;fill:#1f7a7a;fill-opacity:1;fill-rule:nonzero;stroke:none;stroke-width:3;stroke-linecap:round;stroke-linejoin:round;stroke-miterlimit:4;stroke-dasharray:none;stroke-dashoffset:0;stroke-opacity:1"
           id="rect6192-3-3"
           width="4.375"
           height="4.375"
           x="-537.10553"
           y="250.48981" />
        <rect
           style="opacity:1;fill:#1f7a7a;fill-opacity:1;fill-rule:nonzero;stroke:none;stroke-width:3;stroke-linecap:round;stroke-linejoin:round;stroke-miterlimit:4;stroke-dasharray:none;stroke-dashoffset:0;stroke-opacity:1"
           id="rect6192-2-1"
           width="4.375"
           height="4.375"
           x="-498.8555"
           y="238.44977" />
        <rect
           style="opacity:1;fill:#000000;fill-opacity:1;fill-rule:nonzero;stroke:none;stroke-width:3;stroke-linecap:round;stroke-linejoin:round;stroke-miterlimit:4;stroke-dasharray:none;stroke-dashoffset:0;stroke-opacity:1"
           id="rect6192-0-8"
           width="4.375"
           height="4.375"
           x="-498.8555"
           y="244.44977" />
        <rect
           style="opacity:1;fill:#1f7a7a;fill-opacity:1;fill-rule:nonzero;stroke:none;stroke-width:3;stroke-linecap:round;stroke-linejoin:round;stroke-miterlimit:4;stroke-dasharray:none;stroke-dashoffset:0;stroke-opacity:1"
           id="rect6192-64-74"
           width="4.375"
           height="4.375"
           x="-498.8555"
           y="250.44983" />
        <rect
           style="opacity:1;fill:#1f7a7a;fill-opacity:1;fill-rule:nonzero;stroke:none;stroke-width:3;stroke-linecap:round;stroke-linejoin:round;stroke-miterlimit:4;stroke-dasharray:none;stroke-dashoffset:0;stroke-opacity:1"
           id="rect6192-3-3-2-8"
           width="22.000002"
           height="2.7500002"
           x="-525.85553"
           y="238.94977" />
        <rect
           style="opacity:1;fill:#1f7a7a;fill-opacity:1;fill-rule:nonzero;stroke:none;stroke-width:3;stroke-linecap:round;stroke-linejoin:round;stroke-miterlimit:4;stroke-dasharray:none;stroke-dashoffset:0;stroke-opacity:1"
           id="rect6192-3-3-2-8-5"
           width="9.4915218"
           height="2.7500002"
           x="-525.66803"
           y="243.26227" />
        <rect
           style="opacity:1;fill:#1f7a7a;fill-opacity:1;fill-rule:nonzero;stroke:none;stroke-width:3;stroke-linecap:round;stroke-linejoin:round;stroke-miterlimit:4;stroke-dasharray:none;stroke-dashoffset:0;stroke-opacity:1"
           id="rect6192-3-3-2-8-5-1"
           width="9.4915218"
           height="2.7500002"
           x="-515.15961"
           y="243.26227" />
        <rect
           style="opacity:1;fill:#1f7a7a;fill-opacity:1;fill-rule:nonzero;stroke:none;stroke-width:3;stroke-linecap:round;stroke-linejoin:round;stroke-miterlimit:4;stroke-dasharray:none;stroke-dashoffset:0;stroke-opacity:1"
           id="rect6192-3-3-2-8-2"
           width="22.000002"
           height="2.7500002"
           x="-525.79303"
           y="247.57477" />
        <rect
           style="opacity:1;fill:#1f7a7a;fill-opacity:1;fill-rule:nonzero;stroke:none;stroke-width:3;stroke-linecap:round;stroke-linejoin:round;stroke-miterlimit:4;stroke-dasharray:none;stroke-dashoffset:0;stroke-opacity:1"
           id="rect6192-3-3-2-8-5-6"
           width="5.5762639"
           height="2.7500002"
           x="-525.79303"
           y="251.88721" />
        <rect
           style="opacity:1;fill:#1f7a7a;fill-opacity:1;fill-rule:nonzero;stroke:none;stroke-width:3;stroke-linecap:round;stroke-linejoin:round;stroke-miterlimit:4;stroke-dasharray:none;stroke-dashoffset:0;stroke-opacity:1"
           id="rect6192-3-3-2-8-5-1-4"
           width="13.201264"
           height="2.7500002"
           x="-518.61926"
           y="251.88721" />
        <rect
           style="opacity:1;fill:#1f7a7a;fill-opacity:1;fill-rule:nonzero;stroke:none;stroke-width:3;stroke-linecap:round;stroke-linejoin:round;stroke-miterlimit:4;stroke-dasharray:none;stroke-dashoffset:0;stroke-opacity:1"
           id="rect6192-3-3-2-8-56"
           width="27.983002"
           height="2.7500002"
           x="-573.1261"
           y="239.93451" />
        <rect
           style="opacity:1;fill:#1f7a7a;fill-opacity:1;fill-rule:nonzero;stroke:none;stroke-width:3;stroke-linecap:round;stroke-linejoin:round;stroke-miterlimit:4;stroke-dasharray:none;stroke-dashoffset:0;stroke-opacity:1"
           id="rect6192-3-3-2-8-5-5"
           width="12.072784"
           height="2.7500002"
           x="-572.88757"
           y="244.24701" />
        <rect
           style="opacity:1;fill:#1f7a7a;fill-opacity:1;fill-rule:nonzero;stroke:none;stroke-width:3;stroke-linecap:round;stroke-linejoin:round;stroke-miterlimit:4;stroke-dasharray:none;stroke-dashoffset:0;stroke-opacity:1"
           id="rect6192-3-3-2-8-5-1-2"
           width="12.072784"
           height="2.7500002"
           x="-559.5213"
           y="244.24701" />
        <rect
           style="opacity:1;fill:#1f7a7a;fill-opacity:1;fill-rule:nonzero;stroke:none;stroke-width:3;stroke-linecap:round;stroke-linejoin:round;stroke-miterlimit:4;stroke-dasharray:none;stroke-dashoffset:0;stroke-opacity:1"
           id="rect6192-3-3-2-8-2-6"
           width="27.983002"
           height="2.7500002"
           x="-573.04657"
           y="248.55945" />
        <rect
           style="opacity:1;fill:#1f7a7a;fill-opacity:1;fill-rule:nonzero;stroke:none;stroke-width:3;stroke-linecap:round;stroke-linejoin:round;stroke-miterlimit:4;stroke-dasharray:none;stroke-dashoffset:0;stroke-opacity:1"
           id="rect6192-3-3-2-8-5-6-1"
           width="7.0927544"
           height="2.7500002"
           x="-573.04651"
           y="252.87195" />
        <rect
           style="opacity:1;fill:#1f7a7a;fill-opacity:1;fill-rule:nonzero;stroke:none;stroke-width:3;stroke-linecap:round;stroke-linejoin:round;stroke-miterlimit:4;stroke-dasharray:none;stroke-dashoffset:0;stroke-opacity:1"
           id="rect6192-3-3-2-8-5-1-4-3"
           width="16.791409"
           height="2.7500002"
           x="-563.92188"
           y="252.87195" />
        <rect
           style="opacity:1;fill:#1f7a7a;fill-opacity:1;fill-rule:nonzero;stroke:none;stroke-width:3;stroke-linecap:round;stroke-linejoin:round;stroke-miterlimit:4;stroke-dasharray:none;stroke-dashoffset:0;stroke-opacity:1"
           id="rect6192-3-3-2-8-1"
           width="22.000002"
           height="2.7500002"
           x="-563.75104"
           y="208.80951" />
        <rect
           style="opacity:1;fill:#1f7a7a;fill-opacity:1;fill-rule:nonzero;stroke:none;stroke-width:3;stroke-linecap:round;stroke-linejoin:round;stroke-miterlimit:4;stroke-dasharray:none;stroke-dashoffset:0;stroke-opacity:1"
           id="rect6192-3-3-2-8-5-2"
           width="9.4915218"
           height="2.7500002"
           x="-563.56354"
           y="213.12201" />
        <rect
           style="opacity:1;fill:#1f7a7a;fill-opacity:1;fill-rule:nonzero;stroke:none;stroke-width:3;stroke-linecap:round;stroke-linejoin:round;stroke-miterlimit:4;stroke-dasharray:none;stroke-dashoffset:0;stroke-opacity:1"
           id="rect6192-3-3-2-8-5-1-6"
           width="9.4915218"
           height="2.7500002"
           x="-553.05511"
           y="213.12201" />
        <rect
           style="opacity:1;fill:#1f7a7a;fill-opacity:1;fill-rule:nonzero;stroke:none;stroke-width:3;stroke-linecap:round;stroke-linejoin:round;stroke-miterlimit:4;stroke-dasharray:none;stroke-dashoffset:0;stroke-opacity:1"
           id="rect6192-3-3-2-8-2-9"
           width="22.000002"
           height="2.7500002"
           x="-563.68854"
           y="217.43445" />
        <rect
           style="opacity:1;fill:#1f7a7a;fill-opacity:1;fill-rule:nonzero;stroke:none;stroke-width:3;stroke-linecap:round;stroke-linejoin:round;stroke-miterlimit:4;stroke-dasharray:none;stroke-dashoffset:0;stroke-opacity:1"
           id="rect6192-3-3-2-8-5-6-4"
           width="5.5762639"
           height="2.7500002"
           x="-563.68854"
           y="221.74695" />
        <rect
           style="opacity:1;fill:#1f7a7a;fill-opacity:1;fill-rule:nonzero;stroke:none;stroke-width:3;stroke-linecap:round;stroke-linejoin:round;stroke-miterlimit:4;stroke-dasharray:none;stroke-dashoffset:0;stroke-opacity:1"
           id="rect6192-3-3-2-8-5-1-4-6"
           width="13.201264"
           height="2.7500002"
           x="-556.51477"
           y="221.74695" />
        <rect
           style="opacity:1;fill:#1f7a7a;fill-opacity:1;fill-rule:nonzero;stroke:none;stroke-width:3;stroke-linecap:round;stroke-linejoin:round;stroke-miterlimit:4;stroke-dasharray:none;stroke-dashoffset:0;stroke-opacity:1"
           id="rect6192-3-3-2-8-2-9-2"
           width="22.000002"
           height="2.7500002"
           x="-563.21979"
           y="226.1532" />
        <rect
           style="opacity:1;fill:#1f7a7a;fill-opacity:1;fill-rule:nonzero;stroke:none;stroke-width:3;stroke-linecap:round;stroke-linejoin:round;stroke-miterlimit:4;stroke-dasharray:none;stroke-dashoffset:0;stroke-opacity:1"
           id="rect6192-3-3-2-8-2-9-2-6"
           width="22.000002"
           height="2.7500002"
           x="-571.09479"
           y="230.65326" />
        <ellipse
           style="opacity:1;fill:#000000;fill-opacity:1;fill-rule:nonzero;stroke:none;stroke-width:2;stroke-linecap:round;stroke-linejoin:round;stroke-miterlimit:4;stroke-dasharray:none;stroke-dashoffset:0;stroke-opacity:1"
           id="path5071-73-2-9-0-9"
           cx="-575.09125"
           cy="227.20691"
           rx="22.414293"
           ry="22.602047" />
        <g
           id="g6940"
           transform="matrix(0.04374305,0,0,0.04374305,-492.16083,208.26677)">
          <path
             id="path6365"
             d="m -405.71429,444.94677 c -199.124,0 -360.547,-108.109 -360.547,-241.468 0,-133.359995 161.423,-241.468985 360.547,-241.468985 199.125,0 360.547003,108.10899 360.547003,241.468985 0,133.359 -161.422003,241.468 -360.547003,241.468 z m 55.188,-388.530985 c -151.352,0 -274.047,73.907985 -274.047,165.077985 0,91.17 122.695,165.078 274.047,165.078 151.351,0 263.046003,-50.529 263.046003,-165.078 0,-114.513 -111.695003,-165.077985 -263.046003,-165.077985 z"
             style="fill:url(#gradientFill);fill-rule:evenodd"
             inkscape:connector-curvature="0" />
          <path
             id="path6367"
             d="m -217.16729,336.00977 c 0,0 21.822,6.585 34.5,13 4.399,2.226 12.01,6.668 17.5,12.5 5.378,5.712 8,11.5 8,11.5 l 86.000003,145 -139.000003,0.062 -65,-122.062 c 0,0 -13.31,-22.869 -21.5,-29.5 -6.832,-5.531 -9.745,-7.5 -16.5,-7.5 -4.702,0 -33.026,0 -33.026,0 l 0.026,158.974 -123,0.052 0,-406.088 247,0 c 0,0 112.5,2.029 112.5,109.062 0,107.033 -107.5,115 -107.5,115 z m -53.5,-135.976 -74.463,-0.048 -0.037,69.05 74.5,-0.024 c 0,0 34.5,-0.107 34.5,-35.125 0,-35.722 -34.5,-33.853 -34.5,-33.853 z"
             style="fill:#1f7a7a"
             inkscape:connector-curvature="0" />
        </g>
      </g>
      <rect
         y="152.69109"
         x="-634.94403"
         height="157.00214"
         width="207.03087"
         id="rect7152-3-7-6"
         style="opacity:1;fill:none;fill-opacity:1;fill-rule:nonzero;stroke:#666666;stroke-width:0.29785961;stroke-linecap:round;stroke-linejoin:round;stroke-miterlimit:4;stroke-dasharray:none;stroke-dashoffset:0;stroke-opacity:1" />
    </g>
  </g>
</svg>
