<?xml version="1.0" encoding="UTF-8" standalone="no"?>
<svg
   xmlns:dc="http://purl.org/dc/elements/1.1/"
   xmlns:cc="http://creativecommons.org/ns#"
   xmlns:rdf="http://www.w3.org/1999/02/22-rdf-syntax-ns#"
   xmlns:svg="http://www.w3.org/2000/svg"
   xmlns="http://www.w3.org/2000/svg"
   xmlns:xlink="http://www.w3.org/1999/xlink"
   id="svg6418"
   version="1.1"
   viewBox="0 0 67.794281 79.592155"
   height="79.592155mm"
   width="67.794281mm">
  <defs
     id="defs6412">
    <linearGradient
       y2="593.78699"
       x2="590.86261"
       y1="3.6658268"
       x1="0.7414425"
       spreadMethod="pad"
       gradientTransform="matrix(0.07118128,0,0,0.04767211,40.93252,30.698926)"
       gradientUnits="userSpaceOnUse"
       id="linearGradient7835"
       xlink:href="#gradientFill-1-6-0-5" />
    <linearGradient
       spreadMethod="pad"
       gradientUnits="userSpaceOnUse"
       y2="593.78699"
       y1="3.6658268"
       x2="590.86261"
       x1="0.7414425"
       id="gradientFill-1-6-0-5"
       gradientTransform="matrix(0.05528148,0,0,0.03702356,1046.104,182.42996)">
      <stop
         id="stop6361-9-4-2-9"
         stop-opacity="1"
         stop-color="rgb(203,206,208)"
         offset="0" />
      <stop
         id="stop6363-0-9-8-7"
         stop-opacity="1"
         stop-color="rgb(132,131,139)"
         offset="1" />
    </linearGradient>
  </defs>
  <metadata
     id="metadata6415">
    <rdf:RDF>
      <cc:Work
         rdf:about="">
        <dc:format>image/svg+xml</dc:format>
        <dc:type
           rdf:resource="http://purl.org/dc/dcmitype/StillImage" />
        <dc:title></dc:title>
      </cc:Work>
    </rdf:RDF>
  </metadata>
  <g
     transform="translate(-28.09097,-18.322977)"
     id="layer1">
    <path
       style="fill:#ffffff;fill-opacity:1;fill-rule:evenodd;stroke:none;stroke-width:0.5205766px;stroke-linecap:butt;stroke-linejoin:miter;stroke-opacity:1"
       d="m 31.360705,20.192373 c -0.792838,0 -1.401079,0.607201 -1.401079,1.400091 V 66.780909 94.64498 c 0,0.792838 0.608189,1.40108 1.401079,1.40108 h 33.390098 27.863083 c 0.792942,1.04e-4 1.402069,-0.60819 1.402069,-1.40108 V 69.880005 34.779711 C 89.103013,29.866873 84.975049,25.740315 79.427628,20.192373 Z"
       id="path25004-3-7-1-84-28-8-7-6-4-7-4-3-9-9-1" />
    <path
       id="path24279-8-1-5-25-2-4-3-1-7-8-3-8-2-3-0"
       d="m 31.36133,18.323024 v 0 c -1.796145,0 -3.270366,1.473493 -3.270366,3.269638 v 45.188861 3.849872 24.013418 h 5.2e-4 c 0,1.796094 1.473492,3.270315 3.269638,3.270315 h 37.281251 23.972554 v 0 c 1.796094,0 3.270315,-1.473492 3.270315,-3.269638 V 70.631395 69.880463 34.006332 L 95.472164,33.593254 94.016996,32.138087 82.070908,20.191999 80.201934,18.322972 H 31.361122 Z m 0,1.869703 h 48.066923 v 14.587494 h 14.588223 5.2e-4 v 35.100294 h -5.2e-4 v 24.765027 c 0,0.79289 -0.608502,1.400664 -1.401393,1.400612 H 64.751844 v 0 H 31.36133 c -0.79289,0 -1.400663,-0.608502 -1.400663,-1.401341 v -27.86329 h -5.21e-4 V 21.592662 c 0,-0.79289 0.608502,-1.400663 1.401392,-1.400663 z m 49.935949,1.868975 10.850222,10.849545 H 81.297279 Z"
       style="color:#000000;font-style:normal;font-variant:normal;font-weight:normal;font-stretch:normal;font-size:medium;line-height:normal;font-family:sans-serif;text-indent:0;text-align:start;text-decoration:none;text-decoration-line:none;text-decoration-style:solid;text-decoration-color:#000000;letter-spacing:normal;word-spacing:normal;text-transform:none;writing-mode:lr-tb;direction:ltr;baseline-shift:baseline;text-anchor:start;white-space:normal;clip-rule:nonzero;display:inline;overflow:visible;visibility:visible;opacity:1;isolation:auto;mix-blend-mode:normal;color-interpolation:sRGB;color-interpolation-filters:linearRGB;solid-color:#000000;solid-opacity:1;fill:#000000;fill-opacity:1;fill-rule:nonzero;stroke:none;stroke-width:0.83292258;stroke-linecap:round;stroke-linejoin:round;stroke-miterlimit:4;stroke-dasharray:none;stroke-dashoffset:0;stroke-opacity:1;color-rendering:auto;image-rendering:auto;shape-rendering:auto;text-rendering:auto;enable-background:accumulate" />
    <g
       aria-label="&lt;&lt;&gt;&gt;="
       transform="matrix(2.274343,0,0,2.274343,-2437.16,1485.7776)"
       style="font-style:normal;font-variant:normal;font-weight:normal;font-stretch:normal;font-size:10.23738861px;line-height:0%;font-family:Lato;-inkscape-font-specification:'Lato, Normal';text-align:center;letter-spacing:-1.26695526px;word-spacing:-0.34242037px;writing-mode:lr-tb;text-anchor:middle;fill:#1f7a7a;fill-opacity:1;stroke:none;stroke-width:1px;stroke-linecap:butt;stroke-linejoin:miter;stroke-opacity:1"
       id="text8959-9-6-0-6">
      <path
         d="m 1086.9818,-617.35241 3.9567,-2.0526 0,0.65008 q 0,0.087 -0.041,0.15356 -0.041,0.0614 -0.1434,0.11261 l -2.2982,1.16706 q -0.1024,0.0563 -0.2202,0.0972 -0.1126,0.0358 -0.2405,0.0666 0.1279,0.0256 0.2405,0.0665 0.1178,0.0409 0.2202,0.0921 l 2.2982,1.16194 q 0.1024,0.0512 0.1434,0.11773 0.041,0.0665 0.041,0.14844 l 0,0.6552 -3.9567,-2.05772 z"
         id="path9016" />
      <path
         d="m 1091.6533,-617.35241 3.9568,-2.0526 0,0.65008 q 0,0.087 -0.041,0.15356 -0.041,0.0614 -0.1433,0.11261 l -2.2983,1.16706 q -0.1024,0.0563 -0.2201,0.0972 -0.1126,0.0358 -0.2406,0.0666 0.128,0.0256 0.2406,0.0665 0.1177,0.0409 0.2201,0.0921 l 2.2983,1.16194 q 0.1024,0.0512 0.1433,0.11773 0.041,0.0665 0.041,0.14844 l 0,0.6552 -3.9568,-2.05772 z"
         id="path9018" />
      <path
         d="m 1096.6473,-614.91591 0,-0.6552 q 0,-0.0819 0.041,-0.14844 0.041,-0.0665 0.1433,-0.11773 l 2.2983,-1.16194 q 0.1023,-0.0512 0.215,-0.0921 0.1126,-0.0409 0.2405,-0.0665 -0.1279,-0.0307 -0.2405,-0.0666 -0.1127,-0.0409 -0.215,-0.0972 l -2.2983,-1.16706 q -0.1024,-0.0512 -0.1433,-0.11261 -0.041,-0.0666 -0.041,-0.15356 l 0,-0.65008 3.9568,2.0526 0,0.37878 z"
         id="path9020" />
      <path
         d="m 1101.3188,-614.91591 0,-0.6552 q 0,-0.0819 0.041,-0.14844 0.041,-0.0665 0.1433,-0.11773 l 2.2983,-1.16194 q 0.1024,-0.0512 0.215,-0.0921 0.1126,-0.0409 0.2406,-0.0665 -0.128,-0.0307 -0.2406,-0.0666 -0.1126,-0.0409 -0.215,-0.0972 l -2.2983,-1.16706 q -0.1024,-0.0512 -0.1433,-0.11261 -0.041,-0.0666 -0.041,-0.15356 l 0,-0.65008 3.9568,2.0526 0,0.37878 z"
         id="path9022" />
      <path
         d="m 1105.6065,-616.65627 4.402,0 0,0.69102 -4.402,0 z m 0,-1.71476 4.402,0 0,0.69102 -4.402,0 z"
         id="path9024" />
    </g>
    <g
       id="g18546">
      <path
         style="fill:url(#linearGradient7835);fill-rule:evenodd"
         d="m 61.988122,59.005992 c -11.599483,0 -21.002809,-6.297599 -21.002809,-14.066169 0,-7.76857 9.403326,-14.066168 21.002809,-14.066168 11.599613,0 21.00281,6.297598 21.00281,14.066168 0,7.76857 -9.403197,14.066169 -21.00281,14.066169 z m 3.214919,-22.632931 c -8.816689,0 -15.963985,4.305271 -15.963985,9.616169 0,5.310899 7.147296,9.616298 15.963985,9.616298 8.81656,0 15.323009,-2.943489 15.323009,-9.616298 0,-6.67062 -6.506449,-9.616169 -15.323009,-9.616169 z"
         id="path6365-3-6-1-9" />
      <path
         style="fill:#1f7a7a"
         d="m 72.971482,52.660108 c 0,0 1.271263,0.383581 2.00971,0.757247 0.256235,0.129662 0.69969,0.388473 1.019405,0.728146 0.313277,0.332849 0.465988,0.669946 0.465988,0.669946 l 5.009725,8.446629 -8.09704,0 -3.786362,-7.11047 c 0,0 -0.775402,-1.332167 -1.252464,-1.718452 -0.398002,-0.322161 -0.567709,-0.436888 -0.961205,-0.436888 -0.273875,0 -1.923826,0 -1.923826,0 l 0,9.260659 -7.165064,0 0,-23.655684 14.388329,0 c 0,0 6.553447,0.118461 6.553447,6.353095 0,6.23502 -6.262188,6.699076 -6.262188,6.699076 z m -3.116544,-7.920895 -4.33759,0 0,4.022382 4.339778,0 c 0,0 2.009711,0 2.009711,-2.04615 0,-2.080915 -2.009711,-1.971983 -2.009711,-1.971983 z"
         id="path6367-6-3-2-4" />
    </g>
  </g>
</svg>
