<?xml version="1.0" encoding="UTF-8" standalone="no"?>
<svg
   xmlns:dc="http://purl.org/dc/elements/1.1/"
   xmlns:cc="http://creativecommons.org/ns#"
   xmlns:rdf="http://www.w3.org/1999/02/22-rdf-syntax-ns#"
   xmlns:svg="http://www.w3.org/2000/svg"
   xmlns="http://www.w3.org/2000/svg"
   xmlns:sodipodi="http://sodipodi.sourceforge.net/DTD/sodipodi-0.dtd"
   xmlns:inkscape="http://www.inkscape.org/namespaces/inkscape"
   version="1.1"
   id="Bug"
   x="0px"
   y="0px"
   viewBox="0 0 721.09399 721.06201"
   enable-background="new 0 0 724 561"
   xml:space="preserve"
   sodipodi:docname="cran.svg"
   width="721.09399"
   height="721.06201"
   inkscape:version="0.92.2 5c3e80d, 2017-08-06"><metadata
     id="metadata3757"><rdf:RDF><cc:Work
         rdf:about=""><dc:format>image/svg+xml</dc:format><dc:type
           rdf:resource="http://purl.org/dc/dcmitype/StillImage" /><dc:title></dc:title></cc:Work></rdf:RDF></metadata><defs
     id="defs3755" /><sodipodi:namedview
     pagecolor="#ffffff"
     bordercolor="#666666"
     borderopacity="1"
     objecttolerance="10"
     gridtolerance="10"
     guidetolerance="10"
     inkscape:pageopacity="0"
     inkscape:pageshadow="2"
     inkscape:window-width="1364"
     inkscape:window-height="724"
     id="namedview3753"
     showgrid="false"
     fit-margin-top="82.5"
     fit-margin-bottom="82.5"
     fit-margin-left="0"
     fit-margin-right="0"
     inkscape:zoom="0.83600713"
     inkscape:cx="424.49059"
     inkscape:cy="559.91636"
     inkscape:window-x="0"
     inkscape:window-y="22"
     inkscape:window-maximized="0"
     inkscape:current-layer="Bug" /><path
     d="M 360.547,565.437 C 161.423,565.437 0,457.328 0,323.969 0,190.609 161.423,82.5 360.547,82.5 c 199.125,0 360.547,108.109 360.547,241.469 0,133.359 -161.422,241.468 -360.547,241.468 z m 55.188,-388.531 c -151.352,0 -274.047,73.908 -274.047,165.078 0,91.17 122.695,165.078 274.047,165.078 151.351,0 263.046,-50.529 263.046,-165.078 0,-114.513 -111.695,-165.078 -263.046,-165.078 z"
     id="path3748"
     inkscape:connector-curvature="0" /><path
     d="m 549.094,456.5 c 0,0 21.822,6.585 34.5,13 4.399,2.226 12.01,6.668 17.5,12.5 5.378,5.712 8,11.5 8,11.5 l 86,145 -139,0.062 -65,-122.062 c 0,0 -13.31,-22.869 -21.5,-29.5 -6.832,-5.531 -9.745,-7.5 -16.5,-7.5 -4.702,0 -33.026,0 -33.026,0 l 0.026,158.974 -123,0.052 V 232.438 h 247 c 0,0 112.5,2.029 112.5,109.062 0,107.033 -107.5,115 -107.5,115 z m -53.5,-135.976 -74.463,-0.048 -0.037,69.05 74.5,-0.024 c 0,0 34.5,-0.107 34.5,-35.125 0,-35.722 -34.5,-33.853 -34.5,-33.853 z"
     id="path3750"
     inkscape:connector-curvature="0" /></svg>