<svg version="1.0" xmlns="http://www.w3.org/2000/svg" width="800.000000pt" height="198.000000pt" viewBox="0 0 800.000000 198.000000" preserveAspectRatio="xMidYMid meet">
<g transform="translate(0.000000,198.000000) scale(0.100000,-0.100000)" fill="#000000" stroke="none">
<path d="M316 1621 c-106 -124 -129 -298 -61 -450 28 -61 65 -108 52 -66 -30
98 -36 258 -13 365 8 36 26 94 40 129 14 36 25 65 23 66 -1 1 -20 -19 -41 -44z"/>
<path d="M1236 1635 c49 -117 66 -199 67 -315 1 -79 -4 -134 -16 -175 -9 -32
-15 -61 -12 -63 2 -2 15 16 29 40 100 170 83 371 -43 508 l-42 45 17 -40z"/>
<path d="M450 1563 c-59 -67 -75 -116 -75 -228 0 -95 2 -103 34 -163 19 -34
35 -61 37 -60 1 2 -4 28 -12 58 -29 111 -14 268 36 385 11 25 18 45 16 45 -2
0 -19 -17 -36 -37z"/>
<path d="M1110 1563 c51 -106 69 -304 37 -406 -21 -67 2 -46 39 36 40 87 40
195 0 283 -15 34 -43 77 -62 95 l-34 33 20 -41z"/>
<path d="M535 1466 c-59 -78 -70 -188 -26 -275 26 -51 32 -52 19 -4 -16 60 -5
210 20 266 11 26 19 47 17 47 -2 0 -16 -15 -30 -34z"/>
<path d="M3862 1489 c-71 -12 -170 -59 -220 -104 -121 -108 -133 -315 -27
-433 52 -58 116 -94 213 -121 94 -26 175 -63 207 -95 35 -35 35 -103 0 -145
-30 -34 -111 -58 -166 -47 -51 9 -131 49 -173 86 -31 28 -39 31 -50 19 -7 -8
-46 -49 -87 -92 l-74 -79 30 -25 c41 -34 158 -89 230 -108 35 -10 100 -16 155
-16 262 0 416 122 428 337 10 184 -67 273 -298 349 -116 38 -198 81 -212 110
-14 32 -3 87 25 113 68 64 194 53 306 -27 l28 -20 86 87 87 87 -48 32 c-123
84 -284 118 -440 92z"/>
<path d="M1040 1441 c26 -68 34 -143 22 -216 -6 -33 -8 -62 -6 -64 2 -2 13 16
24 40 38 85 19 221 -38 273 l-21 18 19 -51z"/>
<path d="M720 1448 c-57 -30 -82 -65 -88 -126 -9 -100 56 -172 158 -172 98 0
160 60 160 154 0 66 -32 120 -85 146 -53 26 -90 25 -145 -2z"/>
<path d="M1903 1153 c-148 -175 -353 -419 -457 -543 -104 -124 -196 -233 -204
-242 -14 -17 -6 -18 155 -18 l170 0 88 110 88 110 216 -2 215 -3 -3 -107 -3
-108 131 0 131 0 0 560 0 560 -130 0 -129 0 -268 -317z m269 -190 c-2 -93 -5
-169 -6 -169 -5 -6 -246 -8 -246 -3 0 18 237 339 250 339 3 0 4 -75 2 -167z"/>
<path d="M2562 913 l3 -558 133 -3 132 -3 0 226 0 226 47 -3 46 -3 116 -212
c64 -117 121 -217 127 -223 7 -7 66 -10 162 -8 l151 3 -43 70 c-24 39 -89 144
-145 234 -55 89 -101 165 -101 167 0 2 24 15 53 30 67 34 112 77 145 139 22
43 26 63 27 140 0 79 -3 97 -28 147 -47 97 -138 157 -267 177 -36 6 -176 11
-313 11 l-247 0 2 -557z m522 323 c42 -21 76 -68 76 -104 0 -44 -31 -92 -74
-114 -34 -18 -59 -22 -149 -22 l-107 -1 -1 125 c-1 69 -1 129 0 133 1 5 49 7
109 5 80 -2 117 -8 146 -22z"/>
<path d="M4880 1115 c-30 -14 -74 -44 -96 -66 l-41 -41 -7 56 -7 56 -65 0 -64
0 0 -370 0 -370 75 0 75 0 0 235 c0 267 6 292 81 359 46 42 72 50 145 44 61
-5 93 -28 125 -90 17 -34 19 -61 19 -293 l0 -255 76 0 75 0 -3 283 c-3 274 -4
283 -27 327 -52 100 -117 141 -231 147 -65 4 -82 1 -130 -22z"/>
<path d="M5713 1125 c-102 -31 -189 -108 -240 -214 -25 -50 -28 -67 -28 -161
0 -99 2 -110 32 -171 78 -159 254 -247 433 -218 139 22 236 93 297 217 36 71
38 82 38 166 0 105 -18 163 -73 240 -41 56 -133 120 -206 141 -61 18 -196 18
-253 0z m246 -131 c91 -46 151 -165 138 -276 -13 -109 -82 -201 -170 -228
-172 -52 -323 54 -335 235 -8 125 44 226 140 274 64 31 158 29 227 -5z"/>
<path d="M7330 1117 c-68 -23 -160 -72 -160 -85 0 -5 17 -25 38 -45 l38 -37
70 36 c96 49 179 56 243 22 57 -30 79 -61 87 -119 l6 -46 -47 -6 c-26 -4 -72
-7 -102 -7 -62 0 -185 -24 -237 -45 -41 -17 -102 -68 -118 -99 -35 -64 -26
-176 18 -233 14 -18 49 -46 77 -61 47 -24 62 -27 152 -27 113 0 158 16 228 83
l37 36 0 -52 0 -52 68 0 67 0 -5 277 -5 278 -28 58 c-16 31 -44 69 -62 83 -84
64 -246 82 -365 41z m320 -425 c0 -89 -41 -160 -114 -197 -83 -42 -192 -31
-241 25 -30 33 -27 101 5 135 51 55 111 72 258 74 l92 1 0 -38z"/>
<path d="M6310 1115 c0 -3 65 -164 145 -359 80 -195 145 -359 145 -365 0 -7
30 -11 88 -11 l87 1 147 367 146 367 -70 3 c-39 2 -75 -1 -80 -6 -7 -7 -198
-501 -215 -554 -3 -10 -9 -18 -13 -18 -4 0 -38 82 -75 183 -37 100 -86 230
-108 290 l-42 107 -77 0 c-43 0 -78 -2 -78 -5z"/>
<path d="M686 1090 c-63 -19 -66 -27 -66 -201 0 -143 3 -169 30 -276 61 -236
70 -253 144 -253 56 0 70 13 95 90 55 174 72 263 78 420 5 148 5 156 -16 182
-12 15 -39 32 -59 38 -44 12 -165 12 -206 0z"/>
</g>
</svg>
