<svg version="1.1" xmlns="http://www.w3.org/2000/svg" xmlns:xlink="http://www.w3.org/1999/xlink"
	 x="0px" y="0px" width="85px" height="70px" viewBox="0 0 85 70" style="overflow:visible;enable-background:new 0 0 85 70;"
	 xml:space="preserve">
<defs>
</defs>
<path d="M62.4,65.2V42.4c0-4.8-2-7.2-5.9-7.2c-3.9,0-5.9,2.4-5.9,7.2v22.8H38.9V42.4
	c0-4.8-1.9-7.2-5.8-7.2c-3.9,0-5.9,2.4-5.9,7.2v22.8H15.6V41.1c0-5,1.7-8.7,5.2-11.3c3-2.3,7.2-3.4,12.3-3.4c5.3,0,9.1,1.3,11.6,4
	c2.1-2.7,6-4,11.7-4c5.2,0,9.3,1.1,12.3,3.4c3.5,2.6,5.2,6.3,5.2,11.3v24.2H62.4z"/>
<path style="fill:#666666;" d="M16.7,32.2c-0.4,2-0.8,4-1.2,6c11,3.7,21.4,0.1,26.9-9.5C34.3,23.1,26.8,28.8,16.7,32.2"/>
<path d="M16.7,30.7c-0.4,2.3-0.7,4.5-1.1,6.8c10.5,3.6,20.8,0.5,26.3-8.9
	C34.9,20.5,27.1,27.2,16.7,30.7"/>
<path d="M29.2,33.4c-4.8-1-10,1.5-13.6,4.1c-2.3-16.8,8.1-16.4,21.7-12.2c-0.9,4.1-2.4,9.6-5,12.9
	C32.2,36,31.2,34.5,29.2,33.4"/>
<path d="M1.2,30.7c17.6-10.6,27.5-12.6,48-14.7C25.4,34.8,24.8,30.7,1.2,30.7"/>
<line style="fill:none;stroke:#666666;stroke-width:0.5;" x1="49.2" y1="16.1" x2="30.3" y2="29.8"/>
<line style="fill:none;stroke:#999999;stroke-width:0.5;" x1="1.2" y1="30.7" x2="30.3" y2="29.8"/>
<path style="fill:none;stroke:#666666;stroke-width:0.5;" d="M24.9,23.6c-5,1.4-21.4,5-21.6,7.1c-0.5,3.9-0.1,10.1-0.1,10.1"/>
<path style="fill:#666666;" d="M4.7,55.7c-1.8-4.5-4-9.5-1.4-15.7C5,45.8,4.7,50.2,4.7,55.7"/>
</svg>
