<?xml version="1.0" encoding="UTF-8" standalone="no"?>
<svg
   xmlns:dc="http://purl.org/dc/elements/1.1/"
   xmlns:cc="http://creativecommons.org/ns#"
   xmlns:rdf="http://www.w3.org/1999/02/22-rdf-syntax-ns#"
   xmlns:svg="http://www.w3.org/2000/svg"
   xmlns="http://www.w3.org/2000/svg"
   version="1.1"
   id="svg5156"
   viewBox="0 0 210 160"
   height="160"
   width="210">
  <defs
     id="defs5158">
    <linearGradient
       spreadMethod="pad"
       gradientUnits="userSpaceOnUse"
       y2="593.78698"
       y1="3.6658269"
       x2="590.86259"
       x1="0.74144253"
       id="gradientFill"
       gradientTransform="matrix(1.2219423,0,0,0.81836924,-767.16729,-40.990215)">
      <stop
         id="stop6361"
         stop-opacity="1"
         stop-color="rgb(203,206,208)"
         offset="0" />
      <stop
         id="stop6363"
         stop-opacity="1"
         stop-color="rgb(132,131,139)"
         offset="1" />
    </linearGradient>
    <linearGradient
       spreadMethod="pad"
       gradientUnits="userSpaceOnUse"
       y2="593.78699"
       y1="3.6658268"
       x2="590.86261"
       x1="0.7414425"
       id="gradientFill-0"
       gradientTransform="matrix(1.2219423,0,0,0.81836924,-767.16729,-40.990215)">
      <stop
         id="stop6361-6"
         stop-opacity="1"
         stop-color="rgb(203,206,208)"
         offset="0" />
      <stop
         id="stop6363-2"
         stop-opacity="1"
         stop-color="rgb(132,131,139)"
         offset="1" />
    </linearGradient>
  </defs>
  <metadata
     id="metadata5161">
    <rdf:RDF>
      <cc:Work
         rdf:about="">
        <dc:format>image/svg+xml</dc:format>
        <dc:type
           rdf:resource="http://purl.org/dc/dcmitype/StillImage" />
        <dc:title></dc:title>
      </cc:Work>
    </rdf:RDF>
  </metadata>
  <g
     transform="translate(0,-892.36221)"
     id="layer1">
    <g
       id="g485008"
       transform="translate(-1226.2381,233.23712)">
      <path
         style="opacity:1;fill:#cccccc;fill-opacity:1;fill-rule:nonzero;stroke:none;stroke-width:2;stroke-linecap:round;stroke-linejoin:round;stroke-miterlimit:4;stroke-dasharray:none;stroke-dashoffset:0;stroke-opacity:1"
         d="m 1432.3418,676.47852 c -0.3606,-0.0363 -0.654,0.25019 -0.6543,0.64062 l 0,5.36914 a 10.835845,10.926612 0 0 0 -6.4004,-2.125 10.835845,10.926612 0 0 0 -10.8359,10.92774 10.835845,10.926612 0 0 0 10.8359,10.92578 10.835845,10.926612 0 0 0 6.5039,-2.20118 c 0.1148,0.21736 0.3139,0.38394 0.5508,0.41211 l 2.4121,0.28516 0,-1.41992 -1.7578,-0.20508 0,-0.13281 a 10.835845,10.926612 0 0 0 1.7578,-2.38867 l 0,-10.57813 a 10.835845,10.926612 0 0 0 -1.7578,-2.36914 l 0,-5.6582 1.7578,0.17968 0,-1.41796 -2.4121,-0.24414 z"
         transform="translate(-1.2207031e-4,0)"
         id="ellipse14478-7-96" />
      <path
         style="fill:#000000;fill-opacity:1;fill-rule:evenodd;stroke:none;stroke-width:0.80514383px;stroke-linecap:butt;stroke-linejoin:miter;stroke-opacity:1"
         d="m 1272.4716,718.80244 c -0.589,-0.0592 -1.0659,0.40908 -1.0664,1.04688 l 0,8.77343 a 17.701117,17.849392 0 0 0 -10.459,-3.47265 17.701117,17.849392 0 0 0 -17.6992,17.84961 17.701117,17.849392 0 0 0 17.6992,17.84961 17.701117,17.849392 0 0 0 10.6289,-3.59571 c 0.1871,0.35547 0.51,0.62784 0.8965,0.67383 l 21.625,2.55078 0,3.66602 -13.7773,-1.64649 0,2.71876 30.4902,3.67773 0.9043,0.10937 6.6719,0.80469 0,-0.72656 c 1.3967,-0.0565 3.1815,-0.10531 5.4473,-0.041 1.9795,0.0555 3.9683,0.20604 5.4414,0.51368 0.7366,0.15375 1.3427,0.35149 1.7304,0.5625 0.3877,0.21101 0.5027,0.38929 0.5196,0.51171 0.028,0.20117 -0.022,0.3512 -0.1836,0.56055 -0.1614,0.20934 -0.4407,0.43815 -0.7637,0.65235 -0.3231,0.2142 -0.685,0.41627 -1.0176,0.61328 -0.3326,0.19686 -0.6343,0.36498 -0.8808,0.6582 -0.1234,0.14654 -0.2502,0.36319 -0.2403,0.63867 0.011,0.27561 0.173,0.51124 0.3438,0.6582 0.3415,0.29419 0.7792,0.44217 1.4863,0.63086 1.4143,0.3771 3.89,0.78631 8.0996,1.32422 0.8757,0.1123 1.5352,0.25121 1.9688,0.39844 0.409,0.13905 0.5476,0.28494 0.5625,0.29687 -0.011,0.0208 -0.01,0.0361 -0.059,0.0957 -0.1409,0.16942 -0.482,0.44058 -0.9805,0.73047 -1.6368,0.95189 -4.9997,2.19525 -9.3262,3.59765 -0.9118,-0.75 -2.2539,-1.22127 -3.9785,-1.16797 -3.8099,0.1178 -6.1754,2.81635 -8.334,5.21485 0,0 -0.058,0.35894 -0.1777,0.89844 -0.1199,0.5398 2.0976,2.69716 3.2969,3.47656 1.1993,0.7795 3.8776,0.14115 7.3144,-1.49805 3.1473,-1.5012 3.8532,-4.12351 2.707,-5.97851 4.1129,-1.338 7.3076,-2.52611 9.0762,-3.55469 0.5588,-0.32483 0.9829,-0.62753 1.2813,-0.98633 0.1491,-0.17939 0.2727,-0.38043 0.3261,-0.62305 0.054,-0.24262 0.012,-0.52287 -0.1113,-0.74414 -0.2463,-0.44226 -0.6784,-0.65548 -1.2324,-0.84375 -0.5541,-0.18841 -1.2708,-0.33555 -2.1914,-0.45312 -4.1929,-0.5357 -6.6619,-0.94762 -7.9492,-1.29102 -0.4515,-0.12062 -0.5693,-0.19984 -0.7266,-0.27734 0.1044,-0.0749 0.145,-0.11653 0.3066,-0.21289 0.3102,-0.18369 0.6909,-0.39539 1.0664,-0.64453 0.3756,-0.24899 0.7484,-0.53361 1.0371,-0.90821 0.289,-0.3746 0.4927,-0.87645 0.418,-1.41797 -0.086,-0.62041 -0.5581,-1.06019 -1.1113,-1.36132 -0.5533,-0.30112 -1.2472,-0.51082 -2.0469,-0.67774 -1.5988,-0.33398 -3.6267,-0.48208 -5.6406,-0.53906 -1.3295,-0.0374 -2.5344,-0.037 -3.5918,-0.0195 -0.7367,0.0123 -1.3007,0.0376 -1.8867,0.0605 l 0,-0.88867 -14.0567,-1.67968 0,-3.68165 22.209,2.6211 c 0.617,0.0727 1.1171,-0.39912 1.1172,-1.05274 l 0,-37.6621 c -6e-4,-0.65333 -0.5005,-1.23414 -1.1172,-1.29688 l -54.0664,-5.49219 z m 1.0684,2.42383 51.8808,5.32031 0,35.26172 -51.8808,-6.07031 0,-0.21484 a 17.701117,17.849392 0 0 0 5.1074,-12.52344 17.701117,17.849392 0 0 0 -5.1074,-12.53516 l 0,-9.23828 z"
         id="path14420-9-94" />
      <path
         id="path14424-4-2"
         d="m 1240.9039,760.74721 c -2.1819,0.0444 -4.0305,1.61985 -4.4213,3.76695 -1.4733,7.4826 -2.3457,12.07806 -2.7092,15.17552 -0.1818,1.5487 -0.3152,2.6504 -0.052,4.1704 0.1318,0.7599 0.3676,1.76 1.284,2.8235 0.9014,1.0462 2.5553,1.7169 3.7131,1.7681 1.2389,0.054 1.6416,-0.1538 2.0931,-0.2935 0.2756,-0.086 0.5223,-0.1896 0.7753,-0.2869 l 0,16.1122 38.7208,0 0,-18.0954 c 0.9709,2.4152 1.961,4.8722 2.7518,6.7944 0.4762,1.1576 0.8918,2.155 1.2235,2.9267 0.3318,0.7715 0.2009,0.7812 0.9479,1.9764 0.8438,1.3501 1.935,1.7962 2.5839,2.0101 0.6488,0.2139 1.0638,0.2442 1.414,0.2644 0.7003,0.04 1.155,-0.015 1.6403,-0.076 0.9706,-0.1234 1.9659,-0.3355 3.1148,-0.6074 2.2979,-0.5434 5.1172,-1.339 7.9127,-2.1691 5.591,-1.6602 11.05,-3.4554 11.05,-3.4554 5.9446,-1.8437 3.0128,-10.7626 -2.8662,-8.7194 0,0 -5.3738,1.7644 -10.7966,3.3747 -2.673,0.7937 -5.3462,1.5406 -7.3077,2.0079 -0.152,-0.3656 -0.257,-0.6085 -0.428,-1.0241 -0.9324,-2.2662 -2.1196,-5.2051 -3.283,-8.1076 -2.3266,-5.80523 -4.5647,-11.47125 -4.5647,-11.47125 -1.154,-1.77485 -2.5892,-2.66699 -4.3092,-2.96257 -12.7892,-1.56897 -25.821,-4.50243 -38.4878,-5.90254 z"
         style="opacity:1;fill:#000000;fill-opacity:1;fill-rule:nonzero;stroke:none;stroke-width:1.60000002;stroke-linecap:round;stroke-linejoin:round;stroke-miterlimit:4;stroke-dasharray:none;stroke-dashoffset:0;stroke-opacity:1" />
      <path
         style="opacity:1;fill:#000000;fill-opacity:1;fill-rule:nonzero;stroke:none;stroke-width:1.60000002;stroke-linecap:round;stroke-linejoin:round;stroke-miterlimit:4;stroke-dasharray:none;stroke-dashoffset:0;stroke-opacity:1"
         d="m 1358.5078,775.70117 c -2.2999,0.0468 -4.2502,1.70744 -4.6621,3.97071 -1.553,7.88729 -2.4722,12.73109 -2.8555,15.99609 -0.1916,1.6325 -0.3309,2.79428 -0.053,4.39648 0.139,0.801 0.3876,1.85361 1.3535,2.97461 0.9503,1.1028 2.6937,1.81134 3.9141,1.86524 1.3059,0.057 1.7292,-0.16325 2.2051,-0.31055 0.2905,-0.091 0.5517,-0.20013 0.8183,-0.30273 l 0,13.33593 40.8145,0 0,-15.42578 c 1.0234,2.5459 2.0669,5.13591 2.9004,7.16211 0.502,1.2202 0.9394,2.27069 1.289,3.08399 0.3498,0.8133 0.2126,0.82408 1,2.08398 0.8894,1.4231 2.0388,1.89364 2.7227,2.11914 0.6839,0.2255 1.1231,0.258 1.4922,0.2793 0.7382,0.042 1.2169,-0.0161 1.7285,-0.0801 1.023,-0.13 2.0721,-0.35403 3.2832,-0.64063 2.4222,-0.5729 5.3931,-1.41201 8.3398,-2.2871 5.8934,-1.75 11.6485,-3.64258 11.6485,-3.64258 0.1071,-0.0332 0.2049,-0.0738 0.3066,-0.11133 l 0,-9.11719 c -0.9484,-0.35389 -2.0728,-0.39719 -3.3281,0.0391 0,0 -5.6648,1.85924 -11.3809,3.55664 -2.8175,0.8366 -5.6355,1.62449 -7.7031,2.11719 -0.1603,-0.3854 -0.271,-0.64198 -0.4512,-1.08008 -0.9829,-2.3888 -2.2346,-5.48737 -3.4609,-8.54687 -2.4524,-6.1192 -4.8106,-12.0918 -4.8106,-12.0918 -1.2164,-1.8709 -2.7299,-2.81146 -4.5429,-3.12304 -13.4808,-1.65382 -27.2165,-4.74487 -40.5684,-6.22071 z"
         transform="translate(-1.2207031e-4,0)"
         id="path14438-9-0" />
      <ellipse
         style="opacity:1;fill:#666666;fill-opacity:1;fill-rule:nonzero;stroke:none;stroke-width:2;stroke-linecap:round;stroke-linejoin:round;stroke-miterlimit:4;stroke-dasharray:none;stroke-dashoffset:0;stroke-opacity:1"
         id="ellipse14450-8-2"
         cx="1350.4261"
         cy="713.78302"
         rx="14.391075"
         ry="14.511623" />
      <path
         id="path14452-0-3"
         d="m 1334.1305,728.21211 c -1.7739,0.0361 -3.2761,1.3169 -3.5938,3.0625 -1.1978,6.08339 -1.9075,9.81964 -2.2031,12.33789 -0.1477,1.25913 -0.2553,2.15483 -0.041,3.39062 0.1072,0.61779 0.298,1.43029 1.043,2.29492 0.7329,0.85054 2.0782,1.39591 3.0195,1.4375 1.0073,0.044 1.3341,-0.12466 1.7012,-0.23828 0.2241,-0.0699 0.4252,-0.15525 0.6309,-0.23437 l 0,13.09961 27.4082,0 a 18.658499,18.814795 0 0 1 -1.1192,-6.36914 18.658499,18.814795 0 0 1 9.9238,-16.61133 c -0.7671,-1.93179 -1.9746,-4.96289 -1.9746,-4.96289 -0.9382,-1.44296 -2.1055,-2.1679 -3.5039,-2.40821 -10.3976,-1.27558 -20.9928,-3.66052 -31.291,-4.79882 z"
         style="opacity:1;fill:#666666;fill-opacity:1;fill-rule:nonzero;stroke:none;stroke-width:1.60000002;stroke-linecap:round;stroke-linejoin:round;stroke-miterlimit:4;stroke-dasharray:none;stroke-dashoffset:0;stroke-opacity:1" />
      <path
         style="opacity:1;fill:#666666;fill-opacity:1;fill-rule:nonzero;stroke:none;stroke-width:2;stroke-linecap:round;stroke-linejoin:round;stroke-miterlimit:4;stroke-dasharray:none;stroke-dashoffset:0;stroke-opacity:1"
         d="m 1434.7539,716.04883 c -1.8792,2.54695 -3.004,5.69276 -3.0039,9.11133 0,3.29943 1.0763,6.47685 3.0039,9.09375 l 0,-18.20508 z"
         transform="translate(-1.2207031e-4,0)"
         id="ellipse14464-3-6" />
      <path
         style="opacity:1;fill:#cccccc;fill-opacity:1;fill-rule:nonzero;stroke:none;stroke-width:1.60000002;stroke-linecap:round;stroke-linejoin:round;stroke-miterlimit:4;stroke-dasharray:none;stroke-dashoffset:0;stroke-opacity:1"
         d="m 1413.0156,702.1543 c -1.3357,0.0272 -2.4659,0.99228 -2.7051,2.30664 -0.9019,4.58052 -1.4375,7.39488 -1.6601,9.29101 -0.1112,0.94806 -0.1929,1.62224 -0.031,2.55274 0.081,0.46516 0.2262,1.07748 0.7871,1.72851 0.5519,0.64041 1.5628,1.05072 2.2715,1.08203 0.7584,0.0331 1.0049,-0.0941 1.2813,-0.17968 0.1687,-0.0526 0.3197,-0.11621 0.4746,-0.17578 l 0,9.86328 18.7285,0 a 15.16943,15.296498 0 0 1 -0.4121,-3.46289 15.16943,15.296498 0 0 1 3.0039,-9.09375 l 0,-10.54493 c -7.2419,-0.99561 -14.5847,-2.57647 -21.7383,-3.36718 z"
         transform="translate(-1.2207031e-4,0)"
         id="path14480-4-9" />
      <path
         id="path98145-6"
         d="m 1404.6081,750.05842 c 0,0 0,5.48295 0,5.48295 0,0 5.0976,0.56371 5.0976,0.56371 0,0 0,-5.494 0,-5.494 0,0 -5.0976,-0.55266 -5.0976,-0.55266 0,0 0,0 0,0 m 0.49,0.58115 c 0,0 4.1159,0.44708 4.1159,0.44708 0,0 0,4.43452 0,4.43452 0,0 -4.1159,-0.45429 -4.1159,-0.45429 0,0 0,-4.42731 0,-4.42731 0,0 0,0 0,0"
         style="opacity:1;fill:#666666;fill-opacity:1;fill-rule:nonzero;stroke:none;stroke-width:1.60000002;stroke-linecap:round;stroke-linejoin:round;stroke-miterlimit:4;stroke-dasharray:none;stroke-dashoffset:0;stroke-opacity:1" />
      <path
         id="path98147-7"
         d="m 1406.2449,750.94725 c 0,0 2.7989,3.3185 2.7989,3.3185 0,0 -0.9794,0.94592 -0.9794,0.94592 0,0 -2.7967,-3.31827 -2.7967,-3.31827 0,0 0.9772,-0.94615 0.9772,-0.94615"
         style="opacity:1;fill:#1f7a7a;fill-opacity:1;fill-rule:nonzero;stroke:none;stroke-width:1.60000002;stroke-linecap:round;stroke-linejoin:round;stroke-miterlimit:4;stroke-dasharray:none;stroke-dashoffset:0;stroke-opacity:1" />
      <path
         id="path98149-3"
         d="m 1409.0438,752.30543 c 0,0 -2.7989,2.70554 -2.7989,2.70554 0,0 -0.9772,-1.16015 -0.9772,-1.16015 0,0 2.7967,-2.70577 2.7967,-2.70577 0,0 0.9794,1.16038 0.9794,1.16038"
         style="opacity:1;fill:#1f7a7a;fill-opacity:1;fill-rule:nonzero;stroke:none;stroke-width:1.60000002;stroke-linecap:round;stroke-linejoin:round;stroke-miterlimit:4;stroke-dasharray:none;stroke-dashoffset:0;stroke-opacity:1" />
      <path
         id="path98153-5"
         d="m 1413.1258,752.12017 c 0,0 15.0739,1.641 15.0739,1.641 0,0 0,3.24392 0,3.24392 0,0 -15.0739,-1.66017 -15.0739,-1.66017 0,0 0,-3.22475 0,-3.22475"
         style="opacity:1;fill:#cccccc;fill-opacity:1;fill-rule:nonzero;stroke:none;stroke-width:3;stroke-linecap:round;stroke-linejoin:round;stroke-miterlimit:4;stroke-dasharray:none;stroke-dashoffset:0;stroke-opacity:1" />
      <path
         style="opacity:1;fill:#cccccc;fill-opacity:1;fill-rule:nonzero;stroke:none;stroke-width:3;stroke-linecap:round;stroke-linejoin:round;stroke-miterlimit:4;stroke-dasharray:none;stroke-dashoffset:0;stroke-opacity:1"
         d="m 1413.125,758.92969 0,3.22461 21.6289,2.43945 0,-3.25195 -21.6289,-2.41211 z"
         transform="translate(-1.2207031e-4,0)"
         id="path98155-3" />
      <path
         id="path98157-5"
         d="m 1413.1258,765.73777 c 0,0 10.878,1.2426 10.878,1.2426 0,0 0,3.23858 0,3.23858 0,0 -10.878,-1.25643 -10.878,-1.25643 0,0 0,-3.22475 0,-3.22475"
         style="opacity:1;fill:#cccccc;fill-opacity:1;fill-rule:nonzero;stroke:none;stroke-width:3;stroke-linecap:round;stroke-linejoin:round;stroke-miterlimit:4;stroke-dasharray:none;stroke-dashoffset:0;stroke-opacity:1" />
      <path
         style="opacity:1;fill:#cccccc;fill-opacity:1;fill-rule:nonzero;stroke:none;stroke-width:3;stroke-linecap:round;stroke-linejoin:round;stroke-miterlimit:4;stroke-dasharray:none;stroke-dashoffset:0;stroke-opacity:1"
         d="m 1425.584,767.16016 0,3.24218 9.1699,1.0586 0,-3.25196 -9.1699,-1.04882 z"
         transform="translate(-1.2207031e-4,0)"
         id="path98159-9" />
      <path
         id="path98161-5"
         d="m 1404.6081,763.63043 c 0,0 0,5.48294 0,5.48294 0,0 5.0976,0.59107 5.0976,0.59107 0,0 0,-5.494 0,-5.494 0,0 -5.0976,-0.58001 -5.0976,-0.58001 0,0 0,0 0,0 m 0.49,0.58378 c 0,0 4.1159,0.46917 4.1159,0.46917 0,0 0,4.43451 0,4.43451 0,0 -4.1159,-0.47637 -4.1159,-0.47637 0,0 0,-4.42731 0,-4.42731 0,0 0,0 0,0"
         style="opacity:1;fill:#666666;fill-opacity:1;fill-rule:nonzero;stroke:none;stroke-width:1.60000002;stroke-linecap:round;stroke-linejoin:round;stroke-miterlimit:4;stroke-dasharray:none;stroke-dashoffset:0;stroke-opacity:1" />
      <path
         id="path98163-9"
         d="m 1406.2449,764.52807 c 0,0 2.7989,3.33352 2.7989,3.33352 0,0 -0.9794,0.94065 -0.9794,0.94065 0,0 -2.7967,-3.33327 -2.7967,-3.33327 0,0 0.9772,-0.9409 0.9772,-0.9409"
         style="opacity:1;fill:#1f7a7a;fill-opacity:1;fill-rule:nonzero;stroke:none;stroke-width:1.60000002;stroke-linecap:round;stroke-linejoin:round;stroke-miterlimit:4;stroke-dasharray:none;stroke-dashoffset:0;stroke-opacity:1" />
      <path
         id="path98165-7"
         d="m 1409.0438,765.90124 c 0,0 -2.7989,2.69052 -2.7989,2.69052 0,0 -0.9772,-1.1654 -0.9772,-1.1654 0,0 2.7967,-2.69076 2.7967,-2.69076 0,0 0.9794,1.16564 0.9794,1.16564"
         style="opacity:1;fill:#1f7a7a;fill-opacity:1;fill-rule:nonzero;stroke:none;stroke-width:1.60000002;stroke-linecap:round;stroke-linejoin:round;stroke-miterlimit:4;stroke-dasharray:none;stroke-dashoffset:0;stroke-opacity:1" />
      <path
         id="path98167-9"
         d="m 1404.6081,756.84436 c 0,0 0,5.48294 0,5.48294 0,0 5.0976,0.57738 5.0976,0.57738 0,0 0,-5.49399 0,-5.49399 0,0 -5.0976,-0.56633 -5.0976,-0.56633 0,0 0,0 0,0 m 0.49,0.58246 c 0,0 4.1159,0.45812 4.1159,0.45812 0,0 0,4.43451 0,4.43451 0,0 -4.1159,-0.46533 -4.1159,-0.46533 0,0 0,-4.4273 0,-4.4273 0,0 0,0 0,0"
         style="opacity:1;fill:#666666;fill-opacity:1;fill-rule:nonzero;stroke:none;stroke-width:1.60000002;stroke-linecap:round;stroke-linejoin:round;stroke-miterlimit:4;stroke-dasharray:none;stroke-dashoffset:0;stroke-opacity:1" />
      <path
         style="opacity:1;fill:#cccccc;fill-opacity:1;fill-rule:nonzero;stroke:none;stroke-width:3;stroke-linecap:round;stroke-linejoin:round;stroke-miterlimit:4;stroke-dasharray:none;stroke-dashoffset:0;stroke-opacity:1"
         d="m 1429.5293,753.90625 0,3.24609 5.2246,0.57618 0,-3.25391 -5.2246,-0.56836 z"
         transform="translate(-1.2207031e-4,0)"
         id="path98173-9" />
      <path
         style="fill:#1f7a7a;fill-opacity:1"
         d="m 1429.9551,738.67969 0,12.60547 4.7988,0.51757 0,-2.94726 c -0.2572,-0.0177 -0.3796,-0.0207 -0.8047,-0.0566 l -2.082,-0.22266 0,-6.7832 2.4512,0.25586 c 0.1667,0.0173 0.2985,0.0356 0.4355,0.0547 l 0,-2.92969 -4.7988,-0.49414 z m 3.0039,4.35547 -0.018,1.66211 0.957,0.10156 0.5547,0.0586 c 0.1029,0.0108 0.2019,0.0211 0.3008,0.0195 l 0,-1.62109 c -0.1517,-0.028 -0.4163,-0.0588 -0.9375,-0.11328 l -0.8574,-0.10742 z m -0.035,2.71679 0.016,1.77539 1.2773,0.13477 0.5371,0.0566 0,-1.77539 c -0.213,-0.0242 -0.4288,-0.0444 -0.6367,-0.0664 l -1.1934,-0.125 z"
         transform="translate(-1.2207031e-4,0)"
         id="path98175-0" />
      <path
         id="path98213-0"
         d="m 1369.6883,708.43412 c 0,0 0,4.22893 0,4.22893 0,0 3.9317,0.43478 3.9317,0.43478 0,0 0,-4.23745 0,-4.23745 0,0 -3.9317,-0.42626 -3.9317,-0.42626 0,0 0,0 0,0 m 0.3779,0.44823 c 0,0 3.1745,0.34483 3.1745,0.34483 0,0 0,3.42029 0,3.42029 0,0 -3.1745,-0.35039 -3.1745,-0.35039 0,0 0,-3.41473 0,-3.41473 0,0 0,0 0,0"
         style="opacity:1;fill:#666666;fill-opacity:1;fill-rule:nonzero;stroke:none;stroke-width:1.60000002;stroke-linecap:round;stroke-linejoin:round;stroke-miterlimit:4;stroke-dasharray:none;stroke-dashoffset:0;stroke-opacity:1" />
      <path
         id="path98215-8"
         d="m 1370.9507,709.11966 c 0,0 2.1588,2.55952 2.1588,2.55952 0,0 -0.7554,0.72957 -0.7554,0.72957 0,0 -2.1571,-2.55933 -2.1571,-2.55933 0,0 0.7537,-0.72976 0.7537,-0.72976"
         style="opacity:1;fill:#1f7a7a;fill-opacity:1;fill-rule:nonzero;stroke:none;stroke-width:1.60000002;stroke-linecap:round;stroke-linejoin:round;stroke-miterlimit:4;stroke-dasharray:none;stroke-dashoffset:0;stroke-opacity:1" />
      <path
         id="path98217-4"
         d="m 1373.1095,710.16721 c 0,0 -2.1588,2.08675 -2.1588,2.08675 0,0 -0.7537,-0.89481 -0.7537,-0.89481 0,0 2.1571,-2.08693 2.1571,-2.08693 0,0 0.7554,0.89499 0.7554,0.89499"
         style="opacity:1;fill:#1f7a7a;fill-opacity:1;fill-rule:nonzero;stroke:none;stroke-width:1.60000002;stroke-linecap:round;stroke-linejoin:round;stroke-miterlimit:4;stroke-dasharray:none;stroke-dashoffset:0;stroke-opacity:1" />
      <path
         style="fill:#666666;fill-opacity:1;fill-rule:evenodd;stroke:none;stroke-width:0.80514383px;stroke-linecap:butt;stroke-linejoin:miter;stroke-opacity:1"
         d="m 1359.7958,694.11104 c -0.4789,-0.0482 -0.8666,0.33302 -0.8671,0.85156 l 0,29.91406 c 10e-5,0.51889 0.388,0.98596 0.8671,1.04297 l 17.5801,2.07422 0,2.97851 -11.2011,-1.33789 0,2.21094 24.789,2.99024 0.7344,0.0879 0.4277,0.0508 0,-2.16797 0.5899,0 -7.0196,-0.83984 0,-2.99219 18.0547,2.13086 c 0.5016,0.0591 0.9081,-0.32408 0.9082,-0.85547 l 0,-30.61914 c -5e-4,-0.53115 -0.4069,-1.00368 -0.9082,-1.05469 l -43.9551,-4.46484 z m 0.8692,1.96875 42.1797,4.32617 0,28.66797 -42.1797,-4.93555 0,-28.05859 z"
         id="path98219-4" />
      <path
         id="path98221-8"
         d="m 1376.2579,710.02432 c 0,0 11.6263,1.26569 11.6263,1.26569 0,0 0,2.50199 0,2.50199 0,0 -11.6263,-1.28047 -11.6263,-1.28047 0,0 0,-2.48721 0,-2.48721"
         style="opacity:1;fill:#cccccc;fill-opacity:1;fill-rule:nonzero;stroke:none;stroke-width:3;stroke-linecap:round;stroke-linejoin:round;stroke-miterlimit:4;stroke-dasharray:none;stroke-dashoffset:0;stroke-opacity:1" />
      <path
         id="path98223-2"
         d="m 1376.2579,715.27588 c 0,0 18.0028,2.00817 18.0028,2.00817 0,0 0,2.51009 0,2.51009 0,0 -18.0028,-2.03105 -18.0028,-2.03105 0,0 0,-2.48721 0,-2.48721"
         style="opacity:1;fill:#cccccc;fill-opacity:1;fill-rule:nonzero;stroke:none;stroke-width:3;stroke-linecap:round;stroke-linejoin:round;stroke-miterlimit:4;stroke-dasharray:none;stroke-dashoffset:0;stroke-opacity:1" />
      <path
         id="path98225-4"
         d="m 1376.2579,720.52741 c 0,0 8.39,0.95841 8.39,0.95841 0,0 0,2.49787 0,2.49787 0,0 -8.39,-0.96907 -8.39,-0.96907 0,0 0,-2.48721 0,-2.48721"
         style="opacity:1;fill:#cccccc;fill-opacity:1;fill-rule:nonzero;stroke:none;stroke-width:3;stroke-linecap:round;stroke-linejoin:round;stroke-miterlimit:4;stroke-dasharray:none;stroke-dashoffset:0;stroke-opacity:1" />
      <path
         id="path98227-2"
         d="m 1385.8669,721.62506 c 0,0 9.0957,1.039 9.0957,1.039 0,0 0,2.51098 0,2.51098 0,0 -9.0957,-1.05056 -9.0957,-1.05056 0,0 0,-2.49942 0,-2.49942"
         style="opacity:1;fill:#cccccc;fill-opacity:1;fill-rule:nonzero;stroke:none;stroke-width:3;stroke-linecap:round;stroke-linejoin:round;stroke-miterlimit:4;stroke-dasharray:none;stroke-dashoffset:0;stroke-opacity:1" />
      <path
         id="path98229-7"
         d="m 1369.6883,718.90204 c 0,0 0,4.22893 0,4.22893 0,0 3.9317,0.45589 3.9317,0.45589 0,0 0,-4.23746 0,-4.23746 0,0 -3.9317,-0.44736 -3.9317,-0.44736 0,0 0,0 0,0 m 0.3779,0.45027 c 0,0 3.1745,0.36186 3.1745,0.36186 0,0 0,3.42029 0,3.42029 0,0 -3.1745,-0.36742 -3.1745,-0.36742 0,0 0,-3.41473 0,-3.41473 0,0 0,0 0,0"
         style="opacity:1;fill:#666666;fill-opacity:1;fill-rule:nonzero;stroke:none;stroke-width:1.60000002;stroke-linecap:round;stroke-linejoin:round;stroke-miterlimit:4;stroke-dasharray:none;stroke-dashoffset:0;stroke-opacity:1" />
      <path
         id="path98235-7"
         d="m 1369.6883,713.66803 c 0,0 0,4.22893 0,4.22893 0,0 3.9317,0.44533 3.9317,0.44533 0,0 0,-4.23745 0,-4.23745 0,0 -3.9317,-0.43681 -3.9317,-0.43681 0,0 0,0 0,0 m 0.3779,0.44924 c 0,0 3.1745,0.35335 3.1745,0.35335 0,0 0,3.42029 0,3.42029 0,0 -3.1745,-0.35891 -3.1745,-0.35891 0,0 0,-3.41473 0,-3.41473 0,0 0,0 0,0"
         style="opacity:1;fill:#666666;fill-opacity:1;fill-rule:nonzero;stroke:none;stroke-width:1.60000002;stroke-linecap:round;stroke-linejoin:round;stroke-miterlimit:4;stroke-dasharray:none;stroke-dashoffset:0;stroke-opacity:1" />
      <path
         id="path98241-9"
         d="m 1388.9094,711.40161 c 0,0 11.7776,1.28216 11.7776,1.28216 0,0 0,2.51826 0,2.51826 0,0 -11.7776,-1.29713 -11.7776,-1.29713 0,0 0,-2.50329 0,-2.50329"
         style="opacity:1;fill:#cccccc;fill-opacity:1;fill-rule:nonzero;stroke:none;stroke-width:3;stroke-linecap:round;stroke-linejoin:round;stroke-miterlimit:4;stroke-dasharray:none;stroke-dashoffset:0;stroke-opacity:1" />
      <path
         d="m 1389.2386,699.65843 c 0,0 0,9.72205 0,9.72205 0,0 11.0474,1.19112 11.0474,1.19112 0,0 0,-9.77656 0,-9.77656 0,0 -11.0474,-1.13661 -11.0474,-1.13661 m 1.4743,2.40081 c 0,0 1.8906,0.19667 1.8906,0.19667 0.3761,0.0391 0.65,0.0811 0.8447,0.14294 0.1817,0.0604 0.3498,0.14845 0.4927,0.27393 0.1428,0.1254 0.2726,0.29022 0.3635,0.47942 0.091,0.18931 0.1436,0.40152 0.1436,0.62269 0,0.24892 -0.066,0.46315 -0.1827,0.65838 -0.1169,0.19506 -0.2857,0.32985 -0.4804,0.40616 0.2857,0.12677 0.5072,0.30199 0.6631,0.53971 0.1559,0.23766 0.2341,0.50944 0.2341,0.81367 0,0.23504 -0.052,0.46408 -0.1561,0.67419 -0.104,0.21014 -0.2349,0.37652 -0.4168,0.49541 -0.1688,0.12025 -0.3896,0.17989 -0.6361,0.18122 -0.1558,-0.003 -0.5451,-0.0301 -1.1547,-0.0817 0,0 -1.6056,-0.17129 -1.6056,-0.17129 0,0 0,-5.23106 0,-5.23106 0,0 10e-5,-3.8e-4 10e-5,-3.8e-4 m 4.2549,0.44263 c 0,0 0.845,0.0879 0.845,0.0879 0,0 0,1.89611 0,1.89611 0.2863,-0.3297 0.5994,-0.62846 1.2636,-0.55897 0.417,0.0436 0.7819,0.23388 1.0818,0.58398 0.3392,0.39577 0.5728,1.00134 0.5466,1.69148 -0.039,0.81333 -0.1944,1.01927 -0.5074,1.37395 -0.2869,0.31572 -0.7693,0.43036 -1.1602,0.38866 -0.2475,-0.0264 -0.4694,-0.0791 -0.6647,-0.21067 -0.1953,-0.13145 -0.4166,-0.36199 -0.5597,-0.58472 0,0 0,0.59496 0,0.59496 0,0 -0.845,-0.0901 -0.845,-0.0901 0,0 0,-5.17257 0,-5.17257 m -3.4135,0.51552 c 0,0 -0.013,1.28204 -0.013,1.28204 0,0 0.7378,0.0775 0.7378,0.0775 0,0 0.4283,0.045 0.4283,0.045 0.1556,0.0164 0.2994,0.0315 0.4551,-0.0217 0.1298,-0.0414 0.2592,-0.1382 0.3242,-0.26958 0.052,-0.0912 0.078,-0.19813 0.078,-0.30871 0,-0.13823 -0.066,-0.27053 -0.1435,-0.37538 -0.1038,-0.13523 -0.247,-0.21944 -0.3898,-0.24817 -0.091,-0.023 -0.3621,-0.0514 -0.816,-0.0988 0,0 -0.6616,-0.0826 -0.6616,-0.0826 0,0 2e-4,3.2e-4 2e-4,3.2e-4 m 5.1949,1.66315 c -0.2735,-0.0152 -0.573,0.16237 -0.7162,0.32719 -0.1431,0.19244 -0.2202,0.4455 -0.2202,0.81904 0,0.38745 0.1429,0.67954 0.2469,0.87044 0.2083,0.2435 0.2994,0.32338 0.638,0.42853 0.1953,0.0624 0.5467,0.0165 0.7291,-0.13038 0.2086,-0.15788 0.379,-0.4176 0.4181,-0.829 0.052,-0.63174 -0.1704,-0.97293 -0.3399,-1.15693 -0.2345,-0.23233 -0.5344,-0.31956 -0.7558,-0.32888 0,0 0,-10e-6 0,-10e-6 m -5.2215,0.43158 c 0,0 0.013,1.36943 0.013,1.36943 0,0 0.9855,0.10468 0.9855,0.10468 0,0 0.6746,0.0717 0.6746,0.0717 0.2336,-0.0167 0.325,-0.036 0.4678,-0.17287 0.065,-0.0626 0.1677,-0.20312 0.1807,-0.40915 0,-0.16586 -0.039,-0.23935 -0.078,-0.34026 -0.039,-0.0737 -0.077,-0.13217 -0.1294,-0.19295 -0.1298,-0.15192 -0.3503,-0.24444 -0.519,-0.26225 -0.2206,-0.0368 -0.4543,-0.0479 -0.6747,-0.0712 0,0 -0.9199,-0.0971 -0.9199,-0.0971 0,0 -2e-4,-2e-5 -2e-4,-2e-5"
         id="path98243-9"
         style="fill:#1f7a7a;fill-opacity:1" />
      <path
         style="opacity:1;fill:#666666;fill-opacity:1;fill-rule:nonzero;stroke:none;stroke-width:1.60000002;stroke-linecap:round;stroke-linejoin:round;stroke-miterlimit:4;stroke-dasharray:none;stroke-dashoffset:0;stroke-opacity:1"
         d="m 1284.6397,736.4206 c 0,0 0,5.20162 0,5.20162 0,0 4.836,0.53478 4.836,0.53478 0,0 0,-5.2121 0,-5.2121 0,0 -4.836,-0.5243 -4.836,-0.5243 0,0 0,0 0,0 m 0.4649,0.55133 c 0,0 3.9046,0.42414 3.9046,0.42414 0,0 0,4.20698 0,4.20698 0,0 -3.9046,-0.43098 -3.9046,-0.43098 0,0 0,-4.20014 0,-4.20014 0,0 0,0 0,0"
         id="path98247-3" />
      <path
         style="opacity:1;fill:#cccccc;fill-opacity:1;fill-rule:nonzero;stroke:none;stroke-width:3;stroke-linecap:round;stroke-linejoin:round;stroke-miterlimit:4;stroke-dasharray:none;stroke-dashoffset:0;stroke-opacity:1"
         d="m 1292.7203,738.37656 c 0,0 14.3005,1.5568 14.3005,1.5568 0,0 0,3.07747 0,3.07747 0,0 -14.3005,-1.57498 -14.3005,-1.57498 0,0 0,-3.05929 0,-3.05929"
         id="path98255-9" />
      <path
         style="opacity:1;fill:#cccccc;fill-opacity:1;fill-rule:nonzero;stroke:none;stroke-width:3;stroke-linecap:round;stroke-linejoin:round;stroke-miterlimit:4;stroke-dasharray:none;stroke-dashoffset:0;stroke-opacity:1"
         d="m 1292.7203,744.83601 c 0,0 22.1436,2.47006 22.1436,2.47006 0,0 0,3.08743 0,3.08743 0,0 -22.1436,-2.4982 -22.1436,-2.4982 0,0 0,-3.05929 0,-3.05929"
         id="path98257-8" />
      <path
         style="opacity:1;fill:#cccccc;fill-opacity:1;fill-rule:nonzero;stroke:none;stroke-width:3;stroke-linecap:round;stroke-linejoin:round;stroke-miterlimit:4;stroke-dasharray:none;stroke-dashoffset:0;stroke-opacity:1"
         d="m 1292.7203,751.29543 c 0,0 10.3199,1.17884 10.3199,1.17884 0,0 0,3.07241 0,3.07241 0,0 -10.3199,-1.19196 -10.3199,-1.19196 0,0 0,-3.05929 0,-3.05929"
         id="path98259-4" />
      <path
         style="opacity:1;fill:#cccccc;fill-opacity:1;fill-rule:nonzero;stroke:none;stroke-width:3;stroke-linecap:round;stroke-linejoin:round;stroke-miterlimit:4;stroke-dasharray:none;stroke-dashoffset:0;stroke-opacity:1"
         d="m 1304.5395,752.64554 c 0,0 11.1878,1.27798 11.1878,1.27798 0,0 0,3.08853 0,3.08853 0,0 -11.1878,-1.2922 -11.1878,-1.2922 0,0 0,-3.07431 0,-3.07431"
         id="path98261-0" />
      <path
         style="opacity:1;fill:#666666;fill-opacity:1;fill-rule:nonzero;stroke:none;stroke-width:1.60000002;stroke-linecap:round;stroke-linejoin:round;stroke-miterlimit:4;stroke-dasharray:none;stroke-dashoffset:0;stroke-opacity:1"
         d="m 1284.6397,749.29621 c 0,0 0,5.20162 0,5.20162 0,0 4.836,0.56074 4.836,0.56074 0,0 0,-5.2121 0,-5.2121 0,0 -4.836,-0.55026 -4.836,-0.55026 0,0 0,0 0,0 m 0.4649,0.55383 c 0,0 3.9046,0.4451 3.9046,0.4451 0,0 0,4.20698 0,4.20698 0,0 -3.9046,-0.45193 -3.9046,-0.45193 0,0 0,-4.20015 0,-4.20015 0,0 0,0 0,0"
         id="path98263-8" />
      <path
         style="opacity:1;fill:#666666;fill-opacity:1;fill-rule:nonzero;stroke:none;stroke-width:1.60000002;stroke-linecap:round;stroke-linejoin:round;stroke-miterlimit:4;stroke-dasharray:none;stroke-dashoffset:0;stroke-opacity:1"
         d="m 1284.6397,742.85834 c 0,0 0,5.20161 0,5.20161 0,0 4.836,0.54776 4.836,0.54776 0,0 0,-5.21209 0,-5.21209 0,0 -4.836,-0.53728 -4.836,-0.53728 0,0 0,0 0,0 m 0.4649,0.55258 c 0,0 3.9046,0.43462 3.9046,0.43462 0,0 0,4.20697 0,4.20697 0,0 -3.9046,-0.44145 -3.9046,-0.44145 0,0 0,-4.20014 0,-4.20014 0,0 0,0 0,0"
         id="path98269-0" />
      <path
         style="opacity:1;fill:#cccccc;fill-opacity:1;fill-rule:nonzero;stroke:none;stroke-width:3;stroke-linecap:round;stroke-linejoin:round;stroke-miterlimit:4;stroke-dasharray:none;stroke-dashoffset:0;stroke-opacity:1"
         d="m 1308.2818,740.07064 c 0,0 14.4865,1.57706 14.4865,1.57706 0,0 0,3.09747 0,3.09747 0,0 -14.4865,-1.59547 -14.4865,-1.59547 0,0 0,-3.07906 0,-3.07906"
         id="path98275-5" />
      <path
         style="fill:#1f7a7a;fill-opacity:1"
         id="path98277-9"
         d="m 1308.6867,725.62645 c 0,0 0,11.95818 0,11.95818 0,0 13.5884,1.46509 13.5884,1.46509 0,0 0,-12.02523 0,-12.02523 0,0 -13.5884,-1.39804 -13.5884,-1.39804 m 1.8134,2.95301 c 0,0 2.3255,0.24191 2.3255,0.24191 0.4626,0.0481 0.7995,0.0998 1.039,0.17581 0.2235,0.0743 0.4303,0.18259 0.606,0.33693 0.1757,0.15425 0.3353,0.35698 0.4471,0.58969 0.1118,0.23286 0.1766,0.49387 0.1766,0.76592 0,0.30617 -0.082,0.56968 -0.2247,0.80982 -0.1438,0.23992 -0.3514,0.40571 -0.5909,0.49957 0.3514,0.15593 0.6239,0.37146 0.8156,0.66385 0.1918,0.29232 0.288,0.62661 0.288,1.00082 0,0.2891 -0.064,0.57082 -0.192,0.82926 -0.1279,0.25847 -0.289,0.46311 -0.5126,0.60935 -0.2077,0.14791 -0.4793,0.22126 -0.7826,0.2229 -0.1916,-0.004 -0.6704,-0.0371 -1.4202,-0.10045 0,0 -1.9749,-0.21068 -1.9749,-0.21068 0,0 0,-6.43424 0,-6.43424 0,0 10e-5,-4.6e-4 10e-5,-4.6e-4 m 5.2336,0.54443 c 0,0 1.0393,0.10812 1.0393,0.10812 0,0 0,2.33223 0,2.33223 0.3522,-0.40554 0.7373,-0.77302 1.5543,-0.68754 0.5129,0.0537 0.9617,0.28767 1.3306,0.7183 0.4172,0.4868 0.7045,1.23165 0.6724,2.08053 -0.048,1.0004 -0.2392,1.25371 -0.6242,1.68997 -0.3529,0.38833 -0.9462,0.52935 -1.427,0.47806 -0.3044,-0.0325 -0.5774,-0.0973 -0.8177,-0.25914 -0.2401,-0.16168 -0.5123,-0.44524 -0.6884,-0.71921 0,0 0,0.73181 0,0.73181 0,0 -1.0393,-0.11083 -1.0393,-0.11083 0,0 0,-6.3623 0,-6.3623 m -4.1987,0.63409 c 0,0 -0.015,1.57692 -0.015,1.57692 0,0 0.9074,0.0954 0.9074,0.0954 0,0 0.5268,0.0554 0.5268,0.0554 0.1915,0.0201 0.3684,0.0387 0.5598,-0.0267 0.1597,-0.0509 0.3189,-0.17 0.3988,-0.3316 0.064,-0.11224 0.096,-0.24369 0.096,-0.37971 0,-0.17002 -0.081,-0.33275 -0.1765,-0.46171 -0.1276,-0.16635 -0.3038,-0.26992 -0.4794,-0.30526 -0.1117,-0.0283 -0.4454,-0.0632 -1.0037,-0.12149 0,0 -0.8137,-0.10164 -0.8137,-0.10164 0,0 10e-5,3.9e-4 10e-5,3.9e-4 m 6.3898,2.04569 c -0.3364,-0.0187 -0.7048,0.19972 -0.8809,0.40245 -0.176,0.2367 -0.2709,0.54797 -0.2709,1.00742 0,0.47656 0.1758,0.83584 0.3037,1.07065 0.2563,0.2995 0.3683,0.39776 0.7848,0.5271 0.2402,0.0767 0.6724,0.0203 0.8968,-0.16038 0.2565,-0.19419 0.4662,-0.51365 0.5143,-1.01968 0.064,-0.77704 -0.2097,-1.1967 -0.4181,-1.42302 -0.2885,-0.28577 -0.6574,-0.39307 -0.9297,-0.40453 0,0 0,-10e-6 0,-10e-6 m -6.4225,0.53084 c 0,0 0.016,1.68442 0.016,1.68442 0,0 1.2121,0.12875 1.2121,0.12875 0,0 0.8298,0.0881 0.8298,0.0881 0.2873,-0.0206 0.3997,-0.0443 0.5753,-0.21263 0.08,-0.077 0.2064,-0.24984 0.2223,-0.50326 0,-0.20401 -0.048,-0.2944 -0.096,-0.41851 -0.048,-0.0906 -0.095,-0.16258 -0.1592,-0.23734 -0.1597,-0.18687 -0.4308,-0.30067 -0.6384,-0.32257 -0.2712,-0.0453 -0.5587,-0.059 -0.8298,-0.0876 0,0 -1.1316,-0.11942 -1.1316,-0.11942 0,0 -2e-4,-2e-5 -2e-4,-2e-5" />
      <path
         style="fill:#000000;fill-opacity:1;fill-rule:evenodd;stroke:none;stroke-width:0.80514383px;stroke-linecap:butt;stroke-linejoin:miter;stroke-opacity:1"
         d="m 1391.7832,731.48828 c -0.6209,-0.0625 -1.1244,0.43121 -1.125,1.10352 l 0,9.24804 a 18.658499,18.814795 0 0 0 -11.0234,-3.66015 18.658499,18.814795 0 0 0 -18.6582,18.81445 18.658499,18.814795 0 0 0 18.6582,18.81445 18.658499,18.814795 0 0 0 11.2031,-3.79101 c 0.1971,0.37491 0.5376,0.66244 0.9453,0.71094 l 22.7949,2.68945 0,3.86328 -14.5234,-1.73437 0,2.86523 32.1387,3.87695 0.9531,0.11524 1.6074,0.19336 0,-2.9043 -9.3906,-1.12305 0,-3.88086 9.3906,1.10938 0,-2.48242 -41.8437,-4.89649 0,-0.22656 a 18.658499,18.814795 0 0 0 5.3828,-13.19922 18.658499,18.814795 0 0 0 -5.3828,-13.21289 l 0,-9.74023 41.8437,4.29296 0,-2.48046 -42.9707,-4.36524 z"
         transform="translate(-1.2207031e-4,0)"
         id="path98151-8" />
      <rect
         style="opacity:1;fill:none;fill-opacity:1;fill-rule:nonzero;stroke:#666666;stroke-width:0.29785961;stroke-linecap:round;stroke-linejoin:round;stroke-miterlimit:4;stroke-dasharray:none;stroke-dashoffset:0;stroke-opacity:1"
         id="rect476777"
         width="207.03087"
         height="157.00214"
         x="1227.7227"
         y="660.62402" />
    </g>
  </g>
</svg>
