<?xml version="1.0" encoding="UTF-8" standalone="no"?>
<svg
   xmlns:dc="http://purl.org/dc/elements/1.1/"
   xmlns:cc="http://creativecommons.org/ns#"
   xmlns:rdf="http://www.w3.org/1999/02/22-rdf-syntax-ns#"
   xmlns:svg="http://www.w3.org/2000/svg"
   xmlns="http://www.w3.org/2000/svg"
   version="1.1"
   id="svg5156"
   viewBox="0 0 210 160"
   height="160"
   width="210">
  <defs
     id="defs5158">
    <linearGradient
       spreadMethod="pad"
       gradientUnits="userSpaceOnUse"
       y2="593.78698"
       y1="3.6658269"
       x2="590.86259"
       x1="0.74144253"
       id="gradientFill"
       gradientTransform="matrix(1.2219423,0,0,0.81836924,-767.16729,-40.990215)">
      <stop
         id="stop6361"
         stop-opacity="1"
         stop-color="rgb(203,206,208)"
         offset="0" />
      <stop
         id="stop6363"
         stop-opacity="1"
         stop-color="rgb(132,131,139)"
         offset="1" />
    </linearGradient>
    <linearGradient
       spreadMethod="pad"
       gradientUnits="userSpaceOnUse"
       y2="593.78699"
       y1="3.6658268"
       x2="590.86261"
       x1="0.7414425"
       id="gradientFill-0"
       gradientTransform="matrix(1.2219423,0,0,0.81836924,-767.16729,-40.990215)">
      <stop
         id="stop6361-6"
         stop-opacity="1"
         stop-color="rgb(203,206,208)"
         offset="0" />
      <stop
         id="stop6363-2"
         stop-opacity="1"
         stop-color="rgb(132,131,139)"
         offset="1" />
    </linearGradient>
  </defs>
  <metadata
     id="metadata5161">
    <rdf:RDF>
      <cc:Work
         rdf:about="">
        <dc:format>image/svg+xml</dc:format>
        <dc:type
           rdf:resource="http://purl.org/dc/dcmitype/StillImage" />
        <dc:title></dc:title>
      </cc:Work>
    </rdf:RDF>
  </metadata>
  <g
     transform="translate(0,-892.36221)"
     id="layer1">
    <g
       id="g484922"
       transform="translate(-1226.2377,445.9776)">
      <path
         style="opacity:1;fill:#cccccc;fill-opacity:1;fill-rule:nonzero;stroke:none;stroke-width:2;stroke-linecap:round;stroke-linejoin:round;stroke-miterlimit:4;stroke-dasharray:none;stroke-dashoffset:0;stroke-opacity:1"
         d="m 1432.3418,463.73828 c -0.3606,-0.0363 -0.654,0.2502 -0.6543,0.64063 l 0,5.36914 a 10.835845,10.926612 0 0 0 -6.4004,-2.125 10.835845,10.926612 0 0 0 -10.8359,10.92773 10.835845,10.926612 0 0 0 10.8359,10.92578 10.835845,10.926612 0 0 0 6.5039,-2.20117 c 0.1144,0.21812 0.3137,0.38391 0.5508,0.41211 l 2.4121,0.28516 0,-1.41993 -1.7578,-0.20507 0,-0.13282 a 10.835845,10.926612 0 0 0 1.7578,-2.38867 l 0,-10.57812 a 10.835845,10.926612 0 0 0 -1.7578,-2.36914 l 0,-5.65821 1.7578,0.17969 0,-1.41797 -2.4121,-0.24414 z"
         transform="translate(-1.2207031e-4,0)"
         id="path28288-3" />
      <path
         style="fill:#000000;fill-opacity:1;fill-rule:evenodd;stroke:none;stroke-width:0.80514383px;stroke-linecap:butt;stroke-linejoin:miter;stroke-opacity:1"
         d="m 1272.4716,506.06195 c -0.589,-0.0592 -1.0659,0.40907 -1.0664,1.04687 l 0,8.77344 a 17.701117,17.849392 0 0 0 -10.459,-3.47266 17.701117,17.849392 0 0 0 -17.6992,17.84961 17.701117,17.849392 0 0 0 17.6992,17.84961 17.701117,17.849392 0 0 0 10.6289,-3.59765 c 0.187,0.35606 0.5098,0.62976 0.8965,0.67578 l 21.625,2.55078 0,3.66601 -13.7773,-1.64648 0,2.71875 30.4902,3.67773 0.9043,0.10938 6.6719,0.80469 0,-0.72657 c 1.3967,-0.0565 3.1815,-0.10531 5.4473,-0.041 1.9795,0.0555 3.9683,0.20603 5.4414,0.51367 0.7366,0.15375 1.3427,0.35149 1.7304,0.5625 0.3877,0.21101 0.5027,0.3893 0.5196,0.51172 0.028,0.20117 -0.022,0.35119 -0.1836,0.56055 -0.1614,0.20933 -0.4407,0.43814 -0.7637,0.65234 -0.3231,0.2142 -0.685,0.41627 -1.0176,0.61328 -0.3326,0.19686 -0.6343,0.36498 -0.8808,0.6582 -0.1234,0.14654 -0.2502,0.36319 -0.2403,0.63868 0.011,0.27561 0.173,0.51124 0.3438,0.6582 0.3415,0.29419 0.7792,0.44217 1.4863,0.63086 1.4143,0.3771 3.89,0.78631 8.0996,1.32422 0.8757,0.1123 1.5352,0.2512 1.9688,0.39843 0.409,0.13905 0.5476,0.28495 0.5625,0.29688 -0.011,0.0208 -0.01,0.0361 -0.059,0.0957 -0.1409,0.16942 -0.482,0.44058 -0.9805,0.73047 -1.6368,0.95189 -4.9996,2.19526 -9.3262,3.59766 -0.9118,-0.75 -2.2539,-1.22323 -3.9785,-1.16992 -3.8099,0.11779 -6.1753,2.81829 -8.334,5.21679 0,0 -0.058,0.35894 -0.1777,0.89844 -0.1199,0.5398 2.0976,2.69716 3.2969,3.47656 1.1993,0.7795 3.8776,0.14116 7.3144,-1.49805 3.1473,-1.5012 3.8532,-4.12351 2.707,-5.97851 4.1129,-1.338 7.3076,-2.52611 9.0762,-3.55469 0.5588,-0.32483 0.9829,-0.62753 1.2813,-0.98633 0.1491,-0.17939 0.2727,-0.38042 0.3261,-0.62304 0.054,-0.24262 0.012,-0.52287 -0.1113,-0.74414 -0.2463,-0.44226 -0.6784,-0.65548 -1.2324,-0.84375 -0.5541,-0.18841 -1.2708,-0.33556 -2.1914,-0.45313 -4.1929,-0.5357 -6.6619,-0.94761 -7.9492,-1.29101 -0.4515,-0.12062 -0.5693,-0.19985 -0.7266,-0.27735 0.1044,-0.0749 0.145,-0.11653 0.3066,-0.21289 0.3102,-0.18369 0.6909,-0.39539 1.0664,-0.64453 0.3756,-0.24899 0.7484,-0.5336 1.0371,-0.9082 0.289,-0.3746 0.4927,-0.87645 0.418,-1.41797 -0.086,-0.62041 -0.5581,-1.0602 -1.1113,-1.36133 -0.5533,-0.30112 -1.2472,-0.51081 -2.0469,-0.67773 -1.5988,-0.33398 -3.6267,-0.48209 -5.6406,-0.53907 -1.3295,-0.0374 -2.5344,-0.037 -3.5918,-0.0195 -0.7367,0.0123 -1.3007,0.0376 -1.8867,0.0605 l 0,-0.88867 -14.0567,-1.67969 0,-3.68164 22.209,2.62109 c 0.617,0.0727 1.1171,-0.39911 1.1172,-1.05273 l 0,-37.66211 c -6e-4,-0.65332 -0.5005,-1.23414 -1.1172,-1.29688 l -54.0664,-5.49218 z m 1.0684,2.42187 51.8808,5.32227 0,35.26172 -51.8808,-6.07032 0,-0.21484 a 17.701117,17.849392 0 0 0 5.1074,-12.52344 17.701117,17.849392 0 0 0 -5.1074,-12.53515 l 0,-9.24024 z m -32.6367,39.52344 c -2.1819,0.0444 -4.0292,1.61852 -4.42,3.76562 -1.4733,7.4826 -2.3473,12.07832 -2.7109,15.17579 -0.1817,1.5487 -0.3144,2.64992 -0.051,4.16992 0.1319,0.7599 0.3668,1.76072 1.2832,2.82422 0.9015,1.0462 2.5571,1.71637 3.7149,1.76757 1.2389,0.054 1.6403,-0.15327 2.0918,-0.29297 0.2756,-0.086 0.5224,-0.1898 0.7754,-0.2871 l 0,16.11328 38.7207,0 0,-18.09571 c 0.9709,2.4152 1.9612,4.87273 2.7519,6.79493 0.4763,1.1576 0.8929,2.15408 1.2246,2.92578 0.3318,0.7715 0.2003,0.78136 0.9473,1.97656 0.8437,1.3501 1.9351,1.79588 2.584,2.00976 0.6488,0.2139 1.0639,0.24348 1.414,0.26368 0.7004,0.04 1.1553,-0.0132 1.6407,-0.0742 0.9705,-0.1234 1.9643,-0.33552 3.1132,-0.60742 2.298,-0.5434 5.1186,-1.33983 7.9141,-2.16993 5.591,-1.6602 11.0488,-3.45507 11.0488,-3.45507 5.9447,-1.8437 3.0138,-10.76391 -2.8652,-8.72071 0,0 -5.374,1.7647 -10.7969,3.375 -2.6729,0.7937 -5.3471,1.54052 -7.3086,2.00782 -0.152,-0.3656 -0.2567,-0.60784 -0.4277,-1.02344 -0.9325,-2.2662 -2.1198,-5.20492 -3.2832,-8.10742 -2.3266,-5.80523 -4.5645,-11.47071 -4.5645,-11.47071 -1.154,-1.77485 -2.5886,-2.66731 -4.3085,-2.96289 -12.7892,-1.56897 -25.8215,-4.50223 -38.4883,-5.90234 z"
         id="path28254-5" />
      <path
         style="opacity:1;fill:#000000;fill-opacity:1;fill-rule:nonzero;stroke:none;stroke-width:1.60000002;stroke-linecap:round;stroke-linejoin:round;stroke-miterlimit:4;stroke-dasharray:none;stroke-dashoffset:0;stroke-opacity:1"
         d="m 1358.5078,562.96094 c -2.2999,0.0468 -4.2502,1.70744 -4.6621,3.9707 -1.553,7.8873 -2.4722,12.73109 -2.8555,15.99609 -0.1916,1.6325 -0.3309,2.79234 -0.053,4.39454 0.139,0.801 0.3876,1.85556 1.3535,2.97656 0.9503,1.1028 2.6937,1.80938 3.9141,1.86328 1.3059,0.057 1.7292,-0.16129 2.2051,-0.30859 0.2905,-0.091 0.5517,-0.20014 0.8183,-0.30274 l 0,13.33399 40.8145,0 0,-15.42383 c 1.0234,2.5459 2.0669,5.13591 2.9004,7.16211 0.502,1.2202 0.9394,2.27068 1.289,3.08398 0.3498,0.8133 0.2126,0.82409 1,2.08399 0.8894,1.4231 2.0388,1.89364 2.7227,2.11914 0.6839,0.2255 1.1231,0.25799 1.4922,0.27929 0.7382,0.042 1.2169,-0.0161 1.7285,-0.0801 1.023,-0.13 2.0721,-0.35403 3.2832,-0.64063 2.4222,-0.5729 5.3931,-1.41201 8.3398,-2.28711 5.8934,-1.75 11.6485,-3.64258 11.6485,-3.64258 0.1071,-0.0332 0.2049,-0.0738 0.3066,-0.11133 l 0,-9.11914 c -0.9484,-0.3539 -2.073,-0.39713 -3.3281,0.0391 0,0 -5.6648,1.86119 -11.3809,3.55859 -2.8175,0.8366 -5.6355,1.62253 -7.7031,2.11523 -0.1603,-0.3854 -0.271,-0.64002 -0.4512,-1.07812 -0.9829,-2.3888 -2.2346,-5.48738 -3.4609,-8.54688 -2.4524,-6.1192 -4.8106,-12.09179 -4.8106,-12.09179 -1.2164,-1.8709 -2.7299,-2.81145 -4.5429,-3.12305 -13.4808,-1.6538 -27.2165,-4.74486 -40.5684,-6.2207 z"
         transform="translate(-1.2207031e-4,0)"
         id="path28268-0" />
      <path
         style="opacity:1;fill:#666666;fill-opacity:1;fill-rule:nonzero;stroke:none;stroke-width:2;stroke-linecap:round;stroke-linejoin:round;stroke-miterlimit:4;stroke-dasharray:none;stroke-dashoffset:0;stroke-opacity:1"
         d="m 1359.7958,481.37054 c -0.4789,-0.0482 -0.8666,0.33302 -0.8671,0.85156 l 0,7.13281 a 14.391075,14.511623 0 0 0 -8.502,-2.82421 14.391075,14.511623 0 0 0 -14.3926,14.51171 14.391075,14.511623 0 0 0 14.3926,14.51172 14.391075,14.511623 0 0 0 8.6406,-2.92382 c 0.1522,0.28893 0.4143,0.51143 0.7285,0.54882 l 17.5801,2.07422 0,2.97852 -11.2011,-1.33789 0,2.21093 24.789,2.99024 0.7344,0.0879 0.7539,-0.16602 0.062,-1.96093 -6.8184,-0.83008 0,-2.99219 18.0547,2.13086 c 0.5016,0.0591 0.9081,-0.32408 0.9082,-0.85547 l 0,-30.61914 c -5e-4,-0.53115 -0.4069,-1.00368 -0.9082,-1.05469 l -43.9551,-4.46484 z m 0.8692,1.96875 42.1797,4.32617 0,28.66797 -42.1797,-4.93555 0,-0.17578 a 14.391075,14.511623 0 0 0 4.1523,-10.17969 14.391075,14.511623 0 0 0 -4.1523,-10.1875 l 0,-7.51562 z"
         id="ellipse28274-5" />
      <path
         style="opacity:1;fill:#666666;fill-opacity:1;fill-rule:nonzero;stroke:none;stroke-width:1.60000002;stroke-linecap:round;stroke-linejoin:round;stroke-miterlimit:4;stroke-dasharray:none;stroke-dashoffset:0;stroke-opacity:1"
         d="m 1334.1305,515.47153 c -1.7739,0.0361 -3.2761,1.3169 -3.5938,3.0625 -1.1978,6.08339 -1.9075,9.81964 -2.2031,12.33789 -0.1477,1.25913 -0.2553,2.15483 -0.041,3.39062 0.1072,0.61779 0.298,1.43029 1.043,2.29492 0.7329,0.85054 2.0782,1.39591 3.0195,1.4375 1.0073,0.044 1.3341,-0.12466 1.7012,-0.23828 0.2241,-0.0699 0.4252,-0.15525 0.6309,-0.23437 l 0,13.09961 27.4082,0 a 18.658499,18.814795 0 0 1 -1.1192,-6.36914 18.658499,18.814795 0 0 1 9.9238,-16.61133 c -0.7671,-1.93179 -1.9746,-4.96289 -1.9746,-4.96289 -0.9382,-1.44296 -2.1055,-2.1679 -3.5039,-2.40821 -10.3976,-1.27558 -20.9928,-3.66052 -31.291,-4.79882 z"
         id="path28276-9" />
      <path
         style="opacity:1;fill:#666666;fill-opacity:1;fill-rule:nonzero;stroke:none;stroke-width:2;stroke-linecap:round;stroke-linejoin:round;stroke-miterlimit:4;stroke-dasharray:none;stroke-dashoffset:0;stroke-opacity:1"
         d="m 1434.7539,503.30859 c -1.8792,2.54696 -3.004,5.69276 -3.0039,9.11133 0,3.29943 1.0763,6.47686 3.0039,9.09375 l 0,-18.20508 z"
         transform="translate(-1.2207031e-4,0)"
         id="path28282-34" />
      <path
         style="opacity:1;fill:#cccccc;fill-opacity:1;fill-rule:nonzero;stroke:none;stroke-width:1.60000002;stroke-linecap:round;stroke-linejoin:round;stroke-miterlimit:4;stroke-dasharray:none;stroke-dashoffset:0;stroke-opacity:1"
         d="m 1413.0156,489.41211 c -1.3357,0.0272 -2.4659,0.99228 -2.7051,2.30664 -0.9019,4.58052 -1.4375,7.39489 -1.6601,9.29102 -0.1112,0.94806 -0.1929,1.62223 -0.031,2.55273 0.081,0.46516 0.2262,1.07749 0.7871,1.72852 0.5519,0.64041 1.5628,1.05072 2.2715,1.08203 0.7584,0.0331 1.0049,-0.0941 1.2813,-0.17969 0.1687,-0.0526 0.3197,-0.11621 0.4746,-0.17578 l 0,9.86328 18.7285,0 a 15.16943,15.296498 0 0 1 -0.4121,-3.46289 15.16943,15.296498 0 0 1 3.0039,-9.0918 l 0,-10.54492 c -7.2419,-0.99562 -14.5846,-2.57842 -21.7383,-3.36914 z"
         transform="translate(-1.2207031e-4,0)"
         id="path28290-2" />
      <path
         id="path66561-3"
         d="m 1404.6081,537.31784 c 0,0 0,5.48295 0,5.48295 0,0 5.0976,0.56371 5.0976,0.56371 0,0 0,-5.494 0,-5.494 0,0 -5.0976,-0.55266 -5.0976,-0.55266 0,0 0,0 0,0 m 0.49,0.58115 c 0,0 4.1159,0.44708 4.1159,0.44708 0,0 0,4.43452 0,4.43452 0,0 -4.1159,-0.45429 -4.1159,-0.45429 0,0 0,-4.42731 0,-4.42731 0,0 0,0 0,0"
         style="opacity:1;fill:#666666;fill-opacity:1;fill-rule:nonzero;stroke:none;stroke-width:1.60000002;stroke-linecap:round;stroke-linejoin:round;stroke-miterlimit:4;stroke-dasharray:none;stroke-dashoffset:0;stroke-opacity:1" />
      <path
         id="path66569-8"
         d="m 1413.1258,539.37959 c 0,0 15.0739,1.641 15.0739,1.641 0,0 0,3.24392 0,3.24392 0,0 -15.0739,-1.66017 -15.0739,-1.66017 0,0 0,-3.22475 0,-3.22475"
         style="opacity:1;fill:#cccccc;fill-opacity:1;fill-rule:nonzero;stroke:none;stroke-width:3;stroke-linecap:round;stroke-linejoin:round;stroke-miterlimit:4;stroke-dasharray:none;stroke-dashoffset:0;stroke-opacity:1" />
      <path
         style="opacity:1;fill:#cccccc;fill-opacity:1;fill-rule:nonzero;stroke:none;stroke-width:3;stroke-linecap:round;stroke-linejoin:round;stroke-miterlimit:4;stroke-dasharray:none;stroke-dashoffset:0;stroke-opacity:1"
         d="m 1413.125,546.1875 0,3.22656 21.6289,2.43946 0,-3.25196 -21.6289,-2.41406 z"
         transform="translate(-1.2207031e-4,0)"
         id="path66571-9" />
      <path
         id="path66573-5"
         d="m 1413.1258,552.99719 c 0,0 10.878,1.2426 10.878,1.2426 0,0 0,3.23858 0,3.23858 0,0 -10.878,-1.25643 -10.878,-1.25643 0,0 0,-3.22475 0,-3.22475"
         style="opacity:1;fill:#cccccc;fill-opacity:1;fill-rule:nonzero;stroke:none;stroke-width:3;stroke-linecap:round;stroke-linejoin:round;stroke-miterlimit:4;stroke-dasharray:none;stroke-dashoffset:0;stroke-opacity:1" />
      <path
         style="opacity:1;fill:#cccccc;fill-opacity:1;fill-rule:nonzero;stroke:none;stroke-width:3;stroke-linecap:round;stroke-linejoin:round;stroke-miterlimit:4;stroke-dasharray:none;stroke-dashoffset:0;stroke-opacity:1"
         d="m 1425.584,554.41992 0,3.24024 9.1699,1.06054 0,-3.25195 -9.1699,-1.04883 z"
         transform="translate(-1.2207031e-4,0)"
         id="path66575-0" />
      <path
         id="path66577-1"
         d="m 1404.6081,550.88985 c 0,0 0,5.48294 0,5.48294 0,0 5.0976,0.59107 5.0976,0.59107 0,0 0,-5.494 0,-5.494 0,0 -5.0976,-0.58001 -5.0976,-0.58001 0,0 0,0 0,0 m 0.49,0.58378 c 0,0 4.1159,0.46917 4.1159,0.46917 0,0 0,4.43452 0,4.43452 0,0 -4.1159,-0.47638 -4.1159,-0.47638 0,0 0,-4.42731 0,-4.42731 0,0 0,0 0,0"
         style="opacity:1;fill:#666666;fill-opacity:1;fill-rule:nonzero;stroke:none;stroke-width:1.60000002;stroke-linecap:round;stroke-linejoin:round;stroke-miterlimit:4;stroke-dasharray:none;stroke-dashoffset:0;stroke-opacity:1" />
      <path
         id="path66579-7"
         d="m 1406.2449,551.78749 c 0,0 2.7989,3.33352 2.7989,3.33352 0,0 -0.9794,0.94066 -0.9794,0.94066 0,0 -2.7967,-3.33328 -2.7967,-3.33328 0,0 0.9772,-0.9409 0.9772,-0.9409"
         style="opacity:1;fill:#1f7a7a;fill-opacity:1;fill-rule:nonzero;stroke:none;stroke-width:1.60000002;stroke-linecap:round;stroke-linejoin:round;stroke-miterlimit:4;stroke-dasharray:none;stroke-dashoffset:0;stroke-opacity:1" />
      <path
         id="path66581-1"
         d="m 1409.0438,553.16066 c 0,0 -2.7989,2.69052 -2.7989,2.69052 0,0 -0.9772,-1.1654 -0.9772,-1.1654 0,0 2.7967,-2.69076 2.7967,-2.69076 0,0 0.9794,1.16564 0.9794,1.16564"
         style="opacity:1;fill:#1f7a7a;fill-opacity:1;fill-rule:nonzero;stroke:none;stroke-width:1.60000002;stroke-linecap:round;stroke-linejoin:round;stroke-miterlimit:4;stroke-dasharray:none;stroke-dashoffset:0;stroke-opacity:1" />
      <path
         id="path66583-9"
         d="m 1404.6081,544.10378 c 0,0 0,5.48294 0,5.48294 0,0 5.0976,0.57739 5.0976,0.57739 0,0 0,-5.494 0,-5.494 0,0 -5.0976,-0.56633 -5.0976,-0.56633 0,0 0,0 0,0 m 0.49,0.58246 c 0,0 4.1159,0.45812 4.1159,0.45812 0,0 0,4.43452 0,4.43452 0,0 -4.1159,-0.46533 -4.1159,-0.46533 0,0 0,-4.42731 0,-4.42731 0,0 0,0 0,0"
         style="opacity:1;fill:#666666;fill-opacity:1;fill-rule:nonzero;stroke:none;stroke-width:1.60000002;stroke-linecap:round;stroke-linejoin:round;stroke-miterlimit:4;stroke-dasharray:none;stroke-dashoffset:0;stroke-opacity:1" />
      <path
         id="path66585-8"
         d="m 1406.2449,544.99702 c 0,0 2.7989,3.32601 2.7989,3.32601 0,0 -0.9794,0.94328 -0.9794,0.94328 0,0 -2.7967,-3.32576 -2.7967,-3.32576 0,0 0.9772,-0.94353 0.9772,-0.94353"
         style="opacity:1;fill:#1f7a7a;fill-opacity:1;fill-rule:nonzero;stroke:none;stroke-width:1.60000002;stroke-linecap:round;stroke-linejoin:round;stroke-miterlimit:4;stroke-dasharray:none;stroke-dashoffset:0;stroke-opacity:1" />
      <path
         id="path66587-2"
         d="m 1409.0438,546.36271 c 0,0 -2.7989,2.69802 -2.7989,2.69802 0,0 -0.9772,-1.16278 -0.9772,-1.16278 0,0 2.7968,-2.69826 2.7968,-2.69826 0,0 0.9793,1.16302 0.9793,1.16302"
         style="opacity:1;fill:#1f7a7a;fill-opacity:1;fill-rule:nonzero;stroke:none;stroke-width:1.60000002;stroke-linecap:round;stroke-linejoin:round;stroke-miterlimit:4;stroke-dasharray:none;stroke-dashoffset:0;stroke-opacity:1" />
      <path
         style="opacity:1;fill:#cccccc;fill-opacity:1;fill-rule:nonzero;stroke:none;stroke-width:3;stroke-linecap:round;stroke-linejoin:round;stroke-miterlimit:4;stroke-dasharray:none;stroke-dashoffset:0;stroke-opacity:1"
         d="m 1429.5293,541.16602 0,3.24414 5.2246,0.57617 0,-3.25195 -5.2246,-0.56836 z"
         transform="translate(-1.2207031e-4,0)"
         id="path66589-6" />
      <path
         d="m 1406.041,526.09027 c -0.5658,0.65409 -0.6885,1.64157 -0.3256,2.55345 0.1495,0.36644 0.347,0.65745 0.2776,0.40865 -0.1602,-0.58033 -0.1922,-1.50365 -0.069,-2.10606 0.043,-0.20254 0.1388,-0.52605 0.2135,-0.71953 0.075,-0.19925 0.1335,-0.35992 0.1228,-0.36679 -0.01,-0.006 -0.1067,0.0982 -0.2189,0.23028 0,0 0,0 0,0"
         id="path66593-7"
         style="fill:#1f7a7a;fill-opacity:1;stroke:none" />
      <path
         d="m 1410.9625,526.52105 c 0.2627,0.70143 0.3538,1.18343 0.3592,1.85239 0.01,0.45579 -0.022,0.76993 -0.086,0.99941 -0.048,0.17931 -0.08,0.34304 -0.064,0.35625 0.011,0.0125 0.08,-0.0838 0.1554,-0.21416 0.5363,-0.92345 0.4451,-2.09142 -0.2305,-2.95116 0,0 -0.2251,-0.28266 -0.2251,-0.28266 0,0 0.091,0.23993 0.091,0.23993"
         id="path66595-5"
         style="fill:#1f7a7a;fill-opacity:1;stroke:none" />
      <path
         d="m 1406.7566,526.49826 c -0.3151,0.35254 -0.4005,0.62541 -0.4005,1.26955 0,0.54633 0.011,0.59346 0.1816,0.95644 0.1014,0.20621 0.1869,0.3705 0.1976,0.36585 0,-0.0111 -0.022,-0.16328 -0.064,-0.34033 -0.1549,-0.65464 -0.075,-1.54925 0.1923,-2.19439 0.059,-0.13768 0.096,-0.24883 0.086,-0.24994 -0.011,0 -0.1015,0.0872 -0.1924,0.19282 0,0 0,0 0,0"
         id="path66597-9"
         style="fill:#1f7a7a;fill-opacity:1;stroke:none" />
      <path
         d="m 1410.2873,526.86561 c 0.2733,0.63903 0.3697,1.78972 0.1983,2.35933 -0.1125,0.37411 0.011,0.26611 0.209,-0.18544 0.2143,-0.47878 0.2143,-1.10099 0,-1.63033 -0.08,-0.20424 -0.2305,-0.46758 -0.3322,-0.58185 0,0 -0.1822,-0.20899 -0.1822,-0.20899 0,0 0.1071,0.24728 0.1071,0.24728"
         id="path66599-3"
         style="fill:#1f7a7a;fill-opacity:1;stroke:none" />
      <path
         d="m 1407.2108,527.10352 c -0.3153,0.41583 -0.374,1.04242 -0.1389,1.56749 0.1389,0.30797 0.171,0.31709 0.1015,0.0336 -0.085,-0.35413 -0.027,-1.2109 0.1069,-1.51911 0.059,-0.14344 0.1015,-0.25983 0.091,-0.26094 -0.011,0 -0.086,0.0774 -0.1603,0.17889 0,0 0,0 0,0"
         id="path66601-9"
         style="fill:#1f7a7a;fill-opacity:1;stroke:none" />
      <path
         d="m 1425.116,528.83724 c -0.3847,0.0295 -0.921,0.24571 -1.1917,0.47804 -0.6551,0.55685 -0.72,1.74843 -0.1463,2.49206 0.2816,0.36558 0.6283,0.61067 1.1538,0.82261 0.5095,0.20451 0.9487,0.46542 1.1222,0.66924 0.1899,0.22297 0.1899,0.61712 0,0.8404 -0.1627,0.17975 -0.6019,0.27211 -0.9,0.17666 -0.2764,-0.0815 -0.7098,-0.35933 -0.9373,-0.5978 -0.1679,-0.17996 -0.2112,-0.20195 -0.2708,-0.13876 -0.038,0.0423 -0.249,0.2573 -0.471,0.4827 0,0 -0.4005,0.41471 -0.4005,0.41471 0,0 0.1624,0.16204 0.1624,0.16204 0.2219,0.2205 0.8553,0.60657 1.2453,0.75827 0.1896,0.0782 0.5418,0.15058 0.8399,0.18242 1.421,0.15183 2.257,-0.46632 2.3222,-1.70625 0.054,-1.06135 -0.3638,-1.62159 -1.6173,-2.19425 -0.629,-0.28643 -1.0734,-0.5823 -1.1493,-0.75827 -0.076,-0.19335 -0.016,-0.50569 0.1355,-0.64042 0.3686,-0.33222 1.0518,-0.19696 1.6594,0.33041 0,0 0.152,0.13189 0.152,0.13189 0,0 0.4668,-0.45551 0.4668,-0.45551 0,0 0.4724,-0.45512 0.4724,-0.45512 0,0 -0.2607,-0.2128 -0.2607,-0.2128 -0.6677,-0.55671 -1.5412,-0.8448 -2.387,-0.78227 0,0 0,0 0,0"
         id="path66603-9"
         style="fill:#1f7a7a;fill-opacity:1;stroke:none" />
      <path
         d="m 1409.9124,527.5292 c 0.1393,0.40619 0.1821,0.84261 0.1178,1.25633 -0.032,0.18665 -0.043,0.35257 -0.032,0.36519 0.011,0.0125 0.07,-0.0848 0.1286,-0.21686 0.2036,-0.46827 0.1018,-1.26226 -0.2035,-1.59361 0,0 -0.1125,-0.11534 -0.1125,-0.11534 0,0 0.1018,0.30429 0.1018,0.30429"
         id="path66605-7"
         style="fill:#1f7a7a;fill-opacity:1;stroke:none" />
      <path
         d="m 1408.1998,527.31026 c -0.3048,0.14084 -0.4384,0.32829 -0.4705,0.67593 -0.048,0.57037 0.2994,1.02112 0.845,1.07842 0.5244,0.055 0.8562,-0.2556 0.8562,-0.79684 0,-0.38004 -0.1713,-0.70882 -0.4549,-0.88812 -0.2836,-0.17923 -0.4816,-0.19411 -0.7758,-0.0694 0,0 0,0 0,0"
         id="path66607-9"
         style="fill:#1f7a7a;fill-opacity:1;stroke:none" />
      <path
         d="m 1414.5426,529.67389 c -0.7952,0.92588 -1.896,2.21662 -2.454,2.87223 -0.5578,0.65534 -1.051,1.2308 -1.0939,1.27811 -0.075,0.0899 -0.032,0.10026 0.831,0.19245 0,0 0.9122,0.0974 0.9122,0.0974 0,0 0.4724,-0.58386 0.4724,-0.58386 0,0 0.4726,-0.58407 0.4726,-0.58407 0,0 1.1607,0.13491 1.1607,0.13491 0,0 1.1564,0.14025 1.1564,0.14025 0,0 -0.016,0.61601 -0.016,0.61601 0,0 -0.016,0.62173 -0.016,0.62173 0,0 0.7051,0.0753 0.7051,0.0753 0,0 0.7055,0.0754 0.7055,0.0754 0,0 0,-3.23459 0,-3.23459 0,0 0,-3.23455 0,-3.23455 0,0 -0.7001,-0.073 -0.7001,-0.073 0,0 -0.6943,-0.0724 -0.6943,-0.0724 0,0 -1.4414,1.67868 -1.4414,1.67868 m 1.4467,1.24873 c -0.011,0.53572 -0.027,0.97274 -0.032,0.97219 -0.027,0.0319 -1.323,-0.0938 -1.323,-0.12267 0,-0.10387 1.2746,-1.82209 1.3446,-1.81473 0.016,0 0.022,0.43521 0.011,0.96518 0,0 0,3e-5 0,3e-5"
         id="path66609-7"
         style="fill:#1f7a7a;fill-opacity:1;stroke:none" />
      <path
         d="m 1418.0897,531.43289 c 0,0 0.016,3.22567 0.016,3.22567 0,0 0.7171,0.0939 0.7171,0.0939 0,0 0.712,0.0934 0.712,0.0934 0,0 0,-1.30648 0,-1.30648 0,0 0,-1.30648 0,-1.30648 0,0 0.2537,0.0441 0.2537,0.0441 0,0 0.2483,0.0436 0.2483,0.0436 0,0 0.6263,1.29236 0.6263,1.29236 0.3458,0.7135 0.6537,1.32479 0.6862,1.36297 0.038,0.0445 0.3567,0.0959 0.8757,0.1398 0,0 0.8168,0.0699 0.8168,0.0699 0,0 -0.2327,-0.43005 -0.2327,-0.43005 -0.1298,-0.23958 -0.4814,-0.88468 -0.7842,-1.43768 -0.2973,-0.5465 -0.546,-1.01252 -0.546,-1.02407 0,-0.0114 0.1298,-0.0731 0.2865,-0.1433 0.3622,-0.15849 0.6056,-0.38163 0.7841,-0.72165 0.119,-0.23635 0.1406,-0.34986 0.146,-0.79496 0,-0.45727 -0.016,-0.56315 -0.1514,-0.86672 -0.2543,-0.58795 -0.7462,-0.98651 -1.4434,-1.17493 -0.1945,-0.055 -0.9506,-0.16276 -1.69,-0.23982 0,0 -1.332,-0.1389 -1.332,-0.1389 0,0 0.011,3.21929 0.011,3.21929 m 2.8167,-1.57099 c 0.2269,0.14524 0.4106,0.43639 0.4106,0.64465 0,0.25453 -0.1675,0.5146 -0.3998,0.6174 -0.1836,0.0848 -0.3186,0.0937 -0.8046,0.0425 0,0 -0.5776,-0.055 -0.5776,-0.055 0,0 -0.01,-0.72321 -0.01,-0.72321 -0.01,-0.39942 -0.01,-0.7463 0,-0.76885 0.01,-0.0284 0.2645,-0.0128 0.5883,0.0326 0.432,0.0568 0.6319,0.11248 0.7885,0.20986 0,0 0,0 0,0"
         id="path66611-3"
         style="fill:#1f7a7a;fill-opacity:1;stroke:none" />
      <path
         d="m 1430.6455,531.585 c -0.1633,0.0641 -0.4028,0.21312 -0.5225,0.32826 0,0 -0.2231,0.2145 -0.2231,0.2145 0,0 -0.038,-0.32905 -0.038,-0.32905 0,0 -0.038,-0.32906 -0.038,-0.32906 0,0 -0.3535,-0.0371 -0.3535,-0.0371 0,0 -0.348,-0.0366 -0.348,-0.0366 0,0 0,2.14701 0,2.14701 0,0 0,2.14698 0,2.14698 0,0 0.4078,0.0436 0.4078,0.0436 0,0 0.4079,0.0435 0.4079,0.0435 0,0 0,-1.36409 0,-1.36409 0,-1.5498 0.033,-1.69147 0.4408,-2.03738 0.2504,-0.21745 0.3919,-0.24901 0.7894,-0.17233 0.3322,0.064 0.5065,0.21599 0.6809,0.5945 0.093,0.20729 0.1035,0.36527 0.1035,1.71298 0,0 0,1.48134 0,1.48134 0,0 0.4142,0.0442 0.4142,0.0442 0,0 0.4088,0.0436 0.4088,0.0436 0,0 -0.016,-1.64625 -0.016,-1.64625 -0.016,-1.59392 -0.022,-1.64681 -0.1472,-1.91569 -0.2834,-0.61088 -0.6377,-0.88628 -1.2587,-0.98634 -0.354,-0.0604 -0.4465,-0.0527 -0.7079,0.0534 0,0 0,0 0,0"
         id="path66613-5"
         style="fill:#1f7a7a;fill-opacity:1;stroke:none" />
      <path
         style="fill:#1f7a7a;fill-opacity:1;stroke:none"
         d="m 1434.7539,532.16797 c -0.3662,0.19337 -0.6746,0.51664 -0.8769,0.94336 -0.1365,0.27624 -0.1524,0.37348 -0.1524,0.91992 0,0.5755 0.012,0.6397 0.1758,1.01172 0.1912,0.43561 0.4932,0.79374 0.8535,1.05664 l 0,-1.04492 c -0.1245,-0.22973 -0.2081,-0.49653 -0.2266,-0.79492 -0.024,-0.40785 0.062,-0.75147 0.2266,-1.02344 l 0,-1.06836 z"
         transform="translate(-1.2207031e-4,0)"
         id="path66615-0" />
      <path
         d="m 1408.018,529.35149 c -0.3368,0.0739 -0.3528,0.11826 -0.3528,1.11944 0,0.82282 0.016,0.97413 0.1603,1.60512 0.3262,1.39284 0.3743,1.4958 0.7702,1.53808 0.2996,0.0319 0.3745,-0.0348 0.5083,-0.46386 0.2944,-0.97049 0.3854,-1.4733 0.4175,-2.37393 0.027,-0.84938 0.027,-0.89544 -0.086,-1.05698 -0.064,-0.0932 -0.2087,-0.20622 -0.3158,-0.25203 -0.2354,-0.0938 -0.8827,-0.16186 -1.102,-0.11584 0,0 0,0 0,0"
         id="path66621-9"
         style="fill:#1f7a7a;fill-opacity:1;stroke:none" />
      <path
         style="opacity:1;fill:#666666;fill-opacity:1;fill-rule:nonzero;stroke:none;stroke-width:1.60000002;stroke-linecap:round;stroke-linejoin:round;stroke-miterlimit:4;stroke-dasharray:none;stroke-dashoffset:0;stroke-opacity:1"
         d="m 1369.6883,495.69354 c 0,0 0,4.22893 0,4.22893 0,0 3.9317,0.43478 3.9317,0.43478 0,0 0,-4.23745 0,-4.23745 0,0 -3.9317,-0.42626 -3.9317,-0.42626 0,0 0,0 0,0 m 0.3779,0.44823 c 0,0 3.1745,0.34483 3.1745,0.34483 0,0 0,3.42029 0,3.42029 0,0 -3.1745,-0.35039 -3.1745,-0.35039 0,0 0,-3.41473 0,-3.41473 0,0 0,0 0,0"
         id="path66625-4" />
      <path
         style="opacity:1;fill:#1f7a7a;fill-opacity:1;fill-rule:nonzero;stroke:none;stroke-width:1.60000002;stroke-linecap:round;stroke-linejoin:round;stroke-miterlimit:4;stroke-dasharray:none;stroke-dashoffset:0;stroke-opacity:1"
         d="m 1370.9507,496.37908 c 0,0 2.1588,2.55952 2.1588,2.55952 0,0 -0.7554,0.72957 -0.7554,0.72957 0,0 -2.1571,-2.55934 -2.1571,-2.55934 0,0 0.7537,-0.72975 0.7537,-0.72975"
         id="path66627-1" />
      <path
         style="opacity:1;fill:#1f7a7a;fill-opacity:1;fill-rule:nonzero;stroke:none;stroke-width:1.60000002;stroke-linecap:round;stroke-linejoin:round;stroke-miterlimit:4;stroke-dasharray:none;stroke-dashoffset:0;stroke-opacity:1"
         d="m 1373.1095,497.42663 c 0,0 -2.1588,2.08675 -2.1588,2.08675 0,0 -0.7537,-0.89481 -0.7537,-0.89481 0,0 2.1571,-2.08693 2.1571,-2.08693 0,0 0.7554,0.89499 0.7554,0.89499"
         id="path66629-4" />
      <path
         style="opacity:1;fill:#cccccc;fill-opacity:1;fill-rule:nonzero;stroke:none;stroke-width:3;stroke-linecap:round;stroke-linejoin:round;stroke-miterlimit:4;stroke-dasharray:none;stroke-dashoffset:0;stroke-opacity:1"
         d="m 1376.2579,497.28374 c 0,0 11.6263,1.26569 11.6263,1.26569 0,0 0,2.50199 0,2.50199 0,0 -11.6263,-1.28047 -11.6263,-1.28047 0,0 0,-2.48721 0,-2.48721"
         id="path66633-3" />
      <path
         style="opacity:1;fill:#cccccc;fill-opacity:1;fill-rule:nonzero;stroke:none;stroke-width:3;stroke-linecap:round;stroke-linejoin:round;stroke-miterlimit:4;stroke-dasharray:none;stroke-dashoffset:0;stroke-opacity:1"
         d="m 1376.2579,502.5353 c 0,0 18.0028,2.00817 18.0028,2.00817 0,0 0,2.51009 0,2.51009 0,0 -18.0028,-2.03105 -18.0028,-2.03105 0,0 0,-2.48721 0,-2.48721"
         id="path66635-6" />
      <path
         style="opacity:1;fill:#cccccc;fill-opacity:1;fill-rule:nonzero;stroke:none;stroke-width:3;stroke-linecap:round;stroke-linejoin:round;stroke-miterlimit:4;stroke-dasharray:none;stroke-dashoffset:0;stroke-opacity:1"
         d="m 1376.2579,507.78683 c 0,0 8.39,0.95841 8.39,0.95841 0,0 0,2.49787 0,2.49787 0,0 -8.39,-0.96907 -8.39,-0.96907 0,0 0,-2.48721 0,-2.48721"
         id="path66637-4" />
      <path
         style="opacity:1;fill:#cccccc;fill-opacity:1;fill-rule:nonzero;stroke:none;stroke-width:3;stroke-linecap:round;stroke-linejoin:round;stroke-miterlimit:4;stroke-dasharray:none;stroke-dashoffset:0;stroke-opacity:1"
         d="m 1385.8669,508.88448 c 0,0 9.0957,1.039 9.0957,1.039 0,0 0,2.51098 0,2.51098 0,0 -9.0957,-1.05056 -9.0957,-1.05056 0,0 0,-2.49942 0,-2.49942"
         id="path66639-2" />
      <path
         style="opacity:1;fill:#666666;fill-opacity:1;fill-rule:nonzero;stroke:none;stroke-width:1.60000002;stroke-linecap:round;stroke-linejoin:round;stroke-miterlimit:4;stroke-dasharray:none;stroke-dashoffset:0;stroke-opacity:1"
         d="m 1369.6883,506.16146 c 0,0 0,4.22893 0,4.22893 0,0 3.9317,0.45589 3.9317,0.45589 0,0 0,-4.23746 0,-4.23746 0,0 -3.9317,-0.44736 -3.9317,-0.44736 0,0 0,0 0,0 m 0.3779,0.45027 c 0,0 3.1745,0.36186 3.1745,0.36186 0,0 0,3.42029 0,3.42029 0,0 -3.1745,-0.36742 -3.1745,-0.36742 0,0 0,-3.41473 0,-3.41473 0,0 0,0 0,0"
         id="path66641-2" />
      <path
         style="opacity:1;fill:#666666;fill-opacity:1;fill-rule:nonzero;stroke:none;stroke-width:1.60000002;stroke-linecap:round;stroke-linejoin:round;stroke-miterlimit:4;stroke-dasharray:none;stroke-dashoffset:0;stroke-opacity:1"
         d="m 1369.6883,500.92745 c 0,0 0,4.22893 0,4.22893 0,0 3.9317,0.44533 3.9317,0.44533 0,0 0,-4.23745 0,-4.23745 0,0 -3.9317,-0.43681 -3.9317,-0.43681 0,0 0,0 0,0 m 0.3779,0.44924 c 0,0 3.1745,0.35335 3.1745,0.35335 0,0 0,3.42029 0,3.42029 0,0 -3.1745,-0.35891 -3.1745,-0.35891 0,0 0,-3.41473 0,-3.41473 0,0 0,0 0,0"
         id="path66647-7" />
      <path
         style="opacity:1;fill:#cccccc;fill-opacity:1;fill-rule:nonzero;stroke:none;stroke-width:3;stroke-linecap:round;stroke-linejoin:round;stroke-miterlimit:4;stroke-dasharray:none;stroke-dashoffset:0;stroke-opacity:1"
         d="m 1388.9094,498.66103 c 0,0 11.7776,1.28216 11.7776,1.28216 0,0 0,2.51826 0,2.51826 0,0 -11.7776,-1.29712 -11.7776,-1.29712 0,0 0,-2.5033 0,-2.5033"
         id="path66653-6" />
      <path
         style="fill:#1f7a7a;fill-opacity:1;stroke:none"
         id="path66657-1"
         d="m 1370.7935,487.03384 c -0.4364,0.50451 -0.5311,1.26614 -0.2512,1.96944 0.1153,0.28262 0.2677,0.50708 0.2141,0.31519 -0.1235,-0.4476 -0.1482,-1.15971 -0.053,-1.62437 0.033,-0.1562 0.1071,-0.40573 0.1647,-0.55497 0.058,-0.15367 0.103,-0.27759 0.095,-0.28289 0,-0.005 -0.082,0.0757 -0.1689,0.1776 0,0 0,0 0,0" />
      <path
         style="fill:#1f7a7a;fill-opacity:1;stroke:none"
         id="path66659-8"
         d="m 1374.5894,487.36609 c 0.2026,0.54102 0.2729,0.91277 0.277,1.42876 0,0.35153 -0.017,0.59381 -0.066,0.77083 -0.037,0.13827 -0.062,0.26454 -0.05,0.27474 0.01,0.01 0.062,-0.0646 0.1199,-0.16515 0.4136,-0.71225 0.3433,-1.6131 -0.1778,-2.2762 0,0 -0.1737,-0.21801 -0.1737,-0.21801 0,0 0.07,0.18503 0.07,0.18503" />
      <path
         style="fill:#1f7a7a;fill-opacity:1;stroke:none"
         id="path66661-5"
         d="m 1371.3454,487.3485 c -0.243,0.27194 -0.3089,0.48242 -0.3089,0.97919 0,0.42138 0.01,0.45776 0.14,0.73771 0.078,0.15905 0.1442,0.28577 0.1525,0.2822 0,-0.008 -0.017,-0.12596 -0.049,-0.2625 -0.1195,-0.50493 -0.058,-1.19495 0.1483,-1.69252 0.045,-0.10619 0.074,-0.19192 0.066,-0.19279 -0.01,0 -0.078,0.0673 -0.1484,0.14871 0,0 0,0 0,0" />
      <path
         style="fill:#1f7a7a;fill-opacity:1;stroke:none"
         id="path66663-1"
         d="m 1374.0686,487.63185 c 0.2108,0.49289 0.2852,1.38042 0.1529,1.81972 -0.087,0.28855 0.01,0.20525 0.1612,-0.14302 0.1653,-0.36925 0.1653,-0.84917 0,-1.25744 -0.062,-0.15752 -0.1777,-0.36062 -0.2562,-0.44878 0,0 -0.1405,-0.16119 -0.1405,-0.16119 0,0 0.083,0.19071 0.083,0.19071" />
      <path
         style="fill:#1f7a7a;fill-opacity:1;stroke:none"
         id="path66665-1"
         d="m 1371.6957,487.81538 c -0.2431,0.3207 -0.2885,0.80398 -0.1071,1.20896 0.1071,0.23753 0.1319,0.24457 0.078,0.026 -0.066,-0.27315 -0.021,-0.93394 0.082,-1.17168 0.045,-0.11063 0.078,-0.20038 0.07,-0.20125 -0.01,0 -0.066,0.0597 -0.1237,0.138 0,0 0,0 0,0" />
      <path
         style="fill:#1f7a7a;fill-opacity:1;stroke:none"
         id="path66667-3"
         d="m 1385.5058,489.15255 c -0.2967,0.0226 -0.7103,0.18954 -0.9192,0.36873 -0.5052,0.42946 -0.5553,1.34852 -0.1127,1.92207 0.2171,0.28196 0.4844,0.47101 0.8898,0.6345 0.393,0.15773 0.7317,0.35895 0.8656,0.51616 0.1464,0.17198 0.1464,0.47597 0,0.64816 -0.1255,0.13865 -0.4643,0.20989 -0.6942,0.13626 -0.2132,-0.0629 -0.5475,-0.27714 -0.723,-0.46105 -0.1294,-0.1388 -0.1629,-0.15576 -0.2088,-0.10703 -0.029,0.0326 -0.1921,0.19845 -0.3633,0.37227 0,0 -0.3089,0.3199 -0.3089,0.3199 0,0 0.1252,0.12496 0.1252,0.12496 0.1712,0.17007 0.6598,0.46785 0.9606,0.58486 0.1462,0.0603 0.4179,0.11611 0.6478,0.1407 1.096,0.11712 1.7408,-0.35968 1.791,-1.31601 0.042,-0.81862 -0.2805,-1.25071 -1.2473,-1.69241 -0.4852,-0.22092 -0.828,-0.44913 -0.8865,-0.58483 -0.058,-0.14913 -0.012,-0.39003 0.1045,-0.49397 0.2843,-0.25622 0.8112,-0.1519 1.2799,0.25487 0,0 0.1172,0.10169 0.1172,0.10169 0,0 0.36,-0.35132 0.36,-0.35132 0,0 0.3644,-0.35101 0.3644,-0.35101 0,0 -0.201,-0.16415 -0.201,-0.16415 -0.515,-0.42939 -1.1888,-0.65159 -1.8411,-0.60335 0,0 0,0 0,0" />
      <path
         style="fill:#1f7a7a;fill-opacity:1;stroke:none"
         id="path66669-0"
         d="m 1373.7794,488.14367 c 0.1074,0.31328 0.1405,0.6499 0.091,0.969 -0.025,0.14396 -0.033,0.27193 -0.025,0.28168 0.01,0.01 0.054,-0.0654 0.099,-0.1673 0.157,-0.36114 0.078,-0.97354 -0.157,-1.22911 0,0 -0.087,-0.089 -0.087,-0.089 0,0 0.078,0.23472 0.078,0.23472" />
      <path
         style="fill:#1f7a7a;fill-opacity:1;stroke:none"
         id="path66671-6"
         d="m 1372.4586,487.97481 c -0.2351,0.10862 -0.3383,0.25321 -0.363,0.52133 -0.037,0.43993 0.231,0.78761 0.6518,0.83176 0.4044,0.0425 0.6604,-0.19713 0.6604,-0.61459 0,-0.29309 -0.1321,-0.54668 -0.351,-0.68499 -0.2187,-0.13823 -0.3714,-0.14971 -0.5982,-0.0535 0,0 0,0 0,0" />
      <path
         style="fill:#1f7a7a;fill-opacity:1;stroke:none"
         id="path66673-4"
         d="m 1377.3506,489.79787 c -0.6133,0.71408 -1.4623,1.70961 -1.8927,2.2153 -0.4302,0.50544 -0.8106,0.94933 -0.8437,0.98578 -0.058,0.0694 -0.025,0.0773 0.641,0.14843 0,0 0.7035,0.0752 0.7035,0.0752 0,0 0.3644,-0.45034 0.3644,-0.45034 0,0 0.3645,-0.45047 0.3645,-0.45047 0,0 0.8952,0.10404 0.8952,0.10404 0,0 0.892,0.10821 0.892,0.10821 0,0 -0.013,0.47506 -0.013,0.47506 0,0 -0.012,0.47957 -0.012,0.47957 0,0 0.5438,0.0581 0.5438,0.0581 0,0 0.5441,0.0581 0.5441,0.0581 0,0 0,-2.49476 0,-2.49476 0,0 0,-2.49479 0,-2.49479 0,0 -0.5399,-0.0563 -0.5399,-0.0563 0,0 -0.5356,-0.0558 -0.5356,-0.0558 0,0 -1.1117,1.29476 -1.1117,1.29476 m 1.1159,0.9631 c -0.01,0.41322 -0.021,0.75029 -0.025,0.74984 -0.021,0.0246 -1.0205,-0.0724 -1.0205,-0.0946 0,-0.0801 0.9831,-1.40536 1.037,-1.39967 0.012,0 0.017,0.33568 0.01,0.74444 0,0 10e-5,0 10e-5,0" />
      <path
         style="fill:#1f7a7a;fill-opacity:1;stroke:none"
         id="path66675-4"
         d="m 1380.0864,491.15456 c 0,0 0.013,2.4879 0.013,2.4879 0,0 0.5531,0.0724 0.5531,0.0724 0,0 0.5492,0.072 0.5492,0.072 0,0 0,-1.00767 0,-1.00767 0,0 0,-1.0077 0,-1.0077 0,0 0.1957,0.034 0.1957,0.034 0,0 0.1915,0.0336 0.1915,0.0336 0,0 0.4831,0.99678 0.4831,0.99678 0.2666,0.55032 0.5042,1.02181 0.5292,1.05125 0.029,0.0343 0.2751,0.074 0.6754,0.10783 0,0 0.63,0.0539 0.63,0.0539 0,0 -0.1794,-0.33169 -0.1794,-0.33169 -0.1002,-0.18478 -0.3713,-0.68235 -0.6049,-1.10886 -0.2293,-0.42152 -0.4211,-0.78092 -0.4211,-0.78987 0,-0.009 0.1,-0.0564 0.2209,-0.11053 0.2794,-0.12221 0.4671,-0.29434 0.6048,-0.5566 0.092,-0.18228 0.1085,-0.26982 0.1126,-0.61313 0,-0.35267 -0.012,-0.43435 -0.1168,-0.66848 -0.196,-0.45349 -0.5755,-0.76091 -1.1133,-0.90622 -0.15,-0.0424 -0.7331,-0.12551 -1.3034,-0.18499 0,0 -1.0274,-0.1071 -1.0274,-0.1071 0,0 0.01,2.48301 0.01,2.48301 m 2.1725,-1.21173 c 0.175,0.11206 0.3168,0.33662 0.3168,0.49723 0,0.19633 -0.1292,0.39692 -0.3084,0.4762 -0.1417,0.0654 -0.2458,0.0723 -0.6206,0.0326 0,0 -0.4455,-0.0425 -0.4455,-0.0425 0,0 0,-0.55778 0,-0.55778 0,-0.30807 0,-0.5756 0,-0.59301 0,-0.0218 0.204,-0.01 0.4538,0.0253 0.3332,0.0438 0.4873,0.0867 0.6081,0.16183 0,0 0,0 0,0" />
      <path
         style="fill:#1f7a7a;fill-opacity:1;stroke:none"
         id="path66677-7"
         d="m 1389.7706,491.27186 c -0.126,0.0495 -0.3107,0.16438 -0.403,0.25317 0,0 -0.172,0.16546 -0.172,0.16546 0,0 -0.03,-0.25379 -0.03,-0.25379 0,0 -0.029,-0.2538 -0.029,-0.2538 0,0 -0.2727,-0.0288 -0.2727,-0.0288 0,0 -0.2684,-0.0281 -0.2684,-0.0281 0,0 0,1.65596 0,1.65596 0,0 0,1.65596 0,1.65596 0,0 0.3145,0.0336 0.3145,0.0336 0,0 0.3147,0.0336 0.3147,0.0336 0,0 0,-1.05209 0,-1.05209 0,-1.19536 0.025,-1.3046 0.3399,-1.5714 0.1931,-0.16772 0.3023,-0.19207 0.6089,-0.13294 0.2562,0.0494 0.3907,0.16661 0.5251,0.45856 0.071,0.15984 0.08,0.28171 0.08,1.32118 0,0 0,1.14254 0,1.14254 0,0 0.3195,0.034 0.3195,0.034 0,0 0.3154,0.0336 0.3154,0.0336 0,0 -0.013,-1.26972 -0.013,-1.26972 -0.012,-1.22938 -0.017,-1.27016 -0.1136,-1.47756 -0.2186,-0.47114 -0.4918,-0.6836 -0.9708,-0.76077 -0.273,-0.0466 -0.3444,-0.0406 -0.546,0.0412 0,0 0,0 0,0" />
      <path
         style="fill:#1f7a7a;fill-opacity:1;stroke:none"
         id="path66679-5"
         d="m 1393.2741,491.59512 c -0.4297,0.0939 -0.796,0.40067 -1.0107,0.85337 -0.1052,0.21308 -0.1178,0.28799 -0.1178,0.70944 0,0.44388 0.01,0.4941 0.1346,0.78102 0.3284,0.74797 1.0697,1.22182 1.8243,1.1723 0.5863,-0.0362 0.9957,-0.3113 1.2532,-0.84075 0.152,-0.3027 0.1604,-0.35122 0.1604,-0.72848 0,-0.47159 -0.076,-0.7401 -0.3082,-1.11039 -0.1731,-0.26968 -0.5613,-0.59787 -0.8693,-0.72449 -0.2572,-0.10779 -0.8263,-0.16755 -1.0665,-0.11202 0,0 0,0 0,0 m 1.037,0.69692 c 0.3839,0.24696 0.6371,0.80797 0.5823,1.30055 -0.055,0.48356 -0.3461,0.86564 -0.7173,0.94732 -0.725,0.1561 -1.3612,-0.38715 -1.4117,-1.20431 -0.034,-0.5642 0.1853,-0.9941 0.5897,-1.16678 0.2697,-0.11071 0.666,-0.06 0.957,0.12322 0,0 0,0 0,0" />
      <path
         style="fill:#1f7a7a;fill-opacity:1;stroke:none"
         id="path66681-3"
         d="m 1400.1107,492.34926 c -0.2884,0.0732 -0.6786,0.25273 -0.6786,0.31123 0,0.0226 0.072,0.1201 0.1611,0.2195 0,0 0.1612,0.1835 0.1612,0.1835 0,0 0.2969,-0.13075 0.2969,-0.13075 0.4074,-0.17771 0.7597,-0.17216 1.0314,0.01 0.2421,0.16065 0.3356,0.31012 0.3696,0.57498 0,0 0.025,0.20993 0.025,0.20993 0,0 -0.1997,0.006 -0.1997,0.006 -0.1104,0.006 -0.3058,0 -0.4332,-0.0142 -0.2632,-0.0277 -0.7851,0.025 -1.0057,0.0962 -0.1739,0.0581 -0.4325,0.26025 -0.5004,0.39256 -0.1483,0.27225 -0.1102,0.78026 0.076,1.05663 0.059,0.0873 0.2078,0.22918 0.3265,0.30936 0.1994,0.12929 0.263,0.14958 0.6448,0.19036 0.4797,0.0512 0.6708,0 0.9681,-0.27051 0,0 0.1572,-0.14542 0.1572,-0.14542 0,0 0,0.23424 0,0.23424 0,0 0,0.23427 0,0.23427 0,0 0.2889,0.0309 0.2889,0.0309 0,0 0.2848,0.0305 0.2848,0.0305 0,0 -0.021,-1.25051 -0.021,-1.25051 0,0 -0.021,-1.25494 -0.021,-1.25494 0,0 -0.119,-0.27391 -0.119,-0.27391 -0.068,-0.14684 -0.187,-0.33055 -0.2635,-0.40168 -0.3568,-0.32579 -1.0447,-0.47908 -1.5497,-0.34754 0,0 0,0 0,0 m 1.3586,2.05729 c 0,0.40092 -0.1742,0.70223 -0.4843,0.83589 -0.3523,0.15159 -0.8149,0.0528 -1.0228,-0.22144 -0.1273,-0.16206 -0.1145,-0.46681 0.021,-0.60543 0.2164,-0.22466 0.471,-0.27422 1.0951,-0.2171 0,0 0.3908,0.0369 0.3908,0.0369 0,0 0,0.17118 0,0.17118" />
      <path
         style="fill:#1f7a7a;fill-opacity:1;stroke:none"
         id="path66683-8"
         d="m 1395.7927,491.90458 c 0,0.0135 0.2746,0.76566 0.6127,1.6775 0.3382,0.91215 0.613,1.6785 0.613,1.70545 0,0.0316 0.1269,0.063 0.3723,0.0892 0,0 0.3682,0.0348 0.3682,0.0348 0,0 0.6223,-1.58424 0.6223,-1.58424 0,0 0.6186,-1.58574 0.6186,-1.58574 0,0 -0.2966,-0.0446 -0.2966,-0.0446 -0.1653,-0.0264 -0.3178,-0.0288 -0.3389,-0.009 -0.03,0.0284 -0.8382,2.16435 -0.9102,2.39498 -0.013,0.0436 -0.038,0.0769 -0.055,0.0751 -0.017,-0.003 -0.1607,-0.38573 -0.3172,-0.85632 -0.1565,-0.46601 -0.3637,-1.07213 -0.4567,-1.3516 0,0 -0.1776,-0.49948 -0.1776,-0.49948 0,0 -0.3254,-0.0343 -0.3254,-0.0343 -0.1817,-0.0191 -0.3295,-0.0257 -0.3295,-0.0121 0,0 0,-3e-5 0,-3e-5" />
      <path
         style="fill:#1f7a7a;fill-opacity:1;stroke:none"
         id="path66685-2"
         d="m 1372.3183,489.5492 c -0.2598,0.057 -0.2722,0.0912 -0.2722,0.86339 0,0.63463 0.013,0.75134 0.1237,1.23802 0.2516,1.07429 0.2888,1.15371 0.5941,1.18631 0.231,0.0246 0.2888,-0.027 0.392,-0.35778 0.2271,-0.74852 0.2973,-1.13633 0.322,-1.83099 0.021,-0.65513 0.021,-0.69065 -0.066,-0.81526 -0.05,-0.0718 -0.161,-0.15901 -0.2435,-0.19435 -0.1816,-0.0724 -0.6809,-0.12485 -0.85,-0.0893 0,0 0,0 0,0" />
      <path
         style="opacity:1;fill:#666666;fill-opacity:1;fill-rule:nonzero;stroke:none;stroke-width:1.60000002;stroke-linecap:round;stroke-linejoin:round;stroke-miterlimit:4;stroke-dasharray:none;stroke-dashoffset:0;stroke-opacity:1"
         d="m 1284.6397,523.68002 c 0,0 0,5.20162 0,5.20162 0,0 4.836,0.53478 4.836,0.53478 0,0 0,-5.2121 0,-5.2121 0,0 -4.836,-0.5243 -4.836,-0.5243 0,0 0,0 0,0 m 0.4649,0.55133 c 0,0 3.9046,0.42414 3.9046,0.42414 0,0 0,4.20698 0,4.20698 0,0 -3.9046,-0.43098 -3.9046,-0.43098 0,0 0,-4.20014 0,-4.20014 0,0 0,0 0,0"
         id="path66753-3" />
      <path
         style="opacity:1;fill:#cccccc;fill-opacity:1;fill-rule:nonzero;stroke:none;stroke-width:3;stroke-linecap:round;stroke-linejoin:round;stroke-miterlimit:4;stroke-dasharray:none;stroke-dashoffset:0;stroke-opacity:1"
         d="m 1292.7203,525.63598 c 0,0 14.3005,1.5568 14.3005,1.5568 0,0 0,3.07747 0,3.07747 0,0 -14.3005,-1.57498 -14.3005,-1.57498 0,0 0,-3.05929 0,-3.05929"
         id="path66761-1" />
      <path
         style="opacity:1;fill:#cccccc;fill-opacity:1;fill-rule:nonzero;stroke:none;stroke-width:3;stroke-linecap:round;stroke-linejoin:round;stroke-miterlimit:4;stroke-dasharray:none;stroke-dashoffset:0;stroke-opacity:1"
         d="m 1292.7203,532.09543 c 0,0 22.1436,2.47006 22.1436,2.47006 0,0 0,3.08743 0,3.08743 0,0 -22.1436,-2.4982 -22.1436,-2.4982 0,0 0,-3.05929 0,-3.05929"
         id="path66763-2" />
      <path
         style="opacity:1;fill:#cccccc;fill-opacity:1;fill-rule:nonzero;stroke:none;stroke-width:3;stroke-linecap:round;stroke-linejoin:round;stroke-miterlimit:4;stroke-dasharray:none;stroke-dashoffset:0;stroke-opacity:1"
         d="m 1292.7203,538.55485 c 0,0 10.3199,1.17884 10.3199,1.17884 0,0 0,3.07241 0,3.07241 0,0 -10.3199,-1.19196 -10.3199,-1.19196 0,0 0,-3.05929 0,-3.05929"
         id="path66765-0" />
      <path
         style="opacity:1;fill:#cccccc;fill-opacity:1;fill-rule:nonzero;stroke:none;stroke-width:3;stroke-linecap:round;stroke-linejoin:round;stroke-miterlimit:4;stroke-dasharray:none;stroke-dashoffset:0;stroke-opacity:1"
         d="m 1304.5395,539.90496 c 0,0 11.1878,1.27798 11.1878,1.27798 0,0 0,3.08853 0,3.08853 0,0 -11.1878,-1.2922 -11.1878,-1.2922 0,0 0,-3.07431 0,-3.07431"
         id="path66767-6" />
      <path
         style="opacity:1;fill:#666666;fill-opacity:1;fill-rule:nonzero;stroke:none;stroke-width:1.60000002;stroke-linecap:round;stroke-linejoin:round;stroke-miterlimit:4;stroke-dasharray:none;stroke-dashoffset:0;stroke-opacity:1"
         d="m 1284.6397,536.55564 c 0,0 0,5.20161 0,5.20161 0,0 4.836,0.56074 4.836,0.56074 0,0 0,-5.2121 0,-5.2121 0,0 -4.836,-0.55025 -4.836,-0.55025 0,0 0,0 0,0 m 0.4649,0.55382 c 0,0 3.9046,0.4451 3.9046,0.4451 0,0 0,4.20698 0,4.20698 0,0 -3.9046,-0.45193 -3.9046,-0.45193 0,0 0,-4.20015 0,-4.20015 0,0 0,0 0,0"
         id="path66769-5" />
      <path
         style="opacity:1;fill:#1f7a7a;fill-opacity:1;fill-rule:nonzero;stroke:none;stroke-width:1.60000002;stroke-linecap:round;stroke-linejoin:round;stroke-miterlimit:4;stroke-dasharray:none;stroke-dashoffset:0;stroke-opacity:1"
         d="m 1286.1925,537.40722 c 0,0 2.6553,3.16247 2.6553,3.16247 0,0 -0.9291,0.89239 -0.9291,0.89239 0,0 -2.6533,-3.16224 -2.6533,-3.16224 0,0 0.9271,-0.89262 0.9271,-0.89262"
         id="path66771-1" />
      <path
         style="opacity:1;fill:#1f7a7a;fill-opacity:1;fill-rule:nonzero;stroke:none;stroke-width:1.60000002;stroke-linecap:round;stroke-linejoin:round;stroke-miterlimit:4;stroke-dasharray:none;stroke-dashoffset:0;stroke-opacity:1"
         d="m 1288.8478,538.70993 c 0,0 -2.6553,2.55246 -2.6553,2.55246 0,0 -0.9271,-1.10559 -0.9271,-1.10559 0,0 2.6533,-2.55269 2.6533,-2.55269 0,0 0.9291,1.10582 0.9291,1.10582"
         id="path66773-9" />
      <path
         style="opacity:1;fill:#666666;fill-opacity:1;fill-rule:nonzero;stroke:none;stroke-width:1.60000002;stroke-linecap:round;stroke-linejoin:round;stroke-miterlimit:4;stroke-dasharray:none;stroke-dashoffset:0;stroke-opacity:1"
         d="m 1284.6397,530.11776 c 0,0 0,5.20161 0,5.20161 0,0 4.836,0.54776 4.836,0.54776 0,0 0,-5.21209 0,-5.21209 0,0 -4.836,-0.53728 -4.836,-0.53728 0,0 0,0 0,0 m 0.4649,0.55258 c 0,0 3.9046,0.43462 3.9046,0.43462 0,0 0,4.20697 0,4.20697 0,0 -3.9046,-0.44145 -3.9046,-0.44145 0,0 0,-4.20014 0,-4.20014 0,0 0,0 0,0"
         id="path66775-4" />
      <path
         style="opacity:1;fill:#cccccc;fill-opacity:1;fill-rule:nonzero;stroke:none;stroke-width:3;stroke-linecap:round;stroke-linejoin:round;stroke-miterlimit:4;stroke-dasharray:none;stroke-dashoffset:0;stroke-opacity:1"
         d="m 1308.2818,527.33006 c 0,0 14.4865,1.57706 14.4865,1.57706 0,0 0,3.09747 0,3.09747 0,0 -14.4865,-1.59547 -14.4865,-1.59547 0,0 0,-3.07906 0,-3.07906"
         id="path66781-4" />
      <path
         style="fill:#1f7a7a;fill-opacity:1;stroke:none"
         id="path66785-6"
         d="m 1285.9991,513.02855 c -0.5368,0.62051 -0.6532,1.55733 -0.3089,2.42242 0.1418,0.34763 0.3292,0.62371 0.2633,0.38767 -0.1519,-0.55053 -0.1823,-1.42647 -0.066,-1.99797 0.041,-0.19216 0.1317,-0.49907 0.2026,-0.68263 0.071,-0.18902 0.1267,-0.34145 0.1165,-0.34796 0,-0.006 -0.1013,0.0931 -0.2077,0.21847 0,0 0,0 0,0" />
      <path
         style="fill:#1f7a7a;fill-opacity:1;stroke:none"
         id="path66787-8"
         d="m 1290.6681,513.43721 c 0.2492,0.66545 0.3356,1.12272 0.3407,1.75738 0,0.43239 -0.02,0.73038 -0.081,0.9481 -0.046,0.17012 -0.076,0.32543 -0.061,0.33797 0.01,0.012 0.076,-0.0794 0.1475,-0.20316 0.5087,-0.87607 0.4222,-1.98411 -0.2187,-2.79975 0,0 -0.2136,-0.26814 -0.2136,-0.26814 0,0 0.086,0.2276 0.086,0.2276" />
      <path
         style="fill:#1f7a7a;fill-opacity:1;stroke:none"
         id="path66789-1"
         d="m 1286.678,513.41559 c -0.2989,0.33445 -0.38,0.59334 -0.38,1.2044 0,0.51831 0.01,0.56302 0.1723,0.90739 0.096,0.19562 0.1773,0.35147 0.1875,0.34708 0.01,-0.0104 -0.02,-0.15492 -0.061,-0.32288 -0.147,-0.62106 -0.071,-1.46976 0.1824,-2.08179 0.056,-0.13062 0.091,-0.23608 0.081,-0.23713 -0.01,-10e-4 -0.096,0.0828 -0.1825,0.18293 0,0 0,0 0,0" />
      <path
         style="fill:#1f7a7a;fill-opacity:1;stroke:none"
         id="path66791-0"
         d="m 1290.0276,513.7641 c 0.2592,0.60626 0.3507,1.6979 0.188,2.23827 -0.1067,0.35493 0.01,0.25245 0.1983,-0.17593 0.2033,-0.45419 0.2033,-1.04449 0,-1.54667 -0.076,-0.19376 -0.2186,-0.44357 -0.3152,-0.55198 0,0 -0.1728,-0.19829 -0.1728,-0.19829 0,0 0.1017,0.2346 0.1017,0.2346" />
      <path
         style="fill:#1f7a7a;fill-opacity:1;stroke:none"
         id="path66793-8"
         d="m 1287.1089,513.98982 c -0.2991,0.39446 -0.3549,0.9889 -0.1318,1.48705 0.1318,0.29217 0.1622,0.30082 0.096,0.0319 -0.081,-0.33596 -0.025,-1.14875 0.1014,-1.44116 0.056,-0.13609 0.096,-0.24648 0.086,-0.24754 -0.01,-10e-4 -0.081,0.0734 -0.1521,0.16972 0,0 0,0 0,0" />
      <path
         style="fill:#1f7a7a;fill-opacity:1;stroke:none"
         id="path66795-1"
         d="m 1304.0954,515.63457 c -0.365,0.0279 -0.8738,0.2331 -1.1307,0.45352 -0.6214,0.52826 -0.683,1.6587 -0.1387,2.36417 0.2672,0.34682 0.596,0.57935 1.0946,0.78042 0.4833,0.19401 0.9,0.44151 1.0646,0.63489 0.1802,0.21153 0.1802,0.58545 0,0.79726 -0.1543,0.17053 -0.571,0.25815 -0.8538,0.1676 -0.2622,-0.0774 -0.6734,-0.34087 -0.8892,-0.5671 -0.1593,-0.17074 -0.2004,-0.19158 -0.2569,-0.13165 -0.036,0.0401 -0.2363,0.24409 -0.4469,0.45791 0,0 -0.3799,0.39346 -0.3799,0.39346 0,0 0.154,0.15373 0.154,0.15373 0.2105,0.20916 0.8115,0.57543 1.1815,0.71936 0.1798,0.0741 0.514,0.14285 0.7968,0.17306 1.3481,0.14403 2.1412,-0.4424 2.203,-1.61871 0.052,-1.00688 -0.3451,-1.53838 -1.5343,-2.08167 -0.5967,-0.27172 -1.0184,-0.5524 -1.0903,-0.71935 -0.072,-0.18342 -0.015,-0.47975 0.1285,-0.60756 0.3497,-0.31516 0.9978,-0.18685 1.5743,0.31346 0,0 0.1441,0.12511 0.1441,0.12511 0,0 0.4429,-0.43213 0.4429,-0.43213 0,0 0.4482,-0.43176 0.4482,-0.43176 0,0 -0.2473,-0.20189 -0.2473,-0.20189 -0.6335,-0.52815 -1.4621,-0.80146 -2.2645,-0.74213 0,0 0,0 0,0" />
      <path
         style="fill:#1f7a7a;fill-opacity:1;stroke:none"
         id="path66797-2"
         d="m 1289.6719,514.39365 c 0.1321,0.38532 0.1727,0.79936 0.1117,1.19184 -0.031,0.17711 -0.041,0.33449 -0.031,0.34648 0.01,0.012 0.066,-0.0805 0.122,-0.20576 0.1931,-0.44422 0.097,-1.19747 -0.1931,-1.5118 0,0 -0.1067,-0.10946 -0.1067,-0.10946 0,0 0.097,0.2887 0.097,0.2887" />
      <path
         style="fill:#1f7a7a;fill-opacity:1;stroke:none"
         id="path66799-9"
         d="m 1288.0472,514.18593 c -0.2892,0.13362 -0.416,0.31144 -0.4464,0.64125 -0.046,0.5411 0.284,0.96874 0.8016,1.02308 0.4975,0.0522 0.8123,-0.24247 0.8123,-0.75594 0,-0.36053 -0.1625,-0.67246 -0.4316,-0.84255 -0.2691,-0.17004 -0.4569,-0.18416 -0.7359,-0.0658 0,0 0,0 0,0" />
      <path
         style="fill:#1f7a7a;fill-opacity:1;stroke:none"
         id="path66801-8"
         d="m 1294.0644,516.42828 c -0.7544,0.87837 -1.7986,2.10288 -2.328,2.72486 -0.5292,0.62171 -0.9971,1.16767 -1.0378,1.21252 -0.071,0.0853 -0.03,0.0951 0.7884,0.18259 0,0 0.8653,0.0924 0.8653,0.0924 0,0 0.4482,-0.5539 0.4482,-0.5539 0,0 0.4484,-0.55411 0.4484,-0.55411 0,0 1.1011,0.128 1.1011,0.128 0,0 1.0971,0.13306 1.0971,0.13306 0,0 -0.015,0.58437 -0.015,0.58437 0,0 -0.015,0.58984 -0.015,0.58984 0,0 0.669,0.0715 0.669,0.0715 0,0 0.6693,0.0715 0.6693,0.0715 0,0 0,-3.0686 0,-3.0686 0,0 0,-3.06861 0,-3.06861 0,0 -0.6642,-0.0692 -0.6642,-0.0692 0,0 -0.6588,-0.0687 -0.6588,-0.0687 0,0 -1.3673,1.59255 -1.3673,1.59255 m 1.3724,1.18465 c -0.01,0.50825 -0.025,0.92286 -0.031,0.92232 -0.026,0.0302 -1.2551,-0.089 -1.2551,-0.11638 0,-0.0985 1.2092,-1.72859 1.2756,-1.72162 0.015,0.002 0.02,0.4129 0.01,0.91568 0,0 0,0 0,0" />
      <path
         style="fill:#1f7a7a;fill-opacity:1;stroke:none"
         id="path66803-8"
         d="m 1297.4295,518.09704 c 0,0 0.015,3.06012 0.015,3.06012 0,0 0.6803,0.0891 0.6803,0.0891 0,0 0.6756,0.0886 0.6756,0.0886 0,0 0,-1.23946 0,-1.23946 0,0 0,-1.23945 0,-1.23945 0,0 0.2406,0.0419 0.2406,0.0419 0,0 0.2356,0.0414 0.2356,0.0414 0,0 0.5942,1.22605 0.5942,1.22605 0.3279,0.67689 0.6201,1.25684 0.6509,1.29305 0.036,0.0422 0.3384,0.091 0.8308,0.13262 0,0 0.7749,0.0663 0.7749,0.0663 0,0 -0.2208,-0.40799 -0.2208,-0.40799 -0.1231,-0.22727 -0.4567,-0.83929 -0.7439,-1.3639 -0.2821,-0.51845 -0.518,-0.96055 -0.518,-0.97153 0,-0.011 0.1231,-0.0693 0.2718,-0.13594 0.3436,-0.15035 0.5745,-0.36207 0.7438,-0.68464 0.1129,-0.22422 0.1334,-0.33188 0.1386,-0.75416 0,-0.4338 -0.015,-0.53425 -0.1437,-0.82223 -0.2412,-0.5578 -0.7079,-0.93591 -1.3693,-1.11467 -0.1845,-0.0522 -0.9018,-0.15438 -1.6033,-0.22752 0,0 -1.2636,-0.13175 -1.2636,-0.13175 0,0 0.01,3.05411 0.01,3.05411 m 2.6721,-1.4904 c 0.2153,0.1378 0.3896,0.41401 0.3896,0.61158 0,0.24148 -0.1589,0.48819 -0.3793,0.58572 -0.1742,0.0804 -0.3023,0.0889 -0.7634,0.0403 0,0 -0.5479,-0.0522 -0.5479,-0.0522 0,0 -0.01,-0.68608 -0.01,-0.68608 0,-0.37895 0,-0.70801 0,-0.72941 0.01,-0.0269 0.2509,-0.0121 0.5582,0.031 0.4098,0.0539 0.5993,0.10668 0.7479,0.19906 0,0 0,10e-6 0,10e-6" />
      <path
         style="fill:#1f7a7a;fill-opacity:1;stroke:none"
         id="path66805-6"
         d="m 1309.3411,518.24134 c -0.155,0.0608 -0.3821,0.20218 -0.4957,0.31139 0,0 -0.2116,0.20351 -0.2116,0.20351 0,0 -0.036,-0.31217 -0.036,-0.31217 0,0 -0.036,-0.31217 -0.036,-0.31217 0,0 -0.3354,-0.0352 -0.3354,-0.0352 0,0 -0.3302,-0.0347 -0.3302,-0.0347 0,0 0,2.03683 0,2.03683 0,0 0,2.03684 0,2.03684 0,0 0.3869,0.0413 0.3869,0.0413 0,0 0.3871,0.0413 0.3871,0.0413 0,0 0,-1.29408 0,-1.29408 0,-1.47029 0.031,-1.60469 0.4181,-1.93285 0.2375,-0.20631 0.3718,-0.23624 0.7489,-0.16349 0.3151,0.0607 0.4805,0.20489 0.6459,0.56399 0.088,0.19664 0.098,0.34653 0.098,1.6251 0,0 0,1.40532 0,1.40532 0,0 0.393,0.0419 0.393,0.0419 0,0 0.3878,0.0414 0.3878,0.0414 0,0 -0.016,-1.56178 -0.016,-1.56178 -0.015,-1.51214 -0.021,-1.5623 -0.1396,-1.8174 -0.2689,-0.57952 -0.605,-0.8408 -1.1942,-0.93574 -0.3358,-0.0573 -0.4236,-0.05 -0.6715,0.0507 0,0 0,0 0,0" />
      <path
         style="fill:#1f7a7a;fill-opacity:1;stroke:none"
         id="path66807-8"
         d="m 1313.6504,518.63893 c -0.5285,0.11551 -0.9791,0.49286 -1.2432,1.04967 -0.1294,0.26209 -0.1449,0.3542 -0.1449,0.8726 0,0.54598 0.01,0.60775 0.1657,0.96067 0.4038,0.91999 1.3157,1.50284 2.2438,1.4419 0.7212,-0.0445 1.2247,-0.38288 1.5414,-1.03409 0.187,-0.37233 0.1974,-0.43199 0.1974,-0.89606 0,-0.58004 -0.093,-0.91031 -0.3791,-1.36577 -0.2129,-0.33171 -0.6904,-0.73537 -1.0692,-0.89112 -0.3165,-0.1326 -1.0165,-0.2061 -1.3119,-0.1378 0,0 0,0 0,0 m 1.2756,0.85723 c 0.4721,0.30375 0.7836,0.9938 0.7161,1.59968 -0.068,0.59479 -0.4256,1.06475 -0.8821,1.16519 -0.8919,0.19199 -1.6744,-0.47618 -1.7365,-1.48131 -0.041,-0.69395 0.2279,-1.22272 0.7254,-1.43515 0.3317,-0.13614 0.8191,-0.0738 1.1771,0.15159 0,0 0,0 0,0" />
      <path
         style="fill:#1f7a7a;fill-opacity:1;stroke:none"
         id="path66809-2"
         d="m 1322.0595,519.56655 c -0.3548,0.0901 -0.8347,0.31085 -0.8347,0.3828 0,0.0277 0.089,0.14772 0.1982,0.26997 0,0 0.1982,0.22572 0.1982,0.22572 0,0 0.3652,-0.16082 0.3652,-0.16082 0.5011,-0.21858 0.9344,-0.21175 1.2687,0.0118 0.2978,0.19757 0.4127,0.38145 0.4545,0.70723 0,0 0.031,0.2582 0.031,0.2582 0,0 -0.2456,0.007 -0.2456,0.007 -0.1358,0.008 -0.3761,0 -0.5328,-0.0177 -0.3237,-0.0343 -0.9657,0.0309 -1.237,0.11837 -0.2139,0.0715 -0.532,0.32011 -0.6155,0.48283 -0.1825,0.33488 -0.1355,0.95974 0.094,1.29968 0.073,0.10741 0.2556,0.28186 0.4016,0.38049 0.2452,0.15905 0.3235,0.18402 0.7932,0.23417 0.59,0.063 0.825,0 1.1907,-0.33274 0,0 0.1934,-0.17888 0.1934,-0.17888 0,0 0,0.28813 0,0.28813 0,0 0,0.28813 0,0.28813 0,0 0.3554,0.0379 0.3554,0.0379 0,0 0.3502,0.0374 0.3502,0.0374 0,0 -0.026,-1.53808 -0.026,-1.53808 0,0 -0.026,-1.54361 -0.026,-1.54361 0,0 -0.1463,-0.33689 -0.1463,-0.33689 -0.084,-0.18062 -0.2301,-0.40661 -0.3241,-0.49409 -0.439,-0.40075 -1.2851,-0.58929 -1.9063,-0.42747 0,0 0,0 0,0 m 1.6711,2.53047 c 0,0.49313 -0.2142,0.86377 -0.5956,1.02816 -0.4334,0.18645 -1.0024,0.0649 -1.2581,-0.27238 -0.1565,-0.19935 -0.1409,-0.57419 0.026,-0.74471 0.2661,-0.27631 0.5793,-0.33725 1.3469,-0.26702 0,0 0.4807,0.0454 0.4807,0.0454 0,0 0,0.21055 0,0.21055" />
      <path
         style="fill:#1f7a7a;fill-opacity:1;stroke:none"
         id="path66811-0"
         d="m 1316.7483,519.01959 c 0,0.0166 0.3378,0.94173 0.7536,2.06332 0.416,1.12193 0.7541,2.06457 0.7541,2.09773 0,0.0387 0.156,0.0775 0.4578,0.10969 0,0 0.4529,0.0428 0.4529,0.0428 0,0 0.7655,-1.94864 0.7655,-1.94864 0,0 0.7608,-1.95044 0.7608,-1.95044 0,0 -0.3648,-0.0549 -0.3648,-0.0549 -0.2032,-0.0324 -0.3908,-0.0355 -0.4168,-0.0106 -0.036,0.0349 -1.031,2.66219 -1.1195,2.94585 -0.016,0.0536 -0.047,0.0946 -0.068,0.0923 -0.021,-0.003 -0.1977,-0.47444 -0.3902,-1.05327 -0.1925,-0.57323 -0.4474,-1.31877 -0.5618,-1.66248 0,0 -0.2184,-0.61438 -0.2184,-0.61438 0,0 -0.4002,-0.0421 -0.4002,-0.0421 -0.2235,-0.0235 -0.4054,-0.0315 -0.4054,-0.0149 0,0 0,-1e-5 0,-1e-5" />
      <path
         style="fill:#1f7a7a;fill-opacity:1;stroke:none"
         id="path66813-2"
         d="m 1287.8747,516.12243 c -0.3196,0.0701 -0.3348,0.11219 -0.3348,1.06201 0,0.78059 0.015,0.92413 0.1521,1.52276 0.3095,1.32137 0.3552,1.41906 0.7307,1.45916 0.2842,0.0303 0.3553,-0.0331 0.4822,-0.44007 0.2793,-0.9207 0.3657,-1.3977 0.3961,-2.25212 0.025,-0.80581 0.025,-0.84951 -0.081,-1.00276 -0.061,-0.0883 -0.198,-0.19563 -0.2996,-0.23907 -0.2234,-0.089 -0.8375,-0.15356 -1.0455,-0.10991 0,0 0,0 0,0" />
      <path
         style="fill:#000000;fill-opacity:1;fill-rule:evenodd;stroke:none;stroke-width:0.80514383px;stroke-linecap:butt;stroke-linejoin:miter;stroke-opacity:1"
         d="m 1391.7832,518.74805 c -0.6209,-0.0624 -1.1244,0.43121 -1.125,1.10351 l 0,9.24805 a 18.658499,18.814795 0 0 0 -11.0234,-3.66016 18.658499,18.814795 0 0 0 -18.6582,18.81446 18.658499,18.814795 0 0 0 18.6582,18.81445 18.658499,18.814795 0 0 0 11.2031,-3.79102 c 0.1971,0.37491 0.5376,0.66244 0.9453,0.71094 l 22.7949,2.68945 0,3.86329 -14.5234,-1.73438 0,2.86524 32.1387,3.87695 0.9531,0.11523 1.6074,0.19336 0,-2.9043 -9.3906,-1.12304 0,-3.88086 9.3906,1.10742 0,-2.48047 -41.8437,-4.89648 0,-0.22657 a 18.658499,18.814795 0 0 0 5.3828,-13.19921 18.658499,18.814795 0 0 0 -5.3828,-13.21289 l 0,-9.74024 41.8437,4.29297 0,-2.48047 -42.9707,-4.36523 z"
         transform="translate(-1.2207031e-4,0)"
         id="path28264-4" />
      <rect
         y="447.88354"
         x="1227.7223"
         height="157.00214"
         width="207.03087"
         id="rect476779"
         style="opacity:1;fill:none;fill-opacity:1;fill-rule:nonzero;stroke:#666666;stroke-width:0.29785961;stroke-linecap:round;stroke-linejoin:round;stroke-miterlimit:4;stroke-dasharray:none;stroke-dashoffset:0;stroke-opacity:1" />
    </g>
  </g>
</svg>
