<?xml version="1.0" encoding="UTF-8" standalone="no"?>
<svg
   xmlns:dc="http://purl.org/dc/elements/1.1/"
   xmlns:cc="http://creativecommons.org/ns#"
   xmlns:rdf="http://www.w3.org/1999/02/22-rdf-syntax-ns#"
   xmlns:svg="http://www.w3.org/2000/svg"
   xmlns="http://www.w3.org/2000/svg"
   version="1.1"
   id="svg5156"
   viewBox="0 0 210 160"
   height="160"
   width="210">
  <defs
     id="defs5158">
    <linearGradient
       spreadMethod="pad"
       gradientUnits="userSpaceOnUse"
       y2="593.78698"
       y1="3.6658269"
       x2="590.86259"
       x1="0.74144253"
       id="gradientFill"
       gradientTransform="matrix(1.2219423,0,0,0.81836924,-767.16729,-40.990215)">
      <stop
         id="stop6361"
         stop-opacity="1"
         stop-color="rgb(203,206,208)"
         offset="0" />
      <stop
         id="stop6363"
         stop-opacity="1"
         stop-color="rgb(132,131,139)"
         offset="1" />
    </linearGradient>
    <linearGradient
       spreadMethod="pad"
       gradientUnits="userSpaceOnUse"
       y2="593.78699"
       y1="3.6658268"
       x2="590.86261"
       x1="0.7414425"
       id="gradientFill-0"
       gradientTransform="matrix(1.2219423,0,0,0.81836924,-767.16729,-40.990215)">
      <stop
         id="stop6361-6"
         stop-opacity="1"
         stop-color="rgb(203,206,208)"
         offset="0" />
      <stop
         id="stop6363-2"
         stop-opacity="1"
         stop-color="rgb(132,131,139)"
         offset="1" />
    </linearGradient>
  </defs>
  <metadata
     id="metadata5161">
    <rdf:RDF>
      <cc:Work
         rdf:about="">
        <dc:format>image/svg+xml</dc:format>
        <dc:type
           rdf:resource="http://purl.org/dc/dcmitype/StillImage" />
        <dc:title></dc:title>
      </cc:Work>
    </rdf:RDF>
  </metadata>
  <g
     transform="translate(0,-892.36221)"
     id="layer1">
    <g
       id="g484587"
       transform="translate(-1604.0953,871.4586)">
      <path
         style="opacity:1;fill:#cccccc;fill-opacity:1;fill-rule:nonzero;stroke:none;stroke-width:2;stroke-linecap:round;stroke-linejoin:round;stroke-miterlimit:4;stroke-dasharray:none;stroke-dashoffset:0;stroke-opacity:1"
         d="m 1810.1992,38.255859 c -0.3606,-0.0362 -0.654,0.250205 -0.6543,0.640625 l 0,5.369141 a 10.835845,10.926612 0 0 0 -6.4023,-2.125 10.835845,10.926612 0 0 0 -10.834,10.927734 10.835845,10.926612 0 0 0 10.834,10.925782 10.835845,10.926612 0 0 0 6.5058,-2.201172 c 0.1144,0.21812 0.3138,0.383899 0.5508,0.412109 l 2.4121,0.285156 0,-1.419922 -1.7578,-0.205078 0,-0.132812 a 10.835845,10.926612 0 0 0 1.7578,-2.388672 l 0,-10.572266 a 10.835845,10.926612 0 0 0 -1.7578,-2.375 l 0,-5.658203 1.7578,0.179688 0,-1.417969 -2.4121,-0.244141 z"
         transform="translate(-1.2207031e-4,0)"
         id="path28432-5-0" />
      <path
         style="opacity:1;fill:#000000;fill-opacity:1;fill-rule:nonzero;stroke:none;stroke-width:1.60000002;stroke-linecap:round;stroke-linejoin:round;stroke-miterlimit:4;stroke-dasharray:none;stroke-dashoffset:0;stroke-opacity:1"
         d="m 1618.7611,122.52545 c -2.182,0.0444 -4.0306,1.61985 -4.4213,3.76695 -1.4734,7.4826 -2.3457,12.07806 -2.7093,15.17552 -0.1817,1.5487 -0.3152,2.6504 -0.052,4.1704 0.1319,0.7599 0.3676,1.76 1.284,2.8235 0.9015,1.0462 2.5554,1.7169 3.7132,1.7681 1.2389,0.054 1.6416,-0.1538 2.0931,-0.2935 0.2756,-0.086 0.5223,-0.1896 0.7752,-0.2869 l 0,16.1122 38.7208,0 0,-18.0954 c 0.9709,2.4152 1.9611,4.8722 2.7518,6.7944 0.4763,1.1576 0.8919,2.155 1.2236,2.9267 0.3318,0.7715 0.2009,0.7812 0.9479,1.9764 0.8438,1.3501 1.935,1.7962 2.5838,2.0101 0.6489,0.2139 1.0639,0.2442 1.414,0.2644 0.7004,0.04 1.1551,-0.015 1.6404,-0.076 0.9705,-0.1234 1.9658,-0.3355 3.1148,-0.6074 2.2979,-0.5434 5.1172,-1.339 7.9127,-2.1691 5.591,-1.6602 11.05,-3.4554 11.05,-3.4554 5.9446,-1.8437 3.0128,-10.7626 -2.8662,-8.7194 0,0 -5.3739,1.7644 -10.7967,3.3747 -2.6729,0.7937 -5.3462,1.5406 -7.3077,2.0079 -0.152,-0.3656 -0.257,-0.6085 -0.4279,-1.0241 -0.9325,-2.2662 -2.1196,-5.2051 -3.283,-8.1076 -2.3266,-5.80523 -4.5648,-11.47125 -4.5648,-11.47125 -1.154,-1.77485 -2.5892,-2.66699 -4.3092,-2.96257 -12.7891,-1.56897 -25.8209,-4.50243 -38.4877,-5.90254 z"
         id="path28402-4-2" />
      <path
         style="opacity:1;fill:#000000;fill-opacity:1;fill-rule:nonzero;stroke:none;stroke-width:1.60000002;stroke-linecap:round;stroke-linejoin:round;stroke-miterlimit:4;stroke-dasharray:none;stroke-dashoffset:0;stroke-opacity:1"
         d="m 1736.3633,137.47852 c -2.2999,0.0468 -4.2483,1.70744 -4.6602,3.9707 -1.553,7.8873 -2.4722,12.73109 -2.8554,15.99609 -0.1916,1.6325 -0.333,2.79429 -0.055,4.39649 0.1389,0.801 0.3876,1.85556 1.3535,2.97656 0.9502,1.1028 2.6936,1.80938 3.914,1.86328 1.3059,0.057 1.7312,-0.16129 2.2071,-0.30859 0.2905,-0.091 0.5497,-0.20014 0.8164,-0.30274 l 0,13.33399 40.8164,0 0,-15.42383 c 1.0234,2.5459 2.0668,5.13396 2.9004,7.16015 0.502,1.22021 0.9393,2.27264 1.289,3.08594 0.3497,0.8133 0.2125,0.82409 1,2.08399 0.8894,1.4231 2.0387,1.89168 2.7227,2.11718 0.6839,0.2255 1.1211,0.258 1.4902,0.2793 0.7383,0.042 1.2189,-0.0161 1.7305,-0.0801 1.0231,-0.13 2.0721,-0.35402 3.2832,-0.64062 2.4222,-0.5729 5.3931,-1.41006 8.3398,-2.28516 5.8936,-1.75 11.6485,-3.64258 11.6485,-3.64258 0.1071,-0.0332 0.2049,-0.0738 0.3066,-0.11132 l 0,-9.11915 c -0.9483,-0.3539 -2.073,-0.39713 -3.3281,0.0391 0,0 -5.6648,1.85924 -11.3809,3.55664 -2.8176,0.8366 -5.6356,1.62449 -7.7031,2.11719 -0.1603,-0.3854 -0.271,-0.64198 -0.4512,-1.08008 -0.9828,-2.3888 -2.2346,-5.48542 -3.4609,-8.54492 -2.4525,-6.1192 -4.8105,-12.0918 -4.8105,-12.0918 -1.2164,-1.8709 -2.73,-2.81145 -4.543,-3.12305 -13.4809,-1.6538 -27.2165,-4.74681 -40.5684,-6.22265 l 0,0 z"
         transform="translate(-1.2207031e-4,0)"
         id="path28412-0-6" />
      <path
         style="opacity:1;fill:#666666;fill-opacity:1;fill-rule:nonzero;stroke:none;stroke-width:2;stroke-linecap:round;stroke-linejoin:round;stroke-miterlimit:4;stroke-dasharray:none;stroke-dashoffset:0;stroke-opacity:1"
         d="m 1737.6533,55.88951 c -0.4789,-0.0482 -0.8667,0.33304 -0.8672,0.85156 l 0,7.13281 a 14.391075,14.511623 0 0 0 -8.502,-2.82422 14.391075,14.511623 0 0 0 -14.3926,14.51172 14.391075,14.511623 0 0 0 14.3926,14.51172 14.391075,14.511623 0 0 0 8.6406,-2.92383 c 0.1522,0.28864 0.4145,0.51145 0.7286,0.54883 l 17.58,2.07422 0,2.97852 -11.2011,-1.33789 0,2.21093 24.789,2.99024 0.092,0.0117 0,-2.24024 -5.3613,-0.64062 0,-2.99219 18.0566,2.13086 c 0.5016,0.0591 0.9081,-0.32408 0.9082,-0.85547 l 0,-30.61914 c -5e-4,-0.53115 -0.4069,-1.00368 -0.9082,-1.05469 l -43.955,-4.46484 z m 0.8691,1.96875 42.1777,4.32617 0,28.66797 -42.1777,-4.93555 0,-0.17578 a 14.391075,14.511623 0 0 0 4.1524,-10.17969 14.391075,14.511623 0 0 0 -4.1524,-10.18945 l 0,-7.51367 z"
         id="ellipse28418-6-1" />
      <path
         style="opacity:1;fill:#666666;fill-opacity:1;fill-rule:nonzero;stroke:none;stroke-width:1.60000002;stroke-linecap:round;stroke-linejoin:round;stroke-miterlimit:4;stroke-dasharray:none;stroke-dashoffset:0;stroke-opacity:1"
         d="m 1711.9877,89.99035 c -1.7739,0.0361 -3.2761,1.3169 -3.5938,3.0625 -1.1978,6.08339 -1.9075,9.81964 -2.2031,12.33789 -0.1478,1.25913 -0.2554,2.15483 -0.041,3.39062 0.1072,0.61779 0.2979,1.43029 1.043,2.29492 0.7329,0.85054 2.0782,1.39591 3.0195,1.4375 1.0072,0.044 1.3341,-0.12466 1.7012,-0.23828 0.224,-0.0699 0.4251,-0.15525 0.6308,-0.23437 l 0,13.09961 27.4082,0 a 18.658499,18.814795 0 0 1 -1.1191,-6.36914 18.658499,18.814795 0 0 1 9.9238,-16.61133 c -0.7672,-1.93179 -1.9746,-4.96289 -1.9746,-4.96289 -0.9382,-1.44296 -2.1056,-2.1679 -3.5039,-2.40821 -10.3976,-1.27558 -20.9928,-3.66052 -31.291,-4.79882 z"
         id="path28420-9-1" />
      <path
         style="opacity:1;fill:#666666;fill-opacity:1;fill-rule:nonzero;stroke:none;stroke-width:2;stroke-linecap:round;stroke-linejoin:round;stroke-miterlimit:4;stroke-dasharray:none;stroke-dashoffset:0;stroke-opacity:1"
         d="m 1812.6113,77.826172 c -1.8792,2.546952 -3.004,5.692759 -3.0039,9.111328 0,3.299705 1.076,6.478686 3.0039,9.095703 l 0,-18.207031 z"
         transform="translate(-1.2207031e-4,0)"
         id="path28426-9-7" />
      <path
         style="opacity:1;fill:#cccccc;fill-opacity:1;fill-rule:nonzero;stroke:none;stroke-width:1.60000002;stroke-linecap:round;stroke-linejoin:round;stroke-miterlimit:4;stroke-dasharray:none;stroke-dashoffset:0;stroke-opacity:1"
         d="m 1790.873,63.931641 c -1.3356,0.0272 -2.4657,0.99228 -2.705,2.30664 -0.9018,4.58052 -1.4376,7.394886 -1.6602,9.291016 -0.1113,0.94806 -0.1928,1.622234 -0.031,2.552734 0.081,0.46516 0.2261,1.077486 0.7871,1.728516 0.5518,0.64041 1.5627,1.050721 2.2715,1.082031 0.7584,0.0331 1.0049,-0.0941 1.2812,-0.179687 0.1687,-0.0526 0.3198,-0.116212 0.4746,-0.175782 l 0,9.863282 18.7285,0 a 15.16943,15.296498 0 0 1 -0.4121,-3.462891 15.16943,15.296498 0 0 1 3.0039,-9.09375 l 0,-10.544922 c -7.2418,-0.995617 -14.5847,-2.576473 -21.7383,-3.367187 z"
         transform="translate(-1.2207031e-4,0)"
         id="path28434-3-8" />
      <path
         style="opacity:1;fill:#666666;fill-opacity:1;fill-rule:nonzero;stroke:none;stroke-width:1.60000002;stroke-linecap:round;stroke-linejoin:round;stroke-miterlimit:4;stroke-dasharray:none;stroke-dashoffset:0;stroke-opacity:1"
         d="m 1665.5314,111.9325 c -0.6972,-0.0795 -1.3654,0.14233 -1.8579,0.61644 -0.4922,0.47392 -0.7687,1.16128 -0.7687,1.91102 0,0.74973 0.2765,1.50075 0.7687,2.08806 0.4925,0.58754 1.1607,0.96326 1.8579,1.04437 1.453,0.16906 2.6323,-0.96212 2.6323,-2.52676 0,-0.75137 -0.2776,-1.50377 -0.7716,-2.09149 -0.4938,-0.58748 -1.1632,-0.96212 -1.8607,-1.04164 0,0 0,0 0,0 m 0,0.54825 c 1.1714,0.13385 2.1218,1.26487 2.1217,2.52608 0,1.26115 -0.9504,2.17314 -2.1217,2.03718 -1.1703,-0.13585 -2.1181,-1.2665 -2.1182,-2.5255 0,-0.60462 0.223,-1.15892 0.62,-1.54103 0.3972,-0.38224 0.936,-0.56096 1.4982,-0.49673 0,0 0,0 0,0"
         id="path30233-7" />
      <path
         style="opacity:1;fill:#666666;fill-opacity:1;fill-rule:nonzero;stroke:none;stroke-width:1.60000002;stroke-linecap:round;stroke-linejoin:round;stroke-miterlimit:4;stroke-dasharray:none;stroke-dashoffset:0;stroke-opacity:1"
         d="m 1665.5314,97.99912 c -0.6972,-0.0754 -1.3654,0.15025 -1.8579,0.62722 -0.4922,0.47677 -0.7687,1.16573 -0.7687,1.91547 0,0.74973 0.2765,1.49916 0.7687,2.0836 0.4925,0.58469 1.1607,0.95654 1.8579,1.03361 1.453,0.16063 2.6323,-0.9774 2.6323,-2.54203 0,-0.75137 -0.2776,-1.50216 -0.7716,-2.08702 -0.4938,-0.58462 -1.1632,-0.95537 -1.8607,-1.03085 0,0 0,0 0,0 m 0,0.54825 c 1.1714,0.12706 2.1218,1.25257 2.1217,2.51378 0,1.26114 -0.9504,2.17865 -2.1217,2.04948 -1.1703,-0.12906 -2.1181,-1.25421 -2.1182,-2.51321 0,-0.60463 0.223,-1.16021 0.62,-1.54463 0.3972,-0.38454 0.936,-0.56639 1.4982,-0.50542 0,0 0,0 0,0"
         id="path30237-7" />
      <path
         style="opacity:1;fill:#1f7a7a;fill-opacity:1;fill-rule:nonzero;stroke:none;stroke-width:1.60000002;stroke-linecap:round;stroke-linejoin:round;stroke-miterlimit:4;stroke-dasharray:none;stroke-dashoffset:0;stroke-opacity:1"
         d="m 1667.1758,101.0089 c 0,0.46941 -0.1734,0.90056 -0.4819,1.19856 -0.3084,0.29792 -0.7267,0.43828 -1.1626,0.39028 -0.9073,-0.0999 -1.6423,-0.97217 -1.6423,-1.94833 0,-0.97617 0.735,-1.68766 1.6423,-1.5891 0.4359,0.0474 0.8542,0.2792 1.1626,0.6446 0.3085,0.36548 0.4819,0.83457 0.4819,1.30399 0,0 0,0 0,0"
         id="path30239-4" />
      <path
         style="opacity:1;fill:#666666;fill-opacity:1;fill-rule:nonzero;stroke:none;stroke-width:1.60000002;stroke-linecap:round;stroke-linejoin:round;stroke-miterlimit:4;stroke-dasharray:none;stroke-dashoffset:0;stroke-opacity:1"
         d="m 1665.5314,104.9658 c -0.6972,-0.0775 -1.3654,0.14629 -1.8579,0.62183 -0.4922,0.47535 -0.7687,1.16351 -0.7687,1.91324 0,0.74973 0.2765,1.49996 0.7687,2.08583 0.4925,0.58612 1.1607,0.95991 1.8579,1.03899 1.453,0.16484 2.6323,-0.96976 2.6323,-2.53439 0,-0.75138 -0.2776,-1.50297 -0.7716,-2.08926 -0.4938,-0.58605 -1.1632,-0.95874 -1.8607,-1.03624 0,0 0,0 0,0 m 0,0.54825 c 1.1714,0.13045 2.1218,1.25871 2.1217,2.51993 0,1.26114 -0.9504,2.1759 -2.1217,2.04333 -1.1703,-0.13246 -2.1181,-1.26036 -2.1182,-2.51936 0,-0.60463 0.223,-1.15956 0.62,-1.54282 0.3972,-0.38339 0.936,-0.56368 1.4982,-0.50108 0,0 0,0 0,0"
         id="path30241-9" />
      <path
         style="opacity:1;fill:#cccccc;fill-opacity:1;fill-rule:nonzero;stroke:none;stroke-width:3;stroke-linecap:round;stroke-linejoin:round;stroke-miterlimit:4;stroke-dasharray:none;stroke-dashoffset:0;stroke-opacity:1"
         d="m 1671.6584,99.84522 c 0,0 18.95,2.05961 18.95,2.05961 0,0 0,3.334 0,3.334 0,0 -18.95,-2.08564 -18.95,-2.08564 0,0 0,-3.30797 0,-3.30797"
         id="path30245-0" />
      <path
         style="opacity:1;fill:#cccccc;fill-opacity:1;fill-rule:nonzero;stroke:none;stroke-width:3;stroke-linecap:round;stroke-linejoin:round;stroke-miterlimit:4;stroke-dasharray:none;stroke-dashoffset:0;stroke-opacity:1"
         d="m 1671.6584,106.82968 c 0,0 8.9905,1.00322 8.9905,1.00322 0,0 0,3.32028 0,3.32028 0,0 -8.9905,-1.01557 -8.9905,-1.01557 0,0 0,-3.30793 0,-3.30793"
         id="path30247-0" />
      <path
         style="opacity:1;fill:#cccccc;fill-opacity:1;fill-rule:nonzero;stroke:none;stroke-width:3;stroke-linecap:round;stroke-linejoin:round;stroke-miterlimit:4;stroke-dasharray:none;stroke-dashoffset:0;stroke-opacity:1"
         d="m 1671.6584,113.81416 c 0,0 17.2298,1.97259 17.2298,1.97259 0,0 0,3.3316 0,3.3316 0,0 -17.2298,-1.99625 -17.2298,-1.99625 0,0 0,-3.30794 0,-3.30794"
         id="path30249-2" />
      <path
         style="opacity:1;fill:#cccccc;fill-opacity:1;fill-rule:nonzero;stroke:none;stroke-width:3;stroke-linecap:round;stroke-linejoin:round;stroke-miterlimit:4;stroke-dasharray:none;stroke-dashoffset:0;stroke-opacity:1"
         d="m 1682.1541,108.00085 c 0,0 17.1331,1.91184 17.1331,1.91184 0,0 0,3.34588 0,3.34588 0,0 -17.1331,-1.93537 -17.1331,-1.93537 0,0 0,-3.32235 0,-3.32235"
         id="path30251-7" />
      <path
         style="opacity:1;fill:#cccccc;fill-opacity:1;fill-rule:nonzero;stroke:none;stroke-width:3;stroke-linecap:round;stroke-linejoin:round;stroke-miterlimit:4;stroke-dasharray:none;stroke-dashoffset:0;stroke-opacity:1"
         d="m 1690.4036,115.96024 c 0,0 6.1622,0.7055 6.1622,0.7055 0,0 0,3.34214 0,3.34214 0,0 -6.1622,-0.71396 -6.1622,-0.71396 0,0 0,-3.33368 0,-3.33368"
         id="path30253-1" />
      <path
         id="path30257-6"
         d="m 1688.5921,88.53481 c 0,0 0,11.14517 0,11.14517 0,0 10.5,1.13253 10.5,1.13253 0,0 0,-11.19342 0,-11.19342 0,0 -10.5,-1.08428 -10.5,-1.08428 m 8.2158,7.79149 c 0.3365,0.0357 0.5964,0.16147 0.7535,0.36199 0.1155,0.14847 0.1638,0.30315 0.1638,0.53129 0,0 -0.4483,-0.0477 -0.4483,-0.0477 -0.016,-0.25363 -0.1866,-0.40673 -0.4911,-0.43909 -0.2467,-0.0262 -0.4039,0.0752 -0.4039,0.26246 0,0.18039 0.099,0.26323 0.4422,0.37127 0,0 0.3656,0.11258 0.3656,0.11258 0.4329,0.13462 0.6195,0.359 0.6195,0.75073 0,0.50404 -0.3559,0.76562 -0.9586,0.70102 -0.5959,-0.0639 -0.9394,-0.38864 -0.9682,-0.92254 0,0 0.4671,0.0499 0.4671,0.0499 0.016,0.26717 0.1994,0.43312 0.5262,0.46809 0.2917,0.0312 0.4719,-0.0754 0.4719,-0.28317 0,-0.20092 -0.119,-0.30987 -0.4395,-0.4088 0,0 -0.3272,-0.10228 -0.3272,-0.10228 -0.4741,-0.14582 -0.6572,-0.35245 -0.6572,-0.73707 0,-0.48322 0.3236,-0.72815 0.8842,-0.66866 0,0 0,0 0,0 m 1.295,0.1516 c 0.051,0.005 0.099,0.0206 0.1432,0.045 0.045,0.0245 0.086,0.0578 0.1225,0.10076 0.037,0.043 0.064,0.0884 0.083,0.13735 0.018,0.0489 0.028,0.10128 0.028,0.15658 0,0.0545 -0.01,0.10396 -0.028,0.14899 -0.018,0.0447 -0.046,0.0846 -0.083,0.11975 -0.037,0.0352 -0.078,0.0613 -0.1225,0.0763 -0.044,0.015 -0.092,0.02 -0.1432,0.0145 -0.051,-0.005 -0.099,-0.0204 -0.1431,-0.045 -0.044,-0.0244 -0.086,-0.0594 -0.1225,-0.10233 -0.037,-0.043 -0.064,-0.0888 -0.083,-0.13731 -0.018,-0.0489 -0.027,-0.10031 -0.027,-0.15477 0,-0.0553 0.01,-0.10573 0.027,-0.15071 0.018,-0.0451 0.046,-0.0846 0.083,-0.11976 0.037,-0.0352 0.078,-0.0597 0.1225,-0.0747 0.045,-0.015 0.092,-0.0201 0.1431,-0.0146 0,0 0,0 0,0 m -8.1541,-0.83882 c 0,0 0.4779,0.0507 0.4779,0.0507 0,0 0,2.47443 0,2.47443 0,0 -0.4779,-0.0512 -0.4779,-0.0512 0,0 0,-2.47395 0,-2.47395 m 0.9385,0.0996 c 0,0 0.4783,0.0508 0.4783,0.0508 0,0 0,2.05189 0,2.05189 0,0 1.1144,0.11922 1.1144,0.11922 0,0 0,0.42369 0,0.42369 0,0 -1.5927,-0.17067 -1.5927,-0.17067 0,0 0,-2.4749 0,-2.4749 m 1.8968,0.20132 c 0,0 0.4791,0.0508 0.4791,0.0508 0,0 0,2.47733 0,2.47733 0,0 -0.4791,-0.0513 -0.4791,-0.0513 0,0 0,-2.47684 0,-2.47684 m 1.5953,0.16931 c 0,0 0.5312,0.0564 0.5312,0.0564 0,0 0.8069,2.56547 0.8069,2.56547 0,0 -0.4933,-0.0529 -0.4933,-0.0529 0,0 -0.1531,-0.51572 -0.1531,-0.51572 0,0 -0.8742,-0.0935 -0.8742,-0.0935 0,0 -0.1558,0.48242 -0.1558,0.48242 0,0 -0.4897,-0.0525 -0.4897,-0.0525 0,0 0.828,-2.38974 0.828,-2.38974 m 3.7235,0.45161 c -0.041,-0.004 -0.079,-5.1e-4 -0.1136,0.0115 -0.035,0.0117 -0.068,0.0305 -0.097,0.0586 -0.029,0.0281 -0.052,0.0606 -0.066,0.0964 -0.014,0.0354 -0.021,0.0747 -0.021,0.11846 0,0.0434 0.01,0.084 0.021,0.12286 0.015,0.0385 0.037,0.0762 0.066,0.11047 0.029,0.0339 0.062,0.0601 0.097,0.0793 0.035,0.0192 0.073,0.0313 0.1136,0.0356 0.041,0.004 0.08,9e-5 0.1152,-0.0113 0.035,-0.0117 0.066,-0.0306 0.096,-0.0587 0.029,-0.0281 0.052,-0.061 0.066,-0.0964 0.015,-0.0358 0.022,-0.0749 0.022,-0.11833 0,-0.0438 -0.01,-0.0845 -0.022,-0.12304 -0.014,-0.0389 -0.037,-0.0762 -0.066,-0.11049 -0.03,-0.0347 -0.062,-0.0617 -0.097,-0.0809 -0.034,-0.019 -0.073,-0.0297 -0.1137,-0.034 0,0 -10e-5,-3e-5 -10e-5,-3e-5 m -0.1549,0.0667 c 0,0 0.1446,0.0154 0.1446,0.0154 0.06,0.006 0.105,0.0224 0.1344,0.0471 0.029,0.0242 0.042,0.0583 0.042,0.10167 0,0.0308 -0.01,0.0558 -0.026,0.074 -0.018,0.0181 -0.042,0.0286 -0.075,0.0311 0.014,0.009 0.028,0.0215 0.04,0.0371 0.012,0.0157 0.023,0.0349 0.033,0.0568 0,0 0.056,0.12352 0.056,0.12352 0,0 -0.1166,-0.0124 -0.1166,-0.0124 0,0 -0.053,-0.12008 -0.053,-0.12008 -0.013,-0.0293 -0.024,-0.0491 -0.034,-0.0616 -0.01,-0.0129 -0.02,-0.0209 -0.029,-0.0219 0,0 -0.01,-6.4e-4 -0.01,-6.4e-4 0,0 0,0.1912 0,0.1912 0,0 -0.1093,-0.0116 -0.1093,-0.0116 0,0 0,-0.44968 0,-0.44968 0,0 -10e-5,2e-5 -10e-5,2e-5 m 0.1092,0.0868 c 0,0 0,0.11129 0,0.11129 0,0 0.018,0.002 0.018,0.002 0.026,0.003 0.046,0 0.059,-0.008 0.013,-0.008 0.021,-0.0215 0.021,-0.0401 0,-0.0187 -0.01,-0.0342 -0.021,-0.0446 -0.013,-0.0103 -0.032,-0.0159 -0.059,-0.0188 0,0 -0.018,-0.002 -0.018,-0.002 m -3.4218,0.007 c 0,0 -0.303,0.93628 -0.303,0.93628 0,0 0.6077,0.0649 0.6077,0.0649 0,0 -0.3047,-1.00117 -0.3047,-1.00117"
         style="fill:#1f7a7a;fill-opacity:1" />
      <path
         id="path139114-2"
         d="m 1785.6639,126.31312 c -0.7349,-0.0838 -1.4393,0.15003 -1.9583,0.64978 -0.5189,0.49956 -0.8103,1.22409 -0.8103,2.01438 0,0.79028 0.2914,1.58192 0.8103,2.20099 0.5191,0.61931 1.2234,1.01537 1.9583,1.10087 1.5316,0.1782 2.7746,-1.01417 2.7746,-2.66343 0,-0.79201 -0.2926,-1.5851 -0.8133,-2.20462 -0.5204,-0.61925 -1.226,-1.01415 -1.9613,-1.09797 0,0 0,0 0,0 m 0,0.5779 c 1.2347,0.14109 2.2365,1.33328 2.2365,2.66271 -10e-5,1.32936 -1.0018,2.29068 -2.2365,2.14736 -1.2335,-0.14319 -2.2327,-1.335 -2.2327,-2.66209 -10e-5,-0.63733 0.235,-1.2216 0.6535,-1.62438 0.4186,-0.40291 0.9866,-0.5913 1.5792,-0.5236 0,0 0,0 0,0"
         style="opacity:1;fill:#666666;fill-opacity:1;fill-rule:nonzero;stroke:none;stroke-width:1.60000002;stroke-linecap:round;stroke-linejoin:round;stroke-miterlimit:4;stroke-dasharray:none;stroke-dashoffset:0;stroke-opacity:1" />
      <path
         id="path139118-0"
         d="m 1785.6639,111.62614 c -0.7349,-0.0795 -1.4393,0.15838 -1.9583,0.66114 -0.5189,0.50257 -0.8103,1.22879 -0.8103,2.01907 0,0.79028 0.2914,1.58024 0.8103,2.1963 0.5191,0.6163 1.2234,1.00827 1.9583,1.08951 1.5316,0.16931 2.7746,-1.03026 2.7746,-2.67952 0,-0.79201 -0.2926,-1.58341 -0.8133,-2.1999 -0.5204,-0.61624 -1.226,-1.00704 -1.9613,-1.0866 0,0 0,0 0,0 m 0,0.5779 c 1.2347,0.13393 2.2365,1.32031 2.2365,2.64974 -10e-5,1.32936 -1.0018,2.29649 -2.2365,2.16033 -1.2335,-0.13604 -2.2327,-1.32205 -2.2327,-2.64914 -10e-5,-0.63733 0.235,-1.22296 0.6535,-1.62817 0.4186,-0.40533 0.9866,-0.59702 1.5792,-0.53276 0,0 0,0 0,0"
         style="opacity:1;fill:#666666;fill-opacity:1;fill-rule:nonzero;stroke:none;stroke-width:1.60000002;stroke-linecap:round;stroke-linejoin:round;stroke-miterlimit:4;stroke-dasharray:none;stroke-dashoffset:0;stroke-opacity:1" />
      <path
         id="path139120-4"
         d="m 1787.3973,114.7987 c 0,0.4948 -0.1828,0.94928 -0.508,1.2634 -0.3251,0.31402 -0.766,0.46198 -1.2255,0.41138 -0.9563,-0.1053 -1.7311,-1.02475 -1.7311,-2.05371 0,-1.02896 0.7748,-1.77893 1.7311,-1.67504 0.4595,0.0499 0.9004,0.2943 1.2255,0.67946 0.3252,0.38525 0.508,0.8797 0.508,1.37451 0,0 0,0 0,0"
         style="opacity:1;fill:#1f7a7a;fill-opacity:1;fill-rule:nonzero;stroke:none;stroke-width:1.60000002;stroke-linecap:round;stroke-linejoin:round;stroke-miterlimit:4;stroke-dasharray:none;stroke-dashoffset:0;stroke-opacity:1" />
      <path
         id="path139122-8"
         d="m 1785.6639,118.96962 c -0.7349,-0.0816 -1.4393,0.1542 -1.9583,0.65546 -0.5189,0.50106 -0.8103,1.22643 -0.8103,2.01672 0,0.79028 0.2914,1.58108 0.8103,2.19864 0.5191,0.61782 1.2234,1.01183 1.9583,1.09519 1.5316,0.17376 2.7746,-1.0222 2.7746,-2.67147 0,-0.79201 -0.2926,-1.58426 -0.8133,-2.20225 -0.5204,-0.61775 -1.226,-1.0106 -1.9613,-1.09229 0,0 0,0 0,0 m 0,0.57789 c 1.2347,0.13752 2.2365,1.3268 2.2365,2.65623 -10e-5,1.32936 -1.0018,2.29359 -2.2365,2.15384 -1.2335,-0.13961 -2.2327,-1.32852 -2.2327,-2.65561 -10e-5,-0.63733 0.235,-1.22228 0.6535,-1.62627 0.4186,-0.40413 0.9866,-0.59417 1.5792,-0.52819 0,0 0,0 0,0"
         style="opacity:1;fill:#666666;fill-opacity:1;fill-rule:nonzero;stroke:none;stroke-width:1.60000002;stroke-linecap:round;stroke-linejoin:round;stroke-miterlimit:4;stroke-dasharray:none;stroke-dashoffset:0;stroke-opacity:1" />
      <path
         id="path139126-2"
         d="m 1792.1223,113.57209 c 0,0 19.9749,2.171 19.9749,2.171 0,0 0,3.51432 0,3.51432 0,0 -19.9749,-2.19844 -19.9749,-2.19844 0,0 0,-3.48688 0,-3.48688"
         style="opacity:1;fill:#cccccc;fill-opacity:1;fill-rule:nonzero;stroke:none;stroke-width:3;stroke-linecap:round;stroke-linejoin:round;stroke-miterlimit:4;stroke-dasharray:none;stroke-dashoffset:0;stroke-opacity:1" />
      <path
         id="path139128-2"
         d="m 1792.1223,120.9343 c 0,0 9.4768,1.05749 9.4768,1.05749 0,0 0,3.49986 0,3.49986 0,0 -9.4768,-1.0705 -9.4768,-1.0705 0,0 0,-3.48685 0,-3.48685"
         style="opacity:1;fill:#cccccc;fill-opacity:1;fill-rule:nonzero;stroke:none;stroke-width:3;stroke-linecap:round;stroke-linejoin:round;stroke-miterlimit:4;stroke-dasharray:none;stroke-dashoffset:0;stroke-opacity:1" />
      <path
         id="path139130-3"
         d="m 1792.1223,128.29656 c 0,0 18.1617,2.07927 18.1617,2.07927 0,0 0,3.51179 0,3.51179 0,0 -18.1617,-2.10422 -18.1617,-2.10422 0,0 0,-3.48684 0,-3.48684"
         style="opacity:1;fill:#cccccc;fill-opacity:1;fill-rule:nonzero;stroke:none;stroke-width:3;stroke-linecap:round;stroke-linejoin:round;stroke-miterlimit:4;stroke-dasharray:none;stroke-dashoffset:0;stroke-opacity:1" />
      <path
         style="opacity:1;fill:#cccccc;fill-opacity:1;fill-rule:nonzero;stroke:none;stroke-width:3;stroke-linecap:round;stroke-linejoin:round;stroke-miterlimit:4;stroke-dasharray:none;stroke-dashoffset:0;stroke-opacity:1"
         d="m 1803.1855,122.16797 0,3.50195 9.4258,1.06446 0,-3.51368 -9.4258,-1.05273 z"
         transform="translate(-1.2207031e-4,0)"
         id="path139132-3" />
      <path
         style="fill:#1f7a7a;fill-opacity:1"
         d="m 1809.9727,101.65039 0,11.74805 2.6386,0.28515 0,-1.80859 -0.2207,-0.0234 0,-2.60742 0.2207,0.0234 0,-7.3457 -2.6386,-0.27149 z m 1.4296,7.48828 0.5039,0.0527 0,2.60937 -0.5039,-0.0547 0,-2.60742 z"
         transform="translate(-1.2207031e-4,0)"
         id="path139138-7" />
      <path
         style="opacity:1;fill:#666666;fill-opacity:1;fill-rule:nonzero;stroke:none;stroke-width:1.60000002;stroke-linecap:round;stroke-linejoin:round;stroke-miterlimit:4;stroke-dasharray:none;stroke-dashoffset:0;stroke-opacity:1"
         d="m 1750.0125,81.37788 c -0.5668,-0.0646 -1.1101,0.11571 -1.5104,0.50117 -0.4002,0.3853 -0.625,0.94412 -0.625,1.55366 0,0.60953 0.2248,1.22012 0.625,1.6976 0.4003,0.47767 0.9436,0.78314 1.5104,0.84908 1.1813,0.13745 2.1401,-0.78221 2.1401,-2.05426 0,-0.61087 -0.2257,-1.22257 -0.6273,-1.7004 -0.4015,-0.47762 -0.9457,-0.7822 -1.5128,-0.84685 0,0 0,0 0,0 m 0,0.44572 c 0.9524,0.10883 1.725,1.02835 1.725,2.05373 0,1.02531 -0.7727,1.76676 -1.725,1.65623 -0.9514,-0.11046 -1.722,-1.02968 -1.7221,-2.05325 0,-0.49156 0.1813,-0.9422 0.5041,-1.25286 0.3229,-0.31076 0.761,-0.45607 1.218,-0.40385 0,0 0,0 0,0"
         id="path139146-2" />
      <path
         style="opacity:1;fill:#1f7a7a;fill-opacity:1;fill-rule:nonzero;stroke:none;stroke-width:1.60000002;stroke-linecap:round;stroke-linejoin:round;stroke-miterlimit:4;stroke-dasharray:none;stroke-dashoffset:0;stroke-opacity:1"
         d="m 1751.3494,83.83258 c 0,0.38164 -0.1409,0.73136 -0.3918,0.97217 -0.2507,0.24076 -0.5907,0.3529 -0.9452,0.31182 -0.7376,-0.0855 -1.3351,-0.79812 -1.3351,-1.59175 0,-0.79362 0.5975,-1.3686 1.3351,-1.28419 0.3545,0.0406 0.6945,0.23102 0.9452,0.52954 0.2509,0.2986 0.3918,0.68078 0.3918,1.06241 0,0 0,0 0,0"
         id="path139148-4" />
      <path
         style="opacity:1;fill:#666666;fill-opacity:1;fill-rule:nonzero;stroke:none;stroke-width:1.60000002;stroke-linecap:round;stroke-linejoin:round;stroke-miterlimit:4;stroke-dasharray:none;stroke-dashoffset:0;stroke-opacity:1"
         d="m 1750.0125,70.04999 c -0.5668,-0.0613 -1.1101,0.12215 -1.5104,0.50993 -0.4002,0.38762 -0.625,0.94775 -0.625,1.55728 0,0.60954 0.2248,1.21883 0.625,1.69398 0.4003,0.47535 0.9436,0.77767 1.5104,0.84032 1.1813,0.13059 2.1401,-0.79462 2.1401,-2.06668 0,-0.61086 -0.2257,-1.22126 -0.6273,-1.69675 -0.4015,-0.4753 -0.9457,-0.77672 -1.5128,-0.83808 0,0 0,0 0,0 m 0,0.44573 c 0.9524,0.1033 1.725,1.01833 1.725,2.04371 0,1.02532 -0.7727,1.77125 -1.725,1.66623 -0.9514,-0.10493 -1.722,-1.01967 -1.7221,-2.04325 0,-0.49156 0.1813,-0.94325 0.5041,-1.25578 0.3229,-0.31264 0.761,-0.46048 1.218,-0.41091 0,0 0,0 0,0"
         id="path139150-5" />
      <path
         style="opacity:1;fill:#666666;fill-opacity:1;fill-rule:nonzero;stroke:none;stroke-width:1.60000002;stroke-linecap:round;stroke-linejoin:round;stroke-miterlimit:4;stroke-dasharray:none;stroke-dashoffset:0;stroke-opacity:1"
         d="m 1750.0125,75.71392 c -0.5668,-0.063 -1.1101,0.11894 -1.5104,0.50555 -0.4002,0.38646 -0.625,0.94594 -0.625,1.55548 0,0.60953 0.2248,1.21946 0.625,1.69578 0.4003,0.47651 0.9436,0.78041 1.5104,0.84471 1.1813,0.13402 2.1401,-0.78842 2.1401,-2.06048 0,-0.61086 -0.2257,-1.22191 -0.6273,-1.69857 -0.4015,-0.47646 -0.9457,-0.77946 -1.5128,-0.84247 0,0 0,0 0,0 m 0,0.44573 c 0.9524,0.10606 1.725,1.02334 1.725,2.04872 0,1.02531 -0.7727,1.769 -1.725,1.66122 -0.9514,-0.10768 -1.722,-1.02467 -1.7221,-2.04824 0,-0.49156 0.1813,-0.94273 0.5041,-1.25432 0.3229,-0.3117 0.761,-0.45827 1.218,-0.40738 0,0 0,0 0,0"
         id="path139154-4" />
      <path
         style="opacity:1;fill:#cccccc;fill-opacity:1;fill-rule:nonzero;stroke:none;stroke-width:3;stroke-linecap:round;stroke-linejoin:round;stroke-miterlimit:4;stroke-dasharray:none;stroke-dashoffset:0;stroke-opacity:1"
         d="m 1754.9938,71.55088 c 0,0 15.4064,1.67446 15.4064,1.67446 0,0 0,2.71055 0,2.71055 0,0 -15.4064,-1.69563 -15.4064,-1.69563 0,0 0,-2.68938 0,-2.68938"
         id="path139158-1" />
      <path
         style="opacity:1;fill:#cccccc;fill-opacity:1;fill-rule:nonzero;stroke:none;stroke-width:3;stroke-linecap:round;stroke-linejoin:round;stroke-miterlimit:4;stroke-dasharray:none;stroke-dashoffset:0;stroke-opacity:1"
         d="m 1754.9938,77.22926 c 0,0 7.3093,0.81563 7.3093,0.81563 0,0 0,2.6994 0,2.6994 0,0 -7.3093,-0.82567 -7.3093,-0.82567 0,0 0,-2.68936 0,-2.68936"
         id="path139160-6" />
      <path
         style="opacity:1;fill:#cccccc;fill-opacity:1;fill-rule:nonzero;stroke:none;stroke-width:3;stroke-linecap:round;stroke-linejoin:round;stroke-miterlimit:4;stroke-dasharray:none;stroke-dashoffset:0;stroke-opacity:1"
         d="m 1754.9938,82.90768 c 0,0 14.0079,1.60372 14.0079,1.60372 0,0 0,2.7086 0,2.7086 0,0 -14.0079,-1.62296 -14.0079,-1.62296 0,0 0,-2.68936 0,-2.68936"
         id="path139162-8" />
      <path
         style="opacity:1;fill:#cccccc;fill-opacity:1;fill-rule:nonzero;stroke:none;stroke-width:3;stroke-linecap:round;stroke-linejoin:round;stroke-miterlimit:4;stroke-dasharray:none;stroke-dashoffset:0;stroke-opacity:1"
         d="m 1763.5268,78.18143 c 0,0 13.9293,1.55433 13.9293,1.55433 0,0 0,2.72022 0,2.72022 0,0 -13.9293,-1.57347 -13.9293,-1.57347 0,0 0,-2.70108 0,-2.70108"
         id="path139164-0" />
      <path
         style="opacity:1;fill:#cccccc;fill-opacity:1;fill-rule:nonzero;stroke:none;stroke-width:3;stroke-linecap:round;stroke-linejoin:round;stroke-miterlimit:4;stroke-dasharray:none;stroke-dashoffset:0;stroke-opacity:1"
         d="m 1770.2337,84.65245 c 0,0 5.0099,0.57357 5.0099,0.57357 0,0 0,2.71717 0,2.71717 0,0 -5.0099,-0.58045 -5.0099,-0.58045 0,0 0,-2.71029 0,-2.71029"
         id="path139166-4" />
      <path
         id="path139170-8"
         d="m 1768.761,62.35547 c 0,0 0,9.06106 0,9.06106 0,0 8.5365,0.92075 8.5365,0.92075 0,0 0,-9.10029 0,-9.10029 0,0 -8.5365,-0.88152 -8.5365,-0.88152 m 6.6795,6.3345 c 0.2735,0.029 0.4849,0.13128 0.6126,0.2943 0.094,0.12071 0.1332,0.24647 0.1332,0.43194 0,0 -0.3646,-0.0388 -0.3646,-0.0388 -0.013,-0.2062 -0.1516,-0.33067 -0.3992,-0.35698 -0.2006,-0.0213 -0.3284,0.0612 -0.3284,0.21338 0,0.14666 0.081,0.214 0.3596,0.30185 0,0 0.2972,0.0915 0.2972,0.0915 0.3519,0.10945 0.5037,0.29187 0.5037,0.61035 0,0.40979 -0.2895,0.62245 -0.7794,0.56993 -0.4845,-0.0519 -0.7637,-0.31596 -0.7872,-0.75003 0,0 0.3798,0.0406 0.3798,0.0406 0.013,0.21721 0.1621,0.35213 0.4278,0.38056 0.2371,0.0254 0.3836,-0.0613 0.3836,-0.23022 0,-0.16335 -0.097,-0.25192 -0.3573,-0.33236 0,0 -0.266,-0.0831 -0.266,-0.0831 -0.3854,-0.11856 -0.5343,-0.28655 -0.5343,-0.59924 0,-0.39286 0.2631,-0.59199 0.7189,-0.54363 0,0 0,0 0,0 m 1.0528,0.12326 c 0.042,0.004 0.08,0.0167 0.1164,0.0366 0.036,0.0199 0.07,0.047 0.1,0.0819 0.03,0.035 0.052,0.0718 0.067,0.11166 0.015,0.0397 0.023,0.0823 0.023,0.12731 0,0.0443 -0.01,0.0845 -0.023,0.12113 -0.015,0.0363 -0.037,0.0688 -0.067,0.0974 -0.03,0.0286 -0.063,0.0498 -0.1,0.062 -0.036,0.0122 -0.075,0.0163 -0.1164,0.0118 -0.042,-0.004 -0.08,-0.0166 -0.1163,-0.0366 -0.036,-0.0198 -0.07,-0.0483 -0.1,-0.0832 -0.03,-0.035 -0.052,-0.0722 -0.067,-0.11163 -0.015,-0.0397 -0.022,-0.0816 -0.022,-0.12583 0,-0.0449 0.01,-0.086 0.022,-0.12254 0.015,-0.0367 0.037,-0.0688 0.067,-0.0974 0.03,-0.0286 0.064,-0.0485 0.1,-0.0608 0.036,-0.0122 0.075,-0.0163 0.1163,-0.0119 0,0 0,0 0,0 m -6.6293,-0.68196 c 0,0 0.3885,0.0412 0.3885,0.0412 0,0 0,2.01172 0,2.01172 0,0 -0.3885,-0.0416 -0.3885,-0.0416 0,0 0,-2.01132 0,-2.01132 m 0.763,0.081 c 0,0 0.3889,0.0413 0.3889,0.0413 0,0 0,1.6682 0,1.6682 0,0 0.906,0.0969 0.906,0.0969 0,0 0,0.34447 0,0.34447 0,0 -1.2949,-0.13876 -1.2949,-0.13876 0,0 0,-2.0121 0,-2.0121 m 1.5421,0.16367 c 0,0 0.3895,0.0413 0.3895,0.0413 0,0 0,2.01407 0,2.01407 0,0 -0.3895,-0.0417 -0.3895,-0.0417 0,0 0,-2.01368 0,-2.01368 m 1.297,0.13765 c 0,0 0.4318,0.0458 0.4318,0.0458 0,0 0.6561,2.08573 0.6561,2.08573 0,0 -0.4011,-0.043 -0.4011,-0.043 0,0 -0.1245,-0.41928 -0.1245,-0.41928 0,0 -0.7107,-0.076 -0.7107,-0.076 0,0 -0.1267,0.39221 -0.1267,0.39221 0,0 -0.3981,-0.0427 -0.3981,-0.0427 0,0 0.6732,-1.94287 0.6732,-1.94287 m 3.0272,0.36716 c -0.033,-0.004 -0.064,-4.1e-4 -0.092,0.009 -0.029,0.01 -0.055,0.0248 -0.079,0.0477 -0.024,0.0229 -0.042,0.0493 -0.054,0.0783 -0.012,0.0288 -0.017,0.0607 -0.017,0.0963 0,0.0353 0,0.0683 0.017,0.0999 0.012,0.0313 0.03,0.0619 0.054,0.0898 0.024,0.0275 0.051,0.0489 0.079,0.0644 0.029,0.0156 0.059,0.0254 0.092,0.029 0.034,0.004 0.065,8e-5 0.094,-0.009 0.028,-0.01 0.054,-0.0249 0.078,-0.0477 0.024,-0.0229 0.042,-0.0496 0.054,-0.0784 0.012,-0.0291 0.018,-0.0609 0.018,-0.0962 0,-0.0356 -0.01,-0.0687 -0.018,-0.10003 -0.012,-0.0316 -0.03,-0.0619 -0.054,-0.0898 -0.024,-0.0282 -0.051,-0.0502 -0.079,-0.0657 -0.028,-0.0154 -0.059,-0.0241 -0.092,-0.0277 0,0 0,-2e-5 0,-2e-5 m -0.126,0.0542 c 0,0 0.1176,0.0125 0.1176,0.0125 0.048,0.005 0.085,0.0182 0.1093,0.0383 0.024,0.0197 0.034,0.0474 0.034,0.0827 0,0.0251 -0.01,0.0453 -0.021,0.0602 -0.015,0.0148 -0.034,0.0232 -0.061,0.0253 0.011,0.008 0.023,0.0175 0.032,0.0301 0.01,0.0127 0.018,0.0284 0.027,0.0461 0,0 0.046,0.10042 0.046,0.10042 0,0 -0.095,-0.0101 -0.095,-0.0101 0,0 -0.043,-0.0976 -0.043,-0.0976 -0.011,-0.0238 -0.02,-0.0399 -0.028,-0.05 -0.01,-0.0105 -0.016,-0.017 -0.024,-0.0178 0,0 0,-5.2e-4 0,-5.2e-4 0,0 0,0.15545 0,0.15545 0,0 -0.089,-0.009 -0.089,-0.009 0,0 0,-0.36559 0,-0.36559 0,0 -2e-4,2e-5 -2e-4,2e-5 m 0.089,0.0705 c 0,0 0,0.0905 0,0.0905 0,0 0.015,0.002 0.015,0.002 0.021,0.002 0.037,0 0.048,-0.006 0.011,-0.007 0.017,-0.0175 0.017,-0.0326 0,-0.0152 -0.01,-0.0278 -0.017,-0.0362 -0.011,-0.008 -0.026,-0.013 -0.048,-0.0153 0,0 -0.015,-0.001 -0.015,-0.001 m -2.7819,0.006 c 0,0 -0.2464,0.76119 -0.2464,0.76119 0,0 0.4941,0.0528 0.4941,0.0528 0,0 -0.2477,-0.81395 -0.2477,-0.81395"
         style="fill:#1f7a7a;fill-opacity:1" />
      <path
         style="fill:#000000;fill-opacity:1;fill-rule:evenodd;stroke:none;stroke-width:0.80514383px;stroke-linecap:butt;stroke-linejoin:miter;stroke-opacity:1"
         d="m 1650.329,80.58091 c -0.589,-0.0592 -1.0658,0.4091 -1.0664,1.04688 l 0,8.77344 a 17.701117,17.849392 0 0 0 -10.4589,-3.47266 17.701117,17.849392 0 0 0 -17.7012,17.84961 17.701117,17.849392 0 0 0 17.7012,17.84961 17.701117,17.849392 0 0 0 10.6289,-3.5957 c 0.187,0.35546 0.5099,0.62782 0.8964,0.67382 l 21.625,2.55078 0,3.66602 -13.7773,-1.64648 0,2.71875 30.4902,3.67773 0.9043,0.10938 6.6719,0.80468 0,-0.72656 c 1.3967,-0.0565 3.1816,-0.10726 5.4473,-0.043 1.9795,0.0555 3.9683,0.20799 5.4414,0.51563 0.7366,0.15375 1.3428,0.35149 1.7305,0.5625 0.3876,0.21101 0.5026,0.3893 0.5195,0.51172 0.028,0.20117 -0.022,0.35119 -0.1836,0.56054 -0.1613,0.20934 -0.4407,0.43815 -0.7637,0.65235 -0.3231,0.2142 -0.685,0.41627 -1.0176,0.61328 -0.3326,0.19686 -0.6342,0.36498 -0.8808,0.6582 -0.1234,0.14654 -0.2501,0.36319 -0.2403,0.63867 0.011,0.27561 0.1731,0.51125 0.3438,0.65821 0.3415,0.29419 0.7792,0.44216 1.4863,0.63085 1.4144,0.3771 3.89,0.78631 8.0996,1.32422 0.8757,0.1123 1.5352,0.24926 1.9688,0.39649 0.409,0.13905 0.5477,0.2869 0.5625,0.29883 -0.011,0.0208 -0.011,0.0341 -0.061,0.0937 -0.1409,0.16942 -0.48,0.44253 -0.9785,0.73242 -1.6368,0.95189 -4.9997,2.19525 -9.3262,3.59765 -0.9118,-0.75 -2.2539,-1.22322 -3.9785,-1.16992 -3.8099,0.1178 -6.1754,2.8183 -8.334,5.2168 0,0 -0.06,0.35894 -0.1797,0.89844 -0.1199,0.5398 2.0996,2.69716 3.2988,3.47656 1.1994,0.7795 3.8777,0.14115 7.3145,-1.49805 3.1473,-1.5012 3.8532,-4.12351 2.707,-5.97851 4.1129,-1.338 7.3076,-2.52611 9.0762,-3.55469 0.5587,-0.32483 0.9829,-0.62753 1.2812,-0.98633 0.1492,-0.17939 0.2708,-0.38043 0.3243,-0.62305 0.054,-0.24262 0.014,-0.52287 -0.1094,-0.74414 -0.2463,-0.44226 -0.6784,-0.65548 -1.2324,-0.84375 -0.5541,-0.18841 -1.2708,-0.33555 -2.1914,-0.45312 -4.1929,-0.5357 -6.6619,-0.94762 -7.9493,-1.29102 -0.4514,-0.12062 -0.5692,-0.19984 -0.7265,-0.27734 0.1044,-0.0749 0.1449,-0.11653 0.3066,-0.21289 0.3101,-0.18369 0.6909,-0.39539 1.0664,-0.64453 0.3756,-0.24899 0.7483,-0.53361 1.0371,-0.90821 0.2889,-0.3746 0.4927,-0.87644 0.418,-1.41796 -0.086,-0.62041 -0.5581,-1.0602 -1.1113,-1.36133 -0.5533,-0.30112 -1.2472,-0.51082 -2.0469,-0.67774 -1.5988,-0.33398 -3.6267,-0.48208 -5.6406,-0.53906 -1.3295,-0.0374 -2.5364,-0.037 -3.5938,-0.0195 -0.736,0.0123 -1.2992,0.0376 -1.8847,0.0606 l 0,-0.88868 -14.0567,-1.67968 0,-3.68164 22.209,2.62109 c 0.617,0.0727 1.1171,-0.39911 1.1172,-1.05273 l 0,-37.66211 c -6e-4,-0.65332 -0.5005,-1.23414 -1.1172,-1.29688 l -54.0664,-5.49219 z m 1.0684,2.42188 51.8809,5.32226 0,35.26172 -51.8809,-6.07031 0,-0.21484 a 17.701117,17.849392 0 0 0 5.1074,-12.52344 17.701117,17.849392 0 0 0 -5.1074,-12.53516 l 0,-9.24023 z"
         id="path28398-4-8" />
      <path
         style="fill:#000000;fill-opacity:1;fill-rule:evenodd;stroke:none;stroke-width:0.80514383px;stroke-linecap:butt;stroke-linejoin:miter;stroke-opacity:1"
         d="m 1769.6406,93.265625 c -0.6209,-0.0624 -1.1244,0.431236 -1.125,1.103516 l 0,9.248049 a 18.658499,18.814795 0 0 0 -11.0234,-3.662112 18.658499,18.814795 0 0 0 -18.6582,18.816402 18.658499,18.814795 0 0 0 18.6582,18.81446 18.658499,18.814795 0 0 0 11.2031,-3.79102 c 0.1972,0.37462 0.5378,0.66244 0.9453,0.71094 l 22.793,2.68945 0,3.86328 -14.5215,-1.73632 0,2.86718 32.1387,3.87696 0.9531,0.11523 1.6074,0.19336 0,-2.90625 -9.3906,-1.12109 0,-3.88086 9.3906,1.10742 0,-2.48047 -41.8437,-4.89648 0,-0.22657 a 18.658499,18.814795 0 0 0 5.3828,-13.19922 18.658499,18.814795 0 0 0 -5.3828,-13.21289 l 0,-9.740231 41.8437,4.292971 0,-2.480471 -42.9707,-4.365234 z"
         transform="translate(-1.2207031e-4,0)"
         id="path28408-5-9" />
      <rect
         y="22.402538"
         x="1605.5798"
         height="157.00214"
         width="207.03087"
         id="rect7152-3-7-2-9-5-3-8-8-2"
         style="opacity:1;fill:none;fill-opacity:1;fill-rule:nonzero;stroke:#666666;stroke-width:0.29785961;stroke-linecap:round;stroke-linejoin:round;stroke-miterlimit:4;stroke-dasharray:none;stroke-dashoffset:0;stroke-opacity:1" />
    </g>
  </g>
</svg>
