<?xml version="1.0" encoding="UTF-8" standalone="no"?>
<svg
   xmlns:dc="http://purl.org/dc/elements/1.1/"
   xmlns:cc="http://creativecommons.org/ns#"
   xmlns:rdf="http://www.w3.org/1999/02/22-rdf-syntax-ns#"
   xmlns:svg="http://www.w3.org/2000/svg"
   xmlns="http://www.w3.org/2000/svg"
   version="1.1"
   id="svg5156"
   viewBox="0 0 210 160"
   height="160"
   width="210">
  <defs
     id="defs5158">
    <linearGradient
       spreadMethod="pad"
       gradientUnits="userSpaceOnUse"
       y2="593.78698"
       y1="3.6658269"
       x2="590.86259"
       x1="0.74144253"
       id="gradientFill"
       gradientTransform="matrix(1.2219423,0,0,0.81836924,-767.16729,-40.990215)">
      <stop
         id="stop6361"
         stop-opacity="1"
         stop-color="rgb(203,206,208)"
         offset="0" />
      <stop
         id="stop6363"
         stop-opacity="1"
         stop-color="rgb(132,131,139)"
         offset="1" />
    </linearGradient>
    <linearGradient
       spreadMethod="pad"
       gradientUnits="userSpaceOnUse"
       y2="593.78699"
       y1="3.6658268"
       x2="590.86261"
       x1="0.7414425"
       id="gradientFill-0"
       gradientTransform="matrix(1.2219423,0,0,0.81836924,-767.16729,-40.990215)">
      <stop
         id="stop6361-6"
         stop-opacity="1"
         stop-color="rgb(203,206,208)"
         offset="0" />
      <stop
         id="stop6363-2"
         stop-opacity="1"
         stop-color="rgb(132,131,139)"
         offset="1" />
    </linearGradient>
  </defs>
  <metadata
     id="metadata5161">
    <rdf:RDF>
      <cc:Work
         rdf:about="">
        <dc:format>image/svg+xml</dc:format>
        <dc:type
           rdf:resource="http://purl.org/dc/dcmitype/StillImage" />
        <dc:title></dc:title>
      </cc:Work>
    </rdf:RDF>
  </metadata>
  <g
     transform="translate(0,-892.36221)"
     id="layer1">
    <g
       id="g484170"
       transform="translate(-1981.9523,445.9776)">
      <path
         style="opacity:1;fill:#cccccc;fill-opacity:1;fill-rule:nonzero;stroke:none;stroke-width:2;stroke-linecap:round;stroke-linejoin:round;stroke-miterlimit:4;stroke-dasharray:none;stroke-dashoffset:0;stroke-opacity:1"
         d="m 2188.0566,463.73828 c -0.3606,-0.0363 -0.654,0.2502 -0.6543,0.64063 l 0,5.36914 a 10.835845,10.926612 0 0 0 -6.4023,-2.125 10.835845,10.926612 0 0 0 -10.8359,10.92773 10.835845,10.926612 0 0 0 10.8359,10.92578 10.835845,10.926612 0 0 0 6.5059,-2.20117 c 0.115,0.21745 0.3142,0.38397 0.5507,0.41211 l 2.4122,0.28516 0,-1.41993 -1.7598,-0.20507 0,-0.13086 a 10.835845,10.926612 0 0 0 1.7598,-2.39063 l 0,-10.57422 a 10.835845,10.926612 0 0 0 -1.7598,-2.375 l 0,-5.65625 1.7598,0.17969 0,-1.41797 -2.4122,-0.24414 z"
         transform="translate(-1.2207031e-4,0)"
         id="path28288-0-4" />
      <path
         style="opacity:1;fill:#000000;fill-opacity:1;fill-rule:nonzero;stroke:none;stroke-width:1.60000002;stroke-linecap:round;stroke-linejoin:round;stroke-miterlimit:4;stroke-dasharray:none;stroke-dashoffset:0;stroke-opacity:1"
         d="m 1996.6182,548.00663 c -2.1819,0.0444 -4.0305,1.61985 -4.4213,3.76695 -1.4733,7.4826 -2.3457,12.07806 -2.7093,15.17552 -0.1817,1.5487 -0.3151,2.6504 -0.052,4.1704 0.1319,0.7599 0.3677,1.76 1.284,2.8235 0.9015,1.0462 2.5554,1.7169 3.7132,1.7681 1.2389,0.054 1.6416,-0.1538 2.0931,-0.2935 0.2756,-0.086 0.5223,-0.1896 0.7753,-0.2869 l 0,16.1122 38.7208,0 0,-18.0954 c 0.9708,2.4152 1.961,4.8722 2.7518,6.7944 0.4762,1.1576 0.8918,2.155 1.2235,2.9267 0.3318,0.7715 0.2009,0.7812 0.9479,1.9764 0.8438,1.3501 1.935,1.7962 2.5838,2.0101 0.6489,0.2139 1.0639,0.2442 1.414,0.2644 0.7004,0.04 1.1551,-0.015 1.6404,-0.076 0.9705,-0.1234 1.9659,-0.3355 3.1148,-0.6074 2.2979,-0.5434 5.1172,-1.339 7.9127,-2.1691 5.591,-1.6602 11.05,-3.4554 11.05,-3.4554 5.9446,-1.8437 3.0128,-10.7626 -2.8662,-8.7194 0,0 -5.3738,1.7644 -10.7966,3.3747 -2.673,0.7937 -5.3462,1.5406 -7.3077,2.0079 -0.1521,-0.3656 -0.257,-0.6085 -0.428,-1.0241 -0.9325,-2.2662 -2.1196,-5.2051 -3.283,-8.1076 -2.3266,-5.80523 -4.5647,-11.47125 -4.5647,-11.47125 -1.154,-1.77485 -2.5893,-2.66699 -4.3092,-2.96257 -12.7892,-1.56897 -25.821,-4.50243 -38.4878,-5.90254 z"
         id="path28258-4-5" />
      <path
         style="opacity:1;fill:#000000;fill-opacity:1;fill-rule:nonzero;stroke:none;stroke-width:1.60000002;stroke-linecap:round;stroke-linejoin:round;stroke-miterlimit:4;stroke-dasharray:none;stroke-dashoffset:0;stroke-opacity:1"
         d="m 2114.2207,562.96094 c -2.3,0.0468 -4.2482,1.70744 -4.6602,3.9707 -1.553,7.8873 -2.4722,12.73109 -2.8554,15.99609 -0.1916,1.6325 -0.333,2.79234 -0.055,4.39454 0.139,0.801 0.3876,1.85556 1.3535,2.97656 0.9503,1.1028 2.6937,1.80938 3.9141,1.86328 1.3059,0.057 1.7311,-0.16129 2.207,-0.30859 0.2905,-0.091 0.5497,-0.20014 0.8164,-0.30274 l 0,13.33399 40.8164,0 0,-15.42383 c 1.0233,2.5459 2.0669,5.13591 2.9004,7.16211 0.502,1.2202 0.9395,2.27068 1.2891,3.08398 0.3498,0.8133 0.2126,0.82409 1,2.08399 0.8894,1.4231 2.0386,1.89364 2.7226,2.11914 0.6839,0.2255 1.1212,0.25799 1.4903,0.27929 0.7383,0.042 1.217,-0.0161 1.7285,-0.0801 1.0231,-0.13 2.074,-0.35403 3.2851,-0.64063 2.4222,-0.5729 5.3931,-1.41201 8.3399,-2.28711 5.8934,-1.75 11.6484,-3.64258 11.6484,-3.64258 0.1072,-0.0332 0.2049,-0.0738 0.3067,-0.11133 l 0,-9.11914 c -0.9484,-0.3539 -2.073,-0.39713 -3.3282,0.0391 0,0 -5.6647,1.86119 -11.3808,3.55859 -2.8176,0.8366 -5.6356,1.62253 -7.7032,2.11523 -0.1603,-0.3854 -0.2709,-0.64002 -0.4511,-1.07812 -0.9829,-2.3888 -2.2347,-5.48738 -3.461,-8.54688 -2.4525,-6.1192 -4.8105,-12.09179 -4.8105,-12.09179 -1.2164,-1.8709 -2.73,-2.81145 -4.543,-3.12305 -13.4809,-1.6538 -27.2184,-4.74486 -40.5703,-6.2207 z"
         transform="translate(-1.2207031e-4,0)"
         id="path28268-1-7" />
      <ellipse
         ry="14.511623"
         rx="14.391075"
         cy="501.04242"
         cx="2106.1404"
         id="ellipse28274-3-2"
         style="opacity:1;fill:#666666;fill-opacity:1;fill-rule:nonzero;stroke:none;stroke-width:2;stroke-linecap:round;stroke-linejoin:round;stroke-miterlimit:4;stroke-dasharray:none;stroke-dashoffset:0;stroke-opacity:1" />
      <path
         style="opacity:1;fill:#666666;fill-opacity:1;fill-rule:nonzero;stroke:none;stroke-width:1.60000002;stroke-linecap:round;stroke-linejoin:round;stroke-miterlimit:4;stroke-dasharray:none;stroke-dashoffset:0;stroke-opacity:1"
         d="m 2089.8448,515.47153 c -1.7739,0.0361 -3.2761,1.3169 -3.5938,3.0625 -1.1978,6.08339 -1.9075,9.81964 -2.2031,12.33789 -0.1478,1.25913 -0.2554,2.15483 -0.041,3.39062 0.1072,0.61779 0.2979,1.43029 1.043,2.29492 0.7329,0.85054 2.0782,1.39591 3.0195,1.4375 1.0072,0.044 1.3341,-0.12466 1.7012,-0.23828 0.224,-0.0699 0.4251,-0.15525 0.6308,-0.23437 l 0,13.09961 27.4082,0 a 18.658499,18.814795 0 0 1 -1.1191,-6.36914 18.658499,18.814795 0 0 1 9.9238,-16.61133 c -0.7671,-1.93179 -1.9746,-4.96289 -1.9746,-4.96289 -0.9382,-1.44296 -2.1055,-2.1679 -3.5039,-2.40821 -10.3976,-1.27558 -20.9928,-3.66052 -31.291,-4.79882 z"
         id="path28276-7-7" />
      <path
         style="opacity:1;fill:#666666;fill-opacity:1;fill-rule:nonzero;stroke:none;stroke-width:2;stroke-linecap:round;stroke-linejoin:round;stroke-miterlimit:4;stroke-dasharray:none;stroke-dashoffset:0;stroke-opacity:1"
         d="m 2190.4688,503.30859 c -1.8793,2.54696 -3.004,5.69277 -3.004,9.11133 0,3.29943 1.0763,6.47686 3.004,9.09375 l 0,-18.20508 z"
         transform="translate(-1.2207031e-4,0)"
         id="path28282-3-4" />
      <path
         style="opacity:1;fill:#cccccc;fill-opacity:1;fill-rule:nonzero;stroke:none;stroke-width:1.60000002;stroke-linecap:round;stroke-linejoin:round;stroke-miterlimit:4;stroke-dasharray:none;stroke-dashoffset:0;stroke-opacity:1"
         d="m 2168.7305,489.41211 c -1.3356,0.0272 -2.4659,0.99228 -2.7051,2.30664 -0.9019,4.58052 -1.4376,7.39489 -1.6602,9.29102 -0.1113,0.94806 -0.1928,1.62223 -0.031,2.55273 0.081,0.46516 0.2261,1.07749 0.7871,1.72852 0.5518,0.64041 1.5627,1.05072 2.2715,1.08203 0.7584,0.0331 1.0049,-0.0941 1.2812,-0.17969 0.1688,-0.0526 0.3197,-0.11621 0.4746,-0.17578 l 0,9.86328 18.7286,0 a 15.16943,15.296498 0 0 1 -0.4122,-3.46289 15.16943,15.296498 0 0 1 3.004,-9.0918 l 0,-10.54492 c -7.2422,-0.99561 -14.5843,-2.57838 -21.7383,-3.36914 z"
         transform="translate(-1.2207031e-4,0)"
         id="path28290-4-0" />
      <path
         id="path359824-6"
         style="font-style:normal;font-variant:normal;font-weight:normal;font-stretch:normal;font-size:medium;line-height:136.00000143%;font-family:Lato;-inkscape-font-specification:Lato;letter-spacing:0.77406031px;word-spacing:-0.51087981px;fill:#1f7a7a;fill-opacity:1;stroke:none;stroke-width:1px;stroke-linecap:butt;stroke-linejoin:miter;stroke-opacity:1"
         d="m 2165.2849,553.90389 c 0,0 1.3529,0.15524 1.3529,0.15524 0,0 0,-4.63062 0,-4.63062 0,-0.13271 0,-0.27282 0.013,-0.42033 0,0 -1.1238,0.9108 -1.1238,0.9108 -0.038,0.0304 -0.076,0.0482 -0.1145,0.0534 -0.038,0.002 -0.073,-0.002 -0.1058,-0.012 -0.032,-0.01 -0.063,-0.0261 -0.092,-0.0483 -0.027,-0.0219 -0.047,-0.0448 -0.062,-0.0686 0,0 -0.2467,-0.39261 -0.2467,-0.39261 0,0 1.8816,-1.5364 1.8816,-1.5364 0,0 0.6396,0.0718 0.6396,0.0718 0,0 0,6.16344 0,6.16344 0,0 1.2448,0.14284 1.2448,0.14284 0,0 0,0.64511 0,0.64511 0,0 -3.3872,-0.38954 -3.3872,-0.38954 0,0 0,-0.64425 0,-0.64425 0,0 -10e-5,-2e-5 -10e-5,-2e-5" />
      <path
         id="path359826-0"
         style="font-style:normal;font-variant:normal;font-weight:normal;font-stretch:normal;font-size:medium;line-height:136.00000143%;font-family:Lato;-inkscape-font-specification:Lato;letter-spacing:0.77406031px;word-spacing:-0.51087981px;fill:#1f7a7a;fill-opacity:1;stroke:none;stroke-width:1px;stroke-linecap:butt;stroke-linejoin:miter;stroke-opacity:1"
         d="m 2170.7731,554.53365 c 0,0 1.3588,0.15592 1.3588,0.15592 0,0 0,-4.64066 0,-4.64066 0,-0.133 0,-0.27341 0.013,-0.42124 0,0 -1.1288,0.9125 -1.1288,0.9125 -0.038,0.0305 -0.077,0.0483 -0.115,0.0534 -0.038,0.002 -0.074,-0.002 -0.1061,-0.012 -0.033,-0.01 -0.063,-0.0262 -0.093,-0.0485 -0.027,-0.022 -0.047,-0.0449 -0.062,-0.0687 0,0 -0.2477,-0.39352 -0.2477,-0.39352 0,0 1.8897,-1.53926 1.8897,-1.53926 0,0 0.6424,0.0721 0.6424,0.0721 0,0 0,6.17681 0,6.17681 0,0 1.2501,0.14346 1.2501,0.14346 0,0 0,0.64651 0,0.64651 0,0 -3.4018,-0.39123 -3.4018,-0.39123 0,0 0,-0.64564 0,-0.64564 0,0 -1e-4,-3e-5 -1e-4,-3e-5" />
      <path
         id="path359828-0"
         style="font-style:normal;font-variant:normal;font-weight:normal;font-stretch:normal;font-size:medium;line-height:136.00000143%;font-family:Lato;-inkscape-font-specification:Lato;letter-spacing:0.77406031px;word-spacing:-0.51087981px;fill:#1f7a7a;fill-opacity:1;stroke:none;stroke-width:1px;stroke-linecap:butt;stroke-linejoin:miter;stroke-opacity:1"
         d="m 2176.2851,555.16615 c 0,0 1.3647,0.15659 1.3647,0.15659 0,0 0,-4.65074 0,-4.65074 0,-0.13328 0,-0.274 0.013,-0.42215 0,0 -1.1337,0.9142 -1.1337,0.9142 -0.038,0.0305 -0.077,0.0484 -0.1155,0.0535 -0.038,0.002 -0.074,-0.002 -0.1067,-0.0121 -0.033,-0.01 -0.064,-0.0262 -0.093,-0.0486 -0.027,-0.022 -0.047,-0.045 -0.062,-0.0689 0,0 -0.2487,-0.39443 -0.2487,-0.39443 0,0 1.8979,-1.54214 1.8979,-1.54214 0,0 0.6452,0.0725 0.6452,0.0725 0,0 0,6.19022 0,6.19022 0,0 1.2556,0.14408 1.2556,0.14408 0,0 0,0.64792 0,0.64792 0,0 -3.4166,-0.39293 -3.4166,-0.39293 0,0 0,-0.64704 0,-0.64704 0,0 0,-2e-5 0,-2e-5" />
      <path
         id="path359830-4"
         style="font-style:normal;font-variant:normal;font-weight:normal;font-stretch:normal;font-size:medium;line-height:136.00000143%;font-family:Lato;-inkscape-font-specification:Lato;letter-spacing:0.77406031px;word-spacing:-0.51087981px;fill:#1f7a7a;fill-opacity:1;stroke:none;stroke-width:1px;stroke-linecap:butt;stroke-linejoin:miter;stroke-opacity:1"
         d="m 2181.201,555.85418 c 0,-0.0826 0.013,-0.15895 0.04,-0.22897 0.03,-0.0697 0.068,-0.12881 0.1159,-0.17738 0.051,-0.0482 0.1101,-0.0843 0.1785,-0.10827 0.068,-0.0239 0.1413,-0.0315 0.2186,-0.0226 0.077,0.009 0.1502,0.0331 0.2187,0.0727 0.068,0.0396 0.1279,0.0894 0.1785,0.1492 0.051,0.0598 0.091,0.12804 0.1205,0.20457 0.03,0.0765 0.045,0.15614 0.045,0.2388 0,0.0858 -0.015,0.16361 -0.045,0.23332 -0.03,0.0665 -0.07,0.12391 -0.1205,0.17214 -0.051,0.0482 -0.1101,0.0827 -0.1785,0.10345 -0.068,0.0239 -0.1413,0.0314 -0.2187,0.0225 -0.077,-0.009 -0.1502,-0.0332 -0.2186,-0.0728 -0.068,-0.0364 -0.1279,-0.0846 -0.1785,-0.14446 -0.048,-0.0595 -0.086,-0.12592 -0.1159,-0.19925 -0.027,-0.0762 -0.04,-0.15716 -0.04,-0.24296 0,0 0,0 0,0" />
      <path
         id="path359832-0"
         style="font-style:normal;font-variant:normal;font-weight:normal;font-stretch:normal;font-size:medium;line-height:136.00000143%;font-family:Lato;-inkscape-font-specification:Lato;letter-spacing:0.77406031px;word-spacing:-0.51087981px;fill:#1f7a7a;fill-opacity:1;stroke:none;stroke-width:1px;stroke-linecap:butt;stroke-linejoin:miter;stroke-opacity:1"
         d="m 2185.8606,549.99459 c 0.2716,0.0305 0.5224,0.10006 0.7523,0.20868 0.2299,0.10864 0.427,0.24864 0.5913,0.42001 0.1673,0.17173 0.2973,0.37113 0.3899,0.5982 0.093,0.22709 0.139,0.47286 0.139,0.7373 0,0.21666 -0.027,0.40796 -0.081,0.57391 -0.051,0.1631 -0.1255,0.30437 -0.2241,0.42381 -0.096,0.11658 -0.2121,0.21167 -0.3495,0.28527 -0.1375,0.0736 -0.2913,0.12777 -0.4615,0.16258 0.4181,0.16535 0.7318,0.3985 0.941,0.69945 0.2121,0.30134 0.3182,0.66073 0.3182,1.07813 0,0.31543 -0.057,0.59251 -0.1703,0.8312 -0.1106,0.23902 -0.263,0.43658 -0.4572,0.59268 -0.1942,0.15289 -0.4212,0.26217 -0.6809,0.32785 -0.2568,0.0628 -0.5329,0.0772 -0.8284,0.0432 -0.3401,-0.0391 -0.6309,-0.11713 -0.8725,-0.23403 -0.2415,-0.12005 -0.4457,-0.26921 -0.6126,-0.44746 -0.1669,-0.17825 -0.304,-0.38168 -0.4112,-0.6103 -0.1073,-0.23179 -0.1981,-0.47918 -0.2726,-0.74217 0,0 0.3441,-0.11336 0.3441,-0.11336 0.089,-0.0311 0.1758,-0.0324 0.2593,-0.004 0.086,0.029 0.149,0.0886 0.1877,0.17896 0.039,0.0935 0.086,0.20557 0.1431,0.33615 0.06,0.13092 0.1401,0.25947 0.2415,0.38565 0.1014,0.12618 0.2296,0.23795 0.3847,0.3353 0.158,0.0977 0.3579,0.16043 0.5996,0.18816 0.2238,0.0257 0.4193,0.01 0.5865,-0.0473 0.1701,-0.0601 0.3105,-0.14591 0.421,-0.25746 0.1135,-0.1112 0.1986,-0.24 0.2553,-0.38639 0.057,-0.1464 0.085,-0.29445 0.085,-0.44416 0,-0.18474 -0.022,-0.35611 -0.067,-0.51411 -0.045,-0.158 -0.1284,-0.29971 -0.2509,-0.42513 -0.1224,-0.12541 -0.2911,-0.23219 -0.506,-0.32033 -0.212,-0.0878 -0.485,-0.1507 -0.8192,-0.18871 0,0 0,-0.61594 0,-0.61594 0.2745,0.0281 0.5073,0.0227 0.6983,-0.0163 0.194,-0.0385 0.3508,-0.1035 0.4702,-0.19505 0.1224,-0.0912 0.2105,-0.20703 0.2642,-0.34745 0.057,-0.14009 0.085,-0.29932 0.085,-0.47768 0,-0.19748 -0.03,-0.37284 -0.09,-0.5261 -0.057,-0.1529 -0.1358,-0.28285 -0.2373,-0.38983 -0.1016,-0.10698 -0.2225,-0.19225 -0.3628,-0.25582 -0.1373,-0.0632 -0.2865,-0.1039 -0.4477,-0.12204 -0.1611,-0.0181 -0.3118,-0.01 -0.452,0.0255 -0.1372,0.0355 -0.2595,0.0933 -0.3668,0.17352 -0.1044,0.0773 -0.1924,0.17404 -0.2639,0.29008 -0.072,0.11604 -0.1223,0.24715 -0.1521,0.39334 -0.039,0.10699 -0.088,0.17621 -0.1476,0.20766 -0.057,0.0286 -0.1401,0.0287 -0.2503,3.1e-4 0,0 -0.4157,-0.12335 -0.4157,-0.12335 0.042,-0.30704 0.1221,-0.57313 0.2413,-0.79829 0.1192,-0.22836 0.2697,-0.41345 0.4516,-0.55527 0.1848,-0.1415 0.395,-0.24039 0.6306,-0.29666 0.2386,-0.0591 0.4952,-0.0733 0.7697,-0.0425 0,0 0,-2e-5 0,-2e-5" />
      <path
         style="opacity:1;fill:#cccccc;fill-opacity:1;fill-rule:nonzero;stroke:none;stroke-width:3;stroke-linecap:round;stroke-linejoin:round;stroke-miterlimit:4;stroke-dasharray:none;stroke-dashoffset:0;stroke-opacity:1"
         d="m 2161.9928,538.74054 c 0,0 12.7776,1.39155 12.7776,1.39155 0,0 0,3.81441 0,3.81441 0,0 -12.7776,-1.41072 -12.7776,-1.41072 0,0 0,-3.79524 0,-3.79524"
         id="path30441-3" />
      <path
         style="opacity:1;fill:#cccccc;fill-opacity:1;fill-rule:nonzero;stroke:none;stroke-width:3;stroke-linecap:round;stroke-linejoin:round;stroke-miterlimit:4;stroke-dasharray:none;stroke-dashoffset:0;stroke-opacity:1"
         d="m 2175.838,540.24836 c 0,0 13.8685,1.51036 13.8685,1.51036 0,0 0,3.83681 0,3.83681 0,0 -13.8685,-1.53115 -13.8685,-1.53115 0,0 0,-3.81602 0,-3.81602"
         id="path30443-2" />
      <path
         style="opacity:1;fill:#cccccc;fill-opacity:1;fill-rule:nonzero;stroke:none;stroke-width:1.60000002;stroke-linecap:round;stroke-linejoin:round;stroke-miterlimit:4;stroke-dasharray:none;stroke-dashoffset:0;stroke-opacity:1"
         d="m 2161.9707,545.16992 0,11.01953 28.4981,3.29883 0,-0.79297 -27.9805,-3.23242 0,-9.44727 27.9805,3.12696 0,-0.79688 -28.4981,-3.17578 z"
         transform="translate(-1.2207031e-4,0)"
         id="path30445-0" />
      <path
         style="fill:#1f7a7a;fill-opacity:1;stroke:none"
         id="path30455-8"
         d="m 2161.7553,526.09027 c -0.5659,0.65408 -0.6886,1.64156 -0.3257,2.55344 0.1495,0.36643 0.347,0.65745 0.2776,0.40864 -0.1602,-0.5803 -0.1922,-1.50362 -0.069,-2.10603 0.043,-0.20256 0.1388,-0.52606 0.2136,-0.71955 0.075,-0.19925 0.1334,-0.35992 0.1228,-0.36679 -0.01,-0.006 -0.1068,0.0982 -0.2189,0.23029 0,0 0,0 0,0" />
      <path
         style="fill:#1f7a7a;fill-opacity:1;stroke:none"
         id="path30457-6"
         d="m 2166.6767,526.52104 c 0.2627,0.70144 0.3539,1.18344 0.3592,1.85242 0.01,0.45578 -0.021,0.76989 -0.086,0.99939 -0.048,0.17931 -0.08,0.34303 -0.064,0.35624 0.011,0.0127 0.08,-0.0837 0.1555,-0.21414 0.5362,-0.92346 0.445,-2.09142 -0.2306,-2.95118 0,0 -0.2251,-0.28265 -0.2251,-0.28265 0,0 0.091,0.23992 0.091,0.23992" />
      <path
         style="fill:#1f7a7a;fill-opacity:1;stroke:none"
         id="path30459-9"
         d="m 2162.4709,526.49825 c -0.3151,0.35253 -0.4006,0.62543 -0.4006,1.26954 0,0.54634 0.011,0.59347 0.1816,0.95646 0.1015,0.20621 0.1869,0.37048 0.1976,0.36585 0.01,-0.0109 -0.021,-0.16329 -0.064,-0.34033 -0.1549,-0.65466 -0.075,-1.54926 0.1923,-2.19439 0.059,-0.13769 0.096,-0.24885 0.086,-0.24996 -0.011,-10e-4 -0.1015,0.0872 -0.1923,0.19283 0,0 0,0 0,0" />
      <path
         style="fill:#1f7a7a;fill-opacity:1;stroke:none"
         id="path30461-9"
         d="m 2166.0016,526.86561 c 0.2732,0.63905 0.3697,1.78973 0.1982,2.35933 -0.1125,0.37412 0.011,0.2661 0.209,-0.18545 0.2144,-0.47875 0.2144,-1.10098 0,-1.63032 -0.08,-0.20424 -0.2304,-0.46756 -0.3322,-0.58184 0,0 -0.1822,-0.20901 -0.1822,-0.20901 0,0 0.1072,0.24729 0.1072,0.24729" />
      <path
         style="fill:#1f7a7a;fill-opacity:1;stroke:none"
         id="path30463-2"
         d="m 2162.9251,527.10353 c -0.3153,0.4158 -0.3741,1.04239 -0.139,1.56748 0.139,0.30798 0.171,0.3171 0.1015,0.0337 -0.086,-0.35413 -0.027,-1.21089 0.1069,-1.51911 0.059,-0.14345 0.1016,-0.25981 0.091,-0.26093 -0.011,-10e-4 -0.085,0.0774 -0.1603,0.1789 0,0 0,0 0,0" />
      <path
         style="fill:#1f7a7a;fill-opacity:1;stroke:none"
         id="path30465-3"
         d="m 2180.8303,528.83724 c -0.3848,0.0294 -0.9211,0.24572 -1.1918,0.47805 -0.655,0.55684 -0.72,1.74842 -0.1462,2.49205 0.2816,0.36557 0.6282,0.61068 1.1537,0.82262 0.5095,0.20451 0.9487,0.46539 1.1223,0.66923 0.1898,0.22298 0.1898,0.61711 0,0.84038 -0.1627,0.17975 -0.6019,0.27211 -0.9001,0.17667 -0.2764,-0.0815 -0.7098,-0.35931 -0.9373,-0.59777 -0.1679,-0.17998 -0.2112,-0.20195 -0.2707,-0.13878 -0.038,0.0423 -0.2491,0.2573 -0.4711,0.48268 0,0 -0.4005,0.41474 -0.4005,0.41474 0,0 0.1624,0.16203 0.1624,0.16203 0.2219,0.2205 0.8553,0.60658 1.2453,0.75827 0.1896,0.0782 0.5419,0.15057 0.84,0.18243 1.421,0.15184 2.257,-0.46634 2.3222,-1.70625 0.054,-1.06134 -0.3638,-1.6216 -1.6173,-2.19427 -0.629,-0.28641 -1.0735,-0.58228 -1.1494,-0.75825 -0.076,-0.19334 -0.016,-0.5057 0.1355,-0.64042 0.3686,-0.33221 1.0518,-0.19696 1.6595,0.33041 0,0 0.1519,0.13188 0.1519,0.13188 0,0 0.4668,-0.45551 0.4668,-0.45551 0,0 0.4724,-0.4551 0.4724,-0.4551 0,0 -0.2606,-0.21281 -0.2606,-0.21281 -0.6677,-0.55672 -1.5412,-0.84481 -2.387,-0.78228 0,0 0,0 0,0" />
      <path
         style="fill:#1f7a7a;fill-opacity:1;stroke:none"
         id="path30467-5"
         d="m 2165.6267,527.5292 c 0.1392,0.40617 0.182,0.84261 0.1178,1.25631 -0.032,0.18669 -0.043,0.35258 -0.032,0.36522 0.011,0.0126 0.07,-0.0848 0.1286,-0.21689 0.2035,-0.46825 0.1018,-1.26223 -0.2035,-1.59357 0,0 -0.1125,-0.11538 -0.1125,-0.11538 0,0 0.1018,0.30431 0.1018,0.30431" />
      <path
         style="fill:#1f7a7a;fill-opacity:1;stroke:none"
         id="path30469-4"
         d="m 2163.9141,527.31025 c -0.3049,0.14084 -0.4385,0.32829 -0.4706,0.67594 -0.048,0.57036 0.2994,1.02113 0.845,1.07841 0.5244,0.0551 0.8563,-0.25558 0.8563,-0.79683 0,-0.38003 -0.1713,-0.70883 -0.455,-0.88812 -0.2836,-0.17924 -0.4815,-0.19412 -0.7757,-0.0694 0,0 0,0 0,0" />
      <path
         style="fill:#1f7a7a;fill-opacity:1;stroke:none"
         id="path30471-8"
         d="m 2170.2568,529.67389 c -0.7952,0.92587 -1.8959,2.21661 -2.454,2.87223 -0.5578,0.65533 -1.051,1.23082 -1.0939,1.2781 -0.075,0.0899 -0.032,0.10027 0.8311,0.19247 0,0 0.9121,0.0974 0.9121,0.0974 0,0 0.4724,-0.58387 0.4724,-0.58387 0,0 0.4726,-0.58408 0.4726,-0.58408 0,0 1.1607,0.13493 1.1607,0.13493 0,0 1.1565,0.14025 1.1565,0.14025 0,0 -0.016,0.61598 -0.016,0.61598 0,0 -0.016,0.62175 -0.016,0.62175 0,0 0.7051,0.0753 0.7051,0.0753 0,0 0.7055,0.0753 0.7055,0.0753 0,0 0,-3.23457 0,-3.23457 0,0 0,-3.23458 0,-3.23458 0,0 -0.7002,-0.073 -0.7002,-0.073 0,0 -0.6943,-0.0724 -0.6943,-0.0724 0,0 -1.4413,1.67869 -1.4413,1.67869 m 1.4467,1.24872 c -0.011,0.53574 -0.027,0.97276 -0.032,0.9722 -0.027,0.0318 -1.323,-0.0938 -1.323,-0.12267 0,-0.10386 1.2746,-1.82208 1.3445,-1.81474 0.016,0.002 0.022,0.43523 0.011,0.9652 0,0 0,10e-6 0,10e-6" />
      <path
         style="fill:#1f7a7a;fill-opacity:1;stroke:none"
         id="path30473-1"
         d="m 2173.8039,531.4329 c 0,0 0.016,3.22565 0.016,3.22565 0,0 0.7171,0.0939 0.7171,0.0939 0,0 0.7121,0.0934 0.7121,0.0934 0,0 0,-1.30649 0,-1.30649 0,0 0,-1.30649 0,-1.30649 0,0 0.2536,0.0442 0.2536,0.0442 0,0 0.2483,0.0436 0.2483,0.0436 0,0 0.6264,1.29237 0.6264,1.29237 0.3457,0.71349 0.6536,1.32481 0.6861,1.36298 0.038,0.0445 0.3567,0.096 0.8757,0.1398 0,0 0.8168,0.0699 0.8168,0.0699 0,0 -0.2327,-0.43003 -0.2327,-0.43003 -0.1298,-0.23958 -0.4814,-0.8847 -0.7842,-1.43769 -0.2973,-0.54649 -0.5459,-1.0125 -0.5459,-1.02408 0,-0.0115 0.1297,-0.0731 0.2865,-0.14329 0.3622,-0.15848 0.6055,-0.38165 0.784,-0.72166 0.119,-0.23635 0.1406,-0.34984 0.146,-0.79495 0,-0.45726 -0.016,-0.56315 -0.1514,-0.86671 -0.2542,-0.58797 -0.7462,-0.98653 -1.4434,-1.17495 -0.1945,-0.055 -0.9505,-0.16274 -1.6899,-0.23983 0,0 -1.3321,-0.13887 -1.3321,-0.13887 0,0 0.011,3.21929 0.011,3.21929 m 2.8167,-1.57101 c 0.2269,0.14525 0.4106,0.43641 0.4106,0.64466 0,0.25454 -0.1675,0.51459 -0.3998,0.6174 -0.1837,0.0848 -0.3187,0.0937 -0.8046,0.0425 0,0 -0.5775,-0.055 -0.5775,-0.055 0,0 -0.01,-0.72318 -0.01,-0.72318 -0.01,-0.39945 -0.01,-0.74631 0,-0.76886 0.01,-0.0283 0.2645,-0.0128 0.5883,0.0327 0.432,0.0568 0.6318,0.11245 0.7885,0.20983 0,0 -1e-4,10e-6 -1e-4,10e-6" />
      <path
         style="fill:#1f7a7a;fill-opacity:1;stroke:none"
         id="path30475-0"
         d="m 2186.3597,531.58501 c -0.1633,0.0641 -0.4028,0.21311 -0.5225,0.32823 0,0 -0.223,0.21452 -0.223,0.21452 0,0 -0.038,-0.32906 -0.038,-0.32906 0,0 -0.038,-0.32905 -0.038,-0.32905 0,0 -0.3535,-0.0371 -0.3535,-0.0371 0,0 -0.3481,-0.0366 -0.3481,-0.0366 0,0 0,2.147 0,2.147 0,0 0,2.14701 0,2.14701 0,0 0.4079,0.0435 0.4079,0.0435 0,0 0.4079,0.0435 0.4079,0.0435 0,0 0,-1.36407 0,-1.36407 0,-1.54982 0.033,-1.69149 0.4408,-2.03739 0.2503,-0.21747 0.3919,-0.24902 0.7894,-0.17233 0.3322,0.064 0.5065,0.21597 0.6809,0.59449 0.093,0.20728 0.1035,0.36528 0.1035,1.713 0,0 0,1.48133 0,1.48133 0,0 0.4141,0.0442 0.4141,0.0442 0,0 0.4089,0.0436 0.4089,0.0436 0,0 -0.016,-1.64625 -0.016,-1.64625 -0.016,-1.59394 -0.022,-1.64681 -0.1472,-1.9157 -0.2834,-0.61086 -0.6377,-0.88628 -1.2587,-0.98635 -0.354,-0.0604 -0.4465,-0.0527 -0.7079,0.0534 0,0 0,0 0,0" />
      <path
         style="fill:#1f7a7a;fill-opacity:1;stroke:none"
         d="m 2190.4688,532.16797 c -0.3663,0.19337 -0.6747,0.51666 -0.877,0.94336 -0.1364,0.27627 -0.1523,0.37348 -0.1523,0.91992 0,0.5755 0.01,0.63972 0.1738,1.01172 0.1912,0.43561 0.4951,0.79374 0.8555,1.05664 l 0,-1.04297 c -0.1252,-0.2302 -0.2081,-0.49754 -0.2266,-0.79687 -0.025,-0.40904 0.061,-0.75311 0.2266,-1.02539 l 0,-1.06641 z"
         transform="translate(-1.2207031e-4,0)"
         id="path30477-7" />
      <path
         style="fill:#1f7a7a;fill-opacity:1;stroke:none"
         id="path30483-9"
         d="m 2163.7323,529.35149 c -0.3369,0.0739 -0.3529,0.11826 -0.3529,1.11945 0,0.82281 0.016,0.97411 0.1603,1.60512 0.3262,1.39283 0.3744,1.49581 0.7702,1.53808 0.2996,0.032 0.3745,-0.0349 0.5083,-0.46387 0.2944,-0.9705 0.3855,-1.4733 0.4176,-2.37393 0.027,-0.84939 0.027,-0.89546 -0.086,-1.057 -0.064,-0.0931 -0.2087,-0.2062 -0.3158,-0.252 -0.2355,-0.0938 -0.8828,-0.16187 -1.102,-0.11585 0,0 0,0 0,0" />
      <path
         style="opacity:1;fill:#cccccc;fill-opacity:1;fill-rule:nonzero;stroke:none;stroke-width:3;stroke-linecap:round;stroke-linejoin:round;stroke-miterlimit:4;stroke-dasharray:none;stroke-dashoffset:0;stroke-opacity:1"
         d="m 2041.9387,525.02972 c 0,0 12.122,1.32015 12.122,1.32015 0,0 0,3.61868 0,3.61868 0,0 -12.122,-1.33832 -12.122,-1.33832 0,0 0,-3.60051 0,-3.60051"
         id="path138166-0" />
      <path
         style="opacity:1;fill:#cccccc;fill-opacity:1;fill-rule:nonzero;stroke:none;stroke-width:3;stroke-linecap:round;stroke-linejoin:round;stroke-miterlimit:4;stroke-dasharray:none;stroke-dashoffset:0;stroke-opacity:1"
         d="m 2055.0735,526.46018 c 0,0 13.1569,1.43285 13.1569,1.43285 0,0 0,3.63994 0,3.63994 0,0 -13.1569,-1.45259 -13.1569,-1.45259 0,0 0,-3.6202 0,-3.6202"
         id="path138168-8" />
      <path
         style="opacity:1;fill:#cccccc;fill-opacity:1;fill-rule:nonzero;stroke:none;stroke-width:1.60000002;stroke-linecap:round;stroke-linejoin:round;stroke-miterlimit:4;stroke-dasharray:none;stroke-dashoffset:0;stroke-opacity:1"
         d="m 2041.9185,531.1292 c 0,0 0,10.45435 0,10.45435 0,0 37.3817,4.32887 37.3817,4.32887 0,0 0,-10.61713 0,-10.61713 0,0 -37.3817,-4.16609 -37.3817,-4.16609 0,0 0,0 0,0 m 0.4909,0.8016 c 0,0 36.3847,4.06629 36.3847,4.06629 0,0 0,9.09851 0,9.09851 0,0 -36.3847,-4.2021 -36.3847,-4.2021 0,0 0,-8.9627 0,-8.9627 0,0 0,0 0,0"
         id="path138170-5" />
      <path
         id="path359811-4"
         style="font-style:normal;font-variant:normal;font-weight:normal;font-stretch:normal;font-size:medium;line-height:136.00000143%;font-family:Lato;-inkscape-font-specification:Lato;letter-spacing:0.77406031px;word-spacing:-0.51087981px;fill:#1f7a7a;fill-opacity:1;stroke:none;stroke-width:1px;stroke-linecap:butt;stroke-linejoin:miter;stroke-opacity:1"
         d="m 2045.0619,539.41502 c 0,0 1.2835,0.14728 1.2835,0.14728 0,0 0,-4.39302 0,-4.39302 0,-0.1259 0,-0.25882 0.013,-0.39876 0,0 -1.0662,0.86407 -1.0662,0.86407 -0.036,0.0288 -0.072,0.0457 -0.1086,0.0506 -0.036,0.002 -0.07,-0.002 -0.1003,-0.0113 -0.031,-0.009 -0.06,-0.0247 -0.088,-0.0459 -0.025,-0.0208 -0.045,-0.0425 -0.059,-0.065 0,0 -0.234,-0.37247 -0.234,-0.37247 0,0 1.7851,-1.45756 1.7851,-1.45756 0,0 0.6067,0.0682 0.6067,0.0682 0,0 0,5.8472 0,5.8472 0,0 1.1809,0.1355 1.1809,0.1355 0,0 0,0.61201 0,0.61201 0,0 -3.2134,-0.36955 -3.2134,-0.36955 0,0 0,-0.61119 0,-0.61119 0,0 0,-3e-5 0,-3e-5" />
      <path
         id="path359813-3"
         style="font-style:normal;font-variant:normal;font-weight:normal;font-stretch:normal;font-size:medium;line-height:136.00000143%;font-family:Lato;-inkscape-font-specification:Lato;letter-spacing:0.77406031px;word-spacing:-0.51087981px;fill:#1f7a7a;fill-opacity:1;stroke:none;stroke-width:1px;stroke-linecap:butt;stroke-linejoin:miter;stroke-opacity:1"
         d="m 2051.7004,534.25981 c 0.2549,0.0286 0.4931,0.0959 0.7145,0.20194 0.2214,0.10603 0.4135,0.24633 0.5761,0.42092 0.1626,0.17161 0.2902,0.37387 0.3828,0.60677 0.093,0.23291 0.1388,0.49068 0.1388,0.7733 0,0.24052 -0.034,0.4607 -0.1009,0.66052 -0.067,0.19681 -0.1585,0.38187 -0.2735,0.5552 -0.115,0.17332 -0.2482,0.34003 -0.3995,0.50015 -0.1486,0.16041 -0.307,0.32119 -0.4752,0.48233 0,0 -1.5879,1.55771 -1.5879,1.55771 0.112,-0.0202 0.2254,-0.0327 0.3401,-0.0376 0.1148,-0.008 0.2254,-0.006 0.3318,0.007 0,0 2.0179,0.23142 2.0179,0.23142 0.081,0.009 0.1459,0.0423 0.1936,0.0989 0.048,0.0566 0.072,0.12546 0.072,0.20664 0,0 0,0.48709 0,0.48709 0,0 -4.0165,-0.46191 -4.0165,-0.46191 0,0 0,-0.27465 0,-0.27465 0,-0.057 0.011,-0.11429 0.033,-0.17177 0.022,-0.0575 0.057,-0.10901 0.1049,-0.15457 0,0 1.927,-1.85634 1.927,-1.85634 0.1596,-0.15608 0.3053,-0.30626 0.437,-0.45053 0.1317,-0.1473 0.2438,-0.29684 0.3363,-0.44862 0.092,-0.1518 0.164,-0.30749 0.2144,-0.46707 0.051,-0.16259 0.076,-0.33857 0.076,-0.52792 0,-0.18936 -0.028,-0.35783 -0.084,-0.50542 -0.056,-0.15058 -0.1331,-0.27799 -0.2312,-0.38221 -0.095,-0.1039 -0.2088,-0.1858 -0.3405,-0.24571 -0.1317,-0.0629 -0.2732,-0.10286 -0.4245,-0.11989 -0.154,-0.0173 -0.2954,-0.009 -0.4242,0.0243 -0.1288,0.0336 -0.2436,0.0882 -0.3444,0.16395 -0.098,0.0731 -0.1805,0.16434 -0.2477,0.27388 -0.067,0.10954 -0.1147,0.23329 -0.1427,0.37126 -0.034,0.10131 -0.08,0.16666 -0.1385,0.19605 -0.056,0.0267 -0.1357,0.0267 -0.2392,-4e-5 0,0 -0.3902,-0.11616 -0.3902,-0.11616 0.039,-0.28977 0.1147,-0.54091 0.2265,-0.75345 0.1147,-0.21525 0.2574,-0.38983 0.4281,-0.52376 0.1735,-0.13363 0.3708,-0.22707 0.5919,-0.28031 0.2212,-0.0563 0.4606,-0.0699 0.7183,-0.041 0,0 2e-4,2e-5 2e-4,2e-5" />
      <path
         id="path359815-9"
         style="font-style:normal;font-variant:normal;font-weight:normal;font-stretch:normal;font-size:medium;line-height:136.00000143%;font-family:Lato;-inkscape-font-specification:Lato;letter-spacing:0.77406031px;word-spacing:-0.51087981px;fill:#1f7a7a;fill-opacity:1;stroke:none;stroke-width:1px;stroke-linecap:butt;stroke-linejoin:miter;stroke-opacity:1"
         d="m 2056.9653,534.85103 c 0.2561,0.0288 0.4925,0.0944 0.7092,0.19709 0.2168,0.10267 0.4026,0.23501 0.5575,0.39702 0.1577,0.16234 0.2803,0.35087 0.3676,0.56559 0.087,0.21472 0.131,0.44713 0.131,0.69722 0,0.20489 -0.025,0.38581 -0.076,0.54278 -0.048,0.15426 -0.1183,0.28789 -0.2113,0.40087 -0.09,0.11028 -0.2,0.20025 -0.3295,0.26989 -0.1295,0.0696 -0.2745,0.12094 -0.435,0.15392 0.3942,0.15623 0.6899,0.37661 0.887,0.66115 0.2001,0.28491 0.3001,0.62475 0.3001,1.01949 0,0.29831 -0.053,0.56036 -0.1606,0.78613 -0.1042,0.22608 -0.2479,0.41296 -0.431,0.56065 -0.183,0.14466 -0.397,0.24809 -0.6419,0.31029 -0.2421,0.0595 -0.5024,0.0732 -0.7809,0.0412 -0.3207,-0.0369 -0.5948,-0.11057 -0.8225,-0.22103 -0.2277,-0.11345 -0.4203,-0.25444 -0.5776,-0.42297 -0.1573,-0.1685 -0.2866,-0.36084 -0.3877,-0.57702 -0.1011,-0.21917 -0.1868,-0.45309 -0.257,-0.70178 0,0 0.3244,-0.10732 0.3244,-0.10732 0.084,-0.0295 0.1658,-0.0307 0.2445,-0.004 0.081,0.0274 0.1404,0.0838 0.177,0.16918 0.037,0.0884 0.082,0.19438 0.1348,0.31785 0.056,0.1238 0.1321,0.24534 0.2277,0.36463 0.096,0.1193 0.2165,0.22496 0.3627,0.31697 0.149,0.0924 0.3374,0.1516 0.5652,0.17774 0.2111,0.0242 0.3954,0.009 0.5529,-0.045 0.1605,-0.0569 0.2928,-0.1381 0.3969,-0.24362 0.107,-0.10521 0.1873,-0.22705 0.2407,-0.36551 0.053,-0.13847 0.08,-0.27849 0.08,-0.42007 0,-0.17471 -0.021,-0.33677 -0.063,-0.48618 -0.042,-0.1494 -0.1211,-0.28339 -0.2365,-0.40196 -0.1154,-0.11855 -0.2745,-0.21948 -0.4771,-0.30277 -0.1998,-0.0829 -0.4572,-0.14235 -0.7722,-0.17818 0,0 0,-0.5825 0,-0.5825 0.2587,0.0265 0.4781,0.0213 0.6582,-0.0156 0.1829,-0.0365 0.3307,-0.098 0.4433,-0.18462 0.1154,-0.0863 0.1985,-0.19586 0.2492,-0.32868 0.053,-0.1325 0.08,-0.28309 0.08,-0.45177 0,-0.18675 -0.028,-0.35259 -0.084,-0.4975 -0.053,-0.14459 -0.1281,-0.26745 -0.2238,-0.36859 -0.096,-0.10114 -0.2098,-0.18174 -0.342,-0.2418 -0.1295,-0.0598 -0.2702,-0.0982 -0.4221,-0.11527 -0.1519,-0.0171 -0.294,-0.009 -0.4261,0.0243 -0.1294,0.0336 -0.2447,0.0883 -0.3459,0.16422 -0.098,0.0732 -0.1813,0.16466 -0.2488,0.27442 -0.068,0.10976 -0.1152,0.23377 -0.1433,0.37204 -0.037,0.1012 -0.083,0.16668 -0.1391,0.19643 -0.053,0.0271 -0.1321,0.0272 -0.236,3.9e-4 0,0 -0.3919,-0.11652 -0.3919,-0.11652 0.039,-0.29038 0.1151,-0.54206 0.2275,-0.75503 0.1124,-0.216 0.2543,-0.39109 0.4257,-0.52527 0.1742,-0.13389 0.3724,-0.22748 0.5945,-0.28078 0.2249,-0.056 0.4668,-0.0695 0.7256,-0.0404 0,0 0,-10e-6 0,-10e-6" />
      <path
         id="path359817-4"
         style="font-style:normal;font-variant:normal;font-weight:normal;font-stretch:normal;font-size:medium;line-height:136.00000143%;font-family:Lato;-inkscape-font-specification:Lato;letter-spacing:0.77406031px;word-spacing:-0.51087981px;fill:#1f7a7a;fill-opacity:1;stroke:none;stroke-width:1px;stroke-linecap:butt;stroke-linejoin:miter;stroke-opacity:1"
         d="m 2060.1613,541.26524 c 0,-0.0784 0.013,-0.15079 0.038,-0.21721 0.028,-0.0661 0.065,-0.12221 0.11,-0.16829 0.048,-0.0457 0.1044,-0.08 0.1693,-0.10271 0.065,-0.0227 0.134,-0.0298 0.2074,-0.0214 0.073,0.008 0.1425,0.0314 0.2075,0.069 0.065,0.0376 0.1213,0.0848 0.1693,0.14156 0.048,0.0568 0.086,0.12146 0.1143,0.19407 0.028,0.0726 0.042,0.14812 0.042,0.22655 0,0.0814 -0.014,0.15521 -0.042,0.22134 -0.028,0.0631 -0.066,0.11755 -0.1143,0.1633 -0.048,0.0458 -0.1044,0.0785 -0.1693,0.0982 -0.065,0.0227 -0.1341,0.0298 -0.2075,0.0213 -0.073,-0.008 -0.1425,-0.0315 -0.2074,-0.0691 -0.065,-0.0346 -0.1213,-0.0803 -0.1693,-0.13705 -0.045,-0.0564 -0.082,-0.11945 -0.11,-0.18902 -0.026,-0.0723 -0.038,-0.1491 -0.038,-0.2305 0,0 0,0 0,0" />
      <path
         id="path359819-6"
         style="font-style:normal;font-variant:normal;font-weight:normal;font-stretch:normal;font-size:medium;line-height:136.00000143%;font-family:Lato;-inkscape-font-specification:Lato;letter-spacing:0.77406031px;word-spacing:-0.51087981px;fill:#1f7a7a;fill-opacity:1;stroke:none;stroke-width:1px;stroke-linecap:butt;stroke-linejoin:miter;stroke-opacity:1"
         d="m 2065.8055,540.06831 c 0,0 0.9228,0.10524 0.9228,0.10524 0,0 0,0.46253 0,0.46253 0,0.0484 -0.014,0.0876 -0.043,0.11757 -0.026,0.0303 -0.067,0.0422 -0.1233,0.0358 0,0 -0.757,-0.0865 -0.757,-0.0865 0,0 0,1.70887 0,1.70887 0,0 -0.6629,-0.0762 -0.6629,-0.0762 0,0 0,-1.70841 0,-1.70841 0,0 -2.6991,-0.3085 -2.6991,-0.3085 -0.056,-0.006 -0.106,-0.0287 -0.1484,-0.0667 -0.04,-0.0407 -0.065,-0.0874 -0.076,-0.13997 0,0 -0.076,-0.42058 -0.076,-0.42058 0,0 2.9576,-3.85432 2.9576,-3.85432 0,0 0.7054,0.0792 0.7054,0.0792 0,0 0,4.15206 0,4.15206 0,0 0,-10e-6 0,-10e-6 m -0.663,-2.75376 c 0,-0.0786 0,-0.16296 0.01,-0.25326 0.01,-0.093 0.016,-0.18704 0.03,-0.28214 0,0 -2.2157,2.96479 -2.2157,2.96479 0,0 2.1818,0.2488 2.1818,0.2488 0,0 0,-2.67816 0,-2.67816 0,0 -3e-4,-3e-5 -3e-4,-3e-5" />
      <path
         id="path359821-2"
         style="font-style:normal;font-variant:normal;font-weight:normal;font-stretch:normal;font-size:medium;line-height:136.00000143%;font-family:Lato;-inkscape-font-specification:Lato;letter-spacing:0.77406031px;word-spacing:-0.51087981px;fill:#1f7a7a;fill-opacity:1;stroke:none;stroke-width:1px;stroke-linecap:butt;stroke-linejoin:miter;stroke-opacity:1"
         d="m 2071.5124,536.91166 c 0,0.1151 -0.034,0.20667 -0.1025,0.2747 -0.066,0.0653 -0.1794,0.0888 -0.3416,0.0706 0,0 -1.9197,-0.21622 -1.9197,-0.21622 0,0 -0.2813,1.67481 -0.2813,1.67481 0.1619,-0.021 0.3139,-0.031 0.456,-0.03 0.145,-0.002 0.2857,0.005 0.4221,0.0206 0.3185,0.0361 0.6001,0.11794 0.8448,0.24558 0.2447,0.12767 0.4482,0.28854 0.6104,0.4826 0.1651,0.19441 0.289,0.41597 0.3716,0.66465 0.085,0.24903 0.1281,0.5144 0.1281,0.79612 0,0.34533 -0.057,0.65083 -0.1709,0.91647 -0.111,0.26595 -0.2662,0.48743 -0.4654,0.66445 -0.1964,0.1743 -0.4283,0.29906 -0.6957,0.37429 -0.2674,0.0752 -0.556,0.095 -0.8659,0.0593 -0.1791,-0.0206 -0.351,-0.06 -0.5158,-0.11834 -0.1648,-0.0553 -0.3196,-0.12299 -0.4645,-0.20317 -0.142,-0.0799 -0.2741,-0.16762 -0.3962,-0.26332 -0.1221,-0.0957 -0.2299,-0.19427 -0.3236,-0.29576 0,0 0.2342,-0.31793 0.2342,-0.31793 0.051,-0.0728 0.1178,-0.10447 0.2002,-0.095 0.057,0.007 0.1207,0.038 0.1917,0.0946 0.071,0.0535 0.1576,0.11488 0.2599,0.18408 0.1022,0.0692 0.2216,0.13585 0.358,0.19991 0.1392,0.0614 0.304,0.10297 0.4945,0.12482 0.2132,0.0245 0.4051,0.0102 0.5758,-0.0429 0.1706,-0.0531 0.3171,-0.13923 0.4394,-0.25843 0.1224,-0.12223 0.2163,-0.27348 0.2818,-0.45374 0.065,-0.18026 0.098,-0.38698 0.098,-0.62016 0,-0.2029 -0.029,-0.38935 -0.085,-0.55936 -0.054,-0.16967 -0.1381,-0.31852 -0.2519,-0.44652 -0.1109,-0.12767 -0.2503,-0.23283 -0.4182,-0.31548 -0.1678,-0.0826 -0.364,-0.1367 -0.5885,-0.1622 -0.1536,-0.0174 -0.3142,-0.0221 -0.4818,-0.0138 -0.1648,0.008 -0.3338,0.0332 -0.5071,0.074 0,0 -0.4772,-0.20394 -0.4772,-0.20394 0,0 0.4899,-2.98487 0.4899,-2.98487 0,0 2.8966,0.32535 2.8966,0.32535 0,0 0,0.35439 0,0.35439 0,0 0,-4e-5 0,-4e-5" />
      <path
         style="fill:#1f7a7a;fill-opacity:1;stroke:none"
         id="path138180-3"
         d="m 2041.7133,513.02855 c -0.5367,0.62051 -0.6532,1.55732 -0.3089,2.42242 0.1418,0.34762 0.3292,0.62372 0.2634,0.38767 -0.152,-0.55053 -0.1824,-1.42647 -0.066,-1.99797 0.04,-0.19216 0.1316,-0.49907 0.2026,-0.68263 0.071,-0.18903 0.1266,-0.34145 0.1165,-0.34796 -0.01,-0.006 -0.1013,0.0931 -0.2077,0.21847 0,0 0,0 0,0" />
      <path
         style="fill:#1f7a7a;fill-opacity:1;stroke:none"
         id="path138182-8"
         d="m 2046.3823,513.43721 c 0.2492,0.66545 0.3357,1.12272 0.3407,1.75737 0.01,0.4324 -0.02,0.73039 -0.081,0.94811 -0.046,0.17012 -0.076,0.32543 -0.061,0.33797 0.01,0.012 0.076,-0.0794 0.1475,-0.20316 0.5088,-0.87608 0.4223,-1.98411 -0.2187,-2.79975 0,0 -0.2135,-0.26815 -0.2135,-0.26815 0,0 0.086,0.22761 0.086,0.22761" />
      <path
         style="fill:#1f7a7a;fill-opacity:1;stroke:none"
         id="path138184-6"
         d="m 2042.3923,513.41559 c -0.299,0.33445 -0.3801,0.59334 -0.3801,1.2044 0,0.51831 0.01,0.56302 0.1723,0.90739 0.096,0.19562 0.1774,0.35146 0.1875,0.34707 0,-0.0104 -0.02,-0.15491 -0.061,-0.32287 -0.147,-0.62106 -0.071,-1.46976 0.1824,-2.08179 0.056,-0.13062 0.091,-0.23608 0.081,-0.23713 -0.01,-10e-4 -0.096,0.0828 -0.1824,0.18293 0,0 0,0 0,0" />
      <path
         style="fill:#1f7a7a;fill-opacity:1;stroke:none"
         id="path138186-2"
         d="m 2045.7418,513.7641 c 0.2592,0.60626 0.3507,1.6979 0.188,2.23828 -0.1067,0.35492 0.01,0.25244 0.1983,-0.17594 0.2034,-0.45419 0.2034,-1.04448 0,-1.54667 -0.076,-0.19376 -0.2186,-0.44357 -0.3152,-0.55198 0,0 -0.1727,-0.19829 -0.1727,-0.19829 0,0 0.1016,0.2346 0.1016,0.2346" />
      <path
         style="fill:#1f7a7a;fill-opacity:1;stroke:none"
         id="path138188-7"
         d="m 2042.8231,513.98982 c -0.2991,0.39446 -0.3548,0.9889 -0.1318,1.48705 0.1318,0.29217 0.1622,0.30082 0.096,0.0319 -0.081,-0.33596 -0.025,-1.14875 0.1014,-1.44116 0.056,-0.13609 0.096,-0.24648 0.086,-0.24754 -0.01,-10e-4 -0.081,0.0734 -0.1521,0.16971 0,0 0,0 0,0" />
      <path
         style="fill:#1f7a7a;fill-opacity:1;stroke:none"
         id="path138190-0"
         d="m 2059.8096,515.63457 c -0.365,0.0279 -0.8738,0.2331 -1.1306,0.45352 -0.6214,0.52826 -0.683,1.6587 -0.1387,2.36417 0.2671,0.34682 0.596,0.57935 1.0945,0.78042 0.4834,0.19402 0.9,0.44151 1.0647,0.63489 0.1801,0.21153 0.1801,0.58545 0,0.79726 -0.1544,0.17053 -0.571,0.25815 -0.8539,0.1676 -0.2622,-0.0774 -0.6734,-0.34087 -0.8892,-0.5671 -0.1593,-0.17074 -0.2004,-0.19158 -0.2569,-0.13165 -0.036,0.0401 -0.2363,0.24409 -0.4468,0.45791 0,0 -0.38,0.39346 -0.38,0.39346 0,0 0.1541,0.15372 0.1541,0.15372 0.2105,0.20918 0.8114,0.57545 1.1814,0.71936 0.1799,0.0742 0.514,0.14285 0.7968,0.17306 1.3482,0.14405 2.1412,-0.4424 2.2031,-1.6187 0.052,-1.00688 -0.3452,-1.53838 -1.5343,-2.08167 -0.5968,-0.27172 -1.0184,-0.55241 -1.0904,-0.71935 -0.072,-0.18342 -0.015,-0.47975 0.1285,-0.60756 0.3497,-0.31516 0.9979,-0.18685 1.5743,0.31346 0,0 0.1442,0.12511 0.1442,0.12511 0,0 0.4429,-0.43213 0.4429,-0.43213 0,0 0.4481,-0.43176 0.4481,-0.43176 0,0 -0.2473,-0.20189 -0.2473,-0.20189 -0.6334,-0.52815 -1.4621,-0.80146 -2.2645,-0.74213 0,0 0,0 0,0" />
      <path
         style="fill:#1f7a7a;fill-opacity:1;stroke:none"
         id="path138192-7"
         d="m 2045.3861,514.39365 c 0.1321,0.38532 0.1727,0.79936 0.1118,1.19184 -0.031,0.17711 -0.041,0.33449 -0.031,0.34649 0.01,0.012 0.066,-0.0805 0.1219,-0.20576 0.1931,-0.44423 0.096,-1.19748 -0.1931,-1.51181 0,0 -0.1066,-0.10946 -0.1066,-0.10946 0,0 0.096,0.2887 0.096,0.2887" />
      <path
         style="fill:#1f7a7a;fill-opacity:1;stroke:none"
         id="path138194-6"
         d="m 2043.7614,514.18593 c -0.2892,0.13361 -0.416,0.31144 -0.4464,0.64125 -0.046,0.5411 0.284,0.96874 0.8016,1.02308 0.4975,0.0522 0.8123,-0.24246 0.8123,-0.75594 0,-0.36053 -0.1625,-0.67246 -0.4316,-0.84255 -0.269,-0.17005 -0.4568,-0.18416 -0.7359,-0.0658 0,0 0,0 0,0" />
      <path
         style="fill:#1f7a7a;fill-opacity:1;stroke:none"
         id="path138196-7"
         d="m 2049.7787,516.42829 c -0.7545,0.87836 -1.7987,2.10287 -2.3281,2.72485 -0.5292,0.62171 -0.9971,1.16767 -1.0378,1.21252 -0.071,0.0853 -0.031,0.0951 0.7885,0.18259 0,0 0.8653,0.0924 0.8653,0.0924 0,0 0.4481,-0.5539 0.4481,-0.5539 0,0 0.4484,-0.55412 0.4484,-0.55412 0,0 1.1012,0.12801 1.1012,0.12801 0,0 1.0971,0.13306 1.0971,0.13306 0,0 -0.015,0.58437 -0.015,0.58437 0,0 -0.015,0.58984 -0.015,0.58984 0,0 0.6689,0.0715 0.6689,0.0715 0,0 0.6693,0.0715 0.6693,0.0715 0,0 0,-3.0686 0,-3.0686 0,0 0,-3.0686 0,-3.0686 0,0 -0.6642,-0.0693 -0.6642,-0.0693 0,0 -0.6587,-0.0687 -0.6587,-0.0687 0,0 -1.3674,1.59256 -1.3674,1.59256 m 1.3725,1.18464 c -0.01,0.50825 -0.025,0.92286 -0.031,0.92232 -0.026,0.0302 -1.2552,-0.089 -1.2552,-0.11638 0,-0.0985 1.2092,-1.72859 1.2756,-1.72162 0.015,0.002 0.02,0.4129 0.01,0.91567 0,0 0,1e-5 0,1e-5" />
      <path
         style="fill:#1f7a7a;fill-opacity:1;stroke:none"
         id="path138198-4"
         d="m 2053.1438,518.09704 c 0,0 0.015,3.06013 0.015,3.06013 0,0 0.6803,0.0891 0.6803,0.0891 0,0 0.6755,0.0886 0.6755,0.0886 0,0 0,-1.23945 0,-1.23945 0,0 0,-1.23945 0,-1.23945 0,0 0.2406,0.0419 0.2406,0.0419 0,0 0.2356,0.0414 0.2356,0.0414 0,0 0.5942,1.22605 0.5942,1.22605 0.328,0.67689 0.6202,1.25683 0.6509,1.29305 0.036,0.0422 0.3384,0.091 0.8308,0.13263 0,0 0.7749,0.0663 0.7749,0.0663 0,0 -0.2207,-0.40796 -0.2207,-0.40796 -0.1232,-0.22729 -0.4567,-0.83931 -0.744,-1.36392 -0.2821,-0.51845 -0.5179,-0.96056 -0.5179,-0.97153 0,-0.011 0.123,-0.0693 0.2717,-0.13594 0.3437,-0.15035 0.5745,-0.36207 0.7439,-0.68464 0.1129,-0.22422 0.1334,-0.33188 0.1385,-0.75416 0,-0.43379 -0.015,-0.53425 -0.1437,-0.82223 -0.2411,-0.5578 -0.7079,-0.93591 -1.3693,-1.11467 -0.1845,-0.0522 -0.9017,-0.15438 -1.6032,-0.22752 0,0 -1.2637,-0.13175 -1.2637,-0.13175 0,0 0.01,3.05411 0.01,3.05411 m 2.6722,-1.4904 c 0.2152,0.1378 0.3895,0.41401 0.3895,0.61158 0,0.24148 -0.1589,0.48819 -0.3793,0.58572 -0.1742,0.0804 -0.3023,0.0889 -0.7633,0.0403 0,0 -0.5479,-0.0522 -0.5479,-0.0522 0,0 -0.01,-0.68608 -0.01,-0.68608 -0.01,-0.37895 -0.01,-0.70801 0,-0.72941 0.01,-0.0269 0.2509,-0.0121 0.5581,0.031 0.4098,0.0539 0.5994,0.10668 0.748,0.19906 0,0 0,10e-6 0,10e-6" />
      <path
         style="fill:#1f7a7a;fill-opacity:1;stroke:none"
         id="path138200-3"
         d="m 2065.0553,518.24134 c -0.1549,0.0608 -0.3821,0.20218 -0.4956,0.31139 0,0 -0.2117,0.20351 -0.2117,0.20351 0,0 -0.036,-0.31217 -0.036,-0.31217 0,0 -0.036,-0.31216 -0.036,-0.31216 0,0 -0.3354,-0.0352 -0.3354,-0.0352 0,0 -0.3301,-0.0347 -0.3301,-0.0347 0,0 0,2.03684 0,2.03684 0,0 0,2.03683 0,2.03683 0,0 0.3869,0.0413 0.3869,0.0413 0,0 0.387,0.0413 0.387,0.0413 0,0 0,-1.29408 0,-1.29408 0,-1.47029 0.031,-1.60469 0.4181,-1.93285 0.2376,-0.20631 0.3718,-0.23624 0.7489,-0.16349 0.3152,0.0607 0.4806,0.20489 0.646,0.56399 0.088,0.19664 0.098,0.34653 0.098,1.6251 0,0 0,1.40533 0,1.40533 0,0 0.3929,0.0419 0.3929,0.0419 0,0 0.3879,0.0414 0.3879,0.0414 0,0 -0.015,-1.56179 -0.015,-1.56179 -0.015,-1.51214 -0.021,-1.5623 -0.1397,-1.81739 -0.2689,-0.57953 -0.6049,-0.84081 -1.1941,-0.93575 -0.3358,-0.0573 -0.4236,-0.05 -0.6715,0.0507 0,0 0,0 0,0" />
      <path
         style="fill:#1f7a7a;fill-opacity:1;stroke:none"
         id="path138202-1"
         d="m 2069.3647,518.63893 c -0.5285,0.11551 -0.9791,0.49286 -1.2432,1.04967 -0.1294,0.26209 -0.145,0.3542 -0.145,0.8726 0,0.54598 0.01,0.60774 0.1657,0.96065 0.4039,0.92001 1.3157,1.50286 2.2438,1.44193 0.7212,-0.0445 1.2247,-0.38288 1.5415,-1.03408 0.187,-0.37235 0.1974,-0.43202 0.1974,-0.89606 0,-0.58006 -0.093,-0.91033 -0.3792,-1.36578 -0.2128,-0.33172 -0.6904,-0.73538 -1.0692,-0.89113 -0.3164,-0.1326 -1.0164,-0.2061 -1.3118,-0.1378 0,0 0,0 0,0 m 1.2755,0.85723 c 0.4722,0.30376 0.7836,0.9938 0.7162,1.59967 -0.068,0.5948 -0.4256,1.06474 -0.8822,1.16521 -0.8919,0.19199 -1.6743,-0.4762 -1.7365,-1.48132 -0.041,-0.69395 0.228,-1.22272 0.7254,-1.43515 0.3318,-0.13614 0.8192,-0.0738 1.1771,0.15159 0,0 0,0 0,0" />
      <path
         style="fill:#1f7a7a;fill-opacity:1;stroke:none"
         id="path138204-2"
         d="m 2077.7737,519.56655 c -0.3548,0.0901 -0.8346,0.31085 -0.8346,0.38281 0,0.0277 0.089,0.14771 0.1982,0.26996 0,0 0.1982,0.22572 0.1982,0.22572 0,0 0.3652,-0.16082 0.3652,-0.16082 0.501,-0.21858 0.9344,-0.21174 1.2686,0.0118 0.2978,0.19757 0.4128,0.38145 0.4546,0.70723 0,0 0.031,0.2582 0.031,0.2582 0,0 -0.2456,0.007 -0.2456,0.007 -0.1359,0.008 -0.3761,-10e-4 -0.5328,-0.0176 -0.3237,-0.0342 -0.9657,0.0308 -1.2371,0.11837 -0.2138,0.0715 -0.532,0.32009 -0.6154,0.48283 -0.1825,0.33487 -0.1356,0.95973 0.094,1.29966 0.073,0.10742 0.2555,0.28189 0.4016,0.3805 0.2452,0.15905 0.3235,0.18402 0.7932,0.23417 0.5899,0.063 0.825,-6.9e-4 1.1907,-0.33274 0,0 0.1933,-0.17887 0.1933,-0.17887 0,0 0,0.28813 0,0.28813 0,0 0,0.28814 0,0.28814 0,0 0.3554,0.0379 0.3554,0.0379 0,0 0.3503,0.0374 0.3503,0.0374 0,0 -0.026,-1.53809 -0.026,-1.53809 0,0 -0.026,-1.54361 -0.026,-1.54361 0,0 -0.1464,-0.33689 -0.1464,-0.33689 -0.084,-0.18061 -0.23,-0.4066 -0.3241,-0.49408 -0.4389,-0.40075 -1.285,-0.5893 -1.9062,-0.42748 0,0 0,0 0,0 m 1.671,2.53047 c 0,0.49315 -0.2142,0.86377 -0.5955,1.02816 -0.4335,0.18647 -1.0024,0.0649 -1.2581,-0.27238 -0.1565,-0.19936 -0.1409,-0.57417 0.026,-0.74469 0.2661,-0.27632 0.5793,-0.33727 1.3469,-0.26702 0,0 0.4807,0.0454 0.4807,0.0454 0,0 0,0.21055 0,0.21055" />
      <path
         style="fill:#1f7a7a;fill-opacity:1;stroke:none"
         id="path138206-4"
         d="m 2072.4625,519.01959 c 0,0.0166 0.3378,0.94173 0.7537,2.0633 0.4159,1.12196 0.754,2.06459 0.754,2.09775 0,0.0387 0.1561,0.0775 0.4579,0.10969 0,0 0.4528,0.0428 0.4528,0.0428 0,0 0.7656,-1.94866 0.7656,-1.94866 0,0 0.7608,-1.95042 0.7608,-1.95042 0,0 -0.3649,-0.0549 -0.3649,-0.0549 -0.2032,-0.0324 -0.3907,-0.0355 -0.4168,-0.0106 -0.036,0.0349 -1.031,2.66216 -1.1194,2.94584 -0.016,0.0536 -0.047,0.0946 -0.068,0.0923 -0.021,-0.002 -0.1978,-0.47443 -0.3903,-1.05326 -0.1925,-0.57323 -0.4473,-1.31877 -0.5617,-1.66247 0,0 -0.2184,-0.61438 -0.2184,-0.61438 0,0 -0.4003,-0.0421 -0.4003,-0.0421 -0.2234,-0.0235 -0.4053,-0.0315 -0.4053,-0.0149 0,0 0,-10e-6 0,-10e-6" />
      <path
         style="fill:#1f7a7a;fill-opacity:1;stroke:none"
         id="path138208-7"
         d="m 2043.5889,516.12243 c -0.3196,0.0701 -0.3348,0.11219 -0.3348,1.062 0,0.7806 0.015,0.92414 0.1522,1.52277 0.3094,1.32137 0.3551,1.41906 0.7306,1.45916 0.2843,0.0303 0.3553,-0.0331 0.4823,-0.44007 0.2793,-0.9207 0.3656,-1.3977 0.3961,-2.25212 0.025,-0.80581 0.025,-0.84951 -0.081,-1.00277 -0.061,-0.0883 -0.1981,-0.19562 -0.2996,-0.23907 -0.2234,-0.089 -0.8375,-0.15356 -1.0455,-0.1099 0,0 0,0 0,0" />
      <path
         id="path138304-6"
         d="m 2126.691,496.79085 c 0,0 9.8551,1.07328 9.8551,1.07328 0,0 0,2.94201 0,2.94201 0,0 -9.8551,-1.08806 -9.8551,-1.08806 0,0 0,-2.92723 0,-2.92723"
         style="opacity:1;fill:#cccccc;fill-opacity:1;fill-rule:nonzero;stroke:none;stroke-width:3;stroke-linecap:round;stroke-linejoin:round;stroke-miterlimit:4;stroke-dasharray:none;stroke-dashoffset:0;stroke-opacity:1" />
      <path
         id="path138306-4"
         d="m 2137.3696,497.95382 c 0,0 10.6966,1.16491 10.6966,1.16491 0,0 0,2.95929 0,2.95929 0,0 -10.6966,-1.18096 -10.6966,-1.18096 0,0 0,-2.94324 0,-2.94324"
         style="opacity:1;fill:#cccccc;fill-opacity:1;fill-rule:nonzero;stroke:none;stroke-width:3;stroke-linecap:round;stroke-linejoin:round;stroke-miterlimit:4;stroke-dasharray:none;stroke-dashoffset:0;stroke-opacity:1" />
      <path
         id="path138308-9"
         d="m 2126.6745,501.74975 c 0,0 0,8.49943 0,8.49943 0,0 30.3915,3.51939 30.3915,3.51939 0,0 0,-8.63177 0,-8.63177 0,0 -30.3915,-3.38705 -30.3915,-3.38705 0,0 0,0 0,0 m 0.3991,0.65171 c 0,0 29.5809,3.30591 29.5809,3.30591 0,0 0,7.39712 0,7.39712 0,0 -29.5809,-3.41632 -29.5809,-3.41632 0,0 0,-7.28671 0,-7.28671 0,0 0,0 0,0"
         style="opacity:1;fill:#cccccc;fill-opacity:1;fill-rule:nonzero;stroke:none;stroke-width:1.60000002;stroke-linecap:round;stroke-linejoin:round;stroke-miterlimit:4;stroke-dasharray:none;stroke-dashoffset:0;stroke-opacity:1" />
      <path
         id="path359798-8"
         style="font-style:normal;font-variant:normal;font-weight:normal;font-stretch:normal;font-size:medium;line-height:136.00000143%;font-family:Lato;-inkscape-font-specification:Lato;letter-spacing:0.77406031px;word-spacing:-0.51087981px;fill:#1f7a7a;fill-opacity:1;stroke:none;stroke-width:1px;stroke-linecap:butt;stroke-linejoin:miter;stroke-opacity:1"
         d="m 2129.2301,508.48616 c 0,0 1.0435,0.11974 1.0435,0.11974 0,0 0,-3.57155 0,-3.57155 0,-0.10235 0,-0.21042 0.01,-0.32419 0,0 -0.8668,0.70249 -0.8668,0.70249 -0.03,0.0235 -0.059,0.0372 -0.088,0.0412 -0.03,0.002 -0.057,-0.002 -0.082,-0.009 -0.025,-0.008 -0.049,-0.0201 -0.071,-0.0373 -0.021,-0.0169 -0.036,-0.0345 -0.048,-0.0529 0,0 -0.1902,-0.30281 -0.1902,-0.30281 0,0 1.4512,-1.18501 1.4512,-1.18501 0,0 0.4933,0.0554 0.4933,0.0554 0,0 0,4.75379 0,4.75379 0,0 0.9601,0.11017 0.9601,0.11017 0,0 0,0.49756 0,0.49756 0,0 -2.6125,-0.30044 -2.6125,-0.30044 0,0 0,-0.4969 0,-0.4969 0,0 0,-2e-5 0,-2e-5" />
      <path
         id="path359800-4"
         style="font-style:normal;font-variant:normal;font-weight:normal;font-stretch:normal;font-size:medium;line-height:136.00000143%;font-family:Lato;-inkscape-font-specification:Lato;letter-spacing:0.77406031px;word-spacing:-0.51087981px;fill:#1f7a7a;fill-opacity:1;stroke:none;stroke-width:1px;stroke-linecap:butt;stroke-linejoin:miter;stroke-opacity:1"
         d="m 2134.6272,504.29495 c 0.2073,0.0233 0.4009,0.078 0.5809,0.16418 0.1801,0.0862 0.3362,0.20027 0.4684,0.34221 0.1322,0.13952 0.236,0.30395 0.3112,0.4933 0.075,0.18936 0.1129,0.39893 0.1129,0.6287 0,0.19555 -0.027,0.37455 -0.082,0.53701 -0.055,0.16 -0.1288,0.31046 -0.2223,0.45138 -0.094,0.1409 -0.2018,0.27644 -0.3248,0.40661 -0.1209,0.13042 -0.2496,0.26113 -0.3863,0.39214 0,0 -1.291,1.26643 -1.291,1.26643 0.091,-0.0164 0.1832,-0.0266 0.2765,-0.0305 0.093,-0.006 0.1832,-0.005 0.2698,0.005 0,0 1.6405,0.18815 1.6405,0.18815 0.066,0.008 0.1186,0.0344 0.1574,0.0804 0.039,0.046 0.058,0.10201 0.058,0.16801 0,0 0,0.396 0,0.396 0,0 -3.2655,-0.37553 -3.2655,-0.37553 0,0 0,-0.2233 0,-0.2233 0,-0.0464 0.01,-0.0929 0.027,-0.13965 0.018,-0.0467 0.047,-0.0886 0.085,-0.12566 0,0 1.5667,-1.50921 1.5667,-1.50921 0.1297,-0.12689 0.2482,-0.24899 0.3553,-0.36628 0.107,-0.11976 0.1982,-0.24134 0.2733,-0.36474 0.075,-0.1234 0.1334,-0.24998 0.1744,-0.37972 0.041,-0.13219 0.061,-0.27526 0.061,-0.42921 0,-0.15394 -0.023,-0.29091 -0.068,-0.4109 -0.046,-0.12243 -0.1083,-0.22601 -0.188,-0.31074 -0.077,-0.0845 -0.1698,-0.15106 -0.2768,-0.19976 -0.1071,-0.0511 -0.2221,-0.0836 -0.3451,-0.0975 -0.1252,-0.0141 -0.2402,-0.007 -0.3449,0.0198 -0.1047,0.0273 -0.1981,0.0717 -0.28,0.13329 -0.08,0.0594 -0.1468,0.13361 -0.2014,0.22267 -0.055,0.0891 -0.093,0.18966 -0.116,0.30183 -0.027,0.0824 -0.065,0.13549 -0.1126,0.15939 -0.045,0.0217 -0.1103,0.0217 -0.1945,-4e-5 0,0 -0.3172,-0.0944 -0.3172,-0.0944 0.032,-0.23558 0.093,-0.43977 0.1842,-0.61256 0.093,-0.17499 0.2092,-0.31693 0.348,-0.42582 0.141,-0.10864 0.3014,-0.18461 0.4812,-0.22789 0.1798,-0.0457 0.3745,-0.0568 0.584,-0.0333 0,0 1e-4,2e-5 1e-4,2e-5" />
      <path
         id="path359802-6"
         style="font-style:normal;font-variant:normal;font-weight:normal;font-stretch:normal;font-size:medium;line-height:136.00000143%;font-family:Lato;-inkscape-font-specification:Lato;letter-spacing:0.77406031px;word-spacing:-0.51087981px;fill:#1f7a7a;fill-opacity:1;stroke:none;stroke-width:1px;stroke-linecap:butt;stroke-linejoin:miter;stroke-opacity:1"
         d="m 2138.9076,504.77561 c 0.2082,0.0234 0.4004,0.0768 0.5766,0.16024 0.1762,0.0835 0.3273,0.19106 0.4533,0.32278 0.1282,0.13198 0.2278,0.28526 0.2988,0.45982 0.071,0.17458 0.1065,0.36352 0.1065,0.56684 0,0.16658 -0.021,0.31368 -0.062,0.44128 -0.039,0.12542 -0.096,0.23406 -0.1718,0.32592 -0.073,0.0897 -0.1626,0.1628 -0.2679,0.21942 -0.1053,0.0566 -0.2232,0.0983 -0.3536,0.12513 0.3204,0.12702 0.5608,0.30619 0.7211,0.53753 0.1627,0.23163 0.244,0.50792 0.244,0.82884 0,0.24253 -0.044,0.45558 -0.1306,0.63913 -0.085,0.1838 -0.2015,0.33574 -0.3504,0.45581 -0.1488,0.11761 -0.3228,0.20169 -0.5219,0.25227 -0.1968,0.0484 -0.4084,0.0595 -0.6348,0.0335 -0.2607,-0.03 -0.4836,-0.0899 -0.6688,-0.17969 -0.1851,-0.0922 -0.3416,-0.20686 -0.4695,-0.34388 -0.1279,-0.13699 -0.233,-0.29336 -0.3152,-0.46912 -0.082,-0.17818 -0.1519,-0.36836 -0.2089,-0.57055 0,0 0.2637,-0.0873 0.2637,-0.0873 0.068,-0.024 0.1348,-0.025 0.1987,-0.003 0.066,0.0222 0.1142,0.0681 0.144,0.13754 0.03,0.0719 0.066,0.15803 0.1096,0.25841 0.046,0.10065 0.1074,0.19946 0.1851,0.29645 0.078,0.097 0.176,0.18289 0.2948,0.2577 0.1212,0.0751 0.2744,0.12325 0.4596,0.1445 0.1716,0.0197 0.3214,0.007 0.4495,-0.0366 0.1304,-0.0462 0.238,-0.11227 0.3227,-0.19806 0.087,-0.0855 0.1522,-0.18459 0.1957,-0.29716 0.043,-0.11258 0.065,-0.22642 0.065,-0.34152 0,-0.14204 -0.017,-0.27379 -0.052,-0.39526 -0.034,-0.12147 -0.099,-0.2304 -0.1923,-0.3268 -0.094,-0.0964 -0.2232,-0.17843 -0.3879,-0.24615 -0.1624,-0.0674 -0.3717,-0.11573 -0.6279,-0.14486 0,0 0,-0.47358 0,-0.47358 0.2104,0.0215 0.3888,0.0173 0.5352,-0.0127 0.1487,-0.0296 0.2689,-0.0797 0.3604,-0.15009 0.094,-0.0702 0.1614,-0.15924 0.2026,-0.26722 0.043,-0.10772 0.065,-0.23016 0.065,-0.36729 0,-0.15183 -0.023,-0.28666 -0.069,-0.40447 -0.043,-0.11755 -0.1042,-0.21744 -0.182,-0.29967 -0.078,-0.0822 -0.1705,-0.14775 -0.278,-0.19658 -0.1053,-0.0486 -0.2197,-0.0798 -0.3432,-0.0937 -0.1235,-0.0139 -0.2389,-0.007 -0.3464,0.0197 -0.1052,0.0273 -0.1989,0.0718 -0.2812,0.13351 -0.08,0.0595 -0.1474,0.13387 -0.2023,0.2231 -0.055,0.0892 -0.094,0.19006 -0.1165,0.30247 -0.03,0.0823 -0.067,0.13551 -0.1131,0.1597 -0.043,0.022 -0.1074,0.0221 -0.1919,3.1e-4 0,0 -0.3186,-0.0947 -0.3186,-0.0947 0.032,-0.23609 0.094,-0.4407 0.185,-0.61385 0.091,-0.17561 0.2067,-0.31796 0.3461,-0.42704 0.1416,-0.10885 0.3027,-0.18494 0.4833,-0.22828 0.1829,-0.0455 0.3796,-0.0565 0.5899,-0.0329 0,0 0,-10e-6 0,-10e-6" />
      <path
         id="path359804-9"
         style="font-style:normal;font-variant:normal;font-weight:normal;font-stretch:normal;font-size:medium;line-height:136.00000143%;font-family:Lato;-inkscape-font-specification:Lato;letter-spacing:0.77406031px;word-spacing:-0.51087981px;fill:#1f7a7a;fill-opacity:1;stroke:none;stroke-width:1px;stroke-linecap:butt;stroke-linejoin:miter;stroke-opacity:1"
         d="m 2141.506,509.99039 c 0,-0.0637 0.01,-0.12259 0.031,-0.17659 0.023,-0.0537 0.053,-0.0994 0.089,-0.13682 0.039,-0.0372 0.085,-0.065 0.1376,-0.0835 0.053,-0.0185 0.109,-0.0243 0.1686,-0.0174 0.06,0.007 0.1159,0.0255 0.1687,0.0561 0.053,0.0306 0.099,0.0689 0.1377,0.11508 0.039,0.0462 0.07,0.0987 0.093,0.15778 0.023,0.059 0.034,0.12043 0.034,0.18419 0,0.0662 -0.012,0.12619 -0.034,0.17995 -0.023,0.0513 -0.054,0.0956 -0.093,0.13277 -0.039,0.0372 -0.085,0.0638 -0.1377,0.0798 -0.053,0.0184 -0.109,0.0242 -0.1687,0.0174 -0.06,-0.007 -0.1158,-0.0256 -0.1686,-0.0561 -0.053,-0.0281 -0.099,-0.0653 -0.1376,-0.11143 -0.037,-0.0459 -0.066,-0.0971 -0.089,-0.15367 -0.021,-0.0588 -0.031,-0.12122 -0.031,-0.1874 0,0 0,0 0,0" />
      <path
         id="path359806-9"
         style="font-style:normal;font-variant:normal;font-weight:normal;font-stretch:normal;font-size:medium;line-height:136.00000143%;font-family:Lato;-inkscape-font-specification:Lato;letter-spacing:0.77406031px;word-spacing:-0.51087981px;fill:#1f7a7a;fill-opacity:1;stroke:none;stroke-width:1px;stroke-linecap:butt;stroke-linejoin:miter;stroke-opacity:1"
         d="m 2143.8991,510.16941 c 0,0 1.0593,0.12154 1.0593,0.12154 0,0 0,-3.59836 0,-3.59836 0,-0.10313 0,-0.212 0.01,-0.32663 0,0 -0.8799,0.70703 -0.8799,0.70703 -0.03,0.0236 -0.06,0.0374 -0.09,0.0414 -0.03,0.002 -0.058,-0.002 -0.083,-0.009 -0.025,-0.008 -0.049,-0.0203 -0.072,-0.0376 -0.021,-0.0171 -0.037,-0.0348 -0.048,-0.0533 0,0 -0.1931,-0.30525 -0.1931,-0.30525 0,0 1.4731,-1.19267 1.4731,-1.19267 0,0 0.5007,0.0562 0.5007,0.0562 0,0 0,4.78951 0,4.78951 0,0 0.9746,0.11183 0.9746,0.11183 0,0 0,0.5013 0,0.5013 0,0 -2.6519,-0.30497 -2.6519,-0.30497 0,0 0,-0.50063 0,-0.50063 0,0 0,-2e-5 0,-2e-5" />
      <path
         id="path359808-7"
         style="font-style:normal;font-variant:normal;font-weight:normal;font-stretch:normal;font-size:medium;line-height:136.00000143%;font-family:Lato;-inkscape-font-specification:Lato;letter-spacing:0.77406031px;word-spacing:-0.51087981px;fill:#1f7a7a;fill-opacity:1;stroke:none;stroke-width:1px;stroke-linecap:butt;stroke-linejoin:miter;stroke-opacity:1"
         d="m 2148.196,510.66246 c 0,0 1.0638,0.12208 1.0638,0.12208 0,0 0,-3.60622 0,-3.60622 0,-0.10336 0,-0.21247 0.01,-0.32734 0,0 -0.8837,0.70835 -0.8837,0.70835 -0.03,0.0237 -0.06,0.0375 -0.09,0.0415 -0.03,0.002 -0.058,-0.002 -0.083,-0.009 -0.025,-0.008 -0.05,-0.0204 -0.073,-0.0377 -0.021,-0.0171 -0.037,-0.0349 -0.048,-0.0534 0,0 -0.1939,-0.30596 -0.1939,-0.30596 0,0 1.4795,-1.19491 1.4795,-1.19491 0,0 0.5029,0.0565 0.5029,0.0565 0,0 0,4.79996 0,4.79996 0,0 0.9789,0.11232 0.9789,0.11232 0,0 0,0.5024 0,0.5024 0,0 -2.6635,-0.30631 -2.6635,-0.30631 0,0 0,-0.50172 0,-0.50172 0,0 -10e-5,-2e-5 -10e-5,-2e-5" />
      <path
         style="fill:#666666;fill-opacity:1;fill-rule:evenodd;stroke:none;stroke-width:0.80514383px;stroke-linecap:butt;stroke-linejoin:miter;stroke-opacity:1"
         d="m 2115.5107,481.37054 c -0.4789,-0.0482 -0.8668,0.33302 -0.8672,0.85156 l 0,29.91407 c 10e-5,0.51889 0.388,0.98595 0.8672,1.04296 l 17.5801,2.07422 0,2.97852 -11.2012,-1.33789 0,2.21093 24.7891,2.99024 0.7343,0.0879 0.1856,0.0215 0,-2.23828 -6.1895,-0.74023 0,-2.99219 18.0567,2.13086 c 0.5016,0.0591 0.9082,-0.32408 0.9082,-0.85547 l 0,-30.61914 c -4e-4,-0.53115 -0.4069,-1.00368 -0.9082,-1.05469 l -43.9551,-4.46484 z m 0.8691,1.96875 42.1778,4.32617 0,28.66797 -42.1778,-4.93555 0,-28.05859 z"
         id="path138314-8" />
      <path
         d="m 2126.5078,487.03385 c -0.4364,0.50448 -0.5311,1.26611 -0.2512,1.96944 0.1153,0.28262 0.2677,0.50708 0.2141,0.31518 -0.1235,-0.44758 -0.1482,-1.15972 -0.053,-1.62436 0.033,-0.15623 0.1071,-0.40574 0.1648,-0.55498 0.058,-0.15368 0.1029,-0.2776 0.095,-0.2829 0,-0.005 -0.082,0.0757 -0.1689,0.17762 0,0 0,0 0,0"
         id="path138318-0"
         style="fill:#1f7a7a;fill-opacity:1;stroke:none" />
      <path
         d="m 2130.3037,487.36609 c 0.2026,0.54102 0.2729,0.91278 0.277,1.42876 0,0.35153 -0.017,0.5938 -0.066,0.77081 -0.037,0.13831 -0.062,0.26458 -0.05,0.27477 0.01,0.01 0.062,-0.0646 0.1199,-0.16517 0.4136,-0.71225 0.3433,-1.61308 -0.1778,-2.27621 0,0 -0.1736,-0.218 -0.1736,-0.218 0,0 0.07,0.18504 0.07,0.18504"
         id="path138320-1"
         style="fill:#1f7a7a;fill-opacity:1;stroke:none" />
      <path
         d="m 2127.0598,487.34852 c -0.2431,0.27191 -0.309,0.48239 -0.309,0.97918 0,0.42139 0.01,0.45774 0.14,0.73771 0.078,0.15904 0.1442,0.28574 0.1525,0.28217 0,-0.008 -0.016,-0.12594 -0.049,-0.26249 -0.1195,-0.50493 -0.058,-1.19492 0.1483,-1.69251 0.045,-0.10619 0.074,-0.19193 0.066,-0.19279 -0.01,-6.9e-4 -0.078,0.0673 -0.1483,0.14873 0,0 0,0 0,0"
         id="path138322-4"
         style="fill:#1f7a7a;fill-opacity:1;stroke:none" />
      <path
         d="m 2129.7829,487.63186 c 0.2108,0.49289 0.2852,1.3804 0.1529,1.81972 -0.087,0.28855 0.01,0.20525 0.1612,-0.14304 0.1653,-0.36925 0.1653,-0.84916 0,-1.25744 -0.062,-0.15753 -0.1777,-0.36062 -0.2562,-0.44876 0,0 -0.1405,-0.16121 -0.1405,-0.16121 0,0 0.083,0.19073 0.083,0.19073"
         id="path138324-3"
         style="fill:#1f7a7a;fill-opacity:1;stroke:none" />
      <path
         d="m 2127.41,487.81537 c -0.2431,0.3207 -0.2884,0.80398 -0.1071,1.20897 0.1071,0.23754 0.1319,0.24458 0.078,0.026 -0.066,-0.27313 -0.021,-0.93394 0.082,-1.17166 0.045,-0.11065 0.078,-0.2004 0.07,-0.20126 -0.01,-6.9e-4 -0.066,0.0597 -0.1237,0.13798 0,0 0,0 0,0"
         id="path138326-5"
         style="fill:#1f7a7a;fill-opacity:1;stroke:none" />
      <path
         d="m 2141.2202,489.15256 c -0.2968,0.0227 -0.7104,0.18951 -0.9193,0.36871 -0.5052,0.42948 -0.5553,1.34853 -0.1127,1.92208 0.2171,0.28197 0.4845,0.47102 0.8898,0.63448 0.393,0.15774 0.7317,0.35896 0.8656,0.51617 0.1464,0.17198 0.1464,0.47597 0,0.64818 -0.1255,0.13864 -0.4642,0.20988 -0.6942,0.13626 -0.2132,-0.0629 -0.5475,-0.27714 -0.7229,-0.46105 -0.1295,-0.13882 -0.1629,-0.15576 -0.2089,-0.10704 -0.029,0.0326 -0.1921,0.19845 -0.3633,0.37229 0,0 -0.3088,0.31988 -0.3088,0.31988 0,0 0.1252,0.12497 0.1252,0.12497 0.1711,0.17007 0.6597,0.46785 0.9605,0.58485 0.1462,0.0603 0.4179,0.11613 0.6478,0.1407 1.096,0.11711 1.7408,-0.35968 1.7911,-1.31601 0.042,-0.8186 -0.2806,-1.25071 -1.2474,-1.69241 -0.4852,-0.22091 -0.8279,-0.44911 -0.8865,-0.58484 -0.059,-0.14911 -0.012,-0.39003 0.1045,-0.49394 0.2843,-0.25623 0.8113,-0.15191 1.2799,0.25484 0,0 0.1172,0.10172 0.1172,0.10172 0,0 0.3601,-0.35133 0.3601,-0.35133 0,0 0.3643,-0.35102 0.3643,-0.35102 0,0 -0.201,-0.16414 -0.201,-0.16414 -0.515,-0.42938 -1.1887,-0.65159 -1.841,-0.60335 0,0 0,0 0,0"
         id="path138328-9"
         style="fill:#1f7a7a;fill-opacity:1;stroke:none" />
      <path
         d="m 2129.4938,488.14368 c 0.1074,0.31327 0.1404,0.64989 0.091,0.96898 -0.025,0.14399 -0.033,0.27194 -0.025,0.28169 0.01,0.01 0.054,-0.0654 0.099,-0.16729 0.157,-0.36115 0.079,-0.97354 -0.157,-1.2291 0,0 -0.087,-0.089 -0.087,-0.089 0,0 0.079,0.23471 0.079,0.23471"
         id="path138330-4"
         style="fill:#1f7a7a;fill-opacity:1;stroke:none" />
      <path
         d="m 2128.1729,487.97481 c -0.2351,0.10862 -0.3382,0.2532 -0.363,0.52134 -0.037,0.43991 0.231,0.78759 0.6518,0.83177 0.4044,0.0425 0.6604,-0.19713 0.6604,-0.61459 0,-0.29311 -0.1321,-0.54671 -0.3509,-0.68499 -0.2188,-0.13825 -0.3714,-0.14973 -0.5983,-0.0535 0,0 0,1e-5 0,1e-5"
         id="path138332-3"
         style="fill:#1f7a7a;fill-opacity:1;stroke:none" />
      <path
         d="m 2133.065,489.79785 c -0.6134,0.71412 -1.4624,1.70965 -1.8928,2.21532 -0.4302,0.50545 -0.8106,0.94932 -0.8437,0.98578 -0.058,0.0694 -0.025,0.0773 0.641,0.14845 0,0 0.7035,0.0751 0.7035,0.0751 0,0 0.3644,-0.45033 0.3644,-0.45033 0,0 0.3645,-0.4505 0.3645,-0.4505 0,0 0.8952,0.10408 0.8952,0.10408 0,0 0.892,0.10817 0.892,0.10817 0,0 -0.013,0.4751 -0.013,0.4751 0,0 -0.012,0.47954 -0.012,0.47954 0,0 0.5438,0.0581 0.5438,0.0581 0,0 0.5442,0.0581 0.5442,0.0581 0,0 0,-2.49478 0,-2.49478 0,0 0,-2.49479 0,-2.49479 0,0 -0.54,-0.0563 -0.54,-0.0563 0,0 -0.5356,-0.0558 -0.5356,-0.0558 0,0 -1.1117,1.29475 -1.1117,1.29475 m 1.1159,0.96312 c -0.01,0.41321 -0.021,0.75029 -0.025,0.74985 -0.021,0.0245 -1.0205,-0.0724 -1.0205,-0.0946 0,-0.0801 0.9831,-1.40534 1.0371,-1.39968 0.012,0.001 0.017,0.33569 0.01,0.74445 0,0 0,0 0,0"
         id="path138334-8"
         style="fill:#1f7a7a;fill-opacity:1;stroke:none" />
      <path
         d="m 2135.8008,491.15455 c 0,0 0.012,2.48791 0.012,2.48791 0,0 0.553,0.0724 0.553,0.0724 0,0 0.5493,0.072 0.5493,0.072 0,0 0,-1.00768 0,-1.00768 0,0 0,-1.00768 0,-1.00768 0,0 0.1956,0.0341 0.1956,0.0341 0,0 0.1915,0.0336 0.1915,0.0336 0,0 0.4831,0.99678 0.4831,0.99678 0.2667,0.55031 0.5042,1.02181 0.5292,1.05125 0.029,0.0343 0.2751,0.074 0.6754,0.10783 0,0 0.63,0.0539 0.63,0.0539 0,0 -0.1794,-0.33168 -0.1794,-0.33168 -0.1002,-0.18478 -0.3713,-0.68236 -0.6049,-1.10887 -0.2293,-0.4215 -0.4211,-0.78094 -0.4211,-0.78986 0,-0.009 0.1001,-0.0564 0.221,-0.11052 0.2794,-0.12223 0.4671,-0.29436 0.6047,-0.55661 0.092,-0.18229 0.1085,-0.26982 0.1127,-0.61314 0,-0.35267 -0.012,-0.43434 -0.1169,-0.66847 -0.196,-0.4535 -0.5755,-0.7609 -1.1132,-0.90623 -0.15,-0.0424 -0.7331,-0.12552 -1.3035,-0.18498 0,0 -1.0273,-0.10711 -1.0273,-0.10711 0,0 0.01,2.483 0.01,2.483 m 2.1725,-1.2117 c 0.175,0.11203 0.3167,0.33659 0.3167,0.49722 0,0.19633 -0.1292,0.3969 -0.3084,0.47619 -0.1417,0.0654 -0.2458,0.0723 -0.6206,0.0328 0,0 -0.4454,-0.0425 -0.4454,-0.0425 0,0 0,-0.55778 0,-0.55778 0,-0.30809 0,-0.57561 0,-0.59301 0,-0.0218 0.2039,-0.01 0.4537,0.0252 0.3332,0.0438 0.4873,0.0867 0.6081,0.16184 0,0 0,0 0,0"
         id="path138336-5"
         style="fill:#1f7a7a;fill-opacity:1;stroke:none" />
      <path
         d="m 2145.4849,491.27187 c -0.1259,0.0495 -0.3106,0.16438 -0.403,0.25317 0,0 -0.172,0.16545 -0.172,0.16545 0,0 -0.029,-0.2538 -0.029,-0.2538 0,0 -0.029,-0.25379 -0.029,-0.25379 0,0 -0.2727,-0.0286 -0.2727,-0.0286 0,0 -0.2684,-0.0282 -0.2684,-0.0282 0,0 0,1.65596 0,1.65596 0,0 0,1.65596 0,1.65596 0,0 0.3145,0.0336 0.3145,0.0336 0,0 0.3147,0.0336 0.3147,0.0336 0,0 0,-1.0521 0,-1.0521 0,-1.19535 0.025,-1.30462 0.3399,-1.57141 0.1932,-0.16773 0.3023,-0.19207 0.6089,-0.13292 0.2562,0.0494 0.3907,0.16658 0.5251,0.45852 0.071,0.15988 0.08,0.28174 0.08,1.32122 0,0 0,1.14253 0,1.14253 0,0 0.3195,0.0341 0.3195,0.0341 0,0 0.3154,0.0337 0.3154,0.0337 0,0 -0.013,-1.26973 -0.013,-1.26973 -0.013,-1.22939 -0.017,-1.27016 -0.1136,-1.47756 -0.2186,-0.47115 -0.4918,-0.68357 -0.9708,-0.76076 -0.273,-0.0466 -0.3444,-0.0407 -0.546,0.0412 0,0 0,0 0,0"
         id="path138338-5"
         style="fill:#1f7a7a;fill-opacity:1;stroke:none" />
      <path
         d="m 2148.9884,491.59511 c -0.4297,0.0939 -0.796,0.4007 -1.0107,0.85339 -0.1052,0.21308 -0.1178,0.28797 -0.1178,0.70943 0,0.44388 0.01,0.49409 0.1347,0.78101 0.3283,0.74797 1.0697,1.22183 1.8242,1.17229 0.5863,-0.0362 0.9957,-0.31128 1.2532,-0.84071 0.152,-0.30272 0.1605,-0.35123 0.1605,-0.7285 0,-0.47159 -0.076,-0.7401 -0.3083,-1.11039 -0.173,-0.26968 -0.5613,-0.59786 -0.8692,-0.72448 -0.2573,-0.10781 -0.8264,-0.16757 -1.0666,-0.11204 0,0 0,0 0,0 m 1.037,0.69694 c 0.3839,0.24695 0.6371,0.80796 0.5823,1.30054 -0.055,0.48356 -0.346,0.86564 -0.7172,0.94731 -0.7251,0.15609 -1.3612,-0.38715 -1.4118,-1.20431 -0.034,-0.56419 0.1853,-0.99408 0.5898,-1.16679 0.2697,-0.11068 0.666,-0.06 0.9569,0.12325 0,0 0,0 0,0"
         id="path138340-2"
         style="fill:#1f7a7a;fill-opacity:1;stroke:none" />
      <path
         d="m 2155.825,492.34927 c -0.2884,0.0732 -0.6786,0.25272 -0.6786,0.31123 0,0.0225 0.072,0.12009 0.1612,0.21948 0,0 0.1611,0.18351 0.1611,0.18351 0,0 0.2969,-0.13075 0.2969,-0.13075 0.4074,-0.1777 0.7597,-0.17215 1.0315,0.01 0.2421,0.16063 0.3355,0.31012 0.3695,0.57499 0,0 0.026,0.20991 0.026,0.20991 0,0 -0.1997,0.006 -0.1997,0.006 -0.1104,0.006 -0.3057,-7e-4 -0.4331,-0.0143 -0.2632,-0.0278 -0.7852,0.025 -1.0058,0.0962 -0.1738,0.0581 -0.4325,0.26025 -0.5003,0.39255 -0.1484,0.27225 -0.1102,0.78027 0.076,1.05663 0.059,0.0873 0.2077,0.22917 0.3265,0.30935 0.1993,0.12931 0.263,0.1496 0.6448,0.19038 0.4797,0.0512 0.6708,-3.5e-4 0.9681,-0.27052 0,0 0.1572,-0.14543 0.1572,-0.14543 0,0 0,0.23426 0,0.23426 0,0 0,0.23426 0,0.23426 0,0 0.2889,0.0308 0.2889,0.0308 0,0 0.2848,0.0304 0.2848,0.0304 0,0 -0.021,-1.25047 -0.021,-1.25047 0,0 -0.021,-1.25496 -0.021,-1.25496 0,0 -0.119,-0.27389 -0.119,-0.27389 -0.068,-0.14684 -0.187,-0.33058 -0.2635,-0.4017 -0.3569,-0.32581 -1.0448,-0.47909 -1.5498,-0.34753 0,0 0,0 0,0 m 1.3586,2.05728 c 0,0.40093 -0.1742,0.70224 -0.4842,0.83589 -0.3524,0.15161 -0.815,0.0528 -1.0229,-0.22144 -0.1272,-0.16208 -0.1145,-0.4668 0.021,-0.60544 0.2164,-0.22464 0.471,-0.2742 1.0951,-0.21709 0,0 0.3908,0.0369 0.3908,0.0369 0,0 0,0.17118 0,0.17118"
         id="path138342-8"
         style="fill:#1f7a7a;fill-opacity:1;stroke:none" />
      <path
         d="m 2151.507,491.9046 c 0,0.0135 0.2746,0.76562 0.6127,1.67747 0.3382,0.91215 0.6131,1.67851 0.6131,1.70548 0,0.0314 0.1269,0.063 0.3722,0.0892 0,0 0.3682,0.0348 0.3682,0.0348 0,0 0.6224,-1.58426 0.6224,-1.58426 0,0 0.6185,-1.5857 0.6185,-1.5857 0,0 -0.2966,-0.0447 -0.2966,-0.0447 -0.1652,-0.0264 -0.3177,-0.0289 -0.3389,-0.009 -0.03,0.0284 -0.8382,2.16435 -0.9101,2.39498 -0.013,0.0436 -0.038,0.0769 -0.055,0.0751 -0.017,-0.002 -0.1608,-0.38571 -0.3173,-0.8563 -0.1565,-0.46603 -0.3637,-1.07216 -0.4567,-1.3516 0,0 -0.1775,-0.49949 -0.1775,-0.49949 0,0 -0.3254,-0.0342 -0.3254,-0.0342 -0.1817,-0.0191 -0.3296,-0.0256 -0.3296,-0.0122 0,0 0,0 0,0"
         id="path138344-3"
         style="fill:#1f7a7a;fill-opacity:1;stroke:none" />
      <path
         d="m 2128.0326,489.54919 c -0.2598,0.057 -0.2721,0.0912 -0.2721,0.86341 0,0.63463 0.012,0.75133 0.1237,1.23801 0.2516,1.07428 0.2887,1.15371 0.594,1.18631 0.2311,0.0247 0.2889,-0.0269 0.392,-0.35778 0.2271,-0.74853 0.2973,-1.13634 0.3221,-1.83098 0.021,-0.65513 0.021,-0.69066 -0.066,-0.81525 -0.05,-0.0718 -0.161,-0.15904 -0.2436,-0.19437 -0.1816,-0.0724 -0.6809,-0.12484 -0.85,-0.0894 0,0 0,0 0,0"
         id="path138346-1"
         style="fill:#1f7a7a;fill-opacity:1;stroke:none" />
      <path
         style="fill:#000000;fill-opacity:1;fill-rule:evenodd;stroke:none;stroke-width:0.80514383px;stroke-linecap:butt;stroke-linejoin:miter;stroke-opacity:1"
         d="m 2147.498,518.74805 c -0.6209,-0.0625 -1.1244,0.43121 -1.125,1.10351 l 0,9.24805 a 18.658499,18.814795 0 0 0 -11.0234,-3.66016 18.658499,18.814795 0 0 0 -18.6582,18.81446 18.658499,18.814795 0 0 0 18.6582,18.81445 18.658499,18.814795 0 0 0 11.2031,-3.79102 c 0.1972,0.37463 0.5378,0.66246 0.9453,0.71094 l 22.793,2.68945 0,3.86329 -14.5215,-1.73438 0,2.86524 32.1387,3.87695 0.9531,0.11523 1.6075,0.19336 0,-2.9043 -9.3907,-1.12304 0,-3.88086 9.3907,1.10742 0,-2.48047 -41.8458,-4.89648 0,-0.22461 a 18.658499,18.814795 0 0 0 5.3848,-13.20117 18.658499,18.814795 0 0 0 -5.3848,-13.21289 l 0,-9.74024 41.8458,4.29297 0,-2.48047 -42.9708,-4.36523 z"
         transform="translate(-1.2207031e-4,0)"
         id="path28264-7-8" />
      <path
         style="fill:#000000;fill-opacity:1;fill-rule:evenodd;stroke:none;stroke-width:0.80514383px;stroke-linecap:butt;stroke-linejoin:miter;stroke-opacity:1"
         d="m 2028.1865,506.06195 c -0.5891,-0.0592 -1.0659,0.40907 -1.0664,1.04687 l 0,8.77344 a 17.701117,17.849392 0 0 0 -10.459,-3.47266 17.701117,17.849392 0 0 0 -17.7012,17.84961 17.701117,17.849392 0 0 0 17.7012,17.84961 17.701117,17.849392 0 0 0 10.6289,-3.5957 c 0.1871,0.35547 0.5099,0.62783 0.8965,0.67383 l 21.625,2.55078 0,3.66601 -13.7774,-1.64648 0,2.71875 30.4903,3.67773 0.9023,0.10938 6.6738,0.80469 0,-0.72657 c 1.3967,-0.0565 3.1796,-0.10531 5.4453,-0.041 1.9795,0.0555 3.9703,0.20603 5.4434,0.51367 0.7366,0.15375 1.3428,0.35149 1.7305,0.5625 0.3877,0.21101 0.5026,0.3893 0.5195,0.51172 0.028,0.20117 -0.021,0.3512 -0.1836,0.56055 -0.1613,0.20933 -0.4407,0.43814 -0.7637,0.65234 -0.3231,0.2142 -0.6849,0.41627 -1.0175,0.61328 -0.3327,0.19686 -0.6343,0.36498 -0.8809,0.6582 -0.1234,0.14654 -0.2501,0.36319 -0.2402,0.63868 0.011,0.27561 0.173,0.51124 0.3437,0.6582 0.3416,0.29419 0.7792,0.44217 1.4863,0.63086 1.4144,0.3771 3.89,0.78631 8.0997,1.32422 0.8756,0.1123 1.5332,0.2512 1.9667,0.39843 0.4091,0.13905 0.5497,0.28495 0.5645,0.29688 -0.011,0.0208 -0.011,0.0361 -0.061,0.0957 -0.1409,0.16942 -0.482,0.44058 -0.9805,0.73047 -1.6368,0.95189 -4.9977,2.19526 -9.3242,3.59766 -0.9118,-0.75 -2.2539,-1.22322 -3.9785,-1.16992 -3.8099,0.11779 -6.1754,2.81829 -8.334,5.21679 0,0 -0.06,0.35894 -0.1797,0.89844 -0.1199,0.5398 2.0996,2.69716 3.2988,3.47656 1.1994,0.7795 3.8777,0.14116 7.3145,-1.49805 3.1473,-1.5012 3.8532,-4.12351 2.707,-5.97851 4.1129,-1.338 7.3076,-2.52611 9.0762,-3.55469 0.5588,-0.32483 0.9829,-0.62753 1.2813,-0.98633 0.1491,-0.17939 0.2707,-0.38042 0.3242,-0.62304 0.054,-0.24262 0.012,-0.52287 -0.1114,-0.74414 -0.2463,-0.44226 -0.6764,-0.65548 -1.2304,-0.84375 -0.5541,-0.18841 -1.2708,-0.33556 -2.1914,-0.45313 -4.1929,-0.5357 -6.6619,-0.94761 -7.9493,-1.29101 -0.4514,-0.12062 -0.5692,-0.19985 -0.7265,-0.27735 0.1044,-0.0749 0.145,-0.11653 0.3066,-0.21289 0.3102,-0.18369 0.6909,-0.39539 1.0664,-0.64453 0.3756,-0.24899 0.7484,-0.5336 1.0372,-0.9082 0.2889,-0.3746 0.4907,-0.87645 0.416,-1.41797 -0.086,-0.62041 -0.5562,-1.0602 -1.1094,-1.36133 -0.5533,-0.30112 -1.2472,-0.51081 -2.0469,-0.67773 -1.5988,-0.33398 -3.6267,-0.48209 -5.6406,-0.53907 -1.3295,-0.0374 -2.5364,-0.037 -3.5938,-0.0195 -0.7359,0.0123 -1.2992,0.0376 -1.8847,0.0605 l 0,-0.88867 -14.0567,-1.67969 0,-3.68164 22.209,2.62109 c 0.617,0.0727 1.1171,-0.3991 1.1172,-1.05273 l 0,-37.66211 c -6e-4,-0.65332 -0.5005,-1.23414 -1.1172,-1.29688 l -54.0664,-5.49218 z m 1.0683,2.42187 51.8809,5.32227 0,35.26172 -51.8809,-6.07032 0,-0.21679 a 17.701117,17.849392 0 0 0 5.1075,-12.52149 17.701117,17.849392 0 0 0 -5.1075,-12.53515 l 0,-9.24024 z"
         id="path28254-7-2" />
      <rect
         y="447.88354"
         x="1983.4369"
         height="157.00214"
         width="207.03087"
         id="rect476795"
         style="opacity:1;fill:none;fill-opacity:1;fill-rule:nonzero;stroke:#666666;stroke-width:0.29785961;stroke-linecap:round;stroke-linejoin:round;stroke-miterlimit:4;stroke-dasharray:none;stroke-dashoffset:0;stroke-opacity:1" />
    </g>
  </g>
</svg>
