<?xml version="1.0" encoding="UTF-8" standalone="no"?>
<svg
   xmlns:dc="http://purl.org/dc/elements/1.1/"
   xmlns:cc="http://creativecommons.org/ns#"
   xmlns:rdf="http://www.w3.org/1999/02/22-rdf-syntax-ns#"
   xmlns:svg="http://www.w3.org/2000/svg"
   xmlns="http://www.w3.org/2000/svg"
   version="1.1"
   id="svg5156"
   viewBox="0 0 210 160"
   height="160"
   width="210">
  <defs
     id="defs5158">
    <linearGradient
       spreadMethod="pad"
       gradientUnits="userSpaceOnUse"
       y2="593.78698"
       y1="3.6658269"
       x2="590.86259"
       x1="0.74144253"
       id="gradientFill"
       gradientTransform="matrix(1.2219423,0,0,0.81836924,-767.16729,-40.990215)">
      <stop
         id="stop6361"
         stop-opacity="1"
         stop-color="rgb(203,206,208)"
         offset="0" />
      <stop
         id="stop6363"
         stop-opacity="1"
         stop-color="rgb(132,131,139)"
         offset="1" />
    </linearGradient>
    <linearGradient
       spreadMethod="pad"
       gradientUnits="userSpaceOnUse"
       y2="593.78699"
       y1="3.6658268"
       x2="590.86261"
       x1="0.7414425"
       id="gradientFill-0"
       gradientTransform="matrix(1.2219423,0,0,0.81836924,-767.16729,-40.990215)">
      <stop
         id="stop6361-6"
         stop-opacity="1"
         stop-color="rgb(203,206,208)"
         offset="0" />
      <stop
         id="stop6363-2"
         stop-opacity="1"
         stop-color="rgb(132,131,139)"
         offset="1" />
    </linearGradient>
  </defs>
  <metadata
     id="metadata5161">
    <rdf:RDF>
      <cc:Work
         rdf:about="">
        <dc:format>image/svg+xml</dc:format>
        <dc:type
           rdf:resource="http://purl.org/dc/dcmitype/StillImage" />
        <dc:title></dc:title>
      </cc:Work>
    </rdf:RDF>
  </metadata>
  <g
     transform="translate(0,-892.36221)"
     id="layer1">
    <g
       id="g484789"
       transform="translate(-1604.0953,20.496579)">
      <path
         style="opacity:1;fill:#cccccc;fill-opacity:1;fill-rule:nonzero;stroke:none;stroke-width:2;stroke-linecap:round;stroke-linejoin:round;stroke-miterlimit:4;stroke-dasharray:none;stroke-dashoffset:0;stroke-opacity:1"
         d="m 1810.1992,889.21875 c -0.3605,-0.0362 -0.6539,0.2502 -0.6543,0.64063 l 0,5.37109 a 10.835845,10.926612 0 0 0 -6.4023,-2.12695 10.835845,10.926612 0 0 0 -10.834,10.92773 10.835845,10.926612 0 0 0 10.834,10.92578 10.835845,10.926612 0 0 0 6.5058,-2.20117 c 0.1149,0.21734 0.314,0.38392 0.5508,0.41211 l 2.4121,0.28515 0,-1.41992 -1.7578,-0.20508 0,-0.13281 a 10.835845,10.926612 0 0 0 1.7578,-2.38867 l 0,-10.57422 a 10.835845,10.926612 0 0 0 -1.7578,-2.37304 l 0,-5.65821 1.7578,0.17969 0,-1.41797 -2.4121,-0.24414 z"
         transform="translate(-1.2207031e-4,0)"
         id="ellipse14478-0-1" />
      <path
         id="path14424-1-5"
         d="m 1618.7611,973.48781 c -2.182,0.0444 -4.0306,1.61985 -4.4213,3.76695 -1.4734,7.4826 -2.3457,12.07806 -2.7093,15.17552 -0.1817,1.5487 -0.3152,2.6504 -0.052,4.1704 0.1319,0.7599 0.3676,1.76 1.284,2.8235 0.9015,1.04622 2.5554,1.71692 3.7132,1.76812 1.2389,0.054 1.6416,-0.1538 2.0931,-0.2935 0.2756,-0.086 0.5223,-0.1896 0.7752,-0.2869 l 0,16.1122 38.7208,0 0,-18.09542 c 0.9709,2.41522 1.9611,4.87222 2.7518,6.79442 0.4763,1.1576 0.8919,2.155 1.2236,2.9267 0.3318,0.7715 0.2009,0.7812 0.9479,1.9764 0.8438,1.3501 1.935,1.7962 2.5838,2.0101 0.6489,0.2139 1.0639,0.2442 1.414,0.2644 0.7004,0.04 1.1551,-0.015 1.6404,-0.076 0.9705,-0.1234 1.9658,-0.3355 3.1148,-0.6074 2.2979,-0.5434 5.1172,-1.339 7.9127,-2.1691 5.591,-1.6602 11.05,-3.4554 11.05,-3.4554 5.9446,-1.8437 3.0128,-10.76262 -2.8662,-8.71942 0,0 -5.3739,1.7644 -10.7967,3.37472 -2.6729,0.7937 -5.3462,1.5406 -7.3077,2.0079 -0.152,-0.3656 -0.257,-0.6085 -0.4279,-1.0241 -0.9325,-2.26622 -2.1196,-5.20512 -3.283,-8.10762 -2.3266,-5.80523 -4.5648,-11.47125 -4.5648,-11.47125 -1.154,-1.77485 -2.5892,-2.66699 -4.3092,-2.96257 -12.7891,-1.56897 -25.8209,-4.50243 -38.4877,-5.90254 z"
         style="opacity:1;fill:#000000;fill-opacity:1;fill-rule:nonzero;stroke:none;stroke-width:1.60000002;stroke-linecap:round;stroke-linejoin:round;stroke-miterlimit:4;stroke-dasharray:none;stroke-dashoffset:0;stroke-opacity:1" />
      <path
         style="opacity:1;fill:#000000;fill-opacity:1;fill-rule:nonzero;stroke:none;stroke-width:1.60000002;stroke-linecap:round;stroke-linejoin:round;stroke-miterlimit:4;stroke-dasharray:none;stroke-dashoffset:0;stroke-opacity:1"
         d="m 1736.3633,988.44141 c -2.2999,0.0468 -4.2483,1.70744 -4.6602,3.9707 -1.553,7.88729 -2.4722,12.73109 -2.8554,15.99609 -0.1916,1.6325 -0.333,2.7943 -0.055,4.3965 0.1389,0.801 0.3876,1.8556 1.3535,2.9765 0.9502,1.1029 2.6936,1.8094 3.914,1.8633 1.3059,0.057 1.7312,-0.1632 2.2071,-0.3105 0.2905,-0.091 0.5497,-0.1982 0.8164,-0.3008 l 0,13.334 40.8164,0 0,-15.4258 c 1.0234,2.5459 2.0668,5.1359 2.9004,7.1621 0.502,1.2202 0.9393,2.2727 1.289,3.086 0.3497,0.8133 0.2125,0.8221 1,2.082 0.8894,1.4231 2.0387,1.8936 2.7227,2.1191 0.6839,0.2255 1.1211,0.258 1.4902,0.2793 0.7383,0.042 1.2189,-0.016 1.7305,-0.08 1.0231,-0.13 2.0721,-0.354 3.2832,-0.6406 2.4222,-0.5729 5.3931,-1.412 8.3398,-2.2871 5.8936,-1.75 11.6485,-3.6406 11.6485,-3.6406 0.1071,-0.033 0.2049,-0.074 0.3066,-0.1113 l 0,-9.1172 c -0.9485,-0.3542 -2.0727,-0.3992 -3.3281,0.037 0,0 -5.6648,1.8592 -11.3809,3.5566 -2.8176,0.8366 -5.6356,1.6245 -7.7031,2.1172 -0.1603,-0.3854 -0.271,-0.642 -0.4512,-1.0801 -0.9828,-2.3888 -2.2346,-5.4873 -3.4609,-8.5468 -2.4525,-6.1192 -4.8105,-12.08989 -4.8105,-12.08989 -1.2164,-1.8709 -2.73,-2.81145 -4.543,-3.12305 -13.4809,-1.6538 -27.2165,-4.74681 -40.5684,-6.22265 l 0,0 z"
         transform="translate(-1.2207031e-4,0)"
         id="path14438-4-8" />
      <path
         style="opacity:1;fill:#666666;fill-opacity:1;fill-rule:nonzero;stroke:none;stroke-width:2;stroke-linecap:round;stroke-linejoin:round;stroke-miterlimit:4;stroke-dasharray:none;stroke-dashoffset:0;stroke-opacity:1"
         d="m 1737.6533,906.85156 c -0.4789,-0.0481 -0.8668,0.33306 -0.8672,0.85156 l 0,7.13282 a 14.391075,14.511623 0 0 0 -8.502,-2.82422 14.391075,14.511623 0 0 0 -14.3926,14.51172 14.391075,14.511623 0 0 0 14.3926,14.51172 14.391075,14.511623 0 0 0 8.6406,-2.92383 c 0.1522,0.2891 0.4143,0.51142 0.7286,0.54883 l 17.58,2.07422 0,2.98046 -11.2011,-1.33984 0,2.21094 24.789,2.99023 0.7344,0.0879 0.053,0.006 0,-2.23828 -6.0566,-0.72266 0,-2.99414 18.0566,2.13086 c 0.5017,0.0591 0.9081,-0.32408 0.9082,-0.85547 l 0,-30.61914 c -5e-4,-0.53115 -0.4068,-1.00367 -0.9082,-1.05468 l -43.9551,-4.46485 z m 0.8691,1.96875 42.1777,4.32617 0,28.66797 -42.1777,-4.93554 0,-0.17579 a 14.391075,14.511623 0 0 0 4.1524,-10.17968 14.391075,14.511623 0 0 0 -4.1524,-10.1875 l 0,-7.51563 z"
         id="ellipse14450-0-5" />
      <path
         id="path14452-7-1"
         d="m 1711.9877,940.95271 c -1.7739,0.0361 -3.2761,1.3169 -3.5938,3.0625 -1.1978,6.08339 -1.9075,9.81964 -2.2031,12.33789 -0.1478,1.25913 -0.2554,2.15483 -0.041,3.39062 0.1072,0.61779 0.2979,1.43029 1.043,2.29492 0.7329,0.85054 2.0782,1.39591 3.0195,1.4375 1.0072,0.044 1.3341,-0.12466 1.7012,-0.23828 0.224,-0.0699 0.4251,-0.15525 0.6308,-0.23437 l 0,13.09961 27.4082,0 a 18.658499,18.814795 0 0 1 -1.1191,-6.36914 18.658499,18.814795 0 0 1 9.9238,-16.61133 c -0.7672,-1.93179 -1.9746,-4.96289 -1.9746,-4.96289 -0.9382,-1.44296 -2.1056,-2.1679 -3.5039,-2.40821 -10.3976,-1.27558 -20.9928,-3.66052 -31.291,-4.79882 z"
         style="opacity:1;fill:#666666;fill-opacity:1;fill-rule:nonzero;stroke:none;stroke-width:1.60000002;stroke-linecap:round;stroke-linejoin:round;stroke-miterlimit:4;stroke-dasharray:none;stroke-dashoffset:0;stroke-opacity:1" />
      <path
         style="opacity:1;fill:#666666;fill-opacity:1;fill-rule:nonzero;stroke:none;stroke-width:2;stroke-linecap:round;stroke-linejoin:round;stroke-miterlimit:4;stroke-dasharray:none;stroke-dashoffset:0;stroke-opacity:1"
         d="m 1812.6113,928.78906 c -1.8792,2.54695 -3.004,5.69276 -3.0039,9.11133 0,3.29943 1.0763,6.47686 3.0039,9.09375 l 0,-18.20508 z"
         transform="translate(-1.2207031e-4,0)"
         id="ellipse14464-7-9" />
      <path
         style="opacity:1;fill:#cccccc;fill-opacity:1;fill-rule:nonzero;stroke:none;stroke-width:1.60000002;stroke-linecap:round;stroke-linejoin:round;stroke-miterlimit:4;stroke-dasharray:none;stroke-dashoffset:0;stroke-opacity:1"
         d="m 1790.873,914.89453 c -1.3356,0.0272 -2.4657,0.99228 -2.705,2.30664 -0.9018,4.58052 -1.4376,7.39489 -1.6602,9.29102 -0.1113,0.94806 -0.1928,1.62223 -0.031,2.55273 0.081,0.46516 0.2261,1.07749 0.7871,1.72852 0.5518,0.64041 1.5627,1.05072 2.2715,1.08203 0.7584,0.0331 1.0049,-0.0941 1.2812,-0.17969 0.1687,-0.0526 0.3198,-0.11621 0.4746,-0.17578 l 0,9.86328 18.7285,0 a 15.16943,15.296498 0 0 1 -0.4121,-3.46289 15.16943,15.296498 0 0 1 3.0039,-9.09375 l 0,-10.54492 c -7.2418,-0.99562 -14.5847,-2.57647 -21.7383,-3.36719 z"
         transform="translate(-1.2207031e-4,0)"
         id="path14480-2-6" />
      <path
         style="opacity:1;fill:#666666;fill-opacity:1;fill-rule:nonzero;stroke:none;stroke-width:1.60000002;stroke-linecap:round;stroke-linejoin:round;stroke-miterlimit:4;stroke-dasharray:none;stroke-dashoffset:0;stroke-opacity:1"
         d="m 1785.6639,977.27548 c -0.7349,-0.0838 -1.4393,0.15003 -1.9583,0.64979 -0.5189,0.49954 -0.8103,1.22408 -0.8103,2.01437 0,0.79027 0.2914,1.58192 0.8103,2.20099 0.5191,0.61932 1.2234,1.01537 1.9583,1.10087 1.5316,0.1782 2.7746,-1.01417 2.7746,-2.66342 0,-0.79201 -0.2926,-1.58511 -0.8133,-2.20462 -0.5204,-0.61926 -1.226,-1.01415 -1.9613,-1.09798 0,0 0,0 0,0 m 0,0.5779 c 1.2347,0.14109 2.2365,1.33328 2.2365,2.66271 -10e-5,1.32936 -1.0018,2.29068 -2.2365,2.14736 -1.2335,-0.1432 -2.2327,-1.335 -2.2327,-2.6621 -10e-5,-0.63732 0.235,-1.22159 0.6535,-1.62437 0.4186,-0.40291 0.9866,-0.5913 1.5792,-0.5236 0,0 0,0 0,0"
         id="path30663-9" />
      <path
         style="opacity:1;fill:#1f7a7a;fill-opacity:1;fill-rule:nonzero;stroke:none;stroke-width:1.60000002;stroke-linecap:round;stroke-linejoin:round;stroke-miterlimit:4;stroke-dasharray:none;stroke-dashoffset:0;stroke-opacity:1"
         d="m 1787.3973,980.45809 c 0,0.4948 -0.1828,0.94822 -0.508,1.26045 -0.3251,0.31215 -0.766,0.45754 -1.2255,0.40428 -0.9563,-0.11085 -1.7311,-1.03479 -1.7311,-2.06375 0,-1.02896 0.7748,-1.77445 1.7311,-1.665 0.4595,0.0526 0.9004,0.29952 1.2255,0.68656 0.3252,0.38714 0.508,0.88266 0.508,1.37746 0,0 0,0 0,0"
         id="path30665-0" />
      <path
         style="opacity:1;fill:#666666;fill-opacity:1;fill-rule:nonzero;stroke:none;stroke-width:1.60000002;stroke-linecap:round;stroke-linejoin:round;stroke-miterlimit:4;stroke-dasharray:none;stroke-dashoffset:0;stroke-opacity:1"
         d="m 1785.6639,962.5885 c -0.7349,-0.0795 -1.4393,0.15838 -1.9583,0.66114 -0.5189,0.50256 -0.8103,1.22879 -0.8103,2.01908 0,0.79027 0.2914,1.58023 0.8103,2.19629 0.5191,0.61631 1.2234,1.00827 1.9583,1.08951 1.5316,0.16932 2.7746,-1.03026 2.7746,-2.67952 0,-0.79201 -0.2926,-1.58341 -0.8133,-2.1999 -0.5204,-0.61624 -1.226,-1.00704 -1.9613,-1.0866 0,0 0,0 0,0 m 0,0.5779 c 1.2347,0.13393 2.2365,1.32031 2.2365,2.64974 -10e-5,1.32936 -1.0018,2.29649 -2.2365,2.16033 -1.2335,-0.13604 -2.2327,-1.32205 -2.2327,-2.64914 -10e-5,-0.63733 0.235,-1.22297 0.6535,-1.62817 0.4186,-0.40534 0.9866,-0.59702 1.5792,-0.53276 0,0 0,0 0,0"
         id="path30667-5" />
      <path
         style="opacity:1;fill:#666666;fill-opacity:1;fill-rule:nonzero;stroke:none;stroke-width:1.60000002;stroke-linecap:round;stroke-linejoin:round;stroke-miterlimit:4;stroke-dasharray:none;stroke-dashoffset:0;stroke-opacity:1"
         d="m 1785.6639,969.93198 c -0.7349,-0.0816 -1.4393,0.1542 -1.9583,0.65546 -0.5189,0.50106 -0.8103,1.22643 -0.8103,2.01672 0,0.79028 0.2914,1.58108 0.8103,2.19865 0.5191,0.61781 1.2234,1.01182 1.9583,1.09518 1.5316,0.17377 2.7746,-1.02221 2.7746,-2.67147 0,-0.79201 -0.2926,-1.58425 -0.8133,-2.20225 -0.5204,-0.61775 -1.226,-1.0106 -1.9613,-1.09229 0,0 0,0 0,0 m 0,0.5779 c 1.2347,0.13751 2.2365,1.32679 2.2365,2.65622 -10e-5,1.32936 -1.0018,2.29359 -2.2365,2.15385 -1.2335,-0.13962 -2.2327,-1.32853 -2.2327,-2.65562 -10e-5,-0.63732 0.235,-1.22228 0.6535,-1.62628 0.4186,-0.40412 0.9866,-0.59416 1.5792,-0.52817 0,0 0,0 0,0"
         id="path30671-9" />
      <path
         style="opacity:1;fill:#cccccc;fill-opacity:1;fill-rule:nonzero;stroke:none;stroke-width:3;stroke-linecap:round;stroke-linejoin:round;stroke-miterlimit:4;stroke-dasharray:none;stroke-dashoffset:0;stroke-opacity:1"
         d="m 1792.1223,964.53445 c 0,0 19.9749,2.17101 19.9749,2.17101 0,0 0,3.51431 0,3.51431 0,0 -19.9749,-2.19844 -19.9749,-2.19844 0,0 0,-3.48688 0,-3.48688"
         id="path30675-7" />
      <path
         style="opacity:1;fill:#cccccc;fill-opacity:1;fill-rule:nonzero;stroke:none;stroke-width:3;stroke-linecap:round;stroke-linejoin:round;stroke-miterlimit:4;stroke-dasharray:none;stroke-dashoffset:0;stroke-opacity:1"
         d="m 1792.1223,971.89667 c 0,0 9.4767,1.05748 9.4767,1.05748 0,0 0,3.49986 0,3.49986 0,0 -9.4767,-1.0705 -9.4767,-1.0705 0,0 0,-3.48684 0,-3.48684"
         id="path30677-6" />
      <path
         style="opacity:1;fill:#cccccc;fill-opacity:1;fill-rule:nonzero;stroke:none;stroke-width:3;stroke-linecap:round;stroke-linejoin:round;stroke-miterlimit:4;stroke-dasharray:none;stroke-dashoffset:0;stroke-opacity:1"
         d="m 1792.1223,979.25891 c 0,0 18.1617,2.07928 18.1617,2.07928 0,0 0,3.51179 0,3.51179 0,0 -18.1617,-2.10422 -18.1617,-2.10422 0,0 0,-3.48685 0,-3.48685"
         id="path30679-6" />
      <path
         style="opacity:1;fill:#cccccc;fill-opacity:1;fill-rule:nonzero;stroke:none;stroke-width:3;stroke-linecap:round;stroke-linejoin:round;stroke-miterlimit:4;stroke-dasharray:none;stroke-dashoffset:0;stroke-opacity:1"
         d="m 1803.1855,973.13086 0,3.50195 9.4258,1.06446 0,-3.51368 -9.4258,-1.05273 z"
         transform="translate(-1.2207031e-4,0)"
         id="path30681-8" />
      <path
         style="overflow:visible;fill:#1f7a7a;fill-opacity:1;stroke-width:2.55838013"
         d="m 1812.6113,953.23047 c -2.1235,0.24575 -3.8869,0.8105 -6.3281,2.125 0.1417,0.0148 0.2647,0.027 0.3984,0.041 -0.1071,0.89866 -0.021,2.32422 -0.021,2.32422 l 0.016,0.002 c -0.4505,1.29385 8e-4,2.43709 0.3691,3.46679 0,-1.22778 0.058,-2.21456 -0.2734,-3.52539 -0.015,-0.16525 -0.077,-1.43234 0.023,-2.25195 0.9742,0.11755 1.7598,0.23673 2.4336,0.32617 -0.026,0.44479 0.039,0.99543 0.2207,1.66406 -0.031,0.21199 -0.051,0.43279 -0.051,0.67383 l 0,5.55664 2.5098,0.26953 0,-5.25976 c 0,-0.25688 0.023,-0.48138 0.068,-0.67383 0.2178,-0.0214 0.4282,-0.0686 0.6347,-0.12695 l 0,-4.61133 z"
         transform="translate(-1.2207031e-4,0)"
         id="path30687-8" />
      <path
         id="path138512-9"
         d="m 1665.5314,962.89486 c -0.6972,-0.0795 -1.3654,0.14233 -1.8579,0.61644 -0.4922,0.47392 -0.7687,1.16128 -0.7687,1.91102 0,0.74972 0.2765,1.50076 0.7687,2.08806 0.4925,0.58754 1.1607,0.96327 1.8579,1.04438 1.453,0.16906 2.6323,-0.96213 2.6323,-2.52676 0,-0.75138 -0.2776,-1.50378 -0.7716,-2.0915 -0.4938,-0.58748 -1.1631,-0.96211 -1.8607,-1.04164 0,0 0,0 0,0 m 0,0.54825 c 1.1714,0.13385 2.1218,1.26487 2.1217,2.52609 0,1.26114 -0.9504,2.17314 -2.1217,2.03717 -1.1703,-0.13585 -2.1181,-1.2665 -2.1182,-2.5255 0,-0.60462 0.223,-1.15891 0.62,-1.54103 0.3972,-0.38224 0.936,-0.56096 1.4982,-0.49673 0,0 0,0 0,0"
         style="opacity:1;fill:#666666;fill-opacity:1;fill-rule:nonzero;stroke:none;stroke-width:1.60000002;stroke-linecap:round;stroke-linejoin:round;stroke-miterlimit:4;stroke-dasharray:none;stroke-dashoffset:0;stroke-opacity:1" />
      <path
         id="path138514-2"
         d="m 1667.1758,965.91417 c 0,0.46941 -0.1734,0.89957 -0.4819,1.19577 -0.3084,0.29613 -0.7267,0.43407 -1.1626,0.38354 -0.9073,-0.10516 -1.6423,-0.9817 -1.6423,-1.95786 0,-0.97616 0.735,-1.68339 1.6423,-1.57957 0.4359,0.0499 0.8542,0.28416 1.1626,0.65134 0.3085,0.36728 0.4819,0.83736 0.4819,1.30678 0,0 0,0 0,0"
         style="opacity:1;fill:#1f7a7a;fill-opacity:1;fill-rule:nonzero;stroke:none;stroke-width:1.60000002;stroke-linecap:round;stroke-linejoin:round;stroke-miterlimit:4;stroke-dasharray:none;stroke-dashoffset:0;stroke-opacity:1" />
      <path
         id="path138516-9"
         d="m 1665.5314,948.96148 c -0.6972,-0.0754 -1.3654,0.15026 -1.8579,0.62722 -0.4922,0.47677 -0.7687,1.16574 -0.7687,1.91548 0,0.74972 0.2765,1.49915 0.7687,2.08359 0.4925,0.58469 1.1607,0.95654 1.8579,1.03361 1.453,0.16063 2.6323,-0.9774 2.6323,-2.54203 0,-0.75137 -0.2776,-1.50216 -0.7716,-2.08702 -0.4938,-0.58462 -1.1631,-0.95537 -1.8607,-1.03085 0,0 0,0 0,0 m 0,0.54825 c 1.1714,0.12706 2.1218,1.25256 2.1217,2.51378 0,1.26115 -0.9504,2.17865 -2.1217,2.04948 -1.1703,-0.12906 -2.1181,-1.25421 -2.1182,-2.51321 0,-0.60463 0.223,-1.16021 0.62,-1.54463 0.3972,-0.38453 0.936,-0.56639 1.4982,-0.50542 0,0 0,0 0,0"
         style="opacity:1;fill:#666666;fill-opacity:1;fill-rule:nonzero;stroke:none;stroke-width:1.60000002;stroke-linecap:round;stroke-linejoin:round;stroke-miterlimit:4;stroke-dasharray:none;stroke-dashoffset:0;stroke-opacity:1" />
      <path
         id="path138520-5"
         d="m 1665.5314,955.92816 c -0.6972,-0.0775 -1.3654,0.14629 -1.8579,0.62183 -0.4922,0.47535 -0.7687,1.16351 -0.7687,1.91324 0,0.74973 0.2765,1.49996 0.7687,2.08583 0.4925,0.58611 1.1607,0.9599 1.8579,1.03899 1.453,0.16484 2.6323,-0.96976 2.6323,-2.53439 0,-0.75137 -0.2776,-1.50297 -0.7716,-2.08926 -0.4938,-0.58605 -1.1631,-0.95874 -1.8607,-1.03624 0,0 0,0 0,0 m 0,0.54825 c 1.1714,0.13045 2.1218,1.25871 2.1217,2.51993 0,1.26114 -0.9504,2.1759 -2.1217,2.04333 -1.1703,-0.13246 -2.1181,-1.26036 -2.1182,-2.51936 0,-0.60462 0.223,-1.15956 0.62,-1.54283 0.3972,-0.38339 0.936,-0.56367 1.4982,-0.50107 0,0 0,0 0,0"
         style="opacity:1;fill:#666666;fill-opacity:1;fill-rule:nonzero;stroke:none;stroke-width:1.60000002;stroke-linecap:round;stroke-linejoin:round;stroke-miterlimit:4;stroke-dasharray:none;stroke-dashoffset:0;stroke-opacity:1" />
      <path
         id="path138524-4"
         d="m 1671.6584,950.80758 c 0,0 18.95,2.05961 18.95,2.05961 0,0 0,3.33399 0,3.33399 0,0 -18.95,-2.08563 -18.95,-2.08563 0,0 0,-3.30797 0,-3.30797"
         style="opacity:1;fill:#cccccc;fill-opacity:1;fill-rule:nonzero;stroke:none;stroke-width:3;stroke-linecap:round;stroke-linejoin:round;stroke-miterlimit:4;stroke-dasharray:none;stroke-dashoffset:0;stroke-opacity:1" />
      <path
         id="path138526-6"
         d="m 1671.6584,957.79204 c 0,0 8.9905,1.00322 8.9905,1.00322 0,0 0,3.32028 0,3.32028 0,0 -8.9905,-1.01557 -8.9905,-1.01557 0,0 0,-3.30793 0,-3.30793"
         style="opacity:1;fill:#cccccc;fill-opacity:1;fill-rule:nonzero;stroke:none;stroke-width:3;stroke-linecap:round;stroke-linejoin:round;stroke-miterlimit:4;stroke-dasharray:none;stroke-dashoffset:0;stroke-opacity:1" />
      <path
         id="path138528-2"
         d="m 1671.6584,964.77652 c 0,0 17.2298,1.97259 17.2298,1.97259 0,0 0,3.3316 0,3.3316 0,0 -17.2298,-1.99626 -17.2298,-1.99626 0,0 0,-3.30793 0,-3.30793"
         style="opacity:1;fill:#cccccc;fill-opacity:1;fill-rule:nonzero;stroke:none;stroke-width:3;stroke-linecap:round;stroke-linejoin:round;stroke-miterlimit:4;stroke-dasharray:none;stroke-dashoffset:0;stroke-opacity:1" />
      <path
         id="path138530-7"
         d="m 1682.1541,958.96321 c 0,0 17.1331,1.91184 17.1331,1.91184 0,0 0,3.34588 0,3.34588 0,0 -17.1331,-1.93537 -17.1331,-1.93537 0,0 0,-3.32235 0,-3.32235"
         style="opacity:1;fill:#cccccc;fill-opacity:1;fill-rule:nonzero;stroke:none;stroke-width:3;stroke-linecap:round;stroke-linejoin:round;stroke-miterlimit:4;stroke-dasharray:none;stroke-dashoffset:0;stroke-opacity:1" />
      <path
         id="path138532-6"
         d="m 1690.4036,966.92261 c 0,0 6.1622,0.70549 6.1622,0.70549 0,0 0,3.34215 0,3.34215 0,0 -6.1622,-0.71397 -6.1622,-0.71397 0,0 0,-3.33367 0,-3.33367"
         style="opacity:1;fill:#cccccc;fill-opacity:1;fill-rule:nonzero;stroke:none;stroke-width:3;stroke-linecap:round;stroke-linejoin:round;stroke-miterlimit:4;stroke-dasharray:none;stroke-dashoffset:0;stroke-opacity:1" />
      <path
         style="overflow:visible;fill:#1f7a7a;fill-opacity:1;stroke-width:2.55838013"
         d="m 1694.9529,939.90643 c -4.221,0.0244 -6.2541,0.25158 -9.8602,2.19336 0.1344,0.014 0.2513,0.0263 0.3782,0.0395 -0.1016,0.85256 -0.02,2.2036 -0.02,2.2036 0,0 0.014,10e-4 0.014,10e-4 -0.4275,1.22747 0,2.31256 0.3493,3.28943 0,-1.16479 0.055,-2.10025 -0.2591,-3.34382 -0.014,-0.15677 -0.072,-1.35876 0.022,-2.13632 0,0 0,0 0,0 0,0 0,0 0,0 0.9242,0.11152 1.6685,0.22392 2.3076,0.30878 -0.025,0.42197 0.039,0.94328 0.211,1.57761 -0.03,0.20111 -0.05,0.41227 -0.05,0.64093 0,0 0,5.27018 0,5.27018 0,0 2.3818,0.25628 2.3818,0.25628 0,0 0,-4.99043 0,-4.99043 0,-0.2437 0.022,-0.45541 0.066,-0.63798 0.6164,-0.0606 1.1885,-0.27966 1.6953,-0.64256 0.4319,0.2498 0.6445,0.76033 0.6445,1.53443 0,0 0,4.99537 0,4.99537 0,0 2.4114,0.25945 2.4114,0.25945 0,0 0,-5.00032 0,-5.00032 0,-1.053 0.4126,-1.53616 1.2178,-1.4517 0.8058,0.0845 1.2192,0.65486 1.2192,1.70891 0,0 0,5.00533 0,5.00533 0,0 0,0.0219 0,0.0219 0,0 2.3795,0.25605 2.3795,0.25605 0,0 0,-5.31813 0,-5.31813 0,-1.09874 -0.3518,-1.94889 -1.0763,-2.59585 -0.6207,-0.56989 -1.4687,-0.89935 -2.5429,-1.01117 -1.1766,-0.12248 -1.9806,0.0787 -2.4136,0.62555 -0.1953,-0.24464 -0.4296,-0.449 -0.7039,-0.61509 -0.3022,-0.36209 -0.6121,-0.58851 -0.9326,-0.7171 0.7014,-0.40627 1.5206,-0.96001 2.5643,-1.72904 0,0 0,10e-4 0,10e-4"
         id="path138536-7" />
      <path
         style="opacity:1;fill:#666666;fill-opacity:1;fill-rule:nonzero;stroke:none;stroke-width:1.60000002;stroke-linecap:round;stroke-linejoin:round;stroke-miterlimit:4;stroke-dasharray:none;stroke-dashoffset:0;stroke-opacity:1"
         d="m 1750.0125,932.34024 c -0.5668,-0.0646 -1.1101,0.11571 -1.5104,0.50117 -0.4002,0.38529 -0.625,0.94412 -0.625,1.55366 0,0.60953 0.2248,1.22012 0.625,1.6976 0.4003,0.47767 0.9436,0.78314 1.5104,0.84908 1.1813,0.13745 2.1401,-0.78221 2.1401,-2.05426 0,-0.61087 -0.2257,-1.22257 -0.6273,-1.70039 -0.4015,-0.47763 -0.9457,-0.78221 -1.5128,-0.84686 0,0 0,0 0,0 m 0,0.44572 c 0.9523,0.10883 1.725,1.02835 1.725,2.05372 0,1.02532 -0.7727,1.76678 -1.725,1.65623 -0.9514,-0.11044 -1.722,-1.02967 -1.7221,-2.05323 0,-0.49157 0.1813,-0.94221 0.5041,-1.25287 0.3229,-0.31076 0.761,-0.45606 1.218,-0.40385 0,0 0,0 0,0"
         id="path138542-1" />
      <path
         style="opacity:1;fill:#666666;fill-opacity:1;fill-rule:nonzero;stroke:none;stroke-width:1.60000002;stroke-linecap:round;stroke-linejoin:round;stroke-miterlimit:4;stroke-dasharray:none;stroke-dashoffset:0;stroke-opacity:1"
         d="m 1750.0125,921.01235 c -0.5668,-0.0613 -1.1101,0.12215 -1.5104,0.50993 -0.4002,0.38762 -0.625,0.94774 -0.625,1.55728 0,0.60953 0.2248,1.21882 0.625,1.69398 0.4003,0.47535 0.9436,0.77767 1.5104,0.84033 1.1813,0.13059 2.1401,-0.79463 2.1401,-2.06668 0,-0.61087 -0.2257,-1.22127 -0.6273,-1.69676 -0.4015,-0.4753 -0.9457,-0.77672 -1.5128,-0.83808 0,0 0,0 0,0 m 0,0.44573 c 0.9523,0.10329 1.725,1.01833 1.725,2.04371 0,1.02532 -0.7727,1.77125 -1.725,1.66624 -0.9514,-0.10493 -1.722,-1.01968 -1.7221,-2.04326 0,-0.49156 0.1813,-0.94325 0.5041,-1.25578 0.3229,-0.31263 0.761,-0.46048 1.218,-0.41091 0,0 0,0 0,0"
         id="path138546-7" />
      <path
         style="opacity:1;fill:#1f7a7a;fill-opacity:1;fill-rule:nonzero;stroke:none;stroke-width:1.60000002;stroke-linecap:round;stroke-linejoin:round;stroke-miterlimit:4;stroke-dasharray:none;stroke-dashoffset:0;stroke-opacity:1"
         d="m 1751.3494,923.4593 c 0,0.38164 -0.1409,0.73217 -0.3917,0.97445 -0.2508,0.2422 -0.5908,0.35632 -0.9453,0.31729 -0.7376,-0.0812 -1.3351,-0.79037 -1.3351,-1.584 0,-0.79363 0.5975,-1.37207 1.3351,-1.29194 0.3545,0.0385 0.6945,0.227 0.9453,0.52406 0.2508,0.29714 0.3917,0.67851 0.3917,1.06014 0,0 0,0 0,0"
         id="path138548-1" />
      <path
         style="opacity:1;fill:#666666;fill-opacity:1;fill-rule:nonzero;stroke:none;stroke-width:1.60000002;stroke-linecap:round;stroke-linejoin:round;stroke-miterlimit:4;stroke-dasharray:none;stroke-dashoffset:0;stroke-opacity:1"
         d="m 1750.0125,926.67628 c -0.5668,-0.063 -1.1101,0.11893 -1.5104,0.50556 -0.4002,0.38645 -0.625,0.94593 -0.625,1.55547 0,0.60953 0.2248,1.21947 0.625,1.69579 0.4003,0.4765 0.9436,0.7804 1.5104,0.8447 1.1813,0.13402 2.1401,-0.78842 2.1401,-2.06048 0,-0.61086 -0.2257,-1.22192 -0.6273,-1.69857 -0.4015,-0.47646 -0.9457,-0.77946 -1.5128,-0.84247 0,0 0,0 0,0 m 0,0.44573 c 0.9523,0.10606 1.725,1.02334 1.725,2.04871 0,1.02532 -0.7727,1.76902 -1.725,1.66124 -0.9514,-0.10769 -1.722,-1.02467 -1.7221,-2.04825 0,-0.49156 0.1813,-0.94273 0.5041,-1.25432 0.3229,-0.3117 0.761,-0.45827 1.218,-0.40738 0,0 0,0 0,0"
         id="path138550-8" />
      <path
         style="opacity:1;fill:#cccccc;fill-opacity:1;fill-rule:nonzero;stroke:none;stroke-width:3;stroke-linecap:round;stroke-linejoin:round;stroke-miterlimit:4;stroke-dasharray:none;stroke-dashoffset:0;stroke-opacity:1"
         d="m 1754.9938,922.51323 c 0,0 15.4064,1.67448 15.4064,1.67448 0,0 0,2.71055 0,2.71055 0,0 -15.4064,-1.69564 -15.4064,-1.69564 0,0 0,-2.68939 0,-2.68939"
         id="path138554-6" />
      <path
         style="opacity:1;fill:#cccccc;fill-opacity:1;fill-rule:nonzero;stroke:none;stroke-width:3;stroke-linecap:round;stroke-linejoin:round;stroke-miterlimit:4;stroke-dasharray:none;stroke-dashoffset:0;stroke-opacity:1"
         d="m 1754.9938,928.19162 c 0,0 7.3093,0.81563 7.3093,0.81563 0,0 0,2.6994 0,2.6994 0,0 -7.3093,-0.82567 -7.3093,-0.82567 0,0 0,-2.68936 0,-2.68936"
         id="path138556-8" />
      <path
         style="opacity:1;fill:#cccccc;fill-opacity:1;fill-rule:nonzero;stroke:none;stroke-width:3;stroke-linecap:round;stroke-linejoin:round;stroke-miterlimit:4;stroke-dasharray:none;stroke-dashoffset:0;stroke-opacity:1"
         d="m 1754.9938,933.87004 c 0,0 14.0079,1.60372 14.0079,1.60372 0,0 0,2.7086 0,2.7086 0,0 -14.0079,-1.62296 -14.0079,-1.62296 0,0 0,-2.68936 0,-2.68936"
         id="path138558-0" />
      <path
         style="opacity:1;fill:#cccccc;fill-opacity:1;fill-rule:nonzero;stroke:none;stroke-width:3;stroke-linecap:round;stroke-linejoin:round;stroke-miterlimit:4;stroke-dasharray:none;stroke-dashoffset:0;stroke-opacity:1"
         d="m 1763.5268,929.14379 c 0,0 13.9294,1.55433 13.9294,1.55433 0,0 0,2.72022 0,2.72022 0,0 -13.9294,-1.57347 -13.9294,-1.57347 0,0 0,-2.70108 0,-2.70108"
         id="path138560-7" />
      <path
         style="opacity:1;fill:#cccccc;fill-opacity:1;fill-rule:nonzero;stroke:none;stroke-width:3;stroke-linecap:round;stroke-linejoin:round;stroke-miterlimit:4;stroke-dasharray:none;stroke-dashoffset:0;stroke-opacity:1"
         d="m 1770.2337,935.61481 c 0,0 5.0099,0.57357 5.0099,0.57357 0,0 0,2.71717 0,2.71717 0,0 -5.0099,-0.58045 -5.0099,-0.58045 0,0 0,-2.71029 0,-2.71029"
         id="path138562-8" />
      <path
         id="path138566-6"
         d="m 1773.9323,913.65055 c -3.4317,0.0199 -5.0846,0.20454 -8.0164,1.78322 0.1093,0.0114 0.2043,0.0213 0.3075,0.0321 -0.083,0.69313 -0.016,1.79154 -0.016,1.79154 0,0 0.011,10e-4 0.011,10e-4 -0.3475,0.99793 0,1.88011 0.2841,2.67431 0,-0.94697 0.045,-1.7075 -0.2107,-2.71854 -0.011,-0.12745 -0.058,-1.10468 0.018,-1.73683 0,0 0,0 0,0 0,0 0,0 0,0 0.7514,0.0907 1.3564,0.18205 1.8761,0.25103 -0.02,0.34307 0.032,0.7669 0.1715,1.28261 -0.024,0.1635 -0.04,0.33517 -0.04,0.52108 0,0 0,4.28468 0,4.28468 0,0 1.9364,0.20835 1.9364,0.20835 0,0 0,-4.05723 0,-4.05723 0,-0.19813 0.018,-0.37025 0.053,-0.51868 0.5012,-0.0493 0.9664,-0.22737 1.3784,-0.52241 0.3511,0.20309 0.524,0.61815 0.524,1.24749 0,0 0,4.06126 0,4.06126 0,0 1.9604,0.21094 1.9604,0.21094 0,0 0,-4.06529 0,-4.06529 0,-0.85608 0.3354,-1.2489 0.9901,-1.18023 0.6551,0.0687 0.9912,0.5324 0.9912,1.38935 0,0 0,4.06935 0,4.06935 0,0 0,0.0178 0,0.0178 0,0 1.9346,0.20817 1.9346,0.20817 0,0 0,-4.32366 0,-4.32366 0,-0.89328 -0.286,-1.58445 -0.8751,-2.11044 -0.5046,-0.46332 -1.194,-0.73117 -2.0674,-0.82208 -0.9565,-0.0996 -1.6102,0.064 -1.9623,0.50858 -0.1588,-0.19889 -0.3492,-0.36504 -0.5722,-0.50007 -0.2457,-0.29439 -0.4977,-0.47846 -0.7582,-0.58301 0.5703,-0.3303 1.2363,-0.78049 2.0848,-1.40571 0,0 0,10e-4 0,10e-4"
         style="overflow:visible;fill:#1f7a7a;fill-opacity:1;stroke-width:2.55838013" />
      <path
         style="fill:#000000;fill-opacity:1;fill-rule:evenodd;stroke:none;stroke-width:0.80514383px;stroke-linecap:butt;stroke-linejoin:miter;stroke-opacity:1"
         d="m 1650.329,931.54297 c -0.589,-0.0592 -1.0658,0.40909 -1.0664,1.04687 l 0,8.77344 a 17.701117,17.849392 0 0 0 -10.4589,-3.47266 17.701117,17.849392 0 0 0 -17.7012,17.84961 17.701117,17.849392 0 0 0 17.7012,17.84961 17.701117,17.849392 0 0 0 10.6289,-3.5957 c 0.187,0.35546 0.5099,0.62782 0.8964,0.67383 l 21.625,2.55078 0,3.66602 -13.7773,-1.64649 0,2.71875 30.4902,3.67774 0.9043,0.10937 6.6719,0.80469 0,-0.72656 c 1.3967,-0.0565 3.1816,-0.10531 5.4473,-0.041 1.9795,0.0555 3.9683,0.20603 5.4414,0.51367 0.7366,0.15375 1.3428,0.35149 1.7304,0.5625 0.3877,0.21101 0.5027,0.3893 0.5196,0.51172 0.028,0.20117 -0.022,0.3512 -0.1836,0.56055 -0.1613,0.20934 -0.4407,0.44009 -0.7637,0.65429 -0.3231,0.2142 -0.685,0.41432 -1.0176,0.61133 -0.3326,0.19686 -0.6343,0.36499 -0.8808,0.65821 -0.1234,0.14654 -0.2501,0.36319 -0.2403,0.63867 0.011,0.27561 0.1731,0.51124 0.3438,0.6582 0.3415,0.29419 0.7792,0.44217 1.4863,0.63086 1.4143,0.3771 3.89,0.78631 8.0996,1.32422 0.8757,0.1123 1.5352,0.25121 1.9688,0.39844 0.409,0.13905 0.5477,0.28494 0.5625,0.29687 -0.011,0.0208 -0.011,0.0361 -0.061,0.0957 -0.1409,0.16942 -0.48,0.44058 -0.9785,0.73047 -1.6368,0.95189 -4.9997,2.19526 -9.3262,3.59766 -0.9118,-0.75 -2.254,-1.22127 -3.9785,-1.16797 -3.8099,0.1178 -6.1754,2.81634 -8.334,5.21484 0,0 -0.06,0.35894 -0.1797,0.89844 -0.1199,0.5398 2.0996,2.69716 3.2988,3.47656 1.1994,0.7795 3.8777,0.1411 7.3145,-1.4981 3.1473,-1.50116 3.8532,-4.12346 2.707,-5.97846 4.1129,-1.338 7.3076,-2.52611 9.0762,-3.55469 0.5587,-0.32483 0.9829,-0.62752 1.2812,-0.98632 0.1492,-0.17939 0.2708,-0.38043 0.3243,-0.62305 0.054,-0.24262 0.014,-0.52287 -0.1094,-0.74414 -0.2463,-0.44226 -0.6784,-0.65548 -1.2324,-0.84375 -0.5541,-0.18841 -1.2708,-0.33556 -2.1914,-0.45313 -4.1929,-0.5357 -6.6619,-0.94761 -7.9493,-1.29101 -0.4514,-0.12062 -0.5692,-0.19985 -0.7265,-0.27735 0.1044,-0.0749 0.1449,-0.11653 0.3066,-0.21289 0.3101,-0.18369 0.6909,-0.39539 1.0664,-0.64453 0.3755,-0.24899 0.7483,-0.5336 1.0371,-0.9082 0.2889,-0.3746 0.4927,-0.87645 0.418,-1.41797 -0.086,-0.62041 -0.5581,-1.0602 -1.1113,-1.36133 -0.5533,-0.30112 -1.2472,-0.51081 -2.0469,-0.67773 -1.5988,-0.33398 -3.6267,-0.48208 -5.6406,-0.53906 -1.3295,-0.0374 -2.5364,-0.037 -3.5938,-0.0195 -0.736,0.0123 -1.2992,0.0376 -1.8847,0.0606 l 0,-0.88867 -14.0567,-1.67969 0,-3.68164 22.209,2.6211 c 0.617,0.0727 1.1171,-0.39912 1.1172,-1.05274 l 0,-37.66211 c -6e-4,-0.65332 -0.5005,-1.23413 -1.1172,-1.29687 l -54.0664,-5.49219 z m 1.0684,2.42383 51.8809,5.32031 0,35.26172 -51.8809,-6.07031 0,-0.21485 a 17.701117,17.849392 0 0 0 5.1074,-12.52344 17.701117,17.849392 0 0 0 -5.1074,-12.53515 l 0,-9.23828 z"
         id="path14420-3-9" />
      <path
         style="fill:#000000;fill-opacity:1;fill-rule:evenodd;stroke:none;stroke-width:0.80514383px;stroke-linecap:butt;stroke-linejoin:miter;stroke-opacity:1"
         d="m 1769.6406,944.22852 c -0.6209,-0.0624 -1.1244,0.43123 -1.125,1.10351 l 0,9.24805 a 18.658499,18.814795 0 0 0 -11.0234,-3.66016 18.658499,18.814795 0 0 0 -18.6582,18.81446 18.658499,18.814795 0 0 0 18.6582,18.81445 18.658499,18.814795 0 0 0 11.2031,-3.79102 c 0.1972,0.37463 0.5379,0.66244 0.9453,0.71094 l 22.793,2.68945 0,3.86328 -14.5215,-1.73437 0,2.86523 32.1387,3.87696 0.9531,0.11523 1.6074,0.19336 0,-2.9043 -9.3906,-1.12304 0,-3.88086 9.3906,1.10937 0,-2.48242 -41.8437,-4.89648 0,-0.22657 a 18.658499,18.814795 0 0 0 5.3828,-13.19921 18.658499,18.814795 0 0 0 -5.3828,-13.2129 l 0,-9.74023 41.8437,4.29297 0,-2.48047 -42.9707,-4.36523 z"
         transform="translate(-1.2207031e-4,0)"
         id="path14434-6-6" />
      <rect
         style="opacity:1;fill:none;fill-opacity:1;fill-rule:nonzero;stroke:#666666;stroke-width:0.29785961;stroke-linecap:round;stroke-linejoin:round;stroke-miterlimit:4;stroke-dasharray:none;stroke-dashoffset:0;stroke-opacity:1"
         id="rect476961"
         width="207.03087"
         height="157.00214"
         x="1605.5798"
         y="873.36456" />
    </g>
  </g>
</svg>
