<?xml version="1.0" encoding="UTF-8" standalone="no"?>
<svg
   xmlns:dc="http://purl.org/dc/elements/1.1/"
   xmlns:cc="http://creativecommons.org/ns#"
   xmlns:rdf="http://www.w3.org/1999/02/22-rdf-syntax-ns#"
   xmlns:svg="http://www.w3.org/2000/svg"
   xmlns="http://www.w3.org/2000/svg"
   version="1.1"
   id="svg5156"
   viewBox="0 0 210 160"
   height="160"
   width="210">
  <defs
     id="defs5158">
    <linearGradient
       spreadMethod="pad"
       gradientUnits="userSpaceOnUse"
       y2="593.78698"
       y1="3.6658269"
       x2="590.86259"
       x1="0.74144253"
       id="gradientFill"
       gradientTransform="matrix(1.2219423,0,0,0.81836924,-767.16729,-40.990215)">
      <stop
         id="stop6361"
         stop-opacity="1"
         stop-color="rgb(203,206,208)"
         offset="0" />
      <stop
         id="stop6363"
         stop-opacity="1"
         stop-color="rgb(132,131,139)"
         offset="1" />
    </linearGradient>
    <linearGradient
       spreadMethod="pad"
       gradientUnits="userSpaceOnUse"
       y2="593.78699"
       y1="3.6658268"
       x2="590.86261"
       x1="0.7414425"
       id="gradientFill-0"
       gradientTransform="matrix(1.2219423,0,0,0.81836924,-767.16729,-40.990215)">
      <stop
         id="stop6361-6"
         stop-opacity="1"
         stop-color="rgb(203,206,208)"
         offset="0" />
      <stop
         id="stop6363-2"
         stop-opacity="1"
         stop-color="rgb(132,131,139)"
         offset="1" />
    </linearGradient>
  </defs>
  <metadata
     id="metadata5161">
    <rdf:RDF>
      <cc:Work
         rdf:about="">
        <dc:format>image/svg+xml</dc:format>
        <dc:type
           rdf:resource="http://purl.org/dc/dcmitype/StillImage" />
        <dc:title></dc:title>
      </cc:Work>
    </rdf:RDF>
  </metadata>
  <g
     transform="translate(0,-892.36221)"
     id="layer1">
    <g
       id="g484280"
       transform="translate(-1983.4415,871.45863)">
      <path
         style="opacity:1;fill:#cccccc;fill-opacity:1;fill-rule:nonzero;stroke:none;stroke-width:2;stroke-linecap:round;stroke-linejoin:round;stroke-miterlimit:4;stroke-dasharray:none;stroke-dashoffset:0;stroke-opacity:1"
         d="m 2188.0566,38.255859 c -0.3606,-0.0363 -0.654,0.250195 -0.6543,0.640625 l 0,5.369141 a 10.835845,10.926612 0 0 0 -6.4023,-2.125 10.835845,10.926612 0 0 0 -10.8359,10.927734 10.835845,10.926612 0 0 0 10.8359,10.925782 10.835845,10.926612 0 0 0 6.5059,-2.201172 c 0.115,0.21745 0.3142,0.383979 0.5507,0.412109 l 2.4122,0.285156 0,-1.419922 -1.7598,-0.205078 0,-0.130859 a 10.835845,10.926612 0 0 0 1.7598,-2.390625 l 0,-10.572266 a 10.835845,10.926612 0 0 0 -1.7598,-2.376953 l 0,-5.65625 1.7598,0.179688 0,-1.417969 -2.4122,-0.244141 z"
         transform="translate(-1.2207031e-4,0)"
         id="path28432-8-3" />
      <path
         style="opacity:1;fill:#000000;fill-opacity:1;fill-rule:nonzero;stroke:none;stroke-width:1.60000002;stroke-linecap:round;stroke-linejoin:round;stroke-miterlimit:4;stroke-dasharray:none;stroke-dashoffset:0;stroke-opacity:1"
         d="m 1996.6182,122.52545 c -2.1819,0.0444 -4.0305,1.61985 -4.4213,3.76695 -1.4733,7.4826 -2.3457,12.07806 -2.7093,15.17552 -0.1817,1.5487 -0.3151,2.6504 -0.052,4.1704 0.1319,0.7599 0.3677,1.76 1.284,2.8235 0.9015,1.0462 2.5554,1.7169 3.7132,1.7681 1.2389,0.054 1.6416,-0.1538 2.0931,-0.2935 0.2756,-0.086 0.5223,-0.1896 0.7753,-0.2869 l 0,16.1122 38.7208,0 0,-18.0954 c 0.9708,2.4152 1.961,4.8722 2.7518,6.7944 0.4762,1.1576 0.8918,2.155 1.2235,2.9267 0.3318,0.7715 0.2009,0.7812 0.9479,1.9764 0.8438,1.3501 1.935,1.7962 2.5838,2.0101 0.6489,0.2139 1.0639,0.2442 1.414,0.2644 0.7004,0.04 1.1551,-0.015 1.6404,-0.076 0.9705,-0.1234 1.9659,-0.3355 3.1148,-0.6074 2.2979,-0.5434 5.1172,-1.339 7.9127,-2.1691 5.591,-1.6602 11.05,-3.4554 11.05,-3.4554 5.9446,-1.8437 3.0128,-10.7626 -2.8662,-8.7194 0,0 -5.3738,1.7644 -10.7966,3.3747 -2.673,0.7937 -5.3462,1.5406 -7.3077,2.0079 -0.1521,-0.3656 -0.257,-0.6085 -0.428,-1.0241 -0.9325,-2.2662 -2.1196,-5.2051 -3.283,-8.1076 -2.3266,-5.80523 -4.5647,-11.47125 -4.5647,-11.47125 -1.154,-1.77485 -2.5893,-2.66699 -4.3092,-2.96257 -12.7892,-1.56897 -25.821,-4.50243 -38.4878,-5.90254 z"
         id="path28402-3-7" />
      <path
         style="opacity:1;fill:#000000;fill-opacity:1;fill-rule:nonzero;stroke:none;stroke-width:1.60000002;stroke-linecap:round;stroke-linejoin:round;stroke-miterlimit:4;stroke-dasharray:none;stroke-dashoffset:0;stroke-opacity:1"
         d="m 2114.2207,137.47852 c -2.3,0.0468 -4.2482,1.70744 -4.6602,3.9707 -1.553,7.8873 -2.4722,12.73109 -2.8554,15.99609 -0.1916,1.6325 -0.333,2.79429 -0.055,4.39649 0.139,0.801 0.3876,1.85556 1.3535,2.97656 0.9503,1.1028 2.6937,1.80938 3.9141,1.86328 1.3059,0.057 1.7311,-0.16129 2.207,-0.30859 0.2905,-0.091 0.5497,-0.20014 0.8164,-0.30274 l 0,13.33399 40.8164,0 0,-15.42383 c 1.0233,2.5459 2.0669,5.13395 2.9004,7.16015 0.502,1.22021 0.9395,2.27264 1.2891,3.08594 0.3498,0.8133 0.2126,0.82409 1,2.08399 0.8894,1.4231 2.0386,1.89168 2.7226,2.11718 0.6839,0.2255 1.1212,0.258 1.4903,0.2793 0.7383,0.042 1.217,-0.0161 1.7285,-0.0801 1.0231,-0.13 2.074,-0.35402 3.2851,-0.64062 2.4222,-0.5729 5.3931,-1.41006 8.3399,-2.28516 5.8934,-1.75 11.6484,-3.64258 11.6484,-3.64258 6.2662,-1.9433 3.1755,-11.345 -3.0215,-9.1914 0,0 -5.6647,1.85924 -11.3808,3.55664 -2.8176,0.8366 -5.6356,1.62449 -7.7032,2.11719 -0.1603,-0.3854 -0.2709,-0.64198 -0.4511,-1.08008 -0.9829,-2.3888 -2.2347,-5.48542 -3.461,-8.54492 -2.4525,-6.1192 -4.8105,-12.0918 -4.8105,-12.0918 -1.2164,-1.8709 -2.73,-2.81145 -4.543,-3.12305 -13.4809,-1.6538 -27.2184,-4.74681 -40.5703,-6.22265 z"
         transform="translate(-1.2207031e-4,0)"
         id="path28412-2-1" />
      <ellipse
         ry="14.511623"
         rx="14.391075"
         cy="75.561264"
         cx="2106.1404"
         id="ellipse28418-3-2"
         style="opacity:1;fill:#666666;fill-opacity:1;fill-rule:nonzero;stroke:none;stroke-width:2;stroke-linecap:round;stroke-linejoin:round;stroke-miterlimit:4;stroke-dasharray:none;stroke-dashoffset:0;stroke-opacity:1" />
      <path
         style="opacity:1;fill:#666666;fill-opacity:1;fill-rule:nonzero;stroke:none;stroke-width:1.60000002;stroke-linecap:round;stroke-linejoin:round;stroke-miterlimit:4;stroke-dasharray:none;stroke-dashoffset:0;stroke-opacity:1"
         d="m 2089.8448,89.99035 c -1.7739,0.0361 -3.2761,1.3169 -3.5938,3.0625 -1.1978,6.08339 -1.9075,9.81964 -2.2031,12.33789 -0.1478,1.25913 -0.2554,2.15483 -0.041,3.39062 0.1072,0.61779 0.2979,1.43029 1.043,2.29492 0.7329,0.85054 2.0782,1.39591 3.0195,1.4375 1.0072,0.044 1.3341,-0.12466 1.7012,-0.23828 0.224,-0.0699 0.4251,-0.15525 0.6308,-0.23437 l 0,13.09961 27.4082,0 a 18.658499,18.814795 0 0 1 -1.1191,-6.36914 18.658499,18.814795 0 0 1 9.9238,-16.61133 c -0.7671,-1.93179 -1.9746,-4.96289 -1.9746,-4.96289 -0.9382,-1.44296 -2.1055,-2.1679 -3.5039,-2.40821 -10.3976,-1.27558 -20.9928,-3.66052 -31.291,-4.79882 z"
         id="path28420-3-3" />
      <path
         style="opacity:1;fill:#666666;fill-opacity:1;fill-rule:nonzero;stroke:none;stroke-width:2;stroke-linecap:round;stroke-linejoin:round;stroke-miterlimit:4;stroke-dasharray:none;stroke-dashoffset:0;stroke-opacity:1"
         d="m 2190.4688,77.826172 c -1.8793,2.546952 -3.004,5.692763 -3.004,9.111328 0,3.299705 1.076,6.478683 3.004,9.095703 l 0,-18.207031 z"
         transform="translate(-1.2207031e-4,0)"
         id="path28426-5-5" />
      <path
         style="opacity:1;fill:#cccccc;fill-opacity:1;fill-rule:nonzero;stroke:none;stroke-width:1.60000002;stroke-linecap:round;stroke-linejoin:round;stroke-miterlimit:4;stroke-dasharray:none;stroke-dashoffset:0;stroke-opacity:1"
         d="m 2168.7305,63.931641 c -1.3356,0.0272 -2.4659,0.99228 -2.7051,2.30664 -0.9019,4.58052 -1.4376,7.394886 -1.6602,9.291016 -0.1113,0.94806 -0.1928,1.622234 -0.031,2.552734 0.081,0.46516 0.2261,1.077486 0.7871,1.728516 0.5518,0.64041 1.5627,1.050721 2.2715,1.082031 0.7584,0.0331 1.0049,-0.0941 1.2812,-0.179687 0.1688,-0.0526 0.3197,-0.116212 0.4746,-0.175782 l 0,9.863282 18.7286,0 a 15.16943,15.296498 0 0 1 -0.4122,-3.462891 15.16943,15.296498 0 0 1 3.004,-9.09375 l 0,-10.544922 c -7.2422,-0.995606 -14.5843,-2.57643 -21.7383,-3.367187 z"
         transform="translate(-1.2207031e-4,0)"
         id="path28434-6-0" />
      <path
         id="path137952-8"
         d="m 2161.9928,113.25936 c 0,0 12.7776,1.39155 12.7776,1.39155 0,0 0,3.81441 0,3.81441 0,0 -12.7776,-1.41072 -12.7776,-1.41072 0,0 0,-3.79524 0,-3.79524"
         style="opacity:1;fill:#cccccc;fill-opacity:1;fill-rule:nonzero;stroke:none;stroke-width:3;stroke-linecap:round;stroke-linejoin:round;stroke-miterlimit:4;stroke-dasharray:none;stroke-dashoffset:0;stroke-opacity:1" />
      <path
         id="path137954-9"
         d="m 2175.8381,114.76718 c 0,0 13.8684,1.51036 13.8684,1.51036 0,0 0,3.83681 0,3.83681 0,0 -13.8684,-1.53115 -13.8684,-1.53115 0,0 0,-3.81602 0,-3.81602"
         style="opacity:1;fill:#cccccc;fill-opacity:1;fill-rule:nonzero;stroke:none;stroke-width:3;stroke-linecap:round;stroke-linejoin:round;stroke-miterlimit:4;stroke-dasharray:none;stroke-dashoffset:0;stroke-opacity:1" />
      <path
         style="opacity:1;fill:#cccccc;fill-opacity:1;fill-rule:nonzero;stroke:none;stroke-width:1.60000002;stroke-linecap:round;stroke-linejoin:round;stroke-miterlimit:4;stroke-dasharray:none;stroke-dashoffset:0;stroke-opacity:1"
         d="m 2161.9707,119.68945 0,11.01953 28.4981,3.29883 0,-0.79492 -27.9805,-3.23242 0,-9.44727 27.9805,3.12696 0,-0.79493 -28.4981,-3.17578 z"
         transform="translate(-1.2207031e-4,0)"
         id="path137956-6" />
      <path
         d="m 2169.0343,126.10135 c 0,0.5946 -0.06,1.10324 -0.1811,1.52589 -0.1178,0.41979 -0.2797,0.76016 -0.4857,1.02112 -0.2061,0.26092 -0.4503,0.44469 -0.7328,0.55132 -0.2794,0.10695 -0.5794,0.14198 -0.8998,0.10511 -0.3234,-0.0372 -0.6246,-0.14134 -0.9037,-0.31242 -0.2761,-0.17071 -0.5169,-0.40997 -0.7224,-0.71777 -0.2055,-0.30776 -0.367,-0.68462 -0.4844,-1.1306 -0.1174,-0.44909 -0.1761,-0.97039 -0.1761,-1.56391 0,-0.59352 0.059,-1.10147 0.1761,-1.52388 0.1174,-0.42244 0.2789,-0.76419 0.4844,-1.02522 0.2055,-0.26424 0.4463,-0.45034 0.7224,-0.55829 0.2791,-0.10763 0.5803,-0.14331 0.9037,-0.107 0.3204,0.036 0.6204,0.1392 0.8998,0.30968 0.2825,0.17084 0.5267,0.41171 0.7328,0.72263 0.206,0.3078 0.3679,0.68656 0.4857,1.13629 0.1207,0.4501 0.1811,0.97246 0.1811,1.56705 0,0 0,0 0,0 m -0.817,-0.0929 c 0,-0.51852 -0.041,-0.95792 -0.1236,-1.31819 -0.079,-0.36308 -0.1883,-0.65991 -0.3266,-0.89048 -0.1353,-0.23021 -0.2927,-0.40125 -0.4721,-0.51312 -0.1794,-0.11502 -0.3661,-0.18344 -0.5601,-0.20528 -0.194,-0.0218 -0.3807,0.005 -0.5599,0.0791 -0.1793,0.0714 -0.3364,0.20691 -0.4716,0.40646 -0.1351,0.19953 -0.2437,0.47151 -0.326,0.81594 -0.079,0.34157 -0.1189,0.77131 -0.1189,1.28923 0,0.51792 0.04,0.95667 0.1189,1.31627 0.082,0.35996 0.1909,0.65506 0.326,0.8853 0.1352,0.23027 0.2923,0.40307 0.4716,0.5184 0.1792,0.11218 0.3659,0.17941 0.5599,0.20167 0.194,0.0223 0.3807,-0.002 0.5601,-0.0732 0.1794,-0.0742 0.3368,-0.21109 0.4721,-0.41054 0.1383,-0.19914 0.2472,-0.46963 0.3266,-0.81148 0.082,-0.34154 0.1236,-0.77158 0.1236,-1.2901 0,0 0,0 0,0"
         style="font-style:normal;font-variant:normal;font-weight:normal;font-stretch:normal;font-size:medium;line-height:136.00000143%;font-family:Lato;-inkscape-font-specification:Lato;letter-spacing:0.77406031px;word-spacing:-0.51087981px;fill:#1f7a7a;fill-opacity:1;stroke:none;stroke-width:1px;stroke-linecap:butt;stroke-linejoin:miter;stroke-opacity:1"
         id="path305022-3" />
      <path
         d="m 2170.1584,129.10533 c 0,-0.0823 0.013,-0.15827 0.04,-0.22799 0.029,-0.0694 0.068,-0.12829 0.115,-0.17667 0.05,-0.0481 0.1091,-0.084 0.1769,-0.10789 0.068,-0.0239 0.14,-0.0315 0.2167,-0.0227 0.077,0.009 0.1489,0.0329 0.2167,0.0723 0.068,0.0394 0.1268,0.0889 0.177,0.14847 0.05,0.0596 0.09,0.12744 0.1195,0.20363 0.029,0.0762 0.044,0.15543 0.044,0.23774 0,0.0855 -0.015,0.16291 -0.044,0.23233 -0.03,0.0662 -0.069,0.1234 -0.1195,0.17145 -0.05,0.048 -0.1091,0.0824 -0.177,0.10309 -0.068,0.0239 -0.1401,0.0314 -0.2167,0.0226 -0.077,-0.009 -0.1489,-0.033 -0.2167,-0.0724 -0.068,-0.0363 -0.1268,-0.0842 -0.1769,-0.14376 -0.047,-0.0592 -0.086,-0.12532 -0.115,-0.19832 -0.027,-0.0758 -0.04,-0.15646 -0.04,-0.24189 0,0 0,0 0,0"
         style="font-style:normal;font-variant:normal;font-weight:normal;font-stretch:normal;font-size:medium;line-height:136.00000143%;font-family:Lato;-inkscape-font-specification:Lato;letter-spacing:0.77406031px;word-spacing:-0.51087981px;fill:#1f7a7a;fill-opacity:1;stroke:none;stroke-width:1px;stroke-linecap:butt;stroke-linejoin:miter;stroke-opacity:1"
         id="path305024-9" />
      <path
         d="m 2174.7777,123.26886 c 0.2692,0.0302 0.5178,0.0994 0.7457,0.2074 0.228,0.10806 0.4234,0.24737 0.5863,0.41791 0.1658,0.1709 0.2946,0.36937 0.3865,0.59541 0.092,0.22606 0.1377,0.47074 0.1377,0.73403 0,0.21571 -0.027,0.4062 -0.08,0.57146 -0.05,0.16242 -0.1244,0.30311 -0.2221,0.42208 -0.095,0.11612 -0.2103,0.21085 -0.3465,0.28419 -0.1362,0.0733 -0.2887,0.12737 -0.4575,0.16211 0.4145,0.16443 0.7255,0.39641 0.9328,0.69595 0.2104,0.29994 0.3156,0.65771 0.3156,1.0733 0,0.31406 -0.056,0.58996 -0.1689,0.82767 -0.1096,0.23804 -0.2607,0.43482 -0.4532,0.59033 -0.1925,0.15233 -0.4175,0.26125 -0.6751,0.32677 -0.2545,0.0627 -0.5282,0.0772 -0.8211,0.0435 -0.3372,-0.0388 -0.6255,-0.11631 -0.865,-0.23258 -0.2394,-0.11941 -0.4418,-0.26782 -0.6073,-0.44523 -0.1654,-0.17738 -0.3013,-0.37986 -0.4077,-0.60744 -0.1063,-0.23073 -0.1964,-0.477 -0.2702,-0.73882 0,0 0.3411,-0.11303 0.3411,-0.11303 0.089,-0.031 0.1743,-0.0323 0.257,-0.004 0.086,0.0288 0.1478,0.0882 0.1862,0.17809 0.038,0.0931 0.086,0.20464 0.1418,0.33463 0.059,0.13032 0.1389,0.25827 0.2394,0.38385 0.1005,0.12559 0.2276,0.23681 0.3814,0.33366 0.1567,0.0972 0.3548,0.15956 0.5944,0.18705 0.2219,0.0255 0.4157,0.01 0.5814,-0.0474 0.1687,-0.0599 0.3078,-0.14543 0.4174,-0.25654 0.1124,-0.11079 0.1968,-0.23907 0.2531,-0.38485 0.056,-0.14579 0.084,-0.29322 0.084,-0.44227 0,-0.18394 -0.022,-0.35456 -0.067,-0.51185 -0.044,-0.15729 -0.1273,-0.29834 -0.2486,-0.42316 -0.1214,-0.1248 -0.2887,-0.23103 -0.5018,-0.3187 -0.2101,-0.0873 -0.4807,-0.14979 -0.812,-0.18747 0,0 0,-0.61328 0,-0.61328 0.2721,0.0278 0.5028,0.0223 0.6922,-0.0165 0.1923,-0.0384 0.3477,-0.10322 0.4661,-0.19443 0.1214,-0.0909 0.2087,-0.20624 0.262,-0.34607 0.056,-0.13951 0.084,-0.29806 0.084,-0.47565 0,-0.19662 -0.03,-0.37121 -0.089,-0.52377 -0.056,-0.15222 -0.1347,-0.28156 -0.2354,-0.38803 -0.1006,-0.10646 -0.2205,-0.1913 -0.3596,-0.25452 -0.1361,-0.0629 -0.284,-0.10332 -0.4438,-0.1213 -0.1597,-0.018 -0.3091,-0.009 -0.4481,0.0256 -0.136,0.0354 -0.2572,0.093 -0.3637,0.17294 -0.1035,0.0771 -0.1907,0.17338 -0.2616,0.28895 -0.071,0.11557 -0.1212,0.24614 -0.1507,0.39171 -0.038,0.10655 -0.087,0.17549 -0.1463,0.20683 -0.056,0.0285 -0.1389,0.0286 -0.2482,4.3e-4 0,0 -0.4121,-0.12261 -0.4121,-0.12261 0.041,-0.30573 0.1211,-0.57071 0.2393,-0.79495 0.1181,-0.22742 0.2673,-0.41178 0.4476,-0.55308 0.1832,-0.14098 0.3916,-0.23954 0.6251,-0.29569 0.2366,-0.059 0.4909,-0.0732 0.7631,-0.0427 0,0 0,-10e-6 0,-10e-6"
         style="font-style:normal;font-variant:normal;font-weight:normal;font-stretch:normal;font-size:medium;line-height:136.00000143%;font-family:Lato;-inkscape-font-specification:Lato;letter-spacing:0.77406031px;word-spacing:-0.51087981px;fill:#1f7a7a;fill-opacity:1;stroke:none;stroke-width:1px;stroke-linecap:butt;stroke-linejoin:miter;stroke-opacity:1"
         id="path305026-6" />
      <path
         style="fill:#1f7a7a;fill-opacity:1"
         d="m 2187.8301,101.65039 0,11.74805 2.6387,0.28515 0,-1.80859 -0.2208,-0.0234 0,-2.60742 0.2208,0.0234 0,-7.3457 -2.6387,-0.27149 z m 1.4297,7.48828 0.5039,0.0527 0,2.60937 -0.5039,-0.0547 0,-2.60742 z"
         transform="translate(-1.2207031e-4,0)"
         id="path137964-9" />
      <path
         style="opacity:1;fill:#cccccc;fill-opacity:1;fill-rule:nonzero;stroke:none;stroke-width:3;stroke-linecap:round;stroke-linejoin:round;stroke-miterlimit:4;stroke-dasharray:none;stroke-dashoffset:0;stroke-opacity:1"
         d="m 2041.9388,99.54854 c 0,0 12.1219,1.32014 12.1219,1.32014 0,0 0,3.61869 0,3.61869 0,0 -12.1219,-1.33832 -12.1219,-1.33832 0,0 0,-3.60051 0,-3.60051"
         id="path137970-7" />
      <path
         style="opacity:1;fill:#cccccc;fill-opacity:1;fill-rule:nonzero;stroke:none;stroke-width:3;stroke-linecap:round;stroke-linejoin:round;stroke-miterlimit:4;stroke-dasharray:none;stroke-dashoffset:0;stroke-opacity:1"
         d="m 2055.0736,100.979 c 0,0 13.1568,1.43285 13.1568,1.43285 0,0 0,3.63994 0,3.63994 0,0 -13.1568,-1.45259 -13.1568,-1.45259 0,0 0,-3.6202 0,-3.6202"
         id="path137972-5" />
      <path
         style="opacity:1;fill:#cccccc;fill-opacity:1;fill-rule:nonzero;stroke:none;stroke-width:1.60000002;stroke-linecap:round;stroke-linejoin:round;stroke-miterlimit:4;stroke-dasharray:none;stroke-dashoffset:0;stroke-opacity:1"
         d="m 2041.9186,105.64802 c 0,0 0,10.45435 0,10.45435 0,0 37.3816,4.32887 37.3816,4.32887 0,0 0,-10.61713 0,-10.61713 0,0 -37.3816,-4.16609 -37.3816,-4.16609 0,0 0,0 0,0 m 0.4909,0.8016 c 0,0 36.3846,4.06629 36.3846,4.06629 0,0 0,9.09851 0,9.09851 0,0 -36.3846,-4.2021 -36.3846,-4.2021 0,0 0,-8.9627 0,-8.9627 0,0 0,0 0,0"
         id="path137974-6" />
      <path
         style="fill:#1f7a7a;fill-opacity:1"
         d="m 2066.4493,88.53481 c 0,0 0,11.14518 0,11.14518 0,0 10.5,1.13252 10.5,1.13252 0,0 0,-11.19342 0,-11.19342 0,0 -10.5,-1.08428 -10.5,-1.08428 m 8.2158,7.79149 c 0.3364,0.0357 0.5964,0.16147 0.7535,0.36199 0.1155,0.14848 0.1638,0.30315 0.1638,0.53129 0,0 -0.4484,-0.0477 -0.4484,-0.0477 -0.016,-0.25364 -0.1865,-0.40674 -0.491,-0.4391 -0.2468,-0.0262 -0.4039,0.0752 -0.4039,0.26246 0,0.1804 0.099,0.26323 0.4422,0.37127 0,0 0.3656,0.11259 0.3656,0.11259 0.4329,0.13461 0.6195,0.35899 0.6195,0.75073 0,0.50404 -0.3559,0.76561 -0.9586,0.70102 -0.5959,-0.0639 -0.9394,-0.38865 -0.9682,-0.92255 0,0 0.467,0.0499 0.467,0.0499 0.016,0.26718 0.1994,0.43313 0.5262,0.4681 0.2918,0.0312 0.4719,-0.0754 0.4719,-0.28318 0,-0.20091 -0.1189,-0.30986 -0.4394,-0.4088 0,0 -0.3272,-0.10227 -0.3272,-0.10227 -0.4741,-0.14583 -0.6573,-0.35246 -0.6573,-0.73708 0,-0.48321 0.3237,-0.72815 0.8843,-0.66865 0,0 0,0 0,0 m 1.295,0.1516 c 0.051,0.006 0.099,0.0206 0.1432,0.045 0.045,0.0245 0.086,0.0578 0.1224,0.10076 0.037,0.043 0.064,0.0884 0.083,0.13735 0.018,0.0489 0.028,0.10128 0.028,0.15659 0,0.0545 -0.01,0.10395 -0.028,0.14898 -0.018,0.0447 -0.046,0.0846 -0.083,0.11975 -0.037,0.0352 -0.078,0.0613 -0.1224,0.0763 -0.044,0.015 -0.092,0.02 -0.1432,0.0145 -0.051,-0.005 -0.099,-0.0204 -0.1431,-0.045 -0.044,-0.0244 -0.086,-0.0594 -0.1226,-0.10233 -0.037,-0.043 -0.064,-0.0888 -0.082,-0.13731 -0.018,-0.0489 -0.027,-0.10031 -0.027,-0.15477 0,-0.0553 0.01,-0.10573 0.027,-0.15072 0.018,-0.0451 0.046,-0.0846 0.082,-0.11975 0.037,-0.0352 0.078,-0.0597 0.1226,-0.0747 0.045,-0.015 0.092,-0.02 0.1431,-0.0146 0,0 0,0 0,0 m -8.1542,-0.83882 c 0,0 0.478,0.0507 0.478,0.0507 0,0 0,2.47443 0,2.47443 0,0 -0.478,-0.0512 -0.478,-0.0512 0,0 0,-2.47394 0,-2.47394 m 0.9385,0.0996 c 0,0 0.4784,0.0508 0.4784,0.0508 0,0 0,2.05189 0,2.05189 0,0 1.1144,0.11921 1.1144,0.11921 0,0 0,0.42369 0,0.42369 0,0 -1.5928,-0.17067 -1.5928,-0.17067 0,0 0,-2.4749 0,-2.4749 m 1.8969,0.20132 c 0,0 0.479,0.0508 0.479,0.0508 0,0 0,2.47733 0,2.47733 0,0 -0.479,-0.0513 -0.479,-0.0513 0,0 0,-2.47684 0,-2.47684 m 1.5953,0.16932 c 0,0 0.5312,0.0564 0.5312,0.0564 0,0 0.8069,2.56546 0.8069,2.56546 0,0 -0.4934,-0.0529 -0.4934,-0.0529 0,0 -0.1531,-0.51572 -0.1531,-0.51572 0,0 -0.8741,-0.0935 -0.8741,-0.0935 0,0 -0.1559,0.48243 -0.1559,0.48243 0,0 -0.4897,-0.0525 -0.4897,-0.0525 0,0 0.8281,-2.38974 0.8281,-2.38974 m 3.7235,0.45161 c -0.041,-0.004 -0.079,-5.1e-4 -0.1136,0.0115 -0.035,0.0117 -0.068,0.0305 -0.097,0.0586 -0.029,0.0281 -0.052,0.0606 -0.066,0.0964 -0.014,0.0354 -0.021,0.0747 -0.021,0.11845 0,0.0434 0.01,0.084 0.021,0.12287 0.015,0.0385 0.037,0.0762 0.066,0.11046 0.029,0.0339 0.062,0.0601 0.097,0.0793 0.035,0.0192 0.073,0.0313 0.1136,0.0356 0.041,0.004 0.08,1e-4 0.1151,-0.0113 0.035,-0.0117 0.066,-0.0306 0.096,-0.0587 0.029,-0.0281 0.052,-0.061 0.066,-0.0964 0.015,-0.0358 0.022,-0.0749 0.022,-0.11833 0,-0.0438 -0.01,-0.0845 -0.022,-0.12304 -0.014,-0.0389 -0.037,-0.0762 -0.066,-0.11049 -0.03,-0.0347 -0.062,-0.0617 -0.097,-0.0809 -0.035,-0.019 -0.073,-0.0297 -0.1137,-0.034 0,0 0,-3e-5 0,-3e-5 m -0.155,0.0667 c 0,0 0.1446,0.0154 0.1446,0.0154 0.06,0.006 0.105,0.0224 0.1344,0.0471 0.029,0.0242 0.042,0.0583 0.042,0.10167 0,0.0308 -0.01,0.0558 -0.026,0.074 -0.018,0.0181 -0.042,0.0286 -0.075,0.0311 0.014,0.009 0.028,0.0215 0.04,0.0371 0.012,0.0157 0.023,0.0349 0.033,0.0567 0,0 0.056,0.12353 0.056,0.12353 0,0 -0.1166,-0.0124 -0.1166,-0.0124 0,0 -0.053,-0.12008 -0.053,-0.12008 -0.013,-0.0292 -0.024,-0.0491 -0.034,-0.0616 -0.01,-0.0129 -0.02,-0.0209 -0.029,-0.0219 0,0 -0.01,-6.4e-4 -0.01,-6.4e-4 0,0 0,0.1912 0,0.1912 0,0 -0.1092,-0.0116 -0.1092,-0.0116 0,0 0,-0.44968 0,-0.44968 0,0 -2e-4,3e-5 -2e-4,3e-5 m 0.1093,0.0868 c 0,0 0,0.11129 0,0.11129 0,0 0.018,0.002 0.018,0.002 0.026,0.003 0.046,0 0.059,-0.008 0.013,-0.008 0.021,-0.0215 0.021,-0.0401 0,-0.0187 -0.01,-0.0342 -0.021,-0.0446 -0.013,-0.0103 -0.032,-0.0159 -0.059,-0.0188 0,0 -0.018,-0.002 -0.018,-0.002 m -3.4218,0.007 c 0,0 -0.3031,0.93627 -0.3031,0.93627 0,0 0.6077,0.0649 0.6077,0.0649 0,0 -0.3046,-1.00116 -0.3046,-1.00116"
         id="path137982-0" />
      <path
         style="opacity:1;fill:#cccccc;fill-opacity:1;fill-rule:nonzero;stroke:none;stroke-width:3;stroke-linecap:round;stroke-linejoin:round;stroke-miterlimit:4;stroke-dasharray:none;stroke-dashoffset:0;stroke-opacity:1"
         d="m 2126.691,71.30967 c 0,0 9.8552,1.07328 9.8552,1.07328 0,0 0,2.94201 0,2.94201 0,0 -9.8552,-1.08806 -9.8552,-1.08806 0,0 0,-2.92723 0,-2.92723"
         id="path138006-0" />
      <path
         style="opacity:1;fill:#cccccc;fill-opacity:1;fill-rule:nonzero;stroke:none;stroke-width:3;stroke-linecap:round;stroke-linejoin:round;stroke-miterlimit:4;stroke-dasharray:none;stroke-dashoffset:0;stroke-opacity:1"
         d="m 2137.3697,72.47264 c 0,0 10.6965,1.16491 10.6965,1.16491 0,0 0,2.95929 0,2.95929 0,0 -10.6965,-1.18096 -10.6965,-1.18096 0,0 0,-2.94324 0,-2.94324"
         id="path138008-4" />
      <path
         style="opacity:1;fill:#cccccc;fill-opacity:1;fill-rule:nonzero;stroke:none;stroke-width:1.60000002;stroke-linecap:round;stroke-linejoin:round;stroke-miterlimit:4;stroke-dasharray:none;stroke-dashoffset:0;stroke-opacity:1"
         d="m 2126.6746,76.26857 c 0,0 0,8.49943 0,8.49943 0,0 30.3914,3.51939 30.3914,3.51939 0,0 0,-8.63177 0,-8.63177 0,0 -30.3914,-3.38705 -30.3914,-3.38705 0,0 0,0 0,0 m 0.3991,0.65171 c 0,0 29.5808,3.30591 29.5808,3.30591 0,0 0,7.39712 0,7.39712 0,0 -29.5808,-3.41632 -29.5808,-3.41632 0,0 0,-7.28671 0,-7.28671 0,0 0,0 0,0"
         id="path138010-3" />
      <path
         d="m 2130.3893,78.33787 c 0.2064,0.0232 0.399,0.0777 0.5784,0.16368 0.1792,0.086 0.3346,0.19975 0.4663,0.34135 0.1317,0.13919 0.235,0.30325 0.3098,0.49216 0.075,0.18894 0.1124,0.39804 0.1124,0.62732 0,0.19512 -0.027,0.37374 -0.082,0.53586 -0.054,0.15967 -0.1282,0.30982 -0.2213,0.45046 -0.093,0.14062 -0.2009,0.27589 -0.3236,0.40581 -0.1201,0.13017 -0.2483,0.26063 -0.3844,0.39139 0,0 -1.2854,1.26401 -1.2854,1.26401 0.091,-0.0164 0.1823,-0.0266 0.2753,-0.0306 0.093,-0.006 0.1823,-0.005 0.2685,0.005 0,0 1.6335,0.18734 1.6335,0.18734 0.066,0.008 0.1181,0.0343 0.1567,0.0802 0.039,0.0459 0.058,0.10177 0.058,0.16763 0,0 0,0.39515 0,0.39515 0,0 -3.2514,-0.37391 -3.2514,-0.37391 0,0 0,-0.22282 0,-0.22282 0,-0.0463 0.01,-0.0927 0.027,-0.13935 0.018,-0.0466 0.046,-0.0884 0.085,-0.12541 0,0 1.5598,-1.50634 1.5598,-1.50634 0.1293,-0.12665 0.2472,-0.24851 0.3538,-0.36558 0.1065,-0.11951 0.1974,-0.24085 0.2722,-0.364 0.075,-0.12316 0.1328,-0.24948 0.1736,-0.37895 0.041,-0.13192 0.061,-0.27468 0.061,-0.4283 0,-0.15361 -0.023,-0.29027 -0.068,-0.40999 -0.045,-0.12215 -0.1078,-0.22549 -0.1872,-0.31002 -0.077,-0.0843 -0.169,-0.15069 -0.2756,-0.19926 -0.1066,-0.051 -0.2211,-0.0834 -0.3436,-0.0972 -0.1247,-0.014 -0.2391,-0.007 -0.3434,0.0198 -0.1043,0.0272 -0.1972,0.0716 -0.2787,0.13308 -0.079,0.0593 -0.1462,0.13335 -0.2006,0.22223 -0.054,0.0889 -0.093,0.18928 -0.1155,0.30121 -0.027,0.0822 -0.065,0.13521 -0.1121,0.15907 -0.045,0.0217 -0.1099,0.0217 -0.1937,10e-6 0,0 -0.3158,-0.0942 -0.3158,-0.0942 0.032,-0.23507 0.093,-0.43883 0.1834,-0.61127 0.093,-0.17464 0.2083,-0.3163 0.3465,-0.42498 0.1404,-0.10845 0.3001,-0.18429 0.4791,-0.22752 0.1791,-0.0457 0.3729,-0.0568 0.5815,-0.0334 0,0 10e-5,2e-5 10e-5,2e-5"
         style="font-style:normal;font-variant:normal;font-weight:normal;font-stretch:normal;font-size:medium;line-height:136.00000143%;font-family:Lato;-inkscape-font-specification:Lato;letter-spacing:0.77406031px;word-spacing:-0.51087981px;fill:#1f7a7a;fill-opacity:1;stroke:none;stroke-width:1px;stroke-linecap:butt;stroke-linejoin:miter;stroke-opacity:1"
         id="path305042-6" />
      <path
         d="m 2136.3675,81.69711 c 0,0.4596 -0.047,0.85274 -0.1403,1.17941 -0.091,0.32446 -0.2166,0.58752 -0.3762,0.7892 -0.1596,0.20164 -0.3488,0.34364 -0.5676,0.426 -0.2165,0.0826 -0.4489,0.10963 -0.6971,0.0811 -0.2505,-0.0288 -0.4838,-0.10937 -0.7,-0.24166 -0.214,-0.13201 -0.4004,-0.31699 -0.5596,-0.55495 -0.1592,-0.23792 -0.2844,-0.52925 -0.3752,-0.87399 -0.091,-0.34716 -0.1364,-0.75011 -0.1364,-1.20888 0,-0.45876 0.045,-0.85137 0.1364,-1.17786 0.091,-0.32651 0.216,-0.59063 0.3752,-0.79237 0.1592,-0.2042 0.3456,-0.348 0.5596,-0.43139 0.2161,-0.0831 0.4495,-0.11066 0.7,-0.0825 0.2482,0.0279 0.4806,0.10772 0.6971,0.23954 0.2188,0.13211 0.408,0.31834 0.5676,0.5587 0.1596,0.23796 0.2849,0.53076 0.3762,0.8784 0.094,0.34793 0.1403,0.75171 0.1403,1.21131 0,0 0,0 0,0 m -0.6328,-0.0719 c 0,-0.4008 -0.032,-0.74044 -0.096,-1.01893 -0.061,-0.28066 -0.1458,-0.51012 -0.2529,-0.68837 -0.1048,-0.17797 -0.2267,-0.3102 -0.3658,-0.39671 -0.1389,-0.0889 -0.2835,-0.14186 -0.4339,-0.15878 -0.1502,-0.0169 -0.2948,0.003 -0.4336,0.0611 -0.1389,0.0552 -0.2606,0.15987 -0.3653,0.31409 -0.1046,0.15421 -0.1888,0.36441 -0.2526,0.63063 -0.061,0.264 -0.092,0.59616 -0.092,0.99649 0,0.40033 0.031,0.73948 0.092,1.01745 0.064,0.27825 0.148,0.50637 0.2526,0.68436 0.1046,0.17802 0.2264,0.31162 0.3653,0.40079 0.1388,0.0867 0.2834,0.13875 0.4336,0.156 0.1504,0.0172 0.295,-0.002 0.4339,-0.0565 0.1391,-0.0573 0.261,-0.16309 0.3658,-0.31724 0.107,-0.15389 0.1915,-0.36295 0.2529,-0.62717 0.064,-0.26398 0.096,-0.59638 0.096,-0.99718 0,0 0,0 0,0"
         style="font-style:normal;font-variant:normal;font-weight:normal;font-stretch:normal;font-size:medium;line-height:136.00000143%;font-family:Lato;-inkscape-font-specification:Lato;letter-spacing:0.77406031px;word-spacing:-0.51087981px;fill:#1f7a7a;fill-opacity:1;stroke:none;stroke-width:1px;stroke-linecap:butt;stroke-linejoin:miter;stroke-opacity:1"
         id="path305044-3" />
      <path
         d="m 2137.7145,83.97854 c 0,0 1.0525,0.12078 1.0525,0.12078 0,0 0,-3.58706 0,-3.58706 0,-0.1028 0,-0.21134 0.01,-0.3256 0,0 -0.8743,0.70511 -0.8743,0.70511 -0.03,0.0236 -0.059,0.0373 -0.089,0.0413 -0.03,0.002 -0.057,-0.002 -0.082,-0.009 -0.025,-0.008 -0.049,-0.0202 -0.072,-0.0375 -0.021,-0.017 -0.037,-0.0347 -0.048,-0.0531 0,0 -0.1918,-0.30422 -0.1918,-0.30422 0,0 1.4638,-1.18944 1.4638,-1.18944 0,0 0.4977,0.0559 0.4977,0.0559 0,0 0,4.77444 0,4.77444 0,0 0.9684,0.11113 0.9684,0.11113 0,0 0,0.49973 0,0.49973 0,0 -2.6352,-0.30306 -2.6352,-0.30306 0,0 0,-0.49906 0,-0.49906 0,0 0,-1e-5 0,-1e-5"
         style="font-style:normal;font-variant:normal;font-weight:normal;font-stretch:normal;font-size:medium;line-height:136.00000143%;font-family:Lato;-inkscape-font-specification:Lato;letter-spacing:0.77406031px;word-spacing:-0.51087981px;fill:#1f7a7a;fill-opacity:1;stroke:none;stroke-width:1px;stroke-linecap:butt;stroke-linejoin:miter;stroke-opacity:1"
         id="path305046-7" />
      <path
         style="fill:#666666;fill-opacity:1;fill-rule:evenodd;stroke:none;stroke-width:0.80514383px;stroke-linecap:butt;stroke-linejoin:miter;stroke-opacity:1"
         d="m 2115.5107,55.88951 c -0.4788,-0.0482 -0.8668,0.33302 -0.8672,0.85156 l 0,29.91406 c 0,0.51889 0.3881,0.98596 0.8672,1.04297 l 17.5801,2.07422 0,2.97852 -11.2012,-1.33789 0,2.21093 24.7891,2.99024 0.7343,0.0879 0.096,0.0117 0,-2.23828 -6.0996,-0.73047 0,-2.99219 18.0567,2.13086 c 0.5016,0.0591 0.9082,-0.32407 0.9082,-0.85547 l 0,-30.61914 c -3e-4,-0.53115 -0.4067,-1.00368 -0.9082,-1.05469 L 2115.511,55.8895 Z m 0.8691,1.96875 42.1778,4.32617 0,28.66797 -42.1778,-4.93555 0,-28.05859 z"
         id="path138016-4" />
      <path
         style="fill:#1f7a7a;fill-opacity:1"
         d="m 2146.6181,62.35547 c 0,0 0,9.06107 0,9.06107 0,0 8.5366,0.92075 8.5366,0.92075 0,0 0,-9.1003 0,-9.1003 0,0 -8.5366,-0.88152 -8.5366,-0.88152 m 6.6795,6.33451 c 0.2736,0.029 0.4849,0.13127 0.6126,0.29429 0.094,0.12072 0.1332,0.24647 0.1332,0.43194 0,0 -0.3645,-0.0388 -0.3645,-0.0388 -0.013,-0.2062 -0.1518,-0.33067 -0.3993,-0.35698 -0.2006,-0.0213 -0.3283,0.0612 -0.3283,0.21338 0,0.14666 0.081,0.214 0.3595,0.30185 0,0 0.2972,0.0915 0.2972,0.0915 0.352,0.10944 0.5036,0.29186 0.5036,0.61034 0,0.40979 -0.2893,0.62245 -0.7793,0.56993 -0.4844,-0.0519 -0.7637,-0.31596 -0.7871,-0.75003 0,0 0.3796,0.0406 0.3796,0.0406 0.013,0.21721 0.1621,0.35213 0.4278,0.38056 0.2373,0.0254 0.3837,-0.0613 0.3837,-0.23022 0,-0.16335 -0.097,-0.25192 -0.3572,-0.33236 0,0 -0.2662,-0.0832 -0.2662,-0.0832 -0.3853,-0.11856 -0.5342,-0.28655 -0.5342,-0.59924 0,-0.39286 0.2631,-0.59199 0.7188,-0.54362 0,0 0,0 0,0 m 1.0528,0.12325 c 0.042,0.004 0.08,0.0167 0.1165,0.0366 0.036,0.0199 0.069,0.047 0.099,0.0819 0.03,0.035 0.052,0.0718 0.067,0.11166 0.015,0.0397 0.023,0.0824 0.023,0.12731 0,0.0443 -0.01,0.0845 -0.023,0.12113 -0.015,0.0363 -0.038,0.0687 -0.067,0.0974 -0.03,0.0286 -0.063,0.0498 -0.099,0.062 -0.036,0.0122 -0.075,0.0163 -0.1165,0.0118 -0.042,-0.004 -0.08,-0.0166 -0.1162,-0.0366 -0.036,-0.0199 -0.07,-0.0483 -0.1001,-0.0832 -0.03,-0.035 -0.052,-0.0722 -0.067,-0.11163 -0.015,-0.0397 -0.022,-0.0816 -0.022,-0.12583 0,-0.045 0.01,-0.086 0.022,-0.12254 0.015,-0.0367 0.037,-0.0688 0.067,-0.0974 0.03,-0.0286 0.064,-0.0485 0.1001,-0.0608 0.036,-0.0122 0.075,-0.0163 0.1162,-0.0119 0,0 0,0 0,0 m -6.6292,-0.68196 c 0,0 0.3885,0.0412 0.3885,0.0412 0,0 0,2.01172 0,2.01172 0,0 -0.3885,-0.0416 -0.3885,-0.0416 0,0 0,-2.01132 0,-2.01132 m 0.763,0.081 c 0,0 0.3889,0.0413 0.3889,0.0413 0,0 0,1.66819 0,1.66819 0,0 0.9059,0.0969 0.9059,0.0969 0,0 0,0.34447 0,0.34447 0,0 -1.2948,-0.13876 -1.2948,-0.13876 0,0 0,-2.0121 0,-2.0121 m 1.5421,0.16367 c 0,0 0.3895,0.0413 0.3895,0.0413 0,0 0,2.01407 0,2.01407 0,0 -0.3895,-0.0417 -0.3895,-0.0417 0,0 0,-2.01368 0,-2.01368 m 1.297,0.13766 c 0,0 0.4319,0.0458 0.4319,0.0458 0,0 0.656,2.08574 0.656,2.08574 0,0 -0.4011,-0.043 -0.4011,-0.043 0,0 -0.1246,-0.41928 -0.1246,-0.41928 0,0 -0.7106,-0.076 -0.7106,-0.076 0,0 -0.1268,0.39221 -0.1268,0.39221 0,0 -0.398,-0.0427 -0.398,-0.0427 0,0 0.6732,-1.94286 0.6732,-1.94286 m 3.0271,0.36715 c -0.033,-0.004 -0.064,-4.1e-4 -0.092,0.009 -0.028,0.01 -0.055,0.0248 -0.079,0.0477 -0.024,0.0229 -0.042,0.0493 -0.054,0.0784 -0.012,0.0288 -0.017,0.0607 -0.017,0.0963 0,0.0353 0,0.0683 0.017,0.0999 0.012,0.0313 0.03,0.0619 0.054,0.0898 0.024,0.0275 0.051,0.0489 0.079,0.0644 0.029,0.0156 0.059,0.0254 0.092,0.029 0.034,0.004 0.065,8e-5 0.094,-0.009 0.028,-0.01 0.054,-0.0249 0.078,-0.0477 0.024,-0.0229 0.042,-0.0496 0.054,-0.0784 0.012,-0.0291 0.018,-0.0609 0.018,-0.0962 0,-0.0356 -0.01,-0.0687 -0.018,-0.10003 -0.012,-0.0316 -0.03,-0.0619 -0.054,-0.0898 -0.024,-0.0282 -0.051,-0.0502 -0.079,-0.0657 -0.028,-0.0154 -0.059,-0.0241 -0.092,-0.0277 0,0 -10e-5,-2e-5 -10e-5,-2e-5 m -0.1259,0.0542 c 0,0 0.1175,0.0125 0.1175,0.0125 0.048,0.005 0.085,0.0182 0.1093,0.0383 0.024,0.0196 0.034,0.0474 0.034,0.0827 0,0.0251 -0.01,0.0453 -0.021,0.0602 -0.015,0.0148 -0.034,0.0232 -0.061,0.0253 0.011,0.008 0.023,0.0175 0.032,0.0302 0.01,0.0127 0.018,0.0284 0.027,0.0461 0,0 0.046,0.10042 0.046,0.10042 0,0 -0.095,-0.0101 -0.095,-0.0101 0,0 -0.043,-0.0976 -0.043,-0.0976 -0.01,-0.0238 -0.02,-0.0399 -0.028,-0.05 -0.01,-0.0105 -0.016,-0.017 -0.024,-0.0178 0,0 0,-5.2e-4 0,-5.2e-4 0,0 0,0.15545 0,0.15545 0,0 -0.089,-0.009 -0.089,-0.009 0,0 0,-0.36559 0,-0.36559 0,0 0,2e-5 0,2e-5 m 0.089,0.0705 c 0,0 0,0.0905 0,0.0905 0,0 0.015,0.002 0.015,0.002 0.021,0.002 0.037,1e-5 0.048,-0.006 0.011,-0.007 0.017,-0.0175 0.017,-0.0326 0,-0.0152 -0.01,-0.0278 -0.017,-0.0362 -0.01,-0.008 -0.026,-0.013 -0.048,-0.0153 0,0 -0.015,-0.001 -0.015,-0.001 m -2.7819,0.006 c 0,0 -0.2464,0.76119 -0.2464,0.76119 0,0 0.4941,0.0528 0.4941,0.0528 0,0 -0.2477,-0.81395 -0.2477,-0.81395"
         id="path138018-9" />
      <path
         style="fill:#000000;fill-opacity:1;fill-rule:evenodd;stroke:none;stroke-width:0.80514383px;stroke-linecap:butt;stroke-linejoin:miter;stroke-opacity:1"
         d="m 2147.498,93.265625 c -0.6209,-0.0625 -1.1244,0.431216 -1.125,1.103516 l 0,9.248049 a 18.658499,18.814795 0 0 0 -11.0234,-3.662112 18.658499,18.814795 0 0 0 -18.6582,18.816402 18.658499,18.814795 0 0 0 18.6582,18.81446 18.658499,18.814795 0 0 0 11.2031,-3.79102 c 0.1972,0.37463 0.5379,0.66247 0.9453,0.71094 l 22.793,2.68945 0,3.86328 -14.5215,-1.73632 0,2.86718 32.1387,3.87696 0.9531,0.11523 1.6075,0.19336 0,-2.90625 -9.3907,-1.12109 0,-3.88086 9.3907,1.10742 0,-2.48047 -41.8458,-4.89648 0,-0.22461 a 18.658499,18.814795 0 0 0 5.3848,-13.20118 18.658499,18.814795 0 0 0 -5.3848,-13.21289 l 0,-9.740231 41.8458,4.292971 0,-2.480471 -42.9708,-4.365234 z"
         transform="translate(-1.2207031e-4,0)"
         id="path28408-3-5" />
      <path
         style="fill:#000000;fill-opacity:1;fill-rule:evenodd;stroke:none;stroke-width:0.80514383px;stroke-linecap:butt;stroke-linejoin:miter;stroke-opacity:1"
         d="m 2028.1865,80.58091 c -0.589,-0.0592 -1.0658,0.40908 -1.0664,1.04688 l 0,8.77344 a 17.701117,17.849392 0 0 0 -10.459,-3.47266 17.701117,17.849392 0 0 0 -17.7012,17.84961 17.701117,17.849392 0 0 0 17.7012,17.84961 17.701117,17.849392 0 0 0 10.6289,-3.5957 c 0.1871,0.35546 0.5099,0.62783 0.8965,0.67382 l 21.625,2.55078 0,3.66602 -13.7774,-1.64648 0,2.71875 30.4903,3.67773 0.9023,0.10938 6.6738,0.80468 0,-0.72656 c 1.3967,-0.0565 3.1796,-0.10726 5.4453,-0.043 1.9795,0.0555 3.9703,0.20799 5.4434,0.51563 0.7366,0.15375 1.3428,0.35149 1.7305,0.5625 0.3877,0.21101 0.5026,0.3893 0.5195,0.51172 0.028,0.20117 -0.021,0.35119 -0.1836,0.56054 -0.1613,0.20934 -0.4407,0.43815 -0.7637,0.65235 -0.3231,0.2142 -0.6849,0.41627 -1.0175,0.61328 -0.3327,0.19686 -0.6343,0.36498 -0.8809,0.6582 -0.1234,0.14654 -0.2501,0.36319 -0.2402,0.63867 0.011,0.27561 0.173,0.51125 0.3437,0.65821 0.3416,0.29419 0.7792,0.44216 1.4863,0.63085 1.4144,0.3771 3.89,0.78631 8.0997,1.32422 0.8756,0.1123 1.5332,0.24926 1.9667,0.39649 0.4091,0.13905 0.5497,0.2869 0.5645,0.29883 -0.011,0.0208 -0.011,0.0341 -0.061,0.0937 -0.1409,0.16942 -0.482,0.44253 -0.9805,0.73242 -1.6368,0.95189 -4.9977,2.19525 -9.3242,3.59765 -0.9118,-0.75 -2.2539,-1.22322 -3.9785,-1.16992 -3.8099,0.1178 -6.1754,2.8183 -8.334,5.2168 0,0 -0.06,0.35894 -0.1797,0.89844 -0.1199,0.5398 2.0996,2.69716 3.2988,3.47656 1.1994,0.7795 3.8777,0.14115 7.3145,-1.49805 3.1473,-1.5012 3.8532,-4.12351 2.707,-5.97851 4.1129,-1.338 7.3076,-2.52611 9.0762,-3.55469 0.5588,-0.32483 0.9829,-0.62753 1.2813,-0.98633 0.1491,-0.17939 0.2707,-0.38043 0.3242,-0.62305 0.054,-0.24262 0.012,-0.52287 -0.1114,-0.74414 -0.2463,-0.44226 -0.6764,-0.65548 -1.2304,-0.84375 -0.5541,-0.18841 -1.2708,-0.33555 -2.1914,-0.45312 -4.1929,-0.5357 -6.6619,-0.94762 -7.9493,-1.29102 -0.4514,-0.12062 -0.5692,-0.19984 -0.7265,-0.27734 0.1044,-0.0749 0.145,-0.11653 0.3066,-0.21289 0.3102,-0.18369 0.6909,-0.39539 1.0664,-0.64453 0.3756,-0.24899 0.7484,-0.53361 1.0372,-0.90821 0.2889,-0.3746 0.4907,-0.87644 0.416,-1.41796 -0.086,-0.62041 -0.5562,-1.0602 -1.1094,-1.36133 -0.5533,-0.30112 -1.2472,-0.51082 -2.0469,-0.67774 -1.5988,-0.33398 -3.6267,-0.48208 -5.6406,-0.53906 -1.3295,-0.0374 -2.5364,-0.037 -3.5938,-0.0195 -0.7359,0.0123 -1.2992,0.0376 -1.8847,0.0606 l 0,-0.88868 -14.0567,-1.67968 0,-3.68164 22.209,2.62109 c 0.617,0.0727 1.1171,-0.3991 1.1172,-1.05273 l 0,-37.66211 c -6e-4,-0.65332 -0.5005,-1.23414 -1.1172,-1.29688 l -54.0664,-5.49219 z m 1.0683,2.42188 51.8809,5.32226 0,35.26172 -51.8809,-6.07031 0,-0.2168 a 17.701117,17.849392 0 0 0 5.1075,-12.52148 17.701117,17.849392 0 0 0 -5.1075,-12.53516 l 0,-9.24023 z"
         id="path28398-1-4" />
      <rect
         y="22.402508"
         x="1983.4369"
         height="157.00214"
         width="207.03087"
         id="rect476787"
         style="opacity:1;fill:none;fill-opacity:1;fill-rule:nonzero;stroke:#666666;stroke-width:0.29785961;stroke-linecap:round;stroke-linejoin:round;stroke-miterlimit:4;stroke-dasharray:none;stroke-dashoffset:0;stroke-opacity:1" />
    </g>
  </g>
</svg>
