<?xml version="1.0" encoding="UTF-8" standalone="no"?>
<svg
   xmlns:dc="http://purl.org/dc/elements/1.1/"
   xmlns:cc="http://creativecommons.org/ns#"
   xmlns:rdf="http://www.w3.org/1999/02/22-rdf-syntax-ns#"
   xmlns:svg="http://www.w3.org/2000/svg"
   xmlns="http://www.w3.org/2000/svg"
   version="1.1"
   id="svg4341"
   viewBox="0 0 379 60"
   height="60"
   width="379"
   preserveAspectRatio="xMidYMid">
  <metadata
     id="metadata4356">
    <rdf:RDF>
      <cc:Work
         rdf:about="">
        <dc:format>image/svg+xml</dc:format>
        <dc:type
           rdf:resource="http://purl.org/dc/dcmitype/StillImage" />
        <dc:title></dc:title>
      </cc:Work>
    </rdf:RDF>
  </metadata>
  <defs
     id="defs4343">
    <linearGradient
       gradientTransform="scale(1.2219423,0.81836924)"
       spreadMethod="pad"
       gradientUnits="userSpaceOnUse"
       y2="593.78699"
       y1="3.6658268"
       x2="590.86261"
       x1="0.7414425"
       id="gradientFill">
      <stop
         id="stop4346"
         stop-opacity="1"
         stop-color="rgb(203,206,208)"
         offset="0" />
      <stop
         id="stop4348"
         stop-opacity="1"
         stop-color="rgb(132,131,139)"
         offset="1" />
    </linearGradient>
  </defs>
  <flowRoot
     transform="matrix(0.19437511,0,0,0.19437511,0.79876458,-116.87216)"
     style="font-style:normal;font-weight:normal;font-size:40px;line-height:136.00000143%;font-family:Sans;letter-spacing:-4.06999969px;word-spacing:-1.10000002px;fill:#000000;fill-opacity:1;stroke:none;stroke-width:1px;stroke-linecap:butt;stroke-linejoin:miter;stroke-opacity:1"
     id="flowRoot6251"
     xml:space="preserve"><flowRegion
       id="flowRegion6253"><rect
         y="160.55302"
         x="-486.92847"
         height="97.761703"
         width="424.88739"
         id="rect6255" /></flowRegion><flowPara
       id="flowPara6257" /></flowRoot>  <g
     transform="matrix(1.1830829,0,0,1.1830829,-44.90298,183.83209)"
     id="g6364">
    <g
       id="g6227"
       transform="matrix(0.09745695,0,0,0.09745695,45.899855,-215.52967)">
      <g
         transform="matrix(0.4015399,0,0,0.4015399,262.80673,708.68768)"
         id="g6223">
        <path
           style="fill:url(#gradientFill);fill-rule:evenodd"
           d="M 361.453,485.937 C 162.329,485.937 0.906,377.828 0.906,244.469 0.906,111.109 162.329,3 361.453,3 560.578,3 722,111.109 722,244.469 722,377.828 560.578,485.937 361.453,485.937 Z M 416.641,97.406 c -151.352,0 -274.047,73.908 -274.047,165.078 0,91.17 122.695,165.078 274.047,165.078 151.351,0 263.046,-50.529 263.046,-165.078 0,-114.513 -111.695,-165.078 -263.046,-165.078 z"
           id="path4350" />
        <path
           style="fill:#1f7a7a"
           d="m 550,377 c 0,0 21.822,6.585 34.5,13 4.399,2.226 12.01,6.668 17.5,12.5 5.378,5.712 8,11.5 8,11.5 L 696,559 557,559.062 492,437 c 0,0 -13.31,-22.869 -21.5,-29.5 -6.832,-5.531 -9.745,-7.5 -16.5,-7.5 -4.702,0 -33.026,0 -33.026,0 l 0.026,158.974 -123,0.052 0,-406.088 247,0 c 0,0 112.5,2.029 112.5,109.062 0,107.033 -107.5,115 -107.5,115 z m -53.5,-135.976 -74.463,-0.048 -0.037,69.05 74.5,-0.024 c 0,0 34.5,-0.107 34.5,-35.125 0,-35.722 -34.5,-33.853 -34.5,-33.853 z"
           id="path4352" />
      </g>
      <path
         style="fill:#3a3a3a;fill-opacity:1"
         id="path5064"
         d="m 226.63182,737.10364 0,19.49853 q 0,7.30018 -5.18071,12.48094 -5.18077,5.18078 -12.48094,5.18078 l -51.02275,0 q -7.30017,0 -12.48094,-5.18078 -5.18076,-5.18076 -5.18076,-12.48094 l 0,-51.02272 q 0,-7.30017 5.18076,-12.48095 5.18077,-5.18076 12.48094,-5.18076 l 51.02275,0 q 3.86202,0 7.17458,1.53067 0.91841,0.43174 1.1068,1.41294 0.18054,1.04401 -0.54948,1.78188 l -3.00641,3.00642 q -0.61227,0.61227 -1.41294,0.61227 -0.18054,0 -0.54947,-0.12558 -1.41294,-0.36893 -2.76308,-0.36893 l -51.02275,0 q -4.05041,0 -6.93123,2.88083 -2.88082,2.88081 -2.88082,6.93124 l 0,51.02272 q 0,4.05041 2.88082,6.93124 2.88082,2.88082 6.93123,2.88082 l 51.02275,0 q 4.05041,0 6.93124,-2.88082 2.88082,-2.88083 2.88082,-6.93124 l 0,-15.57371 q 0,-0.80066 0.54948,-1.35014 l 3.92486,-3.92482 q 0.61226,-0.61228 1.41289,-0.61228 0.36899,0 0.73784,0.18054 1.22452,0.48668 1.22452,1.78187 z m 14.16868,-29.99351 -49.91592,49.91592 q -1.46789,1.46789 -3.49311,1.46789 -2.0252,0 -3.49308,-1.46789 L 157.5314,730.65908 q -1.46789,-1.46789 -1.46789,-3.49309 0,-2.02521 1.46789,-3.4931 l 6.74286,-6.74285 q 1.46789,-1.46789 3.4931,-1.46789 2.0252,0 3.49309,1.46789 l 16.13102,16.13104 39.68001,-39.67999 q 1.46792,-1.46789 3.49307,-1.46789 2.02528,0 3.49307,1.46789 l 6.74288,6.74285 q 1.46793,1.46789 1.46793,3.4931 0,2.0252 -1.46793,3.49309 z" />
      <path
         style="fill:#3a3a3a;fill-opacity:1"
         id="path5054"
         d="m 208.97012,789.3046 -51.02278,0 q -4.05043,0 -6.93124,2.88087 -2.88082,2.88082 -2.88082,6.93124 l 0,51.02273 q 0,4.05041 2.88082,6.93124 2.88081,2.88083 6.93124,2.88083 l 51.02278,0 q 4.05042,0 6.93124,-2.88083 2.88081,-2.88083 2.88081,-6.93124 l 0,-51.02273 q 0,-4.05042 -2.88081,-6.93124 -2.88082,-2.88087 -6.93124,-2.88087 z m 17.66175,9.81211 0,51.02273 q 0,7.30017 -5.18076,12.48095 -5.18077,5.18076 -12.48099,5.18076 l -51.02278,0 q -7.30009,0 -12.48086,-5.18076 -5.18076,-5.18078 -5.18076,-12.48095 l 0,-51.02273 q 0,-7.30017 5.18076,-12.48099 5.18077,-5.18076 12.48086,-5.18076 l 51.02278,0 q 7.30022,0 12.48099,5.18076 5.18076,5.18082 5.18076,12.48099 z" />
      <path
         style="fill:#3a3a3a;fill-opacity:1"
         id="path4446"
         d="m 114.43141,1033.4582 q -26.851737,0 -45.949847,-19.098 -19.09801,-19.09812 -19.09801,-45.94986 l 0,-286.21079 q 0,-26.85174 19.09801,-45.94984 19.09811,-19.09802 45.949847,-19.09802 l 442.32576,0 q 26.85183,0 45.94984,19.09802 19.09811,19.0981 19.09811,45.94984 l 0,286.21079 q 0,26.85174 -19.09811,45.94986 -19.09801,19.098 -45.94984,19.098 l -442.32576,0 z m -13.00957,-351.25865 0,286.21079 q 0,5.30793 3.85087,9.1587 3.85077,3.85087 9.1587,3.85087 l 442.32576,0 q 5.30793,0 9.15879,-3.85087 3.85078,-3.85077 3.85078,-9.1587 l 0,-286.21079 q 0,-5.30793 -3.85078,-9.15871 -3.85086,-3.85086 -9.15879,-3.85086 l -442.32576,0 q -5.30793,0 -9.1587,3.85086 -3.85087,3.85078 -3.85087,9.15871 z m 559.412,377.27785 65.04787,0 0,39.0288 q 0,16.2359 -19.09802,27.6323 -19.09811,11.3964 -45.94985,11.3964 l -650.479097,0 q -26.85174,0 -45.94976,-11.3964 -19.09811,-11.3964 -19.09811,-27.6323 l 0,-39.0288 715.526967,0 z m -292.71557,39.0288 q 6.50479,0 6.50479,-6.5048 0,-6.5048 -6.50479,-6.5048 l -65.04796,0 q -6.50479,0 -6.50479,6.5048 0,6.5048 6.50479,6.5048 l 65.04796,0 z" />
      <path
         style="fill:#3a3a3a;fill-opacity:1"
         id="path5064-3"
         d="m 226.63182,924.17813 0,19.49854 q 0,7.30017 -5.18071,12.48098 -5.18077,5.18076 -12.48094,5.18076 l -51.02275,0 q -7.30017,0 -12.48094,-5.18076 -5.18076,-5.18081 -5.18076,-12.48098 l 0,-51.02272 q 0,-7.30018 5.18076,-12.48096 5.18077,-5.18076 12.48094,-5.18076 l 51.02275,0 q 3.86202,0 7.17458,1.53068 0.91841,0.43173 1.1068,1.41294 0.18054,1.04401 -0.54948,1.78187 l -3.00641,3.00642 q -0.61227,0.61227 -1.41294,0.61227 -0.18054,0 -0.54947,-0.12557 -1.41294,-0.36894 -2.76308,-0.36894 l -51.02275,0 q -4.05041,0 -6.93123,2.88083 -2.88082,2.88082 -2.88082,6.93124 l 0,51.02272 q 0,4.05042 2.88082,6.93125 2.88082,2.88077 6.93123,2.88077 l 51.02275,0 q 4.05041,0 6.93124,-2.88077 2.88082,-2.88083 2.88082,-6.93125 l 0,-15.57371 q 0,-0.80065 0.54948,-1.35014 l 3.92486,-3.92482 q 0.61226,-0.61227 1.41289,-0.61227 0.36899,0 0.73784,0.18054 1.22452,0.48668 1.22452,1.78187 z m 14.16868,-29.99351 -49.91592,49.91593 q -1.46789,1.46788 -3.49311,1.46788 -2.0252,0 -3.49308,-1.46788 L 157.5314,917.73357 q -1.46789,-1.46789 -1.46789,-3.49309 0,-2.02521 1.46789,-3.4931 l 6.74285,-6.74285 q 1.46788,-1.46788 3.4931,-1.46788 2.0252,0 3.49309,1.46788 l 16.13103,16.13104 39.68001,-39.67998 q 1.46792,-1.46789 3.49307,-1.46789 2.02528,0 3.49307,1.46789 l 6.74288,6.74284 q 1.46793,1.46789 1.46793,3.4931 0,2.02521 -1.46793,3.49309 z" />
    </g>
    <g
       style="font-style:normal;font-weight:normal;font-size:31.32595253px;line-height:136.00000143%;font-family:Sans;letter-spacing:-3.1874156px;word-spacing:-0.86146367px;fill:#3a3a3a;fill-opacity:1;stroke:none;stroke-width:1px;stroke-linecap:butt;stroke-linejoin:miter;stroke-opacity:1"
       id="text6236"
       transform="matrix(1.9852827,0,0,1.9852827,123.5514,-321.87365)">
      <path
         d="m 6.6155858,98.099177 0,9.366463 -3.0229545,0 0,-22.445048 6.3435054,0 q 2.1301643,0 3.6807993,0.438564 1.550635,0.4229 2.553065,1.237375 1.018094,0.814474 1.503646,1.973535 0.485552,1.143397 0.485552,2.568728 0,1.190386 -0.375911,2.224142 -0.375912,1.033757 -1.096409,1.863895 -0.704833,0.814474 -1.73859,1.409667 -1.018093,0.579531 -2.31812,0.861464 0.595193,0.375912 1.00243,0.955442 l 6.547124,8.912236 -2.694032,0 q -0.830137,0 -1.221712,-0.64218 L 10.437352,98.804011 Q 10.171081,98.4281 9.8578218,98.27147 9.5602253,98.099177 8.9180433,98.099177 l -2.3024575,0 z m 0,-2.208479 3.1952471,0 q 1.3156901,0 2.3181201,-0.31326 1.018094,-0.328922 1.691602,-0.908452 0.689171,-0.595193 1.033756,-1.409668 0.344586,-0.814475 0.344586,-1.801243 0,-2.00486 -1.31569,-3.022954 -1.31569,-1.018093 -3.9470703,-1.018093 l -3.3205509,0 0,8.47367 z"
         style="font-style:normal;font-variant:normal;font-weight:normal;font-stretch:normal;font-family:Lato;-inkscape-font-specification:Lato;letter-spacing:-0.29042923px;word-spacing:-0.86257482px;fill:#3a3a3a;fill-opacity:1"
         id="path6320" />
      <path
         d="m 23.819232,107.79456 q -0.203619,0.5482 -0.642182,0.81447 -0.4229,0.26628 -0.877127,0.26628 l -1.174723,0 9.413449,-23.44748 q 0.187955,-0.501216 0.563867,-0.767486 0.391574,-0.266271 0.89279,-0.266271 l 1.190386,0 -9.36646,23.400487 z"
         style="font-style:normal;font-variant:normal;font-weight:normal;font-stretch:normal;font-family:Lato;-inkscape-font-specification:Lato;letter-spacing:-0.29042923px;word-spacing:-0.86257482px;fill:#3a3a3a;fill-opacity:1"
         id="path6322" />
      <path
         d="m 41.220135,91.348435 q 1.425331,0 2.63138,0.485552 1.221712,0.469889 2.098839,1.378342 0.892789,0.892789 1.394005,2.224142 0.501215,1.31569 0.501215,3.007292 0,0.657845 -0.140967,0.877127 -0.140967,0.219281 -0.532541,0.219281 l -10.603835,0 q 0.03133,1.503649 0.407237,2.615719 0.375912,1.11207 1.033757,1.86389 0.657845,0.73616 1.566297,1.11207 0.908453,0.36025 2.036187,0.36025 1.04942,0 1.801243,-0.23494 0.767485,-0.25061 1.31569,-0.53254 0.548204,-0.28194 0.908452,-0.51688 0.375912,-0.25061 0.642182,-0.25061 0.344586,0 0.532541,0.26627 l 0.783149,1.01809 q -0.516878,0.62652 -1.237375,1.09641 -0.720497,0.45423 -1.550634,0.75183 -0.814475,0.29759 -1.691602,0.43856 -0.877127,0.15663 -1.73859,0.15663 -1.644613,0 -3.038618,-0.54821 -1.378342,-0.56386 -2.396435,-1.62894 -1.002431,-1.08075 -1.566298,-2.66271 -0.563867,-1.58196 -0.563867,-3.633811 0,-1.660276 0.501215,-3.10127 0.516879,-1.440993 1.47232,-2.490413 0.955442,-1.065082 2.333784,-1.660275 1.378342,-0.610856 3.101269,-0.610856 z m 0.06265,2.05185 q -2.020524,0 -3.179584,1.174723 -1.159061,1.15906 -1.440994,3.226573 l 8.677289,0 q 0,-0.971105 -0.281934,-1.769916 -0.26627,-0.814475 -0.798812,-1.394005 -0.516878,-0.595193 -1.268701,-0.908453 -0.751823,-0.328922 -1.707264,-0.328922 z"
         style="font-style:normal;font-variant:normal;font-weight:normal;font-stretch:normal;font-family:Lato;-inkscape-font-specification:Lato;letter-spacing:-0.29042923px;word-spacing:-0.86257482px;fill:#3a3a3a;fill-opacity:1"
         id="path6324" />
      <path
         d="m 54.477692,99.336553 -5.341075,-7.737511 2.678369,0 q 0.344585,0 0.501215,0.109641 0.15663,0.109641 0.281934,0.31326 l 3.884418,5.951931 q 0.140966,-0.438564 0.407237,-0.877127 l 3.414529,-5.012152 q 0.140967,-0.219282 0.297596,-0.344586 0.172293,-0.140967 0.407238,-0.140967 l 2.568728,0 -5.341075,7.580881 5.560357,8.285717 -2.678369,0 q -0.344586,0 -0.548204,-0.1723 -0.187956,-0.18795 -0.31326,-0.40723 l -3.994059,-6.2182 q -0.109641,0.45422 -0.328922,0.81447 l -3.696463,5.40373 q -0.15663,0.21928 -0.344585,0.40723 -0.172293,0.1723 -0.485553,0.1723 l -2.490413,0 5.560357,-8.129087 z"
         style="font-style:normal;font-variant:normal;font-weight:normal;font-stretch:normal;font-family:Lato;-inkscape-font-specification:Lato;letter-spacing:-0.29042923px;word-spacing:-0.86257482px;fill:#3a3a3a;fill-opacity:1"
         id="path6326" />
      <path
         d="m 76.163886,107.46564 q -0.407237,0 -0.626519,-0.12531 -0.219281,-0.14096 -0.344585,-0.53254 l -0.31326,-1.48798 q -0.626519,0.56387 -1.237375,1.01809 -0.595193,0.43857 -1.253038,0.75183 -0.642182,0.29759 -1.394005,0.45422 -0.73616,0.17229 -1.644612,0.17229 -0.924116,0 -1.738591,-0.2506 -0.814475,-0.26627 -1.425331,-0.78315 -0.595193,-0.51688 -0.955441,-1.30003 -0.344586,-0.79881 -0.344586,-1.87956 0,-0.93977 0.516879,-1.80124 0.516878,-0.87712 1.675938,-1.55063 1.15906,-0.673511 3.022954,-1.096411 1.863895,-0.438563 4.57359,-0.501215 l 0,-1.237375 q 0,-1.848232 -0.798812,-2.78801 -0.798812,-0.955442 -2.333784,-0.955442 -1.033756,0 -1.73859,0.266271 -0.689171,0.250607 -1.206049,0.57953 -0.501215,0.31326 -0.877127,0.57953 -0.360248,0.250608 -0.720497,0.250608 -0.281933,0 -0.485552,-0.140967 -0.203619,-0.15663 -0.344586,-0.375911 l -0.501215,-0.89279 q 1.31569,-1.268701 2.834999,-1.89522 1.519309,-0.626519 3.36754,-0.626519 1.331353,0 2.365109,0.438563 1.033757,0.438563 1.738591,1.221712 0.704834,0.783149 1.065082,1.89522 0.360248,1.112072 0.360248,2.443425 l 0,10.149611 -1.237375,0 z m -5.983257,-1.70727 q 0.73616,0 1.347016,-0.14096 0.610856,-0.15663 1.143398,-0.4229 0.548204,-0.28194 1.033756,-0.67351 0.501215,-0.40724 0.971105,-0.90845 l 0,-3.28923 q -1.926547,0.0627 -3.289225,0.31326 -1.347016,0.23494 -2.20848,0.62652 -0.845801,0.39157 -1.237375,0.92411 -0.375912,0.53255 -0.375912,1.19039 0,0.62652 0.203619,1.08075 0.203619,0.45422 0.548204,0.75182 0.360249,0.28193 0.830138,0.4229 0.485552,0.1253 1.033756,0.1253 z"
         style="font-style:normal;font-variant:normal;font-weight:normal;font-stretch:normal;font-family:Lato;-inkscape-font-specification:Lato;letter-spacing:-0.29042923px;word-spacing:-0.86257482px;fill:#3a3a3a;fill-opacity:1"
         id="path6328" />
      <path
         d="m 81.327113,107.46564 0,-15.866598 1.675938,0 q 0.595193,0 0.73616,0.57953 l 0.203619,1.62895 q 0.877126,-1.080745 1.973535,-1.769916 1.096408,-0.689171 2.537402,-0.689171 1.597623,0 2.584391,0.892789 1.00243,0.89279 1.440994,2.412099 0.344585,-0.861464 0.877126,-1.487983 0.548205,-0.626519 1.221713,-1.033757 0.673508,-0.407237 1.42533,-0.595193 0.767486,-0.187955 1.550635,-0.187955 1.253038,0 2.224143,0.407237 0.986771,0.391574 1.660271,1.15906 0.68918,0.767486 1.04942,1.89522 0.36025,1.112072 0.36025,2.553066 l 0,10.102622 -2.80367,0 0,-10.102622 q 0,-1.863895 -0.814475,-2.819336 -0.814475,-0.971105 -2.349447,-0.971105 -0.689171,0 -1.31569,0.250608 -0.610856,0.234945 -1.080745,0.704834 -0.46989,0.469889 -0.751823,1.190386 -0.266271,0.704834 -0.266271,1.644613 l 0,10.102622 -2.803672,0 0,-10.102622 q 0,-1.910884 -0.767486,-2.850662 -0.767486,-0.939779 -2.239806,-0.939779 -1.033756,0 -1.910883,0.563867 -0.877127,0.548205 -1.613287,1.503646 l 0,11.82555 -2.803672,0 z"
         style="font-style:normal;font-variant:normal;font-weight:normal;font-stretch:normal;font-family:Lato;-inkscape-font-specification:Lato;letter-spacing:-0.29042923px;word-spacing:-0.86257482px;fill:#3a3a3a;fill-opacity:1"
         id="path6330" />
      <path
         d="m 116.03609,94.214759 q -0.18796,0.344586 -0.57953,0.344586 -0.23495,0 -0.53254,-0.172293 -0.2976,-0.172293 -0.73616,-0.375911 -0.4229,-0.219282 -1.0181,-0.391575 -0.59519,-0.187956 -1.40966,-0.187956 -0.70484,0 -1.26871,0.187956 -0.56386,0.172293 -0.9711,0.485552 -0.39157,0.31326 -0.61086,0.73616 -0.20361,0.407238 -0.20361,0.89279 0,0.610856 0.34458,1.018093 0.36025,0.407238 0.93978,0.704834 0.57953,0.297597 1.31569,0.532542 0.73616,0.219281 1.50364,0.485552 0.78315,0.250607 1.51931,0.563867 0.73616,0.31326 1.31569,0.783149 0.57953,0.469885 0.92412,1.159065 0.36025,0.6735 0.36025,1.62894 0,1.09641 -0.39158,2.03619 -0.39157,0.92412 -1.15906,1.61329 -0.76748,0.67351 -1.87955,1.06508 -1.11208,0.39157 -2.56873,0.39157 -1.66028,0 -3.00729,-0.53254 -1.34702,-0.5482 -2.2868,-1.394 l 0.65785,-1.06508 q 0.1253,-0.20362 0.29759,-0.31326 0.1723,-0.10964 0.43857,-0.10964 0.28193,0 0.59519,0.21928 0.31326,0.21928 0.75182,0.48555 0.45423,0.26627 1.09641,0.48555 0.64218,0.21928 1.59762,0.21928 0.81448,0 1.42534,-0.20361 0.61085,-0.21929 1.01809,-0.57953 0.40724,-0.36025 0.59519,-0.83014 0.20362,-0.46989 0.20362,-1.00243 0,-0.65785 -0.36025,-1.08075 -0.34458,-0.43856 -0.92411,-0.73616 -0.57953,-0.31326 -1.33136,-0.53254 -0.73616,-0.23494 -1.51931,-0.48555 -0.76748,-0.25061 -1.5193,-0.563869 -0.73616,-0.328923 -1.31569,-0.814475 -0.57953,-0.485552 -0.93978,-1.190386 -0.34459,-0.720497 -0.34459,-1.73859 0,-0.908453 0.37591,-1.738591 0.37591,-0.8458 1.09641,-1.472319 0.7205,-0.642183 1.76992,-1.018094 1.04942,-0.375911 2.39643,-0.375911 1.5663,0 2.80368,0.501215 1.25303,0.485552 2.16149,1.347016 l -0.62652,1.018093 z"
         style="font-style:normal;font-variant:normal;font-weight:normal;font-stretch:normal;font-family:Lato;-inkscape-font-specification:Lato;letter-spacing:-0.29042923px;word-spacing:-0.86257482px;fill:#3a3a3a;fill-opacity:1"
         id="path6332" />
    </g>
  </g>
</svg>
