<?xml version="1.0" encoding="UTF-8" standalone="no"?>
<svg
   xmlns:dc="http://purl.org/dc/elements/1.1/"
   xmlns:cc="http://creativecommons.org/ns#"
   xmlns:rdf="http://www.w3.org/1999/02/22-rdf-syntax-ns#"
   xmlns:svg="http://www.w3.org/2000/svg"
   xmlns="http://www.w3.org/2000/svg"
   preserveAspectRatio="xMidYMid"
   width="91"
   height="60"
   viewBox="0 0 91 60"
   id="svg4341"
   version="1.1">
  <metadata
     id="metadata4356">
    <rdf:RDF>
      <cc:Work
         rdf:about="">
        <dc:format>image/svg+xml</dc:format>
        <dc:type
           rdf:resource="http://purl.org/dc/dcmitype/StillImage" />
        <dc:title></dc:title>
      </cc:Work>
    </rdf:RDF>
  </metadata>
  <defs
     id="defs4343">
    <linearGradient
       id="gradientFill"
       x1="0.7414425"
       x2="590.86261"
       y1="3.6658268"
       y2="593.78699"
       gradientUnits="userSpaceOnUse"
       spreadMethod="pad"
       gradientTransform="matrix(0.09428793,0,0,0.06314729,61.012699,24.680056)">
      <stop
         offset="0"
         stop-color="rgb(203,206,208)"
         stop-opacity="1"
         id="stop4346" />
      <stop
         offset="1"
         stop-color="rgb(132,131,139)"
         stop-opacity="1"
         id="stop4348" />
    </linearGradient>
  </defs>
  <flowRoot
     xml:space="preserve"
     id="flowRoot6251"
     style="font-style:normal;font-weight:normal;font-size:40px;line-height:136.00000143%;font-family:Sans;letter-spacing:-4.06999969px;word-spacing:-1.10000002px;fill:#000000;fill-opacity:1;stroke:none;stroke-width:1px;stroke-linecap:butt;stroke-linejoin:miter;stroke-opacity:1"
     transform="translate(0,-501)"><flowRegion
       id="flowRegion6253"><rect
         id="rect6255"
         width="424.88739"
         height="97.761703"
         x="-486.92847"
         y="160.55302" /></flowRegion><flowPara
       id="flowPara6257" /></flowRoot>  <g
     transform="matrix(0.60000003,0,0,0.60000003,0.49999783,-4.2539672)"
     id="g4319">
    <path
       id="path4350"
       d="m 88.903258,62.176092 c -15.364874,0 -27.82065,-8.341943 -27.82065,-18.632236 0,-10.29037 12.455776,-18.632313 27.82065,-18.632313 15.364952,0 27.820652,8.341943 27.820652,18.632313 0,10.290293 -12.4557,18.632236 -27.820652,18.632236 z m 4.258435,-29.979961 c -11.678674,0 -21.146107,5.702914 -21.146107,12.737805 0,7.03489 9.467433,12.737804 21.146107,12.737804 11.678597,0 20.297247,-3.898935 20.297247,-12.737804 0,-8.836091 -8.61865,-12.737805 -20.297247,-12.737805 z"
       style="fill:url(#gradientFill);fill-rule:evenodd" />
    <path
       id="path4352"
       d="m 103.45199,53.770258 c 0,0 1.68383,0.508114 2.6621,1.003111 0.33943,0.171763 0.92672,0.514518 1.35034,0.964529 0.41498,0.440751 0.6173,0.887367 0.6173,0.887367 l 6.63596,11.188539 -10.72557,0.0048 -5.01555,-9.418589 c 0,0 -1.02703,-1.764626 -1.65899,-2.276289 -0.527173,-0.426785 -0.751947,-0.578718 -1.273179,-0.578718 -0.362817,0 -2.548363,0 -2.548363,0 l 0.002,12.266806 -9.490968,0.004 0,-31.3347 19.05909,0 c 0,0 8.68077,0.156562 8.68077,8.415479 0,8.258917 -8.29495,8.873669 -8.29495,8.873669 z m -4.128189,-10.492226 -5.74574,-0.0037 -0.0029,5.32806 5.748595,-0.0019 c 0,0 2.662094,-0.0083 2.662094,-2.710327 0,-2.756394 -2.662094,-2.612177 -2.662094,-2.612177 z"
       style="fill:#1f7a7a" />
    <path
       style="fill:#3a3a3a;fill-opacity:1"
       id="path5064"
       d="m 54.061109,30.14064 0,3.746956 q 0,1.402846 -0.995556,2.398413 -0.995569,0.99557 -2.398414,0.99557 l -9.804841,0 q -1.402845,0 -2.398413,-0.99557 -0.995567,-0.995567 -0.995567,-2.398413 l 0,-9.804836 q 0,-1.402845 0.995567,-2.398415 0.995568,-0.995566 2.398413,-0.995566 l 9.804841,0 q 0.74215,0 1.378711,0.294142 0.176487,0.08297 0.21269,0.27152 0.03469,0.200623 -0.105592,0.342416 l -0.57773,0.577732 q -0.117657,0.117658 -0.271519,0.117658 -0.03469,0 -0.105589,-0.02413 -0.27152,-0.0709 -0.530971,-0.0709 l -9.804841,0 q -0.778351,0 -1.331947,0.553598 -0.553596,0.553594 -0.553596,1.331949 l 0,9.804835 q 0,0.778352 0.553596,1.331949 0.553596,0.553596 1.331947,0.553596 l 9.804841,0 q 0.778352,0 1.331949,-0.553596 0.553596,-0.553597 0.553596,-1.331949 l 0,-2.992738 q 0,-0.15386 0.105592,-0.259451 l 0.754225,-0.754218 q 0.117655,-0.117659 0.271509,-0.117659 0.07091,0 0.141788,0.03469 0.235311,0.09352 0.235311,0.342415 z m 2.72274,-5.763735 -9.592146,9.592146 q -0.282079,0.282079 -0.671258,0.282079 -0.389174,0 -0.671251,-0.282079 l -5.066841,-5.066837 q -0.282079,-0.282079 -0.282079,-0.671253 0,-0.389177 0.282079,-0.671256 l 1.295749,-1.295747 q 0.282079,-0.282078 0.671255,-0.282078 0.389175,0 0.671254,0.282078 l 3.099834,3.099839 7.625152,-7.625148 q 0.282084,-0.282079 0.671249,-0.282079 0.389191,0 0.67125,0.282079 l 1.295753,1.295747 q 0.282086,0.282079 0.282086,0.671255 0,0.389175 -0.282086,0.671254 z" />
    <path
       style="fill:#3a3a3a;fill-opacity:1"
       id="path5054"
       d="m 50.66713,40.171893 -9.804847,0 q -0.778356,0 -1.33195,0.553605 -0.553595,0.553596 -0.553595,1.33195 l 0,9.804837 q 0,0.778352 0.553595,1.331949 0.553594,0.553598 1.33195,0.553598 l 9.804847,0 q 0.778353,0 1.331949,-0.553598 0.553594,-0.553597 0.553594,-1.331949 l 0,-9.804837 q 0,-0.778354 -0.553594,-1.33195 -0.553596,-0.553605 -1.331949,-0.553605 z m 3.393989,1.885555 0,9.804837 q 0,1.402845 -0.995566,2.398415 -0.995569,0.995567 -2.398423,0.995567 l -9.804847,0 q -1.40283,0 -2.398398,-0.995567 -0.995567,-0.99557 -0.995567,-2.398415 l 0,-9.804837 q 0,-1.402845 0.995567,-2.398423 0.995568,-0.995566 2.398398,-0.995566 l 9.804847,0 q 1.402854,0 2.398423,0.995566 0.995566,0.995578 0.995566,2.398423 z" />
    <path
       style="fill:#3a3a3a;fill-opacity:1"
       id="path4446"
       d="m 32.499997,87.089931 q -5.159992,0 -8.830001,-3.669988 -3.66999,-3.67001 -3.66999,-8.830004 l 0,-55.000003 q 0,-5.159993 3.66999,-8.83 3.670009,-3.6699911 8.830001,-3.6699911 l 85.000003,0 q 5.16001,0 8.83,3.6699911 3.67001,3.670007 3.67001,8.83 l 0,55.000003 q 0,5.159994 -3.67001,8.830004 -3.66999,3.669988 -8.83,3.669988 l -85.000003,0 z m -2.499998,-67.499995 0,55.000003 q 0,1.020004 0.740007,1.759992 0.739987,0.740006 1.759991,0.740006 l 85.000003,0 q 1.02,0 1.76001,-0.740006 Q 120,75.609943 120,74.589939 l 0,-55.000003 q 0,-1.020004 -0.73999,-1.759993 Q 118.52,17.089939 117.5,17.089939 l -85.000003,0 q -1.020004,0 -1.759991,0.740004 -0.740007,0.739989 -0.740007,1.759993 z M 137.5,92.089938 l 12.5,0 0,7.500011 q 0,3.119991 -3.66999,5.309991 -3.67001,2.19 -8.83001,2.19 l -125.000007,0 q -5.1599931,0 -8.8299845,-2.19 Q -2.7160089e-7,102.70994 -2.7160089e-7,99.589949 l 0,-7.500011 L 137.5,92.089938 Z m -56.249996,7.500011 q 1.25,0 1.25,-1.250002 0,-1.250001 -1.25,-1.250001 l -12.500011,0 q -1.25,0 -1.25,1.250001 0,1.250002 1.25,1.250002 l 12.500011,0 z" />
    <path
       style="fill:#3a3a3a;fill-opacity:1"
       id="path5064-3"
       d="m 54.061109,66.090009 0,3.746958 q 0,1.402845 -0.995556,2.398421 -0.995569,0.995566 -2.398414,0.995566 l -9.804841,0 q -1.402845,0 -2.398413,-0.995566 -0.995567,-0.995576 -0.995567,-2.398421 l 0,-9.804836 q 0,-1.402846 0.995567,-2.398417 0.995568,-0.995566 2.398413,-0.995566 l 9.804841,0 q 0.74215,0 1.378711,0.294145 0.176487,0.08296 0.21269,0.271519 0.03469,0.200623 -0.105592,0.342415 l -0.57773,0.577732 q -0.117657,0.117657 -0.271519,0.117657 -0.03469,0 -0.105589,-0.02413 -0.27152,-0.0709 -0.530971,-0.0709 l -9.804841,0 q -0.778351,0 -1.331947,0.553598 -0.553596,0.553596 -0.553596,1.331949 l 0,9.804836 q 0,0.778353 0.553596,1.331951 0.553596,0.553586 1.331947,0.553586 l 9.804841,0 q 0.778352,0 1.331949,-0.553586 0.553596,-0.553598 0.553596,-1.331951 l 0,-2.992739 q 0,-0.153858 0.105592,-0.259451 l 0.754225,-0.754217 q 0.117655,-0.117658 0.271509,-0.117658 0.07091,0 0.141788,0.03469 0.235311,0.09352 0.235311,0.342415 z m 2.72274,-5.763735 -9.592146,9.592148 q -0.282079,0.282077 -0.671258,0.282077 -0.389174,0 -0.671251,-0.282077 l -5.066841,-5.066839 q -0.282079,-0.282078 -0.282079,-0.671253 0,-0.389177 0.282079,-0.671255 L 42.0781,62.213328 q 0.282077,-0.282077 0.671255,-0.282077 0.389175,0 0.671254,0.282077 l 3.099836,3.099838 7.625152,-7.625145 q 0.282084,-0.282079 0.671249,-0.282079 0.389191,0 0.67125,0.282079 l 1.295753,1.295745 q 0.282086,0.282078 0.282086,0.671255 0,0.389177 -0.282086,0.671253 z" />
  </g>
</svg>
