<?xml version="1.0" encoding="UTF-8" standalone="no"?>
<svg
   xmlns:dc="http://purl.org/dc/elements/1.1/"
   xmlns:cc="http://creativecommons.org/ns#"
   xmlns:rdf="http://www.w3.org/1999/02/22-rdf-syntax-ns#"
   xmlns:svg="http://www.w3.org/2000/svg"
   xmlns="http://www.w3.org/2000/svg"
   preserveAspectRatio="xMidYMid"
   width="91"
   height="91"
   viewBox="0 0 91 91"
   id="svg4341"
   version="1.1">
  <metadata
     id="metadata4356">
    <rdf:RDF>
      <cc:Work
         rdf:about="">
        <dc:format>image/svg+xml</dc:format>
        <dc:type
           rdf:resource="http://purl.org/dc/dcmitype/StillImage" />
        <dc:title></dc:title>
      </cc:Work>
    </rdf:RDF>
  </metadata>
  <defs
     id="defs4343">
    <linearGradient
       id="gradientFill"
       x1="0.7414425"
       x2="590.86261"
       y1="3.6658268"
       y2="593.78699"
       gradientUnits="userSpaceOnUse"
       spreadMethod="pad"
       gradientTransform="matrix(0.05657276,0,0,0.03788838,37.107619,26.054067)">
      <stop
         offset="0"
         stop-color="rgb(203,206,208)"
         stop-opacity="1"
         id="stop4346" />
      <stop
         offset="1"
         stop-color="rgb(132,131,139)"
         stop-opacity="1"
         id="stop4348" />
    </linearGradient>
  </defs>
  <flowRoot
     xml:space="preserve"
     id="flowRoot6251"
     style="font-style:normal;font-weight:normal;font-size:40px;line-height:136.00000143%;font-family:Sans;letter-spacing:-4.06999969px;word-spacing:-1.10000002px;fill:#000000;fill-opacity:1;stroke:none;stroke-width:1px;stroke-linecap:butt;stroke-linejoin:miter;stroke-opacity:1"
     transform="translate(0,-470)"><flowRegion
       id="flowRegion6253"><rect
         id="rect6255"
         width="424.88739"
         height="97.761703"
         x="-486.92847"
         y="160.55302" /></flowRegion><flowPara
       id="flowPara6257" /></flowRoot>  <g
     id="g4474">
    <path
       style="opacity:1;fill:#ffffff;fill-opacity:1;fill-rule:nonzero;stroke:none;stroke-width:0.5;stroke-linecap:round;stroke-linejoin:round;stroke-miterlimit:4;stroke-dasharray:none;stroke-dashoffset:0;stroke-opacity:1"
       d="M 20 21.5 C 19.591999 21.5 19.239355 21.647358 18.943359 21.943359 C 18.647357 22.239355 18.5 22.591999 18.5 23 L 18.5 56 C 18.5 56.408001 18.647357 56.760645 18.943359 57.056641 C 19.239355 57.352643 19.591999 57.5 20 57.5 L 71 57.5 C 71.408 57.5 71.760637 57.352643 72.056641 57.056641 C 72.352637 56.760645 72.5 56.408001 72.5 56 L 72.5 23 C 72.5 22.591999 72.352637 22.239355 72.056641 21.943359 C 71.760637 21.647358 71.408 21.5 71 21.5 L 20 21.5 z "
       id="rect4464" />
    <path
       style="opacity:1;fill:#ffffff;fill-opacity:1;fill-rule:nonzero;stroke:none;stroke-width:0.5;stroke-linecap:round;stroke-linejoin:round;stroke-miterlimit:4;stroke-dasharray:none;stroke-dashoffset:0;stroke-opacity:1"
       d="M 41.75 69.5 C 41.25 69.5 41 69.75 41 70.25 C 41 70.750001 41.25 71 41.75 71 L 49.25 71 C 49.75 71 50 70.750001 50 70.25 C 50 69.75 49.75 69.5 49.25 69.5 L 41.75 69.5 z "
       id="rect4466" />
    <path
       id="path4350"
       d="m 53.841955,48.55169 c -9.218925,0 -16.692391,-5.005166 -16.692391,-11.179342 0,-6.174222 7.473466,-11.179388 16.692391,-11.179388 9.218972,0 16.692392,5.005166 16.692392,11.179388 0,6.174176 -7.47342,11.179342 -16.692392,11.179342 z m 2.555061,-17.987977 c -7.007204,0 -12.687664,3.421748 -12.687664,7.642683 0,4.220934 5.68046,7.642683 12.687664,7.642683 7.007159,0 12.178349,-2.339361 12.178349,-7.642683 0,-5.301655 -5.17119,-7.642683 -12.178349,-7.642683 z"
       style="fill:url(#gradientFill);fill-rule:evenodd" />
    <path
       id="path4352"
       d="m 62.571195,43.508189 c 0,0 1.010298,0.304869 1.59726,0.601867 0.203658,0.103058 0.556032,0.308711 0.810204,0.578717 0.248988,0.264451 0.37038,0.532421 0.37038,0.532421 l 3.981576,6.713123 -6.435342,0.0029 -3.00933,-5.651153 c 0,0 -0.616218,-1.058776 -0.995394,-1.365774 -0.316304,-0.256071 -0.451168,-0.347231 -0.763908,-0.347231 -0.21769,0 -1.529018,0 -1.529018,0 l 0.0012,7.360084 -5.694581,0.0024 0,-18.800821 11.435455,0 c 0,0 5.208462,0.09394 5.208462,5.049288 0,4.955351 -4.97697,5.324202 -4.97697,5.324202 z m -2.476914,-6.295336 -3.447444,-0.0022 -0.0017,3.196837 3.449157,-0.0011 c 0,0 1.597257,-0.005 1.597257,-1.626197 0,-1.653836 -1.597257,-1.567306 -1.597257,-1.567306 z"
       style="fill:#1f7a7a" />
    <path
       style="fill:#3a3a3a;fill-opacity:1"
       id="path5064"
       d="m 32.936665,29.330418 0,2.248174 q 0,0.841707 -0.597334,1.439047 -0.597341,0.597343 -1.439048,0.597343 l -5.882905,0 q -0.841707,0 -1.439048,-0.597343 -0.59734,-0.59734 -0.59734,-1.439047 l 0,-5.882902 q 0,-0.841707 0.59734,-1.439049 0.597341,-0.59734 1.439048,-0.59734 l 5.882905,0 q 0.44529,0 0.827226,0.176485 0.105893,0.04978 0.127614,0.162912 0.02081,0.120374 -0.06335,0.20545 l -0.346638,0.346639 q -0.07059,0.0706 -0.162911,0.0706 -0.02081,0 -0.06335,-0.01448 -0.162912,-0.04254 -0.318582,-0.04254 l -5.882905,0 q -0.467011,0 -0.799168,0.332159 -0.332158,0.332156 -0.332158,0.799169 l 0,5.882901 q 0,0.467012 0.332158,0.79917 0.332157,0.332157 0.799168,0.332157 l 5.882905,0 q 0.467011,0 0.799169,-0.332157 0.332158,-0.332158 0.332158,-0.79917 l 0,-1.795642 q 0,-0.09232 0.06336,-0.155671 L 32.5475,29.174749 q 0.07059,-0.07059 0.162905,-0.07059 0.04255,0 0.08507,0.02081 0.141187,0.05611 0.141187,0.205449 z m 1.633644,-3.458241 -5.755288,5.755288 q -0.169247,0.169247 -0.402755,0.169247 -0.233504,0 -0.40275,-0.169247 l -3.040105,-3.040103 q -0.169248,-0.169247 -0.169248,-0.402752 0,-0.233506 0.169248,-0.402753 l 0.777449,-0.777448 q 0.169248,-0.169247 0.402753,-0.169247 0.233505,0 0.402753,0.169247 l 1.8599,1.859903 4.575092,-4.575089 q 0.16925,-0.169247 0.402749,-0.169247 0.233515,0 0.40275,0.169247 l 0.777452,0.777448 q 0.169252,0.169248 0.169252,0.402753 0,0.233505 -0.169252,0.402753 z" />
    <path
       style="fill:#3a3a3a;fill-opacity:1"
       id="path5054"
       d="m 30.900277,35.34917 -5.882908,0 q -0.467014,0 -0.79917,0.332163 -0.332157,0.332158 -0.332157,0.79917 l 0,5.882903 q 0,0.467011 0.332157,0.799169 0.332156,0.332159 0.79917,0.332159 l 5.882908,0 q 0.467012,0 0.79917,-0.332159 0.332156,-0.332158 0.332156,-0.799169 l 0,-5.882903 q 0,-0.467012 -0.332156,-0.79917 -0.332158,-0.332163 -0.79917,-0.332163 z m 2.036394,1.131333 0,5.882903 q 0,0.841707 -0.59734,1.439049 -0.597341,0.59734 -1.439054,0.59734 l -5.882908,0 q -0.841698,0 -1.439039,-0.59734 -0.59734,-0.597342 -0.59734,-1.439049 l 0,-5.882903 q 0,-0.841707 0.59734,-1.439054 0.597341,-0.597339 1.439039,-0.597339 l 5.882908,0 q 0.841713,0 1.439054,0.597339 0.59734,0.597347 0.59734,1.439054 z" />
    <path
       style="fill:#3a3a3a;fill-opacity:1"
       id="path4446"
       d="m 19.999997,63.499994 q -3.095995,0 -5.298001,-2.201993 -2.201994,-2.202006 -2.201994,-5.298002 l 0,-33.000004 q 0,-3.095996 2.201994,-5.298 Q 16.904002,15.5 19.999997,15.5 l 51.000004,0 q 3.096007,0 5.298001,2.201995 2.202006,2.202004 2.202006,5.298 l 0,33.000004 q 0,3.095996 -2.202006,5.298002 -2.201994,2.201993 -5.298001,2.201993 l -51.000004,0 z m -1.499999,-40.499999 0,33.000004 q 0,0.612002 0.444004,1.055995 0.443993,0.444004 1.055995,0.444004 l 51.000004,0 q 0.612,0 1.056006,-0.444004 0.443994,-0.443993 0.443994,-1.055995 l 0,-33.000004 q 0,-0.612002 -0.443994,-1.055996 -0.444006,-0.444002 -1.056006,-0.444002 l -51.000004,0 q -0.612002,0 -1.055995,0.444002 -0.444004,0.443994 -0.444004,1.055996 z m 64.500004,43.500004 7.5,0 0,4.500006 q 0,1.871995 -2.201994,3.185995 -2.202006,1.314 -5.298006,1.314 l -75.000008,0 Q 4.903998,75.5 2.702003,74.186 0.49999767,72.872 0.49999767,71.000005 l 0,-4.500006 82.50000433,0 z m -33.749999,4.500006 q 0.75,0 0.75,-0.750001 0,-0.75 -0.75,-0.75 l -7.500007,0 q -0.75,0 -0.75,0.75 0,0.750001 0.75,0.750001 l 7.500007,0 z" />
    <path
       style="fill:#3a3a3a;fill-opacity:1"
       id="path5064-3"
       d="m 32.936665,50.90004 0,2.248175 q 0,0.841707 -0.597334,1.439053 -0.597341,0.59734 -1.439048,0.59734 l -5.882905,0 q -0.841707,0 -1.439048,-0.59734 -0.59734,-0.597346 -0.59734,-1.439053 l 0,-5.882902 q 0,-0.841707 0.59734,-1.43905 0.597341,-0.59734 1.439048,-0.59734 l 5.882905,0 q 0.44529,0 0.827226,0.176488 0.105893,0.04978 0.127614,0.162911 0.02081,0.120374 -0.06335,0.205449 L 31.44513,46.12041 q -0.07059,0.07059 -0.162911,0.07059 -0.02081,0 -0.06335,-0.01448 -0.162912,-0.04254 -0.318582,-0.04254 l -5.882905,0 q -0.467011,0 -0.799168,0.332159 -0.332158,0.332158 -0.332158,0.79917 l 0,5.882901 q 0,0.467012 0.332158,0.799171 0.332157,0.332152 0.799168,0.332152 l 5.882905,0 q 0.467011,0 0.799169,-0.332152 0.332158,-0.332159 0.332158,-0.799171 l 0,-1.795643 q 0,-0.09231 0.06336,-0.155671 l 0.452535,-0.45253 q 0.07059,-0.07059 0.162905,-0.07059 0.04255,0 0.08507,0.02081 0.141187,0.05611 0.141187,0.205449 z m 1.633644,-3.458241 -5.755288,5.755289 q -0.169247,0.169247 -0.402755,0.169247 -0.233504,0 -0.40275,-0.169247 l -3.040105,-3.040103 q -0.169248,-0.169247 -0.169248,-0.402752 0,-0.233506 0.169248,-0.402753 l 0.777448,-0.777448 q 0.169246,-0.169247 0.402753,-0.169247 0.233505,0 0.402753,0.169247 l 1.859901,1.859903 4.575092,-4.575088 q 0.16925,-0.169247 0.402749,-0.169247 0.233515,0 0.40275,0.169247 l 0.777452,0.777447 q 0.169252,0.169247 0.169252,0.402753 0,0.233507 -0.169252,0.402752 z" />
  </g>
</svg>
