<?xml version="1.0" encoding="UTF-8" standalone="no"?>
<svg
   xmlns:dc="http://purl.org/dc/elements/1.1/"
   xmlns:cc="http://creativecommons.org/ns#"
   xmlns:rdf="http://www.w3.org/1999/02/22-rdf-syntax-ns#"
   xmlns:svg="http://www.w3.org/2000/svg"
   xmlns="http://www.w3.org/2000/svg"
   xmlns:sodipodi="http://sodipodi.sourceforge.net/DTD/sodipodi-0.dtd"
   xmlns:inkscape="http://www.inkscape.org/namespaces/inkscape"
   version="1.1"
   id="svg4341"
   viewBox="0 0 150 150"
   height="150"
   width="150"
   preserveAspectRatio="xMidYMid"
   inkscape:version="0.91 r13725"
   sodipodi:docname="logo.150.svg">
  <sodipodi:namedview
     pagecolor="#ffffff"
     bordercolor="#666666"
     borderopacity="1"
     objecttolerance="10"
     gridtolerance="10"
     guidetolerance="10"
     inkscape:pageopacity="0"
     inkscape:pageshadow="2"
     inkscape:window-width="1920"
     inkscape:window-height="1016"
     id="namedview4228"
     showgrid="false"
     inkscape:zoom="3.8363636"
     inkscape:cx="66.633745"
     inkscape:cy="58.542409"
     inkscape:window-x="0"
     inkscape:window-y="27"
     inkscape:window-maximized="1"
     inkscape:current-layer="svg4341" />
  <metadata
     id="metadata4356">
    <rdf:RDF>
      <cc:Work
         rdf:about="">
        <dc:format>image/svg+xml</dc:format>
        <dc:type
           rdf:resource="http://purl.org/dc/dcmitype/StillImage" />
        <dc:title></dc:title>
      </cc:Work>
    </rdf:RDF>
  </metadata>
  <defs
     id="defs4343">
    <linearGradient
       gradientTransform="matrix(0.09428793,0,0,0.06314729,61.012699,24.680056)"
       spreadMethod="pad"
       gradientUnits="userSpaceOnUse"
       y2="593.78699"
       y1="3.6658268"
       x2="590.86261"
       x1="0.7414425"
       id="gradientFill">
      <stop
         id="stop4346"
         stop-opacity="1"
         stop-color="rgb(203,206,208)"
         offset="0" />
      <stop
         id="stop4348"
         stop-opacity="1"
         stop-color="rgb(132,131,139)"
         offset="1" />
    </linearGradient>
  </defs>
  <flowRoot
     transform="translate(0,-411)"
     style="font-style:normal;font-weight:normal;font-size:40px;line-height:136.00000143%;font-family:Sans;letter-spacing:-4.06999969px;word-spacing:-1.10000002px;fill:#000000;fill-opacity:1;stroke:none;stroke-width:1px;stroke-linecap:butt;stroke-linejoin:miter;stroke-opacity:1"
     id="flowRoot6251"
     xml:space="preserve"><flowRegion
       id="flowRegion6253"><rect
         y="160.55302"
         x="-486.92847"
         height="97.761703"
         width="424.88739"
         id="rect6255" /></flowRegion><flowPara
       id="flowPara6257" /></flowRoot>  <g
     id="g4327">
    <g
       id="g4319">
      <path
         id="path4350"
         d="m 88.903258,62.176092 c -15.364874,0 -27.82065,-8.341943 -27.82065,-18.632236 0,-10.29037 12.455776,-18.632313 27.82065,-18.632313 15.364952,0 27.820652,8.341943 27.820652,18.632313 0,10.290293 -12.4557,18.632236 -27.820652,18.632236 z m 4.258435,-29.979961 c -11.678674,0 -21.146107,5.702914 -21.146107,12.737805 0,7.03489 9.467433,12.737804 21.146107,12.737804 11.678597,0 20.297247,-3.898935 20.297247,-12.737804 0,-8.836091 -8.61865,-12.737805 -20.297247,-12.737805 z"
         style="fill:url(#gradientFill);fill-rule:evenodd"
         inkscape:connector-curvature="0" />
      <path
         id="path4352"
         d="m 103.45199,53.770258 c 0,0 1.68383,0.508114 2.6621,1.003111 0.33943,0.171763 0.92672,0.514518 1.35034,0.964529 0.41498,0.440751 0.6173,0.887367 0.6173,0.887367 l 6.63596,11.188539 -10.72557,0.0048 -5.01555,-9.418589 c 0,0 -1.02703,-1.764626 -1.65899,-2.276289 -0.527173,-0.426785 -0.751947,-0.578718 -1.273179,-0.578718 -0.362817,0 -2.548363,0 -2.548363,0 l 0.002,12.266806 -9.490968,0.004 0,-31.3347 19.059094,0 c 0,0 8.68077,0.156562 8.68077,8.415479 0,8.258917 -8.29495,8.873669 -8.29495,8.873669 z m -4.128189,-10.492226 -5.74574,-0.0037 -0.0029,5.32806 5.748595,-0.0019 c 0,0 2.662099,-0.0083 2.662099,-2.710327 0,-2.756394 -2.662099,-2.612177 -2.662099,-2.612177 z"
         style="fill:#1f7a7a"
         inkscape:connector-curvature="0" />
      <path
         inkscape:connector-curvature="0"
         style="fill:#3a3a3a;fill-opacity:1"
         id="path5064"
         d="m 54.061109,30.14064 0,3.746956 q 0,1.402846 -0.995556,2.398413 -0.995569,0.99557 -2.398414,0.99557 l -9.804841,0 q -1.402845,0 -2.398413,-0.99557 -0.995567,-0.995567 -0.995567,-2.398413 l 0,-9.804836 q 0,-1.402845 0.995567,-2.398415 0.995568,-0.995566 2.398413,-0.995566 l 9.804841,0 q 0.74215,0 1.378711,0.294142 0.176487,0.08297 0.21269,0.27152 0.03469,0.200623 -0.105592,0.342416 l -0.57773,0.577732 q -0.117657,0.117658 -0.271519,0.117658 -0.03469,0 -0.105589,-0.02413 -0.27152,-0.0709 -0.530971,-0.0709 l -9.804841,0 q -0.778351,0 -1.331947,0.553598 -0.553596,0.553594 -0.553596,1.331949 l 0,9.804835 q 0,0.778352 0.553596,1.331949 0.553596,0.553596 1.331947,0.553596 l 9.804841,0 q 0.778352,0 1.331949,-0.553596 0.553596,-0.553597 0.553596,-1.331949 l 0,-2.992738 q 0,-0.15386 0.105592,-0.259451 l 0.754225,-0.754218 q 0.117655,-0.117659 0.271509,-0.117659 0.07091,0 0.141788,0.03469 0.235311,0.09352 0.235311,0.342415 z m 2.72274,-5.763735 -9.592146,9.592146 q -0.282079,0.282079 -0.671258,0.282079 -0.389174,0 -0.671251,-0.282079 l -5.066841,-5.066837 q -0.282079,-0.282079 -0.282079,-0.671253 0,-0.389177 0.282079,-0.671256 l 1.295749,-1.295747 q 0.282079,-0.282078 0.671255,-0.282078 0.389175,0 0.671254,0.282078 l 3.099834,3.099839 7.625152,-7.625148 q 0.282084,-0.282079 0.671249,-0.282079 0.389191,0 0.67125,0.282079 l 1.295753,1.295747 q 0.282086,0.282079 0.282086,0.671255 0,0.389175 -0.282086,0.671254 z" />
      <path
         inkscape:connector-curvature="0"
         style="fill:#3a3a3a;fill-opacity:1"
         id="path5054"
         d="m 50.66713,40.171893 -9.804847,0 q -0.778356,0 -1.33195,0.553605 -0.553595,0.553596 -0.553595,1.33195 l 0,9.804837 q 0,0.778352 0.553595,1.331949 0.553594,0.553598 1.33195,0.553598 l 9.804847,0 q 0.778353,0 1.331949,-0.553598 0.553594,-0.553597 0.553594,-1.331949 l 0,-9.804837 q 0,-0.778354 -0.553594,-1.33195 -0.553596,-0.553605 -1.331949,-0.553605 z m 3.393989,1.885555 0,9.804837 q 0,1.402845 -0.995566,2.398415 -0.995569,0.995567 -2.398423,0.995567 l -9.804847,0 q -1.40283,0 -2.398398,-0.995567 -0.995567,-0.99557 -0.995567,-2.398415 l 0,-9.804837 q 0,-1.402845 0.995567,-2.398423 0.995568,-0.995566 2.398398,-0.995566 l 9.804847,0 q 1.402854,0 2.398423,0.995566 0.995566,0.995578 0.995566,2.398423 z" />
      <path
         inkscape:connector-curvature="0"
         style="fill:#3a3a3a;fill-opacity:1"
         id="path4446"
         d="m 32.499997,87.089931 q -5.159992,0 -8.830001,-3.669988 -3.66999,-3.67001 -3.66999,-8.830004 l 0,-55.000003 q 0,-5.159993 3.66999,-8.83 3.670009,-3.6699911 8.830001,-3.6699911 l 85.000003,0 q 5.16001,0 8.83,3.6699911 3.67001,3.670007 3.67001,8.83 l 0,55.000003 q 0,5.159994 -3.67001,8.830004 -3.66999,3.669988 -8.83,3.669988 l -85.000003,0 z m -2.499998,-67.499995 0,55.000003 q 0,1.020004 0.740007,1.759992 0.739987,0.740006 1.759991,0.740006 l 85.000003,0 q 1.02,0 1.76001,-0.740006 Q 120,75.609943 120,74.589939 l 0,-55.000003 q 0,-1.020004 -0.73999,-1.759993 Q 118.52,17.089939 117.5,17.089939 l -85.000003,0 q -1.020004,0 -1.759991,0.740004 -0.740007,0.739989 -0.740007,1.759993 z M 137.5,92.089938 l 12.5,0 0,7.500011 q 0,3.119991 -3.66999,5.309991 -3.67001,2.19 -8.83001,2.19 l -125.000007,0 q -5.1599931,0 -8.8299845,-2.19 Q -2.7160089e-7,102.70994 -2.7160089e-7,99.589949 l 0,-7.500011 L 137.5,92.089938 Z m -56.249996,7.500011 q 1.25,0 1.25,-1.250002 0,-1.250001 -1.25,-1.250001 l -12.500011,0 q -1.25,0 -1.25,1.250001 0,1.250002 1.25,1.250002 l 12.500011,0 z" />
      <path
         inkscape:connector-curvature="0"
         style="fill:#3a3a3a;fill-opacity:1"
         id="path5064-3"
         d="m 54.061109,66.090009 0,3.746958 q 0,1.402845 -0.995556,2.398421 -0.995569,0.995566 -2.398414,0.995566 l -9.804841,0 q -1.402845,0 -2.398413,-0.995566 -0.995567,-0.995576 -0.995567,-2.398421 l 0,-9.804836 q 0,-1.402846 0.995567,-2.398417 0.995568,-0.995566 2.398413,-0.995566 l 9.804841,0 q 0.74215,0 1.378711,0.294145 0.176487,0.08296 0.21269,0.271519 0.03469,0.200623 -0.105592,0.342415 l -0.57773,0.577732 q -0.117657,0.117657 -0.271519,0.117657 -0.03469,0 -0.105589,-0.02413 -0.27152,-0.0709 -0.530971,-0.0709 l -9.804841,0 q -0.778351,0 -1.331947,0.553598 -0.553596,0.553596 -0.553596,1.331949 l 0,9.804836 q 0,0.778353 0.553596,1.331951 0.553596,0.553586 1.331947,0.553586 l 9.804841,0 q 0.778352,0 1.331949,-0.553586 0.553596,-0.553598 0.553596,-1.331951 l 0,-2.992739 q 0,-0.153858 0.105592,-0.259451 l 0.754225,-0.754217 q 0.117655,-0.117658 0.271509,-0.117658 0.07091,0 0.141788,0.03469 0.235311,0.09352 0.235311,0.342415 z m 2.72274,-5.763735 -9.592146,9.592148 q -0.282079,0.282077 -0.671258,0.282077 -0.389174,0 -0.671251,-0.282077 l -5.066841,-5.066839 q -0.282079,-0.282078 -0.282079,-0.671253 0,-0.389177 0.282079,-0.671255 L 42.0781,62.213328 q 0.282077,-0.282077 0.671255,-0.282077 0.389175,0 0.671254,0.282077 l 3.099836,3.099838 7.625152,-7.625145 q 0.282084,-0.282079 0.671249,-0.282079 0.389191,0 0.67125,0.282079 l 1.295753,1.295745 q 0.282086,0.282078 0.282086,0.671255 0,0.389177 -0.282086,0.671253 z" />
    </g>
    <path
       id="path6320"
       style="font-style:normal;font-variant:normal;font-weight:normal;font-stretch:normal;font-size:medium;line-height:136.00000143%;font-family:Lato;-inkscape-font-specification:Lato;letter-spacing:-0.29042923px;word-spacing:-0.86257482px;fill:#3a3a3a;fill-opacity:1;stroke:none;stroke-width:1px;stroke-linecap:butt;stroke-linejoin:miter;stroke-opacity:1"
       d="m 7.7087229,129.32669 0,11.80647 -3.8104468,0 0,-28.29208 7.9960149,0 q 2.685081,0 4.639663,0.55282 1.954582,0.53306 3.218149,1.55971 1.283312,1.02665 1.895352,2.48765 0.612041,1.44126 0.612041,3.23789 0,1.50049 -0.473838,2.80354 -0.473838,1.30306 -1.382028,2.34945 -0.888445,1.02665 -2.1915,1.77689 -1.28331,0.7305 -2.922,1.08588 0.750244,0.47384 1.263568,1.20434 l 8.252677,11.23391 -3.395839,0 q -1.046391,0 -1.539973,-0.80947 l -7.344488,-10.10855 q -0.335635,-0.47384 -0.7305,-0.67127 -0.375122,-0.21718 -1.184595,-0.21718 l -2.9022571,0 z m 0,-2.78379 4.0276221,0 q 1.658433,0 2.922,-0.39487 1.283312,-0.41461 2.132272,-1.14511 0.868703,-0.75024 1.303054,-1.77689 0.434352,-1.02665 0.434352,-2.27047 0,-2.52714 -1.658433,-3.81045 -1.658433,-1.28331 -4.975299,-1.28331 l -4.1855681,0 0,10.6811 z"
       inkscape:connector-curvature="0" />
    <path
       id="path6322"
       style="font-style:normal;font-variant:normal;font-weight:normal;font-stretch:normal;font-size:medium;line-height:136.00000143%;font-family:Lato;-inkscape-font-specification:Lato;letter-spacing:-0.29042923px;word-spacing:-0.86257482px;fill:#3a3a3a;fill-opacity:1;stroke:none;stroke-width:1px;stroke-linecap:butt;stroke-linejoin:miter;stroke-opacity:1"
       d="m 29.393991,141.54777 q -0.256662,0.691 -0.809473,1.02664 -0.533067,0.33565 -1.105622,0.33565 l -1.480743,0 11.865692,-29.55565 q 0.236918,-0.63179 0.710756,-0.96742 0.493581,-0.33564 1.125366,-0.33564 l 1.500486,0 -11.806462,29.49642 z"
       inkscape:connector-curvature="0" />
    <path
       id="path6324"
       style="font-style:normal;font-variant:normal;font-weight:normal;font-stretch:normal;font-size:medium;line-height:136.00000143%;font-family:Lato;-inkscape-font-specification:Lato;letter-spacing:-0.29042923px;word-spacing:-0.86257482px;fill:#3a3a3a;fill-opacity:1;stroke:none;stroke-width:1px;stroke-linecap:butt;stroke-linejoin:miter;stroke-opacity:1"
       d="m 51.327903,120.81736 q 1.796635,0 3.316865,0.61204 1.539973,0.59229 2.645595,1.7374 1.125365,1.12537 1.75715,2.80354 0.631783,1.65844 0.631783,3.79071 0,0.82921 -0.177689,1.10562 -0.17769,0.2764 -0.67127,0.2764 l -13.366179,0 q 0.03949,1.89536 0.513324,3.29713 0.473839,1.40177 1.303055,2.34944 0.829216,0.92793 1.974324,1.40177 1.145109,0.4541 2.566622,0.4541 1.322799,0 2.270475,-0.29615 0.967418,-0.31589 1.658432,-0.67127 0.691014,-0.35538 1.145108,-0.65153 0.473839,-0.31589 0.809473,-0.31589 0.434352,0 0.67127,0.33563 l 0.987163,1.28331 q -0.651527,0.78973 -1.559717,1.38203 -0.908189,0.57256 -1.95458,0.94768 -1.026649,0.37512 -2.132272,0.55281 -1.105622,0.19743 -2.1915,0.19743 -2.073041,0 -3.83019,-0.69102 -1.737406,-0.71074 -3.020717,-2.05328 -1.263568,-1.36229 -1.974325,-3.35636 -0.710757,-1.99407 -0.710757,-4.58043 0,-2.09279 0.631784,-3.90917 0.651528,-1.81638 1.855865,-3.13917 1.204339,-1.34254 2.941745,-2.09279 1.737406,-0.76998 3.909163,-0.76998 z m 0.07897,2.58636 q -2.546879,0 -4.007879,1.48074 -1.461001,1.461 -1.816379,4.06711 l 10.937759,0 q 0,-1.22408 -0.355379,-2.23098 -0.335634,-1.02665 -1.006906,-1.75715 -0.651526,-0.75025 -1.599202,-1.14511 -0.947677,-0.41461 -2.152014,-0.41461 z"
       inkscape:connector-curvature="0" />
    <path
       id="path6326"
       style="font-style:normal;font-variant:normal;font-weight:normal;font-stretch:normal;font-size:medium;line-height:136.00000143%;font-family:Lato;-inkscape-font-specification:Lato;letter-spacing:-0.29042923px;word-spacing:-0.86257482px;fill:#3a3a3a;fill-opacity:1;stroke:none;stroke-width:1px;stroke-linecap:butt;stroke-linejoin:miter;stroke-opacity:1"
       d="m 68.039109,130.88641 -6.732448,-9.75316 3.376096,0 q 0.434351,0 0.631783,0.1382 0.197433,0.1382 0.355379,0.39487 l 4.896326,7.50243 q 0.177688,-0.55281 0.513323,-1.10562 l 4.304029,-6.31784 q 0.177689,-0.27641 0.375121,-0.43435 0.217176,-0.17769 0.513325,-0.17769 l 3.237892,0 -6.732447,9.55573 7.008853,10.44418 -3.376095,0 q -0.434352,0 -0.691014,-0.21718 -0.236919,-0.23692 -0.394865,-0.51332 l -5.034528,-7.83807 q -0.138203,0.57255 -0.414608,1.02665 l -4.659407,6.81142 q -0.197433,0.2764 -0.434351,0.51332 -0.217176,0.21718 -0.612042,0.21718 l -3.139176,0 7.008854,-10.24675 z"
       inkscape:connector-curvature="0" />
    <path
       id="path6328"
       style="font-style:normal;font-variant:normal;font-weight:normal;font-stretch:normal;font-size:medium;line-height:136.00000143%;font-family:Lato;-inkscape-font-specification:Lato;letter-spacing:-0.29042923px;word-spacing:-0.86257482px;fill:#3a3a3a;fill-opacity:1;stroke:none;stroke-width:1px;stroke-linecap:butt;stroke-linejoin:miter;stroke-opacity:1"
       d="m 95.374647,141.13316 q -0.513324,0 -0.789729,-0.15795 -0.276405,-0.17768 -0.434351,-0.67127 l -0.394866,-1.87561 q -0.78973,0.71076 -1.559716,1.28331 -0.750243,0.55282 -1.57946,0.94768 -0.809473,0.37512 -1.757149,0.57255 -0.927933,0.21717 -2.07304,0.21717 -1.164852,0 -2.191502,-0.31588 -1.026649,-0.33563 -1.796635,-0.98716 -0.750244,-0.65153 -1.204338,-1.6387 -0.434352,-1.0069 -0.434352,-2.36919 0,-1.18458 0.651528,-2.27047 0.651527,-1.10561 2.112527,-1.95458 1.461,-0.84896 3.810446,-1.38203 2.349448,-0.55281 5.76503,-0.63178 l 0,-1.55972 q 0,-2.3297 -1.006906,-3.5143 -1.006906,-1.20433 -2.941745,-1.20433 -1.303053,0 -2.1915,0.33563 -0.868703,0.31589 -1.520229,0.7305 -0.631784,0.39487 -1.105623,0.7305 -0.454094,0.31589 -0.908189,0.31589 -0.355378,0 -0.61204,-0.17769 -0.256663,-0.19743 -0.434353,-0.47383 l -0.631783,-1.12537 q 1.658433,-1.5992 3.573528,-2.38893 1.915095,-0.78973 4.244798,-0.78973 1.678176,0 2.98123,0.55281 1.303055,0.55281 2.191501,1.53997 0.888447,0.98717 1.342541,2.38894 0.454094,1.40177 0.454094,3.07994 l 0,12.79363 -1.559717,0 z m -7.54192,-2.15202 q 0.927933,0 1.697919,-0.17768 0.769987,-0.19743 1.441258,-0.53307 0.691014,-0.35538 1.303054,-0.84896 0.631784,-0.51333 1.224082,-1.14511 l 0,-4.14608 q -2.428421,0.079 -4.146082,0.39486 -1.697919,0.29614 -2.783798,0.78973 -1.066136,0.49358 -1.559717,1.16485 -0.473838,0.67128 -0.473838,1.50049 0,0.78973 0.256662,1.36229 0.256663,0.57255 0.691014,0.94767 0.454095,0.35538 1.046392,0.53307 0.61204,0.15794 1.303054,0.15794 z"
       inkscape:connector-curvature="0" />
    <path
       id="path6330"
       style="font-style:normal;font-variant:normal;font-weight:normal;font-stretch:normal;font-size:medium;line-height:136.00000143%;font-family:Lato;-inkscape-font-specification:Lato;letter-spacing:-0.29042923px;word-spacing:-0.86257482px;fill:#3a3a3a;fill-opacity:1;stroke:none;stroke-width:1px;stroke-linecap:butt;stroke-linejoin:miter;stroke-opacity:1"
       d="m 101.88292,141.13316 0,-19.99991 2.11252,0 q 0.75025,0 0.92794,0.7305 l 0.25666,2.0533 q 1.10562,-1.36229 2.48765,-2.23099 1.38203,-0.8687 3.1984,-0.8687 2.01381,0 3.25764,1.12536 1.26357,1.12537 1.81638,3.04046 0.43435,-1.08588 1.10562,-1.87561 0.69101,-0.78973 1.53997,-1.30305 0.84896,-0.51333 1.79664,-0.75025 0.96742,-0.23691 1.95458,-0.23691 1.57946,0 2.80354,0.51332 1.24383,0.49358 2.09278,1.461 0.86871,0.96742 1.3228,2.38893 0.4541,1.40177 0.4541,3.21815 l 0,12.7344 -3.53404,0 0,-12.7344 q 0,-2.34944 -1.02665,-3.55378 -1.02665,-1.22408 -2.96149,-1.22408 -0.8687,0 -1.65843,0.31589 -0.76999,0.29615 -1.36229,0.88844 -0.59229,0.5923 -0.94767,1.50049 -0.33564,0.88845 -0.33564,2.07304 l 0,12.7344 -3.53404,0 0,-12.7344 q 0,-2.40867 -0.96742,-3.59327 -0.96742,-1.18459 -2.82328,-1.18459 -1.30306,0 -2.40868,0.71075 -1.10562,0.69102 -2.03355,1.89536 l 0,14.90615 -3.53404,0 z"
       inkscape:connector-curvature="0" />
    <path
       id="path6332"
       style="font-style:normal;font-variant:normal;font-weight:normal;font-stretch:normal;font-size:medium;line-height:136.00000143%;font-family:Lato;-inkscape-font-specification:Lato;letter-spacing:-0.29042923px;word-spacing:-0.86257482px;fill:#3a3a3a;fill-opacity:1;stroke:none;stroke-width:1px;stroke-linecap:butt;stroke-linejoin:miter;stroke-opacity:1"
       d="m 145.63373,124.43037 q -0.23693,0.43435 -0.7305,0.43435 -0.29616,0 -0.67127,-0.21717 -0.37513,-0.21718 -0.92793,-0.47384 -0.53307,-0.27641 -1.28332,-0.49358 -0.75024,-0.23692 -1.77689,-0.23692 -0.88845,0 -1.59921,0.23692 -0.71075,0.21717 -1.22408,0.61204 -0.49357,0.39486 -0.76999,0.92793 -0.25665,0.51332 -0.25665,1.12536 0,0.76999 0.43435,1.28332 0.45409,0.51332 1.18459,0.88844 0.7305,0.37512 1.65844,0.67127 0.92793,0.27641 1.89534,0.61204 0.98716,0.31589 1.9151,0.71076 0.92793,0.39487 1.65843,0.98716 0.7305,0.59229 1.16486,1.46101 0.45409,0.84895 0.45409,2.05328 0,1.38203 -0.49358,2.56663 -0.49358,1.16486 -1.461,2.03356 -0.96742,0.84896 -2.36919,1.34254 -1.40178,0.49357 -3.23789,0.49357 -2.09279,0 -3.7907,-0.67127 -1.69793,-0.691 -2.88252,-1.75714 l 0.82922,-1.34254 q 0.15794,-0.25666 0.37511,-0.39486 0.21719,-0.1382 0.55282,-0.1382 0.35538,0 0.75024,0.2764 0.39487,0.2764 0.94767,0.61204 0.57256,0.33563 1.38203,0.61204 0.80947,0.2764 2.01381,0.2764 1.02666,0 1.79665,-0.25665 0.76998,-0.27642 1.2833,-0.7305 0.51333,-0.4541 0.75024,-1.0464 0.25667,-0.5923 0.25667,-1.26356 0,-0.82923 -0.4541,-1.36229 -0.43434,-0.55281 -1.16484,-0.92794 -0.7305,-0.39486 -1.67819,-0.67127 -0.92793,-0.29614 -1.9151,-0.61203 -0.96741,-0.3159 -1.91508,-0.71076 -0.92793,-0.41461 -1.65843,-1.02665 -0.7305,-0.61204 -1.1846,-1.50049 -0.43436,-0.90819 -0.43436,-2.1915 0,-1.14511 0.47384,-2.1915 0.47384,-1.06614 1.38203,-1.85586 0.90819,-0.80948 2.23099,-1.28332 1.3228,-0.47383 3.02071,-0.47383 1.97433,0 3.53405,0.63178 1.57945,0.61204 2.72457,1.69792 l -0.78973,1.28331 z"
       inkscape:connector-curvature="0" />
  </g>
</svg>
