<?xml version="1.0" encoding="UTF-8" standalone="no"?>
<svg
   xmlns:dc="http://purl.org/dc/elements/1.1/"
   xmlns:cc="http://creativecommons.org/ns#"
   xmlns:rdf="http://www.w3.org/1999/02/22-rdf-syntax-ns#"
   xmlns:svg="http://www.w3.org/2000/svg"
   xmlns="http://www.w3.org/2000/svg"
   xmlns:xlink="http://www.w3.org/1999/xlink"
   id="svg7132"
   version="1.1"
   viewBox="0 0 67.794281 79.592155"
   height="79.592155mm"
   width="67.794281mm">
  <defs
     id="defs7126">
    <linearGradient
       y2="593.78699"
       x2="590.86261"
       y1="3.6658268"
       x1="0.7414425"
       spreadMethod="pad"
       gradientTransform="matrix(0.07118128,0,0,0.04767211,49.24802,37.502486)"
       gradientUnits="userSpaceOnUse"
       id="linearGradient7835-9"
       xlink:href="#gradientFill-1-6-0-5" />
    <linearGradient
       spreadMethod="pad"
       gradientUnits="userSpaceOnUse"
       y2="593.78699"
       y1="3.6658268"
       x2="590.86261"
       x1="0.7414425"
       id="gradientFill-1-6-0-5"
       gradientTransform="matrix(0.05528148,0,0,0.03702356,1046.104,182.42996)">
      <stop
         id="stop6361-9-4-2-9"
         stop-opacity="1"
         stop-color="rgb(203,206,208)"
         offset="0" />
      <stop
         id="stop6363-0-9-8-7"
         stop-opacity="1"
         stop-color="rgb(132,131,139)"
         offset="1" />
    </linearGradient>
  </defs>
  <metadata
     id="metadata7129">
    <rdf:RDF>
      <cc:Work
         rdf:about="">
        <dc:format>image/svg+xml</dc:format>
        <dc:type
           rdf:resource="http://purl.org/dc/dcmitype/StillImage" />
        <dc:title></dc:title>
      </cc:Work>
    </rdf:RDF>
  </metadata>
  <g
     transform="translate(-36.40643,-25.126537)"
     id="layer1">
    <g
       id="g25047-2-3-0-0-8-2-6-0-5-0-8-1-4-0-6-0"
       transform="matrix(0.52057663,0,0,0.52057661,-610.27901,-497.90975)">
      <path
         id="path25004-3-7-1-84-28-8-7-6-4-7-4-3-9-9-1-1"
         transform="translate(0,-46.062989)"
         d="m 1248.5293,1054.3789 c -1.523,0 -2.6914,1.1664 -2.6914,2.6895 v 86.8046 53.5254 c 0,1.523 1.1683,2.6914 2.6914,2.6914 h 64.1406 53.5235 c 1.5232,2e-4 2.6933,-1.1683 2.6933,-2.6914 v -47.5722 -67.4258 c -9.4375,-9.4373 -17.3671,-17.3642 -28.0234,-28.0215 z"
         style="fill:#ffffff;fill-opacity:1;fill-rule:evenodd;stroke:none;stroke-width:1px;stroke-linecap:butt;stroke-linejoin:miter;stroke-opacity:1" />
      <path
         style="color:#000000;font-style:normal;font-variant:normal;font-weight:normal;font-stretch:normal;font-size:medium;line-height:normal;font-family:sans-serif;text-indent:0;text-align:start;text-decoration:none;text-decoration-line:none;text-decoration-style:solid;text-decoration-color:#000000;letter-spacing:normal;word-spacing:normal;text-transform:none;writing-mode:lr-tb;direction:ltr;baseline-shift:baseline;text-anchor:start;white-space:normal;clip-rule:nonzero;display:inline;overflow:visible;visibility:visible;opacity:1;isolation:auto;mix-blend-mode:normal;color-interpolation:sRGB;color-interpolation-filters:linearRGB;solid-color:#000000;solid-opacity:1;fill:#000000;fill-opacity:1;fill-rule:nonzero;stroke:none;stroke-width:1.60000002;stroke-linecap:round;stroke-linejoin:round;stroke-miterlimit:4;stroke-dasharray:none;stroke-dashoffset:0;stroke-opacity:1;color-rendering:auto;image-rendering:auto;shape-rendering:auto;text-rendering:auto;enable-background:accumulate"
         d="m 1248.5305,1004.725 v 0 c -3.4503,0 -6.2822,2.8305 -6.2822,6.2808 v 86.8054 7.3954 46.1285 h 10e-4 c 0,3.4502 2.8305,6.2821 6.2808,6.2821 h 71.6153 46.05 v 0 c 3.4502,0 6.2821,-2.8305 6.2821,-6.2808 v -46.1298 -1.4425 -68.9123 l -0.7935,-0.7935 -2.7953,-2.7953 -22.9478,-22.9478 -3.5902,-3.5903 h -93.8206 z m 0,3.5916 h 92.334 v 28.0218 h 28.0232 10e-4 v 67.4258 h -10e-4 v 47.5723 c 0,1.5231 -1.1689,2.6906 -2.692,2.6905 h -53.5238 v 0 h -64.1414 c -1.5231,0 -2.6906,-1.1689 -2.6906,-2.6919 v -53.5239 h -10e-4 v -86.8054 c 0,-1.5231 1.1689,-2.6906 2.692,-2.6906 z m 95.9243,3.5902 20.8427,20.8414 h -20.8427 z"
         id="path24279-8-1-5-25-2-4-3-1-7-8-3-8-2-3-0-0" />
    </g>
    <g
       id="text8959-9-6-0-6-7"
       style="font-style:normal;font-variant:normal;font-weight:normal;font-stretch:normal;font-size:10.23738861px;line-height:0%;font-family:Lato;-inkscape-font-specification:'Lato, Normal';text-align:center;letter-spacing:-1.26695526px;word-spacing:-0.34242037px;writing-mode:lr-tb;text-anchor:middle;fill:#1f7a7a;fill-opacity:1;stroke:none;stroke-width:1px;stroke-linecap:butt;stroke-linejoin:miter;stroke-opacity:1"
       transform="matrix(2.274343,0,0,2.274343,-2428.8445,1492.5812)"
       aria-label="``` { r }">
      <path
         id="path9625"
         d="m 1090.6757,-621.13513 q 0.1689,0 0.2508,0.0563 0.082,0.0512 0.1536,0.16891 l 0.7627,1.23873 -0.5221,0 q -0.1075,0 -0.1741,-0.0307 -0.067,-0.0358 -0.1382,-0.11261 l -1.1978,-1.32063 z" />
      <path
         id="path9627"
         d="m 1093.5077,-621.13513 q 0.1689,0 0.2508,0.0563 0.082,0.0512 0.1536,0.16891 l 0.7627,1.23873 -0.5221,0 q -0.1075,0 -0.1741,-0.0307 -0.066,-0.0358 -0.1382,-0.11261 l -1.1978,-1.32063 z" />
      <path
         id="path9629"
         d="m 1096.3397,-621.13513 q 0.1689,0 0.2508,0.0563 0.082,0.0512 0.1536,0.16891 l 0.7627,1.23873 -0.5221,0 q -0.1075,0 -0.1741,-0.0307 -0.067,-0.0358 -0.1382,-0.11261 l -1.1978,-1.32063 z" />
      <path
         id="path9631"
         d="m 1099.6903,-615.89358 q 0,-0.32248 -0.1792,-0.52723 -0.1791,-0.20987 -0.517,-0.20987 l 0,-0.5477 q 0.3379,0 0.517,-0.20474 0.1792,-0.20475 0.1792,-0.53235 0,-0.25593 -0.041,-0.50675 -0.041,-0.25082 -0.087,-0.50163 -0.046,-0.25082 -0.087,-0.50675 -0.041,-0.25594 -0.041,-0.52211 0,-0.35319 0.1024,-0.65007 0.1075,-0.29689 0.3174,-0.51187 0.2149,-0.21499 0.5272,-0.33272 0.3173,-0.11773 0.732,-0.11773 l 0.2764,0 0,0.40438 q 0,0.10237 -0.072,0.14844 -0.072,0.0461 -0.1331,0.0461 l -0.1024,0 q -0.3992,0 -0.6244,0.26105 -0.2253,0.25594 -0.2253,0.69615 0,0.28664 0.036,0.55281 0.036,0.26618 0.082,0.52211 0.046,0.25082 0.082,0.50163 0.036,0.25082 0.036,0.50675 0,0.19451 -0.056,0.36343 -0.056,0.1638 -0.1638,0.29689 -0.1024,0.12796 -0.2457,0.22522 -0.1382,0.0921 -0.3071,0.1382 0.1689,0.0461 0.3071,0.14333 0.1433,0.0921 0.2457,0.22522 0.1075,0.13308 0.1638,0.29688 0.056,0.1638 0.056,0.35319 0,0.25594 -0.036,0.50675 -0.036,0.25082 -0.082,0.50675 -0.046,0.25082 -0.082,0.51699 -0.036,0.26617 -0.036,0.55282 0,0.44533 0.2253,0.70126 0.2252,0.25594 0.6244,0.25594 l 0.1024,0 q 0.061,0 0.1331,0.0461 0.072,0.0461 0.072,0.14844 l 0,0.40949 -0.2764,0 q -0.4147,0 -0.732,-0.12285 -0.3123,-0.11773 -0.5272,-0.33271 -0.2099,-0.21499 -0.3174,-0.51187 -0.1024,-0.29688 -0.1024,-0.65007 0,-0.26618 0.041,-0.51699 0.041,-0.25594 0.087,-0.50675 0.046,-0.25594 0.087,-0.50675 0.041,-0.25082 0.041,-0.50675 z" />
      <path
         id="path9633"
         d="m 1102.19,-613.71814 0,-5.18524 0.5221,0 q 0.1485,0 0.2048,0.0563 0.056,0.0563 0.077,0.19451 l 0.056,0.78828 q 0.2457,-0.53235 0.604,-0.82923 0.3635,-0.302 0.8805,-0.302 0.1638,0 0.3122,0.0358 0.1536,0.0358 0.2713,0.11261 l -0.066,0.68079 q -0.031,0.12796 -0.1536,0.12796 -0.072,0 -0.2099,-0.0307 -0.1382,-0.0307 -0.3122,-0.0307 -0.2457,0 -0.4402,0.0768 -0.1945,0.0717 -0.3481,0.21498 -0.1484,0.13821 -0.2662,0.34296 -0.1177,0.20474 -0.215,0.47092 l 0,3.27596 z" />
      <path
         id="path9635"
         d="m 1106.7476,-615.89358 q 0,0.25593 0.041,0.50675 0.041,0.25081 0.087,0.50675 0.046,0.25081 0.087,0.50675 0.041,0.25081 0.041,0.51699 0,0.35319 -0.1074,0.65007 -0.1024,0.29688 -0.3174,0.51187 -0.2099,0.21498 -0.5272,0.33271 -0.3123,0.12285 -0.7269,0.12285 l -0.2764,0 0,-0.40949 q 0,-0.10238 0.072,-0.14844 0.077,-0.0461 0.1331,-0.0461 l 0.1023,0 q 0.3993,0 0.6245,-0.25594 0.2252,-0.25593 0.2252,-0.70126 0,-0.28665 -0.036,-0.55282 -0.036,-0.26617 -0.082,-0.51699 -0.046,-0.25593 -0.082,-0.50675 -0.036,-0.25081 -0.036,-0.50675 0,-0.18939 0.056,-0.35319 0.056,-0.1638 0.1587,-0.29688 0.1075,-0.13309 0.2457,-0.22522 0.1433,-0.0973 0.3122,-0.14333 -0.1689,-0.0461 -0.3122,-0.1382 -0.1382,-0.0973 -0.2457,-0.22522 -0.1024,-0.13309 -0.1587,-0.29689 -0.056,-0.16892 -0.056,-0.36343 0,-0.25593 0.036,-0.50675 0.036,-0.25081 0.082,-0.50163 0.046,-0.25593 0.082,-0.52211 0.036,-0.26617 0.036,-0.55281 0,-0.44021 -0.2252,-0.69615 -0.2252,-0.26105 -0.6245,-0.26105 l -0.1023,0 q -0.056,0 -0.1331,-0.0461 -0.072,-0.0461 -0.072,-0.14844 l 0,-0.40438 0.2764,0 q 0.4146,0 0.7269,0.11773 0.3173,0.11773 0.5272,0.33272 0.215,0.21498 0.3174,0.51187 0.1074,0.29688 0.1074,0.65007 0,0.26617 -0.041,0.52211 -0.041,0.25593 -0.087,0.50675 -0.046,0.25081 -0.087,0.50163 -0.041,0.25082 -0.041,0.50675 0,0.3276 0.1792,0.53235 0.1791,0.20474 0.517,0.20474 l 0,0.5477 q -0.3379,0 -0.517,0.20987 -0.1792,0.20475 -0.1792,0.52723 z" />
    </g>
    <g
       id="g18395">
      <path
         style="fill:url(#linearGradient7835-9);fill-rule:evenodd"
         d="m 70.303622,65.809552 c -11.599483,0 -21.002809,-6.297599 -21.002809,-14.066169 0,-7.76857 9.403326,-14.066168 21.002809,-14.066168 11.599613,0 21.00281,6.297598 21.00281,14.066168 0,7.76857 -9.403197,14.066169 -21.00281,14.066169 z m 3.214919,-22.632931 c -8.816689,0 -15.963985,4.305271 -15.963985,9.616169 0,5.310899 7.147296,9.616298 15.963985,9.616298 8.81656,0 15.323009,-2.943489 15.323009,-9.616298 0,-6.67062 -6.506449,-9.616169 -15.323009,-9.616169 z"
         id="path6365-3-6-1-9-2" />
      <path
         style="fill:#1f7a7a"
         d="m 81.286982,59.463668 c 0,0 1.271263,0.383581 2.00971,0.757247 0.256235,0.129662 0.69969,0.388473 1.019405,0.728146 0.313277,0.332849 0.465988,0.669946 0.465988,0.669946 l 5.009725,8.446629 -8.09704,0 -3.786362,-7.11047 c 0,0 -0.775402,-1.332167 -1.252464,-1.718452 -0.398002,-0.322161 -0.567709,-0.436888 -0.961205,-0.436888 -0.273875,0 -1.923826,0 -1.923826,0 l 0,9.260659 -7.165064,0 0,-23.655684 14.388329,0 c 0,0 6.553447,0.118461 6.553447,6.353095 0,6.23502 -6.262188,6.699076 -6.262188,6.699076 z m -3.116544,-7.920895 -4.33759,0 0,4.022382 4.339778,0 c 0,0 2.009711,0 2.009711,-2.04615 0,-2.080915 -2.009711,-1.971983 -2.009711,-1.971983 z"
         id="path6367-6-3-2-4-6" />
    </g>
    <flowRoot
       xml:space="preserve"
       id="flowRoot9274-4"
       style="font-style:normal;font-weight:normal;font-size:40px;line-height:1.25;font-family:sans-serif;letter-spacing:0px;word-spacing:0px;fill:#000000;fill-opacity:1;stroke:none"
       transform="matrix(0.079375,0,0,0.079375,45.713545,39.261398)"><flowRegion
         id="flowRegion9276-5"><rect
           id="rect9278-2"
           width="5005.7144"
           height="4205.7144"
           x="-2605.7144"
           y="-1948.4504" /></flowRegion><flowPara
         id="flowPara9280-0" /></flowRoot>  </g>
</svg>
