<?xml version="1.0" encoding="UTF-8" standalone="no"?>
<svg
   xmlns:dc="http://purl.org/dc/elements/1.1/"
   xmlns:cc="http://creativecommons.org/ns#"
   xmlns:rdf="http://www.w3.org/1999/02/22-rdf-syntax-ns#"
   xmlns:svg="http://www.w3.org/2000/svg"
   xmlns="http://www.w3.org/2000/svg"
   xmlns:xlink="http://www.w3.org/1999/xlink"
   id="svg6418"
   version="1.1"
   viewBox="0 0 67.794281 79.592155"
   height="150"
   width="150">
  <defs
     id="defs6412">
    <linearGradient
       y2="593.78699"
       x2="590.86261"
       y1="3.6658268"
       x1="0.7414425"
       spreadMethod="pad"
       gradientTransform="matrix(0.07118128,0,0,0.04767211,40.93252,30.698926)"
       gradientUnits="userSpaceOnUse"
       id="linearGradient7835"
       xlink:href="#gradientFill-1-6-0-5" />
    <linearGradient
       spreadMethod="pad"
       gradientUnits="userSpaceOnUse"
       y2="593.78699"
       y1="3.6658268"
       x2="590.86261"
       x1="0.7414425"
       id="gradientFill-1-6-0-5"
       gradientTransform="matrix(0.05528148,0,0,0.03702356,1046.104,182.42996)">
      <stop
         id="stop6361-9-4-2-9"
         stop-opacity="1"
         stop-color="rgb(203,206,208)"
         offset="0" />
      <stop
         id="stop6363-0-9-8-7"
         stop-opacity="1"
         stop-color="rgb(132,131,139)"
         offset="1" />
    </linearGradient>
  </defs>
  <metadata
     id="metadata6415">
    <rdf:RDF>
      <cc:Work
         rdf:about="">
        <dc:format>image/svg+xml</dc:format>
        <dc:type
           rdf:resource="http://purl.org/dc/dcmitype/StillImage" />
        <dc:title></dc:title>
      </cc:Work>
    </rdf:RDF>
  </metadata>
  <g
     transform="translate(-28.09097,-18.322977)"
     id="layer1">
    <g
       id="g25047-2-3-0-0-8-2-6-0-5-0-8-1-4-0-6"
       transform="matrix(0.52057663,0,0,0.52057661,-618.59447,-504.71331)">
      <path
         id="path25004-3-7-1-84-28-8-7-6-4-7-4-3-9-9-1"
         transform="translate(0,-46.062989)"
         d="m 1248.5293,1054.3789 c -1.523,0 -2.6914,1.1664 -2.6914,2.6895 v 86.8046 53.5254 c 0,1.523 1.1683,2.6914 2.6914,2.6914 h 64.1406 53.5235 c 1.5232,2e-4 2.6933,-1.1683 2.6933,-2.6914 v -47.5722 -67.4258 c -9.4375,-9.4373 -17.3671,-17.3642 -28.0234,-28.0215 z"
         style="fill:#ffffff;fill-opacity:1;fill-rule:evenodd;stroke:none;stroke-width:1px;stroke-linecap:butt;stroke-linejoin:miter;stroke-opacity:1" />
      <path
         style="color:#000000;font-style:normal;font-variant:normal;font-weight:normal;font-stretch:normal;font-size:medium;line-height:normal;font-family:sans-serif;text-indent:0;text-align:start;text-decoration:none;text-decoration-line:none;text-decoration-style:solid;text-decoration-color:#000000;letter-spacing:normal;word-spacing:normal;text-transform:none;writing-mode:lr-tb;direction:ltr;baseline-shift:baseline;text-anchor:start;white-space:normal;clip-rule:nonzero;display:inline;overflow:visible;visibility:visible;opacity:1;isolation:auto;mix-blend-mode:normal;color-interpolation:sRGB;color-interpolation-filters:linearRGB;solid-color:#000000;solid-opacity:1;fill:#000000;fill-opacity:1;fill-rule:nonzero;stroke:none;stroke-width:1.60000002;stroke-linecap:round;stroke-linejoin:round;stroke-miterlimit:4;stroke-dasharray:none;stroke-dashoffset:0;stroke-opacity:1;color-rendering:auto;image-rendering:auto;shape-rendering:auto;text-rendering:auto;enable-background:accumulate"
         d="m 1248.5305,1004.725 v 0 c -3.4503,0 -6.2822,2.8305 -6.2822,6.2808 v 86.8054 7.3954 46.1285 h 10e-4 c 0,3.4502 2.8305,6.2821 6.2808,6.2821 h 71.6153 46.05 v 0 c 3.4502,0 6.2821,-2.8305 6.2821,-6.2808 v -46.1298 -1.4425 -68.9123 l -0.7935,-0.7935 -2.7953,-2.7953 -22.9478,-22.9478 -3.5902,-3.5903 h -93.8206 z m 0,3.5916 h 92.334 v 28.0218 h 28.0232 10e-4 v 67.4258 h -10e-4 v 47.5723 c 0,1.5231 -1.1689,2.6906 -2.692,2.6905 h -53.5238 v 0 h -64.1414 c -1.5231,0 -2.6906,-1.1689 -2.6906,-2.6919 v -53.5239 h -10e-4 v -86.8054 c 0,-1.5231 1.1689,-2.6906 2.692,-2.6906 z m 95.9243,3.5902 20.8427,20.8414 h -20.8427 z"
         id="path24279-8-1-5-25-2-4-3-1-7-8-3-8-2-3-0" />
    </g>
    <g
       id="text8959-9-6-0-6"
       style="font-style:normal;font-variant:normal;font-weight:normal;font-stretch:normal;font-size:21.16666603px;line-height:0%;font-family:Lato;-inkscape-font-specification:'Lato, Normal';font-variant-ligatures:normal;font-variant-caps:normal;font-variant-numeric:normal;font-feature-settings:normal;text-align:center;letter-spacing:-2.88149071px;word-spacing:-0.77878135px;writing-mode:lr-tb;text-anchor:middle;fill:#1f7a7a;fill-opacity:1;stroke:none;stroke-width:2.27434301px;stroke-linecap:butt;stroke-linejoin:miter;stroke-opacity:1"
       aria-label="``` &lt;&lt;&gt;&gt;">
      <path
         id="path8392"
         style="stroke-width:2.27434301px"
         d="m 34.798549,74.636796 q 0.34925,0 0.518583,0.116417 0.169334,0.105833 0.3175,0.34925 l 1.576917,2.561167 h -1.0795 q -0.22225,0 -0.359833,-0.0635 -0.137584,-0.07408 -0.28575,-0.232834 l -2.4765,-2.7305 z" />
      <path
         id="path8394"
         style="stroke-width:2.27434301px"
         d="m 40.391993,74.636796 q 0.34925,0 0.518583,0.116417 0.169334,0.105833 0.3175,0.34925 l 1.576917,2.561167 h -1.0795 q -0.22225,0 -0.359833,-0.0635 -0.137584,-0.07408 -0.28575,-0.232834 l -2.4765,-2.7305 z" />
      <path
         id="path8396"
         style="stroke-width:2.27434301px"
         d="m 45.985437,74.636796 q 0.34925,0 0.518583,0.116417 0.169333,0.105833 0.3175,0.34925 l 1.576917,2.561167 h -1.0795 q -0.22225,0 -0.359834,-0.0635 -0.137583,-0.07408 -0.28575,-0.232834 l -2.4765,-2.7305 z" />
      <path
         id="path8398"
         style="stroke-width:2.27434301px"
         d="m 51.873799,82.457879 8.180916,-4.243916 v 1.344083 q 0,0.179917 -0.08467,0.3175 -0.08467,0.127 -0.296333,0.232834 l -4.751917,2.412999 q -0.211666,0.116417 -0.455083,0.201084 -0.232833,0.07408 -0.497417,0.137583 0.264584,0.05292 0.497417,0.137583 0.243417,0.08467 0.455083,0.1905 l 4.751917,2.402417 q 0.211667,0.105833 0.296333,0.243417 0.08467,0.137583 0.08467,0.306916 v 1.354667 l -8.180916,-4.2545 z" />
      <path
         id="path8400"
         style="stroke-width:2.27434301px"
         d="m 61.270628,82.457879 8.180917,-4.243916 v 1.344083 q 0,0.179917 -0.08467,0.3175 -0.08467,0.127 -0.296333,0.232834 l -4.751917,2.412999 q -0.211667,0.116417 -0.455083,0.201084 -0.232834,0.07408 -0.497417,0.137583 0.264583,0.05292 0.497417,0.137583 0.243416,0.08467 0.455083,0.1905 l 4.751917,2.402417 q 0.211666,0.105833 0.296333,0.243417 0.08467,0.137583 0.08467,0.306916 v 1.354667 l -8.180917,-4.2545 z" />
      <path
         id="path8402"
         style="stroke-width:2.27434301px"
         d="m 71.33421,87.495546 v -1.354667 q 0,-0.169333 0.08467,-0.306916 0.08467,-0.137584 0.296334,-0.243417 l 4.751916,-2.402417 q 0.211667,-0.105833 0.4445,-0.1905 0.232833,-0.08467 0.497417,-0.137583 -0.264584,-0.0635 -0.497417,-0.137583 -0.232833,-0.08467 -0.4445,-0.201084 L 71.71521,80.10838 q -0.211667,-0.105834 -0.296334,-0.232834 -0.08467,-0.137583 -0.08467,-0.3175 v -1.344083 l 8.180916,4.243916 v 0.783167 z" />
      <path
         id="path8404"
         style="stroke-width:2.27434301px"
         d="m 80.731037,87.495546 v -1.354667 q 0,-0.169333 0.08467,-0.306916 0.08467,-0.137584 0.296333,-0.243417 l 4.751917,-2.402417 q 0.211666,-0.105833 0.4445,-0.1905 0.232833,-0.08467 0.497416,-0.137583 -0.264583,-0.0635 -0.497416,-0.137583 -0.232834,-0.08467 -0.4445,-0.201084 L 81.112037,80.10838 q -0.211666,-0.105834 -0.296333,-0.232834 -0.08467,-0.137583 -0.08467,-0.3175 v -1.344083 l 8.180917,4.243916 v 0.783167 z" />
    </g>
    <g
       id="g18418">
      <path
         style="fill:url(#linearGradient7835);fill-rule:evenodd;stroke-width:1.28761542"
         d="m 61.988122,59.005992 c -11.599483,0 -21.002809,-6.297599 -21.002809,-14.066169 0,-7.76857 9.403326,-14.066168 21.002809,-14.066168 11.599613,0 21.00281,6.297598 21.00281,14.066168 0,7.76857 -9.403197,14.066169 -21.00281,14.066169 z m 3.214919,-22.632931 c -8.816689,0 -15.963985,4.305271 -15.963985,9.616169 0,5.310899 7.147296,9.616298 15.963985,9.616298 8.81656,0 15.323009,-2.943489 15.323009,-9.616298 0,-6.67062 -6.506449,-9.616169 -15.323009,-9.616169 z"
         id="path6365-3-6-1-9" />
      <path
         style="fill:#1f7a7a;stroke-width:1.28761542"
         d="m 72.971482,52.660108 c 0,0 1.271263,0.383581 2.00971,0.757247 0.256235,0.129662 0.69969,0.388473 1.019405,0.728146 0.313277,0.332849 0.465988,0.669946 0.465988,0.669946 l 5.009725,8.446629 h -8.09704 l -3.786362,-7.11047 c 0,0 -0.775402,-1.332167 -1.252464,-1.718452 -0.398002,-0.322161 -0.567709,-0.436888 -0.961205,-0.436888 -0.273875,0 -1.923826,0 -1.923826,0 v 9.260659 H 58.290349 V 39.601241 h 14.388329 c 0,0 6.553447,0.118461 6.553447,6.353095 0,6.23502 -6.262188,6.699076 -6.262188,6.699076 z m -3.116544,-7.920895 h -4.33759 v 4.022382 h 4.339778 c 0,0 2.009711,0 2.009711,-2.04615 0,-2.080915 -2.009711,-1.971983 -2.009711,-1.971983 z"
         id="path6367-6-3-2-4" />
    </g>
   </g>
</svg>
