<?xml version="1.0" encoding="UTF-8" standalone="no"?>
<!-- Created with Inkscape (http://www.inkscape.org/) -->

<svg
   xmlns:dc="http://purl.org/dc/elements/1.1/"
   xmlns:cc="http://creativecommons.org/ns#"
   xmlns:rdf="http://www.w3.org/1999/02/22-rdf-syntax-ns#"
   xmlns:svg="http://www.w3.org/2000/svg"
   xmlns="http://www.w3.org/2000/svg"
   xmlns:xlink="http://www.w3.org/1999/xlink"
   xmlns:sodipodi="http://sodipodi.sourceforge.net/DTD/sodipodi-0.dtd"
   xmlns:inkscape="http://www.inkscape.org/namespaces/inkscape"
   width="67.794281mm"
   height="79.592155mm"
   viewBox="0 0 67.794281 79.592155"
   version="1.1"
   id="svg6418"
   inkscape:version="0.92.1 r15371"
   sodipodi:docname="template-rnw.svg">
  <defs
     id="defs6412">
    <linearGradient
       inkscape:collect="always"
       xlink:href="#gradientFill-1-6-0-5"
       id="linearGradient7835"
       gradientUnits="userSpaceOnUse"
       gradientTransform="matrix(0.05528148,0,0,0.03702356,1046.104,182.42996)"
       spreadMethod="pad"
       x1="0.7414425"
       y1="3.6658268"
       x2="590.86261"
       y2="593.78699" />
    <linearGradient
       gradientTransform="matrix(0.05528148,0,0,0.03702356,1046.104,182.42996)"
       id="gradientFill-1-6-0-5"
       x1="0.7414425"
       x2="590.86261"
       y1="3.6658268"
       y2="593.78699"
       gradientUnits="userSpaceOnUse"
       spreadMethod="pad">
      <stop
         offset="0"
         stop-color="rgb(203,206,208)"
         stop-opacity="1"
         id="stop6361-9-4-2-9" />
      <stop
         offset="1"
         stop-color="rgb(132,131,139)"
         stop-opacity="1"
         id="stop6363-0-9-8-7" />
    </linearGradient>
  </defs>
  <sodipodi:namedview
     id="base"
     pagecolor="#ffffff"
     bordercolor="#666666"
     borderopacity="1.0"
     inkscape:pageopacity="0.0"
     inkscape:pageshadow="2"
     inkscape:zoom="0.35"
     inkscape:cx="-877.59917"
     inkscape:cy="-192.44674"
     inkscape:document-units="mm"
     inkscape:current-layer="layer1"
     showgrid="false"
     inkscape:window-width="1920"
     inkscape:window-height="1016"
     inkscape:window-x="0"
     inkscape:window-y="27"
     inkscape:window-maximized="1" />
  <metadata
     id="metadata6415">
    <rdf:RDF>
      <cc:Work
         rdf:about="">
        <dc:format>image/svg+xml</dc:format>
        <dc:type
           rdf:resource="http://purl.org/dc/dcmitype/StillImage" />
        <dc:title />
      </cc:Work>
    </rdf:RDF>
  </metadata>
  <g
     inkscape:label="Layer 1"
     inkscape:groupmode="layer"
     id="layer1"
     transform="translate(-28.09097,-18.322977)">
    <path
       id="path25004-3-7-1-84-28-8-7-6-4-7-4-3-9-9-1"
       d="m 31.360705,20.192373 c -0.792838,0 -1.401079,0.607201 -1.401079,1.400091 V 66.780909 94.64498 c 0,0.792838 0.608189,1.40108 1.401079,1.40108 h 33.390098 27.863083 c 0.792942,1.04e-4 1.402069,-0.60819 1.402069,-1.40108 V 69.880005 34.779711 C 89.103013,29.866873 84.975049,25.740315 79.427628,20.192373 Z"
       style="fill:#ffffff;fill-opacity:1;fill-rule:evenodd;stroke:none;stroke-width:0.5205766px;stroke-linecap:butt;stroke-linejoin:miter;stroke-opacity:1"
       inkscape:connector-curvature="0" />
    <path
       inkscape:connector-curvature="0"
       style="color:#000000;font-style:normal;font-variant:normal;font-weight:normal;font-stretch:normal;font-size:medium;line-height:normal;font-family:sans-serif;text-indent:0;text-align:start;text-decoration:none;text-decoration-line:none;text-decoration-style:solid;text-decoration-color:#000000;letter-spacing:normal;word-spacing:normal;text-transform:none;writing-mode:lr-tb;direction:ltr;baseline-shift:baseline;text-anchor:start;white-space:normal;clip-rule:nonzero;display:inline;overflow:visible;visibility:visible;opacity:1;isolation:auto;mix-blend-mode:normal;color-interpolation:sRGB;color-interpolation-filters:linearRGB;solid-color:#000000;solid-opacity:1;fill:#000000;fill-opacity:1;fill-rule:nonzero;stroke:none;stroke-width:0.83292258;stroke-linecap:round;stroke-linejoin:round;stroke-miterlimit:4;stroke-dasharray:none;stroke-dashoffset:0;stroke-opacity:1;color-rendering:auto;image-rendering:auto;shape-rendering:auto;text-rendering:auto;enable-background:accumulate"
       d="m 31.36133,18.323024 v 0 c -1.796145,0 -3.270366,1.473493 -3.270366,3.269638 v 45.188861 3.849872 24.013418 h 5.2e-4 c 0,1.796094 1.473492,3.270315 3.269638,3.270315 h 37.281251 23.972554 v 0 c 1.796094,0 3.270315,-1.473492 3.270315,-3.269638 V 70.631395 69.880463 34.006332 L 95.472164,33.593254 94.016996,32.138087 82.070908,20.191999 80.201934,18.322972 H 31.361122 Z m 0,1.869703 h 48.066923 v 14.587494 h 14.588223 5.2e-4 v 35.100294 h -5.2e-4 v 24.765027 c 0,0.79289 -0.608502,1.400664 -1.401393,1.400612 H 64.751844 v 0 H 31.36133 c -0.79289,0 -1.400663,-0.608502 -1.400663,-1.401341 v -27.86329 h -5.21e-4 V 21.592662 c 0,-0.79289 0.608502,-1.400663 1.401392,-1.400663 z m 49.935949,1.868975 10.850222,10.849545 H 81.297279 Z"
       id="path24279-8-1-5-25-2-4-3-1-7-8-3-8-2-3-0" />
    <g
       id="g7490"
       transform="matrix(1.2876154,0,0,1.2876154,-1306.0471,-204.2007)">
      <g
         aria-label="&lt;&lt;&gt;&gt;="
         transform="matrix(1.7663217,0,0,1.7663217,-878.45552,1312.4869)"
         style="font-style:normal;font-variant:normal;font-weight:normal;font-stretch:normal;font-size:10.23738861px;line-height:0%;font-family:Lato;-inkscape-font-specification:'Lato, Normal';font-variant-ligatures:normal;font-variant-caps:normal;font-variant-numeric:normal;font-feature-settings:normal;text-align:center;letter-spacing:-1.26695526px;word-spacing:-0.34242037px;writing-mode:lr-tb;text-anchor:middle;fill:#1f7a7a;fill-opacity:1;stroke:none;stroke-width:1px;stroke-linecap:butt;stroke-linejoin:miter;stroke-opacity:1"
         id="text8959-9-6-0-6">
        <path
           d="m 1086.9818,-617.35241 3.9567,-2.0526 v 0.65008 q 0,0.087 -0.041,0.15356 -0.041,0.0614 -0.1434,0.11261 l -2.2982,1.16706 q -0.1024,0.0563 -0.2202,0.0972 -0.1126,0.0358 -0.2405,0.0666 0.1279,0.0256 0.2405,0.0665 0.1178,0.0409 0.2202,0.0921 l 2.2982,1.16194 q 0.1024,0.0512 0.1434,0.11773 0.041,0.0665 0.041,0.14844 v 0.6552 l -3.9567,-2.05772 z"
           style=""
           id="path9016" />
        <path
           d="m 1091.6533,-617.35241 3.9568,-2.0526 v 0.65008 q 0,0.087 -0.041,0.15356 -0.041,0.0614 -0.1433,0.11261 l -2.2983,1.16706 q -0.1024,0.0563 -0.2201,0.0972 -0.1126,0.0358 -0.2406,0.0666 0.128,0.0256 0.2406,0.0665 0.1177,0.0409 0.2201,0.0921 l 2.2983,1.16194 q 0.1024,0.0512 0.1433,0.11773 0.041,0.0665 0.041,0.14844 v 0.6552 l -3.9568,-2.05772 z"
           style=""
           id="path9018" />
        <path
           d="m 1096.6473,-614.91591 v -0.6552 q 0,-0.0819 0.041,-0.14844 0.041,-0.0665 0.1433,-0.11773 l 2.2983,-1.16194 q 0.1023,-0.0512 0.215,-0.0921 0.1126,-0.0409 0.2405,-0.0665 -0.1279,-0.0307 -0.2405,-0.0666 -0.1127,-0.0409 -0.215,-0.0972 l -2.2983,-1.16706 q -0.1024,-0.0512 -0.1433,-0.11261 -0.041,-0.0666 -0.041,-0.15356 v -0.65008 l 3.9568,2.0526 v 0.37878 z"
           style=""
           id="path9020" />
        <path
           d="m 1101.3188,-614.91591 v -0.6552 q 0,-0.0819 0.041,-0.14844 0.041,-0.0665 0.1433,-0.11773 l 2.2983,-1.16194 q 0.1024,-0.0512 0.215,-0.0921 0.1126,-0.0409 0.2406,-0.0665 -0.128,-0.0307 -0.2406,-0.0666 -0.1126,-0.0409 -0.215,-0.0972 l -2.2983,-1.16706 q -0.1024,-0.0512 -0.1433,-0.11261 -0.041,-0.0666 -0.041,-0.15356 v -0.65008 l 3.9568,2.0526 v 0.37878 z"
           style=""
           id="path9022" />
        <path
           d="m 1105.6065,-616.65627 h 4.402 v 0.69102 h -4.402 z m 0,-1.71476 h 4.402 v 0.69102 h -4.402 z"
           style=""
           id="path9024" />
      </g>
      <path
         id="path6365-3-6-1-9"
         d="m 1062.4564,204.41406 c -9.0085,0 -16.3114,-4.8909 -16.3114,-10.9242 0,-6.0333 7.3029,-10.9242 16.3114,-10.9242 9.0086,0 16.3114,4.8909 16.3114,10.9242 0,6.0333 -7.3028,10.9242 -16.3114,10.9242 z m 2.4968,-17.5774 c -6.8473,0 -12.3981,3.3436 -12.3981,7.4682 0,4.1246 5.5508,7.4683 12.3981,7.4683 6.8472,0 11.9003,-2.286 11.9003,-7.4683 0,-5.1806 -5.0531,-7.4682 -11.9003,-7.4682 z"
         style="fill:url(#linearGradient7835);fill-rule:evenodd"
         inkscape:connector-curvature="0" />
      <path
         id="path6367-6-3-2-4"
         d="m 1070.9864,199.48566 c 0,0 0.9873,0.2979 1.5608,0.5881 0.199,0.1007 0.5434,0.3017 0.7917,0.5655 0.2433,0.2585 0.3619,0.5203 0.3619,0.5203 l 3.8907,6.5599 h -6.2884 l -2.9406,-5.5222 c 0,0 -0.6022,-1.0346 -0.9727,-1.3346 -0.3091,-0.2502 -0.4409,-0.3393 -0.7465,-0.3393 -0.2127,0 -1.4941,0 -1.4941,0 v 7.1921 h -5.5646 v -18.3717 h 11.1744 c 0,0 5.0896,0.092 5.0896,4.934 0,4.8423 -4.8634,5.2027 -4.8634,5.2027 z m -2.4204,-6.1516 h -3.3687 v 3.1239 h 3.3704 c 0,0 1.5608,0 1.5608,-1.5891 0,-1.6161 -1.5608,-1.5315 -1.5608,-1.5315 z"
         style="fill:#1f7a7a"
         inkscape:connector-curvature="0" />
    </g>
    <flowRoot
       transform="matrix(0.079375,0,0,0.079375,37.398085,32.457838)"
       style="font-style:normal;font-weight:normal;font-size:40px;line-height:1.25;font-family:sans-serif;letter-spacing:0px;word-spacing:0px;fill:#000000;fill-opacity:1;stroke:none"
       id="flowRoot9274"
       xml:space="preserve"><flowRegion
         id="flowRegion9276"><rect
           y="-1948.4504"
           x="-2605.7144"
           height="4205.7144"
           width="5005.7144"
           id="rect9278" /></flowRegion><flowPara
         id="flowPara9280" /></flowRoot>    <flowRoot
       xml:space="preserve"
       id="flowRoot7092"
       style="font-style:normal;font-weight:normal;font-size:40px;line-height:1.25;font-family:sans-serif;letter-spacing:0px;word-spacing:0px;fill:#000000;fill-opacity:1;stroke:none"
       transform="scale(0.26458333)"><flowRegion
         id="flowRegion7094"><rect
           id="rect7096"
           width="295.75491"
           height="336.12466"
           x="60"
           y="413.94824" /></flowRegion><flowPara
         id="flowPara7098" /></flowRoot>  </g>
</svg>
