<?xml version="1.0" encoding="UTF-8" standalone="no"?>
<svg
   xmlns:dc="http://purl.org/dc/elements/1.1/"
   xmlns:cc="http://creativecommons.org/ns#"
   xmlns:rdf="http://www.w3.org/1999/02/22-rdf-syntax-ns#"
   xmlns:svg="http://www.w3.org/2000/svg"
   xmlns="http://www.w3.org/2000/svg"
   version="1.1"
   id="svg5156"
   viewBox="0 0 210 160"
   height="160"
   width="210">
  <defs
     id="defs5158">
    <linearGradient
       spreadMethod="pad"
       gradientUnits="userSpaceOnUse"
       y2="593.78698"
       y1="3.6658269"
       x2="590.86259"
       x1="0.74144253"
       id="gradientFill"
       gradientTransform="matrix(1.2219423,0,0,0.81836924,-767.16729,-40.990215)">
      <stop
         id="stop6361"
         stop-opacity="1"
         stop-color="rgb(203,206,208)"
         offset="0" />
      <stop
         id="stop6363"
         stop-opacity="1"
         stop-color="rgb(132,131,139)"
         offset="1" />
    </linearGradient>
    <linearGradient
       spreadMethod="pad"
       gradientUnits="userSpaceOnUse"
       y2="593.78699"
       y1="3.6658268"
       x2="590.86261"
       x1="0.7414425"
       id="gradientFill-0"
       gradientTransform="matrix(1.2219423,0,0,0.81836924,-767.16729,-40.990215)">
      <stop
         id="stop6361-6"
         stop-opacity="1"
         stop-color="rgb(203,206,208)"
         offset="0" />
      <stop
         id="stop6363-2"
         stop-opacity="1"
         stop-color="rgb(132,131,139)"
         offset="1" />
    </linearGradient>
  </defs>
  <metadata
     id="metadata5161">
    <rdf:RDF>
      <cc:Work
         rdf:about="">
        <dc:format>image/svg+xml</dc:format>
        <dc:type
           rdf:resource="http://purl.org/dc/dcmitype/StillImage" />
        <dc:title></dc:title>
      </cc:Work>
    </rdf:RDF>
  </metadata>
  <g
     transform="translate(0,-892.36221)"
     id="layer1">
    <g
       transform="translate(636.4286,741.17006)"
       id="g7351">
      <g
         id="g7062"
         transform="matrix(1.278458,0,0,1.278458,163.92873,-86.278006)">
        <path
           id="path5787-8-1"
           transform="matrix(0.7821923,0,0,0.7821923,-626.03334,185.74733)"
           d="M 59.919922 19.515625 A 2.4124348 2.4124348 0 0 0 57.509766 21.925781 L 57.509766 98.681641 A 2.4124348 2.4124348 0 0 0 59.919922 101.09375 L 108.31836 101.09375 L 108.31836 108.66797 L 77.583984 108.66797 L 77.583984 114.31836 L 145.13281 114.31836 C 146.22061 115.2543 147.97517 116.74929 150.40039 118.68945 C 152.13718 120.07888 154.00563 121.51799 155.71289 122.7168 C 157.42016 123.91563 158.94048 124.87291 160.10742 125.31445 C 164.45959 126.96121 170.03531 126.95861 174.73438 124.72656 C 175.69461 124.27043 177.33173 124.05673 179.00977 124.12305 C 180.68777 124.1894 182.4202 124.5224 183.60938 125.00977 C 184.20395 125.25345 184.65933 125.53885 184.89453 125.78711 C 185.12973 126.03536 185.15879 126.15868 185.10742 126.35547 C 185.05616 126.55227 184.81781 126.91491 184.19922 127.3418 C 183.58066 127.76867 182.61188 128.24945 181.24609 128.74609 C 175.76785 130.73819 172.01357 130.34975 166.97461 129.78516 C 162.93005 129.33199 158.06383 128.78361 151.08203 129.2832 C 149.63627 126.80947 146.4649 125.02533 141.91602 125.16602 C 134.73613 125.38806 130.27701 130.47801 126.20898 134.99805 C 126.20898 134.99805 126.09513 135.67636 125.86914 136.69336 C 125.64312 137.71037 129.82592 141.77708 132.08594 143.24609 C 134.34594 144.71509 139.39431 143.51097 145.87109 140.42188 C 151.05875 137.94763 152.74301 133.84806 151.64062 130.51953 C 158.25696 130.08308 162.87322 130.61304 166.83203 131.05664 C 171.8784 131.62206 175.97475 132.02321 181.68359 129.94727 C 183.11456 129.42691 184.16847 128.91517 184.92578 128.39258 C 185.68308 127.86997 186.17636 127.32668 186.3457 126.67773 C 186.51506 126.0288 186.25377 125.36773 185.82031 124.91016 C 185.38676 124.4526 184.7955 124.11022 184.09766 123.82422 C 182.70193 123.2522 180.86788 122.91713 179.06055 122.8457 C 177.2532 122.77424 175.48529 122.95289 174.18555 123.57031 C 169.84456 125.6323 164.57044 125.63445 160.56055 124.11719 C 159.63696 123.76773 158.1214 122.8441 156.44922 121.66992 C 154.77706 120.49572 152.92504 119.0705 151.20117 117.69141 C 149.62758 116.43253 148.23828 115.27093 147.10938 114.31836 L 161.6543 114.31836 L 161.6543 108.66797 L 130.91797 108.66797 L 130.91797 101.09375 L 179.31836 101.09375 A 2.4124348 2.4124348 0 0 0 181.73047 98.681641 L 181.73047 21.925781 A 2.4124348 2.4124348 0 0 0 179.31836 19.515625 L 59.919922 19.515625 z M 62.332031 24.337891 L 176.90625 24.337891 L 176.90625 96.267578 L 62.332031 96.267578 L 62.332031 24.337891 z "
           style="fill:#666666;fill-opacity:1;fill-rule:evenodd;stroke:none;stroke-width:0.80514383px;stroke-linecap:butt;stroke-linejoin:miter;stroke-opacity:1" />
        <rect
           y="208.98975"
           x="-537.85553"
           height="4.375"
           width="4.375"
           id="rect6192-2"
           style="opacity:1;fill:#1f7a7a;fill-opacity:1;fill-rule:nonzero;stroke:none;stroke-width:3;stroke-linecap:round;stroke-linejoin:round;stroke-miterlimit:4;stroke-dasharray:none;stroke-dashoffset:0;stroke-opacity:1" />
        <rect
           y="214.98981"
           x="-537.85553"
           height="4.375"
           width="4.375"
           id="rect6192-0"
           style="opacity:1;fill:#000000;fill-opacity:1;fill-rule:nonzero;stroke:none;stroke-width:3;stroke-linecap:round;stroke-linejoin:round;stroke-miterlimit:4;stroke-dasharray:none;stroke-dashoffset:0;stroke-opacity:1" />
        <rect
           y="220.98981"
           x="-537.85553"
           height="4.375"
           width="4.375"
           id="rect6192-64"
           style="opacity:1;fill:#000000;fill-opacity:1;fill-rule:nonzero;stroke:none;stroke-width:3;stroke-linecap:round;stroke-linejoin:round;stroke-miterlimit:4;stroke-dasharray:none;stroke-dashoffset:0;stroke-opacity:1" />
        <rect
           y="226.98981"
           x="-537.85553"
           height="4.375"
           width="4.375"
           id="rect6192-3"
           style="opacity:1;fill:#1f7a7a;fill-opacity:1;fill-rule:nonzero;stroke:none;stroke-width:3;stroke-linecap:round;stroke-linejoin:round;stroke-miterlimit:4;stroke-dasharray:none;stroke-dashoffset:0;stroke-opacity:1" />
        <rect
           y="238.48975"
           x="-537.10553"
           height="4.375"
           width="4.375"
           id="rect6192-0-9"
           style="opacity:1;fill:#1f7a7a;fill-opacity:1;fill-rule:nonzero;stroke:none;stroke-width:3;stroke-linecap:round;stroke-linejoin:round;stroke-miterlimit:4;stroke-dasharray:none;stroke-dashoffset:0;stroke-opacity:1" />
        <rect
           y="244.48981"
           x="-537.10553"
           height="4.375"
           width="4.375"
           id="rect6192-64-7"
           style="opacity:1;fill:#000000;fill-opacity:1;fill-rule:nonzero;stroke:none;stroke-width:3;stroke-linecap:round;stroke-linejoin:round;stroke-miterlimit:4;stroke-dasharray:none;stroke-dashoffset:0;stroke-opacity:1" />
        <rect
           y="250.48981"
           x="-537.10553"
           height="4.375"
           width="4.375"
           id="rect6192-3-3"
           style="opacity:1;fill:#1f7a7a;fill-opacity:1;fill-rule:nonzero;stroke:none;stroke-width:3;stroke-linecap:round;stroke-linejoin:round;stroke-miterlimit:4;stroke-dasharray:none;stroke-dashoffset:0;stroke-opacity:1" />
        <rect
           y="238.44977"
           x="-498.8555"
           height="4.375"
           width="4.375"
           id="rect6192-2-1"
           style="opacity:1;fill:#1f7a7a;fill-opacity:1;fill-rule:nonzero;stroke:none;stroke-width:3;stroke-linecap:round;stroke-linejoin:round;stroke-miterlimit:4;stroke-dasharray:none;stroke-dashoffset:0;stroke-opacity:1" />
        <rect
           y="244.44977"
           x="-498.8555"
           height="4.375"
           width="4.375"
           id="rect6192-0-8"
           style="opacity:1;fill:#000000;fill-opacity:1;fill-rule:nonzero;stroke:none;stroke-width:3;stroke-linecap:round;stroke-linejoin:round;stroke-miterlimit:4;stroke-dasharray:none;stroke-dashoffset:0;stroke-opacity:1" />
        <rect
           y="250.44983"
           x="-498.8555"
           height="4.375"
           width="4.375"
           id="rect6192-64-74"
           style="opacity:1;fill:#1f7a7a;fill-opacity:1;fill-rule:nonzero;stroke:none;stroke-width:3;stroke-linecap:round;stroke-linejoin:round;stroke-miterlimit:4;stroke-dasharray:none;stroke-dashoffset:0;stroke-opacity:1" />
        <rect
           y="238.94977"
           x="-525.85553"
           height="2.7500002"
           width="22.000002"
           id="rect6192-3-3-2-8"
           style="opacity:1;fill:#1f7a7a;fill-opacity:1;fill-rule:nonzero;stroke:none;stroke-width:3;stroke-linecap:round;stroke-linejoin:round;stroke-miterlimit:4;stroke-dasharray:none;stroke-dashoffset:0;stroke-opacity:1" />
        <rect
           y="243.26227"
           x="-525.66803"
           height="2.7500002"
           width="9.4915218"
           id="rect6192-3-3-2-8-5"
           style="opacity:1;fill:#1f7a7a;fill-opacity:1;fill-rule:nonzero;stroke:none;stroke-width:3;stroke-linecap:round;stroke-linejoin:round;stroke-miterlimit:4;stroke-dasharray:none;stroke-dashoffset:0;stroke-opacity:1" />
        <rect
           y="243.26227"
           x="-515.15961"
           height="2.7500002"
           width="9.4915218"
           id="rect6192-3-3-2-8-5-1"
           style="opacity:1;fill:#1f7a7a;fill-opacity:1;fill-rule:nonzero;stroke:none;stroke-width:3;stroke-linecap:round;stroke-linejoin:round;stroke-miterlimit:4;stroke-dasharray:none;stroke-dashoffset:0;stroke-opacity:1" />
        <rect
           y="247.57477"
           x="-525.79303"
           height="2.7500002"
           width="22.000002"
           id="rect6192-3-3-2-8-2"
           style="opacity:1;fill:#1f7a7a;fill-opacity:1;fill-rule:nonzero;stroke:none;stroke-width:3;stroke-linecap:round;stroke-linejoin:round;stroke-miterlimit:4;stroke-dasharray:none;stroke-dashoffset:0;stroke-opacity:1" />
        <rect
           y="251.88721"
           x="-525.79303"
           height="2.7500002"
           width="5.5762639"
           id="rect6192-3-3-2-8-5-6"
           style="opacity:1;fill:#1f7a7a;fill-opacity:1;fill-rule:nonzero;stroke:none;stroke-width:3;stroke-linecap:round;stroke-linejoin:round;stroke-miterlimit:4;stroke-dasharray:none;stroke-dashoffset:0;stroke-opacity:1" />
        <rect
           y="251.88721"
           x="-518.61926"
           height="2.7500002"
           width="13.201264"
           id="rect6192-3-3-2-8-5-1-4"
           style="opacity:1;fill:#1f7a7a;fill-opacity:1;fill-rule:nonzero;stroke:none;stroke-width:3;stroke-linecap:round;stroke-linejoin:round;stroke-miterlimit:4;stroke-dasharray:none;stroke-dashoffset:0;stroke-opacity:1" />
        <rect
           y="239.93451"
           x="-573.1261"
           height="2.7500002"
           width="27.983002"
           id="rect6192-3-3-2-8-56"
           style="opacity:1;fill:#1f7a7a;fill-opacity:1;fill-rule:nonzero;stroke:none;stroke-width:3;stroke-linecap:round;stroke-linejoin:round;stroke-miterlimit:4;stroke-dasharray:none;stroke-dashoffset:0;stroke-opacity:1" />
        <rect
           y="244.24701"
           x="-572.88757"
           height="2.7500002"
           width="12.072784"
           id="rect6192-3-3-2-8-5-5"
           style="opacity:1;fill:#1f7a7a;fill-opacity:1;fill-rule:nonzero;stroke:none;stroke-width:3;stroke-linecap:round;stroke-linejoin:round;stroke-miterlimit:4;stroke-dasharray:none;stroke-dashoffset:0;stroke-opacity:1" />
        <rect
           y="244.24701"
           x="-559.5213"
           height="2.7500002"
           width="12.072784"
           id="rect6192-3-3-2-8-5-1-2"
           style="opacity:1;fill:#1f7a7a;fill-opacity:1;fill-rule:nonzero;stroke:none;stroke-width:3;stroke-linecap:round;stroke-linejoin:round;stroke-miterlimit:4;stroke-dasharray:none;stroke-dashoffset:0;stroke-opacity:1" />
        <rect
           y="248.55945"
           x="-573.04657"
           height="2.7500002"
           width="27.983002"
           id="rect6192-3-3-2-8-2-6"
           style="opacity:1;fill:#1f7a7a;fill-opacity:1;fill-rule:nonzero;stroke:none;stroke-width:3;stroke-linecap:round;stroke-linejoin:round;stroke-miterlimit:4;stroke-dasharray:none;stroke-dashoffset:0;stroke-opacity:1" />
        <rect
           y="252.87195"
           x="-573.04651"
           height="2.7500002"
           width="7.0927544"
           id="rect6192-3-3-2-8-5-6-1"
           style="opacity:1;fill:#1f7a7a;fill-opacity:1;fill-rule:nonzero;stroke:none;stroke-width:3;stroke-linecap:round;stroke-linejoin:round;stroke-miterlimit:4;stroke-dasharray:none;stroke-dashoffset:0;stroke-opacity:1" />
        <rect
           y="252.87195"
           x="-563.92188"
           height="2.7500002"
           width="16.791409"
           id="rect6192-3-3-2-8-5-1-4-3"
           style="opacity:1;fill:#1f7a7a;fill-opacity:1;fill-rule:nonzero;stroke:none;stroke-width:3;stroke-linecap:round;stroke-linejoin:round;stroke-miterlimit:4;stroke-dasharray:none;stroke-dashoffset:0;stroke-opacity:1" />
        <rect
           y="208.80951"
           x="-563.75104"
           height="2.7500002"
           width="22.000002"
           id="rect6192-3-3-2-8-1"
           style="opacity:1;fill:#1f7a7a;fill-opacity:1;fill-rule:nonzero;stroke:none;stroke-width:3;stroke-linecap:round;stroke-linejoin:round;stroke-miterlimit:4;stroke-dasharray:none;stroke-dashoffset:0;stroke-opacity:1" />
        <rect
           y="213.12201"
           x="-563.56354"
           height="2.7500002"
           width="9.4915218"
           id="rect6192-3-3-2-8-5-2"
           style="opacity:1;fill:#1f7a7a;fill-opacity:1;fill-rule:nonzero;stroke:none;stroke-width:3;stroke-linecap:round;stroke-linejoin:round;stroke-miterlimit:4;stroke-dasharray:none;stroke-dashoffset:0;stroke-opacity:1" />
        <rect
           y="213.12201"
           x="-553.05511"
           height="2.7500002"
           width="9.4915218"
           id="rect6192-3-3-2-8-5-1-6"
           style="opacity:1;fill:#1f7a7a;fill-opacity:1;fill-rule:nonzero;stroke:none;stroke-width:3;stroke-linecap:round;stroke-linejoin:round;stroke-miterlimit:4;stroke-dasharray:none;stroke-dashoffset:0;stroke-opacity:1" />
        <rect
           y="217.43445"
           x="-563.68854"
           height="2.7500002"
           width="22.000002"
           id="rect6192-3-3-2-8-2-9"
           style="opacity:1;fill:#1f7a7a;fill-opacity:1;fill-rule:nonzero;stroke:none;stroke-width:3;stroke-linecap:round;stroke-linejoin:round;stroke-miterlimit:4;stroke-dasharray:none;stroke-dashoffset:0;stroke-opacity:1" />
        <rect
           y="221.74695"
           x="-563.68854"
           height="2.7500002"
           width="5.5762639"
           id="rect6192-3-3-2-8-5-6-4"
           style="opacity:1;fill:#1f7a7a;fill-opacity:1;fill-rule:nonzero;stroke:none;stroke-width:3;stroke-linecap:round;stroke-linejoin:round;stroke-miterlimit:4;stroke-dasharray:none;stroke-dashoffset:0;stroke-opacity:1" />
        <rect
           y="221.74695"
           x="-556.51477"
           height="2.7500002"
           width="13.201264"
           id="rect6192-3-3-2-8-5-1-4-6"
           style="opacity:1;fill:#1f7a7a;fill-opacity:1;fill-rule:nonzero;stroke:none;stroke-width:3;stroke-linecap:round;stroke-linejoin:round;stroke-miterlimit:4;stroke-dasharray:none;stroke-dashoffset:0;stroke-opacity:1" />
        <rect
           y="226.1532"
           x="-563.21979"
           height="2.7500002"
           width="22.000002"
           id="rect6192-3-3-2-8-2-9-2"
           style="opacity:1;fill:#1f7a7a;fill-opacity:1;fill-rule:nonzero;stroke:none;stroke-width:3;stroke-linecap:round;stroke-linejoin:round;stroke-miterlimit:4;stroke-dasharray:none;stroke-dashoffset:0;stroke-opacity:1" />
        <rect
           y="230.65326"
           x="-571.09479"
           height="2.7500002"
           width="22.000002"
           id="rect6192-3-3-2-8-2-9-2-6"
           style="opacity:1;fill:#1f7a7a;fill-opacity:1;fill-rule:nonzero;stroke:none;stroke-width:3;stroke-linecap:round;stroke-linejoin:round;stroke-miterlimit:4;stroke-dasharray:none;stroke-dashoffset:0;stroke-opacity:1" />
        <ellipse
           ry="22.602047"
           rx="22.414293"
           cy="227.20691"
           cx="-575.09125"
           id="path5071-73-2-9-0-9"
           style="opacity:1;fill:#000000;fill-opacity:1;fill-rule:nonzero;stroke:none;stroke-width:2;stroke-linecap:round;stroke-linejoin:round;stroke-miterlimit:4;stroke-dasharray:none;stroke-dashoffset:0;stroke-opacity:1" />
        <g
           transform="matrix(0.04374305,0,0,0.04374305,-492.16083,208.26677)"
           id="g6940">
          <path
             style="fill:url(#gradientFill);fill-rule:evenodd"
             d="m -405.71429,444.94677 c -199.124,0 -360.547,-108.109 -360.547,-241.468 0,-133.359995 161.423,-241.468985 360.547,-241.468985 199.125,0 360.547003,108.10899 360.547003,241.468985 0,133.359 -161.422003,241.468 -360.547003,241.468 z m 55.188,-388.530985 c -151.352,0 -274.047,73.907985 -274.047,165.077985 0,91.17 122.695,165.078 274.047,165.078 151.351,0 263.046003,-50.529 263.046003,-165.078 0,-114.513 -111.695003,-165.077985 -263.046003,-165.077985 z"
             id="path6365" />
          <path
             style="fill:#1f7a7a"
             d="m -217.16729,336.00977 c 0,0 21.822,6.585 34.5,13 4.399,2.226 12.01,6.668 17.5,12.5 5.378,5.712 8,11.5 8,11.5 l 86.000003,145 -139.000003,0.062 -65,-122.062 c 0,0 -13.31,-22.869 -21.5,-29.5 -6.832,-5.531 -9.745,-7.5 -16.5,-7.5 -4.702,0 -33.026,0 -33.026,0 l 0.026,158.974 -123,0.052 0,-406.088 247,0 c 0,0 112.5,2.029 112.5,109.062 0,107.033 -107.5,115 -107.5,115 z m -53.5,-135.976 -74.463,-0.048 -0.037,69.05 74.5,-0.024 c 0,0 34.5,-0.107 34.5,-35.125 0,-35.722 -34.5,-33.853 -34.5,-33.853 z"
             id="path6367" />
        </g>
        <path
           id="path5073-9-2-8-5-5"
           transform="matrix(0.7821923,0,0,0.7821923,-626.03334,185.74733)"
           d="M 95.769531,88.833984 C 74.421045,89.054657 53.219328,88.9375 34.759766,88.9375 l -0.0078,-0.0059 c -2.991235,0.283796 -5.537925,1.456617 -7.558594,3.558593 -0.702359,0.708714 -1.272455,1.386809 -1.871093,2.166016 -1.197264,1.558517 -2.433682,3.490143 -3.804688,5.906251 -2.741973,4.83215 -5.860179,11.60742 -8.634766,20.43555 -3.1287058,9.95495 -5.8004618,22.51032 -6.8964839,37.65234 l 18.6601559,0 c 1.04895,-13.08816 3.379281,-23.77287 5.988282,-32.07422 1.349502,-4.29381 2.765905,-7.88773 4.11914,-10.91015 l 0,42.98437 62.808594,0 -0.02344,-40.32812 c 4.862217,10.51795 8.285147,18.14702 12.144527,23.44726 1.4536,1.9963 3.09945,3.88248 5.64258,5.29102 2.54314,1.40854 6.12057,1.85338 8.92383,1.12109 5.60651,-1.46459 8.47476,-4.92711 12.36133,-9.20117 2.94927,-3.12133 2.76218,-8.05553 -0.41499,-10.94456 -3.17716,-2.88903 -8.10689,-2.6076 -10.93462,0.62425 -1.47106,1.61773 -2.63716,2.58368 -3.5586,3.33984 -2.93325,-4.34851 -8.66184,-17.77678 -19.1875,-38.828126 -1.25359,-2.599909 -3.860398,-4.276147 -6.746088,-4.337891 z"
           style="color:#000000;font-style:normal;font-variant:normal;font-weight:normal;font-stretch:normal;font-size:medium;line-height:normal;font-family:sans-serif;text-indent:0;text-align:start;text-decoration:none;text-decoration-line:none;text-decoration-style:solid;text-decoration-color:#000000;letter-spacing:normal;word-spacing:normal;text-transform:none;direction:ltr;block-progression:tb;writing-mode:lr-tb;baseline-shift:baseline;text-anchor:start;white-space:normal;clip-rule:nonzero;display:inline;overflow:visible;visibility:visible;opacity:1;isolation:auto;mix-blend-mode:normal;color-interpolation:sRGB;color-interpolation-filters:linearRGB;solid-color:#000000;solid-opacity:1;fill:#000000;fill-opacity:1;fill-rule:evenodd;stroke:none;stroke-width:15;stroke-linecap:round;stroke-linejoin:round;stroke-miterlimit:4;stroke-dasharray:none;stroke-dashoffset:0;stroke-opacity:1;color-rendering:auto;image-rendering:auto;shape-rendering:auto;text-rendering:auto;enable-background:accumulate" />
      </g>
      <rect
         style="opacity:1;fill:none;fill-opacity:1;fill-rule:nonzero;stroke:#666666;stroke-width:0.29785961;stroke-linecap:round;stroke-linejoin:round;stroke-miterlimit:4;stroke-dasharray:none;stroke-dashoffset:0;stroke-opacity:1"
         id="rect7152-3-7-6"
         width="207.03087"
         height="157.00214"
         x="-634.94403"
         y="152.69109" />
    </g>
  </g>
</svg>
