<?xml version="1.0" standalone="no"?>
<!DOCTYPE svg PUBLIC "-//W3C//DTD SVG 20010904//EN"
 "http://www.w3.org/TR/2001/REC-SVG-20010904/DTD/svg10.dtd">
<svg version="1.0" xmlns="http://www.w3.org/2000/svg"
 width="700.000000pt" height="700.000000pt" viewBox="0 0 700.000000 700.000000"
 preserveAspectRatio="xMidYMid meet">
<metadata>
Created by potrace 1.11, written by Peter Selinger 2001-2013
</metadata>
<g transform="translate(0.000000,700.000000) scale(0.100000,-0.100000)"
fill="#000000" stroke="none">
<path d="M1275 5802 c-77 -9 -224 -149 -280 -267 -63 -133 -61 -76 -59 -1560
1 -1213 3 -1356 17 -1407 62 -216 232 -379 442 -423 105 -22 4105 -22 4210 0
178 37 341 170 418 339 49 109 48 61 48 1509 0 922 -3 1367 -10 1399 -36 157
-131 295 -264 380 l-51 33 -2220 0 c-1222 0 -2234 -2 -2251 -3z m4267 -426
c64 -42 60 44 60 -1380 0 -1444 5 -1346 -65 -1383 -30 -16 -159 -17 -2032 -18
-1955 -2 -2001 -1 -2036 18 -75 40 -69 -75 -69 1384 0 1294 0 1308 20 1341 40
65 -107 60 2087 60 l2002 0 33 -22z"/>
<path d="M1910 5179 c-33 -13 -59 -38 -78 -74 -12 -24 -15 -75 -17 -270 -1
-255 2 -293 33 -334 45 -61 61 -64 329 -65 283 -1 317 4 360 61 26 34 28 44
31 151 4 128 -3 148 -41 110 -21 -21 -24 -33 -24 -106 -1 -88 -16 -126 -54
-140 -11 -4 -128 -7 -262 -7 -256 1 -279 5 -294 50 -11 30 -11 486 -1 516 17
50 39 54 314 54 231 0 255 2 271 18 17 18 17 19 -1 33 -16 11 -69 14 -280 13
-147 0 -272 -5 -286 -10z"/>
<path d="M2410 4978 l-181 -182 -77 77 c-43 42 -86 77 -96 77 -28 0 -106 -83
-100 -107 3 -12 63 -78 134 -148 121 -119 130 -126 152 -114 37 20 468 456
468 474 0 21 -74 95 -99 100 -15 3 -66 -43 -201 -177z"/>
<path d="M4178 5015 c-2 -1 -59 -5 -128 -8 -69 -3 -172 -15 -230 -27 -455 -93
-791 -332 -900 -640 -41 -116 -36 -283 13 -415 63 -171 252 -357 476 -470 134
-67 345 -132 488 -150 36 -5 52 -11 55 -23 2 -9 3 -72 3 -139 l-1 -123 220 0
221 0 0 137 0 136 100 17 c55 10 125 24 157 33 51 13 57 13 62 -2 4 -14 134
-257 161 -304 10 -16 31 -17 258 -15 l246 3 -74 124 c-41 69 -75 126 -75 128
0 2 -11 20 -23 41 -13 20 -47 76 -75 123 l-50 87 52 36 c59 41 171 151 214
212 44 61 101 184 112 244 13 70 13 196 -1 262 -13 64 -70 188 -112 243 -209
275 -609 463 -1027 481 -58 3 -113 6 -122 8 -9 2 -18 3 -20 1z m412 -350 c211
-19 411 -84 525 -170 126 -96 185 -199 202 -350 25 -220 -71 -404 -269 -513
-36 -21 -37 -21 -75 -2 -22 10 -51 22 -66 25 -43 11 -40 22 6 29 60 9 154 56
207 104 97 86 139 222 116 375 -21 139 -105 232 -263 289 -56 21 -76 22 -518
25 -253 1 -469 0 -480 -2 -21 -4 -21 -9 -21 -462 0 -448 -1 -458 -20 -455 -45
8 -175 65 -249 109 -44 26 -109 77 -145 113 -288 292 -122 659 375 825 39 13
81 26 95 28 123 23 211 37 240 39 53 5 267 0 340 -7z m106 -510 c24 -3 50 -15
63 -28 30 -33 37 -103 14 -147 -29 -55 -58 -64 -225 -66 l-148 -1 0 123 0 123
33 3 c45 4 214 0 263 -7z m-121 -596 c49 -43 46 -59 -12 -60 -27 0 -75 -1
-108 -2 l-59 -2 -1 40 c-1 22 0 43 2 48 2 4 35 7 73 7 63 0 72 -3 105 -31z"/>
<path d="M1980 4370 c-92 -9 -143 -48 -159 -121 -4 -19 -6 -143 -6 -275 1
-219 3 -244 21 -274 25 -44 63 -71 110 -79 22 -4 145 -6 274 -5 261 1 278 4
322 66 23 32 23 38 26 303 2 265 2 271 -21 310 -39 68 -67 75 -305 78 -114 1
-232 0 -262 -3z m477 -78 c42 -23 45 -44 45 -286 0 -127 -1 -239 -1 -248 -1
-9 -12 -29 -25 -45 l-24 -28 -238 0 c-132 -1 -253 2 -270 7 -55 14 -59 34 -59
309 0 333 -31 304 330 303 150 0 227 -4 242 -12z"/>
<path d="M1889 3527 c-18 -12 -42 -37 -53 -56 -18 -31 -19 -53 -20 -295 0
-278 2 -294 52 -339 41 -38 81 -43 339 -42 228 1 252 3 283 20 64 38 75 63 78
192 4 130 -4 151 -41 111 -21 -22 -24 -36 -25 -113 0 -81 -3 -90 -26 -114
l-26 -26 -246 0 c-280 -1 -298 3 -313 64 -5 20 -8 140 -7 268 1 212 3 233 20
252 11 12 32 25 48 29 15 4 136 6 268 6 226 -1 240 0 257 18 17 19 17 20 -2
34 -16 12 -69 14 -287 14 -257 -1 -268 -2 -299 -23z"/>
<path d="M2587 3508 c-9 -5 -94 -86 -187 -181 l-170 -171 -78 77 c-43 42 -85
77 -95 77 -20 0 -91 -66 -101 -94 -5 -15 21 -46 120 -147 69 -70 135 -130 147
-133 16 -4 68 43 253 228 129 128 234 241 234 250 0 18 -65 88 -91 98 -8 3
-23 2 -32 -4z"/>
<path d="M2 1690 c3 -189 5 -208 25 -245 62 -114 198 -196 385 -231 74 -14
392 -16 3073 -16 1645 0 3015 3 3045 6 87 9 169 33 255 76 94 45 158 104 191
176 24 50 24 59 22 245 l-3 194 -3498 0 -3498 0 3 -205z m3828 -50 c24 -24 25
-47 3 -72 -15 -17 -39 -18 -331 -18 -279 0 -318 2 -334 17 -24 21 -23 48 2 73
19 19 33 20 330 20 297 0 311 -1 330 -20z"/>
</g>
</svg>
