<svg xmlns="http://www.w3.org/2000/svg" width="28.193991mm" height="28.193991mm" viewBox="0 0 99.899961 99.899967" version="1.1">
<g transform="translate(-329.14286,-214.37695)">
<rect style="fill:#000000" width="97.463379" height="97.463379" x="330.36115" y="215.59525" />
<path
   d="m 347.4536,276.45752 -4.45057,0 0,21.62979 4.45057,0 0,-21.62979 z"
   style="font-style:normal;font-variant:normal;font-weight:bold;font-stretch:normal;font-size:29.67049026px;font-family:'Nimbus Sans L';-inkscape-font-specification:'Nimbus Sans L Bold';fill:#ffffff"/>
<path
   d="m 356.18693,276.45752 -4.45058,0 0,21.62979 14.80558,0 0,-3.70881 -10.355,0 0,-17.92098 z"
   style="font-style:normal;font-variant:normal;font-weight:bold;font-stretch:normal;font-size:29.67049026px;font-family:'Nimbus Sans L';-inkscape-font-specification:'Nimbus Sans L Bold';fill:#ffffff"/>
<path
   d="m 373.82093,276.45752 -4.45057,0 0,21.62979 4.45057,0 0,-21.62979 z"
   style="font-style:normal;font-variant:normal;font-weight:bold;font-stretch:normal;font-size:29.67049026px;font-family:'Nimbus Sans L';-inkscape-font-specification:'Nimbus Sans L Bold';fill:#ffffff"/>
<path
   d="m 390.59496,293.72575 1.42418,4.36156 4.56926,0 -7.47697,-21.62979 -4.9253,0 -7.68466,21.62979 4.53959,0 1.45385,-4.36156 8.10005,0 z m -1.21649,-3.70881 -5.6374,0 2.8187,-8.45609 2.8187,8.45609 z"
   style="font-style:normal;font-variant:normal;font-weight:bold;font-stretch:normal;font-size:29.67049026px;font-family:'Nimbus Sans L';-inkscape-font-specification:'Nimbus Sans L Bold';fill:#ffffff"/>
<path
   d="m 415.1816,283.04437 c 0,-1.98792 -0.44506,-3.29342 -1.5132,-4.48024 -1.45385,-1.60221 -3.85716,-2.46265 -6.97256,-2.46265 -5.19234,0 -8.18906,2.43298 -8.18906,6.64619 0,3.35276 1.69122,4.98464 6.08245,5.81541 l 3.02639,0.59341 c 2.96705,0.56374 4.06486,1.39452 4.06486,3.14508 0,1.8099 -1.66155,2.9077 -4.36156,2.9077 -3.02639,0 -4.71761,-1.27583 -4.86596,-3.59013 l -4.3319,0 c 0.26704,4.6286 3.44178,7.15059 8.96049,7.15059 5.57805,0 8.87148,-2.611 8.87148,-7.00223 0,-3.41211 -1.72089,-5.19234 -5.72641,-5.96377 l -3.38243,-0.65275 c -3.17474,-0.62308 -4.09453,-1.24616 -4.09453,-2.8187 0,-1.63188 1.45385,-2.67034 3.73848,-2.67034 2.8187,0 4.39123,1.18682 4.53959,3.38243 l 4.15387,0 z"
   style="font-style:normal;font-variant:normal;font-weight:bold;font-stretch:normal;font-size:29.67049026px;font-family:'Nimbus Sans L';-inkscape-font-specification:'Nimbus Sans L Bold';fill:#ffffff"/>
<path
   d="m 418.67831,276.94624 q -0.56703,0 -1.0544,0.2062 -0.48737,0.20151 -0.89507,0.60921 -0.4077,0.4077 -0.6139,0.89507 -0.20151,0.48268 -0.20151,1.0544 0,0.56704 0.20151,1.05441 0.2062,0.48268 0.6139,0.89038 0.40302,0.40302 0.89038,0.60453 0.49206,0.2015 1.05909,0.2015 0.57641,0 1.05909,-0.19682 0.48269,-0.20151 0.89039,-0.60921 0.4077,-0.4077 0.60921,-0.89038 0.20619,-0.48737 0.20619,-1.05441 0,-0.57172 -0.20619,-1.0544 -0.20151,-0.48737 -0.60921,-0.89507 -0.41239,-0.41239 -0.89976,-0.6139 -0.48268,-0.20151 -1.04972,-0.20151 z m -0.26711,1.38244 -0.16402,0 0,0.97005 0.16402,0 q 0.36553,0 0.54829,-0.12184 0.18745,-0.12653 0.18745,-0.37021 0,-0.24368 -0.18277,-0.36084 -0.17807,-0.11716 -0.55297,-0.11716 z m 0.17339,-0.6467 q 0.82478,0 1.23248,0.28118 0.4077,0.27648 0.4077,0.84352 0,0.40302 -0.24837,0.66545 -0.24368,0.26242 -0.69356,0.34209 0.19213,0.1031 0.35615,0.29055 0.16871,0.18745 0.30461,0.45925 l 0.52017,1.03566 -1.07315,0 -0.50143,-0.99817 q -0.17807,-0.36553 -0.31397,-0.51549 -0.1359,-0.15464 -0.2718,-0.15464 l -0.0562,0 0,1.6683 -0.99817,0 0,-3.9177 1.33558,0 z m 0.0937,-1.45742 q 0.71231,0 1.32621,0.25775 0.61858,0.25774 1.12938,0.76854 0.5108,0.5108 0.76386,1.1247 0.25306,0.61389 0.25306,1.33557 0,0.71231 -0.25306,1.32621 -0.25306,0.60921 -0.76386,1.12001 -0.5108,0.5108 -1.12938,0.76854 -0.6139,0.25774 -1.32621,0.25774 -0.7123,0 -1.33089,-0.25774 -0.61389,-0.25774 -1.12469,-0.76854 -0.5108,-0.5108 -0.76386,-1.12001 -0.25306,-0.6139 -0.25306,-1.32621 0,-0.72168 0.25306,-1.33557 0.25306,-0.6139 0.76386,-1.1247 0.5108,-0.5108 1.12469,-0.76854 0.61859,-0.25775 1.33089,-0.25775 z"
   style="font-style:normal;font-variant:normal;font-weight:bold;font-stretch:normal;font-family:sans-serif;-inkscape-font-specification:'sans-serif Bold';fill:#ffffff"/>
</g>
</svg>
