<svg version="1.0" xmlns="http://www.w3.org/2000/svg" width="1608.000000pt" height="1608.000000pt" viewBox="0 0 1608.000000 1608.000000" preserveAspectRatio="xMidYMid meet">
<g transform="translate(0.000000,1608.000000) scale(0.100000,-0.100000)" fill="#000000" stroke="none">
<path d="M3265 12039 c-510 -33 -938 -147 -1350 -358 -457 -235 -819 -539
-1127 -948 -413 -549 -670 -1215 -764 -1983 -22 -179 -30 -719 -15 -918 44
-551 170 -1032 391 -1489 176 -365 358 -627 625 -902 534 -549 1229 -892 2018
-995 368 -48 798 -45 1177 10 698 100 1418 421 2130 950 405 300 623 495 1354
1212 l350 344 114 -124 c308 -331 798 -799 1108 -1059 678 -567 1225 -899
1875 -1138 539 -198 1167 -271 1782 -206 572 60 1064 235 1542 550 820 538
1346 1383 1525 2448 192 1142 -24 2264 -601 3117 -222 329 -525 636 -854 867
-496 348 -1053 549 -1700 614 -157 16 -587 16 -740 0 -243 -25 -511 -79 -727
-147 -243 -76 -681 -274 -958 -434 -369 -213 -805 -536 -1188 -883 -157 -142
-633 -623 -887 -897 -104 -113 -213 -229 -240 -258 l-50 -53 -140 143 c-336
346 -933 935 -1070 1057 -866 770 -1791 1274 -2617 1425 -281 52 -673 74 -963
55z m505 -1810 c288 -35 552 -123 900 -300 450 -227 902 -533 1305 -883 76
-66 679 -626 869 -807 l60 -57 -100 -106 c-236 -253 -686 -656 -1029 -922
-356 -275 -620 -448 -920 -600 -573 -289 -1014 -381 -1555 -323 -615 66 -1115
414 -1388 964 -185 372 -258 850 -201 1310 60 486 300 973 641 1301 248 239
554 379 933 427 68 9 406 6 485 -4z m9022 -5 c392 -50 708 -193 961 -433 247
-236 442 -579 537 -946 55 -215 73 -372 74 -645 1 -149 -4 -280 -12 -335 -63
-445 -208 -785 -466 -1092 -201 -241 -479 -412 -799 -494 -359 -92 -794 -86
-1195 16 -536 135 -1205 513 -1802 1015 -163 137 -922 831 -928 849 -3 9 702
700 863 845 498 449 990 788 1453 1001 253 116 479 187 700 219 137 20 460 20
614 0z"/>
</g>
</svg>
